<?xml version="1.0" standalone="no"?>
<!DOCTYPE svg PUBLIC "-//W3C//DTD SVG 20010904//EN"
 "http://www.w3.org/TR/2001/REC-SVG-20010904/DTD/svg10.dtd">
<svg version="1.0" xmlns="http://www.w3.org/2000/svg"
 width="1635.000000pt" height="958.000000pt" viewBox="0 0 1635.000000 958.000000"
 preserveAspectRatio="xMidYMid meet">

<g transform="translate(0.000000,958.000000) scale(0.100000,-0.100000)"
fill="#000000" stroke="none">
<path d="M8890 7615 c0 -168 -2 -305 -5 -305 -3 0 -69 32 -147 71 -109 55
-143 68 -149 57 -5 -7 -9 -15 -9 -18 0 -3 43 -27 95 -53 82 -41 95 -50 95 -72
0 -22 -13 -31 -95 -72 -52 -26 -95 -50 -95 -53 0 -3 4 -11 9 -18 6 -11 40 2
149 57 78 39 144 71 147 71 3 0 5 -135 5 -300 l0 -300 2020 0 2020 0 0 620 0
620 -2020 0 -2020 0 0 -305z m4000 -315 l0 -580 -1980 0 -1980 0 0 580 0 580
1980 0 1980 0 0 -580z"/>
<path d="M10230 7335 c0 -167 1 -175 20 -175 18 0 20 8 22 138 l3 137 90 -137
c71 -108 95 -137 113 -138 22 0 22 0 22 175 0 167 -1 175 -20 175 -18 0 -20
-8 -22 -137 l-3 -138 -89 138 c-73 113 -92 137 -112 137 l-24 0 0 -175z"/>
<path d="M11290 7505 c0 -3 29 -49 65 -103 l65 -97 0 -72 c0 -66 2 -73 20 -73
18 0 20 7 20 78 l0 78 56 79 c78 113 79 115 52 115 -18 0 -34 -18 -73 -80 -27
-43 -52 -79 -55 -79 -3 0 -27 36 -55 79 -38 61 -55 80 -72 80 -13 0 -23 -2
-23 -5z"/>
<path d="M12020 7335 c0 -168 1 -175 20 -175 18 0 20 7 20 54 0 36 5 58 15 66
9 7 17 11 19 9 1 -2 20 -32 41 -66 30 -50 43 -63 63 -63 28 0 32 -11 -46 108
l-35 53 48 49 c46 46 47 50 25 50 -16 0 -43 -18 -77 -52 l-53 -52 0 97 c0 90
-1 97 -20 97 -19 0 -20 -7 -20 -175z"/>
<path d="M9590 7290 c0 -123 1 -130 20 -130 19 0 20 7 20 94 0 114 13 135 80
126 31 -3 40 -33 40 -127 0 -86 1 -93 20 -93 19 0 20 7 20 95 0 118 -14 151
-66 161 -22 4 -45 2 -62 -7 -15 -7 -30 -15 -34 -17 -5 -2 -8 3 -8 12 0 9 -7
16 -15 16 -13 0 -15 -21 -15 -130z"/>
<path d="M9900 7413 c-44 -17 -64 -66 -41 -101 5 -8 37 -24 72 -36 50 -17 65
-27 67 -44 7 -47 -89 -52 -110 -6 -12 27 -16 28 -38 14 -13 -8 -12 -13 6 -37
52 -71 184 -45 184 35 0 38 -22 56 -91 76 -60 17 -78 36 -53 57 25 21 74 15
94 -11 17 -23 40 -21 40 4 0 34 -86 67 -130 49z"/>
<path d="M10631 7407 c-63 -32 -88 -137 -47 -199 21 -32 76 -53 119 -44 34 7
77 42 77 62 0 26 -23 26 -44 -1 -40 -50 -111 -32 -131 33 -6 22 -5 22 89 22
90 0 96 1 96 20 0 85 -88 144 -159 107z m96 -41 c6 -6 13 -20 15 -31 3 -18 -3
-20 -64 -23 -61 -3 -68 -1 -68 16 0 49 79 75 117 38z"/>
<path d="M10849 7293 c32 -108 41 -128 59 -131 22 -3 24 1 53 123 6 28 15 53
18 58 4 4 17 -36 30 -89 21 -85 25 -95 44 -92 17 2 27 24 59 128 21 69 38 126
38 128 0 1 -9 2 -19 2 -12 0 -21 -10 -26 -27 -21 -90 -48 -164 -55 -153 -4 7
-16 50 -26 96 -16 74 -21 84 -40 84 -20 0 -25 -11 -45 -95 -13 -52 -26 -95
-29 -95 -4 0 -18 42 -31 93 -21 77 -28 93 -46 95 -21 3 -20 -1 16 -125z"/>
<path d="M11644 7411 c-42 -18 -64 -59 -64 -122 0 -51 4 -63 29 -91 26 -29 35
-33 80 -33 41 0 55 5 76 26 50 49 51 148 2 196 -26 27 -88 39 -123 24z m100
-52 c29 -27 28 -112 -2 -141 -29 -29 -79 -28 -104 1 -20 26 -25 100 -7 132 21
41 75 45 113 8z"/>
<path d="M11860 7290 c0 -123 1 -130 20 -130 19 0 20 7 20 95 0 80 3 98 19
114 12 12 28 17 39 14 12 -3 22 1 25 11 9 24 -37 32 -68 12 -22 -14 -25 -15
-25 -1 0 8 -7 15 -15 15 -13 0 -15 -21 -15 -130z"/>
<path d="M10110 7385 c0 -18 5 -25 20 -25 15 0 20 7 20 25 0 18 -5 25 -20 25
-15 0 -20 -7 -20 -25z"/>
<path d="M10110 7185 c0 -18 5 -25 20 -25 15 0 20 7 20 25 0 18 -5 25 -20 25
-15 0 -20 -7 -20 -25z"/>
<path d="M9560 7100 c0 -20 7 -20 1330 -20 1323 0 1330 0 1330 20 0 20 -7 20
-1330 20 -1323 0 -1330 0 -1330 -20z"/>
<path d="M4694 7305 c-10 -26 6 -35 62 -35 51 0 54 1 54 25 0 24 -3 25 -55 25
-39 0 -57 -4 -61 -15z"/>
<path d="M4934 7305 c-10 -26 6 -35 62 -35 51 0 54 1 54 25 0 24 -3 25 -55 25
-39 0 -57 -4 -61 -15z"/>
<path d="M5174 7305 c-10 -26 6 -35 62 -35 51 0 54 1 54 25 0 24 -3 25 -55 25
-39 0 -57 -4 -61 -15z"/>
<path d="M5414 7305 c-10 -26 6 -35 62 -35 51 0 54 1 54 25 0 24 -3 25 -55 25
-39 0 -57 -4 -61 -15z"/>
<path d="M5654 7305 c-10 -26 6 -35 62 -35 51 0 54 1 54 25 0 24 -3 25 -55 25
-39 0 -57 -4 -61 -15z"/>
<path d="M5894 7305 c-10 -26 6 -35 62 -35 51 0 54 1 54 25 0 24 -3 25 -55 25
-39 0 -57 -4 -61 -15z"/>
<path d="M6134 7305 c-10 -26 6 -35 62 -35 51 0 54 1 54 25 0 24 -3 25 -55 25
-39 0 -57 -4 -61 -15z"/>
<path d="M6374 7305 c-10 -26 6 -35 62 -35 51 0 54 1 54 25 0 24 -3 25 -55 25
-39 0 -57 -4 -61 -15z"/>
<path d="M6614 7305 c-10 -26 6 -35 62 -35 51 0 54 1 54 25 0 24 -3 25 -55 25
-39 0 -57 -4 -61 -15z"/>
<path d="M6854 7305 c-10 -26 6 -35 62 -35 51 0 54 1 54 25 0 24 -3 25 -55 25
-39 0 -57 -4 -61 -15z"/>
<path d="M7094 7305 c-10 -26 6 -35 62 -35 51 0 54 1 54 25 0 24 -3 25 -55 25
-39 0 -57 -4 -61 -15z"/>
<path d="M7334 7305 c-10 -26 6 -35 62 -35 51 0 54 1 54 25 0 24 -3 25 -55 25
-39 0 -57 -4 -61 -15z"/>
<path d="M7574 7305 c-10 -26 6 -35 62 -35 51 0 54 1 54 25 0 24 -3 25 -55 25
-39 0 -57 -4 -61 -15z"/>
<path d="M7814 7305 c-10 -26 6 -35 62 -35 51 0 54 1 54 25 0 24 -3 25 -55 25
-39 0 -57 -4 -61 -15z"/>
<path d="M8054 7305 c-10 -26 6 -35 62 -35 51 0 54 1 54 25 0 24 -3 25 -55 25
-39 0 -57 -4 -61 -15z"/>
<path d="M8294 7305 c-10 -26 6 -35 62 -35 51 0 54 1 54 25 0 24 -3 25 -55 25
-39 0 -57 -4 -61 -15z"/>
<path d="M8534 7305 c-10 -26 6 -35 62 -35 51 0 54 1 54 25 0 24 -3 25 -55 25
-39 0 -57 -4 -61 -15z"/>
<path d="M4644 7196 c-3 -7 -4 -35 -2 -62 2 -37 7 -50 21 -52 15 -3 17 5 17
62 0 53 -3 66 -15 66 -9 0 -18 -6 -21 -14z"/>
<path d="M4644 6956 c-3 -7 -4 -35 -2 -62 2 -37 7 -50 21 -52 15 -3 17 5 17
62 0 53 -3 66 -15 66 -9 0 -18 -6 -21 -14z"/>
<path d="M4644 6716 c-3 -7 -4 -35 -2 -62 2 -37 7 -50 21 -52 15 -3 17 5 17
62 0 53 -3 66 -15 66 -9 0 -18 -6 -21 -14z"/>
<path d="M4644 6476 c-3 -7 -4 -35 -2 -62 2 -37 7 -50 21 -52 15 -3 17 5 17
62 0 53 -3 66 -15 66 -9 0 -18 -6 -21 -14z"/>
<path d="M4644 6236 c-3 -7 -4 -35 -2 -62 2 -37 7 -50 21 -52 15 -3 17 5 17
62 0 53 -3 66 -15 66 -9 0 -18 -6 -21 -14z"/>
<path d="M4644 5996 c-3 -7 -4 -35 -2 -62 2 -37 7 -50 21 -52 15 -3 17 5 17
62 0 53 -3 66 -15 66 -9 0 -18 -6 -21 -14z"/>
<path d="M4644 5756 c-3 -7 -4 -35 -2 -62 2 -37 7 -50 21 -52 15 -3 17 5 17
62 0 53 -3 66 -15 66 -9 0 -18 -6 -21 -14z"/>
<path d="M4644 5516 c-3 -7 -4 -35 -2 -62 2 -37 7 -50 21 -52 15 -3 17 5 17
62 0 53 -3 66 -15 66 -9 0 -18 -6 -21 -14z"/>
<path d="M4647 5283 c-4 -3 -7 -28 -7 -55 l0 -48 -892 0 -891 0 -409 -307
c-328 -245 -407 -309 -396 -318 7 -7 194 -148 415 -314 l403 -301 885 0 885 0
0 -50 c0 -43 3 -50 20 -50 17 0 20 7 20 50 l0 50 885 0 885 0 400 300 400 300
60 0 c53 0 60 2 60 20 0 17 -7 20 -53 20 l-54 0 -399 300 -399 300 -892 0
-893 0 0 55 c0 39 -4 55 -13 55 -8 0 -17 -3 -20 -7z m2186 -430 l384 -288
-390 -292 -390 -293 -1777 0 -1777 0 -390 292 -390 293 381 287 381 287 1793
0 1792 1 383 -287z"/>
<path d="M3700 4615 c0 -168 1 -175 20 -175 19 0 20 7 20 175 0 168 -1 175
-20 175 -19 0 -20 -7 -20 -175z"/>
<path d="M4035 4773 c-8 -21 -52 -137 -95 -253 l-29 -80 22 0 c18 0 26 10 40
50 l18 51 76 -3 75 -3 18 -45 c14 -35 23 -46 43 -48 26 -3 25 -2 -45 172 -62
156 -73 176 -93 176 -13 0 -26 -8 -30 -17z m85 -185 c0 -4 -25 -8 -55 -8 -30
0 -55 3 -55 6 0 4 12 42 27 86 l27 79 28 -78 c15 -42 28 -81 28 -85z"/>
<path d="M4260 4615 c0 -168 1 -175 20 -175 19 0 20 7 20 175 0 168 -1 175
-20 175 -19 0 -20 -7 -20 -175z"/>
<path d="M4370 4615 c0 -168 1 -175 20 -175 19 0 20 7 20 175 0 168 -1 175
-20 175 -19 0 -20 -7 -20 -175z"/>
<path d="M4480 4615 l0 -175 83 0 c136 0 185 41 194 163 4 51 0 70 -19 107
-32 62 -71 80 -175 80 l-83 0 0 -175z m193 114 c55 -43 59 -169 6 -221 -24
-25 -35 -28 -93 -28 l-66 0 0 135 0 135 64 0 c49 0 69 -5 89 -21z"/>
<path d="M4820 4765 c0 -18 5 -25 20 -25 15 0 20 7 20 25 0 18 -5 25 -20 25
-15 0 -20 -7 -20 -25z"/>
<path d="M4962 4774 c-14 -10 -22 -25 -22 -45 0 -22 -5 -29 -20 -29 -11 0 -20
-6 -20 -14 0 -7 9 -16 20 -19 18 -5 20 -14 20 -116 0 -104 1 -111 20 -111 19
0 20 7 20 115 l0 115 40 0 40 0 0 -115 c0 -108 1 -115 20 -115 18 0 20 8 22
113 3 108 4 112 26 115 31 5 28 32 -4 32 -21 0 -25 4 -22 23 2 15 11 23 28 26
46 6 49 41 4 41 -40 0 -63 -18 -70 -55 -6 -33 -9 -35 -46 -35 -35 0 -39 2 -36
23 2 16 11 23 31 25 19 2 27 9 27 23 0 24 -45 26 -78 3z"/>
<path d="M6167 4763 c-4 -3 -7 -19 -7 -35 0 -21 -5 -28 -20 -28 -11 0 -20 -6
-20 -14 0 -7 9 -16 20 -19 18 -5 20 -14 20 -104 0 -108 6 -123 52 -123 36 0
38 27 3 40 -24 9 -25 13 -25 96 0 77 2 86 20 91 11 3 20 12 20 19 0 8 -9 14
-20 14 -16 0 -20 7 -20 35 0 33 -8 43 -23 28z"/>
<path d="M2625 4675 c-137 -60 -137 -70 -3 -124 116 -46 121 -47 116 -25 -2
11 -35 29 -88 50 l-85 33 88 40 c53 25 87 47 87 56 0 21 -2 20 -115 -30z"/>
<path d="M2905 4675 c-137 -60 -137 -70 -3 -124 116 -46 121 -47 116 -25 -2
11 -35 29 -88 50 l-85 33 88 40 c53 25 87 47 87 56 0 21 -2 20 -115 -30z"/>
<path d="M6270 4706 c0 -7 38 -30 85 -51 47 -21 85 -41 85 -45 0 -4 -38 -22
-85 -39 -52 -20 -85 -38 -85 -47 0 -21 16 -18 128 27 135 54 135 63 -3 123
-115 50 -125 53 -125 32z"/>
<path d="M6562 4703 c2 -10 35 -31 85 -52 46 -20 83 -38 83 -41 0 -3 -37 -19
-81 -35 -74 -27 -101 -46 -86 -61 3 -4 52 12 109 34 139 55 139 66 4 127 -111
50 -119 52 -114 28z"/>
<path d="M3134 4685 c-42 -21 -59 -57 -58 -119 0 -65 24 -102 74 -117 46 -14
80 -7 117 25 26 22 28 30 28 95 0 63 -3 73 -26 97 -33 32 -92 41 -135 19z m85
-30 c33 -17 41 -33 41 -85 0 -52 -8 -68 -41 -85 -50 -27 -97 6 -105 72 -6 45
12 83 46 100 31 16 26 16 59 -2z"/>
<path d="M3359 4573 c32 -108 41 -128 59 -131 22 -3 24 1 53 123 6 28 15 53
18 58 4 4 17 -36 30 -89 21 -85 25 -95 44 -92 17 2 27 24 59 128 21 69 38 126
38 128 0 1 -9 2 -19 2 -12 0 -21 -10 -26 -27 -21 -90 -48 -164 -55 -153 -4 7
-16 50 -26 96 -16 74 -21 84 -40 84 -20 0 -25 -11 -45 -95 -13 -52 -26 -95
-29 -95 -4 0 -18 42 -31 93 -21 77 -28 93 -46 95 -21 3 -20 -1 16 -125z"/>
<path d="M4820 4570 c0 -123 1 -130 20 -130 19 0 20 7 20 130 0 123 -1 130
-20 130 -19 0 -20 -7 -20 -130z"/>
<path d="M5241 4687 c-63 -32 -88 -137 -47 -199 21 -32 76 -53 119 -44 34 7
77 42 77 62 0 26 -23 26 -44 -1 -40 -50 -111 -32 -131 33 -6 22 -5 22 89 22
90 0 96 1 96 20 0 85 -88 144 -159 107z m96 -41 c6 -6 13 -20 15 -31 3 -18 -3
-20 -64 -23 -61 -3 -68 -1 -68 16 0 49 79 75 117 38z"/>
<path d="M5450 4570 c0 -121 1 -130 19 -130 17 0 19 10 23 100 2 55 8 104 14
110 6 6 24 12 40 13 18 2 29 8 29 17 0 22 -44 24 -66 4 -17 -16 -19 -16 -19
-1 0 10 -8 17 -20 17 -19 0 -20 -7 -20 -130z"/>
<path d="M5654 4681 c-34 -21 -54 -65 -54 -118 0 -94 89 -150 170 -108 32 16
55 50 45 65 -10 16 -33 11 -40 -8 -8 -28 -49 -43 -83 -31 -26 9 -52 44 -52 69
0 6 40 10 90 10 l90 0 0 35 c0 79 -97 130 -166 86z m118 -44 c4 -7 8 -20 8
-29 0 -15 -10 -18 -64 -18 -36 0 -67 4 -70 9 -20 32 49 76 93 59 14 -5 29 -15
33 -21z"/>
<path d="M5880 4570 c0 -123 1 -130 20 -130 19 0 20 7 20 94 0 114 13 135 80
126 31 -3 40 -33 40 -127 0 -86 1 -93 20 -93 19 0 20 7 20 95 0 118 -14 151
-66 161 -22 4 -45 2 -62 -7 -15 -7 -30 -15 -34 -17 -5 -2 -8 3 -8 12 0 9 -7
16 -15 16 -13 0 -15 -21 -15 -130z"/>
<path d="M3820 4665 c0 -18 5 -25 20 -25 15 0 20 7 20 25 0 18 -5 25 -20 25
-15 0 -20 -7 -20 -25z"/>
<path d="M3820 4465 c0 -18 5 -25 20 -25 15 0 20 7 20 25 0 18 -5 25 -20 25
-15 0 -20 -7 -20 -25z"/>
<path d="M8890 4880 c0 -165 -2 -300 -5 -300 -3 0 -69 32 -147 71 -109 55
-143 68 -149 57 -5 -7 -9 -15 -9 -18 0 -3 44 -28 98 -55 l97 -50 -42 -3 c-35
-3 -43 -7 -43 -23 0 -15 7 -19 38 -20 35 0 33 -2 -55 -47 -51 -26 -93 -49 -93
-52 0 -3 4 -11 9 -18 6 -11 40 2 149 57 78 39 144 71 147 71 3 0 5 -137 5
-305 l0 -305 2020 0 2020 0 0 620 0 620 -2020 0 -2020 0 0 -300z m4000 -320
l0 -580 -1980 0 -1980 0 0 580 0 580 1980 0 1980 0 0 -580z"/>
<path d="M10450 4615 l0 -175 105 0 c98 0 105 1 105 20 0 18 -7 20 -85 20
l-85 0 0 155 c0 148 -1 155 -20 155 -19 0 -20 -7 -20 -175z"/>
<path d="M11400 4729 l0 -60 -22 15 c-34 24 -74 20 -110 -13 -27 -24 -32 -36
-36 -87 -3 -50 0 -64 20 -93 30 -44 70 -58 117 -41 26 9 36 10 39 1 2 -6 10
-11 18 -11 12 0 14 31 14 175 0 168 -1 175 -20 175 -18 0 -20 -7 -20 -61z
m-14 -90 c26 -29 24 -113 -3 -141 -28 -27 -72 -27 -95 2 -20 25 -24 99 -7 131
21 40 73 44 105 8z"/>
<path d="M9800 4570 c0 -123 1 -130 20 -130 18 0 20 7 20 79 0 44 4 91 10 106
13 35 55 50 86 30 23 -15 24 -21 24 -115 0 -93 1 -100 20 -100 19 0 20 7 20
105 0 99 -2 107 -25 130 -28 29 -63 32 -105 10 -27 -14 -30 -14 -30 0 0 8 -9
15 -20 15 -19 0 -20 -7 -20 -130z"/>
<path d="M10110 4693 c-50 -20 -66 -75 -32 -106 10 -9 40 -23 66 -31 57 -17
77 -32 69 -52 -15 -39 -105 -34 -118 7 -7 21 -13 23 -32 11 -17 -11 5 -53 37
-70 32 -17 105 -9 130 13 25 23 26 76 3 98 -10 8 -44 23 -75 32 -45 13 -58 21
-58 36 0 22 40 42 67 32 10 -3 25 -15 34 -26 17 -20 39 -16 39 7 0 34 -86 67
-130 49z"/>
<path d="M10754 4685 c-42 -21 -59 -57 -58 -119 0 -65 24 -102 74 -117 46 -14
80 -7 117 25 26 22 28 30 28 95 0 63 -3 73 -26 97 -33 32 -92 41 -135 19z m85
-30 c33 -17 41 -33 41 -85 0 -52 -8 -68 -41 -85 -50 -27 -97 6 -105 72 -6 45
12 83 46 100 31 16 26 16 59 -2z"/>
<path d="M10980 4570 c0 -109 2 -130 15 -130 12 0 15 14 15 68 0 123 33 176
94 153 29 -12 36 -36 36 -138 0 -67 3 -83 15 -83 12 0 15 19 15 108 0 59 -4
112 -8 118 -22 33 -86 44 -118 19 -25 -19 -34 -19 -34 0 0 8 -7 15 -15 15 -13
0 -15 -21 -15 -130z"/>
<path d="M11564 4691 c-42 -18 -64 -59 -64 -122 0 -51 4 -63 29 -91 26 -29 35
-33 80 -33 41 0 55 5 76 26 50 49 51 148 2 196 -26 27 -88 39 -123 24z m100
-52 c29 -27 28 -112 -2 -141 -29 -29 -79 -28 -104 1 -20 26 -25 100 -7 132 21
41 75 45 113 8z"/>
<path d="M11780 4570 c0 -123 1 -130 20 -130 19 0 20 7 20 94 0 114 13 135 80
126 31 -3 40 -33 40 -127 0 -86 1 -93 20 -93 19 0 20 7 20 95 0 118 -14 151
-66 161 -22 4 -45 2 -62 -7 -15 -7 -30 -15 -34 -17 -5 -2 -8 3 -8 12 0 9 -7
16 -15 16 -13 0 -15 -21 -15 -130z"/>
<path d="M10320 4665 c0 -18 5 -25 20 -25 15 0 20 7 20 25 0 18 -5 25 -20 25
-15 0 -20 -7 -20 -25z"/>
<path d="M10320 4465 c0 -18 5 -25 20 -25 15 0 20 7 20 25 0 18 -5 25 -20 25
-15 0 -20 -7 -20 -25z"/>
<path d="M9770 4380 c0 -20 7 -20 1120 -20 1113 0 1120 0 1120 20 0 20 -7 20
-1120 20 -1113 0 -1120 0 -1120 -20z"/>
<path d="M7490 4560 c0 -18 7 -20 60 -20 53 0 60 2 60 20 0 18 -7 20 -60 20
-53 0 -60 -2 -60 -20z"/>
<path d="M7730 4560 c0 -18 7 -20 60 -20 53 0 60 2 60 20 0 18 -7 20 -60 20
-53 0 -60 -2 -60 -20z"/>
<path d="M7970 4560 c0 -18 7 -20 60 -20 53 0 60 2 60 20 0 18 -7 20 -60 20
-53 0 -60 -2 -60 -20z"/>
<path d="M8210 4560 c0 -18 7 -20 60 -20 53 0 60 2 60 20 0 18 -7 20 -60 20
-53 0 -60 -2 -60 -20z"/>
<path d="M8450 4560 c0 -18 7 -20 60 -20 53 0 60 2 60 20 0 18 -7 20 -60 20
-53 0 -60 -2 -60 -20z"/>
<path d="M4644 3716 c-3 -7 -4 -35 -2 -62 2 -37 7 -50 21 -52 15 -3 17 5 17
62 0 53 -3 66 -15 66 -9 0 -18 -6 -21 -14z"/>
<path d="M4644 3476 c-3 -7 -4 -35 -2 -62 2 -37 7 -50 21 -52 15 -3 17 5 17
62 0 53 -3 66 -15 66 -9 0 -18 -6 -21 -14z"/>
<path d="M4644 3236 c-3 -7 -4 -35 -2 -62 2 -37 7 -50 21 -52 15 -3 17 5 17
62 0 53 -3 66 -15 66 -9 0 -18 -6 -21 -14z"/>
<path d="M4644 2996 c-3 -7 -4 -35 -2 -62 2 -37 7 -50 21 -52 15 -3 17 5 17
62 0 53 -3 66 -15 66 -9 0 -18 -6 -21 -14z"/>
<path d="M4644 2756 c-3 -7 -4 -35 -2 -62 2 -37 7 -50 21 -52 15 -3 17 5 17
62 0 53 -3 66 -15 66 -9 0 -18 -6 -21 -14z"/>
<path d="M4644 2516 c-3 -7 -4 -35 -2 -62 2 -37 7 -50 21 -52 15 -3 17 5 17
62 0 53 -3 66 -15 66 -9 0 -18 -6 -21 -14z"/>
<path d="M8890 2180 c0 -165 -2 -300 -5 -300 -3 0 -69 32 -147 71 -109 55
-143 68 -149 57 -5 -7 -9 -15 -9 -18 0 -3 50 -30 110 -60 61 -30 110 -59 110
-65 0 -6 -49 -35 -110 -65 -60 -30 -110 -57 -110 -60 0 -3 4 -11 9 -18 6 -11
40 2 149 57 78 39 144 71 147 71 3 0 5 -137 5 -305 l0 -305 2020 0 2020 0 0
620 0 620 -2020 0 -2020 0 0 -300z m4000 -320 l0 -580 -1980 0 -1980 0 0 580
0 580 1980 0 1980 0 0 -580z"/>
<path d="M10600 2050 c0 -18 7 -20 55 -20 l55 0 0 -155 c0 -148 1 -155 20
-155 19 0 20 7 20 155 l0 155 55 0 c48 0 55 2 55 20 0 19 -7 20 -130 20 -123
0 -130 -1 -130 -20z"/>
<path d="M11120 1895 c0 -168 1 -175 20 -175 17 0 20 7 20 53 0 48 12 77 31
77 4 0 25 -29 48 -65 28 -45 46 -65 61 -65 11 0 20 2 20 5 0 2 -22 40 -50 82
l-49 78 47 48 c45 46 46 47 20 47 -20 0 -38 -13 -69 -50 -23 -27 -46 -50 -51
-50 -4 0 -8 43 -8 95 0 88 -1 95 -20 95 -19 0 -20 -7 -20 -175z"/>
<path d="M9980 1850 c0 -109 2 -130 15 -130 12 0 15 14 15 68 0 123 33 176 94
153 29 -12 36 -36 36 -138 0 -67 3 -83 15 -83 12 0 15 19 15 108 0 59 -4 112
-8 118 -22 33 -86 44 -118 19 -25 -19 -34 -19 -34 0 0 8 -7 15 -15 15 -13 0
-15 -21 -15 -130z"/>
<path d="M10273 1968 c-12 -6 -27 -23 -34 -39 -17 -44 5 -69 82 -94 50 -16 64
-24 64 -40 0 -48 -100 -52 -112 -5 -6 24 -31 26 -40 4 -3 -10 4 -26 21 -42 54
-55 176 -23 176 45 0 34 -31 59 -94 77 -78 23 -88 55 -24 71 21 5 33 1 53 -19
27 -27 40 -32 49 -17 10 16 -5 41 -35 56 -32 17 -74 18 -106 3z"/>
<path d="M10894 1961 c-73 -45 -70 -187 5 -225 85 -44 171 13 171 114 0 104
-93 162 -176 111z m125 -57 c47 -105 -60 -203 -123 -112 -33 47 -12 129 38
147 30 12 71 -6 85 -35z"/>
<path d="M11385 1854 c52 -147 53 -181 4 -191 -20 -4 -29 -11 -27 -22 5 -25
43 -25 66 -1 15 17 132 313 132 335 0 3 -8 5 -18 5 -13 0 -25 -23 -51 -100
-19 -56 -36 -98 -40 -95 -3 4 -20 48 -37 98 -25 75 -35 93 -52 95 -21 3 -20
-2 23 -124z"/>
<path d="M11642 1960 c-41 -25 -55 -61 -50 -128 7 -87 70 -129 152 -102 47 15
70 53 70 116 1 63 -17 98 -59 119 -44 20 -73 19 -113 -5z m111 -40 c24 -22 32
-88 15 -120 -8 -14 -26 -31 -41 -38 -22 -11 -31 -10 -55 2 -35 18 -42 33 -42
90 0 82 68 119 123 66z"/>
<path d="M10500 1945 c0 -18 5 -25 20 -25 15 0 20 7 20 25 0 18 -5 25 -20 25
-15 0 -20 -7 -20 -25z"/>
<path d="M10500 1745 c0 -18 5 -25 20 -25 15 0 20 7 20 25 0 18 -5 25 -20 25
-15 0 -20 -7 -20 -25z"/>
<path d="M9940 1660 c0 -20 7 -20 685 -20 678 0 685 0 685 20 0 20 -7 20 -685
20 -678 0 -685 0 -685 -20z"/>
<path d="M11490 1660 c0 -19 7 -20 175 -20 168 0 175 1 175 20 0 19 -7 20
-175 20 -168 0 -175 -1 -175 -20z"/>
<path d="M4644 2276 c-3 -7 -4 -35 -2 -62 2 -37 7 -50 21 -52 15 -3 17 5 17
62 0 53 -3 66 -15 66 -9 0 -18 -6 -21 -14z"/>
<path d="M4644 2036 c-3 -7 -4 -35 -2 -62 2 -37 7 -50 21 -52 15 -3 17 5 17
62 0 53 -3 66 -15 66 -9 0 -18 -6 -21 -14z"/>
<path d="M4724 1875 c-10 -26 6 -35 62 -35 51 0 54 1 54 25 0 24 -3 25 -55 25
-39 0 -57 -4 -61 -15z"/>
<path d="M4964 1875 c-10 -26 6 -35 62 -35 51 0 54 1 54 25 0 24 -3 25 -55 25
-39 0 -57 -4 -61 -15z"/>
<path d="M5204 1875 c-10 -26 6 -35 62 -35 51 0 54 1 54 25 0 24 -3 25 -55 25
-39 0 -57 -4 -61 -15z"/>
<path d="M5444 1875 c-10 -26 6 -35 62 -35 51 0 54 1 54 25 0 24 -3 25 -55 25
-39 0 -57 -4 -61 -15z"/>
<path d="M5684 1875 c-10 -26 6 -35 62 -35 51 0 54 1 54 25 0 24 -3 25 -55 25
-39 0 -57 -4 -61 -15z"/>
<path d="M5924 1875 c-10 -26 6 -35 62 -35 51 0 54 1 54 25 0 24 -3 25 -55 25
-39 0 -57 -4 -61 -15z"/>
<path d="M6164 1875 c-10 -26 6 -35 62 -35 51 0 54 1 54 25 0 24 -3 25 -55 25
-39 0 -57 -4 -61 -15z"/>
<path d="M6404 1875 c-10 -26 6 -35 62 -35 51 0 54 1 54 25 0 24 -3 25 -55 25
-39 0 -57 -4 -61 -15z"/>
<path d="M6644 1875 c-10 -26 6 -35 62 -35 51 0 54 1 54 25 0 24 -3 25 -55 25
-39 0 -57 -4 -61 -15z"/>
<path d="M6884 1875 c-10 -26 6 -35 62 -35 51 0 54 1 54 25 0 24 -3 25 -55 25
-39 0 -57 -4 -61 -15z"/>
<path d="M7124 1875 c-10 -26 6 -35 62 -35 51 0 54 1 54 25 0 24 -3 25 -55 25
-39 0 -57 -4 -61 -15z"/>
<path d="M7364 1875 c-10 -26 6 -35 62 -35 51 0 54 1 54 25 0 24 -3 25 -55 25
-39 0 -57 -4 -61 -15z"/>
<path d="M7604 1875 c-10 -26 6 -35 62 -35 51 0 54 1 54 25 0 24 -3 25 -55 25
-39 0 -57 -4 -61 -15z"/>
<path d="M7844 1875 c-10 -26 6 -35 62 -35 51 0 54 1 54 25 0 24 -3 25 -55 25
-39 0 -57 -4 -61 -15z"/>
<path d="M8084 1875 c-10 -26 6 -35 62 -35 51 0 54 1 54 25 0 24 -3 25 -55 25
-39 0 -57 -4 -61 -15z"/>
<path d="M8324 1875 c-10 -26 6 -35 62 -35 51 0 54 1 54 25 0 24 -3 25 -55 25
-39 0 -57 -4 -61 -15z"/>
<path d="M8564 1875 c-10 -26 6 -35 62 -35 51 0 54 1 54 25 0 24 -3 25 -55 25
-39 0 -57 -4 -61 -15z"/>
</g>
</svg>
