<svg version="1.1" id="Layer_1" xmlns="http://www.w3.org/2000/svg" xmlns:xlink="http://www.w3.org/1999/xlink" x="0px" y="0px"
	 width="100%" viewBox="0 0 1644 199" enable-background="new 0 0 1644 199" xml:space="preserve">
<path fill="#FFFFFF" opacity="1.000000" stroke="none" 
	d="
M1557.000000,200.000000 
	C1038.000000,200.000000 519.500061,200.000000 1.000070,200.000000 
	C1.000046,133.666702 1.000046,67.333405 1.000023,1.000079 
	C548.999939,1.000052 1096.999878,1.000052 1644.999756,1.000026 
	C1644.999878,67.333260 1644.999878,133.666519 1645.000000,199.999893 
	C1615.833374,200.000000 1586.666626,200.000000 1557.000000,200.000000 
M992.716797,100.997726 
	C988.902344,101.338165 988.902344,101.338165 989.867615,105.128387 
	C1049.074097,105.128387 1108.334473,105.128387 1168.182373,105.128387 
	C1165.003174,111.516708 1162.019897,117.511063 1159.036743,123.505417 
	C1159.247681,123.870361 1159.458618,124.235313 1159.669556,124.600258 
	C1173.307129,117.822304 1186.944824,111.044357 1201.235840,103.941666 
	C1201.235840,124.744247 1201.235840,144.803085 1201.235840,164.712524 
	C1336.083618,164.712524 1470.470947,164.712524 1604.779053,164.712524 
	C1604.779053,123.360352 1604.779053,82.298546 1604.779053,41.250652 
	C1470.109497,41.250652 1335.727417,41.250652 1201.037842,41.250652 
	C1201.037842,61.427296 1201.037842,81.354179 1201.037842,101.954094 
	C1186.819458,94.862206 1173.110229,88.024254 1158.185547,80.580101 
	C1161.836182,88.022285 1164.916626,94.302071 1168.200928,100.997719 
	C1109.587280,100.997719 1051.629150,100.997719 992.716797,100.997726 
M185.500000,164.999405 
	C271.926056,164.999405 358.352142,164.999405 445.177948,164.999405 
	C445.177948,144.690659 445.177948,124.949356 445.177948,104.999397 
	C447.389343,104.999397 449.201385,104.999390 451.013458,104.999390 
	C488.845337,104.999390 526.677246,105.001396 564.509094,104.996674 
	C568.893982,104.996124 568.893982,104.978828 568.410034,100.844574 
	C527.382935,100.844574 486.306763,100.844574 444.833191,100.844574 
	C444.833191,80.701370 444.833191,60.960072 444.833191,41.283703 
	C310.030518,41.283703 175.629044,41.283703 41.286907,41.283703 
	C41.286907,82.638268 41.286907,123.709084 41.286907,164.999405 
	C89.215240,164.999405 136.857620,164.999405 185.500000,164.999405 
M954.124939,100.296288 
	C951.567566,96.398651 949.206055,92.349106 946.358398,88.676567 
	C945.185425,87.163780 942.966858,86.461655 940.272827,84.806435 
	C940.272827,97.170288 940.343933,107.654907 940.233154,118.137589 
	C940.195740,121.681709 941.970703,121.229095 944.857910,120.515518 
	C944.857910,112.077301 944.857910,103.776360 944.857910,95.475418 
	C950.836914,102.948639 955.741028,110.639603 960.955078,118.114365 
	C962.080017,119.727112 964.321716,120.560852 966.860596,122.313805 
	C966.860596,109.125916 966.860596,97.709160 966.860596,86.176559 
	C965.543945,86.176559 964.445312,86.176559 962.770325,86.176559 
	C962.770325,94.875023 962.770325,103.376602 962.770325,113.324959 
	C959.445862,108.327866 956.978149,104.618454 954.124939,100.296288 
M714.060364,116.590172 
	C713.618896,117.931213 713.177490,119.272247 712.736084,120.613289 
	C713.181702,121.009064 713.627380,121.404839 714.072998,121.800613 
	C715.417786,120.516968 717.046570,119.419441 718.039124,117.904984 
	C719.440735,115.766312 719.988342,111.697311 721.579163,111.321159 
	C725.665222,110.354935 730.263245,110.346588 734.366943,111.258682 
	C735.995972,111.620766 737.205750,115.310928 737.988464,117.689247 
	C739.066895,120.966621 740.868164,121.793022 744.109802,120.513657 
	C739.899292,110.017464 735.777832,99.530685 731.419617,89.143265 
	C730.863342,87.817474 729.050964,86.170143 727.857422,86.199051 
	C726.665283,86.227905 724.981323,87.960625 724.441040,89.316284 
	C720.940186,98.099609 717.692871,106.983994 714.060364,116.590172 
M790.525330,121.012161 
	C790.940735,119.568085 791.636536,118.139595 791.717834,116.676941 
	C791.939331,112.692329 791.762268,108.684814 792.004883,104.702332 
	C792.247803,100.716690 794.774231,98.652412 798.590515,98.639442 
	C802.672424,98.625565 803.854248,101.396835 803.819336,105.037132 
	C803.768860,110.293182 803.806458,115.550064 803.806458,120.806595 
	C804.295410,121.081085 804.784302,121.355583 805.273254,121.630074 
	C806.157593,120.614723 807.764282,119.627205 807.804688,118.579330 
	C808.009521,113.263840 808.086731,107.911087 807.676086,102.612663 
	C807.194885,96.403732 802.156067,93.527206 796.168152,95.659676 
	C794.811951,96.142662 793.504761,96.763519 791.683167,97.527084 
	C791.683167,93.471413 791.683167,89.860245 791.683167,86.202591 
	C790.183960,86.202591 789.081970,86.202591 787.805420,86.202591 
	C787.805420,97.087868 787.761536,107.739494 787.885498,118.389168 
	C787.895813,119.278610 789.037598,120.154884 790.525330,121.012161 
M643.698059,97.098770 
	C643.210266,96.326294 642.351135,95.576721 642.301819,94.777176 
	C642.128845,91.972832 642.234680,89.151283 642.234680,85.977524 
	C640.771057,86.117043 639.586975,86.229912 638.255188,86.356865 
	C638.255188,97.246216 638.175781,107.716125 638.369568,118.180962 
	C638.390564,119.313019 639.994141,120.415756 640.863586,121.532097 
	C641.404236,121.252106 641.944946,120.972122 642.485596,120.692131 
	C642.485596,115.236008 642.230347,109.763878 642.570984,104.329094 
	C642.817932,100.389091 645.656189,98.486649 649.465820,98.661415 
	C653.293457,98.837021 654.303528,101.545265 654.265076,104.935928 
	C654.216003,109.259949 654.385071,113.590218 654.211670,117.907822 
	C654.081726,121.145668 655.490356,121.614372 658.368652,120.569740 
	C658.368652,115.469406 658.473816,110.321297 658.345703,105.178993 
	C658.112000,95.792854 653.208679,92.807365 643.698059,97.098770 
M663.770752,113.714600 
	C665.051880,121.621269 670.755188,123.118103 680.125000,118.516396 
	C682.082153,119.580322 683.681274,120.449646 685.044312,121.190613 
	C685.044312,114.816307 685.102844,109.372452 685.028625,103.930405 
	C684.946472,97.912567 682.963379,95.702652 677.275146,95.032310 
	C670.752441,94.263618 666.513489,96.657547 664.496338,103.715660 
	C666.817871,102.327057 668.251953,101.831276 669.171387,100.852226 
	C672.059692,97.776428 675.481567,98.061722 678.754272,99.487862 
	C679.868591,99.973434 680.739258,102.117950 680.779175,103.531105 
	C680.801025,104.302444 678.960022,105.507896 677.767700,105.849564 
	C675.556213,106.483253 673.190002,106.552773 670.914307,106.992142 
	C667.454956,107.660049 664.641357,109.171982 663.770752,113.714600 
M703.592651,110.785896 
	C704.422852,111.996002 705.946777,113.252663 705.869629,114.401886 
	C705.804810,115.367111 704.003662,116.647659 702.744934,117.016663 
	C699.484985,117.972351 696.599731,117.397484 694.433228,114.265083 
	C693.740601,113.263733 692.037598,112.961189 690.796814,112.338928 
	C692.860657,120.810997 701.120911,123.661499 707.025146,118.930687 
	C708.786438,117.519493 710.189880,114.381111 709.990662,112.195076 
	C709.820801,110.331406 707.387573,108.245644 705.457886,107.087189 
	C703.393677,105.847977 700.636780,105.821030 698.393921,104.800026 
	C696.950623,104.142967 695.888977,102.647453 694.656311,101.527725 
	C696.192444,100.538338 697.719543,98.776505 699.267090,98.758347 
	C701.131897,98.736473 703.031738,100.157623 704.882324,101.026749 
	C706.112427,101.604500 707.282837,102.309547 709.465271,103.491074 
	C708.712524,97.913155 706.150146,95.511688 702.688538,95.472343 
	C699.285583,95.433670 695.295166,96.092850 692.593445,97.947525 
	C689.024231,100.397697 690.210083,105.857613 694.326538,107.761749 
	C697.009338,109.002701 700.005127,109.567085 703.592651,110.785896 
M601.740051,117.924019 
	C606.437622,121.473282 611.972778,122.337685 615.972717,119.310692 
	C617.839966,117.897621 619.709534,115.000282 619.594910,112.883034 
	C619.485107,110.853943 617.137268,108.473495 615.166687,107.150726 
	C613.201721,105.831772 610.355164,105.905121 608.140137,104.852562 
	C606.598145,104.119812 605.469849,102.516502 604.156799,101.302063 
	C605.756836,100.387711 607.373230,98.720390 608.952576,98.754784 
	C610.812927,98.795288 612.637390,100.318077 614.484680,101.182747 
	C615.710938,101.756760 616.949951,102.303795 619.158997,103.305275 
	C616.342346,94.876801 607.256775,92.523430 602.221985,97.439888 
	C598.886169,100.697296 599.561340,105.785690 603.847351,107.817505 
	C606.212830,108.938896 609.028687,109.118988 611.376221,110.266235 
	C613.039673,111.079124 614.258911,112.800919 615.676453,114.116997 
	C613.995422,115.219009 612.228455,117.321335 610.653809,117.186073 
	C608.354614,116.988579 606.184692,115.200813 603.977051,114.057381 
	C602.799194,113.447304 601.657654,112.766861 600.499756,112.118164 
	C600.183411,112.547859 599.867065,112.977554 599.550659,113.407249 
	C600.126343,114.732590 600.702026,116.057938 601.740051,117.924019 
M819.732910,120.106499 
	C825.838806,121.841385 831.109741,120.316795 833.883484,116.013573 
	C836.948181,111.259041 836.416870,102.580109 832.819092,98.627708 
	C829.436157,94.911293 823.811157,93.894714 819.064758,96.141960 
	C810.607910,100.145950 810.565674,113.953415 819.732910,120.106499 
M751.784363,99.740814 
	C751.784363,98.270813 751.784363,96.800812 751.784363,94.981491 
	C750.153625,95.112000 748.968140,95.206863 747.800476,95.300308 
	C747.800476,101.526932 747.570312,107.356407 747.862427,113.159584 
	C748.181030,119.488831 753.770020,122.714600 759.621948,120.213081 
	C760.967407,119.637939 762.195679,118.788780 762.866821,118.410347 
	C764.329224,119.469612 765.611206,120.398132 767.783813,121.971794 
	C767.783813,112.845406 767.692078,105.364700 767.824219,97.887955 
	C767.886108,94.388374 766.155701,94.667084 763.654480,95.381630 
	C763.654480,96.394882 763.668579,97.219162 763.652161,98.042839 
	C763.559570,102.695564 763.673523,107.365623 763.295288,111.995308 
	C762.984863,115.794098 760.223083,117.459297 756.673950,117.349388 
	C752.859375,117.231255 751.729858,114.601219 751.777405,111.170258 
	C751.825684,107.675659 751.785706,104.179840 751.784363,99.740814 
M578.232483,107.662689 
	C578.275879,106.833786 578.293762,106.002640 578.366882,105.176361 
	C578.752014,100.821320 581.097351,98.361511 585.507874,98.666672 
	C590.044861,98.980583 590.284912,102.470444 590.251465,105.990517 
	C590.213562,109.976776 590.357422,113.967964 590.207825,117.948952 
	C590.087952,121.139153 591.464478,121.618988 594.225281,120.575020 
	C594.225281,114.707748 594.382324,108.893776 594.182983,103.092033 
	C593.965515,96.760681 588.616028,93.346443 582.680969,95.596962 
	C581.162292,96.172859 579.774597,97.094368 579.414368,97.284134 
	C577.524048,96.172478 576.264771,95.431938 574.245605,94.244537 
	C574.245605,103.152832 574.135315,110.784172 574.372925,118.404671 
	C574.405884,119.461830 576.156250,120.465454 577.111572,121.493858 
	C577.484985,121.181702 577.858398,120.869545 578.231812,120.557396 
	C578.231812,116.575951 578.231812,112.594513 578.232483,107.662689 
M892.149597,92.763969 
	C890.460266,94.258217 886.868042,94.689545 888.977234,98.603996 
	C891.523682,97.234512 893.914001,95.948959 896.855591,94.366951 
	C896.855591,103.605705 896.855591,112.176018 896.855591,120.746338 
	C897.332886,121.020363 897.810181,121.294395 898.287476,121.568420 
	C899.123718,120.410034 900.639465,119.276665 900.683167,118.089096 
	C900.921265,111.622528 900.796631,105.142609 900.796753,98.667282 
	C900.796814,94.475769 900.796814,90.284256 900.796814,86.092743 
	C900.033752,85.602310 899.270691,85.111870 898.507629,84.621437 
	C896.580322,87.186356 894.653076,89.751274 892.149597,92.763969 
M879.015076,127.184288 
	C871.944092,113.300468 872.696472,99.710548 880.942200,86.338615 
	C875.029114,87.068672 869.477173,99.771149 870.077454,110.342468 
	C870.625305,119.989059 876.117615,130.398102 880.775818,130.495514 
	C880.285156,129.599869 879.810120,128.732758 879.015076,127.184288 
M979.739380,89.647354 
	C978.398071,88.324203 977.056824,87.001060 975.715515,85.677910 
	C975.386902,86.006554 975.058289,86.335190 974.729675,86.663834 
	C983.894897,101.305603 983.232605,116.057228 974.453308,131.218933 
	C985.897766,127.119995 988.459290,105.185349 979.739380,89.647354 
M775.215149,116.788872 
	C776.346375,121.495323 779.849121,121.118286 784.830750,120.875076 
	C783.221252,119.072639 782.231750,118.147827 781.469482,117.063255 
	C780.568542,115.781349 779.172241,114.347694 779.198853,113.003761 
	C779.293579,108.224754 779.766113,103.436699 780.436279,98.700256 
	C780.562683,97.806824 782.249939,97.134216 783.217041,96.359734 
	C781.947876,95.645317 780.678711,94.930893 779.217834,94.108528 
	C779.095703,92.266708 778.946716,90.018951 778.797729,87.771202 
	C775.812622,90.518890 773.867798,93.631271 772.048828,96.815559 
	C771.895569,97.083893 772.612671,97.821259 772.879639,98.363297 
	C773.631531,99.890427 774.884399,101.392151 774.996094,102.970680 
	C775.300171,107.266914 775.117676,111.597588 775.215149,116.788872 
M843.140564,94.953651 
	C842.455688,95.619743 841.186890,96.275612 841.175049,96.953468 
	C841.036072,104.891365 841.085938,112.832565 841.085938,120.822533 
	C842.641968,120.822533 843.759705,120.822533 845.190857,120.822533 
	C845.190857,115.470131 844.970215,110.322464 845.266174,105.204666 
	C845.473572,101.618118 846.275391,98.087639 851.433411,98.770660 
	C852.297485,98.885086 853.349487,97.579994 854.314697,96.930809 
	C854.090576,96.329872 853.866516,95.728935 853.642395,95.128006 
	C851.425232,95.469803 849.216248,95.961563 846.987000,96.084282 
	C846.008606,96.138130 844.988831,95.439484 843.140564,94.953651 
M627.723938,101.044846 
	C632.111145,101.561600 630.866089,98.702408 630.752625,95.998245 
	C629.137146,96.084480 627.776062,96.157143 625.971863,96.253456 
	C626.341125,98.102364 626.615601,99.476730 627.723938,101.044846 
M630.948975,118.494667 
	C629.947937,117.646965 628.946899,116.799271 627.945862,115.951569 
	C627.214966,117.387978 626.484070,118.824394 625.753174,120.260803 
	C626.225342,120.689095 626.697449,121.117393 627.169617,121.545685 
	C628.426941,120.818031 629.684326,120.090378 630.948975,118.494667 
M915.734009,115.956573 
	C915.261780,117.314560 914.789551,118.672546 914.317322,120.030556 
	C915.701538,120.417267 917.085754,120.803970 918.469971,121.190674 
	C918.870728,120.727455 919.271423,120.264229 919.672119,119.801010 
	C918.646118,118.514412 917.620056,117.227814 915.734009,115.956573 
z"/>
<path fill="#020202" opacity="1.000000" stroke="none" 
	d="
M993.193848,100.997726 
	C1051.629150,100.997719 1109.587280,100.997719 1168.200928,100.997719 
	C1164.916626,94.302071 1161.836182,88.022285 1158.185547,80.580101 
	C1173.110229,88.024254 1186.819458,94.862206 1201.037842,101.954094 
	C1201.037842,81.354179 1201.037842,61.427296 1201.037842,41.250652 
	C1335.727417,41.250652 1470.109497,41.250652 1604.779053,41.250652 
	C1604.779053,82.298546 1604.779053,123.360352 1604.779053,164.712524 
	C1470.470947,164.712524 1336.083618,164.712524 1201.235840,164.712524 
	C1201.235840,144.803085 1201.235840,124.744247 1201.235840,103.941666 
	C1186.944824,111.044357 1173.307129,117.822304 1159.669556,124.600258 
	C1159.458618,124.235313 1159.247681,123.870361 1159.036743,123.505417 
	C1162.019897,117.511063 1165.003174,111.516708 1168.182373,105.128387 
	C1108.334473,105.128387 1049.074097,105.128387 989.867615,105.128387 
	C988.902344,101.338165 988.902344,101.338165 993.193848,100.997726 
M1205.034546,89.500000 
	C1205.034546,113.260445 1205.034546,137.020889 1205.034546,160.714447 
	C1337.366821,160.714447 1469.104736,160.714447 1600.769531,160.714447 
	C1600.769531,122.029518 1600.769531,83.629623 1600.769531,45.289818 
	C1468.743774,45.289818 1337.011230,45.289818 1205.034546,45.289818 
	C1205.034546,59.884785 1205.034546,74.192390 1205.034546,89.500000 
z"/>
<path fill="#000000" opacity="1.000000" stroke="none" 
	d="
M185.000000,164.999405 
	C136.857620,164.999405 89.215240,164.999405 41.286907,164.999405 
	C41.286907,123.709084 41.286907,82.638268 41.286907,41.283703 
	C175.629044,41.283703 310.030518,41.283703 444.833191,41.283703 
	C444.833191,60.960072 444.833191,80.701370 444.833191,100.844574 
	C486.306763,100.844574 527.382935,100.844574 568.410034,100.844574 
	C568.893982,104.978828 568.893982,104.996124 564.509094,104.996674 
	C526.677246,105.001396 488.845337,104.999390 451.013458,104.999390 
	C449.201385,104.999390 447.389343,104.999397 445.177948,104.999397 
	C445.177948,124.949356 445.177948,144.690659 445.177948,164.999405 
	C358.352142,164.999405 271.926056,164.999405 185.000000,164.999405 
M441.002136,106.500000 
	C441.002136,86.070663 441.002136,65.641319 441.002136,45.284687 
	C308.691010,45.284687 176.956039,45.284687 45.286865,45.284687 
	C45.286865,83.975517 45.286865,122.380020 45.286865,160.715271 
	C177.309860,160.715271 309.044861,160.715271 441.002136,160.715271 
	C441.002136,142.787018 441.002136,125.143509 441.002136,106.500000 
z"/>
<path fill="#181818" opacity="1.000000" stroke="none" 
	d="
M954.317627,100.602669 
	C956.978149,104.618454 959.445862,108.327866 962.770325,113.324959 
	C962.770325,103.376602 962.770325,94.875023 962.770325,86.176559 
	C964.445312,86.176559 965.543945,86.176559 966.860596,86.176559 
	C966.860596,97.709160 966.860596,109.125916 966.860596,122.313805 
	C964.321716,120.560852 962.080017,119.727112 960.955078,118.114365 
	C955.741028,110.639603 950.836914,102.948639 944.857910,95.475418 
	C944.857910,103.776360 944.857910,112.077301 944.857910,120.515518 
	C941.970703,121.229095 940.195740,121.681709 940.233154,118.137589 
	C940.343933,107.654907 940.272827,97.170288 940.272827,84.806435 
	C942.966858,86.461655 945.185425,87.163780 946.358398,88.676567 
	C949.206055,92.349106 951.567566,96.398651 954.317627,100.602669 
z"/>
<path fill="#141414" opacity="1.000000" stroke="none" 
	d="
M714.211426,116.212715 
	C717.692871,106.983994 720.940186,98.099609 724.441040,89.316284 
	C724.981323,87.960625 726.665283,86.227905 727.857422,86.199051 
	C729.050964,86.170143 730.863342,87.817474 731.419617,89.143265 
	C735.777832,99.530685 739.899292,110.017464 744.109802,120.513657 
	C740.868164,121.793022 739.066895,120.966621 737.988464,117.689247 
	C737.205750,115.310928 735.995972,111.620766 734.366943,111.258682 
	C730.263245,110.346588 725.665222,110.354935 721.579163,111.321159 
	C719.988342,111.697311 719.440735,115.766312 718.039124,117.904984 
	C717.046570,119.419441 715.417786,120.516968 714.072998,121.800613 
	C713.627380,121.404839 713.181702,121.009064 712.736084,120.613289 
	C713.177490,119.272247 713.618896,117.931213 714.211426,116.212715 
M731.763123,100.722733 
	C730.545349,97.453087 729.327576,94.183449 727.829285,90.160530 
	C726.646423,93.718292 725.831970,96.229538 724.975708,98.726425 
	C724.083069,101.329292 723.150085,103.918327 722.130066,106.810013 
	C726.330139,106.810013 729.895569,106.810013 733.829224,106.810013 
	C733.163940,104.845108 732.591736,103.155151 731.763123,100.722733 
z"/>
<path fill="#161616" opacity="1.000000" stroke="none" 
	d="
M790.089478,121.024719 
	C789.037598,120.154884 787.895813,119.278610 787.885498,118.389168 
	C787.761536,107.739494 787.805420,97.087868 787.805420,86.202591 
	C789.081970,86.202591 790.183960,86.202591 791.683167,86.202591 
	C791.683167,89.860245 791.683167,93.471413 791.683167,97.527084 
	C793.504761,96.763519 794.811951,96.142662 796.168152,95.659676 
	C802.156067,93.527206 807.194885,96.403732 807.676086,102.612663 
	C808.086731,107.911087 808.009521,113.263840 807.804688,118.579330 
	C807.764282,119.627205 806.157593,120.614723 805.273254,121.630074 
	C804.784302,121.355583 804.295410,121.081085 803.806458,120.806595 
	C803.806458,115.550064 803.768860,110.293182 803.819336,105.037132 
	C803.854248,101.396835 802.672424,98.625565 798.590515,98.639442 
	C794.774231,98.652412 792.247803,100.716690 792.004883,104.702332 
	C791.762268,108.684814 791.939331,112.692329 791.717834,116.676941 
	C791.636536,118.139595 790.940735,119.568085 790.089478,121.024719 
z"/>
<path fill="#1A1A1A" opacity="1.000000" stroke="none" 
	d="
M644.107178,96.869247 
	C653.208679,92.807365 658.112000,95.792854 658.345703,105.178993 
	C658.473816,110.321297 658.368652,115.469406 658.368652,120.569740 
	C655.490356,121.614372 654.081726,121.145668 654.211670,117.907822 
	C654.385071,113.590218 654.216003,109.259949 654.265076,104.935928 
	C654.303528,101.545265 653.293457,98.837021 649.465820,98.661415 
	C645.656189,98.486649 642.817932,100.389091 642.570984,104.329094 
	C642.230347,109.763878 642.485596,115.236008 642.485596,120.692131 
	C641.944946,120.972122 641.404236,121.252106 640.863586,121.532097 
	C639.994141,120.415756 638.390564,119.313019 638.369568,118.180962 
	C638.175781,107.716125 638.255188,97.246216 638.255188,86.356865 
	C639.586975,86.229912 640.771057,86.117043 642.234680,85.977524 
	C642.234680,89.151283 642.128845,91.972832 642.301819,94.777176 
	C642.351135,95.576721 643.210266,96.326294 644.107178,96.869247 
z"/>
<path fill="#121212" opacity="1.000000" stroke="none" 
	d="
M663.811707,113.363792 
	C664.641357,109.171982 667.454956,107.660049 670.914307,106.992142 
	C673.190002,106.552773 675.556213,106.483253 677.767700,105.849564 
	C678.960022,105.507896 680.801025,104.302444 680.779175,103.531105 
	C680.739258,102.117950 679.868591,99.973434 678.754272,99.487862 
	C675.481567,98.061722 672.059692,97.776428 669.171387,100.852226 
	C668.251953,101.831276 666.817871,102.327057 664.496338,103.715660 
	C666.513489,96.657547 670.752441,94.263618 677.275146,95.032310 
	C682.963379,95.702652 684.946472,97.912567 685.028625,103.930405 
	C685.102844,109.372452 685.044312,114.816307 685.044312,121.190613 
	C683.681274,120.449646 682.082153,119.580322 680.125000,118.516396 
	C670.755188,123.118103 665.051880,121.621269 663.811707,113.363792 
M671.899048,117.381737 
	C679.353516,117.120560 681.576477,114.908165 680.291260,108.921127 
	C677.512207,109.331924 674.635925,109.450287 671.975403,110.269485 
	C670.464905,110.734581 669.307678,112.347351 667.991394,113.443268 
	C669.046997,114.697319 670.102539,115.951363 671.899048,117.381737 
z"/>
<path fill="#141414" opacity="1.000000" stroke="none" 
	d="
M703.226685,110.610229 
	C700.005127,109.567085 697.009338,109.002701 694.326538,107.761749 
	C690.210083,105.857613 689.024231,100.397697 692.593445,97.947525 
	C695.295166,96.092850 699.285583,95.433670 702.688538,95.472343 
	C706.150146,95.511688 708.712524,97.913155 709.465271,103.491074 
	C707.282837,102.309547 706.112427,101.604500 704.882324,101.026749 
	C703.031738,100.157623 701.131897,98.736473 699.267090,98.758347 
	C697.719543,98.776505 696.192444,100.538338 694.656311,101.527733 
	C695.888977,102.647453 696.950623,104.142967 698.393921,104.800026 
	C700.636780,105.821030 703.393677,105.847977 705.457886,107.087189 
	C707.387573,108.245644 709.820801,110.331406 709.990662,112.195076 
	C710.189880,114.381111 708.786438,117.519493 707.025146,118.930687 
	C701.120911,123.661499 692.860657,120.810997 690.796814,112.338928 
	C692.037598,112.961189 693.740601,113.263733 694.433228,114.265083 
	C696.599731,117.397484 699.484985,117.972351 702.744934,117.016663 
	C704.003662,116.647659 705.804810,115.367111 705.869629,114.401886 
	C705.946777,113.252663 704.422852,111.996002 703.226685,110.610229 
z"/>
<path fill="#161616" opacity="1.000000" stroke="none" 
	d="
M601.508850,117.653648 
	C600.702026,116.057938 600.126343,114.732590 599.550659,113.407249 
	C599.867065,112.977554 600.183411,112.547859 600.499756,112.118164 
	C601.657654,112.766861 602.799194,113.447304 603.977051,114.057381 
	C606.184692,115.200813 608.354614,116.988579 610.653809,117.186073 
	C612.228455,117.321335 613.995422,115.219009 615.676453,114.117004 
	C614.258911,112.800919 613.039673,111.079124 611.376221,110.266235 
	C609.028687,109.118988 606.212830,108.938896 603.847351,107.817505 
	C599.561340,105.785690 598.886169,100.697296 602.221985,97.439888 
	C607.256775,92.523430 616.342346,94.876801 619.158997,103.305275 
	C616.949951,102.303795 615.710938,101.756760 614.484680,101.182747 
	C612.637390,100.318077 610.812927,98.795288 608.952576,98.754784 
	C607.373230,98.720390 605.756836,100.387711 604.156799,101.302078 
	C605.469849,102.516502 606.598145,104.119812 608.140137,104.852562 
	C610.355164,105.905121 613.201721,105.831772 615.166687,107.150726 
	C617.137268,108.473495 619.485107,110.853943 619.594910,112.883034 
	C619.709534,115.000282 617.839966,117.897621 615.972717,119.310692 
	C611.972778,122.337685 606.437622,121.473282 601.508850,117.653648 
z"/>
<path fill="#181818" opacity="1.000000" stroke="none" 
	d="
M819.362549,119.983452 
	C810.565674,113.953415 810.607910,100.145950 819.064758,96.141960 
	C823.811157,93.894714 829.436157,94.911293 832.819092,98.627708 
	C836.416870,102.580109 836.948181,111.259041 833.883484,116.013573 
	C831.109741,120.316795 825.838806,121.841385 819.362549,119.983452 
M816.958740,105.903671 
	C817.060913,107.891022 816.874390,109.946503 817.323914,111.851913 
	C818.343872,116.175346 822.435364,118.351212 826.556091,117.035446 
	C830.358276,115.821396 832.251160,111.869385 831.660767,106.261528 
	C831.236755,102.234245 829.490540,99.128975 825.113098,98.688751 
	C820.557312,98.230591 817.971802,100.700577 816.958740,105.903671 
z"/>
<path fill="#1A1A1A" opacity="1.000000" stroke="none" 
	d="
M751.784363,100.212685 
	C751.785706,104.179840 751.825684,107.675659 751.777405,111.170258 
	C751.729858,114.601219 752.859375,117.231255 756.673950,117.349388 
	C760.223083,117.459297 762.984863,115.794098 763.295288,111.995308 
	C763.673523,107.365623 763.559570,102.695564 763.652161,98.042839 
	C763.668579,97.219162 763.654480,96.394882 763.654480,95.381630 
	C766.155701,94.667084 767.886108,94.388374 767.824219,97.887955 
	C767.692078,105.364700 767.783813,112.845406 767.783813,121.971794 
	C765.611206,120.398132 764.329224,119.469612 762.866821,118.410347 
	C762.195679,118.788780 760.967407,119.637939 759.621948,120.213081 
	C753.770020,122.714600 748.181030,119.488831 747.862427,113.159584 
	C747.570312,107.356407 747.800476,101.526932 747.800476,95.300308 
	C748.968140,95.206863 750.153625,95.112000 751.784363,94.981491 
	C751.784363,96.800812 751.784363,98.270813 751.784363,100.212685 
z"/>
<path fill="#1B1B1B" opacity="1.000000" stroke="none" 
	d="
M578.232178,108.137878 
	C578.231812,112.594513 578.231812,116.575951 578.231812,120.557396 
	C577.858398,120.869545 577.484985,121.181702 577.111572,121.493858 
	C576.156250,120.465454 574.405884,119.461830 574.372925,118.404671 
	C574.135315,110.784172 574.245605,103.152832 574.245605,94.244537 
	C576.264771,95.431938 577.524048,96.172478 579.414368,97.284134 
	C579.774597,97.094368 581.162292,96.172859 582.680969,95.596962 
	C588.616028,93.346443 593.965515,96.760681 594.182983,103.092033 
	C594.382324,108.893776 594.225281,114.707748 594.225281,120.575020 
	C591.464478,121.618988 590.087952,121.139153 590.207825,117.948952 
	C590.357422,113.967964 590.213562,109.976776 590.251465,105.990517 
	C590.284912,102.470444 590.044861,98.980583 585.507874,98.666672 
	C581.097351,98.361511 578.752014,100.821320 578.366882,105.176361 
	C578.293762,106.002640 578.275879,106.833786 578.232178,108.137878 
z"/>
<path fill="#1B1B1B" opacity="1.000000" stroke="none" 
	d="
M892.437683,92.540085 
	C894.653076,89.751274 896.580322,87.186356 898.507629,84.621437 
	C899.270691,85.111870 900.033752,85.602310 900.796814,86.092743 
	C900.796814,90.284256 900.796814,94.475769 900.796753,98.667282 
	C900.796631,105.142609 900.921265,111.622528 900.683167,118.089096 
	C900.639465,119.276665 899.123718,120.410034 898.287476,121.568420 
	C897.810181,121.294395 897.332886,121.020363 896.855591,120.746338 
	C896.855591,112.176018 896.855591,103.605705 896.855591,94.366951 
	C893.914001,95.948959 891.523682,97.234512 888.977234,98.603996 
	C886.868042,94.689545 890.460266,94.258217 892.437683,92.540085 
z"/>
<path fill="#202020" opacity="1.000000" stroke="none" 
	d="
M879.175049,127.524971 
	C879.810120,128.732758 880.285156,129.599869 880.775818,130.495514 
	C876.117615,130.398102 870.625305,119.989059 870.077454,110.342468 
	C869.477173,99.771149 875.029114,87.068672 880.942200,86.338615 
	C872.696472,99.710548 871.944092,113.300468 879.175049,127.524971 
z"/>
<path fill="#202020" opacity="1.000000" stroke="none" 
	d="
M979.927246,89.967842 
	C988.459290,105.185349 985.897766,127.119995 974.453308,131.218933 
	C983.232605,116.057228 983.894897,101.305603 974.729675,86.663834 
	C975.058289,86.335190 975.386902,86.006554 975.715515,85.677910 
	C977.056824,87.001060 978.398071,88.324203 979.927246,89.967842 
z"/>
<path fill="#1A1A1A" opacity="1.000000" stroke="none" 
	d="
M775.171570,116.351746 
	C775.117676,111.597588 775.300171,107.266914 774.996094,102.970680 
	C774.884399,101.392151 773.631531,99.890427 772.879639,98.363297 
	C772.612671,97.821259 771.895569,97.083893 772.048828,96.815559 
	C773.867798,93.631271 775.812622,90.518890 778.797729,87.771202 
	C778.946716,90.018951 779.095703,92.266708 779.217834,94.108528 
	C780.678711,94.930893 781.947876,95.645317 783.217041,96.359726 
	C782.249939,97.134216 780.562683,97.806824 780.436279,98.700256 
	C779.766113,103.436699 779.293579,108.224754 779.198853,113.003761 
	C779.172241,114.347694 780.568542,115.781349 781.469482,117.063255 
	C782.231750,118.147827 783.221252,119.072639 784.830750,120.875076 
	C779.849121,121.118286 776.346375,121.495323 775.171570,116.351746 
z"/>
<path fill="#202020" opacity="1.000000" stroke="none" 
	d="
M843.564209,95.018082 
	C844.988831,95.439484 846.008606,96.138130 846.987000,96.084282 
	C849.216248,95.961563 851.425232,95.469803 853.642395,95.128006 
	C853.866516,95.728935 854.090576,96.329872 854.314697,96.930809 
	C853.349487,97.579994 852.297485,98.885086 851.433411,98.770660 
	C846.275391,98.087639 845.473572,101.618118 845.266174,105.204666 
	C844.970215,110.322464 845.190857,115.470131 845.190857,120.822533 
	C843.759705,120.822533 842.641968,120.822533 841.085938,120.822533 
	C841.085938,112.832565 841.036072,104.891365 841.175049,96.953468 
	C841.186890,96.275612 842.455688,95.619743 843.564209,95.018082 
z"/>
<path fill="#202020" opacity="1.000000" stroke="none" 
	d="
M627.307007,100.947968 
	C626.615601,99.476730 626.341125,98.102364 625.971863,96.253456 
	C627.776062,96.157143 629.137146,96.084480 630.752625,95.998245 
	C630.866089,98.702408 632.111145,101.561600 627.307007,100.947968 
z"/>
<path fill="#202020" opacity="1.000000" stroke="none" 
	d="
M630.945312,118.928696 
	C629.684326,120.090378 628.426941,120.818031 627.169617,121.545685 
	C626.697449,121.117393 626.225342,120.689095 625.753174,120.260803 
	C626.484070,118.824394 627.214966,117.387978 627.945862,115.951569 
	C628.946899,116.799271 629.947937,117.646965 630.945312,118.928696 
z"/>
<path fill="#202020" opacity="1.000000" stroke="none" 
	d="
M916.164062,115.948891 
	C917.620056,117.227814 918.646118,118.514412 919.672119,119.801010 
	C919.271423,120.264229 918.870728,120.727455 918.469971,121.190674 
	C917.085754,120.803970 915.701538,120.417267 914.317322,120.030548 
	C914.789551,118.672546 915.261780,117.314560 916.164062,115.948891 
z"/>
<path fill="#FEFEFE" opacity="1.000000" stroke="none" 
	d="
M1205.034546,89.000000 
	C1205.034546,74.192390 1205.034546,59.884785 1205.034546,45.289818 
	C1337.011230,45.289818 1468.743774,45.289818 1600.769531,45.289818 
	C1600.769531,83.629623 1600.769531,122.029518 1600.769531,160.714447 
	C1469.104736,160.714447 1337.366821,160.714447 1205.034546,160.714447 
	C1205.034546,137.020889 1205.034546,113.260445 1205.034546,89.000000 
M1391.200806,109.116920 
	C1387.990479,101.112846 1384.873901,93.068565 1381.477661,85.144196 
	C1380.908691,83.816719 1379.231323,82.408127 1377.869507,82.172249 
	C1376.962646,82.015175 1375.165527,83.660568 1374.691650,84.863533 
	C1370.561401,95.349396 1366.640259,105.917557 1362.643188,116.497238 
	C1365.775513,117.831978 1367.373291,116.869026 1368.282715,113.798332 
	C1368.971313,111.472595 1369.916382,107.687355 1371.329346,107.398499 
	C1375.628906,106.519653 1380.283325,106.563339 1384.638184,107.258301 
	C1385.971436,107.471054 1387.059814,110.850777 1387.771240,112.946243 
	C1388.853149,116.132233 1390.162964,118.298431 1394.147461,116.407097 
	C1393.219482,114.140221 1392.341919,111.996414 1391.200806,109.116920 
M1437.695557,102.491325 
	C1437.695557,107.256165 1437.695557,112.021011 1437.695557,116.785851 
	C1438.258789,117.030220 1438.822021,117.274582 1439.385254,117.518951 
	C1440.151611,116.324448 1441.487427,115.172836 1441.581177,113.927689 
	C1441.905762,109.618919 1441.671997,105.271225 1441.890381,100.950439 
	C1442.103882,96.727745 1444.677612,94.564255 1448.766724,94.685585 
	C1452.959473,94.809982 1453.724976,97.877541 1453.706665,101.367104 
	C1453.679565,106.487083 1453.699707,111.607315 1453.699707,116.727448 
	C1454.135132,117.021072 1454.570557,117.314705 1455.005981,117.608337 
	C1455.949951,116.638672 1457.672363,115.696999 1457.708496,114.694641 
	C1457.905762,109.210159 1457.998291,103.684189 1457.528931,98.223892 
	C1457.045410,92.599007 1452.073975,89.696228 1446.634521,91.409660 
	C1445.105469,91.891312 1443.654663,92.621628 1442.099609,93.266251 
	C1440.759766,82.167694 1440.759766,82.167694 1437.695557,82.550415 
	C1437.695557,88.847504 1437.695557,95.170898 1437.695557,102.491325 
M1317.687988,111.256271 
	C1317.687988,113.061874 1317.687988,114.867477 1317.687988,116.673080 
	C1318.154175,116.954025 1318.620361,117.234970 1319.086548,117.515923 
	C1319.947021,116.399681 1321.486450,115.320724 1321.550171,114.160751 
	C1321.823608,109.180511 1321.848999,104.167709 1321.614990,99.183197 
	C1321.301880,92.517708 1315.877930,89.238480 1309.643555,91.753014 
	C1308.441284,92.237930 1307.322021,92.928375 1306.961792,93.113708 
	C1305.006470,92.134811 1303.620483,91.440933 1301.971191,90.615250 
	C1301.971191,99.968956 1301.971191,108.381508 1301.971191,116.794060 
	C1302.453003,117.035858 1302.934814,117.277664 1303.416626,117.519470 
	C1304.166748,116.313171 1305.473389,115.148643 1305.567627,113.893120 
	C1305.915649,109.254478 1305.642090,104.567284 1306.030029,99.934135 
	C1306.348999,96.122482 1309.126587,94.554832 1312.693604,94.651566 
	C1316.219116,94.747154 1317.575195,97.100449 1317.645386,100.327820 
	C1317.717896,103.656517 1317.678467,106.987633 1317.687988,111.256271 
M1402.704834,111.505814 
	C1402.194702,104.771111 1401.684692,98.036400 1401.151001,90.990807 
	C1400.040405,91.092720 1398.841919,91.202682 1397.685669,91.308762 
	C1397.685669,97.542427 1397.437378,103.371941 1397.752808,109.170807 
	C1398.095947,115.482307 1403.663818,118.690201 1409.516724,116.256073 
	C1410.844604,115.703842 1412.076904,114.921463 1412.258301,114.825325 
	C1414.401855,115.887032 1415.718018,116.538887 1417.524780,117.433739 
	C1417.524780,108.031204 1417.524780,99.739891 1417.524780,91.254776 
	C1416.145386,91.254776 1414.946167,91.254776 1413.460571,91.254776 
	C1413.460571,96.376999 1413.633301,101.200745 1413.418091,106.007111 
	C1413.128906,112.464638 1409.448242,114.605995 1402.704834,111.505814 
M1334.062866,91.187027 
	C1330.407715,92.139008 1327.406128,93.933212 1327.399902,98.143532 
	C1327.393066,102.735153 1330.901123,104.137115 1334.617065,105.118668 
	C1335.740234,105.415337 1337.013428,105.493629 1337.944092,106.095345 
	C1339.696167,107.227928 1341.249268,108.668404 1342.885010,109.980881 
	C1340.742310,111.114784 1338.655396,112.973801 1336.438599,113.144218 
	C1334.780762,113.271667 1332.984863,111.169258 1331.194092,110.159737 
	C1329.989502,109.480675 1328.686523,108.976028 1326.265015,107.855316 
	C1329.675415,116.888199 1337.926514,119.625008 1343.832764,114.893028 
	C1345.518921,113.542053 1347.009155,110.637352 1346.812134,108.618629 
	C1346.620605,106.656647 1344.479736,104.380157 1342.593140,103.220734 
	C1340.411743,101.880051 1337.466797,101.849083 1335.059570,100.783661 
	C1333.613037,100.143448 1332.560181,98.614128 1331.330444,97.484367 
	C1332.896973,96.515717 1334.460449,94.782333 1336.030640,94.776314 
	C1337.898804,94.769157 1339.782227,96.224693 1341.640503,97.086395 
	C1342.873657,97.658241 1344.074219,98.300156 1346.281494,99.409157 
	C1344.125488,92.313347 1342.097534,91.065620 1334.062866,91.187027 
M1483.382202,112.790512 
	C1484.126099,108.650833 1485.808105,104.417824 1485.407593,100.392036 
	C1484.699951,93.279877 1477.707397,89.460930 1470.959717,91.516304 
	C1465.850098,93.072647 1463.348267,96.682793 1462.925415,101.781914 
	C1462.465698,107.326080 1463.107300,112.657722 1468.694214,115.586128 
	C1473.833130,118.279816 1478.662598,117.304825 1483.382202,112.790512 
M1429.125244,86.987175 
	C1428.986816,85.921288 1428.848389,84.855408 1428.710083,83.789520 
	C1425.812988,86.582916 1423.892700,89.711891 1422.095337,92.909889 
	C1421.958496,93.153214 1422.734253,93.864594 1423.014771,94.395981 
	C1423.744141,95.776886 1424.926270,97.138908 1425.042603,98.580009 
	C1425.335449,102.204239 1425.114258,105.868141 1425.145630,109.515739 
	C1425.203003,116.211853 1426.945068,117.636230 1433.749756,116.482262 
	C1434.207520,112.423195 1427.276489,112.521172 1428.910034,107.258507 
	C1430.031616,103.645218 1429.125000,99.402397 1429.125000,96.043724 
	C1430.804810,94.677162 1432.039185,93.673080 1433.273438,92.669044 
	C1432.192993,92.059425 1430.902588,91.644493 1430.098999,90.778107 
	C1429.464233,90.093674 1429.427979,88.854240 1429.125244,86.987175 
M1491.127075,111.320374 
	C1491.127075,113.123428 1491.127075,114.926476 1491.127075,116.822861 
	C1492.681152,116.822861 1493.799438,116.822861 1495.250610,116.822861 
	C1495.250610,111.458755 1495.028687,106.293892 1495.325928,101.159073 
	C1495.536011,97.528282 1496.437866,94.051521 1501.586182,94.782280 
	C1502.394409,94.896996 1503.415771,93.510429 1505.489868,91.954147 
	C1499.690430,91.954147 1495.597046,91.954147 1491.127075,91.954147 
	C1491.127075,97.733612 1491.127075,104.048363 1491.127075,111.320374 
M1355.487793,91.942001 
	C1354.836426,93.298508 1354.184937,94.655022 1353.533447,96.011497 
	C1354.922485,96.413162 1356.311401,96.814827 1357.700317,97.216492 
	C1358.042358,96.852036 1358.384277,96.487587 1358.726196,96.123131 
	C1357.907471,94.729851 1357.088745,93.336571 1355.487793,91.942001 
M1356.265259,111.943199 
	C1351.947266,111.711548 1353.835571,114.649284 1353.513062,117.023315 
	C1355.249512,116.927010 1356.610962,116.851501 1358.693115,116.736023 
	C1358.015869,114.793449 1357.529175,113.397392 1356.265259,111.943199 
z"/>
<path fill="#FEFEFE" opacity="1.000000" stroke="none" 
	d="
M441.002136,107.000000 
	C441.002136,125.143509 441.002136,142.787018 441.002136,160.715271 
	C309.044861,160.715271 177.309860,160.715271 45.286865,160.715271 
	C45.286865,122.380020 45.286865,83.975517 45.286865,45.284687 
	C176.956039,45.284687 308.691010,45.284687 441.002136,45.284687 
	C441.002136,65.641319 441.002136,86.070663 441.002136,107.000000 
M245.988953,91.382584 
	C245.807129,86.609314 243.456772,83.103577 238.757034,82.596107 
	C233.257477,82.002289 227.644669,82.457268 222.215881,82.457268 
	C222.215881,94.031357 222.215881,105.305191 222.215881,117.009521 
	C227.054260,117.009521 231.686798,117.185951 236.299820,116.961243 
	C241.173569,116.723839 245.574371,115.402328 247.183380,109.941978 
	C248.750275,104.624512 246.357452,101.066223 242.460815,98.869598 
	C243.688217,96.485573 244.798904,94.328255 245.988953,91.382584 
M316.734253,107.559998 
	C318.043854,109.679497 319.102936,112.023247 320.738800,113.850655 
	C322.158813,115.436966 324.231750,116.438782 326.016144,117.698914 
	C326.359344,117.257088 326.702515,116.815262 327.045715,116.373444 
	C323.743469,111.101883 320.441193,105.830322 316.258850,99.153770 
	C319.521118,96.621544 322.736359,94.125839 326.729492,91.026344 
	C318.272461,90.325752 316.779144,98.161125 311.005829,100.792526 
	C311.005829,94.243027 311.005829,88.198227 311.005829,82.153435 
	C310.478607,81.905411 309.951385,81.657394 309.424164,81.409378 
	C308.644836,82.486343 307.207825,83.551819 307.188751,84.642067 
	C307.014648,94.609566 307.006439,104.583069 307.216949,114.549187 
	C307.237122,115.503601 309.068481,116.419754 310.205292,117.491600 
	C312.261993,112.364067 308.688965,107.114426 314.274811,104.089348 
	C314.980164,105.077789 315.631104,105.989929 316.734253,107.559998 
M157.638168,106.457962 
	C157.638168,109.898972 157.638168,113.339981 157.638168,116.780991 
	C158.182388,117.027779 158.726593,117.274559 159.270813,117.521347 
	C160.044159,116.339668 161.392822,115.201805 161.486771,113.968376 
	C161.814682,109.663902 161.619965,105.322830 161.792984,101.002441 
	C161.962189,96.777092 164.404388,94.550209 168.539413,94.643364 
	C172.686676,94.736801 173.629486,97.716682 173.633301,101.223022 
	C173.638885,106.369141 173.634750,111.515274 173.634750,116.849480 
	C175.021118,116.849480 176.131393,116.849480 177.550995,116.849480 
	C177.550995,110.688660 177.783646,104.702911 177.486267,98.743607 
	C177.182175,92.649628 171.893417,89.448357 166.101608,91.543480 
	C164.728104,92.040321 163.455841,92.817032 162.815872,93.131462 
	C160.989655,92.171692 159.603012,91.442932 157.638199,90.410324 
	C157.638199,96.162132 157.638199,100.818253 157.638168,106.457962 
M183.574127,99.854027 
	C185.449600,105.114418 190.610718,104.581688 194.572479,106.277901 
	C196.236679,106.990417 197.419342,108.827660 198.820908,110.153595 
	C197.130020,111.242966 195.350357,113.326782 193.769333,113.185616 
	C191.472610,112.980560 189.334030,111.139694 187.098770,110.056801 
	C185.874329,109.463615 184.589828,108.994408 182.251068,108.017715 
	C185.682907,116.928154 193.963394,119.612526 199.802155,114.858200 
	C201.475510,113.495651 202.946609,110.591942 202.737518,108.579056 
	C202.534134,106.621185 200.383362,104.367226 198.494919,103.213593 
	C196.315231,101.882050 193.380722,101.852554 190.980057,100.791443 
	C189.536530,100.153389 188.486053,98.626091 187.258942,97.498428 
	C188.809280,96.520966 190.350845,94.780724 191.912201,94.762794 
	C193.783691,94.741318 195.673462,96.186127 197.552643,97.002106 
	C198.843689,97.562698 200.130203,98.133751 201.418762,98.700127 
	C199.830002,92.527756 196.082275,90.232422 190.970413,91.064171 
	C186.488800,91.793365 183.059784,93.763077 183.574127,99.854027 
M291.285919,90.989845 
	C289.345154,91.328499 287.272186,91.342255 285.488953,92.067986 
	C280.547241,94.079109 278.912140,98.252396 278.784790,103.274445 
	C278.650024,108.587395 279.837006,113.305077 285.036072,115.834457 
	C289.457275,117.985382 293.882782,117.417915 297.670959,114.361252 
	C302.081085,110.802727 302.286896,105.749191 301.535126,100.669571 
	C300.737579,95.280556 297.358643,92.194588 291.285919,90.989845 
M253.071884,110.123528 
	C256.810028,116.747665 263.159821,118.840935 269.358337,115.492523 
	C274.929871,112.482796 277.060303,103.329262 273.690430,96.879570 
	C270.865875,91.473602 263.891846,89.398781 258.156158,92.257996 
	C252.865265,94.895493 250.980072,100.948593 253.071884,110.123528 
M213.010635,92.001862 
	C208.707397,91.275475 209.081940,93.829384 209.726761,96.796318 
	C211.132690,96.796318 212.484940,96.796318 214.166656,96.796318 
	C214.006180,95.089302 213.872833,93.670929 213.010635,92.001862 
M212.238663,117.057564 
	C213.011765,115.584831 213.784851,114.112099 214.828247,112.124466 
	C212.332962,112.124466 211.082001,112.124466 208.367645,112.124466 
	C209.697922,114.254303 210.574142,115.657158 212.238663,117.057564 
z"/>
<path fill="#EDEDED" opacity="1.000000" stroke="none" 
	d="
M731.891357,101.093964 
	C732.591736,103.155151 733.163940,104.845108 733.829224,106.810013 
	C729.895569,106.810013 726.330139,106.810013 722.130066,106.810013 
	C723.150085,103.918327 724.083069,101.329292 724.975708,98.726425 
	C725.831970,96.229538 726.646423,93.718292 727.829285,90.160530 
	C729.327576,94.183449 730.545349,97.453087 731.891357,101.093964 
z"/>
<path fill="#EDEDED" opacity="1.000000" stroke="none" 
	d="
M671.528564,117.293571 
	C670.102539,115.951363 669.046997,114.697319 667.991394,113.443268 
	C669.307678,112.347351 670.464905,110.734581 671.975403,110.269485 
	C674.635925,109.450287 677.512207,109.331924 680.291260,108.921127 
	C681.576477,114.908165 679.353516,117.120560 671.528564,117.293571 
z"/>
<path fill="#F5F5F5" opacity="1.000000" stroke="none" 
	d="
M817.008240,105.484955 
	C817.971802,100.700577 820.557312,98.230591 825.113098,98.688751 
	C829.490540,99.128975 831.236755,102.234245 831.660767,106.261528 
	C832.251160,111.869385 830.358276,115.821396 826.556091,117.035446 
	C822.435364,118.351212 818.343872,116.175346 817.323914,111.851913 
	C816.874390,109.946503 817.060913,107.891022 817.008240,105.484955 
z"/>
<path fill="#161616" opacity="1.000000" stroke="none" 
	d="
M1391.332520,109.484764 
	C1392.341919,111.996414 1393.219482,114.140221 1394.147461,116.407097 
	C1390.162964,118.298431 1388.853149,116.132233 1387.771240,112.946243 
	C1387.059814,110.850777 1385.971436,107.471054 1384.638184,107.258301 
	C1380.283325,106.563339 1375.628906,106.519653 1371.329346,107.398499 
	C1369.916382,107.687355 1368.971313,111.472595 1368.282715,113.798332 
	C1367.373291,116.869026 1365.775513,117.831978 1362.643188,116.497238 
	C1366.640259,105.917557 1370.561401,95.349396 1374.691650,84.863533 
	C1375.165527,83.660568 1376.962646,82.015175 1377.869507,82.172249 
	C1379.231323,82.408127 1380.908691,83.816719 1381.477661,85.144196 
	C1384.873901,93.068565 1387.990479,101.112846 1391.332520,109.484764 
M1381.833496,102.988037 
	C1382.437256,102.640778 1383.606689,102.104050 1383.562988,101.973587 
	C1381.882080,96.954582 1380.090332,91.972809 1377.942017,85.944931 
	C1375.786011,92.457382 1374.104736,97.535439 1372.298584,102.990913 
	C1375.673584,102.990913 1378.320923,102.990913 1381.833496,102.988037 
z"/>
<path fill="#1B1B1B" opacity="1.000000" stroke="none" 
	d="
M1437.695557,101.992813 
	C1437.695557,95.170898 1437.695557,88.847504 1437.695557,82.550415 
	C1440.759766,82.167694 1440.759766,82.167694 1442.099609,93.266251 
	C1443.654663,92.621628 1445.105469,91.891312 1446.634521,91.409660 
	C1452.073975,89.696228 1457.045410,92.599007 1457.528931,98.223892 
	C1457.998291,103.684189 1457.905762,109.210159 1457.708496,114.694641 
	C1457.672363,115.696999 1455.949951,116.638672 1455.005981,117.608337 
	C1454.570557,117.314705 1454.135132,117.021072 1453.699707,116.727448 
	C1453.699707,111.607315 1453.679565,106.487083 1453.706665,101.367104 
	C1453.724976,97.877541 1452.959473,94.809982 1448.766724,94.685585 
	C1444.677612,94.564255 1442.103882,96.727745 1441.890381,100.950439 
	C1441.671997,105.271225 1441.905762,109.618919 1441.581177,113.927689 
	C1441.487427,115.172836 1440.151611,116.324448 1439.385254,117.518951 
	C1438.822021,117.274582 1438.258789,117.030220 1437.695557,116.785851 
	C1437.695557,112.021011 1437.695557,107.256165 1437.695557,101.992813 
z"/>
<path fill="#1B1B1B" opacity="1.000000" stroke="none" 
	d="
M1317.687988,110.786987 
	C1317.678467,106.987633 1317.717896,103.656517 1317.645386,100.327820 
	C1317.575195,97.100449 1316.219116,94.747154 1312.693604,94.651566 
	C1309.126587,94.554832 1306.348999,96.122482 1306.030029,99.934135 
	C1305.642090,104.567284 1305.915649,109.254478 1305.567627,113.893120 
	C1305.473389,115.148643 1304.166748,116.313171 1303.416626,117.519470 
	C1302.934814,117.277664 1302.453003,117.035858 1301.971191,116.794060 
	C1301.971191,108.381508 1301.971191,99.968956 1301.971191,90.615250 
	C1303.620483,91.440933 1305.006470,92.134811 1306.961792,93.113708 
	C1307.322021,92.928375 1308.441284,92.237930 1309.643555,91.753014 
	C1315.877930,89.238480 1321.301880,92.517708 1321.614990,99.183197 
	C1321.848999,104.167709 1321.823608,109.180511 1321.550171,114.160751 
	C1321.486450,115.320724 1319.947021,116.399681 1319.086548,117.515923 
	C1318.620361,117.234970 1318.154175,116.954025 1317.687988,116.673080 
	C1317.687988,114.867477 1317.687988,113.061874 1317.687988,110.786987 
z"/>
<path fill="#202020" opacity="1.000000" stroke="none" 
	d="
M1403.010498,111.823357 
	C1409.448242,114.605995 1413.128906,112.464638 1413.418091,106.007111 
	C1413.633301,101.200745 1413.460571,96.376999 1413.460571,91.254776 
	C1414.946167,91.254776 1416.145386,91.254776 1417.524780,91.254776 
	C1417.524780,99.739891 1417.524780,108.031204 1417.524780,117.433739 
	C1415.718018,116.538887 1414.401855,115.887032 1412.258301,114.825325 
	C1412.076904,114.921463 1410.844604,115.703842 1409.516724,116.256073 
	C1403.663818,118.690201 1398.095947,115.482307 1397.752808,109.170807 
	C1397.437378,103.371941 1397.685669,97.542427 1397.685669,91.308762 
	C1398.841919,91.202682 1400.040405,91.092720 1401.151001,90.990807 
	C1401.684692,98.036400 1402.194702,104.771111 1403.010498,111.823357 
z"/>
<path fill="#181818" opacity="1.000000" stroke="none" 
	d="
M1334.468506,91.114075 
	C1342.097534,91.065620 1344.125488,92.313347 1346.281494,99.409157 
	C1344.074219,98.300156 1342.873657,97.658241 1341.640503,97.086395 
	C1339.782227,96.224693 1337.898804,94.769157 1336.030640,94.776314 
	C1334.460449,94.782333 1332.896973,96.515717 1331.330444,97.484390 
	C1332.560181,98.614128 1333.613037,100.143448 1335.059570,100.783661 
	C1337.466797,101.849083 1340.411743,101.880051 1342.593140,103.220734 
	C1344.479736,104.380157 1346.620605,106.656647 1346.812134,108.618629 
	C1347.009155,110.637352 1345.518921,113.542053 1343.832764,114.893028 
	C1337.926514,119.625008 1329.675415,116.888199 1326.265015,107.855316 
	C1328.686523,108.976028 1329.989502,109.480675 1331.194092,110.159737 
	C1332.984863,111.169258 1334.780762,113.271667 1336.438599,113.144218 
	C1338.655396,112.973801 1340.742310,111.114784 1342.885010,109.980881 
	C1341.249268,108.668404 1339.696167,107.227928 1337.944092,106.095345 
	C1337.013428,105.493629 1335.740234,105.415337 1334.617065,105.118668 
	C1330.901123,104.137115 1327.393066,102.735153 1327.399902,98.143532 
	C1327.406128,93.933212 1330.407715,92.139008 1334.468506,91.114075 
z"/>
<path fill="#1A1A1A" opacity="1.000000" stroke="none" 
	d="
M1483.143311,113.083862 
	C1478.662598,117.304825 1473.833130,118.279816 1468.694214,115.586128 
	C1463.107300,112.657722 1462.465698,107.326080 1462.925415,101.781914 
	C1463.348267,96.682793 1465.850098,93.072647 1470.959717,91.516304 
	C1477.707397,89.460930 1484.699951,93.279877 1485.407593,100.392036 
	C1485.808105,104.417824 1484.126099,108.650833 1483.143311,113.083862 
M1469.861816,96.124176 
	C1466.034424,99.748970 1466.342773,104.266548 1467.674927,108.640228 
	C1469.108765,113.347649 1474.851440,114.893509 1478.674438,111.970169 
	C1481.797119,109.582321 1482.976807,102.682785 1480.710938,98.576683 
	C1478.370850,94.335930 1474.785400,93.643211 1469.861816,96.124176 
z"/>
<path fill="#1B1B1B" opacity="1.000000" stroke="none" 
	d="
M1429.125488,87.424225 
	C1429.427979,88.854240 1429.464233,90.093674 1430.098999,90.778107 
	C1430.902588,91.644493 1432.192993,92.059425 1433.273438,92.669022 
	C1432.039185,93.673080 1430.804810,94.677162 1429.125000,96.043724 
	C1429.125000,99.402397 1430.031616,103.645218 1428.910034,107.258507 
	C1427.276489,112.521172 1434.207520,112.423195 1433.749756,116.482262 
	C1426.945068,117.636230 1425.203003,116.211853 1425.145630,109.515739 
	C1425.114258,105.868141 1425.335449,102.204239 1425.042603,98.580009 
	C1424.926270,97.138908 1423.744141,95.776886 1423.014771,94.395981 
	C1422.734253,93.864594 1421.958496,93.153214 1422.095337,92.909889 
	C1423.892700,89.711891 1425.812988,86.582916 1428.710083,83.789520 
	C1428.848389,84.855408 1428.986816,85.921288 1429.125488,87.424225 
z"/>
<path fill="#202020" opacity="1.000000" stroke="none" 
	d="
M1491.127075,110.841743 
	C1491.127075,104.048363 1491.127075,97.733612 1491.127075,91.954147 
	C1495.597046,91.954147 1499.690430,91.954147 1505.489868,91.954147 
	C1503.415771,93.510429 1502.394409,94.896996 1501.586182,94.782280 
	C1496.437866,94.051521 1495.536011,97.528282 1495.325928,101.159073 
	C1495.028687,106.293892 1495.250610,111.458755 1495.250610,116.822861 
	C1493.799438,116.822861 1492.681152,116.822861 1491.127075,116.822861 
	C1491.127075,114.926476 1491.127075,113.123428 1491.127075,110.841743 
z"/>
<path fill="#202020" opacity="1.000000" stroke="none" 
	d="
M1355.878906,91.942642 
	C1357.088745,93.336571 1357.907471,94.729851 1358.726196,96.123131 
	C1358.384277,96.487587 1358.042358,96.852036 1357.700317,97.216492 
	C1356.311401,96.814827 1354.922485,96.413162 1353.533447,96.011520 
	C1354.184937,94.655022 1354.836426,93.298508 1355.878906,91.942642 
z"/>
<path fill="#202020" opacity="1.000000" stroke="none" 
	d="
M1356.653809,111.972267 
	C1357.529175,113.397392 1358.015869,114.793449 1358.693115,116.736023 
	C1356.610962,116.851501 1355.249512,116.927010 1353.513062,117.023315 
	C1353.835571,114.649284 1351.947266,111.711548 1356.653809,111.972267 
z"/>
<path fill="#0C0C0C" opacity="1.000000" stroke="none" 
	d="
M245.949265,91.776756 
	C244.798904,94.328255 243.688217,96.485573 242.460815,98.869598 
	C246.357452,101.066223 248.750275,104.624512 247.183380,109.941978 
	C245.574371,115.402328 241.173569,116.723839 236.299820,116.961243 
	C231.686798,117.185951 227.054260,117.009521 222.215881,117.009521 
	C222.215881,105.305191 222.215881,94.031357 222.215881,82.457268 
	C227.644669,82.457268 233.257477,82.002289 238.757034,82.596107 
	C243.456772,83.103577 245.807129,86.609314 245.949265,91.776756 
M234.264099,101.004288 
	C231.656342,101.004288 229.048569,101.004288 226.467575,101.004288 
	C226.467575,105.315559 226.467575,109.041153 226.467575,112.957306 
	C230.425201,112.957306 234.091034,113.187592 237.715378,112.898247 
	C242.116257,112.546906 244.974060,108.101257 242.571884,104.700966 
	C241.170151,102.716858 237.708435,102.188057 234.264099,101.004288 
M226.155823,92.433975 
	C226.233353,93.864723 226.310883,95.295471 226.399094,96.922989 
	C230.178940,96.922989 233.797852,97.549416 237.018539,96.687645 
	C238.945160,96.172134 241.477142,93.333237 241.486420,91.527107 
	C241.495697,89.719307 238.982651,86.807457 237.079300,86.321327 
	C233.721130,85.463646 229.986160,86.081253 226.155807,86.081253 
	C226.155807,88.243164 226.155807,89.871536 226.155823,92.433975 
z"/>
<path fill="#1A1A1A" opacity="1.000000" stroke="none" 
	d="
M316.508118,107.231033 
	C315.631104,105.989929 314.980164,105.077789 314.274811,104.089348 
	C308.688965,107.114426 312.261993,112.364067 310.205292,117.491600 
	C309.068481,116.419754 307.237122,115.503601 307.216949,114.549187 
	C307.006439,104.583069 307.014648,94.609566 307.188751,84.642067 
	C307.207825,83.551819 308.644836,82.486343 309.424164,81.409378 
	C309.951385,81.657394 310.478607,81.905411 311.005829,82.153435 
	C311.005829,88.198227 311.005829,94.243027 311.005829,100.792526 
	C316.779144,98.161125 318.272461,90.325752 326.729492,91.026344 
	C322.736359,94.125839 319.521118,96.621544 316.258850,99.153770 
	C320.441193,105.830322 323.743469,111.101883 327.045715,116.373444 
	C326.702515,116.815262 326.359344,117.257088 326.016144,117.698914 
	C324.231750,116.438782 322.158813,115.436966 320.738800,113.850655 
	C319.102936,112.023247 318.043854,109.679497 316.508118,107.231033 
z"/>
<path fill="#1B1B1B" opacity="1.000000" stroke="none" 
	d="
M157.638184,105.966164 
	C157.638199,100.818253 157.638199,96.162132 157.638199,90.410324 
	C159.603012,91.442932 160.989655,92.171692 162.815872,93.131462 
	C163.455841,92.817032 164.728104,92.040321 166.101608,91.543480 
	C171.893417,89.448357 177.182175,92.649628 177.486267,98.743607 
	C177.783646,104.702911 177.550995,110.688660 177.550995,116.849480 
	C176.131393,116.849480 175.021118,116.849480 173.634750,116.849480 
	C173.634750,111.515274 173.638885,106.369141 173.633301,101.223022 
	C173.629486,97.716682 172.686676,94.736801 168.539413,94.643364 
	C164.404388,94.550209 161.962189,96.777092 161.792984,101.002441 
	C161.619965,105.322830 161.814682,109.663902 161.486771,113.968376 
	C161.392822,115.201805 160.044159,116.339668 159.270813,117.521347 
	C158.726593,117.274559 158.182388,117.027779 157.638168,116.780991 
	C157.638168,113.339981 157.638168,109.898972 157.638184,105.966164 
z"/>
<path fill="#161616" opacity="1.000000" stroke="none" 
	d="
M183.471558,99.490677 
	C183.059784,93.763077 186.488800,91.793365 190.970413,91.064171 
	C196.082275,90.232422 199.830002,92.527756 201.418762,98.700127 
	C200.130203,98.133751 198.843689,97.562698 197.552643,97.002106 
	C195.673462,96.186127 193.783691,94.741318 191.912201,94.762794 
	C190.350845,94.780724 188.809280,96.520966 187.258942,97.498428 
	C188.486053,98.626091 189.536530,100.153389 190.980057,100.791443 
	C193.380722,101.852554 196.315231,101.882050 198.494919,103.213593 
	C200.383362,104.367226 202.534134,106.621185 202.737518,108.579056 
	C202.946609,110.591942 201.475510,113.495651 199.802155,114.858200 
	C193.963394,119.612526 185.682907,116.928154 182.251068,108.017715 
	C184.589828,108.994408 185.874329,109.463615 187.098770,110.056801 
	C189.334030,111.139694 191.472610,112.980560 193.769333,113.185616 
	C195.350357,113.326782 197.130020,111.242966 198.820908,110.153595 
	C197.419342,108.827660 196.236679,106.990417 194.572479,106.277901 
	C190.610718,104.581688 185.449600,105.114418 183.471558,99.490677 
z"/>
<path fill="#161616" opacity="1.000000" stroke="none" 
	d="
M291.691772,91.033455 
	C297.358643,92.194588 300.737579,95.280556 301.535126,100.669571 
	C302.286896,105.749191 302.081085,110.802727 297.670959,114.361252 
	C293.882782,117.417915 289.457275,117.985382 285.036072,115.834457 
	C279.837006,113.305077 278.650024,108.587395 278.784790,103.274445 
	C278.912140,98.252396 280.547241,94.079109 285.488953,92.067986 
	C287.272186,91.342255 289.345154,91.328499 291.691772,91.033455 
M285.839600,96.057938 
	C281.913727,99.647797 282.302124,104.212189 283.549011,108.583908 
	C284.903412,113.332603 290.655426,114.926712 294.538239,112.026688 
	C297.712769,109.655693 298.938263,102.811775 296.684906,98.635048 
	C294.382172,94.366753 290.792664,93.636574 285.839600,96.057938 
z"/>
<path fill="#181818" opacity="1.000000" stroke="none" 
	d="
M252.950562,109.742767 
	C250.980072,100.948593 252.865265,94.895493 258.156158,92.257996 
	C263.891846,89.398781 270.865875,91.473602 273.690430,96.879570 
	C277.060303,103.329262 274.929871,112.482796 269.358337,115.492523 
	C263.159821,118.840935 256.810028,116.747665 252.950562,109.742767 
M269.733643,97.998741 
	C265.156128,93.330109 259.101746,93.482155 257.268066,98.731033 
	C256.240265,101.673073 256.007355,105.538742 257.075562,108.360016 
	C257.910187,110.564285 261.294983,113.094109 263.556854,113.103874 
	C265.821075,113.113640 269.238342,110.615280 270.083801,108.420357 
	C271.166565,105.609314 270.183014,102.002350 269.733643,97.998741 
z"/>
<path fill="#202020" opacity="1.000000" stroke="none" 
	d="
M213.375061,92.127205 
	C213.872833,93.670929 214.006180,95.089302 214.166656,96.796318 
	C212.484940,96.796318 211.132690,96.796318 209.726761,96.796318 
	C209.081940,93.829384 208.707397,91.275475 213.375061,92.127205 
z"/>
<path fill="#202020" opacity="1.000000" stroke="none" 
	d="
M211.844513,117.058784 
	C210.574142,115.657158 209.697922,114.254303 208.367645,112.124466 
	C211.082001,112.124466 212.332962,112.124466 214.828247,112.124466 
	C213.784851,114.112099 213.011765,115.584831 211.844513,117.058784 
z"/>
<path fill="#EDEDED" opacity="1.000000" stroke="none" 
	d="
M1381.400879,102.989471 
	C1378.320923,102.990913 1375.673584,102.990913 1372.298584,102.990913 
	C1374.104736,97.535439 1375.786011,92.457382 1377.942017,85.944931 
	C1380.090332,91.972809 1381.882080,96.954582 1383.562988,101.973587 
	C1383.606689,102.104050 1382.437256,102.640778 1381.400879,102.989471 
z"/>
<path fill="#F5F5F5" opacity="1.000000" stroke="none" 
	d="
M1470.197632,95.884094 
	C1474.785400,93.643211 1478.370850,94.335930 1480.710938,98.576683 
	C1482.976807,102.682785 1481.797119,109.582321 1478.674438,111.970169 
	C1474.851440,114.893509 1469.108765,113.347649 1467.674927,108.640228 
	C1466.342773,104.266548 1466.034424,99.748970 1470.197632,95.884094 
z"/>
<path fill="#F5F5F5" opacity="1.000000" stroke="none" 
	d="
M234.718811,101.004395 
	C237.708435,102.188057 241.170151,102.716858 242.571884,104.700966 
	C244.974060,108.101257 242.116257,112.546906 237.715378,112.898247 
	C234.091034,113.187592 230.425201,112.957306 226.467575,112.957306 
	C226.467575,109.041153 226.467575,105.315559 226.467575,101.004288 
	C229.048569,101.004288 231.656342,101.004288 234.718811,101.004395 
z"/>
<path fill="#F5F5F5" opacity="1.000000" stroke="none" 
	d="
M226.155823,91.966942 
	C226.155807,89.871536 226.155807,88.243164 226.155807,86.081253 
	C229.986160,86.081253 233.721130,85.463646 237.079300,86.321327 
	C238.982651,86.807457 241.495697,89.719307 241.486420,91.527107 
	C241.477142,93.333237 238.945160,96.172134 237.018539,96.687645 
	C233.797852,97.549416 230.178940,96.922989 226.399094,96.922989 
	C226.310883,95.295471 226.233353,93.864723 226.155823,91.966942 
z"/>
<path fill="#F5F5F5" opacity="1.000000" stroke="none" 
	d="
M286.174561,95.814255 
	C290.792664,93.636574 294.382172,94.366753 296.684906,98.635048 
	C298.938263,102.811775 297.712769,109.655693 294.538239,112.026688 
	C290.655426,114.926712 284.903412,113.332603 283.549011,108.583908 
	C282.302124,104.212189 281.913727,99.647797 286.174561,95.814255 
z"/>
<path fill="#F5F5F5" opacity="1.000000" stroke="none" 
	d="
M269.911743,98.368546 
	C270.183014,102.002350 271.166565,105.609314 270.083801,108.420357 
	C269.238342,110.615280 265.821075,113.113640 263.556854,113.103874 
	C261.294983,113.094109 257.910187,110.564285 257.075562,108.360016 
	C256.007355,105.538742 256.240265,101.673073 257.268066,98.731033 
	C259.101746,93.482155 265.156128,93.330109 269.911743,98.368546 
z"/>
</svg>