<svg version="1.1" id="Layer_1" xmlns="http://www.w3.org/2000/svg" xmlns:xlink="http://www.w3.org/1999/xlink" x="0px" y="0px"
	 width="100%" viewBox="0 0 512 160" enable-background="new 0 0 512 160" xml:space="preserve">
<path fill="#000000" opacity="1.000000" stroke="none" 
	d="
M78.000092,24.659311 
	C217.946716,24.659016 357.393341,24.658968 496.839966,24.659103 
	C498.339386,24.659103 499.855896,24.807682 501.334930,24.634762 
	C505.375946,24.162323 506.407745,26.053669 506.397705,29.845064 
	C506.297607,67.663635 506.225586,105.483330 506.469391,143.300613 
	C506.504700,148.774902 504.344910,149.461746 499.721558,149.455017 
	C424.084045,149.344772 348.446259,149.376221 272.808563,149.376022 
	C191.672958,149.375809 110.537346,149.376495 29.401735,149.374634 
	C21.666525,149.374451 21.644384,149.367355 21.641901,141.919525 
	C21.629576,104.933693 21.725878,67.947311 21.514673,30.962666 
	C21.485472,25.849146 23.028658,24.461475 28.021179,24.548801 
	C44.509750,24.837210 61.006489,24.658789 78.000092,24.659311 
M26.355202,106.499931 
	C26.351242,116.997124 26.341843,127.494308 26.345301,137.991501 
	C26.347490,144.634064 26.356092,144.653748 32.853012,144.654007 
	C186.980408,144.660095 341.107819,144.638123 495.235107,144.768036 
	C500.300598,144.772293 501.775574,143.340363 501.746124,138.295059 
	C501.547943,104.304871 501.640717,70.312988 501.636047,36.321659 
	C501.635101,29.410955 501.628845,29.385859 494.819336,29.384138 
	C454.996155,29.374079 415.172974,29.374809 375.349792,29.375469 
	C261.378845,29.377363 147.407883,29.379778 33.436928,29.386765 
	C26.359259,29.387197 26.357800,29.406351 26.357479,36.517502 
	C26.356443,59.511639 26.356586,82.505775 26.355202,106.499931 
z"/>
<path fill="#000000" opacity="1.000000" stroke="none" 
	d="
M220.956085,71.200760 
	C220.669769,66.874420 222.380936,65.335114 226.274841,65.607063 
	C230.082855,65.873009 233.929825,65.539696 237.746704,65.729790 
	C244.388931,66.060593 248.143341,69.792900 248.299850,75.939575 
	C248.465546,82.446129 244.797226,86.525421 238.249008,87.302940 
	C234.820908,87.709991 230.740585,85.957146 228.095322,88.317909 
	C225.519104,90.617043 227.392715,94.651688 226.890915,97.882164 
	C226.618912,99.633179 226.324432,101.176941 224.058945,101.238396 
	C221.471451,101.308601 221.048737,99.586876 221.035690,97.625282 
	C220.978149,88.975952 220.972595,80.326286 220.956085,71.200760 
M227.113800,80.020096 
	C229.138062,85.068207 233.401855,82.149048 236.597534,82.427620 
	C239.305939,82.663712 241.788239,80.996468 242.478195,78.009613 
	C243.239548,74.713745 242.153931,72.038979 238.829254,70.773918 
	C231.140411,67.848259 226.950058,70.681099 227.027527,78.650894 
	C227.029144,78.816589 227.038330,78.982216 227.113800,80.020096 
z"/>
<path fill="#000000" opacity="1.000000" stroke="none" 
	d="
M267.204865,75.161438 
	C272.162903,76.992729 274.194427,80.640732 275.070465,85.117104 
	C275.630035,87.976524 274.638611,89.574417 271.432739,89.462616 
	C267.780121,89.335220 264.119690,89.347885 260.464325,89.405594 
	C256.722473,89.464676 256.719452,91.499794 258.351532,93.980873 
	C260.826569,97.743362 265.740601,97.687050 268.772278,93.757385 
	C270.120636,92.009628 271.376801,90.293114 273.511383,92.086884 
	C275.666382,93.897804 273.899475,95.841583 272.759918,97.316048 
	C269.785217,101.165031 265.512909,101.842270 261.058624,101.182022 
	C256.588562,100.519440 253.506134,97.828499 252.041595,93.532860 
	C248.221680,82.328690 255.080963,73.766823 267.204865,75.161438 
M263.473297,79.294113 
	C260.383179,79.405251 258.210266,80.594696 257.427460,84.495453 
	C261.596130,84.802620 265.260956,85.197609 269.224060,84.176773 
	C268.788422,80.977348 266.863281,79.788322 263.473297,79.294113 
z"/>
<path fill="#000000" opacity="1.000000" stroke="none" 
	d="
M328.367981,101.274826 
	C320.336426,98.767090 317.227173,94.141205 317.896088,86.291832 
	C318.445435,79.845650 322.439819,75.414772 328.318207,74.730789 
	C336.238983,73.809166 341.722992,78.554405 342.217010,86.757324 
	C342.780823,96.118896 338.146332,101.139404 328.367981,101.274826 
M324.259399,82.991135 
	C322.912750,85.645676 323.001892,88.481911 323.605133,91.228165 
	C324.542786,95.497147 328.510559,97.871559 332.194855,96.412491 
	C335.517944,95.096481 336.659698,92.265060 336.781738,88.869789 
	C336.919647,85.032272 336.407410,81.407097 332.397186,79.733879 
	C329.265442,78.427208 326.582825,79.517632 324.259399,82.991135 
z"/>
<path fill="#000000" opacity="1.000000" stroke="none" 
	d="
M311.242249,76.490997 
	C312.236206,77.674057 313.001251,78.554878 313.563690,79.550186 
	C314.164001,80.612541 314.409607,81.849846 313.187042,82.652649 
	C311.980652,83.444817 310.663635,83.457970 309.561829,82.344238 
	C308.866241,81.641129 308.350891,80.710609 307.560974,80.159882 
	C305.796844,78.929893 303.786194,79.000847 301.840973,79.670998 
	C300.841003,80.015480 300.156158,80.911156 300.396484,82.007347 
	C300.886444,84.242020 302.958557,84.300888 304.651215,84.843697 
	C306.860779,85.552269 309.168854,86.048004 311.258545,87.015472 
	C315.072693,88.781334 316.377930,92.483444 314.588989,96.176018 
	C312.690216,100.095421 309.224060,101.315788 305.121399,101.332031 
	C300.907562,101.348709 297.152313,100.436317 295.063019,96.316109 
	C294.415070,95.038345 293.482300,93.398911 295.246368,92.338432 
	C296.863983,91.365997 298.413147,91.650291 299.341248,93.619743 
	C300.085754,95.199631 301.334656,96.354630 303.096802,96.583191 
	C305.597595,96.907585 308.595337,97.252289 309.406311,94.198380 
	C310.213440,91.158844 307.074738,91.160957 305.203674,90.446289 
	C303.040039,89.619865 300.763031,89.083878 298.617615,88.217766 
	C296.076538,87.191910 294.754425,85.177025 294.657928,82.413025 
	C294.554718,79.456741 295.808075,77.263504 298.480194,75.985291 
	C302.655334,73.988106 306.816925,74.152107 311.242249,76.490997 
z"/>
<path fill="#000000" opacity="1.000000" stroke="none" 
	d="
M189.521225,74.860916 
	C194.010086,74.514870 198.066635,74.443420 200.791428,78.222176 
	C201.715408,79.503525 203.019318,81.195160 201.206802,82.617935 
	C199.639206,83.848427 198.046661,83.201477 196.973633,81.554085 
	C195.460678,79.231300 193.198074,79.067719 190.782639,79.368439 
	C189.508255,79.527084 188.572113,80.219109 188.362717,81.523293 
	C188.138168,82.921890 189.066330,83.731316 190.224579,84.125237 
	C192.898468,85.034592 195.612381,85.826332 198.311020,86.662697 
	C201.340088,87.601479 203.104858,89.569809 203.245987,92.808929 
	C203.383041,95.954704 201.924149,98.234573 199.271713,99.793755 
	C193.885757,102.959778 185.653641,101.396339 183.229141,96.682816 
	C182.509476,95.283707 181.276413,93.524734 183.295059,92.292366 
	C184.919220,91.300835 186.471832,91.719055 187.371368,93.677292 
	C188.023422,95.096786 189.143753,96.189240 190.691345,96.481667 
	C193.178802,96.951698 196.174500,97.428749 197.249176,94.554474 
	C198.547653,91.081688 195.021408,91.255493 193.092316,90.410812 
	C192.033951,89.947395 190.879105,89.698471 189.759583,89.381714 
	C186.240509,88.386040 183.000305,87.003082 182.740707,82.702202 
	C182.472183,78.253792 185.245117,76.108162 189.521225,74.860916 
z"/>
<path fill="#000000" opacity="1.000000" stroke="none" 
	d="
M345.883057,96.731842 
	C345.873993,90.434425 345.876373,84.606895 345.868164,78.779388 
	C345.863739,75.639503 346.989929,73.705864 350.379761,75.303764 
	C352.195801,76.159805 353.538422,75.393974 355.125549,75.015892 
	C362.252167,73.318207 367.022064,76.895271 367.211517,84.135880 
	C367.329071,88.627861 367.234802,93.126289 367.185547,97.621269 
	C367.166565,99.354530 366.938843,101.100655 364.632904,101.151199 
	C362.312286,101.202072 361.997589,99.451004 361.960632,97.725739 
	C361.871552,93.564850 361.884003,89.401665 361.868317,85.239357 
	C361.856689,82.153297 361.276672,79.398621 357.423157,79.337410 
	C353.570465,79.276215 351.573303,81.539162 351.363800,85.204155 
	C351.145569,89.022522 351.309814,92.861237 351.205139,96.688263 
	C351.152679,98.605789 351.561859,101.069405 348.577271,101.137215 
	C345.949860,101.196907 346.044525,99.029366 345.883057,96.731842 
z"/>
<path fill="#000000" opacity="1.000000" stroke="none" 
	d="
M172.716614,87.355362 
	C172.694351,86.237434 172.704071,85.569992 172.652679,84.907280 
	C172.409256,81.769760 171.316223,79.267601 167.640396,79.346832 
	C163.933014,79.426720 162.348114,81.856979 162.162888,85.215912 
	C161.934006,89.365768 162.019608,93.532150 161.849060,97.686447 
	C161.781601,99.330093 161.661102,101.204041 159.259903,101.171860 
	C156.884537,101.140030 156.778458,99.369415 156.769394,97.654373 
	C156.735123,91.165123 156.723328,84.675621 156.740005,78.186310 
	C156.744476,76.445396 157.284988,74.012886 159.268097,75.010696 
	C162.423615,76.598412 164.956665,74.964355 167.763824,74.714584 
	C173.707352,74.185760 177.046478,76.639359 177.588928,82.597870 
	C178.054611,87.713440 177.855789,92.894615 177.834061,98.046280 
	C177.827667,99.559906 177.459595,101.145195 175.414978,101.180962 
	C173.091431,101.221596 172.793991,99.569221 172.773834,97.791527 
	C172.736099,94.463913 172.736099,91.135872 172.716614,87.355362 
z"/>
<path fill="#000000" opacity="1.000000" stroke="none" 
	d="
M285.820129,75.295822 
	C287.029907,75.049400 287.837524,74.751450 288.648071,74.743340 
	C290.426117,74.725533 292.793488,74.323235 293.154999,76.668327 
	C293.560120,79.296150 291.222351,79.203667 289.384460,79.324608 
	C286.183655,79.535217 285.250854,81.753540 285.120667,84.448441 
	C284.904816,88.915939 284.839264,93.390671 284.706757,97.862244 
	C284.654816,99.615540 284.472626,101.263145 282.099701,101.245430 
	C279.734528,101.227776 279.548218,99.625771 279.558960,97.838257 
	C279.594849,91.870621 279.843475,85.892731 279.574554,79.938461 
	C279.362579,75.244926 281.116364,73.883881 285.820129,75.295822 
z"/>
<path fill="#000000" opacity="1.000000" stroke="none" 
	d="
M210.197571,81.008194 
	C208.259430,78.786499 207.919830,76.833611 210.882538,75.910217 
	C212.394653,75.438942 213.928070,75.919441 214.186234,77.897270 
	C214.542450,80.626282 213.069122,81.449493 210.197571,81.008194 
z"/>
<path fill="#000000" opacity="1.000000" stroke="none" 
	d="
M211.949417,101.199539 
	C208.527100,101.083046 208.303085,99.076645 209.181107,97.074364 
	C210.014328,95.174179 212.195129,95.228188 213.336807,96.436790 
	C214.808228,97.994469 214.968002,100.040154 211.949417,101.199539 
z"/>
</svg>