<svg version="1.1" id="Layer_1" xmlns="http://www.w3.org/2000/svg" xmlns:xlink="http://www.w3.org/1999/xlink" x="0px" y="0px"
	 width="100%" viewBox="0 0 1648 204" enable-background="new 0 0 1648 204" xml:space="preserve">
<path fill="#FFFFFF" opacity="1.000000" stroke="none" 
	d="
M1244.000000,205.000000 
	C829.333374,205.000000 415.166718,205.000000 1.000056,205.000000 
	C1.000037,137.000031 1.000037,69.000061 1.000019,1.000065 
	C550.333252,1.000043 1099.666504,1.000043 1648.999756,1.000022 
	C1648.999878,68.999931 1648.999878,136.999863 1649.000000,204.999908 
	C1514.166626,205.000000 1379.333374,205.000000 1244.000000,205.000000 
M1608.068237,103.500015 
	C1608.068237,82.741417 1608.068237,61.982819 1608.068237,41.280876 
	C1473.083496,41.280876 1338.682617,41.280876 1203.967651,41.280876 
	C1203.967651,61.481846 1203.967651,81.400826 1203.967651,101.831078 
	C1202.051758,100.931801 1200.573730,100.272202 1199.125488,99.552681 
	C1189.306152,94.674217 1179.468872,89.831207 1169.694946,84.863129 
	C1167.171997,83.580704 1165.367432,83.043671 1165.293823,87.022652 
	C1173.095093,90.948929 1181.006958,94.808167 1188.768311,98.949799 
	C1190.172363,99.699081 1191.788696,101.603027 1191.795532,102.981339 
	C1191.802368,104.357399 1190.202026,106.287262 1188.804077,107.033958 
	C1180.924072,111.243187 1172.892578,115.169052 1165.006226,119.144325 
	C1165.687744,122.853615 1167.343750,122.334335 1169.668823,121.156158 
	C1180.890625,115.469978 1192.184448,109.925613 1204.131714,103.993759 
	C1204.131714,124.727470 1204.131714,144.763870 1204.131714,164.717468 
	C1339.039307,164.717468 1473.445557,164.717468 1608.068237,164.717468 
	C1608.068237,144.454636 1608.068237,124.477325 1608.068237,103.500015 
M44.652153,164.999252 
	C171.731140,164.999252 298.810120,164.999252 426.281799,164.999252 
	C426.281799,144.571014 426.281799,124.822784 426.281799,104.876343 
	C429.644226,104.876343 432.612305,104.876343 435.966675,104.876343 
	C435.871033,103.469490 435.791199,102.295341 435.685089,100.734756 
	C432.254333,100.734756 429.179657,100.734756 425.722961,100.734756 
	C425.722961,80.583183 425.722961,60.842632 425.722961,41.345146 
	C297.245850,41.345146 169.175201,41.345146 41.000748,41.345146 
	C41.000748,52.349331 41.000751,63.009430 41.000751,73.669525 
	C41.000751,102.669106 40.982620,131.668732 41.044720,160.668182 
	C41.048546,162.453644 39.720730,165.453766 44.652153,164.999252 
M847.679260,115.249107 
	C847.679260,117.055847 847.679260,118.862579 847.679260,120.669319 
	C848.147949,120.945145 848.616638,121.220970 849.085327,121.496788 
	C849.920715,120.372032 851.384705,119.298035 851.480347,118.113541 
	C851.854797,113.477333 851.611694,108.792389 851.958191,104.152451 
	C852.236816,100.421425 854.673340,98.452988 858.377319,98.639557 
	C861.949768,98.819489 862.377014,101.645256 862.425720,104.431938 
	C862.504333,108.926788 862.567139,113.427025 862.431274,117.918770 
	C862.337524,121.017075 863.532959,121.675079 866.598389,120.418823 
	C866.598389,114.934433 866.400635,109.440437 866.669617,103.969376 
	C866.841736,100.467842 869.242310,98.562874 872.713013,98.632004 
	C876.485352,98.707123 877.168640,101.396378 877.130798,104.550270 
	C877.076843,109.045853 877.223938,113.545853 877.084290,118.037727 
	C876.980713,121.372978 878.469421,121.550133 881.049866,120.480629 
	C881.049866,114.364792 881.241089,108.365158 880.996948,102.383301 
	C880.745239,96.216370 875.032837,93.133087 869.594604,96.049973 
	C868.321167,96.733032 867.236633,97.768433 865.939087,98.735718 
	C861.703186,93.566605 856.897034,94.169746 852.855957,97.054062 
	C850.871216,96.034462 849.574707,95.368423 848.106995,94.614418 
	C847.846008,95.696899 847.705811,96.009361 847.704834,96.322243 
	C847.686584,102.317139 847.684631,108.312088 847.679260,115.249107 
M776.887695,100.775291 
	C773.921509,93.750877 769.387939,93.080391 761.871338,98.554459 
	C757.123413,94.075867 754.779114,93.884033 748.669739,97.176636 
	C747.045105,96.260849 745.655029,95.477280 743.922729,94.500801 
	C743.922729,103.902901 743.922729,112.333710 743.922729,120.764519 
	C744.393311,121.009346 744.863831,121.254166 745.334412,121.498985 
	C746.084351,120.303108 747.388184,119.150040 747.484497,117.903625 
	C747.830444,113.428085 747.623718,108.911903 747.905273,104.428642 
	C748.137634,100.728386 750.353333,98.574570 754.100708,98.629784 
	C758.012146,98.687416 758.390320,101.706505 758.429199,104.664841 
	C758.499146,109.981827 758.448975,115.300400 758.448975,120.820724 
	C759.877991,120.820724 760.983459,120.820724 762.644348,120.820724 
	C762.644348,115.007736 762.412537,109.349274 762.729004,103.721649 
	C762.927429,100.193604 765.504211,98.469200 768.963562,98.653389 
	C772.444702,98.838730 773.141724,101.352402 773.122192,104.315186 
	C773.085999,109.787781 773.111816,115.260780 773.111816,120.792465 
	C774.647400,120.792465 775.764832,120.792465 776.995728,120.792465 
	C776.995728,114.241028 776.995728,107.915749 776.887695,100.775291 
M652.552551,103.616356 
	C652.149658,102.003464 651.964478,100.290276 651.281006,98.806648 
	C650.632019,97.397942 649.461731,96.229408 648.520630,94.955292 
	C647.442871,96.295067 645.872620,97.475998 645.379700,99.004379 
	C643.904053,103.579895 642.849915,108.291328 641.631226,112.949699 
	C641.148254,112.915642 640.665344,112.881584 640.182434,112.847519 
	C638.863464,107.948975 637.408325,103.081604 636.276978,98.140083 
	C635.607361,95.215172 634.429138,94.063431 631.419983,95.577713 
	C633.565857,103.019279 635.838684,110.320786 637.727966,117.720238 
	C638.557312,120.968369 640.092041,121.749733 643.130127,120.601601 
	C644.641418,114.916695 646.162903,109.193626 647.684326,103.470558 
	C648.058289,103.545326 648.432190,103.620094 648.806091,103.694862 
	C650.272949,109.433678 651.739746,115.172493 653.519226,122.134781 
	C655.445679,120.768524 657.409851,120.136665 657.796509,118.978302 
	C660.397278,111.186096 662.663269,103.282135 665.037720,95.414375 
	C664.506042,95.176834 663.974365,94.939285 663.442749,94.701744 
	C657.213989,98.946945 659.736084,107.779892 654.982849,113.542732 
	C654.164490,110.170830 653.466431,107.294594 652.552551,103.616356 
M965.434204,120.319382 
	C975.534302,122.527756 983.667419,117.537735 985.696777,107.887474 
	C987.936890,97.234253 982.444702,88.115051 972.640625,86.209114 
	C964.645813,84.654907 956.774536,89.413788 954.361511,97.260567 
	C951.288086,107.255005 955.292358,116.161240 965.434204,120.319382 
M785.403259,94.968491 
	C784.826660,95.722244 783.755005,96.471199 783.747681,97.230461 
	C783.639587,108.371048 783.673401,119.513008 783.673401,130.815308 
	C785.052856,130.815308 786.153076,130.815308 787.584656,130.815308 
	C787.584656,128.625061 787.584656,126.643692 787.584656,124.662323 
	C787.584656,122.775848 787.584656,120.889374 787.584656,118.709373 
	C794.421997,121.759018 798.865479,121.162964 802.115540,117.165604 
	C805.895203,112.516762 806.008301,103.573044 802.346741,98.873505 
	C799.040344,94.629807 795.053040,94.188072 787.845764,97.234116 
	C787.309631,96.480278 786.782043,95.738525 785.403259,94.968491 
M901.518616,116.513161 
	C894.689636,118.480804 891.364868,116.276131 890.818542,108.997940 
	C896.756409,108.997940 902.672546,108.997940 908.545227,108.997940 
	C909.094971,100.786255 905.404175,95.687271 898.770325,95.010666 
	C892.565186,94.377777 887.415588,98.746490 886.446228,105.465881 
	C885.245544,113.788284 888.993042,119.794357 896.081909,120.909073 
	C902.166992,121.865952 906.859924,118.726822 908.054565,112.888214 
	C904.156738,110.278831 904.089844,114.918480 901.518616,116.513161 
M828.249268,120.621750 
	C836.003601,121.630569 839.471313,119.722572 842.273193,111.681831 
	C840.048584,112.644646 838.185486,112.848259 837.525024,113.847061 
	C835.332520,117.162590 832.474731,118.178543 828.936768,116.911163 
	C825.458008,115.664963 823.885254,112.994156 824.274658,108.795273 
	C830.384277,108.795273 836.298218,108.795273 842.193237,108.795273 
	C842.236572,101.457283 840.215820,97.768433 835.334961,95.839882 
	C829.491211,93.530861 823.251648,96.152580 820.874023,101.915932 
	C817.689209,109.636230 820.391113,117.122421 828.249268,120.621750 
M918.244934,114.322258 
	C918.361084,110.842842 918.262207,107.339195 918.650940,103.890511 
	C919.078552,100.096657 921.792419,98.511208 925.340759,98.645645 
	C929.145569,98.789803 930.280029,101.393600 930.261963,104.803970 
	C930.233948,110.094429 930.254578,115.385147 930.254578,120.850189 
	C931.769104,120.850189 932.877136,120.850189 934.244934,120.850189 
	C934.244934,118.852928 934.246826,117.043167 934.244507,115.233406 
	C934.239197,111.081711 934.407104,106.920563 934.183777,102.780563 
	C933.858154,96.745384 928.630493,93.445457 922.867126,95.526047 
	C921.338440,96.077896 919.944031,97.001534 919.205566,97.383385 
	C917.620422,96.302582 916.368103,95.448723 914.457092,94.145760 
	C914.457092,103.795502 914.457092,112.223480 914.457092,120.845024 
	C915.755981,120.845024 916.860596,120.845024 918.244873,120.845024 
	C918.244873,118.866348 918.244873,117.060852 918.244934,114.322258 
M610.768127,118.915390 
	C611.971924,119.460487 613.132385,120.150612 614.387085,120.525169 
	C619.389465,122.018517 624.876160,119.927177 627.408752,115.661026 
	C630.227783,110.912376 629.624084,102.531578 626.186890,98.698463 
	C622.704285,94.814674 616.844177,93.839455 612.011108,96.339409 
	C604.876099,100.030060 603.928772,111.412521 610.768127,118.915390 
M716.874634,100.546768 
	C713.584534,109.220573 715.453613,116.949387 721.543274,119.851608 
	C726.906921,122.407867 733.557861,120.599762 736.511475,115.782494 
	C739.985962,110.115433 738.511963,100.675888 733.600464,97.140694 
	C728.379761,93.382904 722.308105,94.398064 716.874634,100.546768 
M712.097107,114.686890 
	C711.749878,113.548561 711.402710,112.410233 711.055542,111.271858 
	C710.189148,111.960358 709.374939,112.731018 708.445923,113.320900 
	C706.259338,114.709389 703.723694,117.390747 701.873840,116.996086 
	C699.611328,116.513397 697.322998,113.715065 696.144653,111.366653 
	C695.218872,109.521713 695.267822,106.521904 696.142639,104.611694 
	C697.180115,102.346443 699.288879,99.701035 701.456604,99.096443 
	C703.228394,98.602287 705.766724,100.866982 707.968689,101.901024 
	C709.239258,102.497650 710.516846,103.079323 711.791260,103.667740 
	C710.095276,96.799408 706.531067,94.383430 701.441528,95.040085 
	C695.685913,95.782677 692.401794,99.410652 691.664551,105.840775 
	C690.830017,113.119713 693.293396,118.159920 698.694580,120.224319 
	C703.897949,122.213104 708.047974,120.673897 712.097107,114.686890 
M996.412598,86.562485 
	C994.812561,88.968307 993.212524,91.374130 991.612488,93.779953 
	C991.320129,94.926460 990.166138,95.573677 989.213806,96.442001 
	C989.060303,96.581978 989.767273,98.264778 990.140625,98.290123 
	C993.609131,98.525551 992.778320,101.056526 992.792480,103.066750 
	C992.834045,108.981422 992.807251,114.896591 992.807251,121.113678 
	C994.345215,120.952759 996.140686,120.867851 996.142822,120.749969 
	C996.276001,113.505013 996.262390,106.257355 996.262390,100.203384 
	C998.982788,98.491592 1000.497864,97.538269 1002.012878,96.584946 
	C1001.778931,96.111427 1001.544922,95.637917 1001.310913,95.164406 
	C999.885620,95.026146 998.460327,94.887886 996.910217,94.737518 
	C996.642822,91.900459 996.930115,90.016144 1000.286865,89.767059 
	C1001.414490,89.683395 1002.437866,88.195175 1003.508911,87.348930 
	C1003.195984,86.981087 1002.882996,86.613251 1002.570068,86.245407 
	C1000.762024,86.245407 998.953918,86.245407 996.412598,86.562485 
M1033.018433,111.158485 
	C1033.018433,112.183685 1033.018433,113.208893 1033.018433,114.654007 
	C1039.993408,111.941841 1046.499634,109.479187 1052.948364,106.874496 
	C1055.927612,105.671188 1056.310181,102.920250 1053.818115,101.633331 
	C1047.145142,98.187454 1040.097412,95.467239 1033.198608,92.458748 
	C1032.887817,92.992714 1032.577148,93.526680 1032.266357,94.060646 
	C1036.156860,100.120369 1044.760254,99.425438 1049.681030,104.369766 
	C1044.070068,106.600273 1038.825439,108.685097 1033.018433,111.158485 
M1006.710876,96.942230 
	C1011.722839,99.174408 1016.734741,101.406578 1022.503052,103.975616 
	C1005.035156,111.215073 1005.035156,111.215073 1005.173096,114.574913 
	C1011.915649,111.962746 1018.567993,109.450600 1025.145752,106.756523 
	C1025.987549,106.411758 1026.984985,105.089188 1026.939697,104.273499 
	C1026.880127,103.201576 1026.107544,101.642761 1025.209839,101.228073 
	C1018.619202,98.183472 1011.920654,95.372414 1003.828857,91.870010 
	C1004.981995,94.334236 1005.527161,95.499344 1006.710876,96.942230 
M598.582153,109.884529 
	C593.936340,108.049515 589.290588,106.214493 583.728638,104.017616 
	C587.995850,102.081039 591.258057,100.578674 594.538208,99.116493 
	C601.398071,96.058533 601.401978,96.067238 600.824036,92.518578 
	C594.258057,95.380180 587.728027,98.145927 581.293030,101.117546 
	C580.332886,101.560944 579.273254,102.960762 579.253906,103.937767 
	C579.234863,104.900238 580.268860,106.394615 581.203308,106.782631 
	C587.732422,109.493797 594.355591,111.978378 600.948730,114.535492 
	C601.304565,114.174988 601.660400,113.814484 602.016235,113.453987 
	C601.106018,112.330627 600.195801,111.207268 598.582153,109.884529 
M559.626160,102.159584 
	C573.317078,96.219879 573.317078,96.219879 572.960327,92.471420 
	C566.214722,95.403297 559.515869,98.181892 552.943237,101.232613 
	C550.040649,102.579903 550.082642,105.306992 552.652893,106.477783 
	C559.312866,109.511536 566.258789,111.917618 573.090576,114.574257 
	C573.386536,114.004204 573.682495,113.434151 573.978455,112.864098 
	C569.750977,107.424545 561.932556,107.817062 556.421204,103.827164 
	C557.489319,103.261276 558.199402,102.885101 559.626160,102.159584 
M945.944214,111.282898 
	C945.944214,107.310532 945.944214,103.338158 945.944214,99.964317 
	C947.600708,98.607468 948.825256,97.604439 950.049866,96.601471 
	C948.753357,95.715935 947.456909,94.830399 946.037170,93.860680 
	C945.942566,92.075607 945.833374,90.015900 945.724243,87.956192 
	C945.315491,87.779236 944.906738,87.602272 944.497986,87.425308 
	C943.656860,88.723007 941.896057,90.242424 942.145569,91.277168 
	C942.919495,94.487694 939.218933,94.648544 939.097778,96.150223 
	C938.968628,97.750969 941.027832,99.467842 941.915161,101.242218 
	C942.247253,101.906151 941.970032,102.874962 941.970093,103.704758 
	C941.970276,107.023941 941.944214,110.343361 941.975830,113.662247 
	C942.039307,120.324127 943.948853,121.817955 951.006592,120.273254 
	C950.255859,119.129021 949.644836,117.313034 948.944885,117.278091 
	C945.109619,117.086586 946.116821,114.363014 945.944214,111.282898 
M810.123352,87.946556 
	C810.123352,98.878716 810.123352,109.810875 810.123352,120.854607 
	C811.687073,120.854607 812.808777,120.854607 814.077148,120.854607 
	C814.077148,109.251320 814.077148,97.820808 814.077148,85.645905 
	C812.583740,86.179398 811.374634,86.611328 810.123352,87.946556 
M672.775208,100.506699 
	C672.775085,96.693718 672.639465,92.874466 672.815918,89.069672 
	C672.967102,85.809296 671.494141,85.414787 668.785645,86.376785 
	C668.785645,97.798729 668.785645,109.216202 668.785645,120.700111 
	C671.390747,121.416389 672.961853,121.280815 672.831726,117.914581 
	C672.620483,112.451950 672.774963,106.975189 672.775208,100.506699 
M1104.361206,104.999229 
	C1107.315552,105.199745 1109.408936,104.748962 1107.394775,101.283661 
	C1103.572266,101.283661 1099.853394,101.283661 1096.134399,101.283661 
	C1095.902710,101.741814 1095.670898,102.199966 1095.439087,102.658112 
	C1096.622925,103.438393 1097.715088,104.538216 1099.015747,104.911293 
	C1100.382202,105.303246 1101.948364,104.999168 1104.361206,104.999229 
M1131.953735,104.422470 
	C1132.299072,102.165901 1132.053711,100.643082 1129.041626,100.939507 
	C1126.151245,101.223961 1123.210938,101.000954 1119.958984,101.000954 
	C1120.150879,102.653992 1120.285645,103.815239 1120.417847,104.955231 
	C1124.286743,104.955231 1127.736328,104.955231 1131.953735,104.422470 
M1151.429077,101.000740 
	C1149.950073,101.000847 1148.456665,101.133125 1146.994995,100.974472 
	C1143.593994,100.605354 1143.737061,102.412712 1144.320557,104.795807 
	C1148.271362,104.795807 1151.989990,104.795807 1155.653809,104.795807 
	C1157.015625,101.139999 1155.039185,100.745422 1151.429077,101.000740 
M1170.724976,100.996590 
	C1167.067627,100.768784 1167.833008,102.780815 1168.438110,104.725220 
	C1172.485474,104.725220 1176.206543,104.725220 1179.927612,104.725220 
	C1180.165283,104.273094 1180.403076,103.820976 1180.640869,103.368851 
	C1179.459473,102.578056 1178.369019,101.392166 1177.074219,101.093964 
	C1175.357056,100.698479 1173.480225,100.996330 1170.724976,100.996590 
M1083.950073,104.421875 
	C1084.295288,102.164162 1084.046875,100.643135 1081.036011,100.939484 
	C1078.145264,101.224022 1075.204468,101.000954 1071.952881,101.000954 
	C1072.145264,102.654533 1072.280518,103.816673 1072.413086,104.955276 
	C1076.282349,104.955276 1079.732544,104.955276 1083.950073,104.421875 
M524.581909,101.000801 
	C523.143555,101.000801 521.705261,101.000801 519.938721,101.000801 
	C520.122314,102.644936 520.252380,103.810150 520.367859,104.844048 
	C524.376587,104.844048 527.963623,104.844048 531.957275,104.844048 
	C531.895081,103.509796 531.841003,102.348839 531.778198,101.000748 
	C529.446289,101.000748 527.489990,101.000748 524.581909,101.000801 
M496.071075,104.403618 
	C499.916809,104.672752 503.762543,104.941879 508.002136,105.238579 
	C507.868774,103.439316 507.782562,102.276070 507.688141,101.002243 
	C504.363831,101.002243 501.392975,100.813904 498.472626,101.115303 
	C497.579437,101.207497 496.825073,102.644287 496.071075,104.403618 
M483.994995,102.534691 
	C480.157745,101.818336 476.320496,101.101982 471.931458,100.282616 
	C472.135529,102.594734 472.238312,103.758934 472.347778,104.999260 
	C474.533142,104.999260 476.365143,105.197548 478.133392,104.946526 
	C480.117310,104.664894 482.043579,103.977051 483.994995,102.534691 
M456.346252,101.000755 
	C453.601807,101.000755 450.857330,101.000755 446.828949,101.000755 
	C450.664795,107.598511 455.835022,103.580284 459.531494,105.206161 
	C459.861267,104.669022 460.191010,104.131882 460.520752,103.594742 
	C459.444977,102.730148 458.369171,101.865547 456.346252,101.000755 
z"/>
<path fill="#020202" opacity="1.000000" stroke="none" 
	d="
M1608.068237,104.000015 
	C1608.068237,124.477325 1608.068237,144.454636 1608.068237,164.717468 
	C1473.445557,164.717468 1339.039307,164.717468 1204.131714,164.717468 
	C1204.131714,144.763870 1204.131714,124.727470 1204.131714,103.993759 
	C1192.184448,109.925613 1180.890625,115.469978 1169.668823,121.156158 
	C1167.343750,122.334335 1165.687744,122.853615 1165.006226,119.144325 
	C1172.892578,115.169052 1180.924072,111.243187 1188.804077,107.033958 
	C1190.202026,106.287262 1191.802368,104.357399 1191.795532,102.981339 
	C1191.788696,101.603027 1190.172363,99.699081 1188.768311,98.949799 
	C1181.006958,94.808167 1173.095093,90.948929 1165.293823,87.022652 
	C1165.367432,83.043671 1167.171997,83.580704 1169.694946,84.863129 
	C1179.468872,89.831207 1189.306152,94.674217 1199.125488,99.552681 
	C1200.573730,100.272202 1202.051758,100.931801 1203.967651,101.831078 
	C1203.967651,81.400826 1203.967651,61.481846 1203.967651,41.280876 
	C1338.682617,41.280876 1473.083496,41.280876 1608.068237,41.280876 
	C1608.068237,61.982819 1608.068237,82.741417 1608.068237,104.000015 
M1519.500000,45.001514 
	C1415.747925,45.001514 1311.995728,45.001514 1208.349731,45.001514 
	C1208.349731,84.014648 1208.349731,122.414261 1208.349731,160.697205 
	C1340.402588,160.697205 1472.140503,160.697205 1603.750732,160.697205 
	C1603.750732,121.995399 1603.750732,83.595589 1603.750732,45.001514 
	C1575.793091,45.001514 1548.146484,45.001514 1519.500000,45.001514 
z"/>
<path fill="#000000" opacity="1.000000" stroke="none" 
	d="
M44.166710,164.999115 
	C39.720730,165.453766 41.048546,162.453644 41.044720,160.668182 
	C40.982620,131.668732 41.000751,102.669106 41.000751,73.669525 
	C41.000751,63.009430 41.000748,52.349331 41.000748,41.345146 
	C169.175201,41.345146 297.245850,41.345146 425.722961,41.345146 
	C425.722961,60.842632 425.722961,80.583183 425.722961,100.734756 
	C429.179657,100.734756 432.254333,100.734756 435.685089,100.734756 
	C435.791199,102.295341 435.871033,103.469490 435.966675,104.876343 
	C432.612305,104.876343 429.644226,104.876343 426.281799,104.876343 
	C426.281799,124.822784 426.281799,144.571014 426.281799,164.999252 
	C298.810120,164.999252 171.731140,164.999252 44.166710,164.999115 
M44.998058,149.482941 
	C44.998058,153.254456 44.998058,157.025970 44.998058,160.720520 
	C170.965973,160.720520 296.368958,160.720520 421.719421,160.720520 
	C421.719421,122.033531 421.719421,83.628616 421.719421,45.280575 
	C296.032867,45.280575 170.630035,45.280575 44.998058,45.280575 
	C44.998058,79.871422 44.998058,114.180244 44.998058,149.482941 
z"/>
<path fill="#141414" opacity="1.000000" stroke="none" 
	d="
M847.679321,114.778061 
	C847.684631,108.312088 847.686584,102.317139 847.704834,96.322243 
	C847.705811,96.009361 847.846008,95.696899 848.106995,94.614418 
	C849.574707,95.368423 850.871216,96.034462 852.855957,97.054062 
	C856.897034,94.169746 861.703186,93.566605 865.939087,98.735718 
	C867.236633,97.768433 868.321167,96.733032 869.594604,96.049973 
	C875.032837,93.133087 880.745239,96.216370 880.996948,102.383301 
	C881.241089,108.365158 881.049866,114.364792 881.049866,120.480629 
	C878.469421,121.550133 876.980713,121.372978 877.084290,118.037727 
	C877.223938,113.545853 877.076843,109.045853 877.130798,104.550270 
	C877.168640,101.396378 876.485352,98.707123 872.713013,98.632004 
	C869.242310,98.562874 866.841736,100.467842 866.669617,103.969376 
	C866.400635,109.440437 866.598389,114.934433 866.598389,120.418823 
	C863.532959,121.675079 862.337524,121.017075 862.431274,117.918770 
	C862.567139,113.427025 862.504333,108.926788 862.425720,104.431938 
	C862.377014,101.645256 861.949768,98.819489 858.377319,98.639557 
	C854.673340,98.452988 852.236816,100.421425 851.958191,104.152451 
	C851.611694,108.792389 851.854797,113.477333 851.480347,118.113541 
	C851.384705,119.298035 849.920715,120.372032 849.085327,121.496788 
	C848.616638,121.220970 848.147949,120.945145 847.679260,120.669319 
	C847.679260,118.862579 847.679260,117.055847 847.679321,114.778061 
z"/>
<path fill="#141414" opacity="1.000000" stroke="none" 
	d="
M776.941711,101.182877 
	C776.995728,107.915749 776.995728,114.241028 776.995728,120.792465 
	C775.764832,120.792465 774.647400,120.792465 773.111816,120.792465 
	C773.111816,115.260780 773.085999,109.787781 773.122192,104.315186 
	C773.141724,101.352402 772.444702,98.838730 768.963562,98.653389 
	C765.504211,98.469200 762.927429,100.193604 762.729004,103.721649 
	C762.412537,109.349274 762.644348,115.007736 762.644348,120.820724 
	C760.983459,120.820724 759.877991,120.820724 758.448975,120.820724 
	C758.448975,115.300400 758.499146,109.981827 758.429199,104.664841 
	C758.390320,101.706505 758.012146,98.687416 754.100708,98.629784 
	C750.353333,98.574570 748.137634,100.728386 747.905273,104.428642 
	C747.623718,108.911903 747.830444,113.428085 747.484497,117.903625 
	C747.388184,119.150040 746.084351,120.303108 745.334412,121.498985 
	C744.863831,121.254166 744.393311,121.009346 743.922729,120.764519 
	C743.922729,112.333710 743.922729,103.902901 743.922729,94.500801 
	C745.655029,95.477280 747.045105,96.260849 748.669739,97.176636 
	C754.779114,93.884033 757.123413,94.075867 761.871338,98.554459 
	C769.387939,93.080391 773.921509,93.750877 776.941711,101.182877 
z"/>
<path fill="#191919" opacity="1.000000" stroke="none" 
	d="
M652.660461,104.017357 
	C653.466431,107.294594 654.164490,110.170830 654.982849,113.542732 
	C659.736084,107.779892 657.213989,98.946945 663.442749,94.701744 
	C663.974365,94.939285 664.506042,95.176834 665.037720,95.414375 
	C662.663269,103.282135 660.397278,111.186096 657.796509,118.978302 
	C657.409851,120.136665 655.445679,120.768524 653.519226,122.134781 
	C651.739746,115.172493 650.272949,109.433678 648.806091,103.694862 
	C648.432190,103.620094 648.058289,103.545326 647.684326,103.470558 
	C646.162903,109.193626 644.641418,114.916695 643.130127,120.601601 
	C640.092041,121.749733 638.557312,120.968369 637.727966,117.720238 
	C635.838684,110.320786 633.565857,103.019279 631.419983,95.577713 
	C634.429138,94.063431 635.607361,95.215172 636.276978,98.140083 
	C637.408325,103.081604 638.863464,107.948975 640.182434,112.847519 
	C640.665344,112.881584 641.148254,112.915642 641.631226,112.949699 
	C642.849915,108.291328 643.904053,103.579895 645.379700,99.004379 
	C645.872620,97.475998 647.442871,96.295067 648.520630,94.955276 
	C649.461731,96.229408 650.632019,97.397942 651.281006,98.806648 
	C651.964478,100.290276 652.149658,102.003464 652.660461,104.017357 
z"/>
<path fill="#141414" opacity="1.000000" stroke="none" 
	d="
M965.039307,120.225502 
	C955.292358,116.161240 951.288086,107.255005 954.361511,97.260567 
	C956.774536,89.413788 964.645813,84.654907 972.640625,86.209114 
	C982.444702,88.115051 987.936890,97.234253 985.696777,107.887474 
	C983.667419,117.537735 975.534302,122.527756 965.039307,120.225502 
M968.696716,117.116539 
	C977.564026,116.880341 982.156860,111.774788 981.695618,102.666573 
	C981.263855,94.142288 976.251038,89.296356 968.493530,89.903931 
	C962.269470,90.391396 958.622375,94.492058 958.010742,101.690453 
	C957.276611,110.331802 960.401306,115.197495 968.696716,117.116539 
z"/>
<path fill="#141414" opacity="1.000000" stroke="none" 
	d="
M785.828857,94.982628 
	C786.782043,95.738525 787.309631,96.480278 787.845764,97.234116 
	C795.053040,94.188072 799.040344,94.629807 802.346741,98.873505 
	C806.008301,103.573044 805.895203,112.516762 802.115540,117.165604 
	C798.865479,121.162964 794.421997,121.759018 787.584656,118.709373 
	C787.584656,120.889374 787.584656,122.775848 787.584656,124.662323 
	C787.584656,126.643692 787.584656,128.625061 787.584656,130.815308 
	C786.153076,130.815308 785.052856,130.815308 783.673401,130.815308 
	C783.673401,119.513008 783.639587,108.371048 783.747681,97.230461 
	C783.755005,96.471199 784.826660,95.722244 785.828857,94.982628 
M800.858704,110.058578 
	C800.801758,108.247116 800.957214,106.397820 800.642639,104.632263 
	C800.032715,101.209702 798.049805,98.706749 794.416870,98.601379 
	C790.828003,98.497292 788.615845,100.765984 787.761963,104.165749 
	C787.365295,105.745110 787.177307,107.433548 787.237366,109.059875 
	C787.389038,113.166801 788.639954,116.844330 793.373230,117.329765 
	C797.799133,117.783684 799.895203,114.875214 800.858704,110.058578 
z"/>
<path fill="#121212" opacity="1.000000" stroke="none" 
	d="
M901.835571,116.266037 
	C904.089844,114.918480 904.156738,110.278831 908.057007,112.892776 
	C906.859924,118.726822 902.166992,121.865952 896.081909,120.909073 
	C888.993042,119.794357 885.245544,113.788284 886.446228,105.465881 
	C887.415588,98.746490 892.565186,94.377777 898.770325,95.010666 
	C905.404175,95.687271 909.094971,100.786255 908.545227,108.997940 
	C902.672546,108.997940 896.756409,108.997940 890.818542,108.997940 
	C891.364868,116.276131 894.689636,118.480804 901.835571,116.266037 
M890.796631,103.864807 
	C895.228882,107.645485 900.001221,104.798409 905.027771,104.446350 
	C903.292358,101.875114 901.358154,99.493210 898.924927,98.753906 
	C895.415710,97.687683 892.512817,99.539719 890.796631,103.864807 
z"/>
<path fill="#121212" opacity="1.000000" stroke="none" 
	d="
M827.881104,120.465942 
	C820.391113,117.122421 817.689209,109.636230 820.874023,101.915932 
	C823.251648,96.152580 829.491211,93.530861 835.334961,95.839882 
	C840.215820,97.768433 842.236572,101.457283 842.193237,108.795273 
	C836.298218,108.795273 830.384277,108.795273 824.274658,108.795273 
	C823.885254,112.994156 825.458008,115.664963 828.936768,116.911163 
	C832.474731,118.178543 835.332520,117.162590 837.525024,113.847061 
	C838.185486,112.848259 840.048584,112.644646 842.273193,111.681831 
	C839.471313,119.722572 836.003601,121.630569 827.881104,120.465942 
M831.494263,105.609253 
	C833.693665,105.609253 835.893127,105.609253 838.395691,105.609253 
	C837.453613,100.276642 834.792664,98.129463 830.564941,98.577568 
	C826.813416,98.975204 824.207520,100.966553 824.388428,105.609192 
	C826.629883,105.609192 828.612000,105.609192 831.494263,105.609253 
z"/>
<path fill="#1B1B1B" opacity="1.000000" stroke="none" 
	d="
M918.244873,114.788803 
	C918.244873,117.060852 918.244873,118.866348 918.244873,120.845024 
	C916.860596,120.845024 915.755981,120.845024 914.457092,120.845024 
	C914.457092,112.223480 914.457092,103.795502 914.457092,94.145760 
	C916.368103,95.448723 917.620422,96.302582 919.205566,97.383385 
	C919.944031,97.001534 921.338440,96.077896 922.867126,95.526047 
	C928.630493,93.445457 933.858154,96.745384 934.183777,102.780563 
	C934.407104,106.920563 934.239197,111.081711 934.244507,115.233406 
	C934.246826,117.043167 934.244934,118.852928 934.244934,120.850189 
	C932.877136,120.850189 931.769104,120.850189 930.254578,120.850189 
	C930.254578,115.385147 930.233948,110.094429 930.261963,104.803970 
	C930.280029,101.393600 929.145569,98.789803 925.340759,98.645645 
	C921.792419,98.511208 919.078552,100.096657 918.650940,103.890511 
	C918.262207,107.339195 918.361084,110.842842 918.244873,114.788803 
z"/>
<path fill="#181818" opacity="1.000000" stroke="none" 
	d="
M610.469482,118.682648 
	C603.928772,111.412521 604.876099,100.030060 612.011108,96.339409 
	C616.844177,93.839455 622.704285,94.814674 626.186890,98.698463 
	C629.624084,102.531578 630.227783,110.912376 627.408752,115.661026 
	C624.876160,119.927177 619.389465,122.018517 614.387085,120.525169 
	C613.132385,120.150612 611.971924,119.460487 610.469482,118.682648 
M612.973389,115.750877 
	C618.055176,118.351883 621.914917,117.545982 623.984131,113.451874 
	C626.398193,108.675217 624.950439,101.618889 621.118164,99.483719 
	C617.046692,97.215271 611.550781,99.122337 610.919067,103.806747 
	C610.425232,107.468010 611.826233,111.384819 612.973389,115.750877 
z"/>
<path fill="#161616" opacity="1.000000" stroke="none" 
	d="
M717.056824,100.211517 
	C722.308105,94.398064 728.379761,93.382904 733.600464,97.140694 
	C738.511963,100.675888 739.985962,110.115433 736.511475,115.782494 
	C733.557861,120.599762 726.906921,122.407867 721.543274,119.851608 
	C715.453613,116.949387 713.584534,109.220573 717.056824,100.211517 
M733.572510,103.396400 
	C732.104065,99.893867 729.492249,98.201050 725.700928,98.698395 
	C722.069214,99.174797 720.024780,101.537254 719.653320,105.010323 
	C719.393372,107.440514 719.017700,110.439507 720.153137,112.288017 
	C721.517578,114.509415 724.232483,116.699074 726.722107,117.235870 
	C730.070801,117.957909 732.890991,115.627495 733.603455,112.117844 
	C734.120361,109.571159 733.780273,106.850487 733.572510,103.396400 
z"/>
<path fill="#181818" opacity="1.000000" stroke="none" 
	d="
M711.958862,115.021469 
	C708.047974,120.673897 703.897949,122.213104 698.694580,120.224319 
	C693.293396,118.159920 690.830017,113.119713 691.664551,105.840775 
	C692.401794,99.410652 695.685913,95.782677 701.441528,95.040085 
	C706.531067,94.383430 710.095276,96.799408 711.791260,103.667740 
	C710.516846,103.079323 709.239258,102.497650 707.968689,101.901024 
	C705.766724,100.866982 703.228394,98.602287 701.456604,99.096443 
	C699.288879,99.701035 697.180115,102.346443 696.142639,104.611694 
	C695.267822,106.521904 695.218872,109.521713 696.144653,111.366653 
	C697.322998,113.715065 699.611328,116.513397 701.873840,116.996086 
	C703.723694,117.390747 706.259338,114.709389 708.445923,113.320900 
	C709.374939,112.731018 710.189148,111.960358 711.055542,111.271881 
	C711.402710,112.410233 711.749878,113.548561 711.958862,115.021469 
z"/>
<path fill="#181818" opacity="1.000000" stroke="none" 
	d="
M996.779236,86.403946 
	C998.953918,86.245407 1000.762024,86.245407 1002.570068,86.245407 
	C1002.882996,86.613251 1003.195984,86.981087 1003.508911,87.348930 
	C1002.437866,88.195175 1001.414490,89.683395 1000.286865,89.767059 
	C996.930115,90.016144 996.642822,91.900459 996.910217,94.737518 
	C998.460327,94.887886 999.885620,95.026146 1001.310913,95.164406 
	C1001.544922,95.637917 1001.778931,96.111427 1002.012878,96.584946 
	C1000.497864,97.538269 998.982788,98.491592 996.262390,100.203384 
	C996.262390,106.257355 996.276001,113.505013 996.142822,120.749969 
	C996.140686,120.867851 994.345215,120.952759 992.807251,121.113678 
	C992.807251,114.896591 992.834045,108.981422 992.792480,103.066750 
	C992.778320,101.056526 993.609131,98.525551 990.140625,98.290123 
	C989.767273,98.264778 989.060303,96.581978 989.213806,96.442001 
	C990.166138,95.573677 991.320129,94.926460 991.612488,93.779953 
	C993.212524,91.374130 994.812561,88.968307 996.779236,86.403946 
z"/>
<path fill="#141414" opacity="1.000000" stroke="none" 
	d="
M1033.299683,110.964203 
	C1038.825439,108.685097 1044.070068,106.600273 1049.681030,104.369766 
	C1044.760254,99.425438 1036.156860,100.120369 1032.266357,94.060646 
	C1032.577148,93.526680 1032.887817,92.992714 1033.198608,92.458748 
	C1040.097412,95.467239 1047.145142,98.187454 1053.818115,101.633331 
	C1056.310181,102.920250 1055.927612,105.671188 1052.948364,106.874496 
	C1046.499634,109.479187 1039.993408,111.941841 1033.018433,114.654007 
	C1033.018433,113.208893 1033.018433,112.183685 1033.299683,110.964203 
z"/>
<path fill="#141414" opacity="1.000000" stroke="none" 
	d="
M1006.391602,96.803345 
	C1005.527161,95.499344 1004.981995,94.334236 1003.828857,91.870010 
	C1011.920654,95.372414 1018.619202,98.183472 1025.209839,101.228073 
	C1026.107544,101.642761 1026.880127,103.201576 1026.939697,104.273499 
	C1026.984985,105.089188 1025.987549,106.411758 1025.145752,106.756523 
	C1018.567993,109.450600 1011.915649,111.962746 1005.173096,114.574913 
	C1005.035156,111.215073 1005.035156,111.215073 1022.503052,103.975616 
	C1016.734741,101.406578 1011.722839,99.174408 1006.391602,96.803345 
z"/>
<path fill="#181818" opacity="1.000000" stroke="none" 
	d="
M598.933838,109.984222 
	C600.195801,111.207268 601.106018,112.330627 602.016235,113.453987 
	C601.660400,113.814484 601.304565,114.174988 600.948730,114.535492 
	C594.355591,111.978378 587.732422,109.493797 581.203308,106.782631 
	C580.268860,106.394615 579.234863,104.900238 579.253906,103.937767 
	C579.273254,102.960762 580.332886,101.560944 581.293030,101.117546 
	C587.728027,98.145927 594.258057,95.380180 600.824036,92.518578 
	C601.401978,96.067238 601.398071,96.058533 594.538208,99.116493 
	C591.258057,100.578674 587.995850,102.081039 583.728638,104.017616 
	C589.290588,106.214493 593.936340,108.049515 598.933838,109.984222 
z"/>
<path fill="#181818" opacity="1.000000" stroke="none" 
	d="
M559.267822,102.334251 
	C558.199402,102.885101 557.489319,103.261276 556.421204,103.827164 
	C561.932556,107.817062 569.750977,107.424545 573.978455,112.864098 
	C573.682495,113.434151 573.386536,114.004204 573.090576,114.574257 
	C566.258789,111.917618 559.312866,109.511536 552.652893,106.477783 
	C550.082642,105.306992 550.040649,102.579903 552.943237,101.232613 
	C559.515869,98.181892 566.214722,95.403297 572.960327,92.471420 
	C573.317078,96.219879 573.317078,96.219879 559.267822,102.334251 
z"/>
<path fill="#191919" opacity="1.000000" stroke="none" 
	d="
M945.944275,111.748428 
	C946.116821,114.363014 945.109619,117.086586 948.944885,117.278091 
	C949.644836,117.313034 950.255859,119.129021 951.006592,120.273254 
	C943.948853,121.817955 942.039307,120.324127 941.975830,113.662247 
	C941.944214,110.343361 941.970276,107.023941 941.970093,103.704758 
	C941.970032,102.874962 942.247253,101.906151 941.915161,101.242218 
	C941.027832,99.467842 938.968628,97.750969 939.097778,96.150223 
	C939.218933,94.648544 942.919495,94.487694 942.145569,91.277168 
	C941.896057,90.242424 943.656860,88.723007 944.497986,87.425308 
	C944.906738,87.602272 945.315491,87.779236 945.724243,87.956192 
	C945.833374,90.015900 945.942566,92.075607 946.037170,93.860680 
	C947.456909,94.830399 948.753357,95.715935 950.049805,96.601440 
	C948.825256,97.604439 947.600708,98.607468 945.944214,99.964317 
	C945.944214,103.338158 945.944214,107.310532 945.944275,111.748428 
z"/>
<path fill="#141414" opacity="1.000000" stroke="none" 
	d="
M810.144470,87.494904 
	C811.374634,86.611328 812.583740,86.179398 814.077148,85.645905 
	C814.077148,97.820808 814.077148,109.251320 814.077148,120.854607 
	C812.808777,120.854607 811.687073,120.854607 810.123352,120.854607 
	C810.123352,109.810875 810.123352,98.878716 810.144470,87.494904 
z"/>
<path fill="#191919" opacity="1.000000" stroke="none" 
	d="
M672.775146,101.005539 
	C672.774963,106.975189 672.620483,112.451950 672.831726,117.914581 
	C672.961853,121.280815 671.390747,121.416389 668.785645,120.700111 
	C668.785645,109.216202 668.785645,97.798729 668.785645,86.376785 
	C671.494141,85.414787 672.967102,85.809296 672.815918,89.069672 
	C672.639465,92.874466 672.775085,96.693718 672.775146,101.005539 
z"/>
<path fill="#000000" opacity="1.000000" stroke="none" 
	d="
M1103.894287,104.999245 
	C1101.948364,104.999168 1100.382202,105.303246 1099.015747,104.911293 
	C1097.715088,104.538216 1096.622925,103.438393 1095.439087,102.658112 
	C1095.670898,102.199966 1095.902710,101.741814 1096.134399,101.283661 
	C1099.853394,101.283661 1103.572266,101.283661 1107.394775,101.283661 
	C1109.408936,104.748962 1107.315552,105.199745 1103.894287,104.999245 
z"/>
<path fill="#000000" opacity="1.000000" stroke="none" 
	d="
M1131.569824,104.688850 
	C1127.736328,104.955231 1124.286743,104.955231 1120.417847,104.955231 
	C1120.285645,103.815239 1120.150879,102.653992 1119.958984,101.000954 
	C1123.210938,101.000954 1126.151245,101.223961 1129.041626,100.939507 
	C1132.053711,100.643082 1132.299072,102.165901 1131.569824,104.688850 
z"/>
<path fill="#000000" opacity="1.000000" stroke="none" 
	d="
M1151.896484,101.000748 
	C1155.039185,100.745422 1157.015625,101.139999 1155.653809,104.795807 
	C1151.989990,104.795807 1148.271362,104.795807 1144.320557,104.795807 
	C1143.737061,102.412712 1143.593994,100.605354 1146.994995,100.974472 
	C1148.456665,101.133125 1149.950073,101.000847 1151.896484,101.000748 
z"/>
<path fill="#020202" opacity="1.000000" stroke="none" 
	d="
M1171.198486,100.996429 
	C1173.480225,100.996330 1175.357056,100.698479 1177.074219,101.093964 
	C1178.369019,101.392166 1179.459473,102.578056 1180.640869,103.368851 
	C1180.403076,103.820976 1180.165283,104.273094 1179.927612,104.725220 
	C1176.206543,104.725220 1172.485474,104.725220 1168.438110,104.725220 
	C1167.833008,102.780815 1167.067627,100.768784 1171.198486,100.996429 
z"/>
<path fill="#000000" opacity="1.000000" stroke="none" 
	d="
M1083.566406,104.688576 
	C1079.732544,104.955276 1076.282349,104.955276 1072.413086,104.955276 
	C1072.280518,103.816673 1072.145264,102.654533 1071.952881,101.000954 
	C1075.204468,101.000954 1078.145264,101.224022 1081.036011,100.939484 
	C1084.046875,100.643135 1084.295288,102.164162 1083.566406,104.688576 
z"/>
<path fill="#000000" opacity="1.000000" stroke="none" 
	d="
M525.057861,101.000778 
	C527.489990,101.000748 529.446289,101.000748 531.778198,101.000748 
	C531.841003,102.348839 531.895081,103.509796 531.957275,104.844048 
	C527.963623,104.844048 524.376587,104.844048 520.367859,104.844048 
	C520.252380,103.810150 520.122314,102.644936 519.938721,101.000801 
	C521.705261,101.000801 523.143555,101.000801 525.057861,101.000778 
z"/>
<path fill="#000000" opacity="1.000000" stroke="none" 
	d="
M496.039093,103.934464 
	C496.825073,102.644287 497.579437,101.207497 498.472626,101.115303 
	C501.392975,100.813904 504.363831,101.002243 507.688141,101.002243 
	C507.782562,102.276070 507.868774,103.439316 508.002136,105.238579 
	C503.762543,104.941879 499.916809,104.672752 496.039093,103.934464 
z"/>
<path fill="#000000" opacity="1.000000" stroke="none" 
	d="
M483.994965,103.000320 
	C482.043579,103.977051 480.117310,104.664894 478.133392,104.946526 
	C476.365143,105.197548 474.533142,104.999260 472.347778,104.999260 
	C472.238312,103.758934 472.135529,102.594734 471.931458,100.282616 
	C476.320496,101.101982 480.157745,101.818336 483.994965,103.000320 
z"/>
<path fill="#000000" opacity="1.000000" stroke="none" 
	d="
M456.819824,101.000854 
	C458.369171,101.865547 459.444977,102.730148 460.520752,103.594742 
	C460.191010,104.131882 459.861267,104.669022 459.531494,105.206161 
	C455.835022,103.580284 450.664795,107.598511 446.828949,101.000755 
	C450.857330,101.000755 453.601807,101.000755 456.819824,101.000854 
z"/>
<path fill="#FDFDFD" opacity="1.000000" stroke="none" 
	d="
M1520.000000,45.001514 
	C1548.146484,45.001514 1575.793091,45.001514 1603.750732,45.001514 
	C1603.750732,83.595589 1603.750732,121.995399 1603.750732,160.697205 
	C1472.140503,160.697205 1340.402588,160.697205 1208.349731,160.697205 
	C1208.349731,122.414261 1208.349731,84.014648 1208.349731,45.001514 
	C1311.995728,45.001514 1415.747925,45.001514 1520.000000,45.001514 
M1320.954590,86.679756 
	C1320.844116,82.233772 1320.844116,82.233772 1316.684448,82.451508 
	C1316.684448,90.797058 1316.684448,99.183891 1316.684448,107.570724 
	C1314.801636,106.576187 1313.896362,105.289337 1313.030640,103.976463 
	C1308.812866,97.580353 1304.735107,91.085426 1300.304688,84.840500 
	C1299.182373,83.258400 1296.947876,82.465202 1294.440186,80.783592 
	C1294.440186,93.952103 1294.440186,105.370140 1294.440186,116.980667 
	C1295.846191,116.909149 1296.952881,116.852859 1298.653809,116.766335 
	C1298.653809,108.237053 1298.653809,99.909782 1298.653809,91.582512 
	C1304.687256,98.914917 1309.590576,106.562965 1314.784790,114.008118 
	C1315.915527,115.629013 1318.087769,116.523354 1319.780396,117.752304 
	C1320.171753,117.361710 1320.563232,116.971115 1320.954590,116.580521 
	C1320.954590,106.936630 1320.954590,97.292740 1320.954590,86.679756 
M1463.108887,100.719566 
	C1463.153931,97.144516 1463.077515,93.639374 1459.169312,91.790070 
	C1454.674194,89.663139 1451.255005,91.915283 1448.112915,94.685051 
	C1443.078003,90.041611 1440.750000,89.871971 1434.658447,93.240334 
	C1433.099243,92.303909 1431.727539,91.480141 1429.925293,90.397758 
	C1429.925293,99.858589 1429.925293,108.288223 1429.925293,116.717850 
	C1430.374023,116.976738 1430.822754,117.235626 1431.271362,117.494514 
	C1432.069702,116.338783 1433.465820,115.229729 1433.560425,114.018990 
	C1433.922241,109.384636 1433.682129,104.704002 1434.025879,100.067261 
	C1434.282471,96.602989 1436.542969,94.650070 1440.032227,94.640854 
	C1443.950195,94.630501 1444.420532,97.575294 1444.480225,100.547562 
	C1444.570435,105.038620 1444.609009,109.535156 1444.488403,114.024506 
	C1444.402344,117.231155 1445.699341,117.689438 1448.687134,116.227097 
	C1448.687134,110.837883 1448.483521,105.348328 1448.760254,99.883087 
	C1448.938843,96.355553 1451.404663,94.562149 1454.866699,94.656197 
	C1458.325073,94.750145 1459.181641,97.166939 1459.161865,100.171974 
	C1459.130981,104.831009 1458.994507,109.500191 1459.274292,114.142693 
	C1459.342651,115.278175 1460.852417,116.326805 1461.699341,117.415375 
	C1462.169189,117.127541 1462.639038,116.839706 1463.108887,116.551872 
	C1463.108887,111.590279 1463.108887,106.628677 1463.108887,100.719566 
M1417.053833,115.925240 
	C1421.434937,114.016083 1424.180908,110.843933 1423.700195,105.900513 
	C1423.229858,101.063194 1419.677612,98.963051 1415.373169,97.818985 
	C1412.013184,96.925896 1408.572510,96.219582 1405.346069,94.969788 
	C1401.402832,93.442360 1401.030029,89.677124 1404.337158,87.315460 
	C1408.172485,84.576622 1415.316528,86.007095 1418.116821,89.794182 
	C1418.953247,90.925400 1420.662109,91.411568 1422.917358,92.758270 
	C1420.893311,84.040344 1414.696167,80.555161 1406.842041,82.276657 
	C1401.352173,83.479942 1398.151489,86.597336 1398.050293,91.007904 
	C1397.926758,96.392273 1401.651245,98.494453 1405.987305,99.866188 
	C1409.299805,100.914139 1412.831543,101.388870 1415.988770,102.757469 
	C1417.527466,103.424393 1419.432617,105.595177 1419.370117,107.005302 
	C1419.293823,108.720909 1417.686890,110.995041 1416.099121,111.902725 
	C1410.770508,114.948738 1403.988159,112.574448 1401.154663,107.384735 
	C1400.540161,106.258949 1398.870972,105.708969 1396.807373,104.287590 
	C1398.108765,114.956352 1405.720947,118.942101 1417.053833,115.925240 
M1500.297974,113.190865 
	C1500.617310,109.974731 1498.987915,106.049446 1503.290771,104.330513 
	C1508.420776,107.675240 1507.692993,116.770317 1516.760986,117.151962 
	C1513.005615,111.134811 1509.711304,105.856239 1505.409546,98.963623 
	C1508.717896,96.565033 1512.003906,94.182716 1516.073608,91.232231 
	C1507.302002,89.963303 1506.241699,98.641647 1500.229248,100.442917 
	C1500.229248,94.120728 1500.229248,88.190239 1500.229248,82.259750 
	C1499.793335,81.978783 1499.357422,81.697823 1498.921509,81.416855 
	C1498.055542,82.426338 1496.454224,83.423302 1496.436890,84.447235 
	C1496.253662,95.205879 1496.323486,105.968834 1496.323486,116.730598 
	C1496.873413,116.987465 1497.423462,117.244339 1497.973389,117.501205 
	C1498.748291,116.355774 1499.523071,115.210350 1500.297974,113.190865 
M1541.312500,100.237633 
	C1539.165039,93.375824 1534.462280,90.012947 1528.553833,91.114105 
	C1522.135864,92.310219 1518.678467,97.495979 1519.032593,105.394852 
	C1519.333618,112.108574 1523.387207,116.509415 1529.731079,117.009575 
	C1535.499756,117.464386 1539.510620,114.555908 1541.205933,107.398750 
	C1539.022217,108.624298 1537.349976,109.029373 1536.593872,110.088440 
	C1534.438965,113.107475 1531.723877,114.077591 1528.351440,112.968063 
	C1524.755615,111.785049 1523.299683,109.075623 1523.473389,104.899796 
	C1529.596313,104.899796 1535.513550,104.899796 1541.630737,104.899796 
	C1541.554199,103.311455 1541.499390,102.174332 1541.312500,100.237633 
M1236.571777,92.171005 
	C1233.989502,95.890213 1232.355469,88.612373 1229.954346,91.448677 
	C1229.954346,99.987656 1229.954346,108.382637 1229.954346,116.777626 
	C1230.427002,117.023636 1230.899658,117.269638 1231.372314,117.515648 
	C1232.132812,116.323257 1233.458740,115.173042 1233.551392,113.930847 
	C1233.871826,109.634987 1233.672485,105.303490 1233.843506,100.992401 
	C1234.010742,96.773560 1236.466797,94.558876 1240.580200,94.641365 
	C1244.703857,94.724037 1245.684204,97.668457 1245.682007,101.187050 
	C1245.678833,106.327019 1245.681152,111.466988 1245.681152,116.971161 
	C1247.125977,116.862869 1248.304321,116.774551 1249.655518,116.673279 
	C1249.655518,111.117744 1249.703491,105.979225 1249.644531,100.841927 
	C1249.548828,92.505615 1245.446045,89.527702 1236.571777,92.171005 
M1567.528809,91.690430 
	C1564.069702,92.704422 1561.531616,95.182961 1562.458252,98.549217 
	C1563.116821,100.941795 1565.883301,102.935463 1568.064941,104.655563 
	C1569.264160,105.601028 1571.219727,105.551483 1572.799316,106.059029 
	C1575.058838,106.785042 1578.711670,107.017326 1577.396973,110.329765 
	C1576.760986,111.932762 1573.166748,112.951950 1570.845215,113.086693 
	C1569.320557,113.175186 1567.714111,111.146477 1566.073975,110.185890 
	C1564.883911,109.488922 1563.578613,108.988586 1562.324585,108.400574 
	C1564.475586,116.878914 1572.833984,119.639824 1578.708618,114.891258 
	C1580.395142,113.528046 1581.891724,110.624016 1581.690674,108.604118 
	C1581.495605,106.643036 1579.336304,104.375916 1577.443359,103.216888 
	C1575.259766,101.879921 1572.315308,101.852493 1569.911133,100.784065 
	C1568.468750,100.143044 1567.427368,98.599434 1566.205688,97.461555 
	C1567.770996,96.500465 1569.336792,94.774963 1570.901611,94.775833 
	C1572.769043,94.776871 1574.643311,96.240280 1576.500000,97.101372 
	C1577.736328,97.674767 1578.947266,98.302719 1581.160645,99.395660 
	C1578.859009,91.924965 1575.837891,90.369308 1567.528809,91.690430 
M1255.690308,96.239220 
	C1256.616943,98.668404 1256.936646,101.740250 1258.638916,103.348137 
	C1260.379761,104.992317 1263.488403,105.167725 1265.976318,106.047905 
	C1268.183350,106.828728 1271.896240,106.964775 1270.545044,110.317314 
	C1269.894897,111.930359 1266.346069,112.961998 1264.035522,113.112167 
	C1262.502930,113.211769 1260.860229,111.245331 1259.225830,110.272774 
	C1258.025879,109.558784 1256.759521,108.956711 1255.522705,108.304741 
	C1257.526978,116.908928 1266.303467,119.735817 1272.083008,114.715416 
	C1273.703735,113.307632 1275.044312,110.327919 1274.753418,108.324821 
	C1274.470337,106.376297 1272.203125,104.334015 1270.305908,103.110214 
	C1268.436890,101.904617 1265.800537,101.950363 1263.760010,100.929268 
	C1262.101807,100.099426 1260.827026,98.503220 1259.382202,97.246933 
	C1261.333008,96.357979 1263.246582,94.902061 1265.247192,94.770866 
	C1266.682983,94.676704 1268.201904,96.416328 1269.745483,97.219498 
	C1270.932861,97.837219 1272.216187,98.270576 1274.089722,99.048805 
	C1273.292725,93.397156 1270.311157,91.742256 1266.684448,91.189667 
	C1262.356812,90.530258 1258.373169,91.259682 1255.690308,96.239220 
M1477.089233,116.773582 
	C1484.610718,117.351845 1489.380493,114.396317 1490.817505,108.267036 
	C1492.530762,100.958656 1489.983398,94.382645 1484.517822,92.004509 
	C1478.569092,89.416168 1471.803467,91.849976 1469.323853,97.469910 
	C1465.892212,105.248085 1468.905762,113.430428 1477.089233,116.773582 
M1339.258301,90.982811 
	C1337.317871,91.333794 1335.245728,91.364693 1333.462402,92.097809 
	C1328.744141,94.037506 1327.022339,98.036926 1326.839111,102.869202 
	C1326.639771,108.126091 1327.606567,112.931862 1332.742188,115.644516 
	C1337.108521,117.950821 1341.514160,117.510872 1345.427246,114.619392 
	C1350.033813,111.215462 1350.327759,106.141991 1349.685669,101.062485 
	C1348.980591,95.484276 1345.600708,92.160744 1339.258301,90.982811 
M1364.931519,91.098587 
	C1363.028442,91.949120 1361.125366,92.799644 1360.518677,93.070808 
	C1358.322388,92.042259 1357.027954,91.436104 1355.125122,90.544998 
	C1355.125122,99.180832 1355.178101,106.663422 1355.101562,114.144691 
	C1355.066284,117.604813 1356.683594,117.463203 1359.486938,116.265091 
	C1359.486938,110.720604 1359.199463,105.219421 1359.585571,99.765945 
	C1359.853760,95.978546 1362.825806,94.471512 1366.381470,94.671608 
	C1369.902832,94.869774 1371.121460,97.257446 1371.112793,100.508202 
	C1371.100708,105.002861 1371.211548,109.500015 1371.094116,113.991508 
	C1371.009521,117.223953 1372.378662,117.617073 1375.124878,116.469902 
	C1375.124878,111.010849 1375.169678,105.697762 1375.113647,100.385742 
	C1375.042114,93.613220 1372.848633,91.455719 1364.931519,91.098587 
M1547.185791,115.926529 
	C1548.367065,116.349159 1549.548340,116.771790 1551.213379,117.367462 
	C1551.213379,111.510628 1550.988892,106.505295 1551.286743,101.531265 
	C1551.511963,97.771790 1552.212036,93.967705 1557.708618,94.810738 
	C1558.498901,94.931946 1559.497681,93.693214 1560.400024,93.083847 
	C1560.263550,92.711998 1560.127197,92.340157 1559.990845,91.968307 
	C1555.817871,91.968307 1551.645020,91.968307 1547.141724,91.968307 
	C1547.141724,99.388115 1547.141724,107.206284 1547.185791,115.926529 
M1383.685791,101.968262 
	C1380.266724,102.363251 1380.266724,102.363251 1380.548950,105.835999 
	C1384.454346,105.835999 1388.374146,105.835999 1392.293823,105.835999 
	C1392.596802,105.451424 1392.899780,105.066841 1393.202759,104.682266 
	C1392.162964,103.777664 1391.248535,102.396385 1390.053589,102.082466 
	C1388.347778,101.634338 1386.436401,101.968071 1383.685791,101.968262 
M1284.273804,97.053642 
	C1285.022949,95.563667 1285.772095,94.073692 1286.521240,92.583717 
	C1286.046997,92.209412 1285.572876,91.835098 1285.098633,91.460793 
	C1283.895996,92.139618 1282.028442,92.589111 1281.691406,93.566414 
	C1281.396729,94.420975 1282.823608,95.869240 1284.273804,97.053642 
M1286.072021,116.045631 
	C1286.570068,112.611824 1285.598755,110.886742 1281.681396,112.443634 
	C1281.681396,113.839737 1281.681396,115.270996 1281.681396,117.050346 
	C1283.197754,116.939369 1284.478027,116.845673 1286.072021,116.045631 
z"/>
<path fill="#FEFEFE" opacity="1.000000" stroke="none" 
	d="
M44.998058,148.986008 
	C44.998058,114.180244 44.998058,79.871422 44.998058,45.280575 
	C170.630035,45.280575 296.032867,45.280575 421.719421,45.280575 
	C421.719421,83.628616 421.719421,122.033531 421.719421,160.720520 
	C296.368958,160.720520 170.965973,160.720520 44.998058,160.720520 
	C44.998058,157.025970 44.998058,153.254456 44.998058,148.986008 
M203.646149,95.843201 
	C203.646149,102.800110 203.646149,109.757019 203.646149,116.713936 
	C204.144989,116.979874 204.643829,117.245811 205.142685,117.511749 
	C205.955246,116.365089 207.376190,115.267151 207.472610,114.063133 
	C207.843964,109.426521 207.622086,104.743904 207.952835,100.102058 
	C208.200485,96.626312 210.438156,94.650787 213.925980,94.634628 
	C217.817047,94.616592 218.345917,97.509598 218.387329,100.525238 
	C218.449066,105.020576 218.509048,109.519829 218.387283,114.012466 
	C218.300644,117.209526 219.622314,117.666290 222.593933,116.409393 
	C222.593933,110.882179 222.384857,105.387047 222.669266,99.917580 
	C222.851242,96.418282 225.280731,94.555313 228.758652,94.647453 
	C232.188629,94.738312 233.117599,97.103798 233.091110,100.140343 
	C233.050430,104.802681 233.158737,109.467278 233.059753,114.127853 
	C232.986481,117.577301 234.590805,117.470070 237.047333,116.410866 
	C237.047333,110.701927 237.048004,105.212135 237.046234,99.722336 
	C237.046066,99.222885 237.060440,98.720802 237.017059,98.224396 
	C236.492615,92.225304 231.314819,89.243332 225.904510,91.913155 
	C224.469025,92.621513 223.224045,93.715866 221.909927,94.620369 
	C217.137787,90.067642 214.736618,89.869354 208.695694,93.143738 
	C207.128143,92.305603 205.898743,91.648270 204.669342,90.990936 
	C204.328293,92.305931 203.987228,93.620934 203.646149,95.843201 
M186.246292,112.954811 
	C181.110001,113.084816 176.628265,112.245468 174.769669,106.397095 
	C174.536407,105.663116 172.402115,105.533272 170.802063,105.010223 
	C171.990616,114.484306 179.954285,119.024193 189.210358,116.403465 
	C194.616714,114.872726 197.873672,111.279709 197.702728,106.722542 
	C197.509430,101.569344 194.121964,99.173271 189.608643,97.904572 
	C186.099747,96.918213 182.496689,96.180260 179.116974,94.865395 
	C177.839752,94.368484 176.371964,92.619652 176.266739,91.336861 
	C176.159317,90.027451 177.294113,88.160225 178.450989,87.286819 
	C182.216919,84.443626 189.284729,86.120827 192.118042,89.945084 
	C192.921906,91.030075 194.682770,91.406029 196.486221,92.362503 
	C196.465820,83.582336 185.968185,80.057732 178.227829,83.011261 
	C174.496780,84.434944 172.107132,87.003311 171.995667,91.173393 
	C171.887360,95.225250 174.192307,97.731323 177.761673,99.020508 
	C180.869110,100.142853 184.308960,100.491119 187.232101,101.931808 
	C189.629868,103.113571 192.873749,105.137482 193.271439,107.252693 
	C193.966400,110.949089 190.376801,112.295670 186.246292,112.954811 
M271.478363,117.011169 
	C274.904388,117.605667 274.082275,115.139496 274.225922,113.276932 
	C274.477661,110.013916 272.897034,106.093109 277.105957,104.297508 
	C282.459015,107.465027 281.417847,116.939026 290.702393,117.178032 
	C286.958496,111.218330 283.634277,105.926712 279.468048,99.294800 
	C282.715271,96.768867 285.970947,94.236336 289.918060,91.165932 
	C281.349915,89.994675 280.114777,98.421860 274.277985,100.499947 
	C274.277985,94.209259 274.277985,88.268333 274.277985,82.327415 
	C273.881775,82.011925 273.485565,81.696442 273.089355,81.380959 
	C272.145020,82.356186 270.387085,83.326500 270.381134,84.307411 
	C270.315857,95.104942 270.523132,105.904137 271.478363,117.011169 
M302.879761,116.933655 
	C310.107666,116.972778 312.843262,115.202843 315.388428,107.633171 
	C313.133179,108.658913 311.343170,108.894081 310.664490,109.888062 
	C308.441986,113.143143 305.587341,114.199074 302.045074,112.916267 
	C298.560944,111.654533 297.083527,108.931145 297.387451,104.794685 
	C303.537201,104.794685 309.470795,104.794685 315.386536,104.794685 
	C315.350098,97.160522 313.252472,93.524590 308.017181,91.685234 
	C303.220947,90.000137 299.075836,91.245743 295.833496,94.952477 
	C289.571564,102.111244 292.895142,113.516937 302.879761,116.933655 
M122.924576,97.129776 
	C123.291412,103.689011 123.658257,110.248238 124.025093,116.807472 
	C124.436760,117.065231 124.848434,117.322998 125.260101,117.580757 
	C126.034882,116.514542 127.429619,115.475998 127.478661,114.377388 
	C127.708588,109.226250 127.774956,104.047829 127.506920,98.899597 
	C127.185158,92.719566 122.066650,89.459724 116.237251,91.497971 
	C114.843628,91.985275 113.564766,92.800827 112.640747,93.261978 
	C111.105904,92.330055 109.712318,91.483910 107.839371,90.346703 
	C107.839371,99.837997 107.839371,108.277657 107.839371,116.717316 
	C108.275505,116.983673 108.711647,117.250038 109.147781,117.516403 
	C109.960548,116.368034 111.379868,115.268005 111.475937,114.062523 
	C111.805725,109.924324 111.459961,105.733643 111.763382,101.591660 
	C112.249313,94.958084 116.547829,92.936737 122.924576,97.129776 
M145.725647,91.401649 
	C143.595978,91.398315 141.000259,90.626060 139.444260,91.569191 
	C137.019699,93.038780 134.264694,95.372086 133.534943,97.886513 
	C132.533020,101.338745 135.502518,103.544655 138.786606,104.592949 
	C140.675644,105.195938 142.784668,105.325760 144.484787,106.242966 
	C146.140121,107.136017 147.400421,108.761330 148.834167,110.065132 
	C147.004196,111.192360 145.147614,113.254105 143.351196,113.202942 
	C141.252350,113.143158 139.217682,111.217072 137.132431,110.144913 
	C135.905182,109.513901 134.633759,108.968781 132.232925,107.848969 
	C135.523590,116.705902 143.228943,119.519165 149.292206,115.173126 
	C151.142212,113.847092 152.895630,110.785400 152.716141,108.687790 
	C152.543274,106.667450 150.104507,104.441498 148.125198,103.092392 
	C146.301819,101.849571 143.617279,101.941948 141.590652,100.902863 
	C139.962479,100.068069 138.751007,98.420532 137.354630,97.133636 
	C139.164459,96.277435 140.974503,94.759720 142.784073,94.760246 
	C144.431046,94.760719 146.043747,96.478882 147.735703,97.309196 
	C148.932236,97.896400 150.235779,98.265594 151.491547,98.732101 
	C151.837402,98.041336 152.183273,97.350571 152.529129,96.659805 
	C150.509109,95.009125 148.489075,93.358444 145.725647,91.401649 
M341.913391,104.757591 
	C343.513458,105.186623 345.133850,105.552498 346.708679,106.059792 
	C348.953430,106.782875 352.613434,106.964317 351.346710,110.277939 
	C350.731750,111.886581 347.141968,113.053352 344.871338,113.100777 
	C343.228577,113.135086 341.593658,110.908600 339.853333,109.859306 
	C338.736237,109.185760 337.434174,108.819084 335.261963,107.920692 
	C338.284119,117.069290 347.539734,119.686218 353.351379,114.512642 
	C357.383911,110.922836 356.578491,105.248611 351.621124,103.194420 
	C349.339417,102.248932 346.748474,102.003571 344.543579,100.933937 
	C342.874329,100.124161 341.594666,98.511223 340.141632,97.255707 
	C342.084656,96.366646 343.988983,94.914642 345.983673,94.777550 
	C347.420959,94.678757 348.952423,96.381676 350.491119,97.186867 
	C351.694275,97.816498 352.973022,98.301636 355.166840,99.269485 
	C352.830994,92.442574 347.930359,89.485466 342.670593,91.448158 
	C340.121277,92.399437 337.306702,94.975006 336.415192,97.461601 
	C335.214355,100.810951 337.815918,103.299271 341.913391,104.757591 
M255.938324,91.168152 
	C248.338623,90.730324 243.922821,93.611008 242.436432,99.976219 
	C240.818192,106.906052 243.350037,113.562416 248.499481,115.916206 
	C254.539749,118.677185 261.604462,116.132294 264.057312,110.311874 
	C267.399933,102.380104 264.345032,94.512947 255.938324,91.168152 
M327.462708,91.854149 
	C325.419769,91.670326 323.376831,91.486504 321.069214,91.278862 
	C321.069214,99.019371 321.151917,106.472115 321.029755,113.921501 
	C320.978699,117.035889 322.242371,117.535332 325.176666,116.570496 
	C325.176666,111.303825 324.956085,106.172592 325.251282,101.071213 
	C325.461395,97.439316 326.402039,94.010681 331.520447,94.780937 
	C332.322479,94.901634 333.351318,93.515404 334.275269,92.825958 
	C334.094269,92.367065 333.913269,91.908180 333.732269,91.449287 
	C331.876343,91.449287 330.020447,91.449287 327.462708,91.854149 
M161.445511,111.942688 
	C160.600388,113.386848 159.755264,114.831001 158.435959,117.085419 
	C161.262177,116.958824 162.539108,116.901627 165.023773,116.790329 
	C163.851303,114.757317 163.040375,113.351189 161.445511,111.942688 
M164.025986,96.042465 
	C164.025986,94.779160 164.025986,93.515862 164.025986,91.924400 
	C162.319077,92.041481 160.962860,92.134514 159.382202,92.242935 
	C159.473160,94.026421 159.544128,95.418228 159.630203,97.105766 
	C161.205353,96.970215 162.465347,96.861786 164.025986,96.042465 
z"/>
<path fill="#F8F8F8" opacity="1.000000" stroke="none" 
	d="
M968.280884,117.075981 
	C960.401306,115.197495 957.276611,110.331802 958.010742,101.690453 
	C958.622375,94.492058 962.269470,90.391396 968.493530,89.903931 
	C976.251038,89.296356 981.263855,94.142288 981.695618,102.666573 
	C982.156860,111.774788 977.564026,116.880341 968.280884,117.075981 
z"/>
<path fill="#F5F5F5" opacity="1.000000" stroke="none" 
	d="
M800.806885,110.471481 
	C799.895203,114.875214 797.799133,117.783684 793.373230,117.329765 
	C788.639954,116.844330 787.389038,113.166801 787.237366,109.059875 
	C787.177307,107.433548 787.365295,105.745110 787.761963,104.165749 
	C788.615845,100.765984 790.828003,98.497292 794.416870,98.601379 
	C798.049805,98.706749 800.032715,101.209702 800.642639,104.632263 
	C800.957214,106.397820 800.801758,108.247116 800.806885,110.471481 
z"/>
<path fill="#E1E1E1" opacity="1.000000" stroke="none" 
	d="
M890.892578,103.464180 
	C892.512817,99.539719 895.415710,97.687683 898.924927,98.753906 
	C901.358154,99.493210 903.292358,101.875114 905.027771,104.446350 
	C900.001221,104.798409 895.228882,107.645485 890.892578,103.464180 
z"/>
<path fill="#E1E1E1" opacity="1.000000" stroke="none" 
	d="
M831.044189,105.609222 
	C828.612000,105.609192 826.629883,105.609192 824.388428,105.609192 
	C824.207520,100.966553 826.813416,98.975204 830.564941,98.577568 
	C834.792664,98.129463 837.453613,100.276642 838.395691,105.609253 
	C835.893127,105.609253 833.693665,105.609253 831.044189,105.609222 
z"/>
<path fill="#F5F5F5" opacity="1.000000" stroke="none" 
	d="
M612.679321,115.469475 
	C611.826233,111.384819 610.425232,107.468010 610.919067,103.806747 
	C611.550781,99.122337 617.046692,97.215271 621.118164,99.483719 
	C624.950439,101.618889 626.398193,108.675217 623.984131,113.451874 
	C621.914917,117.545982 618.055176,118.351883 612.679321,115.469475 
z"/>
<path fill="#F5F5F5" opacity="1.000000" stroke="none" 
	d="
M733.697388,103.801895 
	C733.780273,106.850487 734.120361,109.571159 733.603455,112.117844 
	C732.890991,115.627495 730.070801,117.957909 726.722107,117.235870 
	C724.232483,116.699074 721.517578,114.509415 720.153137,112.288017 
	C719.017700,110.439507 719.393372,107.440514 719.653320,105.010323 
	C720.024780,101.537254 722.069214,99.174797 725.700928,98.698395 
	C729.492249,98.201050 732.104065,99.893867 733.697388,103.801895 
z"/>
<path fill="#141414" opacity="1.000000" stroke="none" 
	d="
M1320.954590,87.164307 
	C1320.954590,97.292740 1320.954590,106.936630 1320.954590,116.580521 
	C1320.563232,116.971115 1320.171753,117.361710 1319.780396,117.752304 
	C1318.087769,116.523354 1315.915527,115.629013 1314.784790,114.008118 
	C1309.590576,106.562965 1304.687256,98.914917 1298.653809,91.582512 
	C1298.653809,99.909782 1298.653809,108.237053 1298.653809,116.766335 
	C1296.952881,116.852859 1295.846191,116.909149 1294.440186,116.980667 
	C1294.440186,105.370140 1294.440186,93.952103 1294.440186,80.783592 
	C1296.947876,82.465202 1299.182373,83.258400 1300.304688,84.840500 
	C1304.735107,91.085426 1308.812866,97.580353 1313.030640,103.976463 
	C1313.896362,105.289337 1314.801636,106.576187 1316.684448,107.570724 
	C1316.684448,99.183891 1316.684448,90.797058 1316.684448,82.451508 
	C1320.844116,82.233772 1320.844116,82.233772 1320.954590,87.164307 
z"/>
<path fill="#181818" opacity="1.000000" stroke="none" 
	d="
M1463.108887,101.193321 
	C1463.108887,106.628677 1463.108887,111.590279 1463.108887,116.551872 
	C1462.639038,116.839706 1462.169189,117.127541 1461.699341,117.415375 
	C1460.852417,116.326805 1459.342651,115.278175 1459.274292,114.142693 
	C1458.994507,109.500191 1459.130981,104.831009 1459.161865,100.171974 
	C1459.181641,97.166939 1458.325073,94.750145 1454.866699,94.656197 
	C1451.404663,94.562149 1448.938843,96.355553 1448.760254,99.883087 
	C1448.483521,105.348328 1448.687134,110.837883 1448.687134,116.227097 
	C1445.699341,117.689438 1444.402344,117.231155 1444.488403,114.024506 
	C1444.609009,109.535156 1444.570435,105.038620 1444.480225,100.547562 
	C1444.420532,97.575294 1443.950195,94.630501 1440.032227,94.640854 
	C1436.542969,94.650070 1434.282471,96.602989 1434.025879,100.067261 
	C1433.682129,104.704002 1433.922241,109.384636 1433.560425,114.018990 
	C1433.465820,115.229729 1432.069702,116.338783 1431.271362,117.494514 
	C1430.822754,117.235626 1430.374023,116.976738 1429.925293,116.717850 
	C1429.925293,108.288223 1429.925293,99.858589 1429.925293,90.397758 
	C1431.727539,91.480141 1433.099243,92.303909 1434.658447,93.240334 
	C1440.750000,89.871971 1443.078003,90.041611 1448.112915,94.685051 
	C1451.255005,91.915283 1454.674194,89.663139 1459.169312,91.790070 
	C1463.077515,93.639374 1463.153931,97.144516 1463.108887,101.193321 
z"/>
<path fill="#141414" opacity="1.000000" stroke="none" 
	d="
M1416.666504,116.022568 
	C1405.720947,118.942101 1398.108765,114.956352 1396.807373,104.287590 
	C1398.870972,105.708969 1400.540161,106.258949 1401.154663,107.384735 
	C1403.988159,112.574448 1410.770508,114.948738 1416.099121,111.902725 
	C1417.686890,110.995041 1419.293823,108.720909 1419.370117,107.005302 
	C1419.432617,105.595177 1417.527466,103.424393 1415.988770,102.757469 
	C1412.831543,101.388870 1409.299805,100.914139 1405.987305,99.866188 
	C1401.651245,98.494453 1397.926758,96.392273 1398.050293,91.007904 
	C1398.151489,86.597336 1401.352173,83.479942 1406.842041,82.276657 
	C1414.696167,80.555161 1420.893311,84.040344 1422.917358,92.758270 
	C1420.662109,91.411568 1418.953247,90.925400 1418.116821,89.794182 
	C1415.316528,86.007095 1408.172485,84.576622 1404.337158,87.315460 
	C1401.030029,89.677124 1401.402832,93.442360 1405.346069,94.969788 
	C1408.572510,96.219582 1412.013184,96.925896 1415.373169,97.818985 
	C1419.677612,98.963051 1423.229858,101.063194 1423.700195,105.900513 
	C1424.180908,110.843933 1421.434937,114.016083 1416.666504,116.022568 
z"/>
<path fill="#1B1B1B" opacity="1.000000" stroke="none" 
	d="
M1500.297852,113.627899 
	C1499.523071,115.210350 1498.748291,116.355774 1497.973389,117.501205 
	C1497.423462,117.244339 1496.873413,116.987465 1496.323486,116.730598 
	C1496.323486,105.968834 1496.253662,95.205879 1496.436890,84.447235 
	C1496.454224,83.423302 1498.055542,82.426338 1498.921509,81.416855 
	C1499.357422,81.697823 1499.793335,81.978783 1500.229248,82.259750 
	C1500.229248,88.190239 1500.229248,94.120728 1500.229248,100.442917 
	C1506.241699,98.641647 1507.302002,89.963303 1516.073608,91.232231 
	C1512.003906,94.182716 1508.717896,96.565033 1505.409546,98.963623 
	C1509.711304,105.856239 1513.005615,111.134811 1516.760986,117.151962 
	C1507.692993,116.770317 1508.420776,107.675240 1503.290771,104.330513 
	C1498.987915,106.049446 1500.617310,109.974731 1500.297852,113.627899 
z"/>
<path fill="#161616" opacity="1.000000" stroke="none" 
	d="
M1541.378540,100.637421 
	C1541.499390,102.174332 1541.554199,103.311455 1541.630737,104.899796 
	C1535.513550,104.899796 1529.596313,104.899796 1523.473389,104.899796 
	C1523.299683,109.075623 1524.755615,111.785049 1528.351440,112.968063 
	C1531.723877,114.077591 1534.438965,113.107475 1536.593872,110.088440 
	C1537.349976,109.029373 1539.022217,108.624298 1541.205933,107.398750 
	C1539.510620,114.555908 1535.499756,117.464386 1529.731079,117.009575 
	C1523.387207,116.509415 1519.333618,112.108574 1519.032593,105.394852 
	C1518.678467,97.495979 1522.135864,92.310219 1528.553833,91.114105 
	C1534.462280,90.012947 1539.165039,93.375824 1541.378540,100.637421 
M1533.456787,95.050774 
	C1527.122314,93.879662 1524.514282,95.507172 1523.782471,101.135201 
	C1528.281494,101.135201 1532.763794,101.135201 1538.589478,101.135201 
	C1536.623291,98.585106 1535.385864,96.980194 1533.456787,95.050774 
z"/>
<path fill="#1B1B1B" opacity="1.000000" stroke="none" 
	d="
M1236.964355,92.010132 
	C1245.446045,89.527702 1249.548828,92.505615 1249.644531,100.841927 
	C1249.703491,105.979225 1249.655518,111.117744 1249.655518,116.673279 
	C1248.304321,116.774551 1247.125977,116.862869 1245.681152,116.971161 
	C1245.681152,111.466988 1245.678833,106.327019 1245.682007,101.187050 
	C1245.684204,97.668457 1244.703857,94.724037 1240.580200,94.641365 
	C1236.466797,94.558876 1234.010742,96.773560 1233.843506,100.992401 
	C1233.672485,105.303490 1233.871826,109.634987 1233.551392,113.930847 
	C1233.458740,115.173042 1232.132812,116.323257 1231.372314,117.515648 
	C1230.899658,117.269638 1230.427002,117.023636 1229.954346,116.777626 
	C1229.954346,108.382637 1229.954346,99.987656 1229.954346,91.448677 
	C1232.355469,88.612373 1233.989502,95.890213 1236.964355,92.010132 
z"/>
<path fill="#191919" opacity="1.000000" stroke="none" 
	d="
M1567.904175,91.533249 
	C1575.837891,90.369308 1578.859009,91.924965 1581.160645,99.395660 
	C1578.947266,98.302719 1577.736328,97.674767 1576.500000,97.101372 
	C1574.643311,96.240280 1572.769043,94.776871 1570.901611,94.775833 
	C1569.336792,94.774963 1567.770996,96.500465 1566.205688,97.461525 
	C1567.427368,98.599434 1568.468750,100.143044 1569.911133,100.784065 
	C1572.315308,101.852493 1575.259766,101.879921 1577.443359,103.216888 
	C1579.336304,104.375916 1581.495605,106.643036 1581.690674,108.604118 
	C1581.891724,110.624016 1580.395142,113.528046 1578.708618,114.891258 
	C1572.833984,119.639824 1564.475586,116.878914 1562.324585,108.400574 
	C1563.578613,108.988586 1564.883911,109.488922 1566.073975,110.185890 
	C1567.714111,111.146477 1569.320557,113.175186 1570.845215,113.086693 
	C1573.166748,112.951950 1576.760986,111.932762 1577.396973,110.329765 
	C1578.711670,107.017326 1575.058838,106.785042 1572.799316,106.059029 
	C1571.219727,105.551483 1569.264160,105.601028 1568.064941,104.655563 
	C1565.883301,102.935463 1563.116821,100.941795 1562.458252,98.549217 
	C1561.531616,95.182961 1564.069702,92.704422 1567.904175,91.533249 
z"/>
<path fill="#161616" opacity="1.000000" stroke="none" 
	d="
M1255.813354,95.886963 
	C1258.373169,91.259682 1262.356812,90.530258 1266.684448,91.189667 
	C1270.311157,91.742256 1273.292725,93.397156 1274.089722,99.048805 
	C1272.216187,98.270576 1270.932861,97.837219 1269.745483,97.219498 
	C1268.201904,96.416328 1266.682983,94.676704 1265.247192,94.770866 
	C1263.246582,94.902061 1261.333008,96.357979 1259.382202,97.246918 
	C1260.827026,98.503220 1262.101807,100.099426 1263.760010,100.929268 
	C1265.800537,101.950363 1268.436890,101.904617 1270.305908,103.110214 
	C1272.203125,104.334015 1274.470337,106.376297 1274.753418,108.324821 
	C1275.044312,110.327919 1273.703735,113.307632 1272.083008,114.715416 
	C1266.303467,119.735817 1257.526978,116.908928 1255.522705,108.304741 
	C1256.759521,108.956711 1258.025879,109.558784 1259.225830,110.272774 
	C1260.860229,111.245331 1262.502930,113.211769 1264.035522,113.112167 
	C1266.346069,112.961998 1269.894897,111.930359 1270.545044,110.317314 
	C1271.896240,106.964775 1268.183350,106.828728 1265.976318,106.047905 
	C1263.488403,105.167725 1260.379761,104.992317 1258.638916,103.348137 
	C1256.936646,101.740250 1256.616943,98.668404 1255.813354,95.886963 
z"/>
<path fill="#191919" opacity="1.000000" stroke="none" 
	d="
M1476.711182,116.637192 
	C1468.905762,113.430428 1465.892212,105.248085 1469.323853,97.469910 
	C1471.803467,91.849976 1478.569092,89.416168 1484.517822,92.004509 
	C1489.983398,94.382645 1492.530762,100.958656 1490.817505,108.267036 
	C1489.380493,114.396317 1484.610718,117.351845 1476.711182,116.637192 
M1482.764771,95.219666 
	C1478.577759,93.841995 1475.152832,94.696663 1473.129272,98.847878 
	C1471.111328,102.987381 1472.233398,109.465591 1475.190308,111.844093 
	C1478.653320,114.629684 1483.749756,113.627518 1485.902710,109.737663 
	C1488.246582,105.502708 1487.172974,99.324898 1482.764771,95.219666 
z"/>
<path fill="#191919" opacity="1.000000" stroke="none" 
	d="
M1339.664673,91.021698 
	C1345.600708,92.160744 1348.980591,95.484276 1349.685669,101.062485 
	C1350.327759,106.141991 1350.033813,111.215462 1345.427246,114.619392 
	C1341.514160,117.510872 1337.108521,117.950821 1332.742188,115.644516 
	C1327.606567,112.931862 1326.639771,108.126091 1326.839111,102.869202 
	C1327.022339,98.036926 1328.744141,94.037506 1333.462402,92.097809 
	C1335.245728,91.364693 1337.317871,91.333794 1339.664673,91.021698 
M1345.719727,105.153275 
	C1345.538818,103.343544 1345.637207,101.449722 1345.122925,99.740288 
	C1343.740723,95.146729 1338.772461,93.214485 1334.728027,95.506264 
	C1331.389526,97.398010 1329.915649,102.517204 1331.262207,107.643585 
	C1332.227783,111.319649 1334.673462,113.474106 1338.427734,113.393982 
	C1343.044434,113.295464 1345.098633,110.242020 1345.719727,105.153275 
z"/>
<path fill="#202020" opacity="1.000000" stroke="none" 
	d="
M1365.333496,91.048531 
	C1372.848633,91.455719 1375.042114,93.613220 1375.113647,100.385742 
	C1375.169678,105.697762 1375.124878,111.010849 1375.124878,116.469902 
	C1372.378662,117.617073 1371.009521,117.223953 1371.094116,113.991508 
	C1371.211548,109.500015 1371.100708,105.002861 1371.112793,100.508202 
	C1371.121460,97.257446 1369.902832,94.869774 1366.381470,94.671608 
	C1362.825806,94.471512 1359.853760,95.978546 1359.585571,99.765945 
	C1359.199463,105.219421 1359.486938,110.720604 1359.486938,116.265091 
	C1356.683594,117.463203 1355.066284,117.604813 1355.101562,114.144691 
	C1355.178101,106.663422 1355.125122,99.180832 1355.125122,90.544998 
	C1357.027954,91.436104 1358.322388,92.042259 1360.518677,93.070808 
	C1361.125366,92.799644 1363.028442,91.949120 1365.333496,91.048531 
z"/>
<path fill="#202020" opacity="1.000000" stroke="none" 
	d="
M1547.163818,115.475494 
	C1547.141724,107.206284 1547.141724,99.388115 1547.141724,91.968307 
	C1551.645020,91.968307 1555.817871,91.968307 1559.990845,91.968307 
	C1560.127197,92.340157 1560.263550,92.711998 1560.400024,93.083847 
	C1559.497681,93.693214 1558.498901,94.931946 1557.708618,94.810738 
	C1552.212036,93.967705 1551.511963,97.771790 1551.286743,101.531265 
	C1550.988892,106.505295 1551.213379,111.510628 1551.213379,117.367462 
	C1549.548340,116.771790 1548.367065,116.349159 1547.163818,115.475494 
z"/>
<path fill="#121212" opacity="1.000000" stroke="none" 
	d="
M1384.149414,101.968063 
	C1386.436401,101.968071 1388.347778,101.634338 1390.053589,102.082466 
	C1391.248535,102.396385 1392.162964,103.777664 1393.202759,104.682266 
	C1392.899780,105.066841 1392.596802,105.451424 1392.293823,105.835999 
	C1388.374146,105.835999 1384.454346,105.835999 1380.548950,105.835999 
	C1380.266724,102.363251 1380.266724,102.363251 1384.149414,101.968063 
z"/>
<path fill="#202020" opacity="1.000000" stroke="none" 
	d="
M1283.881836,97.054428 
	C1282.823608,95.869240 1281.396729,94.420975 1281.691406,93.566414 
	C1282.028442,92.589111 1283.895996,92.139618 1285.098633,91.460793 
	C1285.572876,91.835098 1286.046997,92.209412 1286.521240,92.583717 
	C1285.772095,94.073692 1285.022949,95.563667 1283.881836,97.054428 
z"/>
<path fill="#202020" opacity="1.000000" stroke="none" 
	d="
M1285.915283,116.398804 
	C1284.478027,116.845673 1283.197754,116.939369 1281.681396,117.050346 
	C1281.681396,115.270996 1281.681396,113.839737 1281.681396,112.443634 
	C1285.598755,110.886742 1286.570068,112.611824 1285.915283,116.398804 
z"/>
<path fill="#191919" opacity="1.000000" stroke="none" 
	d="
M203.646164,95.389565 
	C203.987228,93.620934 204.328293,92.305931 204.669342,90.990936 
	C205.898743,91.648270 207.128143,92.305603 208.695694,93.143738 
	C214.736618,89.869354 217.137787,90.067642 221.909927,94.620369 
	C223.224045,93.715866 224.469025,92.621513 225.904510,91.913155 
	C231.314819,89.243332 236.492615,92.225304 237.017059,98.224396 
	C237.060440,98.720802 237.046066,99.222885 237.046234,99.722336 
	C237.048004,105.212135 237.047333,110.701927 237.047333,116.410866 
	C234.590805,117.470070 232.986481,117.577301 233.059753,114.127853 
	C233.158737,109.467278 233.050430,104.802681 233.091110,100.140343 
	C233.117599,97.103798 232.188629,94.738312 228.758652,94.647453 
	C225.280731,94.555313 222.851242,96.418282 222.669266,99.917580 
	C222.384857,105.387047 222.593933,110.882179 222.593933,116.409393 
	C219.622314,117.666290 218.300644,117.209526 218.387283,114.012466 
	C218.509048,109.519829 218.449066,105.020576 218.387329,100.525238 
	C218.345917,97.509598 217.817047,94.616592 213.925980,94.634628 
	C210.438156,94.650787 208.200485,96.626312 207.952835,100.102058 
	C207.622086,104.743904 207.843964,109.426521 207.472610,114.063133 
	C207.376190,115.267151 205.955246,116.365089 205.142685,117.511749 
	C204.643829,117.245811 204.144989,116.979874 203.646149,116.713936 
	C203.646149,109.757019 203.646149,102.800110 203.646164,95.389565 
z"/>
<path fill="#141414" opacity="1.000000" stroke="none" 
	d="
M186.663666,112.939323 
	C190.376801,112.295670 193.966400,110.949089 193.271439,107.252693 
	C192.873749,105.137482 189.629868,103.113571 187.232101,101.931808 
	C184.308960,100.491119 180.869110,100.142853 177.761673,99.020508 
	C174.192307,97.731323 171.887360,95.225250 171.995667,91.173393 
	C172.107132,87.003311 174.496780,84.434944 178.227829,83.011261 
	C185.968185,80.057732 196.465820,83.582336 196.486221,92.362503 
	C194.682770,91.406029 192.921906,91.030075 192.118042,89.945084 
	C189.284729,86.120827 182.216919,84.443626 178.450989,87.286819 
	C177.294113,88.160225 176.159317,90.027451 176.266739,91.336861 
	C176.371964,92.619652 177.839752,94.368484 179.116974,94.865395 
	C182.496689,96.180260 186.099747,96.918213 189.608643,97.904572 
	C194.121964,99.173271 197.509430,101.569344 197.702728,106.722542 
	C197.873672,111.279709 194.616714,114.872726 189.210358,116.403465 
	C179.954285,119.024193 171.990616,114.484306 170.802063,105.010223 
	C172.402115,105.533272 174.536407,105.663116 174.769669,106.397095 
	C176.628265,112.245468 181.110001,113.084816 186.663666,112.939323 
z"/>
<path fill="#161616" opacity="1.000000" stroke="none" 
	d="
M271.067444,116.857025 
	C270.523132,105.904137 270.315857,95.104942 270.381134,84.307411 
	C270.387085,83.326500 272.145020,82.356186 273.089355,81.380959 
	C273.485565,81.696442 273.881775,82.011925 274.277985,82.327415 
	C274.277985,88.268333 274.277985,94.209259 274.277985,100.499947 
	C280.114777,98.421860 281.349915,89.994675 289.918060,91.165932 
	C285.970947,94.236336 282.715271,96.768867 279.468048,99.294800 
	C283.634277,105.926712 286.958496,111.218330 290.702393,117.178032 
	C281.417847,116.939026 282.459015,107.465027 277.105957,104.297508 
	C272.897034,106.093109 274.477661,110.013916 274.225922,113.276932 
	C274.082275,115.139496 274.904388,117.605667 271.067444,116.857025 
z"/>
<path fill="#121212" opacity="1.000000" stroke="none" 
	d="
M302.476746,116.870331 
	C292.895142,113.516937 289.571564,102.111244 295.833496,94.952477 
	C299.075836,91.245743 303.220947,90.000137 308.017181,91.685234 
	C313.252472,93.524590 315.350098,97.160522 315.386536,104.794685 
	C309.470795,104.794685 303.537201,104.794685 297.387451,104.794685 
	C297.083527,108.931145 298.560944,111.654533 302.045074,112.916267 
	C305.587341,114.199074 308.441986,113.143143 310.664490,109.888062 
	C311.343170,108.894081 313.133179,108.658913 315.388428,107.633171 
	C312.843262,115.202843 310.107666,116.972778 302.476746,116.870331 
M304.523132,101.609261 
	C306.738342,101.609261 308.953583,101.609261 311.355682,101.609261 
	C310.758820,96.204155 307.951477,94.229607 303.803589,94.563164 
	C300.026093,94.866920 297.482483,96.945999 297.442535,101.609200 
	C299.694824,101.609200 301.659332,101.609200 304.523132,101.609261 
z"/>
<path fill="#1B1B1B" opacity="1.000000" stroke="none" 
	d="
M122.689491,96.741119 
	C116.547829,92.936737 112.249313,94.958084 111.763382,101.591660 
	C111.459961,105.733643 111.805725,109.924324 111.475937,114.062523 
	C111.379868,115.268005 109.960548,116.368034 109.147781,117.516403 
	C108.711647,117.250038 108.275505,116.983673 107.839371,116.717316 
	C107.839371,108.277657 107.839371,99.837997 107.839371,90.346703 
	C109.712318,91.483910 111.105904,92.330055 112.640747,93.261978 
	C113.564766,92.800827 114.843628,91.985275 116.237251,91.497971 
	C122.066650,89.459724 127.185158,92.719566 127.506920,98.899597 
	C127.774956,104.047829 127.708588,109.226250 127.478661,114.377388 
	C127.429619,115.475998 126.034882,116.514542 125.260101,117.580757 
	C124.848434,117.322998 124.436760,117.065231 124.025093,116.807472 
	C123.658257,110.248238 123.291412,103.689011 122.689491,96.741119 
z"/>
<path fill="#161616" opacity="1.000000" stroke="none" 
	d="
M146.097351,91.554703 
	C148.489075,93.358444 150.509109,95.009125 152.529129,96.659805 
	C152.183273,97.350571 151.837402,98.041336 151.491547,98.732101 
	C150.235779,98.265594 148.932236,97.896400 147.735703,97.309196 
	C146.043747,96.478882 144.431046,94.760719 142.784073,94.760246 
	C140.974503,94.759720 139.164459,96.277435 137.354630,97.133636 
	C138.751007,98.420532 139.962479,100.068069 141.590652,100.902863 
	C143.617279,101.941948 146.301819,101.849571 148.125198,103.092392 
	C150.104507,104.441498 152.543274,106.667450 152.716141,108.687790 
	C152.895630,110.785400 151.142212,113.847092 149.292206,115.173126 
	C143.228943,119.519165 135.523590,116.705902 132.232925,107.848969 
	C134.633759,108.968781 135.905182,109.513901 137.132431,110.144913 
	C139.217682,111.217072 141.252350,113.143158 143.351196,113.202942 
	C145.147614,113.254105 147.004196,111.192360 148.834167,110.065132 
	C147.400421,108.761330 146.140121,107.136017 144.484787,106.242966 
	C142.784668,105.325760 140.675644,105.195938 138.786606,104.592949 
	C135.502518,103.544655 132.533020,101.338745 133.534943,97.886513 
	C134.264694,95.372086 137.019699,93.038780 139.444260,91.569191 
	C141.000259,90.626060 143.595978,91.398315 146.097351,91.554703 
z"/>
<path fill="#161616" opacity="1.000000" stroke="none" 
	d="
M341.570435,104.578186 
	C337.815918,103.299271 335.214355,100.810951 336.415192,97.461601 
	C337.306702,94.975006 340.121277,92.399437 342.670593,91.448158 
	C347.930359,89.485466 352.830994,92.442574 355.166840,99.269485 
	C352.973022,98.301636 351.694275,97.816498 350.491119,97.186867 
	C348.952423,96.381676 347.420959,94.678757 345.983673,94.777550 
	C343.988983,94.914642 342.084656,96.366646 340.141632,97.255707 
	C341.594666,98.511223 342.874329,100.124161 344.543579,100.933937 
	C346.748474,102.003571 349.339417,102.248932 351.621124,103.194420 
	C356.578491,105.248611 357.383911,110.922836 353.351379,114.512642 
	C347.539734,119.686218 338.284119,117.069290 335.261963,107.920692 
	C337.434174,108.819084 338.736237,109.185760 339.853333,109.859306 
	C341.593658,110.908600 343.228577,113.135086 344.871338,113.100777 
	C347.141968,113.053352 350.731750,111.886581 351.346710,110.277939 
	C352.613434,106.964317 348.953430,106.782875 346.708679,106.059792 
	C345.133850,105.552498 343.513458,105.186623 341.570435,104.578186 
z"/>
<path fill="#181818" opacity="1.000000" stroke="none" 
	d="
M256.325531,91.282936 
	C264.345032,94.512947 267.399933,102.380104 264.057312,110.311874 
	C261.604462,116.132294 254.539749,118.677185 248.499481,115.916206 
	C243.350037,113.562416 240.818192,106.906052 242.436432,99.976219 
	C243.922821,93.611008 248.338623,90.730324 256.325531,91.282936 
M260.979309,102.747612 
	C260.004395,100.538864 259.563171,97.754295 257.937561,96.247612 
	C255.029968,93.552757 251.453705,93.910141 248.514038,96.678795 
	C245.319092,99.687851 245.202454,107.824142 248.295609,111.052887 
	C251.095428,113.975410 254.856812,114.682251 257.612366,111.912056 
	C259.559784,109.954224 259.916138,106.413719 260.979309,102.747612 
z"/>
<path fill="#202020" opacity="1.000000" stroke="none" 
	d="
M327.813599,91.651718 
	C330.020447,91.449287 331.876343,91.449287 333.732269,91.449287 
	C333.913269,91.908180 334.094269,92.367065 334.275269,92.825958 
	C333.351318,93.515404 332.322479,94.901634 331.520447,94.780937 
	C326.402039,94.010681 325.461395,97.439316 325.251282,101.071213 
	C324.956085,106.172592 325.176666,111.303825 325.176666,116.570496 
	C322.242371,117.535332 320.978699,117.035889 321.029755,113.921501 
	C321.151917,106.472115 321.069214,99.019371 321.069214,91.278862 
	C323.376831,91.486504 325.419769,91.670326 327.813599,91.651718 
z"/>
<path fill="#202020" opacity="1.000000" stroke="none" 
	d="
M161.837463,111.943871 
	C163.040375,113.351189 163.851303,114.757317 165.023773,116.790329 
	C162.539108,116.901627 161.262177,116.958824 158.435959,117.085419 
	C159.755264,114.831001 160.600388,113.386848 161.837463,111.943871 
z"/>
<path fill="#202020" opacity="1.000000" stroke="none" 
	d="
M163.875671,96.397903 
	C162.465347,96.861786 161.205353,96.970215 159.630203,97.105766 
	C159.544128,95.418228 159.473160,94.026421 159.382202,92.242935 
	C160.962860,92.134514 162.319077,92.041481 164.025986,91.924400 
	C164.025986,93.515862 164.025986,94.779160 163.875671,96.397903 
z"/>
<path fill="#E1E1E1" opacity="1.000000" stroke="none" 
	d="
M1533.802734,95.213028 
	C1535.385864,96.980194 1536.623291,98.585106 1538.589478,101.135201 
	C1532.763794,101.135201 1528.281494,101.135201 1523.782471,101.135201 
	C1524.514282,95.507172 1527.122314,93.879662 1533.802734,95.213028 
z"/>
<path fill="#F5F5F5" opacity="1.000000" stroke="none" 
	d="
M1483.110840,95.442192 
	C1487.172974,99.324898 1488.246582,105.502708 1485.902710,109.737663 
	C1483.749756,113.627518 1478.653320,114.629684 1475.190308,111.844093 
	C1472.233398,109.465591 1471.111328,102.987381 1473.129272,98.847878 
	C1475.152832,94.696663 1478.577759,93.841995 1483.110840,95.442192 
z"/>
<path fill="#F5F5F5" opacity="1.000000" stroke="none" 
	d="
M1345.692383,105.557472 
	C1345.098633,110.242020 1343.044434,113.295464 1338.427734,113.393982 
	C1334.673462,113.474106 1332.227783,111.319649 1331.262207,107.643585 
	C1329.915649,102.517204 1331.389526,97.398010 1334.728027,95.506264 
	C1338.772461,93.214485 1343.740723,95.146729 1345.122925,99.740288 
	C1345.637207,101.449722 1345.538818,103.343544 1345.692383,105.557472 
z"/>
<path fill="#E1E1E1" opacity="1.000000" stroke="none" 
	d="
M304.073486,101.609230 
	C301.659332,101.609200 299.694824,101.609200 297.442535,101.609200 
	C297.482483,96.945999 300.026093,94.866920 303.803589,94.563164 
	C307.951477,94.229607 310.758820,96.204155 311.355682,101.609261 
	C308.953583,101.609261 306.738342,101.609261 304.073486,101.609230 
z"/>
<path fill="#F5F5F5" opacity="1.000000" stroke="none" 
	d="
M260.981049,103.163681 
	C259.916138,106.413719 259.559784,109.954224 257.612366,111.912056 
	C254.856812,114.682251 251.095428,113.975410 248.295609,111.052887 
	C245.202454,107.824142 245.319092,99.687851 248.514038,96.678795 
	C251.453705,93.910141 255.029968,93.552757 257.937561,96.247612 
	C259.563171,97.754295 260.004395,100.538864 260.981049,103.163681 
z"/>
</svg>