<svg version="1.1" id="Layer_1" xmlns="http://www.w3.org/2000/svg" xmlns:xlink="http://www.w3.org/1999/xlink" x="0px" y="0px"
	 width="100%" viewBox="0 0 1584 204" enable-background="new 0 0 1584 204" xml:space="preserve">
<path fill="#FFFFFF" opacity="1.000000" stroke="none" 
	d="
M1195.000000,205.000000 
	C796.666687,205.000000 398.833374,205.000000 1.000053,205.000000 
	C1.000036,137.000031 1.000036,69.000053 1.000018,1.000063 
	C528.999939,1.000042 1056.999878,1.000042 1585.000000,1.000021 
	C1585.000000,68.999939 1585.000000,136.999878 1585.000000,204.999908 
	C1455.166626,205.000000 1325.333374,205.000000 1195.000000,205.000000 
M1041.500000,100.999413 
	C1031.668579,100.999481 1021.834717,101.122482 1012.006958,100.933037 
	C1008.559143,100.866562 1008.696106,102.396317 1009.373840,105.130692 
	C1042.233276,105.130692 1074.940430,105.130692 1108.075684,105.130692 
	C1104.802246,111.877197 1101.760010,118.146957 1098.261963,125.356316 
	C1113.146729,117.918205 1126.866211,111.062431 1141.132080,103.933594 
	C1141.132080,124.721504 1141.132080,144.667648 1141.132080,164.645477 
	C1275.908203,164.645477 1410.412842,164.645477 1544.649658,164.645477 
	C1544.649658,123.222763 1544.649658,82.155548 1544.649658,41.326626 
	C1409.911987,41.326626 1275.525024,41.326626 1140.832520,41.326626 
	C1140.832520,61.556580 1140.832520,81.460724 1140.832520,101.888069 
	C1126.698120,94.835205 1113.014526,88.007294 1098.148071,80.589127 
	C1101.824463,88.088547 1104.907837,94.378288 1108.153564,100.999413 
	C1085.821899,100.999413 1064.160889,100.999413 1041.500000,100.999413 
M230.500000,164.999283 
	C301.926392,164.999283 373.352753,164.999283 445.178040,164.999283 
	C445.178040,144.688828 445.178040,124.947456 445.178040,104.999275 
	C447.222351,104.999275 448.867828,104.999275 450.513275,104.999275 
	C474.012299,104.999275 497.511292,105.005486 521.010315,104.993088 
	C524.891968,104.991035 524.891968,104.953362 524.406494,100.843155 
	C498.046082,100.843155 471.635559,100.843155 444.829926,100.843155 
	C444.829926,80.699715 444.829926,60.958344 444.829926,41.284649 
	C310.028198,41.284649 175.627106,41.284649 41.287796,41.284649 
	C41.287796,82.639938 41.287796,123.710663 41.287796,164.999283 
	C104.216408,164.999283 166.858200,164.999283 230.500000,164.999283 
M725.583130,99.571365 
	C725.583130,98.098976 725.583130,96.626587 725.583130,95.874496 
	C727.732178,94.559891 729.282349,93.611588 730.832581,92.663292 
	C730.612183,92.212608 730.391785,91.761917 730.171448,91.311234 
	C728.655518,91.037827 727.139587,90.764420 725.769775,90.517365 
	C724.882629,85.162811 728.711853,86.072533 733.276978,85.479721 
	C731.454163,83.771103 730.613281,82.288643 729.544800,82.100754 
	C724.761475,81.259666 722.808533,83.354515 720.905884,90.887772 
	C718.452698,90.887772 715.969788,90.887772 713.465149,90.887772 
	C712.589233,87.684982 713.367126,86.011841 716.866516,85.769119 
	C717.925659,85.695648 718.888306,84.231224 720.693481,82.747955 
	C711.844238,81.346565 710.613953,82.209602 709.007629,89.021004 
	C708.827881,89.783211 707.389954,90.195305 707.058594,90.988373 
	C706.621887,92.033310 706.702820,93.294571 706.561279,94.462852 
	C709.890076,94.396904 709.046448,96.874588 709.062561,98.703476 
	C709.115234,104.679260 709.082275,110.655800 709.082275,117.003357 
	C710.649597,116.858307 711.817810,116.750191 713.327393,116.610481 
	C713.327393,109.147118 713.327393,102.060890 713.327393,94.956398 
	C716.273987,94.956398 718.828613,94.956398 721.712402,94.956398 
	C721.712402,102.489296 721.712402,109.607185 721.712402,116.725067 
	C722.197266,116.987915 722.682190,117.250763 723.167053,117.513611 
	C723.972229,116.359230 725.397827,115.243164 725.471863,114.043633 
	C725.748718,109.560753 725.582886,105.050529 725.583130,99.571365 
M945.944214,92.394760 
	C941.106873,89.359779 937.165283,91.526680 933.549438,94.732239 
	C928.634521,89.924965 926.248718,89.791260 920.254211,93.222572 
	C918.530396,92.190758 917.269470,91.435982 915.237366,90.219612 
	C915.237366,98.988739 915.323425,106.469826 915.196838,113.947311 
	C915.142761,117.140282 916.455627,117.622826 919.573914,116.433907 
	C919.573914,111.019135 919.334961,105.522568 919.657410,100.059143 
	C919.875000,96.373512 922.359985,94.378685 926.130005,94.691490 
	C929.714294,94.988869 930.025146,97.796127 930.055176,100.580276 
	C930.103577,105.075592 930.183228,109.575096 930.043762,114.066437 
	C929.938965,117.443512 931.483459,117.533195 934.170166,116.447464 
	C934.170166,111.057343 933.993652,105.725868 934.230774,100.412834 
	C934.395081,96.729500 936.682739,94.548309 940.430420,94.658676 
	C944.197632,94.769623 944.811829,97.542870 944.790955,100.656097 
	C944.755310,105.978661 944.781128,111.301636 944.781128,116.974472 
	C946.193176,116.875488 947.384338,116.791985 948.762878,116.695343 
	C948.762878,111.134438 949.005493,105.968307 948.663452,100.841171 
	C948.484863,98.163925 947.277649,95.555290 945.944214,92.394760 
M630.773743,115.911140 
	C633.006409,117.833702 634.837952,118.032623 635.836548,114.721313 
	C638.171387,106.979355 640.502014,99.236107 642.957520,91.084290 
	C636.681824,90.703667 638.320251,95.896347 637.102295,98.576363 
	C635.578369,101.929520 634.856689,105.647255 633.788635,109.207603 
	C631.540771,104.240974 630.425964,99.266846 629.001221,94.383163 
	C628.626099,93.097359 627.292297,92.091217 626.398743,90.956665 
	C625.348755,92.119606 623.767822,93.116852 623.343872,94.475189 
	C621.800659,99.419273 620.644409,104.484108 619.342285,109.503426 
	C616.739197,104.243233 615.277161,99.146187 614.067505,93.989914 
	C613.374634,91.036469 612.068115,90.128006 609.250000,91.606712 
	C611.472168,99.307213 613.494995,106.867180 615.952515,114.283081 
	C616.355652,115.499611 618.671631,116.082275 620.103516,116.957886 
	C620.674622,115.842888 621.456360,114.785355 621.779114,113.602585 
	C622.948242,109.318962 623.963257,104.993263 625.146118,100.243156 
	C626.537048,101.244179 626.964355,101.384583 627.027832,101.622192 
	C628.229858,106.121658 629.388916,110.632576 630.773743,115.911140 
M669.230408,104.403641 
	C670.230042,112.415771 673.741638,116.913437 679.494568,116.970230 
	C683.023560,117.005074 686.558716,116.408188 690.404785,116.067162 
	C690.404785,105.244919 690.404785,93.806595 690.404785,82.161674 
	C689.152405,82.161674 688.046143,82.161674 686.346252,82.161674 
	C686.346252,85.970306 686.346252,89.631279 686.346252,93.557358 
	C679.821472,90.115601 674.962158,90.366280 672.130371,94.738739 
	C670.502930,97.251556 670.154602,100.592827 669.230408,104.403641 
M785.580200,105.036301 
	C789.653809,105.036301 793.727356,105.036301 797.795349,105.036301 
	C797.660095,96.169022 793.951660,91.417969 787.390015,90.973221 
	C781.157715,90.550789 776.221191,94.991669 775.361450,101.794060 
	C774.363708,109.688538 777.780334,115.313347 784.371887,116.805481 
	C789.153870,117.887985 796.787781,115.277679 797.242615,107.679047 
	C795.367920,108.630890 793.630066,108.951080 792.918030,109.980713 
	C790.817627,113.017860 788.179382,114.048645 784.758606,113.031494 
	C781.063293,111.932747 779.659241,109.191315 779.606079,105.036301 
	C781.399353,105.036301 783.004883,105.036301 785.580200,105.036301 
M736.970093,93.287094 
	C731.894470,97.732803 731.637817,103.436501 733.180420,109.335426 
	C734.496277,114.367195 739.270935,117.305016 744.696228,117.012299 
	C749.948181,116.728935 753.072021,114.070396 754.474915,107.773048 
	C752.612366,108.585663 750.821594,108.783669 750.224731,109.732590 
	C748.114685,113.087166 745.308899,114.146507 741.716064,112.966286 
	C738.087891,111.774460 736.608582,109.054016 736.933350,104.879013 
	C742.998413,104.879013 748.942322,104.879013 754.869202,104.879013 
	C754.996277,93.158699 747.669739,88.235085 736.970093,93.287094 
M848.667603,81.982025 
	C847.236816,82.075455 845.806030,82.168877 844.129639,82.278336 
	C844.129639,88.259613 844.129639,93.886368 844.129639,99.513123 
	C844.129639,105.277237 844.129639,111.041351 844.129639,116.812485 
	C845.809998,116.812485 846.931396,116.812485 848.390503,116.812485 
	C848.390503,111.524918 848.390503,106.428246 848.390503,100.997032 
	C853.827881,100.997032 858.934814,100.997032 864.008240,100.997032 
	C864.273315,97.106529 864.274292,97.041046 861.284668,96.997856 
	C857.021667,96.936272 852.757141,96.982185 848.612854,96.982185 
	C848.612854,93.042160 848.612854,89.646667 848.612854,85.898148 
	C854.848450,85.898148 860.783386,85.898148 866.718323,85.898148 
	C866.977966,85.422569 867.237671,84.946991 867.497314,84.471413 
	C866.364014,83.641808 865.267639,82.163033 864.091064,82.096230 
	C859.286438,81.823433 854.457275,81.982208 848.667603,81.982025 
M803.236938,103.506935 
	C803.237122,106.994827 803.349487,110.487404 803.204346,113.969238 
	C803.070862,117.171547 804.479797,117.614151 807.422485,116.489906 
	C807.422485,111.188728 807.231018,105.872719 807.485840,100.578171 
	C807.674744,96.651726 810.213501,94.566429 814.102417,94.634789 
	C818.217712,94.707115 819.284180,97.492485 819.244385,101.084785 
	C819.196533,105.402580 819.338562,109.724548 819.203979,114.038643 
	C819.101746,117.317131 820.569214,117.583717 823.208008,116.542709 
	C823.208008,110.618668 823.376953,104.803673 823.162476,99.002853 
	C822.928650,92.676697 817.534546,89.325989 811.585754,91.636467 
	C810.096680,92.214828 808.731689,93.112885 808.493408,93.238739 
	C806.467285,92.126694 805.207947,91.435478 803.236938,90.353699 
	C803.236938,95.237663 803.236938,98.880043 803.236938,103.506935 
M606.083862,109.303841 
	C607.872437,100.459877 605.858521,94.557648 600.190002,92.030281 
	C594.520752,89.502586 587.775330,91.700890 585.152588,96.930901 
	C581.875854,103.465065 584.022034,112.606354 589.533569,115.591080 
	C595.510498,118.827866 602.087219,116.598160 606.083862,109.303841 
M888.388550,97.147308 
	C885.538452,105.920372 887.522583,113.193420 893.510498,115.922478 
	C899.124451,118.481102 905.945007,116.358856 908.667969,111.206154 
	C911.802429,105.274796 910.158020,96.434692 905.287537,93.032982 
	C899.849670,89.235168 893.405212,90.570488 888.388550,97.147308 
M983.179138,110.207504 
	C989.988098,107.690475 996.854553,105.308258 1003.524414,102.464920 
	C1004.256897,102.152641 1004.475708,97.939056 1003.895569,97.655235 
	C997.142029,94.351532 990.189209,91.455254 983.289124,88.451088 
	C982.998901,88.945938 982.708740,89.440781 982.418518,89.935631 
	C986.287415,96.042709 994.739075,95.528801 999.955200,100.358604 
	C994.935120,102.316269 990.257385,103.951317 985.773987,106.009842 
	C984.514282,106.588226 983.825806,108.410759 983.179138,110.207504 
M955.579651,92.256683 
	C960.998657,94.750931 966.417603,97.245186 972.652893,100.115166 
	C966.736877,102.394173 961.896912,104.096832 957.223145,106.173515 
	C956.063904,106.688599 955.442993,108.415260 954.574646,109.585007 
	C954.941223,109.873116 955.307739,110.161224 955.674316,110.449333 
	C962.148926,107.928345 968.653564,105.479218 975.065063,102.807022 
	C976.001587,102.416718 976.902649,101.025566 977.062317,99.981613 
	C977.186646,99.168907 976.351685,97.696419 975.567871,97.338326 
	C968.859192,94.273468 962.064819,91.395996 954.771362,88.235031 
	C954.909180,89.909706 954.988342,90.872047 955.579651,92.256683 
M572.268433,108.092445 
	C574.408875,108.896980 576.549316,109.701508 578.689758,110.506042 
	C578.934692,110.072670 579.179626,109.639290 579.424561,109.205917 
	C575.760681,102.988945 567.526001,104.113235 562.064575,99.727577 
	C565.499939,98.145851 568.896606,96.936890 571.902100,95.090996 
	C574.520447,93.482864 579.669373,94.349937 579.009521,88.322311 
	C571.981873,91.371956 565.301025,94.185913 558.723938,97.224472 
	C557.820435,97.641853 556.895874,99.209846 556.958252,100.182495 
	C557.019714,101.141930 558.139038,102.431770 559.111389,102.865196 
	C563.188354,104.682442 567.384277,106.232727 572.268433,108.092445 
M549.610291,88.911026 
	C543.381653,91.625336 537.120911,94.270355 530.958252,97.127022 
	C530.009521,97.566826 528.974182,98.971252 528.958130,99.945717 
	C528.942200,100.909622 529.954712,102.404114 530.880066,102.787460 
	C537.429993,105.501007 544.073547,107.988548 550.687317,110.548157 
	C551.049072,109.924194 551.410889,109.300224 551.772705,108.676262 
	C547.308899,103.720596 539.713013,103.779190 533.860107,99.785774 
	C539.050964,97.438087 543.795349,95.252403 548.575623,93.148399 
	C550.736328,92.197357 552.632812,91.284836 549.610291,88.911026 
M834.913940,108.221512 
	C834.913940,103.915421 834.913940,99.609329 834.913940,95.968681 
	C836.598633,94.567215 837.810852,93.558830 839.023071,92.550453 
	C837.710266,91.686646 836.397522,90.822830 835.017273,89.914635 
	C834.910583,88.041832 834.793579,85.987823 834.676575,83.933815 
	C834.259766,83.764999 833.842957,83.596176 833.426147,83.427353 
	C832.603455,84.737640 831.451477,85.949593 831.024841,87.378143 
	C830.059326,90.611038 826.773743,93.907135 830.898621,97.314201 
	C831.306580,97.651146 830.954224,98.908928 830.954285,99.739288 
	C830.954407,103.060730 830.928223,106.382416 830.959961,109.703552 
	C831.021362,116.128273 832.461365,117.340233 840.229248,116.558899 
	C839.054260,115.146904 838.137268,114.176796 837.376648,113.096527 
	C836.484802,111.829803 835.729065,110.467224 834.913940,108.221512 
M650.711670,115.925095 
	C650.728760,105.797165 650.671753,95.668228 650.807861,85.541901 
	C650.848816,82.489616 650.106140,81.076553 646.798950,82.397804 
	C646.798950,93.835709 646.798950,105.260483 646.798950,116.984261 
	C648.092163,116.890411 649.207153,116.809494 650.711670,115.925095 
M872.644592,98.640854 
	C872.644592,104.696434 872.644592,110.752014 872.644592,116.807594 
	C873.222229,117.041107 873.799927,117.274628 874.377563,117.508141 
	C875.112549,116.306923 876.395386,115.144279 876.483154,113.897507 
	C876.785095,109.610229 876.487366,105.281677 876.767090,100.991600 
	C877.009094,97.277802 877.985474,93.988777 883.058289,94.768066 
	C883.826294,94.886055 884.829590,93.472214 886.852905,91.876778 
	C881.118347,91.876778 877.081665,91.876778 872.644653,91.876778 
	C872.644653,93.434044 872.644653,95.561279 872.644592,98.640854 
M764.583130,110.353035 
	C764.628784,107.206619 764.504089,104.046036 764.764038,100.917427 
	C765.076416,97.158516 766.104370,93.962502 771.136230,94.772018 
	C771.863525,94.889030 772.844910,93.426559 774.652954,91.895309 
	C769.069153,91.895309 765.026428,91.895309 760.776550,91.895309 
	C760.776550,99.771835 760.776550,108.201759 760.776550,116.834320 
	C761.994507,116.834320 763.100464,116.834320 764.583008,116.834320 
	C764.583008,114.887672 764.583008,113.088623 764.583130,110.353035 
M701.218140,104.492493 
	C701.218140,100.062202 701.218140,95.631905 701.218140,91.201614 
	C700.674988,90.953682 700.131836,90.705757 699.588745,90.457832 
	C698.804932,91.647552 697.383972,92.815979 697.343384,94.030548 
	C697.121094,100.681992 697.323425,107.346352 697.200378,114.002953 
	C697.140503,117.241173 698.522278,117.607033 701.218140,116.548332 
	C701.218140,112.790367 701.218140,109.132439 701.218140,104.492493 
M662.008850,112.008957 
	C657.444458,111.320847 658.180359,114.053162 658.790710,116.851776 
	C660.213379,116.851776 661.498596,116.851776 663.137085,116.851776 
	C662.989929,115.170052 662.862610,113.714394 662.008850,112.008957 
M662.757751,92.277260 
	C661.379456,92.210548 660.001099,92.143837 658.285156,92.060783 
	C658.471985,94.102753 658.599609,95.496925 658.709717,96.700447 
	C662.805725,97.979309 663.469604,96.047440 662.757751,92.277260 
z"/>
<path fill="#010101" opacity="1.000000" stroke="none" 
	d="
M1042.000000,100.999413 
	C1064.160889,100.999413 1085.821899,100.999413 1108.153564,100.999413 
	C1104.907837,94.378288 1101.824463,88.088547 1098.148071,80.589127 
	C1113.014526,88.007294 1126.698120,94.835205 1140.832520,101.888069 
	C1140.832520,81.460724 1140.832520,61.556580 1140.832520,41.326626 
	C1275.525024,41.326626 1409.911987,41.326626 1544.649658,41.326626 
	C1544.649658,82.155548 1544.649658,123.222763 1544.649658,164.645477 
	C1410.412842,164.645477 1275.908203,164.645477 1141.132080,164.645477 
	C1141.132080,144.667648 1141.132080,124.721504 1141.132080,103.933594 
	C1126.866211,111.062431 1113.146729,117.918205 1098.261963,125.356316 
	C1101.760010,118.146957 1104.802246,111.877197 1108.075684,105.130692 
	C1074.940430,105.130692 1042.233276,105.130692 1009.373840,105.130692 
	C1008.696106,102.396317 1008.559143,100.866562 1012.006958,100.933037 
	C1021.834717,101.122482 1031.668579,100.999481 1042.000000,100.999413 
M1271.500000,44.999798 
	C1229.405884,44.999798 1187.311646,44.999798 1145.289307,44.999798 
	C1145.289307,83.978401 1145.289307,122.382492 1145.289307,160.713257 
	C1277.312622,160.713257 1409.046509,160.713257 1540.710693,160.713257 
	C1540.710693,122.021568 1540.710693,83.617470 1540.710693,44.999798 
	C1451.114502,44.999798 1361.807251,44.999798 1271.500000,44.999798 
z"/>
<path fill="#000000" opacity="1.000000" stroke="none" 
	d="
M230.000000,164.999283 
	C166.858200,164.999283 104.216408,164.999283 41.287796,164.999283 
	C41.287796,123.710663 41.287796,82.639938 41.287796,41.284649 
	C175.627106,41.284649 310.028198,41.284649 444.829926,41.284649 
	C444.829926,60.958344 444.829926,80.699715 444.829926,100.843155 
	C471.635559,100.843155 498.046082,100.843155 524.406494,100.843155 
	C524.891968,104.953362 524.891968,104.991035 521.010315,104.993088 
	C497.511292,105.005486 474.012299,104.999275 450.513275,104.999275 
	C448.867828,104.999275 447.222351,104.999275 445.178040,104.999275 
	C445.178040,124.947456 445.178040,144.688828 445.178040,164.999283 
	C373.352753,164.999283 301.926392,164.999283 230.000000,164.999283 
M50.599014,161.002319 
	C180.683670,161.002319 310.768311,161.002319 440.677826,161.002319 
	C440.677826,121.951965 440.677826,83.546059 440.677826,45.323753 
	C308.615082,45.323753 176.876999,45.323753 45.149445,45.323753 
	C45.149445,83.937042 45.149445,122.224052 45.149445,161.002319 
	C46.736427,161.002319 48.179077,161.002319 50.599014,161.002319 
z"/>
<path fill="#191919" opacity="1.000000" stroke="none" 
	d="
M725.583069,100.060959 
	C725.582886,105.050529 725.748718,109.560753 725.471863,114.043633 
	C725.397827,115.243164 723.972229,116.359230 723.167053,117.513611 
	C722.682190,117.250763 722.197266,116.987915 721.712402,116.725067 
	C721.712402,109.607185 721.712402,102.489296 721.712402,94.956398 
	C718.828613,94.956398 716.273987,94.956398 713.327393,94.956398 
	C713.327393,102.060890 713.327393,109.147118 713.327393,116.610481 
	C711.817810,116.750191 710.649597,116.858307 709.082275,117.003357 
	C709.082275,110.655800 709.115234,104.679260 709.062561,98.703476 
	C709.046448,96.874588 709.890076,94.396904 706.561279,94.462845 
	C706.702820,93.294571 706.621887,92.033310 707.058594,90.988373 
	C707.389954,90.195305 708.827881,89.783211 709.007629,89.021004 
	C710.613953,82.209602 711.844238,81.346565 720.693481,82.747955 
	C718.888306,84.231224 717.925659,85.695648 716.866516,85.769119 
	C713.367126,86.011841 712.589233,87.684982 713.465149,90.887772 
	C715.969788,90.887772 718.452698,90.887772 720.905884,90.887772 
	C722.808533,83.354515 724.761475,81.259666 729.544800,82.100754 
	C730.613281,82.288643 731.454163,83.771103 733.276978,85.479721 
	C728.711853,86.072533 724.882629,85.162811 725.769775,90.517365 
	C727.139587,90.764420 728.655518,91.037827 730.171448,91.311234 
	C730.391785,91.761917 730.612183,92.212608 730.832581,92.663292 
	C729.282349,93.611588 727.732178,94.559891 725.583130,95.874496 
	C725.583130,96.626587 725.583130,98.098976 725.583069,100.060959 
z"/>
<path fill="#1A1A1A" opacity="1.000000" stroke="none" 
	d="
M946.239624,92.655212 
	C947.277649,95.555290 948.484863,98.163925 948.663452,100.841171 
	C949.005493,105.968307 948.762878,111.134438 948.762878,116.695343 
	C947.384338,116.791985 946.193176,116.875488 944.781128,116.974472 
	C944.781128,111.301636 944.755310,105.978661 944.790955,100.656097 
	C944.811829,97.542870 944.197632,94.769623 940.430420,94.658676 
	C936.682739,94.548309 934.395081,96.729500 934.230774,100.412834 
	C933.993652,105.725868 934.170166,111.057343 934.170166,116.447464 
	C931.483459,117.533195 929.938965,117.443512 930.043762,114.066437 
	C930.183228,109.575096 930.103577,105.075592 930.055176,100.580276 
	C930.025146,97.796127 929.714294,94.988869 926.130005,94.691490 
	C922.359985,94.378685 919.875000,96.373512 919.657410,100.059143 
	C919.334961,105.522568 919.573914,111.019135 919.573914,116.433907 
	C916.455627,117.622826 915.142761,117.140282 915.196838,113.947311 
	C915.323425,106.469826 915.237366,98.988739 915.237366,90.219612 
	C917.269470,91.435982 918.530396,92.190758 920.254211,93.222572 
	C926.248718,89.791260 928.634521,89.924965 933.549438,94.732239 
	C937.165283,91.526680 941.106873,89.359779 946.239624,92.655212 
z"/>
<path fill="#181818" opacity="1.000000" stroke="none" 
	d="
M630.665283,115.526131 
	C629.388916,110.632576 628.229858,106.121658 627.027832,101.622192 
	C626.964355,101.384583 626.537048,101.244179 625.146118,100.243156 
	C623.963257,104.993263 622.948242,109.318962 621.779114,113.602585 
	C621.456360,114.785355 620.674622,115.842888 620.103516,116.957886 
	C618.671631,116.082275 616.355652,115.499611 615.952515,114.283081 
	C613.494995,106.867180 611.472168,99.307213 609.250000,91.606712 
	C612.068115,90.128006 613.374634,91.036469 614.067505,93.989914 
	C615.277161,99.146187 616.739197,104.243233 619.342285,109.503426 
	C620.644409,104.484108 621.800659,99.419273 623.343872,94.475189 
	C623.767822,93.116852 625.348755,92.119606 626.398743,90.956665 
	C627.292297,92.091217 628.626099,93.097359 629.001221,94.383163 
	C630.425964,99.266846 631.540771,104.240974 633.788635,109.207603 
	C634.856689,105.647255 635.578369,101.929520 637.102295,98.576363 
	C638.320251,95.896347 636.681824,90.703667 642.957520,91.084290 
	C640.502014,99.236107 638.171387,106.979355 635.836548,114.721313 
	C634.837952,118.032623 633.006409,117.833702 630.665283,115.526131 
z"/>
<path fill="#1D1D1D" opacity="1.000000" stroke="none" 
	d="
M669.230408,103.982407 
	C670.154602,100.592827 670.502930,97.251556 672.130371,94.738739 
	C674.962158,90.366280 679.821472,90.115601 686.346252,93.557358 
	C686.346252,89.631279 686.346252,85.970306 686.346252,82.161674 
	C688.046143,82.161674 689.152405,82.161674 690.404785,82.161674 
	C690.404785,93.806595 690.404785,105.244919 690.404785,116.067162 
	C686.558716,116.408188 683.023560,117.005074 679.494568,116.970230 
	C673.741638,116.913437 670.230042,112.415771 669.230408,103.982407 
M682.821899,95.158607 
	C678.436951,93.782181 675.361145,95.111633 673.935181,99.589043 
	C672.215698,104.987656 673.976929,111.152679 677.634399,112.824585 
	C680.997253,114.361839 684.874512,112.954620 686.080750,109.224777 
	C687.657715,104.348557 687.939941,99.448517 682.821899,95.158607 
z"/>
<path fill="#131313" opacity="1.000000" stroke="none" 
	d="
M785.095276,105.036301 
	C783.004883,105.036301 781.399353,105.036301 779.606079,105.036301 
	C779.659241,109.191315 781.063293,111.932747 784.758606,113.031494 
	C788.179382,114.048645 790.817627,113.017860 792.918030,109.980713 
	C793.630066,108.951080 795.367920,108.630890 797.242615,107.679047 
	C796.787781,115.277679 789.153870,117.887985 784.371887,116.805481 
	C777.780334,115.313347 774.363708,109.688538 775.361450,101.794060 
	C776.221191,94.991669 781.157715,90.550789 787.390015,90.973221 
	C793.951660,91.417969 797.660095,96.169022 797.795349,105.036301 
	C793.727356,105.036301 789.653809,105.036301 785.095276,105.036301 
M782.341980,95.884552 
	C781.340637,97.516556 780.339294,99.148560 779.063477,101.227859 
	C784.672852,101.227859 789.059387,101.227859 793.514465,101.227859 
	C792.165466,94.893204 789.556091,93.540222 782.341980,95.884552 
z"/>
<path fill="#111111" opacity="1.000000" stroke="none" 
	d="
M737.296631,93.087715 
	C747.669739,88.235085 754.996277,93.158699 754.869202,104.879013 
	C748.942322,104.879013 742.998413,104.879013 736.933350,104.879013 
	C736.608582,109.054016 738.087891,111.774460 741.716064,112.966286 
	C745.308899,114.146507 748.114685,113.087166 750.224731,109.732590 
	C750.821594,108.783669 752.612366,108.585663 754.474915,107.773048 
	C753.072021,114.070396 749.948181,116.728935 744.696228,117.012299 
	C739.270935,117.305016 734.496277,114.367195 733.180420,109.335426 
	C731.637817,103.436501 731.894470,97.732803 737.296631,93.087715 
M745.284546,101.611671 
	C747.041260,101.611671 748.797974,101.611671 750.654358,101.611671 
	C749.722290,96.144188 747.269043,93.905281 743.118652,94.563599 
	C739.379089,95.156754 736.802795,96.999840 737.161682,101.611610 
	C739.758423,101.611610 742.078064,101.611610 745.284546,101.611671 
z"/>
<path fill="#0A0A0A" opacity="1.000000" stroke="none" 
	d="
M849.152344,81.982025 
	C854.457275,81.982208 859.286438,81.823433 864.091064,82.096230 
	C865.267639,82.163033 866.364014,83.641808 867.497314,84.471413 
	C867.237671,84.946991 866.977966,85.422569 866.718323,85.898148 
	C860.783386,85.898148 854.848450,85.898148 848.612854,85.898148 
	C848.612854,89.646667 848.612854,93.042160 848.612854,96.982185 
	C852.757141,96.982185 857.021667,96.936272 861.284668,96.997856 
	C864.274292,97.041046 864.273315,97.106529 864.008240,100.997032 
	C858.934814,100.997032 853.827881,100.997032 848.390503,100.997032 
	C848.390503,106.428246 848.390503,111.524918 848.390503,116.812485 
	C846.931396,116.812485 845.809998,116.812485 844.129639,116.812485 
	C844.129639,111.041351 844.129639,105.277237 844.129639,99.513123 
	C844.129639,93.886368 844.129639,88.259613 844.129639,82.278336 
	C845.806030,82.168877 847.236816,82.075455 849.152344,81.982025 
z"/>
<path fill="#1A1A1A" opacity="1.000000" stroke="none" 
	d="
M803.236938,103.014679 
	C803.236938,98.880043 803.236938,95.237663 803.236938,90.353699 
	C805.207947,91.435478 806.467285,92.126694 808.493408,93.238739 
	C808.731689,93.112885 810.096680,92.214828 811.585754,91.636467 
	C817.534546,89.325989 822.928650,92.676697 823.162476,99.002853 
	C823.376953,104.803673 823.208008,110.618668 823.208008,116.542709 
	C820.569214,117.583717 819.101746,117.317131 819.203979,114.038643 
	C819.338562,109.724548 819.196533,105.402580 819.244385,101.084785 
	C819.284180,97.492485 818.217712,94.707115 814.102417,94.634789 
	C810.213501,94.566429 807.674744,96.651726 807.485840,100.578171 
	C807.231018,105.872719 807.422485,111.188728 807.422485,116.489906 
	C804.479797,117.614151 803.070862,117.171547 803.204346,113.969238 
	C803.349487,110.487404 803.237122,106.994827 803.236938,103.014679 
z"/>
<path fill="#161616" opacity="1.000000" stroke="none" 
	d="
M605.968994,109.680862 
	C602.087219,116.598160 595.510498,118.827866 589.533569,115.591080 
	C584.022034,112.606354 581.875854,103.465065 585.152588,96.930901 
	C587.775330,91.700890 594.520752,89.502586 600.190002,92.030281 
	C605.858521,94.557648 607.872437,100.459877 605.968994,109.680862 
M593.029968,94.941528 
	C587.755737,97.977600 585.991638,106.008064 589.577942,110.655586 
	C591.988586,113.779556 596.770691,114.472610 599.700439,111.864319 
	C603.403198,108.567886 603.251038,104.199623 602.128174,99.932663 
	C601.047607,95.826485 598.060669,94.141045 593.029968,94.941528 
z"/>
<path fill="#181818" opacity="1.000000" stroke="none" 
	d="
M888.566284,96.804123 
	C893.405212,90.570488 899.849670,89.235168 905.287537,93.032982 
	C910.158020,96.434692 911.802429,105.274796 908.667969,111.206154 
	C905.945007,116.358856 899.124451,118.481102 893.510498,115.922478 
	C887.522583,113.193420 885.538452,105.920372 888.566284,96.804123 
M900.941406,113.010735 
	C905.954346,109.913101 907.723572,102.738281 904.665161,97.909821 
	C902.423096,94.370125 897.495850,93.499649 894.190125,96.059288 
	C891.260559,98.327690 890.125610,104.121765 891.845703,108.560631 
	C893.310913,112.341721 896.114685,113.896881 900.941406,113.010735 
z"/>
<path fill="#111111" opacity="1.000000" stroke="none" 
	d="
M983.027222,109.935051 
	C983.825806,108.410759 984.514282,106.588226 985.773987,106.009842 
	C990.257385,103.951317 994.935120,102.316269 999.955200,100.358604 
	C994.739075,95.528801 986.287415,96.042709 982.418518,89.935631 
	C982.708740,89.440781 982.998901,88.945938 983.289124,88.451088 
	C990.189209,91.455254 997.142029,94.351532 1003.895569,97.655235 
	C1004.475708,97.939056 1004.256897,102.152641 1003.524414,102.464920 
	C996.854553,105.308258 989.988098,107.690475 983.027222,109.935051 
z"/>
<path fill="#111111" opacity="1.000000" stroke="none" 
	d="
M955.323608,92.045532 
	C954.988342,90.872047 954.909180,89.909706 954.771362,88.235031 
	C962.064819,91.395996 968.859192,94.273468 975.567871,97.338326 
	C976.351685,97.696419 977.186646,99.168907 977.062317,99.981613 
	C976.902649,101.025566 976.001587,102.416718 975.065063,102.807022 
	C968.653564,105.479218 962.148926,107.928345 955.674316,110.449333 
	C955.307739,110.161224 954.941223,109.873116 954.574646,109.585007 
	C955.442993,108.415260 956.063904,106.688599 957.223145,106.173515 
	C961.896912,104.096832 966.736877,102.394173 972.652893,100.115166 
	C966.417603,97.245186 960.998657,94.750931 955.323608,92.045532 
z"/>
<path fill="#111111" opacity="1.000000" stroke="none" 
	d="
M571.902527,107.986618 
	C567.384277,106.232727 563.188354,104.682442 559.111389,102.865196 
	C558.139038,102.431770 557.019714,101.141930 556.958252,100.182495 
	C556.895874,99.209846 557.820435,97.641853 558.723938,97.224472 
	C565.301025,94.185913 571.981873,91.371956 579.009521,88.322311 
	C579.669373,94.349937 574.520447,93.482864 571.902100,95.090996 
	C568.896606,96.936890 565.499939,98.145851 562.064575,99.727577 
	C567.526001,104.113235 575.760681,102.988945 579.424561,109.205917 
	C579.179626,109.639290 578.934692,110.072670 578.689758,110.506042 
	C576.549316,109.701508 574.408875,108.896980 571.902527,107.986618 
z"/>
<path fill="#111111" opacity="1.000000" stroke="none" 
	d="
M549.905640,88.811829 
	C552.632812,91.284836 550.736328,92.197357 548.575623,93.148399 
	C543.795349,95.252403 539.050964,97.438087 533.860107,99.785774 
	C539.713013,103.779190 547.308899,103.720596 551.772705,108.676262 
	C551.410889,109.300224 551.049072,109.924194 550.687317,110.548157 
	C544.073547,107.988548 537.429993,105.501007 530.880066,102.787460 
	C529.954712,102.404114 528.942200,100.909622 528.958130,99.945717 
	C528.974182,98.971252 530.009521,97.566826 530.958252,97.127022 
	C537.120911,94.270355 543.381653,91.625336 549.905640,88.811829 
z"/>
<path fill="#181818" opacity="1.000000" stroke="none" 
	d="
M834.914124,108.683868 
	C835.729065,110.467224 836.484802,111.829803 837.376648,113.096527 
	C838.137268,114.176796 839.054260,115.146904 840.229248,116.558899 
	C832.461365,117.340233 831.021362,116.128273 830.959961,109.703552 
	C830.928223,106.382416 830.954407,103.060730 830.954285,99.739288 
	C830.954224,98.908928 831.306580,97.651146 830.898621,97.314201 
	C826.773743,93.907135 830.059326,90.611038 831.024841,87.378143 
	C831.451477,85.949593 832.603455,84.737640 833.426147,83.427353 
	C833.842957,83.596176 834.259766,83.764999 834.676575,83.933815 
	C834.793579,85.987823 834.910583,88.041832 835.017273,89.914635 
	C836.397522,90.822830 837.710266,91.686646 839.023071,92.550446 
	C837.810852,93.558830 836.598633,94.567215 834.913940,95.968681 
	C834.913940,99.609329 834.913940,103.915421 834.914124,108.683868 
z"/>
<path fill="#1A1A1A" opacity="1.000000" stroke="none" 
	d="
M650.516968,116.326836 
	C649.207153,116.809494 648.092163,116.890411 646.798950,116.984261 
	C646.798950,105.260483 646.798950,93.835709 646.798950,82.397804 
	C650.106140,81.076553 650.848816,82.489616 650.807861,85.541901 
	C650.671753,95.668228 650.728760,105.797165 650.516968,116.326836 
z"/>
<path fill="#191919" opacity="1.000000" stroke="none" 
	d="
M872.644653,98.164688 
	C872.644653,95.561279 872.644653,93.434044 872.644653,91.876778 
	C877.081665,91.876778 881.118347,91.876778 886.852905,91.876778 
	C884.829590,93.472214 883.826294,94.886055 883.058289,94.768066 
	C877.985474,93.988777 877.009094,97.277802 876.767090,100.991600 
	C876.487366,105.281677 876.785095,109.610229 876.483154,113.897507 
	C876.395386,115.144279 875.112549,116.306923 874.377563,117.508141 
	C873.799927,117.274628 873.222229,117.041107 872.644592,116.807594 
	C872.644592,110.752014 872.644592,104.696434 872.644653,98.164688 
z"/>
<path fill="#191919" opacity="1.000000" stroke="none" 
	d="
M764.583069,110.821304 
	C764.583008,113.088623 764.583008,114.887672 764.583008,116.834320 
	C763.100464,116.834320 761.994507,116.834320 760.776550,116.834320 
	C760.776550,108.201759 760.776550,99.771835 760.776550,91.895309 
	C765.026428,91.895309 769.069153,91.895309 774.652954,91.895309 
	C772.844910,93.426559 771.863525,94.889030 771.136230,94.772018 
	C766.104370,93.962502 765.076416,97.158516 764.764038,100.917427 
	C764.504089,104.046036 764.628784,107.206619 764.583069,110.821304 
z"/>
<path fill="#1A1A1A" opacity="1.000000" stroke="none" 
	d="
M701.218140,104.983505 
	C701.218140,109.132439 701.218140,112.790367 701.218140,116.548332 
	C698.522278,117.607033 697.140503,117.241173 697.200378,114.002953 
	C697.323425,107.346352 697.121094,100.681992 697.343384,94.030548 
	C697.383972,92.815979 698.804932,91.647552 699.588745,90.457832 
	C700.131836,90.705757 700.674988,90.953682 701.218140,91.201614 
	C701.218140,95.631905 701.218140,100.062202 701.218140,104.983505 
z"/>
<path fill="#1D1D1D" opacity="1.000000" stroke="none" 
	d="
M662.372070,112.133842 
	C662.862610,113.714394 662.989929,115.170052 663.137085,116.851776 
	C661.498596,116.851776 660.213379,116.851776 658.790710,116.851776 
	C658.180359,114.053162 657.444458,111.320847 662.372070,112.133842 
z"/>
<path fill="#1D1D1D" opacity="1.000000" stroke="none" 
	d="
M662.891357,92.635551 
	C663.469604,96.047440 662.805725,97.979309 658.709717,96.700447 
	C658.599609,95.496925 658.471985,94.102753 658.285156,92.060783 
	C660.001099,92.143837 661.379456,92.210548 662.891357,92.635551 
z"/>
<path fill="#FEFEFE" opacity="1.000000" stroke="none" 
	d="
M1272.000000,44.999798 
	C1361.807251,44.999798 1451.114502,44.999798 1540.710693,44.999798 
	C1540.710693,83.617470 1540.710693,122.021568 1540.710693,160.713257 
	C1409.046509,160.713257 1277.312622,160.713257 1145.289307,160.713257 
	C1145.289307,122.382492 1145.289307,83.978401 1145.289307,44.999798 
	C1187.311646,44.999798 1229.405884,44.999798 1272.000000,44.999798 
M1355.500000,124.998466 
	C1368.820801,124.998444 1382.141602,125.014160 1395.462402,124.987473 
	C1398.839722,124.980705 1398.839600,124.918671 1398.486816,121.181030 
	C1342.105103,121.181030 1285.714233,121.181030 1228.972168,121.181030 
	C1229.074585,122.554031 1229.161621,123.720795 1229.256836,124.998466 
	C1271.264282,124.998466 1312.882202,124.998466 1355.500000,124.998466 
M1297.986084,109.395531 
	C1303.730835,117.120422 1312.504028,119.219063 1320.276489,114.727570 
	C1327.598755,110.496216 1330.325317,99.433327 1326.173706,90.800659 
	C1322.612915,83.396660 1314.005249,80.112221 1305.833984,83.039597 
	C1296.481812,86.390038 1292.891357,97.664627 1297.986084,109.395531 
M1421.769653,91.014954 
	C1420.605713,91.688301 1419.441895,92.361649 1417.890869,93.258919 
	C1412.730713,90.176491 1408.717163,90.169792 1405.032959,93.682739 
	C1400.760376,97.756744 1399.573364,106.386734 1403.227661,111.740303 
	C1404.762939,113.989548 1407.594116,116.072945 1410.194946,116.670654 
	C1412.713379,117.249382 1415.692383,115.823677 1420.265137,114.925629 
	C1418.162476,118.247101 1417.221191,121.405075 1415.148071,122.601234 
	C1412.326782,124.228996 1408.785278,124.149521 1406.180420,120.917084 
	C1405.384155,119.928841 1403.732788,119.629623 1401.912476,118.741333 
	C1403.336182,125.022156 1406.457886,127.269485 1412.222046,127.041122 
	C1418.052856,126.810127 1422.202637,123.761955 1422.480591,118.206856 
	C1422.928345,109.256340 1422.590942,100.266556 1421.769653,91.014954 
M1351.346191,93.699158 
	C1350.546509,95.035728 1349.746826,96.372292 1348.947144,97.708855 
	C1349.245605,98.106621 1349.544067,98.504387 1349.842529,98.902153 
	C1351.047485,98.384331 1352.690308,98.198715 1353.379883,97.289825 
	C1356.026855,93.801674 1359.484985,94.079346 1362.780640,95.339417 
	C1364.012939,95.810562 1364.888550,98.050125 1365.203003,99.627594 
	C1365.311279,100.171059 1363.323975,101.532875 1362.115601,101.857819 
	C1359.252808,102.627655 1356.221558,102.782799 1353.372681,103.589874 
	C1349.985107,104.549507 1348.022827,107.001282 1348.223389,110.620354 
	C1348.430786,114.363159 1351.040649,116.603233 1354.369629,116.693398 
	C1358.011108,116.792046 1361.686157,115.654602 1365.604858,115.013634 
	C1366.463135,115.523453 1368.061157,116.472572 1370.176514,117.729065 
	C1369.922119,113.794029 1369.685669,111.172615 1369.601440,108.546310 
	C1369.516235,105.890831 1369.619141,103.229866 1369.573853,100.572426 
	C1369.452393,93.434235 1366.567383,90.553703 1359.441162,91.048737 
	C1356.890381,91.225937 1354.412476,92.452133 1351.346191,93.699158 
M1441.964111,91.192329 
	C1434.001709,90.728493 1429.336914,94.349937 1428.379517,101.738419 
	C1427.355713,109.638329 1430.765137,115.287697 1437.352783,116.796288 
	C1442.111816,117.886086 1449.801270,115.281548 1450.224976,107.661011 
	C1448.347534,108.637161 1446.627808,108.976036 1445.907349,110.010757 
	C1443.794678,113.044594 1441.144897,114.063255 1437.725342,113.030014 
	C1434.030884,111.913734 1432.649658,109.156242 1432.588745,105.026886 
	C1438.703979,105.026886 1444.621216,105.026886 1450.492920,105.026886 
	C1451.053101,97.420166 1449.158813,94.223610 1441.964111,91.192329 
M1272.376709,111.865623 
	C1266.922852,114.471832 1264.940674,113.971466 1261.326904,109.629387 
	C1260.639160,108.802940 1259.014648,108.756149 1257.215454,108.142731 
	C1259.683350,117.054352 1269.466431,119.828148 1275.213867,114.330154 
	C1279.085693,110.626350 1278.039307,105.051109 1272.988403,103.076958 
	C1270.679565,102.174576 1268.099976,101.911682 1265.875366,100.865341 
	C1264.320435,100.134033 1263.159302,98.565628 1261.822266,97.371109 
	C1263.567627,96.429047 1265.286743,94.812096 1267.066162,94.742577 
	C1268.709351,94.678383 1270.409424,96.289215 1272.099365,97.132744 
	C1273.298828,97.731590 1274.522949,98.281265 1276.753296,99.332207 
	C1274.060547,90.877968 1264.801392,88.520401 1259.834473,93.493011 
	C1256.546143,96.785088 1257.284424,101.857613 1261.599365,103.839119 
	C1264.134399,105.003281 1266.988159,105.456749 1269.659790,106.346031 
	C1271.928101,107.101067 1274.327881,107.898041 1272.376709,111.865623 
M1252.215454,99.302071 
	C1250.910889,90.589027 1245.335449,88.627609 1237.112061,93.383034 
	C1235.618530,92.334305 1234.366821,91.455421 1232.433105,90.097618 
	C1232.433105,99.779144 1232.433105,108.214249 1232.433105,116.844360 
	C1233.732056,116.844360 1234.836304,116.844360 1236.471924,116.844360 
	C1236.471924,111.215218 1236.247559,105.743225 1236.546509,100.299988 
	C1236.765869,96.305573 1239.568481,94.458420 1243.391724,94.642853 
	C1247.200684,94.826614 1248.265503,97.489090 1248.242554,100.883621 
	C1248.206909,106.168549 1248.233154,111.453888 1248.233154,116.821198 
	C1249.809204,116.821198 1250.917603,116.821198 1252.217285,116.821198 
	C1252.217285,111.123604 1252.217285,105.643112 1252.215454,99.302071 
M1380.217285,105.564735 
	C1380.354004,103.582413 1380.319092,101.569656 1380.663940,99.624222 
	C1381.337891,95.821754 1384.065308,94.429474 1387.578491,94.665558 
	C1391.099487,94.902153 1392.235596,97.354095 1392.226685,100.569229 
	C1392.214355,105.054199 1392.335693,109.542267 1392.204590,114.023285 
	C1392.109253,117.278099 1393.546509,117.595703 1396.208374,116.546135 
	C1396.208374,110.628647 1396.376587,104.812881 1396.163086,99.011177 
	C1395.930054,92.682320 1390.536377,89.327278 1384.587646,91.637009 
	C1383.097656,92.215469 1381.732300,93.114571 1381.490479,93.242386 
	C1379.467041,92.128906 1378.210449,91.437378 1376.238770,90.352333 
	C1376.238770,99.059532 1376.320679,106.524422 1376.200562,113.986053 
	C1376.148804,117.197144 1377.498779,117.610451 1380.217163,116.560089 
	C1380.217163,113.158058 1380.217163,109.840080 1380.217285,105.564735 
M1343.203125,94.695923 
	C1344.376709,94.281250 1345.550171,93.866570 1346.723755,93.451889 
	C1346.603516,92.928970 1346.483398,92.406059 1346.363159,91.883141 
	C1342.237183,91.883141 1338.111206,91.883141 1333.821045,91.883141 
	C1333.821045,99.850967 1333.821045,108.272568 1333.821045,116.694160 
	C1334.242065,116.967239 1334.663208,117.240318 1335.084229,117.513397 
	C1335.916382,116.386490 1337.379150,115.307144 1337.468384,114.124214 
	C1337.804565,109.667671 1337.570190,105.171234 1337.793823,100.701973 
	C1337.940552,97.772751 1338.716553,95.023262 1343.203125,94.695923 
M1451.215210,124.995644 
	C1451.950439,123.903023 1452.685791,122.810394 1453.736938,121.248474 
	C1443.637939,121.248474 1434.913330,121.248474 1426.243408,121.248474 
	C1426.243408,122.577721 1426.243408,123.642075 1426.243408,124.998260 
	C1434.406006,124.998260 1442.335815,124.998260 1451.215210,124.995644 
M1284.991577,96.990143 
	C1289.555176,97.678230 1288.817261,94.945686 1288.207886,92.149109 
	C1286.788574,92.149109 1285.502441,92.149109 1283.864014,92.149109 
	C1284.011108,93.830299 1284.138306,95.285416 1284.991577,96.990143 
M1288.088013,116.789650 
	C1288.263062,115.270744 1288.438110,113.751839 1288.649414,111.918945 
	C1286.674927,112.040222 1285.416016,112.117538 1284.186279,112.193077 
	C1283.766479,115.000710 1283.114624,117.700348 1288.088013,116.789650 
z"/>
<path fill="#FEFEFE" opacity="1.000000" stroke="none" 
	d="
M50.110371,161.002319 
	C48.179077,161.002319 46.736427,161.002319 45.149445,161.002319 
	C45.149445,122.224052 45.149445,83.937042 45.149445,45.323753 
	C176.876999,45.323753 308.615082,45.323753 440.677826,45.323753 
	C440.677826,83.546059 440.677826,121.951965 440.677826,161.002319 
	C310.768311,161.002319 180.683670,161.002319 50.110371,161.002319 
M160.500000,124.997673 
	C188.262894,124.997673 216.025787,124.997673 243.757721,124.997673 
	C243.757721,123.440285 243.757721,122.366676 243.757721,121.234077 
	C196.961853,121.234077 150.400833,121.234077 103.948227,121.234077 
	C102.624153,125.217377 105.025009,125.027283 107.548157,125.020851 
	C124.865341,124.976685 142.182693,124.997665 160.500000,124.997673 
M360.499023,121.002327 
	C330.744537,121.002327 300.990051,121.002327 271.229858,121.002327 
	C271.229858,122.548935 271.229858,123.616402 271.229858,124.772995 
	C307.013123,124.772995 342.573853,124.772995 378.134613,124.772995 
	C378.392334,124.342316 378.650085,123.911636 378.907837,123.480957 
	C377.765839,122.654892 376.662231,121.187019 375.475098,121.116089 
	C370.830597,120.838570 366.159760,121.002472 360.499023,121.002327 
M262.959900,114.908981 
	C263.378510,115.226143 264.205933,115.713638 264.155273,115.835281 
	C263.191345,118.148773 262.598480,121.824242 260.968628,122.374718 
	C258.415924,123.236885 255.089310,122.221291 252.207886,121.519257 
	C250.803116,121.177017 249.663589,119.746132 247.692368,118.278023 
	C248.534622,124.636200 251.339218,126.931549 256.974030,127.031158 
	C263.026794,127.138153 267.655304,123.968231 267.918915,118.434639 
	C268.350464,109.375839 268.035645,100.281479 268.035645,90.156532 
	C266.124023,91.448479 264.870300,92.295799 263.478394,93.236496 
	C256.837616,89.659958 250.718597,90.697716 248.429657,96.908981 
	C247.076309,100.581406 246.756744,105.164055 247.576553,108.993980 
	C249.116852,116.189789 255.406250,118.553223 262.959900,114.908981 
M207.919418,91.146217 
	C199.361496,90.636002 196.318909,92.193268 194.146194,99.666031 
	C196.459320,98.335175 197.928558,97.884308 198.817001,96.905991 
	C201.675079,93.758728 205.078171,94.069244 208.343414,95.512581 
	C209.474808,96.012688 210.372421,98.104805 210.441162,99.515343 
	C210.477737,100.265961 208.622604,101.509819 207.431442,101.834587 
	C205.049927,102.483910 202.518097,102.555878 200.083694,103.042946 
	C195.644058,103.931213 192.831619,107.229813 193.427551,110.964058 
	C194.136017,115.403389 197.448273,117.120522 201.358353,116.902306 
	C204.527466,116.725441 207.631363,115.380287 209.974548,114.761757 
	C211.794907,115.765060 213.320145,116.605705 214.750015,117.393791 
	C214.750015,110.929909 214.704361,105.338142 214.764740,99.747536 
	C214.811508,95.417877 213.262558,92.327545 207.919418,91.146217 
M275.107422,110.995407 
	C277.793640,115.816231 282.070038,117.590050 287.299408,116.841522 
	C291.718201,116.209023 294.779602,113.707283 295.402313,108.542435 
	C293.727112,108.767982 292.031036,109.261879 291.163727,110.391876 
	C288.884552,113.361488 286.067291,114.123863 282.794220,112.885193 
	C279.364410,111.587196 277.930115,108.890503 278.175293,104.751663 
	C284.450500,104.751663 290.358826,104.751663 296.274109,104.751663 
	C296.459381,98.909775 295.018524,94.357147 289.681396,91.982201 
	C285.283630,90.025253 281.029572,90.698563 277.644745,93.976791 
	C272.882233,98.589302 273.057434,104.349838 275.107422,110.995407 
M374.503601,96.103210 
	C370.167175,90.963409 365.148895,89.613586 359.995605,92.200790 
	C354.977631,94.720070 352.491119,101.648659 354.182068,108.400070 
	C355.529694,113.780670 359.920959,117.109413 365.561554,117.026146 
	C371.048462,116.945152 374.431610,114.177025 375.797516,107.728676 
	C373.946106,108.566521 372.175629,108.789421 371.558441,109.751884 
	C369.424500,113.079720 366.612946,114.172958 363.021576,112.958031 
	C359.444458,111.747925 357.935272,109.023834 358.175903,104.868835 
	C364.246460,104.868835 370.180267,104.868835 376.832672,104.868835 
	C376.098328,101.805122 375.492889,99.279076 374.503601,96.103210 
M221.643341,112.184937 
	C221.643341,113.672501 221.643341,115.160057 221.643341,116.841896 
	C223.009064,116.841896 224.121460,116.841896 225.741333,116.841896 
	C225.741333,111.530304 225.663620,106.387665 225.765762,101.248596 
	C225.848572,97.081276 228.101089,94.654350 232.287323,94.638618 
	C236.747025,94.621849 237.651321,97.764595 237.643906,101.462097 
	C237.633682,106.565521 237.641357,111.668991 237.641357,116.772438 
	C238.138321,117.050529 238.635269,117.328621 239.132233,117.606712 
	C239.948822,116.558197 241.424591,115.537643 241.470459,114.456436 
	C241.695969,109.140594 241.791840,103.792755 241.454544,98.486656 
	C241.083466,92.649155 235.939270,89.547043 230.316513,91.467430 
	C228.808273,91.982559 227.404831,92.804558 226.839981,93.069603 
	C224.875534,92.037292 223.581894,91.357483 221.643402,90.338814 
	C221.643402,97.984451 221.643402,104.617577 221.643341,112.184937 
M125.386238,94.318123 
	C120.715088,90.070755 118.168373,89.924248 111.847771,93.136810 
	C110.084038,92.187569 108.717285,91.451981 107.032242,90.545082 
	C107.032242,99.937004 107.032242,108.351860 107.032242,116.766724 
	C107.486267,117.019432 107.940285,117.272141 108.394310,117.524849 
	C109.177376,116.341736 110.545952,115.202843 110.639244,113.967636 
	C110.989113,109.335167 110.709251,104.654213 111.078644,100.024414 
	C111.379944,96.248123 114.088654,94.553169 117.656311,94.618027 
	C121.419357,94.686440 122.780128,97.179741 122.786804,100.631020 
	C122.797081,105.947647 122.789520,111.264313 122.789520,116.939125 
	C124.180443,116.854553 125.363663,116.782600 127.191200,116.671478 
	C126.705772,109.177444 126.247047,102.095680 125.386238,94.318123 
M337.967682,91.118591 
	C336.061737,91.997055 334.155792,92.875526 333.462158,93.195213 
	C331.453979,92.117088 330.195251,91.441322 328.240204,90.391724 
	C328.240204,99.094940 328.320374,106.568436 328.203278,114.038834 
	C328.151794,117.323463 329.573120,117.581413 332.528564,116.407654 
	C332.528564,110.937149 332.286316,105.445694 332.612000,99.988136 
	C332.836884,96.219566 335.634247,94.534462 339.212219,94.633850 
	C342.993164,94.738861 344.258911,97.242897 344.236694,100.703903 
	C344.207855,105.193558 344.300385,109.684731 344.219604,114.173073 
	C344.159241,117.526566 345.779785,117.455910 348.216339,116.473007 
	C348.216339,110.963989 348.267456,105.645264 348.203522,100.327934 
	C348.122253,93.568329 345.913239,91.428375 337.967682,91.118591 
M136.870743,92.012413 
	C135.505615,94.426056 132.920700,96.957642 133.139297,99.218140 
	C133.334137,101.233177 136.489456,103.136589 138.614029,104.719055 
	C139.730286,105.550491 141.468719,105.501442 142.870636,106.004745 
	C145.169205,106.829956 149.259888,106.706398 147.708374,110.444626 
	C147.038940,112.057602 143.141357,112.813148 140.641998,112.989174 
	C139.309860,113.083000 137.892639,111.012131 136.400879,110.103775 
	C135.238907,109.396233 133.902466,108.975273 131.500473,107.929077 
	C134.933228,116.608185 142.220367,119.436737 148.286758,115.374023 
	C150.268219,114.047012 152.058090,110.831963 151.988556,108.539459 
	C151.930496,106.625603 149.304504,104.382683 147.305115,103.053795 
	C145.455719,101.824600 142.802704,101.874077 140.741150,100.871811 
	C139.182159,100.113884 137.997391,98.586182 136.646088,97.401062 
	C138.388458,96.449043 140.101715,94.819710 141.881729,94.743179 
	C143.528763,94.672363 145.240295,96.277748 146.936630,97.118317 
	C148.139557,97.714386 149.364471,98.266129 151.606567,99.320717 
	C149.069717,91.564102 145.085541,89.828873 136.870743,92.012413 
M194.877518,85.883636 
	C195.151917,84.681587 195.426300,83.479546 195.767715,81.983871 
	C187.188080,81.983871 179.521179,82.131050 171.864349,81.917168 
	C168.418991,81.820930 168.539886,83.376610 169.216385,86.235405 
	C172.917114,86.235405 176.485062,86.235405 180.283417,86.235405 
	C180.283417,96.709778 180.283417,106.679756 180.283417,116.953979 
	C181.751602,116.862701 182.951675,116.788094 184.340607,116.701736 
	C184.340607,106.368309 184.340607,96.392731 184.340607,86.007530 
	C187.687424,86.007530 190.834686,86.007530 194.877518,85.883636 
M301.795746,95.864426 
	C301.795746,102.801186 301.795746,109.737953 301.795746,116.674713 
	C302.245483,116.951172 302.695251,117.227631 303.144989,117.504089 
	C304.010986,116.402115 305.538544,115.350304 305.626556,114.189339 
	C305.976685,109.572090 305.696991,104.908760 306.004639,100.286064 
	C306.232941,96.855255 307.532135,94.171165 311.919525,94.705109 
	C312.832916,94.816269 313.902649,93.642815 314.900330,93.061378 
	C314.697998,92.411102 314.495697,91.760834 314.293365,91.110565 
	C311.498901,91.527290 308.704407,91.944008 305.827179,92.373077 
	C305.048096,92.028000 303.889008,91.514595 302.729889,91.001183 
	C302.418518,92.322304 302.107117,93.643425 301.795746,95.864426 
M317.872650,116.634682 
	C318.973969,116.761681 320.075287,116.888672 321.403687,117.041855 
	C321.403687,108.239670 321.403687,99.789314 321.403687,91.149742 
	C320.130371,91.149742 319.019165,91.149742 317.661285,91.149742 
	C317.661285,99.484634 317.661285,107.630836 317.872650,116.634682 
z"/>
<path fill="#F4F4F4" opacity="1.000000" stroke="none" 
	d="
M683.181641,95.358498 
	C687.939941,99.448517 687.657715,104.348557 686.080750,109.224777 
	C684.874512,112.954620 680.997253,114.361839 677.634399,112.824585 
	C673.976929,111.152679 672.215698,104.987656 673.935181,99.589043 
	C675.361145,95.111633 678.436951,93.782181 683.181641,95.358498 
z"/>
<path fill="#E2E2E2" opacity="1.000000" stroke="none" 
	d="
M782.655518,95.654800 
	C789.556091,93.540222 792.165466,94.893204 793.514465,101.227859 
	C789.059387,101.227859 784.672852,101.227859 779.063477,101.227859 
	C780.339294,99.148560 781.340637,97.516556 782.655518,95.654800 
z"/>
<path fill="#E2E2E2" opacity="1.000000" stroke="none" 
	d="
M744.841125,101.611641 
	C742.078064,101.611610 739.758423,101.611610 737.161682,101.611610 
	C736.802795,96.999840 739.379089,95.156754 743.118652,94.563599 
	C747.269043,93.905281 749.722290,96.144188 750.654358,101.611671 
	C748.797974,101.611671 747.041260,101.611671 744.841125,101.611641 
z"/>
<path fill="#F4F4F4" opacity="1.000000" stroke="none" 
	d="
M593.431946,94.846649 
	C598.060669,94.141045 601.047607,95.826485 602.128174,99.932663 
	C603.251038,104.199623 603.403198,108.567886 599.700439,111.864319 
	C596.770691,114.472610 591.988586,113.779556 589.577942,110.655586 
	C585.991638,106.008064 587.755737,97.977600 593.431946,94.846649 
z"/>
<path fill="#F7F7F7" opacity="1.000000" stroke="none" 
	d="
M900.536987,113.107315 
	C896.114685,113.896881 893.310913,112.341721 891.845703,108.560631 
	C890.125610,104.121765 891.260559,98.327690 894.190125,96.059288 
	C897.495850,93.499649 902.423096,94.370125 904.665161,97.909821 
	C907.723572,102.738281 905.954346,109.913101 900.536987,113.107315 
z"/>
<path fill="#000000" opacity="1.000000" stroke="none" 
	d="
M1355.000000,124.998466 
	C1312.882202,124.998466 1271.264282,124.998466 1229.256836,124.998466 
	C1229.161621,123.720795 1229.074585,122.554031 1228.972168,121.181030 
	C1285.714233,121.181030 1342.105103,121.181030 1398.486816,121.181030 
	C1398.839600,124.918671 1398.839722,124.980705 1395.462402,124.987473 
	C1382.141602,125.014160 1368.820801,124.998444 1355.000000,124.998466 
z"/>
<path fill="#131313" opacity="1.000000" stroke="none" 
	d="
M1297.819336,109.063148 
	C1292.891357,97.664627 1296.481812,86.390038 1305.833984,83.039597 
	C1314.005249,80.112221 1322.612915,83.396660 1326.173706,90.800659 
	C1330.325317,99.433327 1327.598755,110.496216 1320.276489,114.727570 
	C1312.504028,119.219063 1303.730835,117.120422 1297.819336,109.063148 
M1304.052612,88.398071 
	C1298.898071,93.769402 1298.513184,100.300499 1301.382812,106.414558 
	C1302.743774,109.314148 1306.677612,111.929008 1309.946411,112.804924 
	C1315.561035,114.309425 1319.988281,111.511703 1322.225098,106.718849 
	C1324.881592,101.026756 1323.786377,92.742661 1319.871826,88.917740 
	C1316.038818,85.172516 1310.665283,84.832397 1304.052612,88.398071 
z"/>
<path fill="#181818" opacity="1.000000" stroke="none" 
	d="
M1422.177490,91.154160 
	C1422.590942,100.266556 1422.928345,109.256340 1422.480591,118.206856 
	C1422.202637,123.761955 1418.052856,126.810127 1412.222046,127.041122 
	C1406.457886,127.269485 1403.336182,125.022156 1401.912476,118.741333 
	C1403.732788,119.629623 1405.384155,119.928841 1406.180420,120.917084 
	C1408.785278,124.149521 1412.326782,124.228996 1415.148071,122.601234 
	C1417.221191,121.405075 1418.162476,118.247101 1420.265137,114.925629 
	C1415.692383,115.823677 1412.713379,117.249382 1410.194946,116.670654 
	C1407.594116,116.072945 1404.762939,113.989548 1403.227661,111.740303 
	C1399.573364,106.386734 1400.760376,97.756744 1405.032959,93.682739 
	C1408.717163,90.169792 1412.730713,90.176491 1417.890869,93.258919 
	C1419.441895,92.361649 1420.605713,91.688301 1422.177490,91.154160 
M1405.826782,108.400291 
	C1407.282959,112.440758 1410.043701,114.245163 1414.288086,113.018326 
	C1418.188721,111.890869 1419.953369,107.247284 1418.951172,101.233932 
	C1418.308960,97.380615 1416.199219,94.314461 1412.218750,94.781944 
	C1409.982422,95.044601 1407.194336,97.323456 1406.176025,99.429535 
	C1405.071777,101.713234 1405.735352,104.851715 1405.826782,108.400291 
z"/>
<path fill="#191919" opacity="1.000000" stroke="none" 
	d="
M1351.623779,93.449356 
	C1354.412476,92.452133 1356.890381,91.225937 1359.441162,91.048737 
	C1366.567383,90.553703 1369.452393,93.434235 1369.573853,100.572426 
	C1369.619141,103.229866 1369.516235,105.890831 1369.601440,108.546310 
	C1369.685669,111.172615 1369.922119,113.794029 1370.176514,117.729065 
	C1368.061157,116.472572 1366.463135,115.523453 1365.604858,115.013634 
	C1361.686157,115.654602 1358.011108,116.792046 1354.369629,116.693398 
	C1351.040649,116.603233 1348.430786,114.363159 1348.223389,110.620354 
	C1348.022827,107.001282 1349.985107,104.549507 1353.372681,103.589874 
	C1356.221558,102.782799 1359.252808,102.627655 1362.115601,101.857819 
	C1363.323975,101.532875 1365.311279,100.171059 1365.203003,99.627594 
	C1364.888550,98.050125 1364.012939,95.810562 1362.780640,95.339417 
	C1359.484985,94.079346 1356.026855,93.801674 1353.379883,97.289825 
	C1352.690308,98.198715 1351.047485,98.384331 1349.842529,98.902153 
	C1349.544067,98.504387 1349.245605,98.106621 1348.947144,97.708855 
	C1349.746826,96.372292 1350.546509,95.035728 1351.623779,93.449356 
M1358.354614,113.489304 
	C1364.684204,111.963120 1365.807373,110.501915 1364.755493,104.929543 
	C1362.350342,105.303535 1359.800903,105.317307 1357.567871,106.164764 
	C1355.685425,106.879166 1354.170532,108.561798 1352.492920,109.815872 
	C1354.151123,111.044479 1355.809326,112.273087 1358.354614,113.489304 
z"/>
<path fill="#111111" opacity="1.000000" stroke="none" 
	d="
M1442.345581,91.310432 
	C1449.158813,94.223610 1451.053101,97.420166 1450.492920,105.026886 
	C1444.621216,105.026886 1438.703979,105.026886 1432.588745,105.026886 
	C1432.649658,109.156242 1434.030884,111.913734 1437.725342,113.030014 
	C1441.144897,114.063255 1443.794678,113.044594 1445.907349,110.010757 
	C1446.627808,108.976036 1448.347534,108.637161 1450.224976,107.661011 
	C1449.801270,115.281548 1442.111816,117.886086 1437.352783,116.796288 
	C1430.765137,115.287697 1427.355713,109.638329 1428.379517,101.738419 
	C1429.336914,94.349937 1434.001709,90.728493 1442.345581,91.310432 
M1446.139038,101.245155 
	C1446.981567,96.582542 1443.958740,95.018471 1440.288696,94.497604 
	C1436.176025,93.913918 1433.561035,96.527344 1433.047974,101.565758 
	C1437.189697,101.565758 1441.299561,101.565758 1446.139038,101.245155 
z"/>
<path fill="#161616" opacity="1.000000" stroke="none" 
	d="
M1272.640137,111.525665 
	C1274.327881,107.898041 1271.928101,107.101067 1269.659790,106.346031 
	C1266.988159,105.456749 1264.134399,105.003281 1261.599365,103.839119 
	C1257.284424,101.857613 1256.546143,96.785088 1259.834473,93.493011 
	C1264.801392,88.520401 1274.060547,90.877968 1276.753296,99.332207 
	C1274.522949,98.281265 1273.298828,97.731590 1272.099365,97.132744 
	C1270.409424,96.289215 1268.709351,94.678383 1267.066162,94.742577 
	C1265.286743,94.812096 1263.567627,96.429047 1261.822266,97.371109 
	C1263.159302,98.565628 1264.320435,100.134033 1265.875366,100.865341 
	C1268.099976,101.911682 1270.679565,102.174576 1272.988403,103.076958 
	C1278.039307,105.051109 1279.085693,110.626350 1275.213867,114.330154 
	C1269.466431,119.828148 1259.683350,117.054352 1257.215454,108.142731 
	C1259.014648,108.756149 1260.639160,108.802940 1261.326904,109.629387 
	C1264.940674,113.971466 1266.922852,114.471832 1272.640137,111.525665 
z"/>
<path fill="#1A1A1A" opacity="1.000000" stroke="none" 
	d="
M1252.216309,99.732346 
	C1252.217285,105.643112 1252.217285,111.123604 1252.217285,116.821198 
	C1250.917603,116.821198 1249.809204,116.821198 1248.233154,116.821198 
	C1248.233154,111.453888 1248.206909,106.168549 1248.242554,100.883621 
	C1248.265503,97.489090 1247.200684,94.826614 1243.391724,94.642853 
	C1239.568481,94.458420 1236.765869,96.305573 1236.546509,100.299988 
	C1236.247559,105.743225 1236.471924,111.215218 1236.471924,116.844360 
	C1234.836304,116.844360 1233.732056,116.844360 1232.433105,116.844360 
	C1232.433105,108.214249 1232.433105,99.779144 1232.433105,90.097618 
	C1234.366821,91.455421 1235.618530,92.334305 1237.112061,93.383034 
	C1245.335449,88.627609 1250.910889,90.589027 1252.216309,99.732346 
z"/>
<path fill="#1A1A1A" opacity="1.000000" stroke="none" 
	d="
M1380.217285,106.043427 
	C1380.217163,109.840080 1380.217163,113.158058 1380.217163,116.560089 
	C1377.498779,117.610451 1376.148804,117.197144 1376.200562,113.986053 
	C1376.320679,106.524422 1376.238770,99.059532 1376.238770,90.352333 
	C1378.210449,91.437378 1379.467041,92.128906 1381.490479,93.242386 
	C1381.732300,93.114571 1383.097656,92.215469 1384.587646,91.637009 
	C1390.536377,89.327278 1395.930054,92.682320 1396.163086,99.011177 
	C1396.376587,104.812881 1396.208374,110.628647 1396.208374,116.546135 
	C1393.546509,117.595703 1392.109253,117.278099 1392.204590,114.023285 
	C1392.335693,109.542267 1392.214355,105.054199 1392.226685,100.569229 
	C1392.235596,97.354095 1391.099487,94.902153 1387.578491,94.665558 
	C1384.065308,94.429474 1381.337891,95.821754 1380.663940,99.624222 
	C1380.319092,101.569656 1380.354004,103.582413 1380.217285,106.043427 
z"/>
<path fill="#191919" opacity="1.000000" stroke="none" 
	d="
M1342.792236,94.648277 
	C1338.716553,95.023262 1337.940552,97.772751 1337.793823,100.701973 
	C1337.570190,105.171234 1337.804565,109.667671 1337.468384,114.124214 
	C1337.379150,115.307144 1335.916382,116.386490 1335.084229,117.513397 
	C1334.663208,117.240318 1334.242065,116.967239 1333.821045,116.694160 
	C1333.821045,108.272568 1333.821045,99.850967 1333.821045,91.883141 
	C1338.111206,91.883141 1342.237183,91.883141 1346.363159,91.883141 
	C1346.483398,92.406059 1346.603516,92.928970 1346.723755,93.451889 
	C1345.550171,93.866570 1344.376709,94.281250 1342.792236,94.648277 
z"/>
<path fill="#000000" opacity="1.000000" stroke="none" 
	d="
M1450.740356,124.996948 
	C1442.335815,124.998260 1434.406006,124.998260 1426.243408,124.998260 
	C1426.243408,123.642075 1426.243408,122.577721 1426.243408,121.248474 
	C1434.913330,121.248474 1443.637939,121.248474 1453.736938,121.248474 
	C1452.685791,122.810394 1451.950439,123.903023 1450.740356,124.996948 
z"/>
<path fill="#1D1D1D" opacity="1.000000" stroke="none" 
	d="
M1284.628540,96.865341 
	C1284.138306,95.285416 1284.011108,93.830299 1283.864014,92.149109 
	C1285.502441,92.149109 1286.788574,92.149109 1288.207886,92.149109 
	C1288.817261,94.945686 1289.555176,97.678230 1284.628540,96.865341 
z"/>
<path fill="#1D1D1D" opacity="1.000000" stroke="none" 
	d="
M1287.709595,116.910522 
	C1283.114624,117.700348 1283.766479,115.000710 1284.186279,112.193077 
	C1285.416016,112.117538 1286.674927,112.040222 1288.649414,111.918945 
	C1288.438110,113.751839 1288.263062,115.270744 1287.709595,116.910522 
z"/>
<path fill="#000000" opacity="1.000000" stroke="none" 
	d="
M160.000000,124.997673 
	C142.182693,124.997665 124.865341,124.976685 107.548157,125.020851 
	C105.025009,125.027283 102.624153,125.217377 103.948227,121.234077 
	C150.400833,121.234077 196.961853,121.234077 243.757721,121.234077 
	C243.757721,122.366676 243.757721,123.440285 243.757721,124.997673 
	C216.025787,124.997673 188.262894,124.997673 160.000000,124.997673 
z"/>
<path fill="#000000" opacity="1.000000" stroke="none" 
	d="
M360.998840,121.002327 
	C366.159760,121.002472 370.830597,120.838570 375.475098,121.116089 
	C376.662231,121.187019 377.765839,122.654892 378.907837,123.480957 
	C378.650085,123.911636 378.392334,124.342316 378.134613,124.772995 
	C342.573853,124.772995 307.013123,124.772995 271.229858,124.772995 
	C271.229858,123.616402 271.229858,122.548935 271.229858,121.002327 
	C300.990051,121.002327 330.744537,121.002327 360.998840,121.002327 
z"/>
<path fill="#131313" opacity="1.000000" stroke="none" 
	d="
M262.584381,115.122681 
	C255.406250,118.553223 249.116852,116.189789 247.576553,108.993980 
	C246.756744,105.164055 247.076309,100.581406 248.429657,96.908981 
	C250.718597,90.697716 256.837616,89.659958 263.478394,93.236496 
	C264.870300,92.295799 266.124023,91.448479 268.035645,90.156532 
	C268.035645,100.281479 268.350464,109.375839 267.918915,118.434639 
	C267.655304,123.968231 263.026794,127.138153 256.974030,127.031158 
	C251.339218,126.931549 248.534622,124.636200 247.692368,118.278023 
	C249.663589,119.746132 250.803116,121.177017 252.207886,121.519257 
	C255.089310,122.221291 258.415924,123.236885 260.968628,122.374718 
	C262.598480,121.824242 263.191345,118.148773 264.155273,115.835281 
	C264.205933,115.713638 263.378510,115.226143 262.584381,115.122681 
M264.680542,102.808731 
	C264.460785,101.674545 264.632751,100.107643 263.947662,99.487495 
	C261.911438,97.644226 259.454102,94.808105 257.319824,94.939240 
	C255.164795,95.071648 252.132523,97.941429 251.382477,100.233154 
	C250.001541,104.452515 249.768402,109.565498 254.294937,112.236771 
	C256.143982,113.327957 259.465851,112.301155 261.981598,111.683640 
	C262.884003,111.462128 263.643280,109.688721 264.007263,108.484390 
	C264.476685,106.931175 264.483582,105.238197 264.680542,102.808731 
z"/>
<path fill="#181818" opacity="1.000000" stroke="none" 
	d="
M208.322113,91.240646 
	C213.262558,92.327545 214.811508,95.417877 214.764740,99.747536 
	C214.704361,105.338142 214.750015,110.929909 214.750015,117.393791 
	C213.320145,116.605705 211.794907,115.765060 209.974548,114.761757 
	C207.631363,115.380287 204.527466,116.725441 201.358353,116.902306 
	C197.448273,117.120522 194.136017,115.403389 193.427551,110.964058 
	C192.831619,107.229813 195.644058,103.931213 200.083694,103.042946 
	C202.518097,102.555878 205.049927,102.483910 207.431442,101.834587 
	C208.622604,101.509819 210.477737,100.265961 210.441162,99.515343 
	C210.372421,98.104805 209.474808,96.012688 208.343414,95.512581 
	C205.078171,94.069244 201.675079,93.758728 198.817001,96.905991 
	C197.928558,97.884308 196.459320,98.335175 194.146194,99.666031 
	C196.318909,92.193268 199.361496,90.636002 208.322113,91.240646 
M198.485535,112.036591 
	C205.621338,115.273575 210.595703,112.476128 210.329971,104.906624 
	C207.094666,105.417969 203.740601,105.500610 200.777695,106.619270 
	C199.445694,107.122177 198.895279,109.695221 198.485535,112.036591 
z"/>
<path fill="#111111" opacity="1.000000" stroke="none" 
	d="
M274.962097,110.621674 
	C273.057434,104.349838 272.882233,98.589302 277.644745,93.976791 
	C281.029572,90.698563 285.283630,90.025253 289.681396,91.982201 
	C295.018524,94.357147 296.459381,98.909775 296.274109,104.751663 
	C290.358826,104.751663 284.450500,104.751663 278.175293,104.751663 
	C277.930115,108.890503 279.364410,111.587196 282.794220,112.885193 
	C286.067291,114.123863 288.884552,113.361488 291.163727,110.391876 
	C292.031036,109.261879 293.727112,108.767982 295.402313,108.542435 
	C294.779602,113.707283 291.718201,116.209023 287.299408,116.841522 
	C282.070038,117.590050 277.793640,115.816231 274.962097,110.621674 
M279.399689,101.567688 
	C283.578644,101.567688 287.757629,101.567688 292.177155,101.567688 
	C291.687561,96.379852 288.952026,94.241005 284.900177,94.559608 
	C281.167938,94.853073 277.805939,96.411316 279.399689,101.567688 
z"/>
<path fill="#111111" opacity="1.000000" stroke="none" 
	d="
M374.695496,96.428116 
	C375.492889,99.279076 376.098328,101.805122 376.832672,104.868835 
	C370.180267,104.868835 364.246460,104.868835 358.175903,104.868835 
	C357.935272,109.023834 359.444458,111.747925 363.021576,112.958031 
	C366.612946,114.172958 369.424500,113.079720 371.558441,109.751884 
	C372.175629,108.789421 373.946106,108.566521 375.797516,107.728676 
	C374.431610,114.177025 371.048462,116.945152 365.561554,117.026146 
	C359.920959,117.109413 355.529694,113.780670 354.182068,108.400070 
	C352.491119,101.648659 354.977631,94.720070 359.995605,92.200790 
	C365.148895,89.613586 370.167175,90.963409 374.695496,96.428116 
M358.405518,99.128090 
	C358.826965,99.945190 359.216766,101.450600 359.674774,101.471657 
	C363.715912,101.657425 367.769165,101.579414 371.818848,101.579414 
	C372.155548,101.068642 372.492249,100.557869 372.828949,100.047104 
	C371.053619,98.314774 369.565521,95.915894 367.438690,94.999435 
	C363.853302,93.454529 360.726379,94.964302 358.405518,99.128090 
z"/>
<path fill="#1A1A1A" opacity="1.000000" stroke="none" 
	d="
M221.643372,111.717819 
	C221.643402,104.617577 221.643402,97.984451 221.643402,90.338814 
	C223.581894,91.357483 224.875534,92.037292 226.839981,93.069603 
	C227.404831,92.804558 228.808273,91.982559 230.316513,91.467430 
	C235.939270,89.547043 241.083466,92.649155 241.454544,98.486656 
	C241.791840,103.792755 241.695969,109.140594 241.470459,114.456436 
	C241.424591,115.537643 239.948822,116.558197 239.132233,117.606712 
	C238.635269,117.328621 238.138321,117.050529 237.641357,116.772438 
	C237.641357,111.668991 237.633682,106.565521 237.643906,101.462097 
	C237.651321,97.764595 236.747025,94.621849 232.287323,94.638618 
	C228.101089,94.654350 225.848572,97.081276 225.765762,101.248596 
	C225.663620,106.387665 225.741333,111.530304 225.741333,116.841896 
	C224.121460,116.841896 223.009064,116.841896 221.643341,116.841896 
	C221.643341,115.160057 221.643341,113.672501 221.643372,111.717819 
z"/>
<path fill="#161616" opacity="1.000000" stroke="none" 
	d="
M125.587280,94.666016 
	C126.247047,102.095680 126.705772,109.177444 127.191200,116.671478 
	C125.363663,116.782600 124.180443,116.854553 122.789520,116.939125 
	C122.789520,111.264313 122.797081,105.947647 122.786804,100.631020 
	C122.780128,97.179741 121.419357,94.686440 117.656311,94.618027 
	C114.088654,94.553169 111.379944,96.248123 111.078644,100.024414 
	C110.709251,104.654213 110.989113,109.335167 110.639244,113.967636 
	C110.545952,115.202843 109.177376,116.341736 108.394310,117.524849 
	C107.940285,117.272141 107.486267,117.019432 107.032242,116.766724 
	C107.032242,108.351860 107.032242,99.937004 107.032242,90.545082 
	C108.717285,91.451981 110.084038,92.187569 111.847771,93.136810 
	C118.168373,89.924248 120.715088,90.070755 125.587280,94.666016 
z"/>
<path fill="#1A1A1A" opacity="1.000000" stroke="none" 
	d="
M338.372375,91.065292 
	C345.913239,91.428375 348.122253,93.568329 348.203522,100.327934 
	C348.267456,105.645264 348.216339,110.963989 348.216339,116.473007 
	C345.779785,117.455910 344.159241,117.526566 344.219604,114.173073 
	C344.300385,109.684731 344.207855,105.193558 344.236694,100.703903 
	C344.258911,97.242897 342.993164,94.738861 339.212219,94.633850 
	C335.634247,94.534462 332.836884,96.219566 332.612000,99.988136 
	C332.286316,105.445694 332.528564,110.937149 332.528564,116.407654 
	C329.573120,117.581413 328.151794,117.323463 328.203278,114.038834 
	C328.320374,106.568436 328.240204,99.094940 328.240204,90.391724 
	C330.195251,91.441322 331.453979,92.117088 333.462158,93.195213 
	C334.155792,92.875526 336.061737,91.997055 338.372375,91.065292 
z"/>
<path fill="#161616" opacity="1.000000" stroke="none" 
	d="
M137.250961,91.906372 
	C145.085541,89.828873 149.069717,91.564102 151.606567,99.320717 
	C149.364471,98.266129 148.139557,97.714386 146.936630,97.118317 
	C145.240295,96.277748 143.528763,94.672363 141.881729,94.743179 
	C140.101715,94.819710 138.388458,96.449043 136.646088,97.401062 
	C137.997391,98.586182 139.182159,100.113884 140.741150,100.871811 
	C142.802704,101.874077 145.455719,101.824600 147.305115,103.053795 
	C149.304504,104.382683 151.930496,106.625603 151.988556,108.539459 
	C152.058090,110.831963 150.268219,114.047012 148.286758,115.374023 
	C142.220367,119.436737 134.933228,116.608185 131.500473,107.929077 
	C133.902466,108.975273 135.238907,109.396233 136.400879,110.103775 
	C137.892639,111.012131 139.309860,113.083000 140.641998,112.989174 
	C143.141357,112.813148 147.038940,112.057602 147.708374,110.444626 
	C149.259888,106.706398 145.169205,106.829956 142.870636,106.004745 
	C141.468719,105.501442 139.730286,105.550491 138.614029,104.719055 
	C136.489456,103.136589 133.334137,101.233177 133.139297,99.218140 
	C132.920700,96.957642 135.505615,94.426056 137.250961,91.906372 
z"/>
<path fill="#0A0A0A" opacity="1.000000" stroke="none" 
	d="
M194.429733,85.945587 
	C190.834686,86.007530 187.687424,86.007530 184.340607,86.007530 
	C184.340607,96.392731 184.340607,106.368309 184.340607,116.701736 
	C182.951675,116.788094 181.751602,116.862701 180.283417,116.953979 
	C180.283417,106.679756 180.283417,96.709778 180.283417,86.235405 
	C176.485062,86.235405 172.917114,86.235405 169.216385,86.235405 
	C168.539886,83.376610 168.418991,81.820930 171.864349,81.917168 
	C179.521179,82.131050 187.188080,81.983871 195.767715,81.983871 
	C195.426300,83.479546 195.151917,84.681587 194.429733,85.945587 
z"/>
<path fill="#161616" opacity="1.000000" stroke="none" 
	d="
M301.795715,95.414490 
	C302.107117,93.643425 302.418518,92.322304 302.729919,91.001190 
	C303.889008,91.514595 305.048096,92.028000 305.827179,92.373077 
	C308.704407,91.944008 311.498901,91.527290 314.293365,91.110565 
	C314.495697,91.760834 314.697998,92.411102 314.900330,93.061378 
	C313.902649,93.642815 312.832916,94.816269 311.919525,94.705109 
	C307.532135,94.171165 306.232941,96.855255 306.004639,100.286064 
	C305.696991,104.908760 305.976685,109.572090 305.626556,114.189339 
	C305.538544,115.350304 304.010986,116.402115 303.144989,117.504089 
	C302.695251,117.227631 302.245483,116.951172 301.795746,116.674713 
	C301.795746,109.737953 301.795746,102.801186 301.795715,95.414490 
z"/>
<path fill="#1D1D1D" opacity="1.000000" stroke="none" 
	d="
M317.766968,116.205856 
	C317.661285,107.630836 317.661285,99.484634 317.661285,91.149742 
	C319.019165,91.149742 320.130371,91.149742 321.403687,91.149742 
	C321.403687,99.789314 321.403687,108.239670 321.403687,117.041855 
	C320.075287,116.888672 318.973969,116.761681 317.766968,116.205856 
z"/>
<path fill="#FAFAFA" opacity="1.000000" stroke="none" 
	d="
M1304.376343,88.177742 
	C1310.665283,84.832397 1316.038818,85.172516 1319.871826,88.917740 
	C1323.786377,92.742661 1324.881592,101.026756 1322.225098,106.718849 
	C1319.988281,111.511703 1315.561035,114.309425 1309.946411,112.804924 
	C1306.677612,111.929008 1302.743774,109.314148 1301.382812,106.414558 
	C1298.513184,100.300499 1298.898071,93.769402 1304.376343,88.177742 
z"/>
<path fill="#F4F4F4" opacity="1.000000" stroke="none" 
	d="
M1405.727417,108.008865 
	C1405.735352,104.851715 1405.071777,101.713234 1406.176025,99.429535 
	C1407.194336,97.323456 1409.982422,95.044601 1412.218750,94.781944 
	C1416.199219,94.314461 1418.308960,97.380615 1418.951172,101.233932 
	C1419.953369,107.247284 1418.188721,111.890869 1414.288086,113.018326 
	C1410.043701,114.245163 1407.282959,112.440758 1405.727417,108.008865 
z"/>
<path fill="#ECECEC" opacity="1.000000" stroke="none" 
	d="
M1357.911133,113.495499 
	C1355.809326,112.273087 1354.151123,111.044479 1352.492920,109.815857 
	C1354.170532,108.561798 1355.685425,106.879166 1357.567871,106.164764 
	C1359.800903,105.317307 1362.350342,105.303535 1364.755493,104.929543 
	C1365.807373,110.501915 1364.684204,111.963120 1357.911133,113.495499 
z"/>
<path fill="#E2E2E2" opacity="1.000000" stroke="none" 
	d="
M1445.774170,101.405457 
	C1441.299561,101.565758 1437.189697,101.565758 1433.047974,101.565758 
	C1433.561035,96.527344 1436.176025,93.913918 1440.288696,94.497604 
	C1443.958740,95.018471 1446.981567,96.582542 1445.774170,101.405457 
z"/>
<path fill="#F7F7F7" opacity="1.000000" stroke="none" 
	d="
M264.685120,103.207069 
	C264.483582,105.238197 264.476685,106.931175 264.007263,108.484390 
	C263.643280,109.688721 262.884003,111.462128 261.981598,111.683640 
	C259.465851,112.301155 256.143982,113.327957 254.294937,112.236771 
	C249.768402,109.565498 250.001541,104.452515 251.382477,100.233154 
	C252.132523,97.941429 255.164795,95.071648 257.319824,94.939240 
	C259.454102,94.808105 261.911438,97.644226 263.947662,99.487495 
	C264.632751,100.107643 264.460785,101.674545 264.685120,103.207069 
z"/>
<path fill="#ECECEC" opacity="1.000000" stroke="none" 
	d="
M198.237885,111.682762 
	C198.895279,109.695221 199.445694,107.122177 200.777695,106.619270 
	C203.740601,105.500610 207.094666,105.417969 210.329971,104.906624 
	C210.595703,112.476128 205.621338,115.273575 198.237885,111.682762 
z"/>
<path fill="#E2E2E2" opacity="1.000000" stroke="none" 
	d="
M279.010864,101.459190 
	C277.805939,96.411316 281.167938,94.853073 284.900177,94.559608 
	C288.952026,94.241005 291.687561,96.379852 292.177155,101.567688 
	C287.757629,101.567688 283.578644,101.567688 279.010864,101.459190 
z"/>
<path fill="#E2E2E2" opacity="1.000000" stroke="none" 
	d="
M358.568298,98.780258 
	C360.726379,94.964302 363.853302,93.454529 367.438690,94.999435 
	C369.565521,95.915894 371.053619,98.314774 372.828949,100.047104 
	C372.492249,100.557869 372.155548,101.068642 371.818848,101.579414 
	C367.769165,101.579414 363.715912,101.657425 359.674774,101.471657 
	C359.216766,101.450600 358.826965,99.945190 358.568298,98.780258 
z"/>
</svg>