<svg version="1.1" id="Layer_1" xmlns="http://www.w3.org/2000/svg" xmlns:xlink="http://www.w3.org/1999/xlink" x="0px" y="0px"
	 width="100%" viewBox="0 0 1004 404" enable-background="new 0 0 1004 404" xml:space="preserve">
<path fill="none" opacity="1.000000" stroke="#000000" stroke-linecap="round" stroke-linejoin="round" stroke-width="5.000000"
	d="
M248.500000,242.000000 
	C246.503998,243.442627 244.202820,242.987030 242.000000,242.987549 
	C177.666672,243.002914 113.333336,242.997192 49.000004,243.014221 
	C47.161762,243.014709 45.272572,242.664978 43.250000,243.594254 
	C43.250000,283.166656 43.250000,322.833344 43.250000,362.750000 
	C176.500000,362.750000 309.500000,362.750000 442.750000,362.750000 
	C442.750000,322.833344 442.750000,283.166656 442.750000,243.000000 
	C440.834686,243.000000 439.167328,243.000000 437.500000,243.000000 
	C387.166656,243.000000 336.833344,243.000000 286.500000,243.000000 
	C276.000000,246.216614 265.501068,243.249725 254.999084,243.047287 
	C252.901978,243.006866 250.940369,242.691162 249.000000,242.000000 
"/>
<path fill="none" opacity="1.000000" stroke="#000000" stroke-linecap="round" stroke-linejoin="round" stroke-width="5.000000"
	d="
M756.500000,242.000000 
	C750.640686,243.932724 744.462769,242.968964 738.494873,243.969330 
	C736.360229,244.327164 734.051025,243.956192 732.023865,244.577835 
	C727.685425,245.908188 724.128845,242.923523 719.999878,242.932037 
	C669.333374,243.036438 618.666687,243.000000 568.000000,243.000000 
	C566.499207,243.000000 564.998474,243.000000 563.250000,243.000000 
	C563.250000,283.166656 563.250000,322.833344 563.250000,362.750000 
	C696.500000,362.750000 829.500000,362.750000 962.750000,362.750000 
	C962.750000,322.833344 962.750000,283.166656 962.750000,243.594254 
	C960.727417,242.664978 958.838196,243.014709 957.000000,243.014221 
	C892.666687,242.997192 828.333313,243.001038 764.000000,242.995880 
	C761.623718,242.995697 759.197205,243.286194 757.000000,242.000000 
"/>
<path fill="none" opacity="1.000000" stroke="#000000" stroke-linecap="round" stroke-linejoin="round" stroke-width="4.000000"
	d="
M512.500000,166.500000 
	C512.021729,165.818542 511.543396,165.137100 510.866577,164.172791 
	C512.918396,161.622986 516.181213,161.856369 518.993591,160.979446 
	C541.817688,153.862854 556.657166,138.588135 561.781006,115.451508 
	C567.126831,91.312653 557.246948,67.096214 536.025208,52.962109 
	C524.273193,45.135044 511.301758,41.717964 497.516083,43.154320 
	C478.721161,45.112598 463.663788,54.028236 452.966095,69.977264 
	C445.100311,81.704300 441.717957,94.698265 443.154297,108.483925 
	C445.112579,127.278854 454.064026,142.284744 469.950317,153.073181 
	C476.597717,157.587463 483.885742,160.105835 491.517303,161.927536 
	C493.026276,162.287766 494.002899,163.036575 495.000000,164.000000 
"/>
<path fill="none" opacity="1.000000" stroke="#000000" stroke-linecap="round" stroke-linejoin="round" stroke-width="4.000000"
	d="
M286.500000,303.500000 
	C286.562103,299.879822 285.437836,296.818665 282.510620,294.486664 
	C279.354340,291.972229 275.677216,291.912872 272.564697,293.618103 
	C267.040710,296.644562 267.705597,302.342926 268.069763,307.495056 
	C268.360168,311.603363 271.048920,313.917725 274.990540,315.033447 
	C279.381317,316.276245 284.715271,313.232880 285.989777,308.497253 
	C286.388733,307.014893 286.666656,305.500000 287.000000,304.000000 
"/>
<path fill="none" opacity="1.000000" stroke="#000000" stroke-linecap="round" stroke-linejoin="round" stroke-width="4.000000"
	d="
M212.500000,297.500000 
	C211.872589,297.088165 211.017380,298.191162 210.337173,296.568237 
	C209.403046,294.339447 206.995026,292.894714 204.492065,292.559174 
	C200.988815,292.089478 196.323441,294.033630 196.053574,297.004852 
	C195.711014,300.776367 198.432877,302.128967 201.499786,303.000763 
	C204.395309,303.823883 207.393860,304.251617 210.022446,305.965576 
	C212.702469,307.713104 212.463715,309.854584 210.965210,311.975403 
	C207.227173,317.265869 200.755890,316.575867 196.000000,310.500000 
"/>
<path fill="none" opacity="1.000000" stroke="#000000" stroke-linecap="round" stroke-linejoin="round" stroke-width="4.000000"
	d="
M737.000000,296.500000 
	C732.925110,292.223450 728.695557,291.342316 725.000000,293.999969 
	C721.459656,296.546051 721.600159,299.760925 725.525513,301.954407 
	C727.206421,302.893677 729.120728,303.551239 731.010559,303.949860 
	C733.986206,304.577454 737.188538,304.874725 737.924438,308.515259 
	C738.292175,310.334625 738.118835,312.091797 736.075134,313.601715 
	C732.554688,316.202759 729.051208,315.762726 725.538879,314.399811 
	C724.084473,313.835480 723.023865,312.190460 722.500000,310.500000 
"/>
<path fill="none" opacity="1.000000" stroke="#000000" stroke-linecap="round" stroke-linejoin="round" stroke-width="4.000000"
	d="
M310.500000,296.500000 
	C307.696320,294.724945 305.067108,291.963074 301.518768,292.603973 
	C296.785858,293.458771 294.000000,298.134979 294.000000,304.000000 
	C294.000000,309.865051 296.853149,314.189178 301.495117,315.517059 
	C303.386993,316.058258 304.846558,314.780304 306.467712,314.371887 
	C308.112396,313.957581 309.128662,311.811127 311.250000,312.000000 
"/>
<path fill="none" opacity="1.000000" stroke="#000000" stroke-linecap="round" stroke-linejoin="round" stroke-width="6.000000"
	d="
M501.500000,81.500000 
	C501.500000,93.500000 501.500000,105.500000 501.500000,117.500000 
"/>
<path fill="none" opacity="1.000000" stroke="#000000" stroke-linecap="round" stroke-linejoin="round" stroke-width="4.000000"
	d="
M810.000000,303.000000 
	C806.833313,303.500000 803.673523,304.049622 800.498230,304.487030 
	C796.821838,304.993439 793.515747,307.996948 794.000000,310.500000 
	C794.549744,313.341248 799.921509,316.325500 803.000000,315.499969 
	C810.000244,313.622772 811.642639,311.198425 810.918823,303.507629 
	C810.881897,303.115021 810.788391,302.964142 810.927734,302.479248 
	C812.016724,298.690247 812.076172,295.292236 807.516174,293.459747 
	C803.161987,291.709930 799.322327,292.321503 796.059265,296.051819 
	C795.274536,296.948944 794.855469,297.870209 793.500000,297.500000 
"/>
<path fill="none" opacity="1.000000" stroke="#000000" stroke-linecap="round" stroke-linejoin="round" stroke-width="5.000000"
	d="
M785.000000,290.500000 
	C780.727844,284.527191 775.899597,282.595886 770.000000,284.500000 
	C763.903870,286.467560 760.167847,292.563202 760.500061,300.000000 
	C761.015930,311.550354 769.374573,317.744751 779.036499,314.096619 
	C782.556091,312.767670 783.980530,309.644226 786.500000,307.500000 
"/>
<path fill="none" opacity="1.000000" stroke="#000000" stroke-linecap="round" stroke-linejoin="round" stroke-width="5.000000"
	d="
M186.000000,315.000000 
	C186.000000,310.166656 186.015442,305.333282 185.996338,300.500000 
	C185.968979,293.582642 181.113861,290.735352 174.990616,293.982300 
	C173.676147,294.679382 172.753387,296.173462 171.000000,296.000000 
"/>
<path fill="none" opacity="1.000000" stroke="#000000" stroke-linecap="round" stroke-linejoin="round" stroke-width="5.000000"
	d="
M713.000000,315.000000 
	C713.000000,310.166656 713.015442,305.333282 712.996338,300.500000 
	C712.968994,293.582642 708.113892,290.735321 701.990601,293.982300 
	C700.676147,294.679321 699.753418,296.173462 698.000000,296.000000 
"/>
<path fill="none" opacity="1.000000" stroke="#000000" stroke-linecap="round" stroke-linejoin="round" stroke-width="4.000000"
	d="
M312.000000,293.000000 
	C312.000000,299.833344 311.876770,306.669586 312.039337,313.499054 
	C312.167236,318.871796 310.253479,322.883484 306.507477,324.517120 
	C301.930206,326.513275 295.985382,325.352753 294.000000,319.500000 
"/>
<path fill="none" opacity="1.000000" stroke="#000000" stroke-linecap="round" stroke-linejoin="round" stroke-width="5.000000"
	d="
M731.500000,215.500000 
	C738.666687,222.500000 745.841064,229.492096 752.993774,236.506332 
	C754.523560,238.006485 756.285950,239.337906 757.000000,241.500000 
"/>
<path fill="none" opacity="1.000000" stroke="#000000" stroke-linecap="round" stroke-linejoin="round" stroke-width="5.000000"
	d="
M274.500000,215.500015 
	C267.333344,222.500015 260.158905,229.492096 253.006226,236.506348 
	C251.476456,238.006500 249.714050,239.337906 249.000000,241.500000 
"/>
<path fill="none" opacity="1.000000" stroke="#000000" stroke-linecap="round" stroke-linejoin="round" stroke-width="5.000000"
	d="
M824.000000,284.500000 
	C822.831055,286.360748 822.988586,288.437927 822.994751,290.500031 
	C823.010559,295.833313 823.000000,301.166656 823.000000,306.500000 
	C823.000000,313.662079 823.000000,313.662079 829.500000,316.000000 
"/>
<path fill="none" opacity="1.000000" stroke="#000000" stroke-linecap="round" stroke-linejoin="round" stroke-width="5.000000"
	d="
M697.000000,293.000000 
	C697.000000,300.333344 697.000000,307.666656 697.000000,315.000000 
"/>
<path fill="none" opacity="1.000000" stroke="#000000" stroke-linecap="round" stroke-linejoin="round" stroke-width="5.000000"
	d="
M170.000000,293.000000 
	C170.000000,300.333344 170.000000,307.666656 170.000000,315.000000 
"/>
<path fill="none" opacity="1.000000" stroke="#000000" stroke-linecap="round" stroke-linejoin="round" stroke-width="5.000000"
	d="
M518.000000,119.000000 
	C507.000000,119.000000 496.000000,119.000000 485.000000,119.000000 
"/>
<path fill="none" opacity="1.000000" stroke="#000000" stroke-linecap="round" stroke-linejoin="round" stroke-width="5.000000"
	d="
M510.500000,164.000000 
	C504.660980,163.201584 498.702667,161.389297 493.500000,166.000000 
"/>
<path fill="none" opacity="1.000000" stroke="#000000" stroke-linecap="round" stroke-linejoin="round" stroke-width="4.000000"
	d="
M478.500000,168.500000 
	C478.150116,169.120865 479.207489,170.158859 477.996307,170.486313 
	C474.869690,171.331650 472.041107,173.611877 468.500000,172.500000 
"/>
<path fill="none" opacity="1.000000" stroke="#000000" stroke-linecap="round" stroke-linejoin="round" stroke-width="4.000000"
	d="
M340.500000,212.500000 
	C338.693054,214.268631 336.184509,214.381180 333.972778,214.879135 
	C331.996857,215.324051 332.665894,216.466202 332.500000,217.500000 
"/>
<path fill="none" opacity="1.000000" stroke="#000000" stroke-linecap="round" stroke-linejoin="round" stroke-width="4.000000"
	d="
M537.500000,173.000000 
	C533.844055,173.457153 530.914001,171.010651 527.500000,170.500000 
"/>
<path fill="none" opacity="1.000000" stroke="#000000" stroke-linecap="round" stroke-linejoin="round" stroke-width="4.000000"
	d="
M627.500000,201.500000 
	C624.288757,200.222992 621.107666,198.794891 617.500000,199.500000 
"/>
<path fill="none" opacity="1.000000" stroke="#000000" stroke-linecap="round" stroke-linejoin="round" stroke-width="4.000000"
	d="
M550.500000,175.500000 
	C550.665894,176.533798 549.935303,177.819061 551.988586,178.087448 
	C554.040649,178.355667 556.000000,179.333328 558.000000,180.000000 
"/>
<path fill="none" opacity="1.000000" stroke="#000000" stroke-linecap="round" stroke-linejoin="round" stroke-width="5.000000"
	d="
M319.500000,220.000000 
	C315.916626,219.833206 312.897369,221.922791 309.500000,222.500000 
"/>
<path fill="none" opacity="1.000000" stroke="#000000" stroke-linecap="round" stroke-linejoin="round" stroke-width="5.000000"
	d="
M696.500000,222.500000 
	C693.102661,221.922791 690.083374,219.833206 686.500000,220.000000 
"/>
<path fill="none" opacity="1.000000" stroke="#000000" stroke-linecap="round" stroke-linejoin="round" stroke-width="4.000000"
	d="
M294.500000,227.000000 
	C292.166656,227.833328 289.887970,228.972885 287.482513,229.401962 
	C285.597717,229.738174 286.911835,230.872589 286.500000,231.500000 
"/>
<path fill="none" opacity="1.000000" stroke="#000000" stroke-linecap="round" stroke-linejoin="round" stroke-width="4.000000"
	d="
M583.500000,186.500000 
	C579.892090,187.206345 576.711426,185.776123 573.500000,184.500000 
"/>
<path fill="none" opacity="1.000000" stroke="#000000" stroke-linecap="round" stroke-linejoin="round" stroke-width="4.000000"
	d="
M432.500000,184.500000 
	C429.288727,185.777008 426.107697,187.205109 422.500000,186.500000 
"/>
<path fill="none" opacity="1.000000" stroke="#000000" stroke-linecap="round" stroke-linejoin="round" stroke-width="4.000000"
	d="
M388.500000,199.500000 
	C385.180878,198.545898 382.323059,200.436676 379.250000,201.000000 
"/>
<path fill="none" opacity="1.000000" stroke="#000000" stroke-linecap="round" stroke-linejoin="round" stroke-width="5.000000"
	d="
M606.500000,193.500000 
	C603.152344,194.630035 600.252319,192.999603 597.250000,192.000000 
"/>
<path fill="none" opacity="1.000000" stroke="#000000" stroke-linecap="round" stroke-linejoin="round" stroke-width="5.000000"
	d="
M409.000000,192.000000 
	C405.813049,192.371597 402.962982,194.876617 399.500000,193.500000 
"/>
<path fill="none" opacity="1.000000" stroke="#000000" stroke-linecap="round" stroke-linejoin="round" stroke-width="4.000000"
	d="
M712.000000,227.000000 
	C713.824219,228.723709 716.392822,228.516220 718.560059,229.342545 
	C720.230896,229.979599 719.088135,230.872589 719.500000,231.500000 
"/>
<path fill="none" opacity="1.000000" stroke="#000000" stroke-linecap="round" stroke-linejoin="round" stroke-width="4.000000"
	d="
M665.500000,213.000000 
	C668.166687,213.833328 670.833313,214.666672 673.500000,215.500000 
"/>
<path fill="none" opacity="1.000000" stroke="#000000" stroke-linecap="round" stroke-linejoin="round" stroke-width="4.000000"
	d="
M363.500000,206.000000 
	C360.833344,206.833328 358.166656,207.666672 355.500000,208.500000 
"/>
<path fill="none" opacity="1.000000" stroke="#000000" stroke-linecap="round" stroke-linejoin="round" stroke-width="4.000000"
	d="
M642.500000,206.000000 
	C645.166687,206.833344 647.833313,207.666672 650.500000,208.500000 
"/>
<path fill="none" opacity="1.000000" stroke="#000000" stroke-linecap="round" stroke-linejoin="round" stroke-width="4.000000"
	d="
M455.500000,177.500000 
	C453.083344,178.333328 450.666656,179.166672 448.250000,180.000000 
"/>
<path fill="none" opacity="1.000000" stroke="#000000" stroke-linecap="round" stroke-linejoin="round" stroke-width="4.000000"
	d="
M271.500000,234.000015 
	C269.000000,235.000015 266.500000,236.000015 264.000000,237.000015 
"/>
<path fill="none" opacity="1.000000" stroke="#000000" stroke-linecap="round" stroke-linejoin="round" stroke-width="4.000000"
	d="
M827.500000,292.500000 
	C824.833313,292.590179 822.166687,293.587463 819.500000,292.500000 
"/>
<path fill="none" opacity="1.000000" stroke="#000000" stroke-linecap="round" stroke-linejoin="round" stroke-width="5.000000"
	d="
M237.000000,284.000000 
	C235.844940,284.178253 235.028687,284.844269 235.023605,286.000092 
	C234.981812,295.502838 235.000000,305.005859 235.000000,315.000000 
	C239.987991,315.000000 244.558945,315.480072 248.983963,314.881470 
	C254.843231,314.088898 258.654297,308.334534 258.965607,300.498627 
	C259.368378,290.360504 254.196030,282.625854 243.495590,283.964813 
	C241.526428,284.211212 239.500000,284.000000 237.500000,284.000000 
"/>
</svg>