<svg version="1.1" id="Layer_1" xmlns="http://www.w3.org/2000/svg" xmlns:xlink="http://www.w3.org/1999/xlink" x="0px" y="0px"
	 width="100%" viewBox="0 0 788 324" enable-background="new 0 0 788 324" xml:space="preserve">
<path fill="#FFFFFF" opacity="1.000000" stroke="none" 
	d="
M617.000000,325.000000 
	C411.333344,325.000000 206.166672,325.000000 1.000000,325.000000 
	C1.000000,217.000000 1.000000,109.000000 1.000000,1.000000 
	C263.666656,1.000000 526.333313,1.000000 789.000000,1.000000 
	C789.000000,109.000000 789.000000,217.000000 789.000000,325.000000 
	C731.833313,325.000000 674.666687,325.000000 617.000000,325.000000 
M761.010742,162.500000 
	C761.010742,122.072067 761.010742,81.644127 761.010742,41.285103 
	C520.695496,41.285103 280.958984,41.285103 41.288010,41.285103 
	C41.288010,122.641777 41.288010,203.712814 41.288010,284.714935 
	C281.313568,284.714935 521.050781,284.714935 761.010742,284.714935 
	C761.010742,244.120071 761.010742,203.810043 761.010742,162.500000 
z"/>
<path fill="#000000" opacity="1.000000" stroke="none" 
	d="
M761.010742,163.000000 
	C761.010742,203.810043 761.010742,244.120071 761.010742,284.714935 
	C521.050781,284.714935 281.313568,284.714935 41.288010,284.714935 
	C41.288010,203.712814 41.288010,122.641777 41.288010,41.285103 
	C280.958984,41.285103 520.695496,41.285103 761.010742,41.285103 
	C761.010742,81.644127 761.010742,122.072067 761.010742,163.000000 
M562.500000,44.999416 
	C390.073730,44.999416 217.647476,44.999416 45.288467,44.999416 
	C45.288467,83.976540 45.288467,122.381615 45.288467,160.714966 
	C282.648041,160.714966 519.718445,160.714966 756.720947,160.714966 
	C756.720947,122.024216 756.720947,83.619743 756.720947,44.999416 
	C692.120667,44.999416 627.810364,44.999416 562.500000,44.999416 
M496.500000,281.001556 
	C583.262634,281.001556 670.025269,281.001556 756.723816,281.001556 
	C756.723816,242.027664 756.723816,203.622925 756.723816,165.282745 
	C519.364746,165.282745 282.294128,165.282745 45.285652,165.282745 
	C45.285652,203.973083 45.285652,242.378433 45.285652,281.001556 
	C195.548538,281.001556 345.524261,281.001556 496.500000,281.001556 
z"/>
<path fill="#FFFFFF" opacity="1.000000" stroke="none" 
	d="
M563.000000,44.999416 
	C627.810364,44.999416 692.120667,44.999416 756.720947,44.999416 
	C756.720947,83.619743 756.720947,122.024216 756.720947,160.714966 
	C519.718445,160.714966 282.648041,160.714966 45.288467,160.714966 
	C45.288467,122.381615 45.288467,83.976540 45.288467,44.999416 
	C217.647476,44.999416 390.073730,44.999416 563.000000,44.999416 
M366.223297,81.968193 
	C361.631500,81.968193 357.039734,81.968193 352.335510,81.968193 
	C352.335510,93.925446 352.335510,105.308487 352.335510,116.963463 
	C353.804016,116.895554 355.034454,116.838654 356.690430,116.762070 
	C356.690430,112.085091 356.690430,107.690849 356.690430,102.913925 
	C360.757812,102.913925 364.417786,103.208344 368.013275,102.851944 
	C375.246582,102.134933 379.149078,96.996979 377.972595,90.230003 
	C377.092316,85.166534 374.214813,82.977669 366.223297,81.968193 
M446.049805,84.770500 
	C445.191559,83.707016 444.333313,82.643539 443.475067,81.580055 
	C442.984650,81.878288 442.494263,82.176521 442.003876,82.474754 
	C442.003876,86.187218 442.003876,89.899673 442.003876,93.848839 
	C435.782104,90.138344 431.770660,90.262344 428.124939,93.994179 
	C423.308533,98.924431 423.647247,110.181427 429.020111,114.438103 
	C430.735687,115.797249 433.181641,116.787834 435.346893,116.898262 
	C438.724121,117.070488 442.147034,116.347816 446.050415,115.953903 
	C446.050415,106.350800 446.050415,96.038643 446.049805,84.770500 
M303.581909,99.819389 
	C303.581909,105.447845 303.581909,111.076302 303.581909,116.704758 
	C304.038208,116.994484 304.494537,117.284218 304.950836,117.573944 
	C305.830994,116.587196 307.424927,115.632935 307.471558,114.608238 
	C307.713501,109.292442 307.793182,103.945068 307.482697,98.634811 
	C307.140533,92.782860 302.059509,89.577965 296.460907,91.414268 
	C294.932953,91.915421 293.525238,92.783173 293.018005,93.025703 
	C290.918182,92.065514 289.537811,91.434311 287.756012,90.619545 
	C287.756012,99.945290 287.756012,108.257919 287.756012,116.940109 
	C289.066620,116.855293 290.238312,116.779472 291.841461,116.675728 
	C291.841461,110.970047 291.340302,105.582710 292.087402,100.374451 
	C292.387451,98.282997 295.109680,95.765366 297.302277,94.909874 
	C300.209778,93.775459 302.800781,95.377373 303.581909,99.819389 
M327.394318,116.197037 
	C331.147247,114.944923 333.255737,112.408951 332.960724,108.387260 
	C332.679138,104.548859 329.690277,103.323204 326.537048,102.421326 
	C324.786652,101.920692 322.879395,101.714310 321.322601,100.863396 
	C319.795380,100.028625 318.622681,98.545273 317.294373,97.346573 
	C319.052765,96.417763 320.787109,94.820374 322.576630,94.755959 
	C324.229218,94.696472 325.934937,96.292809 327.628662,97.137047 
	C328.844299,97.742996 330.078674,98.311356 332.258972,99.351913 
	C329.579559,90.925812 320.506348,88.517426 315.430267,93.392105 
	C312.071991,96.617149 312.690216,101.723320 316.937469,103.770294 
	C319.291168,104.904671 322.098328,105.099716 324.448792,106.238785 
	C326.129395,107.053246 327.390808,108.732697 328.839264,110.026184 
	C327.020874,111.164810 325.180328,113.240456 323.389893,113.198029 
	C321.288177,113.148232 319.237610,111.243355 317.150238,110.171494 
	C315.918671,109.539101 314.658783,108.961823 313.411652,108.359764 
	C315.307159,116.217896 318.644318,117.883598 327.394318,116.197037 
M409.508698,117.042168 
	C411.121124,116.693405 412.828522,116.574234 414.328583,115.953789 
	C419.260620,113.913864 420.930206,109.824402 421.114624,104.782310 
	C421.311005,99.412132 419.984833,94.769699 414.876862,92.211395 
	C410.500763,90.019653 406.059235,90.481232 402.249084,93.583649 
	C397.671967,97.310577 397.535645,102.526253 398.439819,107.756195 
	C399.412781,113.383873 403.118774,116.312958 409.508698,117.042168 
M479.005066,109.285698 
	C481.642120,115.050690 485.866852,117.884209 490.955353,116.922043 
	C495.820404,116.002151 498.857056,113.124489 498.870880,107.443466 
	C497.292725,107.839874 496.287415,108.925362 495.080444,109.694160 
	C493.005249,111.015976 490.671600,113.268234 488.692810,113.035492 
	C486.648865,112.795074 484.134308,110.393791 483.226532,108.323524 
	C482.245422,106.086113 482.149231,102.854446 483.025299,100.579529 
	C483.900482,98.306923 486.185974,95.671188 488.360382,95.089066 
	C490.132111,94.614754 492.655304,96.931686 494.839966,98.021576 
	C496.051788,98.626129 497.252747,99.252525 499.457581,100.379845 
	C497.053558,92.220657 492.343750,89.594902 486.164917,91.571457 
	C479.696716,93.640587 477.341827,99.070686 479.005066,109.285698 
M452.956146,93.757492 
	C453.003845,98.904228 452.829559,104.065086 453.156067,109.194077 
	C453.555023,115.461205 459.169556,118.700134 464.954651,116.220497 
	C466.299652,115.643974 467.515656,114.766403 468.161713,114.392036 
	C469.632843,115.519409 470.873749,116.470322 472.848267,117.983444 
	C472.848267,108.239967 472.848267,99.831512 472.848267,91.436386 
	C469.089996,91.206741 469.038208,91.205574 468.970825,94.199440 
	C468.870026,98.679344 469.072479,103.178131 468.730011,107.636932 
	C468.426697,111.585342 465.744812,113.516891 461.910278,113.350151 
	C458.101166,113.184517 457.025421,110.524696 457.045593,107.132095 
	C457.076904,101.862442 457.053864,96.592461 457.053864,89.751724 
	C454.990509,91.296303 453.976593,92.055283 452.956146,93.757492 
M512.852356,114.744339 
	C512.322571,114.211998 511.750793,113.714684 511.271912,113.139961 
	C510.280304,111.949913 508.503845,110.706581 508.521301,109.506577 
	C508.593323,104.560257 509.082428,99.603622 509.756836,94.697327 
	C509.880554,93.797371 511.579010,93.113876 512.550537,92.330444 
	C511.243561,91.632195 509.936615,90.933937 508.500549,90.166710 
	C508.388184,88.210159 508.260376,85.984848 508.132568,83.759544 
	C505.086182,86.553810 503.156799,89.676941 501.315125,92.850929 
	C501.166443,93.107147 501.553467,94.056152 501.803284,94.104370 
	C505.585724,94.834480 504.299683,97.801559 504.380646,100.035767 
	C504.524750,104.013466 504.230560,108.016220 504.534821,111.976601 
	C504.903961,116.781708 509.096100,118.470871 512.852356,114.744339 
M383.649902,104.493500 
	C383.649902,108.582603 383.649902,112.671700 383.649902,116.760803 
	C384.177856,117.012901 384.705811,117.264992 385.233765,117.517090 
	C386.019196,116.353264 387.395081,115.232803 387.484314,114.017838 
	C387.810974,109.569656 387.538025,105.079071 387.822998,100.625702 
	C388.053009,97.031219 389.213379,94.084206 393.932129,94.752327 
	C394.765930,94.870377 395.802734,93.554710 396.745758,92.901123 
	C396.577393,92.549324 396.408997,92.197525 396.240631,91.845726 
	C392.127197,91.845726 388.013794,91.845726 383.649963,91.845726 
	C383.649963,95.573212 383.649963,99.540207 383.649902,104.493500 
M343.014832,111.996101 
	C338.703674,111.271149 339.072052,113.825256 339.724579,116.800217 
	C341.134613,116.800217 342.490356,116.800217 344.181335,116.800217 
	C344.017578,115.088531 343.881683,113.668053 343.014832,111.996101 
M340.653320,91.956444 
	C340.145508,93.504448 339.637726,95.052452 338.965302,97.102203 
	C341.333038,96.977806 342.578003,96.912399 343.822998,96.846985 
	C344.197021,96.446320 344.571075,96.045647 344.945099,95.644981 
	C343.780273,94.408119 342.615417,93.171257 340.653320,91.956444 
z"/>
<path fill="#FEFEFE" opacity="1.000000" stroke="none" 
	d="
M496.000000,281.001556 
	C345.524261,281.001556 195.548538,281.001556 45.285652,281.001556 
	C45.285652,242.378433 45.285652,203.973083 45.285652,165.282745 
	C282.294128,165.282745 519.364746,165.282745 756.723816,165.282745 
	C756.723816,203.622925 756.723816,242.027664 756.723816,281.001556 
	C670.025269,281.001556 583.262634,281.001556 496.000000,281.001556 
M316.111572,223.489349 
	C316.111572,227.931793 316.111572,232.374237 316.111572,237.109848 
	C317.937134,236.935196 319.157196,236.818466 320.624023,236.678131 
	C320.624023,232.000198 320.624023,227.718674 320.624023,223.317307 
	C325.197144,223.062668 329.548065,223.188690 333.764038,222.494934 
	C339.373596,221.571884 342.311829,217.460007 342.116608,211.859848 
	C341.930145,206.510696 338.859436,202.778381 333.190643,202.290054 
	C327.636871,201.811615 322.009705,202.185852 316.111572,202.185852 
	C316.111572,209.221664 316.111572,215.857620 316.111572,223.489349 
M519.334717,231.247299 
	C519.334717,221.620773 519.334717,211.994247 519.334717,202.181946 
	C517.988770,202.181946 516.886719,202.181946 515.375610,202.181946 
	C515.375610,206.126068 515.375610,209.875076 515.375610,213.248169 
	C512.466003,212.464828 509.818817,211.049911 507.269104,211.207870 
	C501.464478,211.567459 497.884552,217.193893 498.122955,224.549911 
	C498.345795,231.425537 502.352905,236.688370 508.030762,236.901566 
	C511.664368,237.037994 515.327148,236.397888 519.334656,236.077271 
	C519.334656,235.146423 519.334656,233.661301 519.334717,231.247299 
M258.354034,226.552292 
	C258.308990,224.059280 258.392334,221.556015 258.193970,219.075272 
	C257.672638,212.554642 252.778610,209.435455 246.639420,211.642059 
	C245.316406,212.117584 244.041641,212.727417 242.215851,213.498810 
	C242.215851,209.420715 242.215851,205.834030 242.215851,202.247345 
	C241.716476,201.979599 241.217102,201.711853 240.717728,201.444122 
	C239.892883,202.607376 238.376175,203.756729 238.352448,204.936111 
	C238.158585,214.577744 238.322052,224.225967 238.197891,233.869888 
	C238.157532,237.004089 239.321655,237.699234 242.411011,236.482986 
	C242.411011,231.260406 242.167862,225.932190 242.488861,220.638168 
	C242.740250,216.492203 245.534103,214.408157 249.622192,214.681213 
	C253.497284,214.940048 254.291489,217.774979 254.253845,221.100494 
	C254.204895,225.423782 254.352081,229.751709 254.208313,234.070755 
	C254.095306,237.465378 255.726837,237.485596 258.353973,236.550064 
	C258.353973,233.472992 258.353973,230.487778 258.354034,226.552292 
M263.423798,231.185654 
	C266.324738,237.943771 271.287170,238.806671 279.786713,234.489258 
	C281.720673,235.582855 283.315857,236.484879 284.752808,237.297409 
	C284.752808,231.054321 284.796539,225.775604 284.741547,220.497925 
	C284.675140,214.126923 282.978729,211.972717 277.500763,211.086197 
	C271.075378,210.046356 266.301758,212.564163 264.075928,219.599228 
	C266.409180,218.327454 267.918457,217.929489 268.779907,216.957428 
	C271.616180,213.756927 275.021484,214.079742 278.296783,215.491165 
	C279.434235,215.981339 280.350494,218.061234 280.438660,219.473068 
	C280.485382,220.221542 278.654266,221.462067 277.469116,221.829330 
	C275.431091,222.460876 273.237549,222.598465 271.105164,222.915710 
	C266.709137,223.569748 263.614868,225.552063 263.423798,231.185654 
M592.724792,236.036133 
	C597.136414,235.895248 601.548035,235.754349 605.959656,235.613464 
	C605.872437,235.274734 605.785278,234.936020 605.698059,234.597290 
	C607.196045,235.555161 608.694092,236.513031 610.208801,237.481598 
	C610.208801,230.857849 610.310486,225.087784 610.179932,219.322968 
	C610.052246,213.682220 607.665344,211.418228 601.815552,210.990280 
	C595.213684,210.507278 591.363770,212.872574 589.895996,219.807648 
	C592.120789,218.318863 593.455261,217.682053 594.459473,216.705597 
	C597.430847,213.816284 600.835083,213.969238 604.075439,215.636185 
	C605.164734,216.196548 605.804443,218.321304 605.909546,219.784195 
	C605.955444,220.422684 604.231750,221.559830 603.150940,221.831970 
	C600.748474,222.436905 597.994263,222.115707 595.847534,223.142349 
	C593.355469,224.334198 590.302246,226.183044 589.479553,228.463531 
	C588.806274,230.329788 591.048706,233.247864 592.724792,236.036133 
M407.684204,225.033737 
	C411.604675,225.033737 415.525146,225.033737 419.445374,225.033737 
	C419.255615,216.051010 415.674957,211.448837 409.059235,210.990921 
	C402.815613,210.558762 397.782715,215.094452 397.044037,221.819046 
	C396.155731,229.906143 399.473572,235.397614 406.100555,236.808868 
	C412.218536,238.111694 417.175354,235.062546 419.072601,227.940704 
	C417.238464,228.617340 415.401764,228.711472 414.824371,229.612518 
	C412.722198,232.893005 410.014160,234.141525 406.351959,233.012466 
	C402.672272,231.878036 401.359192,229.041550 401.153870,225.033737 
	C403.180511,225.033737 404.968475,225.033737 407.684204,225.033737 
M214.445892,217.896805 
	C215.639526,218.135300 216.833160,218.373795 218.371185,218.681091 
	C217.920166,213.523178 214.896591,211.357178 211.345047,211.381561 
	C207.985291,211.404602 204.066299,212.376846 201.432098,214.331543 
	C198.305450,216.651733 199.447418,221.654327 203.024200,223.543121 
	C205.194824,224.689377 207.712921,225.167633 210.054855,226.002335 
	C212.371323,226.827927 216.410767,226.775818 214.848053,230.472824 
	C214.167496,232.082809 210.264969,232.813538 207.763321,232.974716 
	C206.442017,233.059860 205.031265,230.997238 203.577209,230.030167 
	C202.487137,229.305176 201.263458,228.781113 199.044708,227.611816 
	C201.712296,237.079010 211.505676,239.831268 217.234329,234.309708 
	C221.097183,230.586502 220.019547,225.059509 214.957977,223.058151 
	C212.957306,222.267105 210.826965,221.809464 208.772919,221.146545 
	C206.546265,220.427963 202.807373,220.429962 204.261475,216.964676 
	C204.849487,215.563400 208.683746,215.257736 211.096130,215.023285 
	C212.026184,214.932892 213.109985,216.424530 214.445892,217.896805 
M194.215500,234.891144 
	C194.212357,229.572281 194.378677,224.246506 194.161484,218.936386 
	C193.911926,212.834732 188.739334,209.453476 182.964752,211.473267 
	C181.430923,212.009766 180.046509,212.973495 179.102692,213.472092 
	C177.669357,212.478668 176.381210,211.585892 174.239395,210.101440 
	C174.239395,219.153275 174.325211,226.624496 174.200806,234.092209 
	C174.144211,237.489700 175.719528,237.424408 178.536835,236.473541 
	C178.536835,230.891800 178.288422,225.402313 178.622284,219.948471 
	C178.853134,216.177261 181.681000,214.520828 185.249329,214.636002 
	C189.033707,214.758179 190.258682,217.291016 190.237610,220.738144 
	C190.205246,226.033875 190.229111,231.329956 190.229111,237.612549 
	C191.985733,236.796448 193.090637,236.283127 194.215500,234.891144 
M297.732605,214.827621 
	C301.440063,215.990082 305.147552,217.152527 309.304932,218.456039 
	C308.621155,213.642776 305.792145,211.314117 302.179657,211.375183 
	C298.811859,211.432144 294.904053,212.378464 292.267395,214.329727 
	C289.151215,216.635864 290.302551,221.658371 293.870758,223.537903 
	C296.039703,224.680359 298.557861,225.145966 300.888519,225.999252 
	C303.180573,226.838440 307.269806,226.714767 305.712402,230.447861 
	C305.038849,232.062424 301.146454,232.815796 298.647766,232.992508 
	C297.315796,233.086685 295.897308,231.020813 294.406921,230.111801 
	C293.244324,229.402740 291.910492,228.974380 289.502747,227.915558 
	C292.930603,236.600800 300.198120,239.430878 306.274750,235.380280 
	C308.258972,234.057617 310.057281,230.850876 309.994690,228.558945 
	C309.942413,226.645599 307.353851,224.305893 305.329071,223.076263 
	C303.142212,221.748199 300.270630,221.593155 297.760834,220.740768 
	C293.967468,219.452469 293.783386,218.006912 297.732605,214.827621 
M491.094330,213.386108 
	C487.628571,212.726593 484.142700,211.464355 480.702759,211.579102 
	C477.342072,211.691177 474.935822,214.139374 474.715271,217.842087 
	C474.487396,221.667236 476.926758,223.550476 480.185791,224.610901 
	C482.706696,225.431137 485.345825,225.937149 487.781250,226.947311 
	C488.789246,227.365372 490.033020,228.738403 490.027283,229.670059 
	C490.020905,230.705566 488.920471,232.300003 487.933136,232.662979 
	C484.252441,234.016052 480.815002,233.930099 478.314362,230.056625 
	C477.691040,229.091080 476.057404,228.777786 473.862671,227.627029 
	C476.603180,237.077560 486.359833,239.812775 492.078461,234.304855 
	C495.919037,230.605743 494.831116,225.027328 489.779358,223.071747 
	C487.465393,222.175964 484.886353,221.904388 482.665802,220.848572 
	C481.124664,220.115814 479.990143,218.527847 478.673950,217.321960 
	C480.269287,216.395020 481.880585,214.706116 483.455811,214.739120 
	C485.312866,214.778030 487.130341,216.325623 488.981018,217.184448 
	C490.203400,217.751709 491.454071,218.257965 492.692047,218.791519 
	C492.911987,218.343002 493.131897,217.894470 493.351807,217.445938 
	C492.777466,216.281616 492.203094,215.117294 491.094330,213.386108 
M584.104919,217.810165 
	C580.212952,211.206055 573.848267,209.140839 567.759521,212.506531 
	C562.220154,215.568542 560.194153,224.606262 563.572021,231.185883 
	C566.361816,236.619797 573.263245,238.616180 579.096313,235.676544 
	C584.404907,233.001236 586.214294,227.143524 584.104919,217.810165 
M465.754791,235.077286 
	C467.388641,235.872025 469.022491,236.666763 470.656342,237.461517 
	C470.894867,237.080856 471.133362,236.700211 471.371857,236.319565 
	C468.459808,231.949097 465.547729,227.578629 462.652374,223.233246 
	C465.519135,219.105621 468.158295,215.305710 470.952667,211.282349 
	C463.721466,209.650742 464.132355,217.169662 460.253876,219.290192 
	C456.434204,217.316788 457.289581,209.323380 449.761383,211.349533 
	C452.531006,215.484894 455.193207,219.459900 457.883575,223.476913 
	C454.976715,227.840195 452.127869,232.116425 449.278992,236.392654 
	C449.634552,236.831039 449.990112,237.269424 450.345673,237.707809 
	C452.124664,236.412613 454.186340,235.367722 455.611176,233.758881 
	C457.389648,231.750656 458.643707,229.277985 460.368225,226.631332 
	C462.301422,229.686447 463.810669,232.071579 465.754791,235.077286 
M393.647491,217.661148 
	C390.203033,210.831223 383.564453,208.908051 377.638824,213.023453 
	C371.336548,217.400513 371.383911,230.563492 377.717957,234.995865 
	C384.485107,239.731323 392.865021,236.031357 393.320282,227.309525 
	C391.855682,227.876602 390.906677,229.031555 389.721802,229.841370 
	C387.801147,231.154037 385.671539,233.246414 383.730713,233.141922 
	C381.750854,233.035309 378.897034,231.047592 378.213074,229.216049 
	C377.179413,226.448059 376.988892,222.902451 377.787537,220.066803 
	C378.373383,217.986740 380.921692,215.461380 382.961182,215.077377 
	C384.891632,214.713928 387.984467,216.346436 389.328979,218.067535 
	C391.163116,220.415405 392.169830,220.199615 393.647491,217.661148 
M540.651733,231.254669 
	C540.651733,233.059280 540.651733,234.863892 540.651733,236.833801 
	C542.050476,236.833801 543.152527,236.833801 544.702393,236.833801 
	C544.702393,229.403885 544.702393,222.169876 544.702393,215.987289 
	C546.910828,214.427887 548.334839,213.422348 549.758911,212.416794 
	C549.502747,212.007736 549.246643,211.598679 548.990479,211.189621 
	C547.572937,211.011169 546.155334,210.832718 544.737793,210.654251 
	C544.440979,210.182465 544.144165,209.710663 543.847290,209.238861 
	C545.307373,208.120575 546.758728,206.990631 548.230408,205.887924 
	C549.273376,205.106461 550.343933,204.361893 552.375671,202.900696 
	C543.093079,201.126556 541.072266,202.660416 540.458618,210.270920 
	C539.306458,210.907303 538.154358,211.543686 537.002197,212.180084 
	C537.899841,213.053329 538.965515,213.814865 539.643555,214.834244 
	C540.213562,215.691269 540.580994,216.842102 540.607361,217.873886 
	C540.713196,222.017532 540.651550,226.165451 540.651733,231.254669 
M617.965820,226.415451 
	C617.967041,236.530365 618.855530,237.608780 627.499573,236.405655 
	C618.715454,230.598877 622.897217,222.388687 621.949036,215.784012 
	C623.657776,214.541824 624.842712,213.680420 626.027649,212.819016 
	C624.796509,211.894272 623.565369,210.969528 622.020569,209.809158 
	C621.947937,208.218933 621.851685,206.111298 621.755432,204.003677 
	C619.843933,204.623459 617.974243,206.020004 618.149536,207.077438 
	C618.650635,210.099121 615.907166,210.437881 615.114502,212.042435 
	C614.646484,212.990112 616.990601,215.256622 617.921448,217.009033 
	C618.196655,217.527237 617.965698,218.314621 617.965759,218.978668 
	C617.966003,221.136841 617.965820,223.295013 617.965820,226.415451 
M350.528778,211.020355 
	C349.568756,211.709534 347.791962,212.378113 347.773987,213.091049 
	C347.574921,220.980774 347.648743,228.877396 347.648743,236.772141 
	C348.195465,237.017090 348.742157,237.262024 349.288879,237.506973 
	C350.055267,236.331055 351.396027,235.196884 351.485046,233.971756 
	C351.808624,229.519211 351.540894,225.025040 351.829620,220.568176 
	C352.064270,216.946823 353.285797,214.047577 357.994385,214.762405 
	C358.792450,214.883575 359.817078,213.512421 360.737030,212.830719 
	C360.525787,212.304810 360.314575,211.778900 360.103333,211.252991 
	C357.992157,211.496368 355.885315,211.798431 353.767700,211.954163 
	C352.925659,212.016083 352.059814,211.754059 350.528778,211.020355 
M552.968262,235.180923 
	C554.085388,235.905014 555.202454,236.629105 556.843811,237.693008 
	C556.843811,224.973587 556.843811,213.691269 556.843811,202.421478 
	C553.804321,201.271957 552.872314,202.246780 552.912903,205.242661 
	C553.043945,214.906235 552.961670,224.572708 552.968262,235.180923 
M363.631592,234.906677 
	C364.603058,235.769684 365.574493,236.632675 366.545929,237.495667 
	C367.614746,228.845184 367.721893,221.191238 367.487305,213.547806 
	C367.455872,212.523239 365.698517,211.551636 364.740387,210.555511 
	C364.370026,210.880981 363.999634,211.206467 363.629272,211.531937 
	C363.629272,219.023224 363.629272,226.514511 363.631592,234.906677 
M225.959641,216.022095 
	C227.314392,216.439377 228.669144,216.856659 230.278931,217.352493 
	C230.278931,215.157227 230.278931,213.652435 230.278931,212.235519 
	C227.286499,211.486252 225.374023,211.780533 225.959641,216.022095 
M531.742798,216.756577 
	C531.856140,215.239532 531.969482,213.722504 532.086487,212.156921 
	C530.272095,212.156921 529.027527,212.156921 527.736755,212.156921 
	C527.082214,215.157684 526.685425,217.724701 531.742798,216.756577 
M230.545532,236.126114 
	C230.545532,234.863251 230.545532,233.600403 230.545532,232.220367 
	C228.846069,232.220367 227.494507,232.220367 226.101669,232.220367 
	C226.101669,233.927155 226.101669,235.341675 226.101669,237.057800 
	C227.571228,236.963425 228.834824,236.882278 230.545532,236.126114 
M530.242798,237.062225 
	C531.020874,235.588562 531.799011,234.114899 532.853210,232.118393 
	C530.344788,232.118393 529.088623,232.118393 526.366089,232.118393 
	C527.697510,234.252060 528.575012,235.658310 530.242798,237.062225 
M429.438354,217.051163 
	C430.071411,215.545929 430.704498,214.040695 431.481079,212.194290 
	C429.104706,212.194290 427.853729,212.194290 424.790863,212.194290 
	C426.516998,214.416412 427.545471,215.740417 429.438354,217.051163 
M427.717224,237.049850 
	C432.114441,237.567810 430.869568,234.704010 430.752136,231.992401 
	C429.132568,232.079224 427.767456,232.152420 425.956573,232.249496 
	C426.328369,234.101913 426.604767,235.478882 427.717224,237.049850 
z"/>
<path fill="#111111" opacity="1.000000" stroke="none" 
	d="
M366.679504,81.977325 
	C374.214813,82.977669 377.092316,85.166534 377.972595,90.230003 
	C379.149078,96.996979 375.246582,102.134933 368.013275,102.851944 
	C364.417786,103.208344 360.757812,102.913925 356.690430,102.913925 
	C356.690430,107.690849 356.690430,112.085091 356.690430,116.762070 
	C355.034454,116.838654 353.804016,116.895554 352.335510,116.963463 
	C352.335510,105.308487 352.335510,93.925446 352.335510,81.968193 
	C357.039734,81.968193 361.631500,81.968193 366.679504,81.977325 
M371.031189,97.893768 
	C371.796600,95.226921 373.206696,92.524544 373.062469,89.907845 
	C372.987427,88.546577 370.291962,86.480865 368.564484,86.232285 
	C364.697968,85.675896 360.696381,86.058197 356.778320,86.058197 
	C356.778320,90.558197 356.778320,94.617760 356.778320,99.317543 
	C361.481018,98.940338 365.879700,98.587524 371.031189,97.893768 
z"/>
<path fill="#181818" opacity="1.000000" stroke="none" 
	d="
M446.050110,85.248489 
	C446.050415,96.038643 446.050415,106.350800 446.050415,115.953903 
	C442.147034,116.347816 438.724121,117.070488 435.346893,116.898262 
	C433.181641,116.787834 430.735687,115.797249 429.020111,114.438103 
	C423.647247,110.181427 423.308533,98.924431 428.124939,93.994179 
	C431.770660,90.262344 435.782104,90.138344 442.003876,93.848839 
	C442.003876,89.899673 442.003876,86.187218 442.003876,82.474754 
	C442.494263,82.176521 442.984650,81.878288 443.475067,81.580055 
	C444.333313,82.643539 445.191559,83.707016 446.050110,85.248489 
M441.880615,108.783073 
	C442.063385,107.810982 442.371490,106.843452 442.407013,105.866013 
	C442.553040,101.845467 442.740112,97.502342 438.531433,95.439270 
	C436.809753,94.595322 433.732208,94.795197 432.102356,95.829483 
	C428.200531,98.305527 428.229584,102.792839 429.249512,106.569496 
	C429.916626,109.039642 432.090637,111.791443 434.346252,112.973770 
	C437.323059,114.534142 439.991913,112.536552 441.880615,108.783073 
z"/>
<path fill="#1A1A1A" opacity="1.000000" stroke="none" 
	d="
M303.506653,99.361954 
	C302.800781,95.377373 300.209778,93.775459 297.302277,94.909874 
	C295.109680,95.765366 292.387451,98.282997 292.087402,100.374451 
	C291.340302,105.582710 291.841461,110.970047 291.841461,116.675728 
	C290.238312,116.779472 289.066620,116.855293 287.756012,116.940109 
	C287.756012,108.257919 287.756012,99.945290 287.756012,90.619545 
	C289.537811,91.434311 290.918182,92.065514 293.018005,93.025703 
	C293.525238,92.783173 294.932953,91.915421 296.460907,91.414268 
	C302.059509,89.577965 307.140533,92.782860 307.482697,98.634811 
	C307.793182,103.945068 307.713501,109.292442 307.471558,114.608238 
	C307.424927,115.632935 305.830994,116.587196 304.950836,117.573944 
	C304.494537,117.284218 304.038208,116.994484 303.581909,116.704758 
	C303.581909,111.076302 303.581909,105.447845 303.506653,99.361954 
z"/>
<path fill="#171717" opacity="1.000000" stroke="none" 
	d="
M327.011932,116.340088 
	C318.644318,117.883598 315.307159,116.217896 313.411652,108.359764 
	C314.658783,108.961823 315.918671,109.539101 317.150238,110.171494 
	C319.237610,111.243355 321.288177,113.148232 323.389893,113.198029 
	C325.180328,113.240456 327.020874,111.164810 328.839264,110.026184 
	C327.390808,108.732697 326.129395,107.053246 324.448792,106.238785 
	C322.098328,105.099716 319.291168,104.904671 316.937469,103.770294 
	C312.690216,101.723320 312.071991,96.617149 315.430267,93.392105 
	C320.506348,88.517426 329.579559,90.925812 332.258972,99.351913 
	C330.078674,98.311356 328.844299,97.742996 327.628662,97.137047 
	C325.934937,96.292809 324.229218,94.696472 322.576630,94.755959 
	C320.787109,94.820374 319.052765,96.417763 317.294373,97.346573 
	C318.622681,98.545273 319.795380,100.028625 321.322601,100.863396 
	C322.879395,101.714310 324.786652,101.920692 326.537048,102.421326 
	C329.690277,103.323204 332.679138,104.548859 332.960724,108.387260 
	C333.255737,112.408951 331.147247,114.944923 327.011932,116.340088 
z"/>
<path fill="#181818" opacity="1.000000" stroke="none" 
	d="
M409.098328,117.031830 
	C403.118774,116.312958 399.412781,113.383873 398.439819,107.756195 
	C397.535645,102.526253 397.671967,97.310577 402.249084,93.583649 
	C406.059235,90.481232 410.500763,90.019653 414.876862,92.211395 
	C419.984833,94.769699 421.311005,99.412132 421.114624,104.782310 
	C420.930206,109.824402 419.260620,113.913864 414.328583,115.953789 
	C412.828522,116.574234 411.121124,116.693405 409.098328,117.031830 
M416.395630,99.507622 
	C415.022156,95.932365 412.140076,93.671928 408.695618,94.884727 
	C406.198547,95.763924 403.804871,98.505478 402.609161,101.010437 
	C401.670746,102.976372 401.838409,106.331703 402.962219,108.198341 
	C404.308228,110.434105 406.984131,112.668625 409.462097,113.227440 
	C412.793304,113.978653 415.647766,111.687531 416.388275,108.178497 
	C416.923889,105.640617 416.606384,102.922714 416.395630,99.507622 
z"/>
<path fill="#1B1B1B" opacity="1.000000" stroke="none" 
	d="
M478.913757,108.893936 
	C477.341827,99.070686 479.696716,93.640587 486.164917,91.571457 
	C492.343750,89.594902 497.053558,92.220657 499.457581,100.379845 
	C497.252747,99.252525 496.051788,98.626129 494.839966,98.021576 
	C492.655304,96.931686 490.132111,94.614754 488.360382,95.089066 
	C486.185974,95.671188 483.900482,98.306923 483.025299,100.579529 
	C482.149231,102.854446 482.245422,106.086113 483.226532,108.323524 
	C484.134308,110.393791 486.648865,112.795074 488.692810,113.035492 
	C490.671600,113.268234 493.005249,111.015976 495.080444,109.694160 
	C496.287415,108.925362 497.292725,107.839874 498.870880,107.443466 
	C498.857056,113.124489 495.820404,116.002151 490.955353,116.922043 
	C485.866852,117.884209 481.642120,115.050690 478.913757,108.893936 
z"/>
<path fill="#181818" opacity="1.000000" stroke="none" 
	d="
M452.959412,93.285873 
	C453.976593,92.055283 454.990509,91.296303 457.053864,89.751724 
	C457.053864,96.592461 457.076904,101.862442 457.045593,107.132095 
	C457.025421,110.524696 458.101166,113.184517 461.910278,113.350151 
	C465.744812,113.516891 468.426697,111.585342 468.730011,107.636932 
	C469.072479,103.178131 468.870026,98.679344 468.970825,94.199440 
	C469.038208,91.205574 469.089996,91.206741 472.848267,91.436386 
	C472.848267,99.831512 472.848267,108.239967 472.848267,117.983444 
	C470.873749,116.470322 469.632843,115.519409 468.161713,114.392036 
	C467.515656,114.766403 466.299652,115.643974 464.954651,116.220497 
	C459.169556,118.700134 453.555023,115.461205 453.156067,109.194077 
	C452.829559,104.065086 453.003845,98.904228 452.959412,93.285873 
z"/>
<path fill="#1B1B1B" opacity="1.000000" stroke="none" 
	d="
M512.913391,115.169380 
	C509.096100,118.470871 504.903961,116.781708 504.534821,111.976601 
	C504.230560,108.016220 504.524750,104.013466 504.380646,100.035767 
	C504.299683,97.801559 505.585724,94.834480 501.803284,94.104370 
	C501.553467,94.056152 501.166443,93.107147 501.315125,92.850929 
	C503.156799,89.676941 505.086182,86.553810 508.132568,83.759544 
	C508.260376,85.984848 508.388184,88.210159 508.500549,90.166710 
	C509.936615,90.933937 511.243561,91.632195 512.550537,92.330452 
	C511.579010,93.113876 509.880554,93.797371 509.756836,94.697327 
	C509.082428,99.603622 508.593323,104.560257 508.521301,109.506577 
	C508.503845,110.706581 510.280304,111.949913 511.271912,113.139961 
	C511.750793,113.714684 512.322571,114.211998 512.913391,115.169380 
z"/>
<path fill="#191919" opacity="1.000000" stroke="none" 
	d="
M383.649933,104.000351 
	C383.649963,99.540207 383.649963,95.573212 383.649963,91.845726 
	C388.013794,91.845726 392.127197,91.845726 396.240631,91.845726 
	C396.408997,92.197525 396.577393,92.549324 396.745758,92.901123 
	C395.802734,93.554710 394.765930,94.870377 393.932129,94.752327 
	C389.213379,94.084206 388.053009,97.031219 387.822998,100.625702 
	C387.538025,105.079071 387.810974,109.569656 387.484314,114.017838 
	C387.395081,115.232803 386.019196,116.353264 385.233765,117.517090 
	C384.705811,117.264992 384.177856,117.012901 383.649902,116.760803 
	C383.649902,112.671700 383.649902,108.582603 383.649933,104.000351 
z"/>
<path fill="#232323" opacity="1.000000" stroke="none" 
	d="
M343.380310,112.121841 
	C343.881683,113.668053 344.017578,115.088531 344.181335,116.800217 
	C342.490356,116.800217 341.134613,116.800217 339.724579,116.800217 
	C339.072052,113.825256 338.703674,111.271149 343.380310,112.121841 
z"/>
<path fill="#232323" opacity="1.000000" stroke="none" 
	d="
M341.051941,91.945419 
	C342.615417,93.171257 343.780273,94.408119 344.945099,95.644981 
	C344.571075,96.045647 344.197021,96.446320 343.822998,96.846985 
	C342.578003,96.912399 341.333038,96.977806 338.965302,97.102203 
	C339.637726,95.052452 340.145508,93.504448 341.051941,91.945419 
z"/>
<path fill="#111111" opacity="1.000000" stroke="none" 
	d="
M316.111572,222.991455 
	C316.111572,215.857620 316.111572,209.221664 316.111572,202.185852 
	C322.009705,202.185852 327.636871,201.811615 333.190643,202.290054 
	C338.859436,202.778381 341.930145,206.510696 342.116608,211.859848 
	C342.311829,217.460007 339.373596,221.571884 333.764038,222.494934 
	C329.548065,223.188690 325.197144,223.062668 320.624023,223.317307 
	C320.624023,227.718674 320.624023,232.000198 320.624023,236.678131 
	C319.157196,236.818466 317.937134,236.935196 316.111572,237.109848 
	C316.111572,232.374237 316.111572,227.931793 316.111572,222.991455 
M325.444092,206.009079 
	C323.851288,206.009079 322.258453,206.009079 320.834381,206.009079 
	C320.834381,210.661835 320.834381,214.706619 320.834381,218.959656 
	C324.610931,218.959656 328.078766,219.117493 331.526093,218.919067 
	C335.685669,218.679642 337.850861,216.268814 337.674744,212.089890 
	C337.509583,208.171448 335.430389,206.011246 331.372589,206.015274 
	C329.717316,206.016907 328.062042,206.011322 325.444092,206.009079 
z"/>
<path fill="#101010" opacity="1.000000" stroke="none" 
	d="
M519.334717,231.711731 
	C519.334656,233.661301 519.334656,235.146423 519.334656,236.077271 
	C515.327148,236.397888 511.664368,237.037994 508.030762,236.901566 
	C502.352905,236.688370 498.345795,231.425537 498.122955,224.549911 
	C497.884552,217.193893 501.464478,211.567459 507.269104,211.207870 
	C509.818817,211.049911 512.466003,212.464828 515.375610,213.248169 
	C515.375610,209.875076 515.375610,206.126068 515.375610,202.181946 
	C516.886719,202.181946 517.988770,202.181946 519.334717,202.181946 
	C519.334717,211.994247 519.334717,221.620773 519.334717,231.711731 
M502.337982,221.082031 
	C502.281525,221.743042 502.180450,222.403717 502.175446,223.065109 
	C502.124756,229.770370 504.900909,233.734848 509.445709,233.473801 
	C513.945984,233.215302 516.428894,228.870056 515.809998,222.336411 
	C515.794373,222.171219 515.789429,222.004654 515.766174,221.840607 
	C515.232666,218.074387 513.668884,214.994202 509.494629,214.612457 
	C505.568512,214.253418 503.393433,216.609482 502.337982,221.082031 
z"/>
<path fill="#191919" opacity="1.000000" stroke="none" 
	d="
M258.354004,227.027435 
	C258.353973,230.487778 258.353973,233.472992 258.353973,236.550064 
	C255.726837,237.485596 254.095306,237.465378 254.208313,234.070755 
	C254.352081,229.751709 254.204895,225.423782 254.253845,221.100494 
	C254.291489,217.774979 253.497284,214.940048 249.622192,214.681213 
	C245.534103,214.408157 242.740250,216.492203 242.488861,220.638168 
	C242.167862,225.932190 242.411011,231.260406 242.411011,236.482986 
	C239.321655,237.699234 238.157532,237.004089 238.197891,233.869888 
	C238.322052,224.225967 238.158585,214.577744 238.352448,204.936111 
	C238.376175,203.756729 239.892883,202.607376 240.717728,201.444122 
	C241.217102,201.711853 241.716476,201.979599 242.215851,202.247345 
	C242.215851,205.834030 242.215851,209.420715 242.215851,213.498810 
	C244.041641,212.727417 245.316406,212.117584 246.639420,211.642059 
	C252.778610,209.435455 257.672638,212.554642 258.193970,219.075272 
	C258.392334,221.556015 258.308990,224.059280 258.354004,227.027435 
z"/>
<path fill="#181818" opacity="1.000000" stroke="none" 
	d="
M263.379822,230.816086 
	C263.614868,225.552063 266.709137,223.569748 271.105164,222.915710 
	C273.237549,222.598465 275.431091,222.460876 277.469116,221.829330 
	C278.654266,221.462067 280.485382,220.221542 280.438660,219.473068 
	C280.350494,218.061234 279.434235,215.981339 278.296783,215.491165 
	C275.021484,214.079742 271.616180,213.756927 268.779907,216.957428 
	C267.918457,217.929489 266.409180,218.327454 264.075928,219.599228 
	C266.301758,212.564163 271.075378,210.046356 277.500763,211.086197 
	C282.978729,211.972717 284.675140,214.126923 284.741547,220.497925 
	C284.796539,225.775604 284.752808,231.054321 284.752808,237.297409 
	C283.315857,236.484879 281.720673,235.582855 279.786713,234.489258 
	C271.287170,238.806671 266.324738,237.943771 263.379822,230.816086 
M267.682343,229.668381 
	C268.785980,234.843170 272.637329,233.738770 275.890106,232.898972 
	C279.770874,231.897049 281.216614,229.069778 280.153320,223.887711 
	C275.705597,225.675400 271.782654,227.252151 267.682343,229.668381 
z"/>
<path fill="#141414" opacity="1.000000" stroke="none" 
	d="
M592.361694,235.867889 
	C591.048706,233.247864 588.806274,230.329788 589.479553,228.463531 
	C590.302246,226.183044 593.355469,224.334198 595.847534,223.142349 
	C597.994263,222.115707 600.748474,222.436905 603.150940,221.831970 
	C604.231750,221.559830 605.955444,220.422684 605.909546,219.784195 
	C605.804443,218.321304 605.164734,216.196548 604.075439,215.636185 
	C600.835083,213.969238 597.430847,213.816284 594.459473,216.705597 
	C593.455261,217.682053 592.120789,218.318863 589.895996,219.807648 
	C591.363770,212.872574 595.213684,210.507278 601.815552,210.990280 
	C607.665344,211.418228 610.052246,213.682220 610.179932,219.322968 
	C610.310486,225.087784 610.208801,230.857849 610.208801,237.481598 
	C608.694092,236.513031 607.196045,235.555161 605.698059,234.597290 
	C605.785278,234.936020 605.872437,235.274734 605.959656,235.613464 
	C601.548035,235.754349 597.136414,235.895248 592.361694,235.867889 
M593.702942,228.098450 
	C594.421387,229.764465 594.713745,232.391235 595.931580,232.931396 
	C601.416992,235.364395 606.347351,231.232590 605.569397,224.563705 
	C601.728943,225.543198 597.953003,226.506226 593.702942,228.098450 
z"/>
<path fill="#121212" opacity="1.000000" stroke="none" 
	d="
M407.220337,225.033737 
	C404.968475,225.033737 403.180511,225.033737 401.153870,225.033737 
	C401.359192,229.041550 402.672272,231.878036 406.351959,233.012466 
	C410.014160,234.141525 412.722198,232.893005 414.824371,229.612518 
	C415.401764,228.711472 417.238464,228.617340 419.072601,227.940704 
	C417.175354,235.062546 412.218536,238.111694 406.100555,236.808868 
	C399.473572,235.397614 396.155731,229.906143 397.044037,221.819046 
	C397.782715,215.094452 402.815613,210.558762 409.059235,210.990921 
	C415.674957,211.448837 419.255615,216.051010 419.445374,225.033737 
	C415.525146,225.033737 411.604675,225.033737 407.220337,225.033737 
M401.768066,221.298599 
	C406.176575,221.298599 410.585083,221.298599 415.297821,221.298599 
	C414.997925,216.946655 412.744141,214.756760 409.031403,214.538376 
	C404.906738,214.295761 401.992889,216.212967 401.768066,221.298599 
z"/>
<path fill="#171717" opacity="1.000000" stroke="none" 
	d="
M214.284821,217.546082 
	C213.109985,216.424530 212.026184,214.932892 211.096130,215.023285 
	C208.683746,215.257736 204.849487,215.563400 204.261475,216.964676 
	C202.807373,220.429962 206.546265,220.427963 208.772919,221.146545 
	C210.826965,221.809464 212.957306,222.267105 214.957977,223.058151 
	C220.019547,225.059509 221.097183,230.586502 217.234329,234.309708 
	C211.505676,239.831268 201.712296,237.079010 199.044708,227.611816 
	C201.263458,228.781113 202.487137,229.305176 203.577209,230.030167 
	C205.031265,230.997238 206.442017,233.059860 207.763321,232.974716 
	C210.264969,232.813538 214.167496,232.082809 214.848053,230.472824 
	C216.410767,226.775818 212.371323,226.827927 210.054855,226.002335 
	C207.712921,225.167633 205.194824,224.689377 203.024200,223.543121 
	C199.447418,221.654327 198.305450,216.651733 201.432098,214.331543 
	C204.066299,212.376846 207.985291,211.404602 211.345047,211.381561 
	C214.896591,211.357178 217.920166,213.523178 218.371185,218.681091 
	C216.833160,218.373795 215.639526,218.135300 214.284821,217.546082 
z"/>
<path fill="#1A1A1A" opacity="1.000000" stroke="none" 
	d="
M194.205521,235.330475 
	C193.090637,236.283127 191.985733,236.796448 190.229111,237.612549 
	C190.229111,231.329956 190.205246,226.033875 190.237610,220.738144 
	C190.258682,217.291016 189.033707,214.758179 185.249329,214.636002 
	C181.681000,214.520828 178.853134,216.177261 178.622284,219.948471 
	C178.288422,225.402313 178.536835,230.891800 178.536835,236.473541 
	C175.719528,237.424408 174.144211,237.489700 174.200806,234.092209 
	C174.325211,226.624496 174.239395,219.153275 174.239395,210.101440 
	C176.381210,211.585892 177.669357,212.478668 179.102692,213.472092 
	C180.046509,212.973495 181.430923,212.009766 182.964752,211.473267 
	C188.739334,209.453476 193.911926,212.834732 194.161484,218.936386 
	C194.378677,224.246506 194.212357,229.572281 194.205521,235.330475 
z"/>
<path fill="#151515" opacity="1.000000" stroke="none" 
	d="
M297.310059,214.922760 
	C293.783386,218.006912 293.967468,219.452469 297.760834,220.740768 
	C300.270630,221.593155 303.142212,221.748199 305.329071,223.076263 
	C307.353851,224.305893 309.942413,226.645599 309.994690,228.558945 
	C310.057281,230.850876 308.258972,234.057617 306.274750,235.380280 
	C300.198120,239.430878 292.930603,236.600800 289.502747,227.915558 
	C291.910492,228.974380 293.244324,229.402740 294.406921,230.111801 
	C295.897308,231.020813 297.315796,233.086685 298.647766,232.992508 
	C301.146454,232.815796 305.038849,232.062424 305.712402,230.447861 
	C307.269806,226.714767 303.180573,226.838440 300.888519,225.999252 
	C298.557861,225.145966 296.039703,224.680359 293.870758,223.537903 
	C290.302551,221.658371 289.151215,216.635864 292.267395,214.329727 
	C294.904053,212.378464 298.811859,211.432144 302.179657,211.375183 
	C305.792145,211.314117 308.621155,213.642776 309.304932,218.456039 
	C305.147552,217.152527 301.440063,215.990082 297.310059,214.922760 
z"/>
<path fill="#151515" opacity="1.000000" stroke="none" 
	d="
M491.361542,213.669540 
	C492.203094,215.117294 492.777466,216.281616 493.351807,217.445938 
	C493.131897,217.894470 492.911987,218.343002 492.692047,218.791519 
	C491.454071,218.257965 490.203400,217.751709 488.981018,217.184448 
	C487.130341,216.325623 485.312866,214.778030 483.455811,214.739120 
	C481.880585,214.706116 480.269287,216.395020 478.673950,217.321960 
	C479.990143,218.527847 481.124664,220.115814 482.665802,220.848572 
	C484.886353,221.904388 487.465393,222.175964 489.779358,223.071747 
	C494.831116,225.027328 495.919037,230.605743 492.078461,234.304855 
	C486.359833,239.812775 476.603180,237.077560 473.862671,227.627029 
	C476.057404,228.777786 477.691040,229.091080 478.314362,230.056625 
	C480.815002,233.930099 484.252441,234.016052 487.933136,232.662979 
	C488.920471,232.300003 490.020905,230.705566 490.027283,229.670059 
	C490.033020,228.738403 488.789246,227.365372 487.781250,226.947311 
	C485.345825,225.937149 482.706696,225.431137 480.185791,224.610901 
	C476.926758,223.550476 474.487396,221.667236 474.715271,217.842087 
	C474.935822,214.139374 477.342072,211.691177 480.702759,211.579102 
	C484.142700,211.464355 487.628571,212.726593 491.361542,213.669540 
z"/>
<path fill="#181818" opacity="1.000000" stroke="none" 
	d="
M584.242188,218.191605 
	C586.214294,227.143524 584.404907,233.001236 579.096313,235.676544 
	C573.263245,238.616180 566.361816,236.619797 563.572021,231.185883 
	C560.194153,224.606262 562.220154,215.568542 567.759521,212.506531 
	C573.848267,209.140839 580.212952,211.206055 584.242188,218.191605 
M569.634155,215.758591 
	C566.108826,219.432632 565.072632,225.268097 567.199890,229.467529 
	C569.296448,233.606293 574.726807,234.726913 578.229553,231.743683 
	C581.072144,229.322693 582.087158,222.592422 580.040527,218.681961 
	C577.896057,214.584274 574.445923,213.841766 569.634155,215.758591 
z"/>
<path fill="#141414" opacity="1.000000" stroke="none" 
	d="
M465.537354,234.766998 
	C463.810669,232.071579 462.301422,229.686447 460.368225,226.631332 
	C458.643707,229.277985 457.389648,231.750656 455.611176,233.758881 
	C454.186340,235.367722 452.124664,236.412613 450.345673,237.707809 
	C449.990112,237.269424 449.634552,236.831039 449.278992,236.392654 
	C452.127869,232.116425 454.976715,227.840195 457.883575,223.476913 
	C455.193207,219.459900 452.531006,215.484894 449.761383,211.349533 
	C457.289581,209.323380 456.434204,217.316788 460.253876,219.290192 
	C464.132355,217.169662 463.721466,209.650742 470.952667,211.282349 
	C468.158295,215.305710 465.519135,219.105621 462.652374,223.233246 
	C465.547729,227.578629 468.459808,231.949097 471.371857,236.319565 
	C471.133362,236.700211 470.894867,237.080856 470.656342,237.461517 
	C469.022491,236.666763 467.388641,235.872025 465.537354,234.766998 
z"/>
<path fill="#181818" opacity="1.000000" stroke="none" 
	d="
M393.724243,218.012543 
	C392.169830,220.199615 391.163116,220.415405 389.328979,218.067535 
	C387.984467,216.346436 384.891632,214.713928 382.961182,215.077377 
	C380.921692,215.461380 378.373383,217.986740 377.787537,220.066803 
	C376.988892,222.902451 377.179413,226.448059 378.213074,229.216049 
	C378.897034,231.047592 381.750854,233.035309 383.730713,233.141922 
	C385.671539,233.246414 387.801147,231.154037 389.721802,229.841370 
	C390.906677,229.031555 391.855682,227.876602 393.320282,227.309525 
	C392.865021,236.031357 384.485107,239.731323 377.717957,234.995865 
	C371.383911,230.563492 371.336548,217.400513 377.638824,213.023453 
	C383.564453,208.908051 390.203033,210.831223 393.724243,218.012543 
z"/>
<path fill="#191919" opacity="1.000000" stroke="none" 
	d="
M540.651733,230.783234 
	C540.651550,226.165451 540.713196,222.017532 540.607361,217.873886 
	C540.580994,216.842102 540.213562,215.691269 539.643555,214.834244 
	C538.965515,213.814865 537.899841,213.053329 537.002197,212.180084 
	C538.154358,211.543686 539.306458,210.907303 540.458618,210.270935 
	C541.072266,202.660416 543.093079,201.126556 552.375671,202.900696 
	C550.343933,204.361893 549.273376,205.106461 548.230408,205.887924 
	C546.758728,206.990631 545.307373,208.120575 543.847290,209.238861 
	C544.144165,209.710663 544.440979,210.182465 544.737793,210.654251 
	C546.155334,210.832718 547.572937,211.011169 548.990479,211.189621 
	C549.246643,211.598679 549.502747,212.007736 549.758911,212.416794 
	C548.334839,213.422348 546.910828,214.427887 544.702393,215.987289 
	C544.702393,222.169876 544.702393,229.403885 544.702393,236.833801 
	C543.152527,236.833801 542.050476,236.833801 540.651733,236.833801 
	C540.651733,234.863892 540.651733,233.059280 540.651733,230.783234 
z"/>
<path fill="#181818" opacity="1.000000" stroke="none" 
	d="
M617.965820,225.934326 
	C617.965820,223.295013 617.966003,221.136841 617.965759,218.978668 
	C617.965698,218.314621 618.196655,217.527237 617.921448,217.009033 
	C616.990601,215.256622 614.646484,212.990112 615.114502,212.042435 
	C615.907166,210.437881 618.650635,210.099121 618.149536,207.077438 
	C617.974243,206.020004 619.843933,204.623459 621.755432,204.003677 
	C621.851685,206.111298 621.947937,208.218933 622.020569,209.809158 
	C623.565369,210.969528 624.796509,211.894272 626.027649,212.819000 
	C624.842712,213.680420 623.657776,214.541824 621.949036,215.784012 
	C622.897217,222.388687 618.715454,230.598877 627.499573,236.405655 
	C618.855530,237.608780 617.967041,236.530365 617.965820,225.934326 
z"/>
<path fill="#191919" opacity="1.000000" stroke="none" 
	d="
M350.866791,211.329926 
	C352.059814,211.754059 352.925659,212.016083 353.767700,211.954163 
	C355.885315,211.798431 357.992157,211.496368 360.103333,211.252991 
	C360.314575,211.778900 360.525787,212.304810 360.737030,212.830719 
	C359.817078,213.512421 358.792450,214.883575 357.994385,214.762405 
	C353.285797,214.047577 352.064270,216.946823 351.829620,220.568176 
	C351.540894,225.025040 351.808624,229.519211 351.485046,233.971756 
	C351.396027,235.196884 350.055267,236.331055 349.288879,237.506973 
	C348.742157,237.262024 348.195465,237.017090 347.648743,236.772141 
	C347.648743,228.877396 347.574921,220.980774 347.773987,213.091049 
	C347.791962,212.378113 349.568756,211.709534 350.866791,211.329926 
z"/>
<path fill="#181818" opacity="1.000000" stroke="none" 
	d="
M552.964966,234.709488 
	C552.961670,224.572708 553.043945,214.906235 552.912903,205.242661 
	C552.872314,202.246780 553.804321,201.271957 556.843811,202.421478 
	C556.843811,213.691269 556.843811,224.973587 556.843811,237.693008 
	C555.202454,236.629105 554.085388,235.905014 552.964966,234.709488 
z"/>
<path fill="#202020" opacity="1.000000" stroke="none" 
	d="
M363.630432,234.456238 
	C363.629272,226.514511 363.629272,219.023224 363.629272,211.531937 
	C363.999634,211.206467 364.370026,210.880981 364.740387,210.555511 
	C365.698517,211.551636 367.455872,212.523239 367.487305,213.547806 
	C367.721893,221.191238 367.614746,228.845184 366.545929,237.495667 
	C365.574493,236.632675 364.603058,235.769684 363.630432,234.456238 
z"/>
<path fill="#232323" opacity="1.000000" stroke="none" 
	d="
M225.938385,215.639526 
	C225.374023,211.780533 227.286499,211.486252 230.278931,212.235519 
	C230.278931,213.652435 230.278931,215.157227 230.278931,217.352493 
	C228.669144,216.856659 227.314392,216.439377 225.938385,215.639526 
z"/>
<path fill="#232323" opacity="1.000000" stroke="none" 
	d="
M531.375244,216.880493 
	C526.685425,217.724701 527.082214,215.157684 527.736755,212.156921 
	C529.027527,212.156921 530.272095,212.156921 532.086487,212.156921 
	C531.969482,213.722504 531.856140,215.239532 531.375244,216.880493 
z"/>
<path fill="#232323" opacity="1.000000" stroke="none" 
	d="
M230.321991,236.463623 
	C228.834824,236.882278 227.571228,236.963425 226.101669,237.057800 
	C226.101669,235.341675 226.101669,233.927155 226.101669,232.220367 
	C227.494507,232.220367 228.846069,232.220367 230.545532,232.220367 
	C230.545532,233.600403 230.545532,234.863251 230.321991,236.463623 
z"/>
<path fill="#232323" opacity="1.000000" stroke="none" 
	d="
M529.847656,237.063400 
	C528.575012,235.658310 527.697510,234.252060 526.366089,232.118393 
	C529.088623,232.118393 530.344788,232.118393 532.853210,232.118393 
	C531.799011,234.114899 531.020874,235.588562 529.847656,237.063400 
z"/>
<path fill="#232323" opacity="1.000000" stroke="none" 
	d="
M429.006134,217.057785 
	C427.545471,215.740417 426.516998,214.416412 424.790863,212.194290 
	C427.853729,212.194290 429.104706,212.194290 431.481079,212.194290 
	C430.704498,214.040695 430.071411,215.545929 429.006134,217.057785 
z"/>
<path fill="#232323" opacity="1.000000" stroke="none" 
	d="
M427.299194,236.952850 
	C426.604767,235.478882 426.328369,234.101913 425.956573,232.249496 
	C427.767456,232.152420 429.132568,232.079224 430.752136,231.992401 
	C430.869568,234.704010 432.114441,237.567810 427.299194,236.952850 
z"/>
<path fill="#F2F2F2" opacity="1.000000" stroke="none" 
	d="
M370.654785,98.064240 
	C365.879700,98.587524 361.481018,98.940338 356.778320,99.317543 
	C356.778320,94.617760 356.778320,90.558197 356.778320,86.058197 
	C360.696381,86.058197 364.697968,85.675896 368.564484,86.232285 
	C370.291962,86.480865 372.987427,88.546577 373.062469,89.907845 
	C373.206696,92.524544 371.796600,95.226921 370.654785,98.064240 
z"/>
<path fill="#F4F4F4" opacity="1.000000" stroke="none" 
	d="
M441.728821,109.183075 
	C439.991913,112.536552 437.323059,114.534142 434.346252,112.973770 
	C432.090637,111.791443 429.916626,109.039642 429.249512,106.569496 
	C428.229584,102.792839 428.200531,98.305527 432.102356,95.829483 
	C433.732208,94.795197 436.809753,94.595322 438.531433,95.439270 
	C442.740112,97.502342 442.553040,101.845467 442.407013,105.866013 
	C442.371490,106.843452 442.063385,107.810982 441.728821,109.183075 
z"/>
<path fill="#F7F7F7" opacity="1.000000" stroke="none" 
	d="
M416.532471,99.896362 
	C416.606384,102.922714 416.923889,105.640617 416.388275,108.178497 
	C415.647766,111.687531 412.793304,113.978653 409.462097,113.227440 
	C406.984131,112.668625 404.308228,110.434105 402.962219,108.198341 
	C401.838409,106.331703 401.670746,102.976372 402.609161,101.010437 
	C403.804871,98.505478 406.198547,95.763924 408.695618,94.884727 
	C412.140076,93.671928 415.022156,95.932365 416.532471,99.896362 
z"/>
<path fill="#F2F2F2" opacity="1.000000" stroke="none" 
	d="
M325.925415,206.009064 
	C328.062042,206.011322 329.717316,206.016907 331.372589,206.015274 
	C335.430389,206.011246 337.509583,208.171448 337.674744,212.089890 
	C337.850861,216.268814 335.685669,218.679642 331.526093,218.919067 
	C328.078766,219.117493 324.610931,218.959656 320.834381,218.959656 
	C320.834381,214.706619 320.834381,210.661835 320.834381,206.009079 
	C322.258453,206.009079 323.851288,206.009079 325.925415,206.009064 
z"/>
<path fill="#F2F2F2" opacity="1.000000" stroke="none" 
	d="
M502.421600,220.681885 
	C503.393433,216.609482 505.568512,214.253418 509.494629,214.612457 
	C513.668884,214.994202 515.232666,218.074387 515.766174,221.840607 
	C515.789429,222.004654 515.794373,222.171219 515.809998,222.336411 
	C516.428894,228.870056 513.945984,233.215302 509.445709,233.473801 
	C504.900909,233.734848 502.124756,229.770370 502.175446,223.065109 
	C502.180450,222.403717 502.281525,221.743042 502.421600,220.681885 
z"/>
<path fill="#EEEEEE" opacity="1.000000" stroke="none" 
	d="
M267.771027,229.248642 
	C271.782654,227.252151 275.705597,225.675400 280.153320,223.887711 
	C281.216614,229.069778 279.770874,231.897049 275.890106,232.898972 
	C272.637329,233.738770 268.785980,234.843170 267.771027,229.248642 
z"/>
<path fill="#EEEEEE" opacity="1.000000" stroke="none" 
	d="
M593.940002,227.783844 
	C597.953003,226.506226 601.728943,225.543198 605.569397,224.563705 
	C606.347351,231.232590 601.416992,235.364395 595.931580,232.931396 
	C594.713745,232.391235 594.421387,229.764465 593.940002,227.783844 
z"/>
<path fill="#E0E0E0" opacity="1.000000" stroke="none" 
	d="
M401.552124,220.975266 
	C401.992889,216.212967 404.906738,214.295761 409.031403,214.538376 
	C412.744141,214.756760 414.997925,216.946655 415.297821,221.298599 
	C410.585083,221.298599 406.176575,221.298599 401.552124,220.975266 
z"/>
<path fill="#F7F7F7" opacity="1.000000" stroke="none" 
	d="
M569.966797,215.516251 
	C574.445923,213.841766 577.896057,214.584274 580.040527,218.681961 
	C582.087158,222.592422 581.072144,229.322693 578.229553,231.743683 
	C574.726807,234.726913 569.296448,233.606293 567.199890,229.467529 
	C565.072632,225.268097 566.108826,219.432632 569.966797,215.516251 
z"/>
</svg>