<svg version="1.1" id="Layer_1" xmlns="http://www.w3.org/2000/svg" xmlns:xlink="http://www.w3.org/1999/xlink" x="0px" y="0px"
	 width="100%" viewBox="0 0 1580 204" enable-background="new 0 0 1580 204" xml:space="preserve">
<path fill="#FFFFFF" opacity="1.000000" stroke="none" 
	d="
M1186.000000,205.000000 
	C790.666687,205.000000 395.833374,205.000000 1.000053,205.000000 
	C1.000035,137.000031 1.000035,69.000053 1.000018,1.000062 
	C527.666626,1.000041 1054.333252,1.000041 1581.000000,1.000021 
	C1581.000000,68.999939 1581.000000,136.999878 1581.000000,204.999908 
	C1449.500000,205.000000 1318.000000,205.000000 1186.000000,205.000000 
M1541.062012,144.499847 
	C1541.062012,110.080902 1541.062012,75.661964 1541.062012,41.240379 
	C1406.117065,41.240379 1271.737061,41.240379 1136.815674,41.240379 
	C1136.815674,61.455673 1136.815674,81.433853 1136.815674,101.866264 
	C1122.601807,94.765694 1109.006714,87.974289 1094.175537,80.565353 
	C1096.695190,85.683250 1098.408691,89.768784 1100.635742,93.551971 
	C1104.408813,99.961388 1104.384155,106.095711 1100.614746,112.495811 
	C1098.391235,116.270935 1096.678467,120.346878 1094.180908,125.413879 
	C1109.130615,117.945259 1122.847656,111.092407 1137.236816,103.903839 
	C1137.236816,124.745605 1137.236816,144.805710 1137.236816,164.715912 
	C1272.077271,164.715912 1406.462036,164.715912 1541.062012,164.715912 
	C1541.062012,158.120758 1541.062012,151.810196 1541.062012,144.499847 
M398.500000,165.000443 
	C413.929321,165.000443 429.358643,165.000443 445.087891,165.000443 
	C445.087891,148.664078 445.087891,132.898224 445.087891,116.919052 
	C451.886200,115.594238 455.422211,111.060181 457.298981,104.776222 
	C460.672760,104.776222 463.783447,104.776222 467.451050,104.776222 
	C465.806671,97.627823 459.872070,103.151054 457.193817,100.415398 
	C457.511810,100.126183 457.829803,99.836967 458.147797,99.547752 
	C454.076019,95.557518 450.004272,91.567284 444.741333,86.409744 
	C444.741333,72.667145 444.741333,56.912910 444.741333,41.299625 
	C309.981415,41.299625 175.587006,41.299625 41.298801,41.299625 
	C41.298801,82.669250 41.298801,123.738152 41.298801,165.000443 
	C160.231964,165.000443 278.865997,165.000443 398.500000,165.000443 
M759.027100,120.587524 
	C759.027100,116.152740 759.027100,111.717957 759.027100,107.246925 
	C763.776001,107.032326 767.970032,107.199722 772.042053,106.573906 
	C777.931274,105.668816 781.060303,101.474861 780.797852,95.755775 
	C780.545105,90.247910 777.285950,86.657089 771.267029,86.216553 
	C765.887512,85.822815 760.456360,86.133751 755.084290,86.133751 
	C755.084290,97.962395 755.084290,109.361443 755.084290,120.981071 
	C756.299927,120.981071 757.284058,120.981071 759.027100,120.587524 
M680.767090,112.492546 
	C680.857117,109.667648 680.715637,106.811310 681.093994,104.025581 
	C681.598145,100.313225 684.201660,98.565140 687.767761,98.645294 
	C691.556885,98.730453 692.813904,101.272682 692.800781,104.723969 
	C692.780518,110.037651 692.795410,115.351463 692.795410,120.958954 
	C694.271362,120.892799 695.485535,120.838371 696.772583,120.780685 
	C696.772583,114.562790 697.054016,108.739197 696.697876,102.954857 
	C696.296204,96.429932 691.198975,93.445587 685.026184,95.702988 
	C683.714355,96.182739 682.434387,96.749451 680.767029,97.427727 
	C680.767029,94.629410 680.718384,92.306969 680.779724,89.987442 
	C680.851257,87.281593 680.872314,84.742302 677.058472,86.386024 
	C677.058472,97.982391 677.058472,109.388054 677.058472,120.793716 
	C677.486877,121.054680 677.915283,121.315643 678.343689,121.576607 
	C679.150696,120.529373 680.360474,119.586479 680.665527,118.409142 
	C681.069580,116.849403 680.766357,115.106407 680.767090,112.492546 
M792.714539,121.034172 
	C795.858948,120.252266 799.003418,119.470367 801.545654,118.838203 
	C803.286743,119.746742 804.841431,120.558029 806.225220,121.280113 
	C806.225220,114.999245 806.280823,109.555489 806.210388,104.113358 
	C806.130737,97.959946 804.257141,95.784103 798.626709,95.048187 
	C792.219849,94.210785 787.865295,96.562592 785.558716,103.511948 
	C787.854675,102.309746 789.390747,101.939438 790.259827,100.970665 
	C793.106506,97.797432 796.522766,98.075584 799.817444,99.453209 
	C800.939697,99.922462 801.843140,102.038826 801.914856,103.450012 
	C801.954224,104.222450 800.166687,105.446342 798.992798,105.839760 
	C797.129761,106.464180 795.098267,106.623688 793.124512,106.872604 
	C789.024658,107.389664 785.510864,108.827126 785.008545,113.465355 
	C784.483521,118.313446 787.727478,120.176521 792.714539,121.034172 
M718.924316,100.963997 
	C720.158997,104.014755 719.308899,105.694145 715.860535,105.994003 
	C713.385254,106.209236 710.879578,106.516571 708.488647,107.159126 
	C704.612915,108.200691 701.797424,110.507790 702.287354,114.939850 
	C702.754395,119.164978 705.989624,120.971359 709.706238,120.883850 
	C712.895142,120.808769 716.056091,119.543526 719.133789,118.826866 
	C720.456970,119.572983 722.084167,120.490486 723.602295,121.346535 
	C723.602295,115.096443 723.653809,109.811096 723.589111,104.527168 
	C723.510620,98.114365 721.818909,95.961983 716.369995,95.085983 
	C709.917664,94.048683 705.174561,96.539360 703.167725,102.716568 
	C704.773193,102.386925 706.534485,102.558777 707.079346,101.826080 
	C710.410645,97.346008 714.240845,97.885368 718.924316,100.963997 
M828.376648,113.055519 
	C830.931213,118.753136 834.395752,121.252884 839.748047,121.004494 
	C844.881531,120.766266 848.436462,118.359833 849.555725,112.627747 
	C847.989075,112.648781 846.163818,112.876457 845.502686,113.874954 
	C843.303711,117.195900 840.421875,118.185905 836.900513,116.895050 
	C833.453369,115.631393 831.831787,112.987381 832.334412,108.759705 
	C838.433899,108.759705 844.346680,108.759705 850.291016,108.759705 
	C850.509399,102.927361 849.062256,98.382774 843.746582,95.991165 
	C839.360474,94.017807 835.182617,94.757179 831.678833,97.924767 
	C827.340698,101.846786 827.419983,107.043663 828.376648,113.055519 
M632.767151,114.354706 
	C632.761902,110.534431 632.940613,106.702988 632.709473,102.896431 
	C632.336914,96.760330 627.264160,93.489952 621.437744,95.504303 
	C619.935669,96.023598 618.545349,96.866135 618.208008,97.028526 
	C615.996277,96.045135 614.633545,95.439217 612.885803,94.662125 
	C612.885803,103.978981 612.885803,112.276985 612.885803,120.596542 
	C615.675659,121.687225 616.905884,121.013962 616.811157,117.870239 
	C616.681274,113.559288 616.771240,109.233879 616.962402,104.923332 
	C617.149597,100.703156 619.648621,98.527649 623.757812,98.643250 
	C627.883667,98.759338 628.824646,101.686607 628.802185,105.221611 
	C628.769531,110.360565 628.793823,115.499886 628.793823,120.987556 
	C630.224426,120.873604 631.411072,120.779091 632.767090,120.671074 
	C632.767090,118.604408 632.767090,116.953316 632.767151,114.354706 
M871.801270,117.979660 
	C871.433044,121.198395 872.927429,121.616913 875.775391,120.497131 
	C875.775391,114.638245 875.964966,108.832237 875.724426,103.044090 
	C875.459839,96.676170 870.156799,93.389236 864.130005,95.631577 
	C862.771362,96.137077 861.515442,96.918602 861.073486,97.140556 
	C859.100769,96.138718 857.716125,95.435501 856.040039,94.584305 
	C856.040039,103.953964 856.040039,112.361710 856.040039,120.769455 
	C856.491028,121.024818 856.942078,121.280182 857.393066,121.535545 
	C858.189209,120.359505 859.582275,119.228607 859.675232,117.999382 
	C860.025208,113.371040 859.741028,108.694168 860.103394,104.067505 
	C860.398193,100.302971 863.077148,98.580574 866.650452,98.630272 
	C870.416016,98.682648 871.781006,101.161346 871.791504,104.614540 
	C871.804138,108.768234 871.798828,112.921974 871.801270,117.979660 
M649.165344,95.030289 
	C647.682861,95.152946 646.158142,95.096497 644.726379,95.434212 
	C641.370300,96.225807 638.947510,98.122887 638.719666,101.827393 
	C638.484314,105.653275 640.920715,107.526131 644.178833,108.609833 
	C645.752258,109.133186 647.532471,109.252739 648.919128,110.066322 
	C650.806213,111.173576 654.036438,113.088852 653.838623,114.099541 
	C653.102905,117.859711 649.597351,117.852226 646.627197,117.060135 
	C645.058350,116.641754 643.845398,114.990669 642.386658,114.024765 
	C641.291443,113.299622 640.060547,112.779510 637.869202,111.634941 
	C640.610718,121.080322 650.382080,123.813889 656.095215,118.300133 
	C659.765564,114.757881 658.911316,109.169434 654.243347,107.227493 
	C651.804260,106.212791 649.041809,105.946068 646.656433,104.842232 
	C645.117004,104.129890 643.996521,102.512268 642.688293,101.300354 
	C644.290161,100.380875 645.911194,98.700302 647.488892,98.739990 
	C649.344055,98.786652 651.151917,100.346649 652.998901,101.210709 
	C654.225891,101.784775 655.485474,102.289322 657.690857,103.238174 
	C655.494568,96.925240 655.494568,96.925240 649.165344,95.030289 
M736.462280,109.092155 
	C737.578491,109.402122 738.712585,109.659767 739.807251,110.033035 
	C742.031982,110.791679 745.716614,110.898422 744.520020,114.214516 
	C743.941589,115.817451 740.389893,116.934952 738.090637,117.122528 
	C736.562866,117.247162 734.878357,115.321304 733.246460,114.342400 
	C732.047302,113.623032 730.819824,112.950882 729.604919,112.257698 
	C731.397278,121.151894 741.167786,123.776390 746.825684,118.254829 
	C750.491516,114.677361 749.623291,109.200081 744.917236,107.234779 
	C742.486877,106.219872 739.737000,105.945145 737.353821,104.851456 
	C735.798157,104.137512 734.641846,102.553337 733.306641,101.359009 
	C735.063110,100.427528 736.794617,98.827110 738.583252,98.760460 
	C740.235596,98.698891 741.943359,100.293121 743.637756,101.135902 
	C744.855835,101.741776 746.091980,102.311218 748.274353,103.352028 
	C746.169006,96.731407 743.127197,94.568321 737.834167,94.993042 
	C733.786255,95.317863 730.127991,96.692406 729.431519,101.293419 
	C728.738892,105.868980 731.982971,107.711464 736.462280,109.092155 
M879.986450,97.216537 
	C882.435547,98.758430 883.510254,100.764175 883.182434,103.842873 
	C882.815796,107.286079 883.043701,110.799576 883.111877,114.280540 
	C883.230225,120.326691 885.494324,121.890091 892.752808,120.027573 
	C883.350891,114.670677 888.334290,106.364334 887.153320,100.125359 
	C888.923584,98.517982 890.074524,97.472931 891.225403,96.427841 
	C889.894836,95.624580 888.564270,94.821320 887.193176,93.993607 
	C887.092407,91.986252 886.987244,89.890488 886.838806,86.933846 
	C885.199951,88.352341 883.158569,89.489403 883.305542,90.096771 
	C884.106628,93.406303 881.673523,94.699371 879.986450,97.216537 
M813.086304,98.825256 
	C813.086365,105.125427 813.169495,111.427155 813.051941,117.725128 
	C812.991943,120.940636 814.044312,121.904709 817.129578,120.307930 
	C817.129578,115.466476 816.902222,110.647545 817.201233,105.861496 
	C817.442139,102.004913 817.904846,97.890984 823.739929,98.829628 
	C824.488281,98.950012 825.465271,97.648697 826.501953,96.883781 
	C822.177795,92.759659 817.501770,98.329269 813.724670,95.185364 
	C813.511963,96.091667 813.299316,96.997963 813.086304,98.825256 
M1018.947449,104.421898 
	C1019.292358,102.163094 1019.043213,100.641693 1016.031433,100.938225 
	C1013.139526,101.222954 1010.197632,100.999748 1006.946350,100.999748 
	C1007.139099,102.654884 1007.274658,103.818428 1007.407166,104.956322 
	C1011.277283,104.956322 1014.729309,104.956322 1018.947449,104.421898 
M1081.726685,105.000160 
	C1084.662842,105.000160 1087.599121,105.000160 1090.742920,105.000160 
	C1090.742920,103.553429 1090.742920,102.392700 1090.742920,101.227180 
	C1086.739746,101.227180 1083.019409,101.227180 1077.942627,101.227180 
	C1079.286255,103.001465 1080.041748,103.998970 1081.726685,105.000160 
M1058.671509,105.000443 
	C1060.479370,105.000366 1062.302368,104.849968 1064.091675,105.032257 
	C1067.559570,105.385559 1067.230103,103.493652 1066.785767,101.210510 
	C1062.779785,101.210510 1059.061279,101.210510 1055.342896,101.210510 
	C1055.067383,101.605942 1054.791748,102.001373 1054.516235,102.396812 
	C1055.586548,103.264610 1056.656860,104.132408 1058.671509,105.000443 
M1031.027588,103.463348 
	C1034.865601,104.181099 1038.703613,104.898849 1043.091797,105.719475 
	C1042.888184,103.405968 1042.785767,102.242332 1042.676392,100.999550 
	C1040.492554,100.999550 1038.661743,100.800896 1036.895142,101.052330 
	C1034.909058,101.334969 1032.980957,102.023849 1031.027588,103.463348 
M487.348877,105.000450 
	C490.346161,105.215363 492.362701,104.697342 490.284241,101.140732 
	C486.670654,101.140732 483.081390,101.140732 479.284637,101.140732 
	C479.284637,102.446693 479.284637,103.608459 479.284637,105.000450 
	C481.845612,105.000450 484.130219,105.000450 487.348877,105.000450 
M983.025391,103.463539 
	C986.863525,104.181221 990.701660,104.898911 995.090027,105.719482 
	C994.886108,103.405914 994.783569,102.242126 994.674072,100.999550 
	C992.489624,100.999550 990.659058,100.800934 988.892517,101.052338 
	C986.906677,101.334969 984.978638,102.023750 983.025391,103.463539 
M966.424805,100.999550 
	C964.945007,100.999641 963.452698,101.122879 961.987854,100.974922 
	C958.651001,100.637863 958.653748,102.361656 959.352051,104.798660 
	C963.254150,104.798660 966.974243,104.798660 970.641907,104.798660 
	C972.014771,101.143478 970.040649,100.744247 966.424805,100.999550 
M937.716553,100.999855 
	C933.996338,100.728683 934.907166,102.820648 935.391235,104.725182 
	C939.464417,104.725182 943.184814,104.725182 946.905151,104.725182 
	C947.141174,104.273178 947.377197,103.821175 947.613159,103.369164 
	C946.438232,102.579361 945.354309,101.393456 944.065857,101.097260 
	C942.348633,100.702492 940.472351,100.999626 937.716553,100.999855 
M915.596558,105.000450 
	C918.015747,105.000450 920.434937,105.000450 922.773926,105.000450 
	C922.773926,103.415741 922.773926,102.349365 922.773926,101.196014 
	C918.812073,101.196014 915.091736,101.196014 911.356445,101.196014 
	C910.194641,104.670769 911.906799,105.312103 915.596558,105.000450 
M586.997681,103.465309 
	C586.179565,102.643692 585.421448,101.198997 584.532593,101.113525 
	C581.473938,100.819366 578.369629,101.000443 574.958496,101.000443 
	C575.129272,102.635612 575.250671,103.797516 575.407043,105.294212 
	C579.509277,104.977608 583.221619,104.691086 586.997681,103.465309 
M560.299744,105.000244 
	C564.073059,105.310745 563.050293,103.149567 562.630981,101.139221 
	C551.070496,100.708199 551.070496,100.708199 551.553955,105.000450 
	C554.130920,105.000450 556.740295,105.000450 560.299744,105.000244 
M528.776001,101.003723 
	C528.056091,102.106323 527.336243,103.208923 526.334778,104.742783 
	C531.391602,104.742783 535.115234,104.742783 538.756714,104.742783 
	C538.756714,103.414841 538.756714,102.347748 538.756714,101.000381 
	C535.583130,101.000381 532.645813,101.000381 528.776001,101.003723 
M514.932373,101.595551 
	C511.086243,101.326591 507.240143,101.057640 502.999573,100.761101 
	C503.133392,102.561035 503.219879,103.724182 503.314697,104.999565 
	C506.639771,104.999565 509.611267,105.187988 512.532166,104.886383 
	C513.425110,104.794182 514.179016,103.356140 514.932373,101.595551 
M599.007935,102.539162 
	C599.661255,103.358421 600.243347,104.799698 600.980896,104.884178 
	C603.534119,105.176598 606.141418,104.996918 609.050964,104.996918 
	C608.879150,103.363312 608.756348,102.196266 608.598633,100.697113 
	C605.160461,101.024986 602.115051,101.315407 599.007935,102.539162 
z"/>
<path fill="#020202" opacity="1.000000" stroke="none" 
	d="
M1541.062012,144.999741 
	C1541.062012,151.810196 1541.062012,158.120758 1541.062012,164.715912 
	C1406.462036,164.715912 1272.077271,164.715912 1137.236816,164.715912 
	C1137.236816,144.805710 1137.236816,124.745605 1137.236816,103.903839 
	C1122.847656,111.092407 1109.130615,117.945259 1094.180908,125.413879 
	C1096.678467,120.346878 1098.391235,116.270935 1100.614746,112.495811 
	C1104.384155,106.095711 1104.408813,99.961388 1100.635742,93.551971 
	C1098.408691,89.768784 1096.695190,85.683250 1094.175537,80.565353 
	C1109.006714,87.974289 1122.601807,94.765694 1136.815674,101.866264 
	C1136.815674,81.433853 1136.815674,61.455673 1136.815674,41.240379 
	C1271.737061,41.240379 1406.117065,41.240379 1541.062012,41.240379 
	C1541.062012,75.661964 1541.062012,110.080902 1541.062012,144.999741 
M1156.503540,45.003151 
	C1151.408691,45.003151 1146.313721,45.003151 1141.350220,45.003151 
	C1141.350220,84.022911 1141.350220,122.422783 1141.350220,160.691696 
	C1273.405762,160.691696 1405.143066,160.691696 1536.739502,160.691696 
	C1536.739502,121.985977 1536.739502,83.586128 1536.739502,45.003151 
	C1410.116455,45.003151 1283.809204,45.003151 1156.503540,45.003151 
z"/>
<path fill="#010101" opacity="1.000000" stroke="none" 
	d="
M398.000000,165.000443 
	C278.865997,165.000443 160.231964,165.000443 41.298801,165.000443 
	C41.298801,123.738152 41.298801,82.669250 41.298801,41.299625 
	C175.587006,41.299625 309.981415,41.299625 444.741333,41.299625 
	C444.741333,56.912910 444.741333,72.667145 444.741333,86.409744 
	C450.004272,91.567284 454.076019,95.557518 458.147797,99.547752 
	C457.829803,99.836967 457.511810,100.126183 457.193817,100.415398 
	C459.872070,103.151054 465.806671,97.627823 467.451050,104.776222 
	C463.783447,104.776222 460.672760,104.776222 457.298981,104.776222 
	C455.422211,111.060181 451.886200,115.594238 445.087891,116.919052 
	C445.087891,132.898224 445.087891,148.664078 445.087891,165.000443 
	C429.358643,165.000443 413.929321,165.000443 398.000000,165.000443 
M58.507931,44.999699 
	C54.072521,44.999699 49.637112,44.999699 45.286514,44.999699 
	C45.286514,83.975182 45.286514,122.378426 45.286514,160.720795 
	C177.304260,160.720795 309.035187,160.720795 440.812561,160.720795 
	C440.812561,146.008942 440.812561,131.577332 440.812561,117.039818 
	C433.956421,115.105698 429.430756,110.994019 429.088928,103.746292 
	C428.701385,95.528473 433.684875,91.043434 440.706970,88.829102 
	C440.706970,74.047363 440.706970,59.623051 440.706970,44.999699 
	C313.443268,44.999699 186.473999,44.999699 58.507931,44.999699 
z"/>
<path fill="#080808" opacity="1.000000" stroke="none" 
	d="
M758.647644,120.784302 
	C757.284058,120.981071 756.299927,120.981071 755.084290,120.981071 
	C755.084290,109.361443 755.084290,97.962395 755.084290,86.133751 
	C760.456360,86.133751 765.887512,85.822815 771.267029,86.216553 
	C777.285950,86.657089 780.545105,90.247910 780.797852,95.755775 
	C781.060303,101.474861 777.931274,105.668816 772.042053,106.573906 
	C767.970032,107.199722 763.776001,107.032326 759.027100,107.246925 
	C759.027100,111.717957 759.027100,116.152740 758.647644,120.784302 
M761.729004,102.997169 
	C764.873108,102.959358 768.055237,103.212563 771.151428,102.808220 
	C774.814941,102.329811 776.496399,99.811653 776.337830,96.126595 
	C776.179565,92.448143 774.419800,90.164146 770.588928,90.041824 
	C766.855591,89.922607 763.115356,90.015907 759.169189,90.015907 
	C759.169189,93.134827 758.969910,95.619728 759.237671,98.053246 
	C759.422668,99.734245 760.253052,101.344215 761.729004,102.997169 
z"/>
<path fill="#171717" opacity="1.000000" stroke="none" 
	d="
M680.767090,112.967361 
	C680.766357,115.106407 681.069580,116.849403 680.665527,118.409142 
	C680.360474,119.586479 679.150696,120.529373 678.343689,121.576607 
	C677.915283,121.315643 677.486877,121.054680 677.058472,120.793716 
	C677.058472,109.388054 677.058472,97.982391 677.058472,86.386024 
	C680.872314,84.742302 680.851257,87.281593 680.779724,89.987442 
	C680.718384,92.306969 680.767029,94.629410 680.767029,97.427727 
	C682.434387,96.749451 683.714355,96.182739 685.026184,95.702988 
	C691.198975,93.445587 696.296204,96.429932 696.697876,102.954857 
	C697.054016,108.739197 696.772583,114.562790 696.772583,120.780685 
	C695.485535,120.838371 694.271362,120.892799 692.795410,120.958954 
	C692.795410,115.351463 692.780518,110.037651 692.800781,104.723969 
	C692.813904,101.272682 691.556885,98.730453 687.767761,98.645294 
	C684.201660,98.565140 681.598145,100.313225 681.093994,104.025581 
	C680.715637,106.811310 680.857117,109.667648 680.767090,112.967361 
z"/>
<path fill="#141414" opacity="1.000000" stroke="none" 
	d="
M792.302979,121.002769 
	C787.727478,120.176521 784.483521,118.313446 785.008545,113.465355 
	C785.510864,108.827126 789.024658,107.389664 793.124512,106.872604 
	C795.098267,106.623688 797.129761,106.464180 798.992798,105.839760 
	C800.166687,105.446342 801.954224,104.222450 801.914856,103.450012 
	C801.843140,102.038826 800.939697,99.922462 799.817444,99.453209 
	C796.522766,98.075584 793.106506,97.797432 790.259827,100.970665 
	C789.390747,101.939438 787.854675,102.309746 785.558716,103.511948 
	C787.865295,96.562592 792.219849,94.210785 798.626709,95.048187 
	C804.257141,95.784103 806.130737,97.959946 806.210388,104.113358 
	C806.280823,109.555489 806.225220,114.999245 806.225220,121.280113 
	C804.841431,120.558029 803.286743,119.746742 801.545654,118.838203 
	C799.003418,119.470367 795.858948,120.252266 792.302979,121.002769 
M796.379578,109.867577 
	C795.071594,110.025726 793.509705,109.793007 792.517700,110.437531 
	C791.173767,111.310654 790.266724,112.856361 789.172302,114.113579 
	C790.444885,115.184433 791.572449,116.881279 793.015686,117.215767 
	C798.702454,118.533768 802.462585,114.796783 801.498352,108.852386 
	C800.062561,109.133957 798.633850,109.414139 796.379578,109.867577 
z"/>
<path fill="#181818" opacity="1.000000" stroke="none" 
	d="
M718.672119,100.595207 
	C714.240845,97.885368 710.410645,97.346008 707.079346,101.826080 
	C706.534485,102.558777 704.773193,102.386925 703.167725,102.716568 
	C705.174561,96.539360 709.917664,94.048683 716.369995,95.085983 
	C721.818909,95.961983 723.510620,98.114365 723.589111,104.527168 
	C723.653809,109.811096 723.602295,115.096443 723.602295,121.346535 
	C722.084167,120.490486 720.456970,119.572983 719.133789,118.826866 
	C716.056091,119.543526 712.895142,120.808769 709.706238,120.883850 
	C705.989624,120.971359 702.754395,119.164978 702.287354,114.939850 
	C701.797424,110.507790 704.612915,108.200691 708.488647,107.159126 
	C710.879578,106.516571 713.385254,106.209236 715.860535,105.994003 
	C719.308899,105.694145 720.158997,104.014755 718.672119,100.595207 
M712.305115,117.476654 
	C718.642578,115.988899 719.754211,114.565269 718.776306,108.938957 
	C716.372620,109.315002 713.824219,109.330727 711.593628,110.180496 
	C709.717712,110.895157 708.211609,112.580505 706.541809,113.836143 
	C708.206604,115.052956 709.871399,116.269768 712.305115,117.476654 
z"/>
<path fill="#121212" opacity="1.000000" stroke="none" 
	d="
M828.267822,112.683144 
	C827.419983,107.043663 827.340698,101.846786 831.678833,97.924767 
	C835.182617,94.757179 839.360474,94.017807 843.746582,95.991165 
	C849.062256,98.382774 850.509399,102.927361 850.291016,108.759705 
	C844.346680,108.759705 838.433899,108.759705 832.334412,108.759705 
	C831.831787,112.987381 833.453369,115.631393 836.900513,116.895050 
	C840.421875,118.185905 843.303711,117.195900 845.502686,113.874954 
	C846.163818,112.876457 847.989075,112.648781 849.555725,112.627747 
	C848.436462,118.359833 844.881531,120.766266 839.748047,121.004494 
	C834.395752,121.252884 830.931213,118.753136 828.267822,112.683144 
M843.040283,105.606606 
	C845.795105,105.854874 846.915955,104.794243 845.510010,102.180321 
	C843.795593,98.992722 841.000854,97.886574 837.532288,98.774986 
	C834.195129,99.629745 832.127441,101.550201 832.466492,105.607147 
	C835.865662,105.607147 839.010254,105.607147 843.040283,105.606606 
z"/>
<path fill="#171717" opacity="1.000000" stroke="none" 
	d="
M632.767090,114.828468 
	C632.767090,116.953316 632.767090,118.604408 632.767090,120.671074 
	C631.411072,120.779091 630.224426,120.873604 628.793823,120.987556 
	C628.793823,115.499886 628.769531,110.360565 628.802185,105.221611 
	C628.824646,101.686607 627.883667,98.759338 623.757812,98.643250 
	C619.648621,98.527649 617.149597,100.703156 616.962402,104.923332 
	C616.771240,109.233879 616.681274,113.559288 616.811157,117.870239 
	C616.905884,121.013962 615.675659,121.687225 612.885803,120.596542 
	C612.885803,112.276985 612.885803,103.978981 612.885803,94.662125 
	C614.633545,95.439217 615.996277,96.045135 618.208008,97.028526 
	C618.545349,96.866135 619.935669,96.023598 621.437744,95.504303 
	C627.264160,93.489952 632.336914,96.760330 632.709473,102.896431 
	C632.940613,106.702988 632.761902,110.534431 632.767090,114.828468 
z"/>
<path fill="#181818" opacity="1.000000" stroke="none" 
	d="
M871.801270,117.527679 
	C871.798828,112.921974 871.804138,108.768234 871.791504,104.614540 
	C871.781006,101.161346 870.416016,98.682648 866.650452,98.630272 
	C863.077148,98.580574 860.398193,100.302971 860.103394,104.067505 
	C859.741028,108.694168 860.025208,113.371040 859.675232,117.999382 
	C859.582275,119.228607 858.189209,120.359505 857.393066,121.535545 
	C856.942078,121.280182 856.491028,121.024818 856.040039,120.769455 
	C856.040039,112.361710 856.040039,103.953964 856.040039,94.584305 
	C857.716125,95.435501 859.100769,96.138718 861.073486,97.140556 
	C861.515442,96.918602 862.771362,96.137077 864.130005,95.631577 
	C870.156799,93.389236 875.459839,96.676170 875.724426,103.044090 
	C875.964966,108.832237 875.775391,114.638245 875.775391,120.497131 
	C872.927429,121.616913 871.433044,121.198395 871.801270,117.527679 
z"/>
<path fill="#141414" opacity="1.000000" stroke="none" 
	d="
M649.570801,95.080688 
	C655.494568,96.925240 655.494568,96.925240 657.690857,103.238174 
	C655.485474,102.289322 654.225891,101.784775 652.998901,101.210709 
	C651.151917,100.346649 649.344055,98.786652 647.488892,98.739990 
	C645.911194,98.700302 644.290161,100.380875 642.688293,101.300354 
	C643.996521,102.512268 645.117004,104.129890 646.656433,104.842232 
	C649.041809,105.946068 651.804260,106.212791 654.243347,107.227493 
	C658.911316,109.169434 659.765564,114.757881 656.095215,118.300133 
	C650.382080,123.813889 640.610718,121.080322 637.869202,111.634941 
	C640.060547,112.779510 641.291443,113.299622 642.386658,114.024765 
	C643.845398,114.990669 645.058350,116.641754 646.627197,117.060135 
	C649.597351,117.852226 653.102905,117.859711 653.838623,114.099541 
	C654.036438,113.088852 650.806213,111.173576 648.919128,110.066322 
	C647.532471,109.252739 645.752258,109.133186 644.178833,108.609833 
	C640.920715,107.526131 638.484314,105.653275 638.719666,101.827393 
	C638.947510,98.122887 641.370300,96.225807 644.726379,95.434212 
	C646.158142,95.096497 647.682861,95.152946 649.570801,95.080688 
z"/>
<path fill="#171717" opacity="1.000000" stroke="none" 
	d="
M736.077148,109.017372 
	C731.982971,107.711464 728.738892,105.868980 729.431519,101.293419 
	C730.127991,96.692406 733.786255,95.317863 737.834167,94.993042 
	C743.127197,94.568321 746.169006,96.731407 748.274353,103.352028 
	C746.091980,102.311218 744.855835,101.741776 743.637756,101.135902 
	C741.943359,100.293121 740.235596,98.698891 738.583252,98.760460 
	C736.794617,98.827110 735.063110,100.427528 733.306641,101.358994 
	C734.641846,102.553337 735.798157,104.137512 737.353821,104.851456 
	C739.737000,105.945145 742.486877,106.219872 744.917236,107.234779 
	C749.623291,109.200081 750.491516,114.677361 746.825684,118.254829 
	C741.167786,123.776390 731.397278,121.151894 729.604919,112.257698 
	C730.819824,112.950882 732.047302,113.623032 733.246460,114.342400 
	C734.878357,115.321304 736.562866,117.247162 738.090637,117.122528 
	C740.389893,116.934952 743.941589,115.817451 744.520020,114.214516 
	C745.716614,110.898422 742.031982,110.791679 739.807251,110.033035 
	C738.712585,109.659767 737.578491,109.402122 736.077148,109.017372 
z"/>
<path fill="#1B1B1B" opacity="1.000000" stroke="none" 
	d="
M879.974121,96.853561 
	C881.673523,94.699371 884.106628,93.406303 883.305542,90.096771 
	C883.158569,89.489403 885.199951,88.352341 886.838806,86.933846 
	C886.987244,89.890488 887.092407,91.986252 887.193176,93.993607 
	C888.564270,94.821320 889.894836,95.624580 891.225403,96.427856 
	C890.074524,97.472931 888.923584,98.517982 887.153320,100.125359 
	C888.334290,106.364334 883.350891,114.670677 892.752808,120.027573 
	C885.494324,121.890091 883.230225,120.326691 883.111877,114.280540 
	C883.043701,110.799576 882.815796,107.286079 883.182434,103.842873 
	C883.510254,100.764175 882.435547,98.758430 879.974121,96.853561 
z"/>
<path fill="#1E1E1E" opacity="1.000000" stroke="none" 
	d="
M813.086487,98.364761 
	C813.299316,96.997963 813.511963,96.091667 813.724670,95.185364 
	C817.501770,98.329269 822.177795,92.759659 826.501953,96.883781 
	C825.465271,97.648697 824.488281,98.950012 823.739929,98.829628 
	C817.904846,97.890984 817.442139,102.004913 817.201233,105.861496 
	C816.902222,110.647545 817.129578,115.466476 817.129578,120.307930 
	C814.044312,121.904709 812.991943,120.940636 813.051941,117.725128 
	C813.169495,111.427155 813.086365,105.125427 813.086487,98.364761 
z"/>
<path fill="#010101" opacity="1.000000" stroke="none" 
	d="
M1018.564331,104.689110 
	C1014.729309,104.956322 1011.277283,104.956322 1007.407166,104.956322 
	C1007.274658,103.818428 1007.139099,102.654884 1006.946350,100.999748 
	C1010.197632,100.999748 1013.139526,101.222954 1016.031433,100.938225 
	C1019.043213,100.641693 1019.292358,102.163094 1018.564331,104.689110 
z"/>
<path fill="#010101" opacity="1.000000" stroke="none" 
	d="
M1081.261963,104.998314 
	C1080.041748,103.998970 1079.286255,103.001465 1077.942627,101.227180 
	C1083.019409,101.227180 1086.739746,101.227180 1090.742920,101.227180 
	C1090.742920,102.392700 1090.742920,103.553429 1090.742920,105.000160 
	C1087.599121,105.000160 1084.662842,105.000160 1081.261963,104.998314 
z"/>
<path fill="#010101" opacity="1.000000" stroke="none" 
	d="
M1058.199463,105.000320 
	C1056.656860,104.132408 1055.586548,103.264610 1054.516235,102.396812 
	C1054.791748,102.001373 1055.067383,101.605942 1055.342896,101.210510 
	C1059.061279,101.210510 1062.779785,101.210510 1066.785767,101.210510 
	C1067.230103,103.493652 1067.559570,105.385559 1064.091675,105.032257 
	C1062.302368,104.849968 1060.479370,105.000366 1058.199463,105.000320 
z"/>
<path fill="#010101" opacity="1.000000" stroke="none" 
	d="
M1031.027588,102.999672 
	C1032.980957,102.023849 1034.909058,101.334969 1036.895142,101.052330 
	C1038.661743,100.800896 1040.492554,100.999550 1042.676392,100.999550 
	C1042.785767,102.242332 1042.888184,103.405968 1043.091797,105.719475 
	C1038.703613,104.898849 1034.865601,104.181099 1031.027588,102.999672 
z"/>
<path fill="#010101" opacity="1.000000" stroke="none" 
	d="
M486.881836,105.000450 
	C484.130219,105.000450 481.845612,105.000450 479.284637,105.000450 
	C479.284637,103.608459 479.284637,102.446693 479.284637,101.140732 
	C483.081390,101.140732 486.670654,101.140732 490.284241,101.140732 
	C492.362701,104.697342 490.346161,105.215363 486.881836,105.000450 
z"/>
<path fill="#010101" opacity="1.000000" stroke="none" 
	d="
M983.025391,102.999695 
	C984.978638,102.023750 986.906677,101.334969 988.892517,101.052338 
	C990.659058,100.800934 992.489624,100.999550 994.674072,100.999550 
	C994.783569,102.242126 994.886108,103.405914 995.090027,105.719482 
	C990.701660,104.898911 986.863525,104.181221 983.025391,102.999695 
z"/>
<path fill="#010101" opacity="1.000000" stroke="none" 
	d="
M966.892212,100.999557 
	C970.040649,100.744247 972.014771,101.143478 970.641907,104.798660 
	C966.974243,104.798660 963.254150,104.798660 959.352051,104.798660 
	C958.653748,102.361656 958.651001,100.637863 961.987854,100.974922 
	C963.452698,101.122879 964.945007,100.999641 966.892212,100.999557 
z"/>
<path fill="#010101" opacity="1.000000" stroke="none" 
	d="
M938.190491,100.999710 
	C940.472351,100.999626 942.348633,100.702492 944.065857,101.097260 
	C945.354309,101.393456 946.438232,102.579361 947.613159,103.369164 
	C947.377197,103.821175 947.141174,104.273178 946.905151,104.725182 
	C943.184814,104.725182 939.464417,104.725182 935.391235,104.725182 
	C934.907166,102.820648 933.996338,100.728683 938.190491,100.999710 
z"/>
<path fill="#010101" opacity="1.000000" stroke="none" 
	d="
M915.130371,105.000443 
	C911.906799,105.312103 910.194641,104.670769 911.356445,101.196014 
	C915.091736,101.196014 918.812073,101.196014 922.773926,101.196014 
	C922.773926,102.349365 922.773926,103.415741 922.773926,105.000450 
	C920.434937,105.000450 918.015747,105.000450 915.130371,105.000443 
z"/>
<path fill="#010101" opacity="1.000000" stroke="none" 
	d="
M586.965820,103.934937 
	C583.221619,104.691086 579.509277,104.977608 575.407043,105.294212 
	C575.250671,103.797516 575.129272,102.635612 574.958496,101.000443 
	C578.369629,101.000443 581.473938,100.819366 584.532593,101.113525 
	C585.421448,101.198997 586.179565,102.643692 586.965820,103.934937 
z"/>
<path fill="#010101" opacity="1.000000" stroke="none" 
	d="
M559.824707,105.000351 
	C556.740295,105.000450 554.130920,105.000450 551.553955,105.000450 
	C551.070496,100.708199 551.070496,100.708199 562.630981,101.139221 
	C563.050293,103.149567 564.073059,105.310745 559.824707,105.000351 
z"/>
<path fill="#010101" opacity="1.000000" stroke="none" 
	d="
M529.242249,101.002052 
	C532.645813,101.000381 535.583130,101.000381 538.756714,101.000381 
	C538.756714,102.347748 538.756714,103.414841 538.756714,104.742783 
	C535.115234,104.742783 531.391602,104.742783 526.334778,104.742783 
	C527.336243,103.208923 528.056091,102.106323 529.242249,101.002052 
z"/>
<path fill="#010101" opacity="1.000000" stroke="none" 
	d="
M514.964478,102.064987 
	C514.179016,103.356140 513.425110,104.794182 512.532166,104.886383 
	C509.611267,105.187988 506.639771,104.999565 503.314697,104.999565 
	C503.219879,103.724182 503.133392,102.561035 502.999573,100.761101 
	C507.240143,101.057640 511.086243,101.326591 514.964478,102.064987 
z"/>
<path fill="#010101" opacity="1.000000" stroke="none" 
	d="
M599.038818,102.072495 
	C602.115051,101.315407 605.160461,101.024986 608.598633,100.697113 
	C608.756348,102.196266 608.879150,103.363312 609.050964,104.996918 
	C606.141418,104.996918 603.534119,105.176598 600.980896,104.884178 
	C600.243347,104.799698 599.661255,103.358421 599.038818,102.072495 
z"/>
<path fill="#FFFFFF" opacity="1.000000" stroke="none" 
	d="
M1157.002686,45.003151 
	C1283.809204,45.003151 1410.116455,45.003151 1536.739502,45.003151 
	C1536.739502,83.586128 1536.739502,121.985977 1536.739502,160.691696 
	C1405.143066,160.691696 1273.405762,160.691696 1141.350220,160.691696 
	C1141.350220,122.422783 1141.350220,84.022911 1141.350220,45.003151 
	C1146.313721,45.003151 1151.408691,45.003151 1157.002686,45.003151 
z"/>
<path fill="#FEFEFE" opacity="1.000000" stroke="none" 
	d="
M59.006325,44.999699 
	C186.473999,44.999699 313.443268,44.999699 440.706970,44.999699 
	C440.706970,59.623051 440.706970,74.047363 440.706970,88.829102 
	C433.684875,91.043434 428.701385,95.528473 429.088928,103.746292 
	C429.430756,110.994019 433.956421,115.105698 440.812561,117.039818 
	C440.812561,131.577332 440.812561,146.008942 440.812561,160.720795 
	C309.035187,160.720795 177.304260,160.720795 45.286514,160.720795 
	C45.286514,122.378426 45.286514,83.975182 45.286514,44.999699 
	C49.637112,44.999699 54.072521,44.999699 59.006325,44.999699 
M223.886673,88.457054 
	C220.501923,93.708183 220.134094,99.383522 221.665909,105.259888 
	C223.580078,112.603096 228.146469,116.459946 235.363739,117.001785 
	C242.526489,117.539543 247.539307,114.386032 250.577225,107.403877 
	C250.690628,107.143219 250.591675,106.790169 250.591675,106.206383 
	C249.404205,105.912331 248.177841,105.608643 247.012665,105.320107 
	C243.412964,112.167099 239.987045,114.119461 233.911652,112.950279 
	C228.781219,111.962944 225.885910,107.924118 225.332748,100.983086 
	C224.757523,93.765556 227.500336,88.163712 232.478378,86.389015 
	C237.900894,84.455856 241.937637,86.233658 246.884277,92.767441 
	C247.947296,92.426338 249.015213,92.083664 250.095123,91.737137 
	C245.904663,80.392799 233.183716,78.612953 223.886673,88.457054 
M270.657318,95.861488 
	C271.186157,97.719147 272.066742,99.557137 272.171906,101.438484 
	C272.403748,105.585197 272.376587,109.759315 272.202515,113.911659 
	C272.066498,117.156357 273.486298,117.610405 276.352173,116.565643 
	C276.352173,111.789948 276.361755,106.974640 276.345245,102.159424 
	C276.341248,100.996155 276.311371,99.826843 276.190063,98.671143 
	C275.568237,92.744728 270.860901,89.629768 265.187683,91.437859 
	C263.669403,91.921745 262.234253,92.666458 260.273285,93.498299 
	C260.273285,89.481804 260.273285,85.884819 260.273285,82.287827 
	C259.846893,81.984123 259.420502,81.680420 258.994110,81.376717 
	C258.078613,82.370247 256.385254,83.349892 256.367249,84.359444 
	C256.174805,95.143944 256.247620,105.933174 256.247620,116.831688 
	C257.787415,116.831688 258.903168,116.831688 260.273407,116.831688 
	C260.273407,111.810410 260.081024,106.981834 260.320862,102.174820 
	C260.639038,95.797539 263.541718,93.853844 270.657318,95.861488 
M311.927856,116.926987 
	C315.827393,116.654060 319.726898,116.381142 323.845428,116.092888 
	C323.845428,105.224823 323.845428,93.820038 323.845428,82.146179 
	C322.708923,82.146179 320.965424,82.034554 320.947662,82.162407 
	C320.421570,85.953690 320.066681,89.768738 319.682556,93.600586 
	C313.293549,89.960251 308.139587,90.616028 304.973480,95.440483 
	C300.058014,102.930534 302.986725,113.049843 311.927856,116.926987 
M158.543915,90.989471 
	C158.116333,99.586441 157.688751,108.183411 157.261169,116.780380 
	C157.977783,117.023506 158.694397,117.266632 159.411026,117.509766 
	C160.136475,116.292076 161.397354,115.113976 161.490860,113.849564 
	C161.821808,109.373390 161.589951,104.856926 161.885284,100.376427 
	C162.152481,96.323265 164.839584,94.517441 168.675873,94.653984 
	C172.540680,94.791534 173.601486,97.533188 173.625320,100.867119 
	C173.663101,106.155083 173.635391,111.443512 173.635391,116.731743 
	C174.103241,117.013260 174.571106,117.294777 175.038956,117.576286 
	C175.887558,116.566147 177.423416,115.586082 177.469147,114.540817 
	C177.701889,109.221054 177.789276,103.869804 177.466370,98.557617 
	C177.112411,92.734604 171.966904,89.566521 166.375214,91.444435 
	C164.858322,91.953880 163.453384,92.796654 162.326416,93.330437 
	C161.176743,92.398659 160.285965,91.676704 158.543915,90.989471 
M201.806091,113.093674 
	C204.148163,107.053932 203.043488,104.639572 196.947235,102.620377 
	C195.063354,101.996407 192.991074,101.769928 191.278381,100.851669 
	C189.756729,100.035820 188.613632,98.513855 187.303452,97.303574 
	C188.906906,96.389168 190.526184,94.722710 192.109680,94.756058 
	C193.971161,94.795273 195.798126,96.317039 197.646683,97.181732 
	C198.875732,97.756660 200.116394,98.306824 202.293503,99.295845 
	C199.501801,90.886513 190.411026,88.528389 185.384552,93.431244 
	C182.048584,96.685173 182.713898,101.758842 186.990585,103.794533 
	C189.352249,104.918678 192.161652,105.109955 194.507370,106.257172 
	C196.174133,107.072327 197.403503,108.781822 198.828094,110.092155 
	C196.989136,111.209419 195.119110,113.259956 193.319336,113.200050 
	C191.222794,113.130257 189.203918,111.182663 187.119781,110.111351 
	C185.898956,109.483833 184.616562,108.976082 182.238312,107.911499 
	C185.959595,117.808174 193.842377,119.520309 201.806091,113.093674 
M297.630615,115.948219 
	C297.630615,104.707214 297.630615,93.466209 297.630615,82.326996 
	C294.596283,81.412712 293.208893,81.854988 293.257965,85.088455 
	C293.404022,94.707718 293.397888,104.331856 293.261749,113.951408 
	C293.215607,117.211403 294.638947,117.618271 297.630615,115.948219 
M287.067627,112.331055 
	C287.067627,105.383934 287.067627,98.436806 287.067627,91.489685 
	C286.641602,91.166862 286.215607,90.844040 285.789581,90.521217 
	C284.883789,91.580666 283.225708,92.617516 283.193115,93.703194 
	C282.964752,101.304504 283.072174,108.915901 283.072174,116.444870 
	C287.041168,118.109505 287.220703,115.882713 287.067627,112.331055 
M209.470306,116.105911 
	C210.879196,116.455582 212.288101,116.805252 213.832794,117.188622 
	C213.832794,115.069550 213.832794,113.640144 213.832794,112.264732 
	C210.922836,111.515015 208.876480,111.661201 209.470306,116.105911 
M213.759415,92.274750 
	C212.404526,92.194572 211.049637,92.114395 209.638565,92.030891 
	C209.638565,93.974289 209.638565,95.366478 209.638565,97.089760 
	C211.244003,96.963043 212.585510,96.857162 214.028885,96.743233 
	C214.028885,95.239296 214.028885,94.115456 213.759415,92.274750 
z"/>
<path fill="#F8F8F8" opacity="1.000000" stroke="none" 
	d="
M761.261963,102.991554 
	C760.253052,101.344215 759.422668,99.734245 759.237671,98.053246 
	C758.969910,95.619728 759.169189,93.134827 759.169189,90.015907 
	C763.115356,90.015907 766.855591,89.922607 770.588928,90.041824 
	C774.419800,90.164146 776.179565,92.448143 776.337830,96.126595 
	C776.496399,99.811653 774.814941,102.329811 771.151428,102.808220 
	C768.055237,103.212563 764.873108,102.959358 761.261963,102.991554 
z"/>
<path fill="#F4F4F4" opacity="1.000000" stroke="none" 
	d="
M796.792358,109.780952 
	C798.633850,109.414139 800.062561,109.133957 801.498352,108.852386 
	C802.462585,114.796783 798.702454,118.533768 793.015686,117.215767 
	C791.572449,116.881279 790.444885,115.184433 789.172241,114.113564 
	C790.266724,112.856361 791.173767,111.310654 792.517700,110.437531 
	C793.509705,109.793007 795.071594,110.025726 796.792358,109.780952 
z"/>
<path fill="#F4F4F4" opacity="1.000000" stroke="none" 
	d="
M711.920654,117.481613 
	C709.871399,116.269768 708.206604,115.052956 706.541809,113.836143 
	C708.211609,112.580505 709.717712,110.895157 711.593628,110.180496 
	C713.824219,109.330727 716.372620,109.315002 718.776306,108.938957 
	C719.754211,114.565269 718.642578,115.988899 711.920654,117.481613 
z"/>
<path fill="#E1E1E1" opacity="1.000000" stroke="none" 
	d="
M842.597595,105.606873 
	C839.010254,105.607147 835.865662,105.607147 832.466492,105.607147 
	C832.127441,101.550201 834.195129,99.629745 837.532288,98.774986 
	C841.000854,97.886574 843.795593,98.992722 845.510010,102.180321 
	C846.915955,104.794243 845.795105,105.854874 842.597595,105.606873 
z"/>
<path fill="#121212" opacity="1.000000" stroke="none" 
	d="
M224.106903,88.164749 
	C233.183716,78.612953 245.904663,80.392799 250.095123,91.737137 
	C249.015213,92.083664 247.947296,92.426338 246.884277,92.767441 
	C241.937637,86.233658 237.900894,84.455856 232.478378,86.389015 
	C227.500336,88.163712 224.757523,93.765556 225.332748,100.983086 
	C225.885910,107.924118 228.781219,111.962944 233.911652,112.950279 
	C239.987045,114.119461 243.412964,112.167099 247.012665,105.320107 
	C248.177841,105.608643 249.404205,105.912331 250.591675,106.206383 
	C250.591675,106.790169 250.690628,107.143219 250.577225,107.403877 
	C247.539307,114.386032 242.526489,117.539543 235.363739,117.001785 
	C228.146469,116.459946 223.580078,112.603096 221.665909,105.259888 
	C220.134094,99.383522 220.501923,93.708183 224.106903,88.164749 
z"/>
<path fill="#181818" opacity="1.000000" stroke="none" 
	d="
M270.315735,95.585548 
	C263.541718,93.853844 260.639038,95.797539 260.320862,102.174820 
	C260.081024,106.981834 260.273407,111.810410 260.273407,116.831688 
	C258.903168,116.831688 257.787415,116.831688 256.247620,116.831688 
	C256.247620,105.933174 256.174805,95.143944 256.367249,84.359444 
	C256.385254,83.349892 258.078613,82.370247 258.994110,81.376717 
	C259.420502,81.680420 259.846893,81.984123 260.273285,82.287827 
	C260.273285,85.884819 260.273285,89.481804 260.273285,93.498299 
	C262.234253,92.666458 263.669403,91.921745 265.187683,91.437859 
	C270.860901,89.629768 275.568237,92.744728 276.190063,98.671143 
	C276.311371,99.826843 276.341248,100.996155 276.345245,102.159424 
	C276.361755,106.974640 276.352173,111.789948 276.352173,116.565643 
	C273.486298,117.610405 272.066498,117.156357 272.202515,113.911659 
	C272.376587,109.759315 272.403748,105.585197 272.171906,101.438484 
	C272.066742,99.557137 271.186157,97.719147 270.315735,95.585548 
z"/>
<path fill="#171717" opacity="1.000000" stroke="none" 
	d="
M311.534973,116.840721 
	C302.986725,113.049843 300.058014,102.930534 304.973480,95.440483 
	C308.139587,90.616028 313.293549,89.960251 319.682556,93.600586 
	C320.066681,89.768738 320.421570,85.953690 320.947662,82.162407 
	C320.965424,82.034554 322.708923,82.146179 323.845428,82.146179 
	C323.845428,93.820038 323.845428,105.224823 323.845428,116.092888 
	C319.726898,116.381142 315.827393,116.654060 311.534973,116.840721 
M311.153839,112.872673 
	C315.619995,114.280930 318.602753,112.689423 319.993622,108.294846 
	C321.720184,102.839676 319.893799,96.548180 316.120087,95.130699 
	C312.519348,93.778191 309.602539,94.805077 307.853088,98.359901 
	C305.688141,102.759010 306.811035,108.699303 311.153839,112.872673 
z"/>
<path fill="#1B1B1B" opacity="1.000000" stroke="none" 
	d="
M158.969543,90.972107 
	C160.285965,91.676704 161.176743,92.398659 162.326416,93.330437 
	C163.453384,92.796654 164.858322,91.953880 166.375214,91.444435 
	C171.966904,89.566521 177.112411,92.734604 177.466370,98.557617 
	C177.789276,103.869804 177.701889,109.221054 177.469147,114.540817 
	C177.423416,115.586082 175.887558,116.566147 175.038956,117.576286 
	C174.571106,117.294777 174.103241,117.013260 173.635391,116.731743 
	C173.635391,111.443512 173.663101,106.155083 173.625320,100.867119 
	C173.601486,97.533188 172.540680,94.791534 168.675873,94.653984 
	C164.839584,94.517441 162.152481,96.323265 161.885284,100.376427 
	C161.589951,104.856926 161.821808,109.373390 161.490860,113.849564 
	C161.397354,115.113976 160.136475,116.292076 159.411026,117.509766 
	C158.694397,117.266632 157.977783,117.023506 157.261169,116.780380 
	C157.688751,108.183411 158.116333,99.586441 158.969543,90.972107 
z"/>
<path fill="#171717" opacity="1.000000" stroke="none" 
	d="
M201.572205,113.399704 
	C193.842377,119.520309 185.959595,117.808174 182.238312,107.911499 
	C184.616562,108.976082 185.898956,109.483833 187.119781,110.111351 
	C189.203918,111.182663 191.222794,113.130257 193.319336,113.200050 
	C195.119110,113.259956 196.989136,111.209419 198.828094,110.092155 
	C197.403503,108.781822 196.174133,107.072327 194.507370,106.257172 
	C192.161652,105.109955 189.352249,104.918678 186.990585,103.794533 
	C182.713898,101.758842 182.048584,96.685173 185.384552,93.431244 
	C190.411026,88.528389 199.501801,90.886513 202.293503,99.295845 
	C200.116394,98.306824 198.875732,97.756660 197.646683,97.181732 
	C195.798126,96.317039 193.971161,94.795273 192.109680,94.756058 
	C190.526184,94.722710 188.906906,96.389168 187.303452,97.303574 
	C188.613632,98.513855 189.756729,100.035820 191.278381,100.851669 
	C192.991074,101.769928 195.063354,101.996407 196.947235,102.620377 
	C203.043488,104.639572 204.148163,107.053932 201.572205,113.399704 
z"/>
<path fill="#343434" opacity="1.000000" stroke="none" 
	d="
M297.430786,116.352081 
	C294.638947,117.618271 293.215607,117.211403 293.261749,113.951408 
	C293.397888,104.331856 293.404022,94.707718 293.257965,85.088455 
	C293.208893,81.854988 294.596283,81.412712 297.630615,82.326996 
	C297.630615,93.466209 297.630615,104.707214 297.430786,116.352081 
z"/>
<path fill="#1E1E1E" opacity="1.000000" stroke="none" 
	d="
M287.067596,112.807388 
	C287.220703,115.882713 287.041168,118.109505 283.072174,116.444870 
	C283.072174,108.915901 282.964752,101.304504 283.193115,93.703194 
	C283.225708,92.617516 284.883789,91.580666 285.789581,90.521217 
	C286.215607,90.844040 286.641602,91.166862 287.067627,91.489685 
	C287.067627,98.436806 287.067627,105.383934 287.067596,112.807388 
z"/>
<path fill="#1E1E1E" opacity="1.000000" stroke="none" 
	d="
M209.438751,115.703506 
	C208.876480,111.661201 210.922836,111.515015 213.832794,112.264732 
	C213.832794,113.640144 213.832794,115.069550 213.832794,117.188622 
	C212.288101,116.805252 210.879196,116.455582 209.438751,115.703506 
z"/>
<path fill="#1E1E1E" opacity="1.000000" stroke="none" 
	d="
M213.894150,92.633179 
	C214.028885,94.115456 214.028885,95.239296 214.028885,96.743233 
	C212.585510,96.857162 211.244003,96.963043 209.638565,97.089760 
	C209.638565,95.366478 209.638565,93.974289 209.638565,92.030891 
	C211.049637,92.114395 212.404526,92.194572 213.894150,92.633179 
z"/>
<path fill="#F4F4F4" opacity="1.000000" stroke="none" 
	d="
M310.793640,112.668976 
	C306.811035,108.699303 305.688141,102.759010 307.853088,98.359901 
	C309.602539,94.805077 312.519348,93.778191 316.120087,95.130699 
	C319.893799,96.548180 321.720184,102.839676 319.993622,108.294846 
	C318.602753,112.689423 315.619995,114.280930 310.793640,112.668976 
z"/>
</svg>