<svg version="1.1" id="Layer_1" xmlns="http://www.w3.org/2000/svg" xmlns:xlink="http://www.w3.org/1999/xlink" x="0px" y="0px"
	 width="100%" viewBox="0 0 632 324" enable-background="new 0 0 632 324" xml:space="preserve">
<path fill="#FFFFFF" opacity="1.000000" stroke="none" 
	d="
M424.000000,325.000000 
	C282.666656,325.000000 141.833328,325.000000 1.000000,325.000000 
	C1.000000,217.000000 1.000000,109.000000 1.000000,1.000000 
	C211.666672,1.000000 422.333344,1.000000 633.000000,1.000000 
	C633.000000,109.000000 633.000000,217.000000 633.000000,325.000000 
	C563.500000,325.000000 494.000000,325.000000 424.000000,325.000000 
M40.999866,188.500000 
	C40.999866,220.595154 40.999866,252.690323 40.999866,284.714172 
	C223.977280,284.714172 406.379089,284.714172 588.714722,284.714172 
	C588.714722,203.357681 588.714722,122.287399 588.714722,41.285934 
	C406.024323,41.285934 223.622620,41.285934 40.999866,41.285934 
	C40.999866,90.214447 40.999866,138.857224 40.999866,188.500000 
z"/>
<path fill="#000000" opacity="1.000000" stroke="none" 
	d="
M40.999866,188.000000 
	C40.999866,138.857224 40.999866,90.214447 40.999866,41.285934 
	C223.622620,41.285934 406.024323,41.285934 588.714722,41.285934 
	C588.714722,122.287399 588.714722,203.357681 588.714722,284.714172 
	C406.379089,284.714172 223.977280,284.714172 40.999866,284.714172 
	C40.999866,252.690323 40.999866,220.595154 40.999866,188.000000 
M580.378052,44.998951 
	C401.962402,44.998951 223.546753,44.998951 45.332905,44.998951 
	C45.332905,84.066391 45.332905,122.472275 45.332905,160.665436 
	C225.405106,160.665436 405.143219,160.665436 585.004211,160.665436 
	C585.004211,123.005760 584.964783,85.681450 585.077332,48.357609 
	C585.086609,45.297661 583.956421,44.606926 580.378052,44.998951 
M139.500000,164.997833 
	C108.071068,164.997833 76.642128,164.997833 45.287628,164.997833 
	C45.287628,203.979034 45.287628,242.384186 45.287628,280.714508 
	C225.313629,280.714508 405.049683,280.714508 584.714844,280.714508 
	C584.714844,242.021088 584.714844,203.615997 584.714844,164.997833 
	C436.449585,164.997833 288.474792,164.997833 139.500000,164.997833 
z"/>
<path fill="#FEFEFE" opacity="1.000000" stroke="none" 
	d="
M580.863647,44.998955 
	C583.956421,44.606926 585.086609,45.297661 585.077332,48.357609 
	C584.964783,85.681450 585.004211,123.005760 585.004211,160.665436 
	C405.143219,160.665436 225.405106,160.665436 45.332905,160.665436 
	C45.332905,122.472275 45.332905,84.066391 45.332905,44.998951 
	C223.546753,44.998951 401.962402,44.998951 580.863647,44.998955 
M334.580353,113.942627 
	C339.818787,119.139679 345.149292,117.005295 349.729553,114.479073 
	C351.743317,115.599815 353.341217,116.489120 354.760742,117.279144 
	C354.760742,111.032150 354.806152,105.751320 354.749023,100.471596 
	C354.680389,94.124054 352.962708,91.958595 347.478333,91.082329 
	C341.032288,90.052399 336.284149,92.571365 334.082672,99.625946 
	C336.416382,98.339447 337.920929,97.930969 338.786713,96.955528 
	C341.624908,93.757713 345.030701,94.078957 348.305725,95.495743 
	C349.441620,95.987129 350.354034,98.070496 350.437897,99.482033 
	C350.482422,100.230858 348.644989,101.486206 347.459564,101.828148 
	C345.248047,102.466049 342.884460,102.558891 340.598236,102.959045 
	C334.753754,103.982033 332.640045,107.402405 334.580353,113.942627 
M197.600922,102.809013 
	C198.301453,96.722618 200.447937,94.160744 204.717224,94.643631 
	C210.281754,95.272987 209.570251,99.626221 209.625259,103.402054 
	C209.690033,107.849136 209.640442,112.297882 209.640442,116.745911 
	C210.117538,117.023285 210.594635,117.300659 211.071732,117.578026 
	C211.909622,116.560303 213.425644,115.571938 213.471191,114.519913 
	C213.701370,109.203789 213.790161,103.856361 213.465775,98.548187 
	C213.110413,92.732697 207.964630,89.568161 202.377167,91.443100 
	C200.860611,91.952003 199.455658,92.793510 198.801620,93.102913 
	C196.944534,92.081825 195.646942,91.368362 193.813293,90.360161 
	C193.813293,99.761917 193.813293,108.205231 193.813293,116.844002 
	C195.007706,116.844002 196.121017,116.844002 197.589722,116.844002 
	C197.589722,112.364700 197.589722,108.053787 197.600922,102.809013 
M428.241547,107.498085 
	C428.241730,109.657425 428.345703,111.822937 428.217682,113.974648 
	C428.026947,117.179642 429.491211,117.613365 432.225769,116.564087 
	C432.225769,111.344048 432.226074,106.199768 432.225403,101.055489 
	C432.225342,100.391113 432.255066,99.724503 432.212280,99.062721 
	C431.803528,92.742683 426.577637,89.343231 420.645081,91.615402 
	C419.134552,92.193924 417.753845,93.111290 417.435822,93.279457 
	C415.505402,92.162277 414.248535,91.434891 412.242065,90.273697 
	C412.242065,99.009811 412.331757,106.473259 412.199860,113.932785 
	C412.143646,117.113045 413.441589,117.620621 416.631927,116.420753 
	C416.631927,110.896523 416.343445,105.245049 416.731995,99.640503 
	C416.996826,95.820724 420.056854,94.436905 423.570526,94.665588 
	C427.091095,94.894714 428.245178,97.342346 428.227966,100.558876 
	C428.217285,102.551949 428.236023,104.545166 428.241547,107.498085 
M237.157562,95.356636 
	C233.546387,90.973534 228.172745,89.404907 223.541550,92.204918 
	C221.597763,93.380127 219.674988,96.189041 219.580276,98.336288 
	C219.499161,100.175293 221.688538,102.645157 223.517212,103.893135 
	C225.468796,105.225006 228.320831,105.160149 230.504501,106.254395 
	C232.168884,107.088440 233.403366,108.780357 234.829117,110.090614 
	C232.990005,111.208755 231.119843,113.260849 229.319901,113.201004 
	C227.222824,113.131264 225.203629,111.182251 223.118637,110.110992 
	C221.898544,109.484100 220.616043,108.978683 218.238678,107.917252 
	C221.492737,116.551857 228.846771,119.436172 234.925949,115.411163 
	C236.919678,114.091133 238.742416,110.903290 238.695999,108.609001 
	C238.657242,106.693932 236.100250,104.270622 234.067032,103.097435 
	C231.556854,101.649025 228.366898,101.430283 225.612930,100.325546 
	C224.617386,99.926178 223.374603,98.451859 223.442337,97.558914 
	C223.512970,96.627884 225.168625,94.966568 225.886276,95.086815 
	C228.565659,95.535797 231.155121,96.552979 233.755569,97.424858 
	C234.683609,97.736015 235.546967,98.240089 236.439865,98.656113 
	C236.772598,97.782600 237.105331,96.909088 237.157562,95.356636 
M397.932465,116.794601 
	C399.160370,116.305405 400.464844,115.950943 401.603271,115.304237 
	C407.233978,112.105499 409.087250,102.339661 405.286987,96.197571 
	C401.955994,90.813934 394.581482,89.330750 389.066589,92.935287 
	C384.608490,95.849113 382.775665,102.778015 384.775208,109.158417 
	C386.460449,114.535927 390.252533,116.926643 397.932465,116.794601 
M299.118561,115.959740 
	C304.868744,113.303391 306.026550,108.314697 305.774231,102.677994 
	C305.567383,98.057404 303.776703,94.282158 299.436493,92.156136 
	C294.782684,89.876503 289.011536,90.971695 285.702179,94.647575 
	C282.174469,98.565994 281.685822,107.280518 284.726379,112.050713 
	C287.444305,116.314796 292.318726,117.790993 299.118561,115.959740 
M330.133789,97.727455 
	C327.251923,91.824638 322.998566,89.780746 317.345032,91.581985 
	C311.305695,93.506157 308.552521,99.064362 309.717712,106.980339 
	C310.632843,113.197433 314.928406,117.117943 320.743591,117.043518 
	C326.067902,116.975380 329.572540,113.655632 330.672302,106.034996 
	C328.576172,107.663879 327.566223,108.571655 326.439362,109.298073 
	C324.260834,110.702492 321.724213,113.386986 319.873932,112.995918 
	C317.610596,112.517548 315.316284,109.718857 314.136169,107.370361 
	C313.208801,105.524887 313.257904,102.521416 314.133881,100.610130 
	C315.172241,98.344505 317.285126,95.698433 319.453766,95.096718 
	C321.225922,94.605019 324.464874,96.332169 325.792206,98.050125 
	C327.618042,100.413185 328.611969,100.260406 330.133789,97.727455 
M262.172455,102.466255 
	C262.172455,95.711273 262.172455,88.956291 262.172455,82.201309 
	C261.713531,81.929993 261.254608,81.658669 260.795685,81.387352 
	C259.865631,82.375946 258.145416,83.350159 258.127106,84.355354 
	C257.931610,95.091522 258.005585,105.832603 258.005585,116.790443 
	C265.184418,116.790443 271.921692,116.790443 278.869629,116.790443 
	C278.869629,115.546959 278.869629,114.385345 278.869629,112.784119 
	C273.191895,112.784119 267.799255,112.784119 262.172455,112.784119 
	C262.172455,109.380173 262.172455,106.415665 262.172455,102.466255 
M370.611603,113.902733 
	C367.294525,113.103409 365.968109,111.197113 366.281403,107.630554 
	C366.640747,103.539803 366.364746,99.393234 366.364746,96.130051 
	C368.182465,94.542236 369.374084,93.501343 370.565674,92.460449 
	C369.211517,91.645210 367.857330,90.829979 366.470093,89.994827 
	C366.364288,88.005318 366.253876,85.928741 366.143433,83.852173 
	C363.130219,86.528351 361.164886,89.588699 359.329010,92.724808 
	C359.163483,93.007576 359.837158,93.777000 360.113739,94.324112 
	C360.884155,95.848129 362.197479,97.333389 362.314667,98.907066 
	C362.646545,103.363777 362.034454,107.930641 362.743713,112.299995 
	C363.032135,114.076797 365.576691,115.809853 367.481262,116.865303 
	C368.428406,117.390160 371.514862,118.263161 370.611603,113.902733 
M378.995697,91.880913 
	C377.802399,91.579971 376.609070,91.279030 375.073181,90.891685 
	C375.073181,99.227371 375.130524,106.690094 375.047638,114.151253 
	C375.009399,117.592613 376.602234,117.475876 378.902435,116.483917 
	C378.974335,115.894333 379.048279,115.569084 379.048645,115.243744 
	C379.056915,107.770599 379.057190,100.297447 378.995697,91.880913 
M247.446854,111.945076 
	C246.602676,113.388275 245.758499,114.831467 244.441498,117.083000 
	C247.262955,116.956673 248.538605,116.899551 251.018204,116.788528 
	C249.848862,114.758293 249.039398,113.352875 247.446854,111.945076 
M249.010529,96.992325 
	C249.448685,95.459206 249.886841,93.926086 250.389969,92.165649 
	C248.334961,92.165649 247.063019,92.165649 245.197998,92.165649 
	C245.972870,94.270866 243.821579,97.375069 249.010529,96.992325 
z"/>
<path fill="#FEFEFE" opacity="1.000000" stroke="none" 
	d="
M140.000000,164.997833 
	C288.474792,164.997833 436.449585,164.997833 584.714844,164.997833 
	C584.714844,203.615997 584.714844,242.021088 584.714844,280.714508 
	C405.049683,280.714508 225.313629,280.714508 45.287628,280.714508 
	C45.287628,242.384186 45.287628,203.979034 45.287628,164.997833 
	C76.642128,164.997833 108.071068,164.997833 140.000000,164.997833 
M321.216705,214.690948 
	C316.208771,210.043686 314.055298,209.856277 307.873077,213.089737 
	C306.085052,212.161880 304.706909,211.446716 303.026489,210.574692 
	C303.026489,219.947433 303.026489,228.355865 303.026489,236.764313 
	C303.476501,237.018661 303.926544,237.273010 304.376556,237.527359 
	C305.167114,236.350433 306.546783,235.219360 306.642578,233.988373 
	C306.989777,229.527023 306.762360,225.023529 307.030334,220.552628 
	C307.248474,216.912964 309.332672,214.628464 313.099823,214.636871 
	C317.319916,214.646301 317.570648,217.915039 317.625122,220.990417 
	C317.718292,226.247467 317.650787,231.507355 317.650787,236.766068 
	C318.196899,237.012482 318.743011,237.258911 319.289154,237.505341 
	C320.051483,236.322510 321.381775,235.184021 321.478210,233.949203 
	C321.903748,228.500076 321.973907,223.023178 322.795929,217.070053 
	C325.163330,216.409744 327.703674,214.948227 329.829559,215.406982 
	C330.996765,215.658859 331.973083,219.105682 332.143311,221.184967 
	C332.495209,225.483643 332.313904,229.832413 332.230103,234.158218 
	C332.165497,237.492661 333.758759,237.480042 336.215729,236.454773 
	C336.215729,230.788223 336.187622,225.298813 336.225433,219.809860 
	C336.251251,216.062363 335.505646,212.738159 331.417847,211.467178 
	C327.519653,210.255173 324.239624,211.229935 321.216705,214.690948 
M346.744354,236.821121 
	C347.504120,236.401978 348.262146,235.630280 349.023926,235.626602 
	C351.855469,235.612946 355.010864,236.727615 357.457886,235.826004 
	C363.889526,233.456223 366.234924,223.320724 362.465729,216.355988 
	C359.369354,210.634445 353.645447,209.690430 347.498871,213.438217 
	C346.087128,212.395203 344.863922,211.491440 342.927856,210.061035 
	C342.927856,223.140152 342.927856,234.892288 342.927856,246.827759 
	C344.152069,246.827759 345.253662,246.827759 346.739716,246.827759 
	C346.739716,243.672638 346.739716,240.703079 346.744354,236.821121 
M174.796677,207.761597 
	C174.796677,217.394516 174.796677,227.027435 174.796677,236.828674 
	C176.163208,236.828674 177.265381,236.828674 178.896194,236.828674 
	C178.896194,231.499390 178.806992,226.361008 178.924103,221.227325 
	C179.019684,217.037170 181.433838,214.664001 185.524704,214.636627 
	C189.939880,214.607086 190.869919,217.717834 190.814957,221.477295 
	C190.740417,226.576920 190.796402,231.678482 190.796402,236.779205 
	C191.244690,237.071838 191.692978,237.364456 192.141266,237.657089 
	C193.061142,236.651215 194.732437,235.675720 194.774536,234.634369 
	C194.989380,229.321716 195.058609,223.970947 194.652725,218.673828 
	C194.176346,212.456818 189.143112,209.531784 183.200867,211.644501 
	C181.842606,212.127426 180.543976,212.778030 178.724457,213.564850 
	C178.724457,209.515442 178.724457,205.913330 178.724457,202.173370 
	C177.221344,202.173370 176.111694,202.173370 174.796692,202.173370 
	C174.796692,203.860748 174.796692,205.349213 174.796677,207.761597 
M221.495850,218.228714 
	C221.223190,212.838837 217.557175,211.334793 213.032639,210.989655 
	C206.772156,210.512100 203.283188,212.587418 200.740082,219.394012 
	C203.063339,218.319122 204.700424,218.059601 205.500671,217.101257 
	C208.281418,213.771133 211.702332,214.106720 215.011215,215.421555 
	C216.148788,215.873566 217.105103,217.959869 217.208603,219.368332 
	C217.265411,220.141296 215.495392,221.491989 214.334396,221.818222 
	C211.952347,222.487564 209.406860,222.546875 206.962753,223.029953 
	C202.502090,223.911575 199.650757,227.220657 200.247086,230.949799 
	C200.959320,235.403900 204.288284,237.124146 208.210709,236.903275 
	C211.402786,236.723511 214.528946,235.372849 216.754730,234.786362 
	C218.670395,235.805038 220.180542,236.608093 222.146530,237.653534 
	C221.911362,233.689377 221.677612,230.895752 221.598114,228.097778 
	C221.512955,225.100525 221.573013,222.099136 221.495850,218.228714 
M410.977966,231.241959 
	C413.889801,237.887238 418.079041,238.642227 427.462616,234.575455 
	C429.265076,235.639023 430.766083,236.524704 432.202087,237.372055 
	C432.202087,231.073959 432.253296,225.633209 432.188507,220.193848 
	C432.116241,214.127960 430.463684,212.058426 425.163849,211.125183 
	C418.849518,210.013275 413.919250,212.521149 411.512756,219.499771 
	C413.845612,218.286667 415.372406,217.926849 416.228424,216.968109 
	C419.069672,213.785950 422.489166,214.063187 425.788330,215.432190 
	C426.914520,215.899521 427.831299,218.007370 427.908997,219.417175 
	C427.952026,220.197571 426.182037,221.491852 425.017059,221.835892 
	C422.809662,222.487762 420.435638,222.550232 418.155731,222.987259 
	C414.031708,223.777786 411.024139,225.728775 410.977966,231.241959 
M378.579376,225.033081 
	C382.651367,225.033081 386.723358,225.033081 390.789062,225.033081 
	C390.669342,216.178940 386.966187,211.426559 380.398865,210.976089 
	C374.173004,210.549026 369.232178,214.994965 368.374725,221.795776 
	C367.378754,229.695755 370.790283,235.305496 377.382812,236.804016 
	C382.007721,237.855301 389.747864,235.394897 390.246521,227.666641 
	C388.382507,228.624817 386.640869,228.957550 385.917725,229.998108 
	C383.810913,233.029633 381.170868,234.055130 377.753693,233.034012 
	C374.062195,231.930923 372.654175,229.191299 372.610138,225.033096 
	C374.399200,225.033096 376.004395,225.033096 378.579376,225.033081 
M509.332672,232.248657 
	C502.568695,234.743256 498.785126,232.383606 498.241943,224.955231 
	C504.183929,224.955231 510.109039,224.955231 515.993042,224.955231 
	C516.474915,216.830902 513.145813,212.012955 506.696136,211.072205 
	C500.683685,210.195221 495.296295,214.242203 494.081177,220.548523 
	C492.527374,228.612534 495.651428,234.786301 502.205078,236.602997 
	C508.284515,238.288239 513.497009,235.446304 515.766418,229.170822 
	C512.103821,226.191803 511.612671,230.274918 509.332672,232.248657 
M296.888885,218.745804 
	C293.912079,212.426666 289.140564,209.797943 283.510254,211.375275 
	C277.315308,213.110764 274.262482,218.485565 275.004730,226.350250 
	C275.577667,232.421112 279.624939,236.498627 285.573547,236.997894 
	C291.263184,237.475418 295.186951,234.701157 297.256775,227.501175 
	C295.037872,228.636856 293.318604,228.961288 292.602112,229.986526 
	C290.352600,233.205307 287.476379,234.198898 283.971710,232.892715 
	C280.538330,231.613113 279.104492,228.892685 279.329895,224.812637 
	C285.546570,224.812637 291.457855,224.812637 297.698395,224.812637 
	C297.456665,222.753052 297.266174,221.130325 296.888885,218.745804 
M130.543137,217.378204 
	C127.919586,210.351776 123.957611,209.336914 115.679993,213.070740 
	C114.029770,212.116913 112.765587,211.386215 110.954636,210.339493 
	C110.954636,219.755432 110.954636,228.189392 110.954636,236.962387 
	C112.199242,236.869400 113.386818,236.780685 114.971893,236.662277 
	C114.971893,230.953018 114.767937,225.637207 115.038368,220.345657 
	C115.243568,216.330704 118.003120,214.499237 121.827049,214.640945 
	C125.635704,214.782074 126.790222,217.413727 126.790436,220.804718 
	C126.790771,226.096863 126.790520,231.389008 126.790520,236.681152 
	C127.243912,236.961243 127.697304,237.241333 128.150696,237.521423 
	C129.015793,236.406311 130.573166,235.323792 130.627487,234.170486 
	C130.877380,228.864105 130.707901,223.537979 130.543137,217.378204 
M453.205170,232.985870 
	C457.705078,238.064224 461.035309,238.311127 467.499817,234.340012 
	C468.871887,235.406967 470.132751,236.387451 471.950409,237.800903 
	C471.950409,228.019424 471.950409,219.618820 471.950409,211.218231 
	C471.510498,210.956253 471.070587,210.694290 470.630707,210.432327 
	C469.790588,211.587265 468.312317,212.695877 468.224457,213.905441 
	C467.900482,218.366638 468.189423,222.869308 467.953918,227.340881 
	C467.745117,231.305252 465.218842,233.401108 461.398376,233.392181 
	C457.340515,233.382706 456.159973,230.605377 456.192322,226.981720 
	C456.239227,221.728912 456.204376,216.475388 456.204376,211.222168 
	C455.740784,210.943085 455.277161,210.664017 454.813568,210.384933 
	C453.913208,211.381943 452.236725,212.380707 452.238983,213.375656 
	C452.253204,219.660172 452.639618,225.943848 453.205170,232.985870 
M140.884506,216.596954 
	C144.552582,213.521622 147.880463,213.650299 151.147141,217.358536 
	C151.890564,218.202454 153.479431,218.301575 155.244415,218.951721 
	C154.720444,213.530670 151.723038,211.348755 148.169800,211.380096 
	C144.809784,211.409744 140.896362,212.380753 138.260849,214.333740 
	C135.146927,216.641296 136.303375,221.662521 139.874039,223.541092 
	C142.043777,224.682617 144.561722,225.148651 146.893204,226.000275 
	C149.187561,226.838348 153.272675,226.725952 151.705429,230.456589 
	C151.027252,232.070847 147.134537,232.816620 144.635269,232.988953 
	C143.302872,233.080826 141.888992,231.010147 140.398285,230.102051 
	C139.237701,229.395065 137.901489,228.976379 135.502655,227.933823 
	C138.933975,236.605087 146.213272,239.432587 152.280243,235.377289 
	C154.262421,234.052353 156.055252,230.842255 155.989334,228.550247 
	C155.934296,226.636581 153.330719,224.343567 151.317871,223.066025 
	C149.301483,221.786179 146.501404,221.809311 144.270218,220.775055 
	C142.847443,220.115509 141.834671,218.571457 140.884506,216.596954 
M247.026123,228.629150 
	C246.052811,222.162537 240.084946,223.043823 236.035034,221.013977 
	C234.268188,220.128433 232.909134,218.429260 231.364883,217.099579 
	C233.511139,216.301651 235.622772,215.050201 237.817154,214.882645 
	C239.054794,214.788162 240.367783,216.594055 241.759995,217.329773 
	C242.929092,217.947617 244.262009,218.255463 246.440018,219.024567 
	C243.316727,211.067963 235.317368,208.767868 229.979538,212.923889 
	C226.124146,215.925720 226.400101,221.448898 230.748169,223.658203 
	C233.071869,224.838898 235.912552,225.005417 238.229340,226.195374 
	C239.990448,227.099930 241.293182,228.896927 242.799866,230.296844 
	C240.903214,231.347229 238.949783,233.317780 237.124878,233.205215 
	C235.042450,233.076736 233.094360,231.056671 231.049088,229.929031 
	C229.883148,229.286194 228.639816,228.783737 226.504822,227.784409 
	C228.681229,234.987106 231.360870,237.030884 236.980164,237.037842 
	C242.484985,237.044647 245.461960,234.785980 247.026123,228.629150 
M265.873047,233.201111 
	C265.873047,224.261490 265.873047,215.321884 265.873047,206.051819 
	C269.801941,206.051819 273.244049,206.051819 276.864838,206.051819 
	C276.864838,204.539291 276.864838,203.371033 276.864838,202.196899 
	C267.946503,202.196899 259.334442,202.196899 250.403122,202.196899 
	C250.403122,203.356750 250.280807,205.110825 250.420975,205.132065 
	C254.100159,205.689377 257.806519,206.067291 261.866638,206.515549 
	C261.866638,216.590820 261.866638,226.685730 261.866638,236.780655 
	C262.338318,237.045212 262.810028,237.309784 263.281708,237.574356 
	C264.145355,236.425079 265.009033,235.275818 265.873047,233.201111 
M448.305298,234.868835 
	C442.484436,232.384811 444.013916,227.242813 443.926239,222.701553 
	C443.878387,220.223145 443.917664,217.743042 443.917664,215.992020 
	C445.628448,214.537537 446.826782,213.518707 448.025146,212.499893 
	C446.689941,211.665802 445.354767,210.831711 444.041534,210.011337 
	C443.914215,207.997086 443.785370,205.958435 443.656525,203.919769 
	C440.620117,206.609772 438.693970,209.684570 436.856445,212.811447 
	C436.694885,213.086365 437.047729,214.065140 437.272797,214.106064 
	C441.428009,214.861908 439.778290,218.118805 439.905121,220.430038 
	C440.114258,224.239990 439.790039,228.081146 440.037781,231.886551 
	C440.352051,236.713608 444.398712,238.438889 448.305298,234.868835 
M400.228912,223.610962 
	C400.643463,218.997849 400.200134,213.714005 407.581421,214.794357 
	C408.040619,214.861557 408.735321,213.319733 409.320435,212.526505 
	C409.110382,212.021530 408.900299,211.516541 408.690216,211.011566 
	C405.862640,211.482559 403.035034,211.953552 400.670624,212.347382 
	C399.294861,211.856934 398.002228,211.396133 396.233002,210.765427 
	C396.233002,219.125610 396.313812,226.570084 396.195404,234.011414 
	C396.144104,237.235901 397.526764,237.601685 400.228577,236.564423 
	C400.228577,232.516052 400.228577,228.546295 400.228912,223.610962 
M491.804352,213.465286 
	C489.505859,210.137878 488.539551,210.084961 484.111023,212.665192 
	C482.383087,211.921722 481.023224,211.336624 479.078522,210.499908 
	C479.078522,219.001083 479.126862,226.608810 479.057129,234.215454 
	C479.024597,237.759155 480.706024,237.438705 483.067719,236.401566 
	C483.067719,232.529922 483.060059,228.887146 483.069244,225.244400 
	C483.092072,216.183624 483.317505,215.889984 491.804352,213.465286 
z"/>
<path fill="#181818" opacity="1.000000" stroke="none" 
	d="
M334.360260,113.635773 
	C332.640045,107.402405 334.753754,103.982033 340.598236,102.959045 
	C342.884460,102.558891 345.248047,102.466049 347.459564,101.828148 
	C348.644989,101.486206 350.482422,100.230858 350.437897,99.482033 
	C350.354034,98.070496 349.441620,95.987129 348.305725,95.495743 
	C345.030701,94.078957 341.624908,93.757713 338.786713,96.955528 
	C337.920929,97.930969 336.416382,98.339447 334.082672,99.625946 
	C336.284149,92.571365 341.032288,90.052399 347.478333,91.082329 
	C352.962708,91.958595 354.680389,94.124054 354.749023,100.471596 
	C354.806152,105.751320 354.760742,111.032150 354.760742,117.279144 
	C353.341217,116.489120 351.743317,115.599815 349.729553,114.479073 
	C345.149292,117.005295 339.818787,119.139679 334.360260,113.635773 
M349.187805,104.987045 
	C346.425079,105.442322 343.596222,105.672218 340.929321,106.454285 
	C339.716858,106.809837 338.363647,108.092155 337.940735,109.266190 
	C337.630280,110.128136 338.671600,112.449173 339.210236,112.481979 
	C342.034546,112.653946 345.133972,112.937370 347.669922,111.963593 
	C350.415558,110.909302 351.628082,108.188560 349.187805,104.987045 
z"/>
<path fill="#1B1B1B" opacity="1.000000" stroke="none" 
	d="
M197.595322,103.275940 
	C197.589722,108.053787 197.589722,112.364700 197.589722,116.844002 
	C196.121017,116.844002 195.007706,116.844002 193.813293,116.844002 
	C193.813293,108.205231 193.813293,99.761917 193.813293,90.360161 
	C195.646942,91.368362 196.944534,92.081825 198.801620,93.102913 
	C199.455658,92.793510 200.860611,91.952003 202.377167,91.443100 
	C207.964630,89.568161 213.110413,92.732697 213.465775,98.548187 
	C213.790161,103.856361 213.701370,109.203789 213.471191,114.519913 
	C213.425644,115.571938 211.909622,116.560303 211.071732,117.578026 
	C210.594635,117.300659 210.117538,117.023285 209.640442,116.745911 
	C209.640442,112.297882 209.690033,107.849136 209.625259,103.402054 
	C209.570251,99.626221 210.281754,95.272987 204.717224,94.643631 
	C200.447937,94.160744 198.301453,96.722618 197.595322,103.275940 
z"/>
<path fill="#1B1B1B" opacity="1.000000" stroke="none" 
	d="
M428.241547,107.018204 
	C428.236023,104.545166 428.217285,102.551949 428.227966,100.558876 
	C428.245178,97.342346 427.091095,94.894714 423.570526,94.665588 
	C420.056854,94.436905 416.996826,95.820724 416.731995,99.640503 
	C416.343445,105.245049 416.631927,110.896523 416.631927,116.420753 
	C413.441589,117.620621 412.143646,117.113045 412.199860,113.932785 
	C412.331757,106.473259 412.242065,99.009811 412.242065,90.273697 
	C414.248535,91.434891 415.505402,92.162277 417.435822,93.279457 
	C417.753845,93.111290 419.134552,92.193924 420.645081,91.615402 
	C426.577637,89.343231 431.803528,92.742683 432.212280,99.062721 
	C432.255066,99.724503 432.225342,100.391113 432.225403,101.055489 
	C432.226074,106.199768 432.225769,111.344048 432.225769,116.564087 
	C429.491211,117.613365 428.026947,117.179642 428.217682,113.974648 
	C428.345703,111.822937 428.241730,109.657425 428.241547,107.018204 
z"/>
<path fill="#171717" opacity="1.000000" stroke="none" 
	d="
M237.297821,95.696106 
	C237.105331,96.909088 236.772598,97.782600 236.439850,98.656113 
	C235.546967,98.240089 234.683609,97.736015 233.755569,97.424858 
	C231.155121,96.552979 228.565659,95.535797 225.886276,95.086815 
	C225.168625,94.966568 223.512970,96.627884 223.442337,97.558914 
	C223.374603,98.451859 224.617386,99.926178 225.612930,100.325546 
	C228.366898,101.430283 231.556854,101.649025 234.067032,103.097435 
	C236.100250,104.270622 238.657242,106.693932 238.695999,108.609001 
	C238.742416,110.903290 236.919678,114.091133 234.925949,115.411163 
	C228.846771,119.436172 221.492737,116.551857 218.238678,107.917252 
	C220.616043,108.978683 221.898544,109.484100 223.118637,110.110992 
	C225.203629,111.182251 227.222824,113.131264 229.319901,113.201004 
	C231.119843,113.260849 232.990005,111.208755 234.829117,110.090622 
	C233.403366,108.780357 232.168884,107.088440 230.504501,106.254395 
	C228.320831,105.160149 225.468796,105.225006 223.517212,103.893135 
	C221.688538,102.645157 219.499161,100.175293 219.580276,98.336288 
	C219.674988,96.189041 221.597763,93.380127 223.541550,92.204918 
	C228.172745,89.404907 233.546387,90.973534 237.297821,95.696106 
z"/>
<path fill="#181818" opacity="1.000000" stroke="none" 
	d="
M397.529480,116.869919 
	C390.252533,116.926643 386.460449,114.535927 384.775208,109.158417 
	C382.775665,102.778015 384.608490,95.849113 389.066589,92.935287 
	C394.581482,89.330750 401.955994,90.813934 405.286987,96.197571 
	C409.087250,102.339661 407.233978,112.105499 401.603271,115.304237 
	C400.464844,115.950943 399.160370,116.305405 397.529480,116.869919 
M400.102844,96.156105 
	C397.006073,93.999924 393.740479,93.786804 390.950500,96.333908 
	C387.274597,99.689751 387.261932,104.359192 389.021149,108.344193 
	C390.005981,110.575035 393.280731,113.083435 395.541382,113.100334 
	C397.803680,113.117249 401.687134,110.457634 402.019867,108.490776 
	C402.654602,104.738686 401.269989,100.644997 400.102844,96.156105 
z"/>
<path fill="#151515" opacity="1.000000" stroke="none" 
	d="
M298.739380,116.069710 
	C292.318726,117.790993 287.444305,116.314796 284.726379,112.050713 
	C281.685822,107.280518 282.174469,98.565994 285.702179,94.647575 
	C289.011536,90.971695 294.782684,89.876503 299.436493,92.156136 
	C303.776703,94.282158 305.567383,98.057404 305.774231,102.677994 
	C306.026550,108.314697 304.868744,113.303391 298.739380,116.069710 
M287.215057,107.785477 
	C288.366302,111.583549 290.891541,113.663071 294.891479,113.366768 
	C298.705688,113.084229 300.929718,110.678101 301.354828,107.004471 
	C301.633087,104.599777 302.066254,101.559792 300.910583,99.805023 
	C299.410919,97.527901 296.358002,94.853630 294.053101,94.924728 
	C291.730072,94.996384 288.931458,97.851662 287.430115,100.187271 
	C286.366791,101.841476 287.115265,104.660294 287.215057,107.785477 
z"/>
<path fill="#191919" opacity="1.000000" stroke="none" 
	d="
M330.194824,98.046448 
	C328.611969,100.260406 327.618042,100.413185 325.792206,98.050125 
	C324.464874,96.332169 321.225922,94.605019 319.453766,95.096718 
	C317.285126,95.698433 315.172241,98.344505 314.133881,100.610130 
	C313.257904,102.521416 313.208801,105.524887 314.136169,107.370361 
	C315.316284,109.718857 317.610596,112.517548 319.873932,112.995918 
	C321.724213,113.386986 324.260834,110.702492 326.439362,109.298073 
	C327.566223,108.571655 328.576172,107.663879 330.672302,106.034996 
	C329.572540,113.655632 326.067902,116.975380 320.743591,117.043518 
	C314.928406,117.117943 310.632843,113.197433 309.717712,106.980339 
	C308.552521,99.064362 311.305695,93.506157 317.345032,91.581985 
	C322.998566,89.780746 327.251923,91.824638 330.194824,98.046448 
z"/>
<path fill="#080808" opacity="1.000000" stroke="none" 
	d="
M262.172455,102.958710 
	C262.172455,106.415665 262.172455,109.380173 262.172455,112.784119 
	C267.799255,112.784119 273.191895,112.784119 278.869629,112.784119 
	C278.869629,114.385345 278.869629,115.546959 278.869629,116.790443 
	C271.921692,116.790443 265.184418,116.790443 258.005585,116.790443 
	C258.005585,105.832603 257.931610,95.091522 258.127106,84.355354 
	C258.145416,83.350159 259.865631,82.375946 260.795685,81.387352 
	C261.254608,81.658669 261.713531,81.929993 262.172455,82.201309 
	C262.172455,88.956291 262.172455,95.711273 262.172455,102.958710 
z"/>
<path fill="#1B1B1B" opacity="1.000000" stroke="none" 
	d="
M370.728699,114.323921 
	C371.514862,118.263161 368.428406,117.390160 367.481262,116.865303 
	C365.576691,115.809853 363.032135,114.076797 362.743713,112.299995 
	C362.034454,107.930641 362.646545,103.363777 362.314667,98.907066 
	C362.197479,97.333389 360.884155,95.848129 360.113739,94.324112 
	C359.837158,93.777000 359.163483,93.007576 359.329010,92.724808 
	C361.164886,89.588699 363.130219,86.528351 366.143433,83.852173 
	C366.253876,85.928741 366.364288,88.005318 366.470093,89.994827 
	C367.857330,90.829979 369.211517,91.645210 370.565674,92.460449 
	C369.374084,93.501343 368.182465,94.542236 366.364746,96.130051 
	C366.364746,99.393234 366.640747,103.539803 366.281403,107.630554 
	C365.968109,111.197113 367.294525,113.103409 370.728699,114.323921 
z"/>
<path fill="#1E1E1E" opacity="1.000000" stroke="none" 
	d="
M379.027313,92.352600 
	C379.057190,100.297447 379.056915,107.770599 379.048645,115.243744 
	C379.048279,115.569084 378.974335,115.894333 378.902435,116.483917 
	C376.602234,117.475876 375.009399,117.592613 375.047638,114.151253 
	C375.130524,106.690094 375.073181,99.227371 375.073181,90.891685 
	C376.609070,91.279030 377.802399,91.579971 379.027313,92.352600 
z"/>
<path fill="#1E1E1E" opacity="1.000000" stroke="none" 
	d="
M247.838379,111.946274 
	C249.039398,113.352875 249.848862,114.758293 251.018204,116.788528 
	C248.538605,116.899551 247.262955,116.956673 244.441498,117.083000 
	C245.758499,114.831467 246.602676,113.388275 247.838379,111.946274 
z"/>
<path fill="#1E1E1E" opacity="1.000000" stroke="none" 
	d="
M248.620148,97.022415 
	C243.821579,97.375069 245.972870,94.270866 245.197998,92.165649 
	C247.063019,92.165649 248.334961,92.165649 250.389969,92.165649 
	C249.886841,93.926086 249.448685,95.459206 248.620148,97.022415 
z"/>
<path fill="#121212" opacity="1.000000" stroke="none" 
	d="
M346.742035,237.277313 
	C346.739716,240.703079 346.739716,243.672638 346.739716,246.827759 
	C345.253662,246.827759 344.152069,246.827759 342.927856,246.827759 
	C342.927856,234.892288 342.927856,223.140152 342.927856,210.061035 
	C344.863922,211.491440 346.087128,212.395203 347.498871,213.438217 
	C353.645447,209.690430 359.369354,210.634445 362.465729,216.355988 
	C366.234924,223.320724 363.889526,233.456223 357.457886,235.826004 
	C355.010864,236.727615 351.855469,235.612946 349.023926,235.626602 
	C348.262146,235.630280 347.504120,236.401978 346.742035,237.277313 
M347.615234,218.246231 
	C347.326782,219.020065 346.913788,219.771606 346.770630,220.571457 
	C345.990265,224.931732 345.496216,229.540665 349.800415,232.216141 
	C351.482178,233.261520 354.915680,233.241882 356.599365,232.187363 
	C360.870331,229.512344 360.601379,224.818558 359.753479,220.510635 
	C358.501373,214.149139 353.066498,212.863632 347.615234,218.246231 
z"/>
<path fill="#151515" opacity="1.000000" stroke="none" 
	d="
M174.796692,207.299652 
	C174.796692,205.349213 174.796692,203.860748 174.796692,202.173370 
	C176.111694,202.173370 177.221344,202.173370 178.724457,202.173370 
	C178.724457,205.913330 178.724457,209.515442 178.724457,213.564850 
	C180.543976,212.778030 181.842606,212.127426 183.200867,211.644501 
	C189.143112,209.531784 194.176346,212.456818 194.652725,218.673828 
	C195.058609,223.970947 194.989380,229.321716 194.774536,234.634369 
	C194.732437,235.675720 193.061142,236.651215 192.141266,237.657089 
	C191.692978,237.364456 191.244690,237.071838 190.796402,236.779205 
	C190.796402,231.678482 190.740417,226.576920 190.814957,221.477295 
	C190.869919,217.717834 189.939880,214.607086 185.524704,214.636627 
	C181.433838,214.664001 179.019684,217.037170 178.924103,221.227325 
	C178.806992,226.361008 178.896194,231.499390 178.896194,236.828674 
	C177.265381,236.828674 176.163208,236.828674 174.796677,236.828674 
	C174.796677,227.027435 174.796677,217.394516 174.796692,207.299652 
z"/>
<path fill="#191919" opacity="1.000000" stroke="none" 
	d="
M221.532776,218.664139 
	C221.573013,222.099136 221.512955,225.100525 221.598114,228.097778 
	C221.677612,230.895752 221.911362,233.689377 222.146530,237.653534 
	C220.180542,236.608093 218.670395,235.805038 216.754730,234.786362 
	C214.528946,235.372849 211.402786,236.723511 208.210709,236.903275 
	C204.288284,237.124146 200.959320,235.403900 200.247086,230.949799 
	C199.650757,227.220657 202.502090,223.911575 206.962753,223.029953 
	C209.406860,222.546875 211.952347,222.487564 214.334396,221.818222 
	C215.495392,221.491989 217.265411,220.141296 217.208603,219.368332 
	C217.105103,217.959869 216.148788,215.873566 215.011215,215.421555 
	C211.702332,214.106720 208.281418,213.771133 205.500671,217.101257 
	C204.700424,218.059601 203.063339,218.319122 200.740082,219.394012 
	C203.283188,212.587418 206.772156,210.512100 213.032639,210.989655 
	C217.557175,211.334793 221.223190,212.838837 221.532776,218.664139 
M209.473114,233.495697 
	C216.189072,232.412262 217.402756,231.114700 217.090057,224.977432 
	C214.352890,225.355972 211.544159,225.419495 208.963165,226.218582 
	C207.315247,226.728790 206.004288,228.327393 204.542252,229.438004 
	C205.893402,230.763092 207.244537,232.088165 209.473114,233.495697 
z"/>
<path fill="#121212" opacity="1.000000" stroke="none" 
	d="
M410.940033,230.844162 
	C411.024139,225.728775 414.031708,223.777786 418.155731,222.987259 
	C420.435638,222.550232 422.809662,222.487762 425.017059,221.835892 
	C426.182037,221.491852 427.952026,220.197571 427.908997,219.417175 
	C427.831299,218.007370 426.914520,215.899521 425.788330,215.432190 
	C422.489166,214.063187 419.069672,213.785950 416.228424,216.968109 
	C415.372406,217.926849 413.845612,218.286667 411.512756,219.499771 
	C413.919250,212.521149 418.849518,210.013275 425.163849,211.125183 
	C430.463684,212.058426 432.116241,214.127960 432.188507,220.193848 
	C432.253296,225.633209 432.202087,231.073959 432.202087,237.372055 
	C430.766083,236.524704 429.265076,235.639023 427.462616,234.575455 
	C418.079041,238.642227 413.889801,237.887238 410.940033,230.844162 
M418.216064,233.183182 
	C425.605652,233.804840 428.239899,231.600784 427.694794,224.909866 
	C424.611938,225.377716 421.480225,225.604858 418.485474,226.368790 
	C414.536682,227.376099 414.243866,229.859482 418.216064,233.183182 
z"/>
<path fill="#121212" opacity="1.000000" stroke="none" 
	d="
M378.094482,225.033081 
	C376.004395,225.033096 374.399200,225.033096 372.610138,225.033096 
	C372.654175,229.191299 374.062195,231.930923 377.753693,233.034012 
	C381.170868,234.055130 383.810913,233.029633 385.917725,229.998108 
	C386.640869,228.957550 388.382507,228.624817 390.246521,227.666641 
	C389.747864,235.394897 382.007721,237.855301 377.382812,236.804016 
	C370.790283,235.305496 367.378754,229.695755 368.374725,221.795776 
	C369.232178,214.994965 374.173004,210.549026 380.398865,210.976089 
	C386.966187,211.426559 390.669342,216.178940 390.789062,225.033081 
	C386.723358,225.033081 382.651367,225.033081 378.094482,225.033081 
M374.724518,216.404846 
	C373.979553,217.890594 373.234589,219.376328 372.368011,221.104614 
	C377.668396,221.104614 382.163055,221.104614 386.786255,221.104614 
	C384.692993,214.454468 381.674835,213.202026 374.724518,216.404846 
z"/>
<path fill="#111111" opacity="1.000000" stroke="none" 
	d="
M509.655029,232.013885 
	C511.612671,230.274918 512.103821,226.191803 515.766418,229.170822 
	C513.497009,235.446304 508.284515,238.288239 502.205078,236.602997 
	C495.651428,234.786301 492.527374,228.612534 494.081177,220.548523 
	C495.296295,214.242203 500.683685,210.195221 506.696136,211.072205 
	C513.145813,212.012955 516.474915,216.830902 515.993042,224.955231 
	C510.109039,224.955231 504.183929,224.955231 498.241943,224.955231 
	C498.785126,232.383606 502.568695,234.743256 509.655029,232.013885 
M507.641663,214.883560 
	C501.537842,214.096161 499.298431,215.608383 498.436249,221.269745 
	C502.933136,221.269745 507.397888,221.269745 513.508240,221.269745 
	C511.242737,218.541870 509.807129,216.813278 507.641663,214.883560 
z"/>
<path fill="#121212" opacity="1.000000" stroke="none" 
	d="
M296.982300,219.126709 
	C297.266174,221.130325 297.456665,222.753052 297.698395,224.812637 
	C291.457855,224.812637 285.546570,224.812637 279.329895,224.812637 
	C279.104492,228.892685 280.538330,231.613113 283.971710,232.892715 
	C287.476379,234.198898 290.352600,233.205307 292.602112,229.986526 
	C293.318604,228.961288 295.037872,228.636856 297.256775,227.501175 
	C295.186951,234.701157 291.263184,237.475418 285.573547,236.997894 
	C279.624939,236.498627 275.577667,232.421112 275.004730,226.350250 
	C274.262482,218.485565 277.315308,213.110764 283.510254,211.375275 
	C289.140564,209.797943 293.912079,212.426666 296.982300,219.126709 
M286.496399,214.416794 
	C282.472473,214.863525 279.740173,216.632843 279.306976,221.159393 
	C284.159851,221.159393 288.663666,221.159393 293.237732,221.159393 
	C293.021454,216.886261 290.687714,215.155396 286.496399,214.416794 
z"/>
<path fill="#171717" opacity="1.000000" stroke="none" 
	d="
M130.615997,217.798569 
	C130.707901,223.537979 130.877380,228.864105 130.627487,234.170486 
	C130.573166,235.323792 129.015793,236.406311 128.150696,237.521423 
	C127.697304,237.241333 127.243912,236.961243 126.790520,236.681152 
	C126.790520,231.389008 126.790771,226.096863 126.790436,220.804718 
	C126.790222,217.413727 125.635704,214.782074 121.827049,214.640945 
	C118.003120,214.499237 115.243568,216.330704 115.038368,220.345657 
	C114.767937,225.637207 114.971893,230.953018 114.971893,236.662277 
	C113.386818,236.780685 112.199242,236.869400 110.954636,236.962387 
	C110.954636,228.189392 110.954636,219.755432 110.954636,210.339493 
	C112.765587,211.386215 114.029770,212.116913 115.679993,213.070740 
	C123.957611,209.336914 127.919586,210.351776 130.615997,217.798569 
z"/>
<path fill="#121212" opacity="1.000000" stroke="none" 
	d="
M453.054169,232.606842 
	C452.639618,225.943848 452.253204,219.660172 452.238983,213.375656 
	C452.236725,212.380707 453.913208,211.381943 454.813568,210.384933 
	C455.277161,210.664017 455.740784,210.943085 456.204376,211.222168 
	C456.204376,216.475388 456.239227,221.728912 456.192322,226.981720 
	C456.159973,230.605377 457.340515,233.382706 461.398376,233.392181 
	C465.218842,233.401108 467.745117,231.305252 467.953918,227.340881 
	C468.189423,222.869308 467.900482,218.366638 468.224457,213.905441 
	C468.312317,212.695877 469.790588,211.587265 470.630707,210.432327 
	C471.070587,210.694290 471.510498,210.956253 471.950409,211.218231 
	C471.950409,219.618820 471.950409,228.019424 471.950409,237.800903 
	C470.132751,236.387451 468.871887,235.406967 467.499817,234.340012 
	C461.035309,238.311127 457.705078,238.064224 453.054169,232.606842 
z"/>
<path fill="#171717" opacity="1.000000" stroke="none" 
	d="
M322.172729,217.556351 
	C321.973907,223.023178 321.903748,228.500076 321.478210,233.949203 
	C321.381775,235.184021 320.051483,236.322510 319.289154,237.505341 
	C318.743011,237.258911 318.196899,237.012482 317.650787,236.766068 
	C317.650787,231.507355 317.718292,226.247467 317.625122,220.990417 
	C317.570648,217.915039 317.319916,214.646301 313.099823,214.636871 
	C309.332672,214.628464 307.248474,216.912964 307.030334,220.552628 
	C306.762360,225.023529 306.989777,229.527023 306.642578,233.988373 
	C306.546783,235.219360 305.167114,236.350433 304.376556,237.527359 
	C303.926544,237.273010 303.476501,237.018661 303.026489,236.764313 
	C303.026489,228.355865 303.026489,219.947433 303.026489,210.574692 
	C304.706909,211.446716 306.085052,212.161880 307.873077,213.089737 
	C314.055298,209.856277 316.208771,210.043686 321.598999,215.182159 
	C322.045074,216.301025 322.108887,216.928680 322.172729,217.556351 
z"/>
<path fill="#151515" opacity="1.000000" stroke="none" 
	d="
M140.761292,217.010468 
	C141.834671,218.571457 142.847443,220.115509 144.270218,220.775055 
	C146.501404,221.809311 149.301483,221.786179 151.317871,223.066025 
	C153.330719,224.343567 155.934296,226.636581 155.989334,228.550247 
	C156.055252,230.842255 154.262421,234.052353 152.280243,235.377289 
	C146.213272,239.432587 138.933975,236.605087 135.502655,227.933823 
	C137.901489,228.976379 139.237701,229.395065 140.398285,230.102051 
	C141.888992,231.010147 143.302872,233.080826 144.635269,232.988953 
	C147.134537,232.816620 151.027252,232.070847 151.705429,230.456589 
	C153.272675,226.725952 149.187561,226.838348 146.893204,226.000275 
	C144.561722,225.148651 142.043777,224.682617 139.874039,223.541092 
	C136.303375,221.662521 135.146927,216.641296 138.260849,214.333740 
	C140.896362,212.380753 144.809784,211.409744 148.169800,211.380096 
	C151.723038,211.348755 154.720444,213.530670 155.244415,218.951721 
	C153.479431,218.301575 151.890564,218.202454 151.147141,217.358536 
	C147.880463,213.650299 144.552582,213.521622 140.761292,217.010468 
z"/>
<path fill="#171717" opacity="1.000000" stroke="none" 
	d="
M247.027084,229.021759 
	C245.461960,234.785980 242.484985,237.044647 236.980164,237.037842 
	C231.360870,237.030884 228.681229,234.987106 226.504822,227.784409 
	C228.639816,228.783737 229.883148,229.286194 231.049088,229.929031 
	C233.094360,231.056671 235.042450,233.076736 237.124878,233.205215 
	C238.949783,233.317780 240.903214,231.347229 242.799866,230.296844 
	C241.293182,228.896927 239.990448,227.099930 238.229340,226.195374 
	C235.912552,225.005417 233.071869,224.838898 230.748169,223.658203 
	C226.400101,221.448898 226.124146,215.925720 229.979538,212.923889 
	C235.317368,208.767868 243.316727,211.067963 246.440018,219.024567 
	C244.262009,218.255463 242.929092,217.947617 241.759995,217.329773 
	C240.367783,216.594055 239.054794,214.788162 237.817154,214.882645 
	C235.622772,215.050201 233.511139,216.301651 231.364883,217.099579 
	C232.909134,218.429260 234.268188,220.128433 236.035034,221.013977 
	C240.084946,223.043823 246.052811,222.162537 247.027084,229.021759 
z"/>
<path fill="#0B0B0B" opacity="1.000000" stroke="none" 
	d="
M265.872864,233.663834 
	C265.009033,235.275818 264.145355,236.425079 263.281708,237.574356 
	C262.810028,237.309784 262.338318,237.045212 261.866638,236.780655 
	C261.866638,226.685730 261.866638,216.590820 261.866638,206.515549 
	C257.806519,206.067291 254.100159,205.689377 250.420975,205.132065 
	C250.280807,205.110825 250.403122,203.356750 250.403122,202.196899 
	C259.334442,202.196899 267.946503,202.196899 276.864838,202.196899 
	C276.864838,203.371033 276.864838,204.539291 276.864838,206.051819 
	C273.244049,206.051819 269.801941,206.051819 265.873047,206.051819 
	C265.873047,215.321884 265.873047,224.261490 265.872864,233.663834 
z"/>
<path fill="#181818" opacity="1.000000" stroke="none" 
	d="
M448.372498,235.260132 
	C444.398712,238.438889 440.352051,236.713608 440.037781,231.886551 
	C439.790039,228.081146 440.114258,224.239990 439.905121,220.430038 
	C439.778290,218.118805 441.428009,214.861908 437.272797,214.106064 
	C437.047729,214.065140 436.694885,213.086365 436.856445,212.811447 
	C438.693970,209.684570 440.620117,206.609772 443.656525,203.919769 
	C443.785370,205.958435 443.914215,207.997086 444.041534,210.011337 
	C445.354767,210.831711 446.689941,211.665802 448.025146,212.499878 
	C446.826782,213.518707 445.628448,214.537537 443.917664,215.992020 
	C443.917664,217.743042 443.878387,220.223145 443.926239,222.701553 
	C444.013916,227.242813 442.484436,232.384811 448.372498,235.260132 
z"/>
<path fill="#1E1E1E" opacity="1.000000" stroke="none" 
	d="
M400.228760,224.093750 
	C400.228577,228.546295 400.228577,232.516052 400.228577,236.564423 
	C397.526764,237.601685 396.144104,237.235901 396.195404,234.011414 
	C396.313812,226.570084 396.233002,219.125610 396.233002,210.765427 
	C398.002228,211.396133 399.294861,211.856934 400.670624,212.347382 
	C403.035034,211.953552 405.862640,211.482559 408.690216,211.011566 
	C408.900299,211.516541 409.110382,212.021530 409.320435,212.526505 
	C408.735321,213.319733 408.040619,214.861557 407.581421,214.794357 
	C400.200134,213.714005 400.643463,218.997849 400.228760,224.093750 
z"/>
<path fill="#191919" opacity="1.000000" stroke="none" 
	d="
M322.484314,217.313202 
	C322.108887,216.928680 322.045074,216.301025 321.936371,215.202545 
	C324.239624,211.229935 327.519653,210.255173 331.417847,211.467178 
	C335.505646,212.738159 336.251251,216.062363 336.225433,219.809860 
	C336.187622,225.298813 336.215729,230.788223 336.215729,236.454773 
	C333.758759,237.480042 332.165497,237.492661 332.230103,234.158218 
	C332.313904,229.832413 332.495209,225.483643 332.143311,221.184967 
	C331.973083,219.105682 330.996765,215.658859 329.829559,215.406982 
	C327.703674,214.948227 325.163330,216.409744 322.484314,217.313202 
z"/>
<path fill="#1E1E1E" opacity="1.000000" stroke="none" 
	d="
M491.617798,213.831924 
	C483.317505,215.889984 483.092072,216.183624 483.069244,225.244400 
	C483.060059,228.887146 483.067719,232.529922 483.067719,236.401566 
	C480.706024,237.438705 479.024597,237.759155 479.057129,234.215454 
	C479.126862,226.608810 479.078522,219.001083 479.078522,210.499908 
	C481.023224,211.336624 482.383087,211.921722 484.111023,212.665192 
	C488.539551,210.084961 489.505859,210.137878 491.617798,213.831924 
z"/>
<path fill="#EEEEEE" opacity="1.000000" stroke="none" 
	d="
M349.588043,105.029388 
	C351.628082,108.188560 350.415558,110.909302 347.669922,111.963593 
	C345.133972,112.937370 342.034546,112.653946 339.210236,112.481979 
	C338.671600,112.449173 337.630280,110.128136 337.940735,109.266190 
	C338.363647,108.092155 339.716858,106.809837 340.929321,106.454285 
	C343.596222,105.672218 346.425079,105.442322 349.588043,105.029388 
z"/>
<path fill="#F7F7F7" opacity="1.000000" stroke="none" 
	d="
M400.413269,96.424606 
	C401.269989,100.644997 402.654602,104.738686 402.019867,108.490776 
	C401.687134,110.457634 397.803680,113.117249 395.541382,113.100334 
	C393.280731,113.083435 390.005981,110.575035 389.021149,108.344193 
	C387.261932,104.359192 387.274597,99.689751 390.950500,96.333908 
	C393.740479,93.786804 397.006073,93.999924 400.413269,96.424606 
z"/>
<path fill="#F5F5F5" opacity="1.000000" stroke="none" 
	d="
M287.135010,107.372360 
	C287.115265,104.660294 286.366791,101.841476 287.430115,100.187271 
	C288.931458,97.851662 291.730072,94.996384 294.053101,94.924728 
	C296.358002,94.853630 299.410919,97.527901 300.910583,99.805023 
	C302.066254,101.559792 301.633087,104.599777 301.354828,107.004471 
	C300.929718,110.678101 298.705688,113.084229 294.891479,113.366768 
	C290.891541,113.663071 288.366302,111.583549 287.135010,107.372360 
z"/>
<path fill="#F3F3F3" opacity="1.000000" stroke="none" 
	d="
M347.809937,217.896484 
	C353.066498,212.863632 358.501373,214.149139 359.753479,220.510635 
	C360.601379,224.818558 360.870331,229.512344 356.599365,232.187363 
	C354.915680,233.241882 351.482178,233.261520 349.800415,232.216141 
	C345.496216,229.540665 345.990265,224.931732 346.770630,220.571457 
	C346.913788,219.771606 347.326782,219.020065 347.809937,217.896484 
z"/>
<path fill="#EEEEEE" opacity="1.000000" stroke="none" 
	d="
M209.034393,233.454468 
	C207.244537,232.088165 205.893402,230.763092 204.542252,229.438004 
	C206.004288,228.327393 207.315247,226.728790 208.963165,226.218582 
	C211.544159,225.419495 214.352890,225.355972 217.090057,224.977432 
	C217.402756,231.114700 216.189072,232.412262 209.034393,233.454468 
z"/>
<path fill="#EEEEEE" opacity="1.000000" stroke="none" 
	d="
M417.849182,233.101746 
	C414.243866,229.859482 414.536682,227.376099 418.485474,226.368790 
	C421.480225,225.604858 424.611938,225.377716 427.694794,224.909866 
	C428.239899,231.600784 425.605652,233.804840 417.849182,233.101746 
z"/>
<path fill="#E1E1E1" opacity="1.000000" stroke="none" 
	d="
M375.017334,216.154572 
	C381.674835,213.202026 384.692993,214.454468 386.786255,221.104614 
	C382.163055,221.104614 377.668396,221.104614 372.368011,221.104614 
	C373.234589,219.376328 373.979553,217.890594 375.017334,216.154572 
z"/>
<path fill="#E1E1E1" opacity="1.000000" stroke="none" 
	d="
M508.006592,214.984131 
	C509.807129,216.813278 511.242737,218.541870 513.508240,221.269745 
	C507.397888,221.269745 502.933136,221.269745 498.436249,221.269745 
	C499.298431,215.608383 501.537842,214.096161 508.006592,214.984131 
z"/>
<path fill="#E1E1E1" opacity="1.000000" stroke="none" 
	d="
M286.867493,214.450165 
	C290.687714,215.155396 293.021454,216.886261 293.237732,221.159393 
	C288.663666,221.159393 284.159851,221.159393 279.306976,221.159393 
	C279.740173,216.632843 282.472473,214.863525 286.867493,214.450165 
z"/>
</svg>