<svg version="1.1" id="Layer_1" xmlns="http://www.w3.org/2000/svg" xmlns:xlink="http://www.w3.org/1999/xlink" x="0px" y="0px"
	 width="100%" viewBox="0 0 1579 203" enable-background="new 0 0 1579 203" xml:space="preserve">
<path fill="#FFFFFF" opacity="1.000000" stroke="none" 
	d="
M1190.000000,204.000000 
	C793.333374,204.000000 397.166718,204.000000 1.000053,204.000000 
	C1.000036,136.333359 1.000036,68.666725 1.000018,1.000062 
	C527.333313,1.000041 1053.666626,1.000041 1580.000000,1.000021 
	C1580.000000,68.666603 1580.000000,136.333206 1580.000000,203.999908 
	C1450.166626,204.000000 1320.333374,204.000000 1190.000000,204.000000 
M1031.500000,105.002312 
	C1055.560425,105.002312 1079.620728,105.002312 1104.187622,105.002312 
	C1100.831543,111.882835 1097.791748,118.115005 1094.236450,125.403931 
	C1109.171143,117.930489 1122.804199,111.108376 1137.094116,103.957573 
	C1137.094116,124.671188 1137.094116,144.709808 1137.094116,164.733185 
	C1271.988403,164.733185 1406.398315,164.733185 1540.785522,164.733185 
	C1540.785522,123.394562 1540.785522,82.325676 1540.785522,41.274147 
	C1406.103271,41.274147 1271.697266,41.274147 1136.971680,41.274147 
	C1136.971680,61.467049 1136.971680,81.385872 1136.971680,101.924431 
	C1122.777344,94.846001 1109.081055,88.016014 1094.189575,80.589920 
	C1097.854614,88.077286 1100.934082,94.368378 1104.179077,100.997688 
	C1101.671753,100.997688 1099.840942,100.997688 1098.010132,100.997688 
	C1023.677246,100.997688 949.344421,100.997688 875.011536,100.997704 
	C874.011536,100.997704 872.999573,101.097832 872.013672,100.979866 
	C868.575195,100.568428 868.719604,102.414459 869.350586,105.002312 
	C923.208862,105.002312 976.854431,105.002312 1031.500000,105.002312 
M294.500000,164.999710 
	C344.594360,164.999710 394.688690,164.999710 445.182068,164.999710 
	C445.182068,144.687180 445.182068,124.945686 445.182068,104.999702 
	C447.394318,104.999702 449.206940,104.999702 451.019562,104.999702 
	C510.184662,104.999702 569.349731,104.999710 628.514832,104.999702 
	C639.514526,104.999702 650.514282,105.019066 661.513855,104.987999 
	C664.892090,104.978462 664.891907,104.915230 664.413330,100.845688 
	C591.386230,100.845688 518.310730,100.845688 444.836090,100.845688 
	C444.836090,80.703804 444.836090,60.962326 444.836090,41.283653 
	C310.032013,41.283653 175.629364,41.283653 41.287140,41.283653 
	C41.287140,82.638885 41.287140,123.710121 41.287140,164.999710 
	C125.549194,164.999710 209.524597,164.999710 294.500000,164.999710 
M741.366394,120.073357 
	C746.491577,121.705620 750.725281,120.347565 753.454163,116.195847 
	C756.569275,111.456535 756.323181,103.020317 752.945068,98.742508 
	C749.765686,94.716347 745.783081,94.249924 738.321289,97.233101 
	C738.321289,93.488808 738.321289,89.893700 738.321289,86.298584 
	C737.842346,86.017937 737.363342,85.737289 736.884399,85.456635 
	C736.005920,86.568573 734.385193,87.666901 734.364441,88.794571 
	C734.170044,99.398125 734.249023,110.006699 734.249023,121.802551 
	C736.013916,120.686661 736.936096,119.868896 738.011963,119.503151 
	C738.771057,119.245102 739.738586,119.600250 741.366394,120.073357 
M847.787048,106.876595 
	C847.826721,106.379837 847.880432,105.883743 847.903748,105.386230 
	C848.109619,100.989174 850.393555,98.495537 854.807068,98.657082 
	C859.298340,98.821472 859.843811,102.157982 859.812988,105.766335 
	C859.770630,110.730133 859.802368,115.694565 859.802368,121.022110 
	C861.277527,120.876213 862.457581,120.759506 863.775269,120.629189 
	C863.775269,114.572128 863.932190,108.929001 863.733948,103.298378 
	C863.506470,96.836494 858.378418,93.411980 852.366028,95.539146 
	C850.975952,96.030952 849.703186,96.853996 848.716431,97.352760 
	C847.243530,96.384872 845.899780,95.501862 843.802734,94.123817 
	C843.802734,96.828461 843.802795,98.296638 843.802795,99.764809 
	C843.802795,106.726059 843.802734,113.687309 843.802734,121.006409 
	C845.258301,120.874741 846.441223,120.767738 847.778931,120.646729 
	C847.778931,116.087364 847.778931,111.944885 847.787048,106.876595 
M809.151917,100.899498 
	C811.733582,100.318886 814.752197,98.672493 816.758728,99.494972 
	C818.362854,100.152519 819.323120,103.762436 819.531372,106.152397 
	C819.948425,110.939140 819.655151,115.787781 819.655151,120.979225 
	C821.100769,120.868027 822.278931,120.777405 823.587952,120.676712 
	C823.587952,114.432442 823.817200,108.599480 823.525085,102.792755 
	C823.216736,96.664337 817.971924,93.450745 812.159180,95.531387 
	C810.776306,96.026375 809.494751,96.804321 808.765564,97.159973 
	C807.028503,96.209686 805.638184,95.449097 803.905212,94.501053 
	C803.905212,103.905891 803.905212,112.337173 803.905212,120.768448 
	C804.369019,121.019890 804.832764,121.271332 805.296570,121.522774 
	C806.071533,120.338326 807.394409,119.211754 807.526672,117.959427 
	C808.099548,112.534943 808.324524,107.073708 809.151917,100.899498 
M699.579651,113.032547 
	C698.369507,112.877419 697.159363,112.722282 695.635681,112.526955 
	C698.053894,121.086411 707.846924,123.824112 713.580688,118.310875 
	C717.471375,114.569725 716.445312,109.055145 711.356873,107.080231 
	C708.897278,106.125633 706.160889,105.847466 703.765015,104.779922 
	C702.336670,104.143456 701.325867,102.569954 700.127319,101.417679 
	C701.532043,100.475922 702.976379,98.717140 704.332336,98.782738 
	C706.397522,98.882652 708.418518,100.207184 710.425415,101.086708 
	C711.660095,101.627808 712.833435,102.308640 714.814514,103.328255 
	C714.287720,97.820663 711.614136,95.541183 708.188416,95.488762 
	C704.795349,95.436836 700.809082,96.075157 698.113098,97.917847 
	C694.527283,100.368820 695.676575,105.767387 699.739441,107.761803 
	C701.941467,108.842751 704.575684,109.046829 706.769958,110.138748 
	C708.597961,111.048386 710.068665,112.675980 711.697632,113.985573 
	C709.559692,115.121117 707.440979,117.084343 705.277832,117.134552 
	C703.495422,117.175934 701.660400,114.950699 699.579651,113.032547 
M680.606384,98.594154 
	C684.958374,98.609406 686.309753,101.185913 686.257202,105.084152 
	C686.199036,109.403648 686.349243,113.727768 686.215088,118.043846 
	C686.112793,121.333145 687.589661,121.580292 690.225403,120.538620 
	C690.225403,114.609459 690.388672,108.792503 690.180603,102.988869 
	C689.962708,96.913147 684.789124,93.485725 679.037903,95.435562 
	C677.504456,95.955421 676.098450,96.851212 675.589600,97.102493 
	C673.567749,96.122520 672.228394,95.473358 670.248474,94.513718 
	C670.248474,103.143364 670.331055,110.609985 670.210938,118.073349 
	C670.157104,121.419945 671.664856,121.504776 674.306885,120.547363 
	C674.306885,115.579140 674.215210,110.763054 674.337097,105.952370 
	C674.428223,102.355370 675.629578,99.397690 680.606384,98.594154 
M782.604126,109.253067 
	C782.906311,103.560097 781.629333,98.594681 775.916016,96.016884 
	C769.623962,93.177986 762.620544,96.147606 760.415710,102.427353 
	C757.535461,110.630753 761.065613,118.849091 768.262512,120.694801 
	C775.254822,122.488060 780.983154,118.239670 782.604126,109.253067 
M831.688660,94.601440 
	C831.688660,103.337845 831.688660,112.074242 831.688660,120.810646 
	C832.187439,121.086365 832.686279,121.362076 833.185059,121.637794 
	C834.093384,120.631027 835.773010,119.638000 835.791199,118.615356 
	C835.983154,107.839279 835.909973,97.058472 835.909973,85.969376 
	C834.240356,86.103363 833.037109,86.199928 831.688660,86.308151 
	C831.688660,88.996681 831.688660,91.318520 831.688660,94.601440 
M787.652283,109.474983 
	C787.652283,113.235321 787.652283,116.995659 787.652283,120.755997 
	C788.175354,121.012123 788.698486,121.268242 789.221558,121.524361 
	C790.019836,120.365349 791.419434,119.250755 791.508850,118.039391 
	C791.837585,113.589081 791.560730,109.095848 791.842529,104.639694 
	C792.070007,101.042313 793.228271,98.093887 797.950012,98.756828 
	C798.785034,98.874077 799.821960,97.553162 800.765686,96.896370 
	C800.596680,96.546242 800.427673,96.196121 800.258667,95.845993 
	C796.143311,95.845993 792.027954,95.845993 787.652283,95.845993 
	C787.652283,99.891609 787.652283,104.191902 787.652283,109.474983 
M722.877075,120.851357 
	C727.462524,121.984184 727.357117,119.447037 726.657898,116.344398 
	C722.574890,114.952644 721.778259,116.874466 722.877075,120.851357 
M722.230347,99.356369 
	C723.616821,100.035500 725.003296,100.714630 727.202820,101.791992 
	C726.912842,98.867294 726.773926,97.466728 726.635071,96.066162 
	C726.226501,95.799820 725.817871,95.533478 725.409241,95.267143 
	C724.346558,96.344719 723.283875,97.422302 722.230347,99.356369 
z"/>
<path fill="#010101" opacity="1.000000" stroke="none" 
	d="
M1031.000000,105.002312 
	C976.854431,105.002312 923.208862,105.002312 869.350586,105.002312 
	C868.719604,102.414459 868.575195,100.568428 872.013672,100.979866 
	C872.999573,101.097832 874.011536,100.997704 875.011536,100.997704 
	C949.344421,100.997688 1023.677246,100.997688 1098.010132,100.997688 
	C1099.840942,100.997688 1101.671753,100.997688 1104.179077,100.997688 
	C1100.934082,94.368378 1097.854614,88.077286 1094.189575,80.589920 
	C1109.081055,88.016014 1122.777344,94.846001 1136.971680,101.924431 
	C1136.971680,81.385872 1136.971680,61.467049 1136.971680,41.274147 
	C1271.697266,41.274147 1406.103271,41.274147 1540.785522,41.274147 
	C1540.785522,82.325676 1540.785522,123.394562 1540.785522,164.733185 
	C1406.398315,164.733185 1271.988403,164.733185 1137.094116,164.733185 
	C1137.094116,144.709808 1137.094116,124.671188 1137.094116,103.957573 
	C1122.804199,111.108376 1109.171143,117.930489 1094.236450,125.403931 
	C1097.791748,118.115005 1100.831543,111.882835 1104.187622,105.002312 
	C1079.620728,105.002312 1055.560425,105.002312 1031.000000,105.002312 
M1424.500000,160.999268 
	C1461.935547,160.999268 1499.371094,160.999268 1536.781982,160.999268 
	C1536.781982,122.060432 1536.781982,83.660080 1536.781982,45.272724 
	C1404.771606,45.272724 1273.037476,45.272724 1141.309814,45.272724 
	C1141.309814,83.945763 1141.309814,122.346138 1141.309814,160.999268 
	C1235.559692,160.999268 1329.529907,160.999268 1424.500000,160.999268 
z"/>
<path fill="#000000" opacity="1.000000" stroke="none" 
	d="
M294.000000,164.999710 
	C209.524597,164.999710 125.549194,164.999710 41.287140,164.999710 
	C41.287140,123.710121 41.287140,82.638885 41.287140,41.283653 
	C175.629364,41.283653 310.032013,41.283653 444.836090,41.283653 
	C444.836090,60.962326 444.836090,80.703804 444.836090,100.845688 
	C518.310730,100.845688 591.386230,100.845688 664.413330,100.845688 
	C664.891907,104.915230 664.892090,104.978462 661.513855,104.987999 
	C650.514282,105.019066 639.514526,104.999702 628.514832,104.999702 
	C569.349731,104.999710 510.184662,104.999702 451.019562,104.999702 
	C449.206940,104.999702 447.394318,104.999702 445.182068,104.999702 
	C445.182068,124.945686 445.182068,144.687180 445.182068,164.999710 
	C394.688690,164.999710 344.594360,164.999710 294.000000,164.999710 
M441.002594,134.500000 
	C441.002594,104.738060 441.002594,74.976120 441.002594,45.283974 
	C308.691895,45.283974 176.956589,45.283974 45.285999,45.283974 
	C45.285999,83.974701 45.285999,122.379356 45.285999,160.715988 
	C177.308945,160.715988 309.044281,160.715988 440.730133,160.715988 
	C440.855103,160.121429 440.977051,159.810181 440.977692,159.498703 
	C440.993683,151.499146 440.997070,143.499573 441.002594,134.500000 
z"/>
<path fill="#1B1B1B" opacity="1.000000" stroke="none" 
	d="
M740.989746,119.877487 
	C739.738586,119.600250 738.771057,119.245102 738.011963,119.503151 
	C736.936096,119.868896 736.013916,120.686661 734.249023,121.802551 
	C734.249023,110.006699 734.170044,99.398125 734.364441,88.794571 
	C734.385193,87.666901 736.005920,86.568573 736.884399,85.456635 
	C737.363342,85.737289 737.842346,86.017937 738.321289,86.298584 
	C738.321289,89.893700 738.321289,93.488808 738.321289,97.233101 
	C745.783081,94.249924 749.765686,94.716347 752.945068,98.742508 
	C756.323181,103.020317 756.569275,111.456535 753.454163,116.195847 
	C750.725281,120.347565 746.491577,121.705620 740.989746,119.877487 
M751.344604,110.704811 
	C751.320312,108.736938 751.512085,106.736954 751.225342,104.808105 
	C750.681458,101.149361 748.641663,98.556763 744.718689,98.636284 
	C740.852844,98.714661 738.886658,101.379784 738.187134,104.950607 
	C737.905029,106.390732 737.866394,107.915260 737.961792,109.385498 
	C738.213257,113.263870 739.331604,116.779343 743.849792,117.312141 
	C748.004578,117.802094 750.205017,115.273666 751.344604,110.704811 
z"/>
<path fill="#181818" opacity="1.000000" stroke="none" 
	d="
M847.782959,107.339508 
	C847.778931,111.944885 847.778931,116.087364 847.778931,120.646729 
	C846.441223,120.767738 845.258301,120.874741 843.802734,121.006409 
	C843.802734,113.687309 843.802795,106.726059 843.802795,99.764809 
	C843.802795,98.296638 843.802734,96.828461 843.802734,94.123817 
	C845.899780,95.501862 847.243530,96.384872 848.716431,97.352760 
	C849.703186,96.853996 850.975952,96.030952 852.366028,95.539146 
	C858.378418,93.411980 863.506470,96.836494 863.733948,103.298378 
	C863.932190,108.929001 863.775269,114.572128 863.775269,120.629189 
	C862.457581,120.759506 861.277527,120.876213 859.802368,121.022110 
	C859.802368,115.694565 859.770630,110.730133 859.812988,105.766335 
	C859.843811,102.157982 859.298340,98.821472 854.807068,98.657082 
	C850.393555,98.495537 848.109619,100.989174 847.903748,105.386230 
	C847.880432,105.883743 847.826721,106.379837 847.782959,107.339508 
z"/>
<path fill="#1B1B1B" opacity="1.000000" stroke="none" 
	d="
M808.913940,101.262665 
	C808.324524,107.073708 808.099548,112.534943 807.526672,117.959427 
	C807.394409,119.211754 806.071533,120.338326 805.296570,121.522774 
	C804.832764,121.271332 804.369019,121.019890 803.905212,120.768448 
	C803.905212,112.337173 803.905212,103.905891 803.905212,94.501053 
	C805.638184,95.449097 807.028503,96.209686 808.765564,97.159973 
	C809.494751,96.804321 810.776306,96.026375 812.159180,95.531387 
	C817.971924,93.450745 823.216736,96.664337 823.525085,102.792755 
	C823.817200,108.599480 823.587952,114.432442 823.587952,120.676712 
	C822.278931,120.777405 821.100769,120.868027 819.655151,120.979225 
	C819.655151,115.787781 819.948425,110.939140 819.531372,106.152397 
	C819.323120,103.762436 818.362854,100.152519 816.758728,99.494972 
	C814.752197,98.672493 811.733582,100.318886 808.913940,101.262665 
z"/>
<path fill="#161616" opacity="1.000000" stroke="none" 
	d="
M699.714172,113.381248 
	C701.660400,114.950699 703.495422,117.175934 705.277832,117.134552 
	C707.440979,117.084343 709.559692,115.121117 711.697632,113.985580 
	C710.068665,112.675980 708.597961,111.048386 706.769958,110.138748 
	C704.575684,109.046829 701.941467,108.842751 699.739441,107.761803 
	C695.676575,105.767387 694.527283,100.368820 698.113098,97.917847 
	C700.809082,96.075157 704.795349,95.436836 708.188416,95.488762 
	C711.614136,95.541183 714.287720,97.820663 714.814514,103.328255 
	C712.833435,102.308640 711.660095,101.627808 710.425415,101.086708 
	C708.418518,100.207184 706.397522,98.882652 704.332336,98.782738 
	C702.976379,98.717140 701.532043,100.475922 700.127319,101.417694 
	C701.325867,102.569954 702.336670,104.143456 703.765015,104.779922 
	C706.160889,105.847466 708.897278,106.125633 711.356873,107.080231 
	C716.445312,109.055145 717.471375,114.569725 713.580688,118.310875 
	C707.846924,123.824112 698.053894,121.086411 695.635681,112.526955 
	C697.159363,112.722282 698.369507,112.877419 699.714172,113.381248 
z"/>
<path fill="#1B1B1B" opacity="1.000000" stroke="none" 
	d="
M680.184265,98.672226 
	C675.629578,99.397690 674.428223,102.355370 674.337097,105.952370 
	C674.215210,110.763054 674.306885,115.579140 674.306885,120.547363 
	C671.664856,121.504776 670.157104,121.419945 670.210938,118.073349 
	C670.331055,110.609985 670.248474,103.143364 670.248474,94.513718 
	C672.228394,95.473358 673.567749,96.122520 675.589600,97.102493 
	C676.098450,96.851212 677.504456,95.955421 679.037903,95.435562 
	C684.789124,93.485725 689.962708,96.913147 690.180603,102.988869 
	C690.388672,108.792503 690.225403,114.609459 690.225403,120.538620 
	C687.589661,121.580292 686.112793,121.333145 686.215088,118.043846 
	C686.349243,113.727768 686.199036,109.403648 686.257202,105.084152 
	C686.309753,101.185913 684.958374,98.609406 680.184265,98.672226 
z"/>
<path fill="#161616" opacity="1.000000" stroke="none" 
	d="
M782.586792,109.668579 
	C780.983154,118.239670 775.254822,122.488060 768.262512,120.694801 
	C761.065613,118.849091 757.535461,110.630753 760.415710,102.427353 
	C762.620544,96.147606 769.623962,93.177986 775.916016,96.016884 
	C781.629333,98.594681 782.906311,103.560097 782.586792,109.668579 
M769.821411,117.281631 
	C773.809509,117.813713 776.794800,116.274406 777.854492,112.411034 
	C779.006531,108.210953 779.402161,103.795990 775.840088,100.352806 
	C772.878174,97.489784 767.776062,98.126976 765.342651,101.427528 
	C761.827332,106.195625 763.689514,114.135651 769.821411,117.281631 
z"/>
<path fill="#111111" opacity="1.000000" stroke="none" 
	d="
M831.688660,94.120895 
	C831.688660,91.318520 831.688660,88.996681 831.688660,86.308151 
	C833.037109,86.199928 834.240356,86.103363 835.909973,85.969376 
	C835.909973,97.058472 835.983154,107.839279 835.791199,118.615356 
	C835.773010,119.638000 834.093384,120.631027 833.185059,121.637794 
	C832.686279,121.362076 832.187439,121.086365 831.688660,120.810646 
	C831.688660,112.074242 831.688660,103.337845 831.688660,94.120895 
z"/>
<path fill="#1A1A1A" opacity="1.000000" stroke="none" 
	d="
M787.652283,108.983582 
	C787.652283,104.191902 787.652283,99.891609 787.652283,95.845993 
	C792.027954,95.845993 796.143311,95.845993 800.258667,95.845993 
	C800.427673,96.196121 800.596680,96.546242 800.765686,96.896370 
	C799.821960,97.553162 798.785034,98.874077 797.950012,98.756828 
	C793.228271,98.093887 792.070007,101.042313 791.842529,104.639694 
	C791.560730,109.095848 791.837585,113.589081 791.508850,118.039391 
	C791.419434,119.250755 790.019836,120.365349 789.221558,121.524361 
	C788.698486,121.268242 788.175354,121.012123 787.652283,120.755997 
	C787.652283,116.995659 787.652283,113.235321 787.652283,108.983582 
z"/>
<path fill="#242424" opacity="1.000000" stroke="none" 
	d="
M722.594604,120.526520 
	C721.778259,116.874466 722.574890,114.952644 726.657898,116.344398 
	C727.357117,119.447037 727.462524,121.984184 722.594604,120.526520 
z"/>
<path fill="#242424" opacity="1.000000" stroke="none" 
	d="
M722.225708,98.928123 
	C723.283875,97.422302 724.346558,96.344719 725.409241,95.267143 
	C725.817871,95.533478 726.226501,95.799820 726.635071,96.066162 
	C726.773926,97.466728 726.912842,98.867294 727.202820,101.791992 
	C725.003296,100.714630 723.616821,100.035500 722.225708,98.928123 
z"/>
<path fill="#FEFEFE" opacity="1.000000" stroke="none" 
	d="
M1424.000000,160.999268 
	C1329.529907,160.999268 1235.559692,160.999268 1141.309814,160.999268 
	C1141.309814,122.346138 1141.309814,83.945763 1141.309814,45.272724 
	C1273.037476,45.272724 1404.771606,45.272724 1536.781982,45.272724 
	C1536.781982,83.660080 1536.781982,122.060432 1536.781982,160.999268 
	C1499.371094,160.999268 1461.935547,160.999268 1424.000000,160.999268 
M1430.109497,91.476883 
	C1425.577393,91.476883 1421.045166,91.476883 1416.278320,91.476883 
	C1416.278320,92.587029 1416.278442,93.570320 1416.278442,94.553612 
	C1416.278564,101.018356 1416.371216,107.485001 1416.239014,113.947044 
	C1416.174072,117.119270 1417.503662,117.624565 1420.315674,116.583153 
	C1420.315674,112.914330 1420.312012,109.275078 1420.316406,105.635841 
	C1420.328247,95.732033 1420.750244,95.261543 1431.167114,94.345604 
	C1433.435303,100.594017 1435.723755,106.835167 1437.966187,113.092857 
	C1440.286987,119.569534 1438.752686,122.230568 1431.021362,123.615868 
	C1432.359741,125.024323 1433.790527,127.022255 1434.162476,126.841446 
	C1436.524902,125.693382 1439.806885,124.549362 1440.664307,122.511497 
	C1444.948608,112.328133 1448.576782,101.868706 1452.615356,91.023682 
	C1445.851807,90.796661 1447.302490,96.376137 1445.768066,99.318840 
	C1443.996948,102.715508 1443.083374,106.559326 1441.345825,111.490753 
	C1439.002808,104.699265 1437.016235,99.279396 1435.290039,93.777779 
	C1434.551880,91.425087 1433.479614,90.335335 1430.109497,91.476883 
M1287.523682,98.626907 
	C1287.918945,101.247826 1288.003296,103.963692 1288.769043,106.471428 
	C1290.854248,113.299789 1295.717285,116.808167 1302.843750,117.036110 
	C1309.879639,117.261162 1314.651611,114.019760 1317.316650,107.168190 
	C1317.409302,106.929871 1317.205322,106.576096 1317.103271,106.110725 
	C1315.944336,105.860001 1314.721069,105.595375 1313.593506,105.351440 
	C1310.316162,112.015808 1306.927979,113.985260 1300.909912,112.972595 
	C1295.824463,112.116875 1292.587769,108.243782 1292.234619,101.742584 
	C1292.067017,98.655510 1292.404297,95.380875 1293.307617,92.434967 
	C1294.522461,88.473289 1297.637817,86.310295 1301.890747,85.934769 
	C1305.977783,85.573891 1309.778809,86.198349 1311.631226,90.277275 
	C1313.116211,93.547287 1314.743896,92.812752 1318.243408,90.517204 
	C1314.606567,87.671356 1311.848022,84.313248 1308.323853,82.981956 
	C1298.084839,79.113991 1288.976685,85.932167 1287.523682,98.626907 
M1369.276245,91.296623 
	C1368.075806,91.296623 1366.875366,91.296623 1365.180542,91.296623 
	C1365.180542,97.201218 1365.444092,102.695732 1365.090210,108.150169 
	C1364.843262,111.956917 1361.927612,113.492867 1358.364136,113.306755 
	C1354.798462,113.120537 1353.681641,110.659050 1353.692261,107.434052 
	C1353.706909,102.938889 1353.586792,98.440483 1353.722046,93.949417 
	C1353.823120,90.589355 1352.230591,90.463760 1349.696655,91.403389 
	C1349.696655,97.485481 1349.429565,103.476433 1349.771240,109.432465 
	C1350.117676,115.472885 1355.613892,118.599632 1361.293335,116.333275 
	C1362.640259,115.795776 1363.879517,114.988083 1364.568237,114.622856 
	C1366.212280,115.652885 1367.542725,116.486427 1369.634399,117.796913 
	C1369.634399,108.398964 1369.634399,100.259148 1369.276245,91.296623 
M1380.386475,101.804771 
	C1380.627441,97.326950 1382.688721,94.376152 1387.453735,94.687546 
	C1392.716064,95.031448 1392.268188,99.216179 1392.286377,102.893738 
	C1392.304443,106.546150 1392.416504,110.204391 1392.252563,113.849503 
	C1392.112671,116.958336 1393.346191,117.706253 1396.294189,116.572647 
	C1396.294189,110.803764 1396.444702,104.995415 1396.254395,99.198257 
	C1396.037231,92.586647 1390.606323,89.242683 1384.392456,91.719513 
	C1383.044312,92.256828 1381.771851,92.983345 1381.451538,93.139954 
	C1379.491089,92.078789 1378.252441,91.408348 1376.503662,90.461754 
	C1376.503662,99.865837 1376.503662,108.284485 1376.503662,116.847572 
	C1377.831421,116.847572 1378.945923,116.847572 1380.023926,116.847572 
	C1380.135620,116.329865 1380.264282,116.007210 1380.265991,115.683861 
	C1380.289795,111.367432 1380.295776,107.050919 1380.386475,101.804771 
M1244.279663,103.683304 
	C1244.279175,102.350052 1244.321045,101.015213 1244.271362,99.683800 
	C1244.002319,92.474518 1238.407593,88.971962 1231.839844,91.925552 
	C1230.652222,92.459641 1229.561523,93.209641 1229.508667,93.239944 
	C1227.548706,92.142334 1226.276611,91.429993 1224.273926,90.308456 
	C1224.273926,99.045815 1224.352051,106.534531 1224.237793,114.020317 
	C1224.187866,117.285416 1225.588013,117.603325 1228.442139,116.465553 
	C1228.442139,111.267281 1228.273560,106.101280 1228.495239,100.952087 
	C1228.673706,96.804840 1231.152832,94.502869 1235.339478,94.662804 
	C1239.538330,94.823196 1240.313721,97.823410 1240.286011,101.330910 
	C1240.245605,106.462532 1240.275635,111.594711 1240.275635,116.824387 
	C1241.849121,116.824387 1242.957520,116.824387 1244.279663,116.824387 
	C1244.279663,112.614052 1244.279663,108.621254 1244.279663,103.683304 
M1331.000122,91.135216 
	C1329.760010,91.598160 1328.427368,91.900185 1327.295532,92.551323 
	C1321.805420,95.709625 1321.321899,100.963158 1321.807007,106.464569 
	C1322.259399,111.594772 1324.877563,115.196297 1329.996094,116.563362 
	C1334.765015,117.837067 1339.110596,116.696465 1342.071655,112.794640 
	C1345.694458,108.020905 1345.655273,102.477516 1343.295654,97.185707 
	C1341.152466,92.379204 1336.888672,90.750130 1331.000122,91.135216 
M1250.284668,96.912949 
	C1249.740356,104.389023 1255.933594,104.183029 1260.470825,106.097130 
	C1262.433472,106.925117 1263.969482,108.764885 1265.699219,110.145081 
	C1263.354370,111.188148 1261.065674,112.821114 1258.643433,113.051521 
	C1257.206055,113.188263 1255.589722,111.064667 1253.994019,110.051514 
	C1252.878784,109.343307 1251.662354,108.794357 1249.623535,107.715042 
	C1250.359985,113.557159 1252.920044,116.433876 1256.822876,116.476295 
	C1260.521240,116.516495 1264.892822,115.817101 1267.789429,113.772675 
	C1271.910889,110.863708 1270.334717,105.022987 1265.456421,103.112297 
	C1263.001709,102.150856 1260.274902,101.852608 1257.877197,100.789520 
	C1256.437256,100.151054 1255.394287,98.616699 1254.172974,97.484985 
	C1255.720581,96.514908 1257.262207,94.782967 1258.817139,94.771103 
	C1260.684570,94.756851 1262.561523,96.212029 1264.437744,97.022652 
	C1265.733154,97.582283 1267.034668,98.127846 1269.096924,99.004112 
	C1267.803589,92.809357 1264.348511,91.324257 1260.327881,91.049118 
	C1256.153320,90.763451 1252.357056,91.747559 1250.284668,96.912949 
M1407.982666,109.122292 
	C1407.982666,104.474052 1407.982666,99.825813 1407.982666,95.748489 
	C1409.662231,94.563828 1410.871094,93.711212 1412.079956,92.858597 
	C1410.860474,91.913498 1409.640991,90.968399 1408.083374,89.761246 
	C1408.005127,88.209694 1407.899048,86.106094 1407.792847,84.002502 
	C1407.373047,83.803871 1406.953125,83.605240 1406.533325,83.406609 
	C1405.690186,84.830223 1404.888672,86.280579 1403.995361,87.671989 
	C1401.933228,90.884407 1400.418335,94.023232 1403.943481,97.326363 
	C1404.359253,97.715981 1404.001587,98.931595 1404.001587,99.764305 
	C1404.001953,103.095146 1403.971924,106.426315 1404.008545,109.756760 
	C1404.078857,116.144806 1405.613281,117.402069 1413.381836,116.499641 
	C1412.092896,115.051163 1411.192627,114.093018 1410.354858,113.083031 
	C1409.532227,112.091133 1408.772949,111.046539 1407.982666,109.122292 
M1276.274170,115.352196 
	C1277.655640,116.031136 1279.036987,116.710075 1281.232300,117.789024 
	C1280.943481,114.866096 1280.805176,113.467796 1280.666992,112.069489 
	C1280.260742,111.803658 1279.854492,111.537827 1279.448242,111.271988 
	C1278.386963,112.347977 1277.325562,113.423965 1276.274170,115.352196 
M1278.626221,97.064270 
	C1282.995117,96.719193 1280.358887,93.972656 1280.838257,91.430618 
	C1278.894531,92.095802 1277.618042,92.532623 1276.341675,92.969475 
	C1276.816528,94.327209 1277.291382,95.684944 1278.626221,97.064270 
z"/>
<path fill="#FEFEFE" opacity="1.000000" stroke="none" 
	d="
M441.002594,135.000000 
	C440.997070,143.499573 440.993683,151.499146 440.977692,159.498703 
	C440.977051,159.810181 440.855103,160.121429 440.730133,160.715988 
	C309.044281,160.715988 177.308945,160.715988 45.285999,160.715988 
	C45.285999,122.379356 45.285999,83.974701 45.285999,45.283974 
	C176.956589,45.283974 308.691895,45.283974 441.002594,45.283974 
	C441.002594,74.976120 441.002594,104.738060 441.002594,135.000000 
M207.748184,103.013458 
	C211.395294,102.826569 215.109711,103.011314 218.673767,102.365837 
	C224.046158,101.392876 226.908539,97.415100 226.801285,92.041153 
	C226.695282,86.729378 223.595963,82.848663 217.992554,82.345490 
	C212.423935,81.845436 206.775345,82.235977 201.066589,82.235977 
	C201.066589,93.864395 201.066589,105.272545 201.066589,116.988029 
	C202.540955,116.898796 203.759415,116.825050 205.167374,116.739830 
	C205.167374,112.931137 205.046906,109.442192 205.242615,105.971077 
	C205.299500,104.962349 206.260727,104.004623 207.748184,103.013458 
M233.988663,113.469223 
	C241.774033,119.665733 250.051254,117.767296 253.347336,107.607712 
	C251.109726,108.652214 249.339005,108.905731 248.653656,109.904221 
	C246.436890,113.133797 243.601700,114.191772 240.065170,112.928825 
	C236.556564,111.675850 235.112930,108.925461 235.346542,104.846680 
	C241.445374,104.846680 247.363052,104.846680 253.255417,104.846680 
	C253.480026,97.953133 251.616837,94.086792 247.140335,92.078812 
	C242.591187,90.038261 238.340210,90.743958 234.673706,94.041214 
	C230.132095,98.125488 229.702087,106.238388 233.988663,113.469223 
M325.642303,109.362976 
	C325.642303,111.817703 325.642303,114.272430 325.642303,116.727158 
	C326.150146,116.990829 326.657990,117.254501 327.165833,117.518173 
	C327.974915,116.365730 329.391113,115.260277 329.484619,114.052460 
	C329.830627,109.582588 329.613770,105.072243 329.851044,100.589943 
	C330.064331,96.561295 332.610229,94.584595 336.457092,94.636818 
	C340.583344,94.692856 341.635437,97.588493 341.637726,101.132034 
	C341.641083,106.283592 341.638580,111.435158 341.638580,116.959732 
	C343.075195,116.859413 344.248444,116.777481 345.560791,116.685829 
	C345.560791,110.454880 345.784210,104.627853 345.499664,98.825745 
	C345.198639,92.686752 339.986542,89.455231 334.177368,91.518562 
	C332.792206,92.010559 331.511932,92.797890 330.698669,93.196701 
	C329.038574,92.250694 327.647339,91.457886 325.642334,90.315338 
	C325.642334,97.090271 325.642334,102.745193 325.642303,109.362976 
M136.277634,92.145332 
	C136.264664,99.459480 136.335770,106.775177 136.201431,114.087097 
	C136.139252,117.471214 137.701050,117.447632 140.535767,116.467728 
	C140.535767,110.896751 140.286407,105.406380 140.621613,99.951935 
	C140.853180,96.183670 143.676422,94.522690 147.248825,94.637718 
	C151.037811,94.759712 152.259933,97.294075 152.236755,100.739792 
	C152.206558,105.227913 152.058884,109.728325 152.359589,114.196678 
	C152.437912,115.360252 153.994293,116.424362 154.871796,117.534157 
	C155.315643,117.251389 155.759476,116.968620 156.203308,116.685852 
	C156.203308,110.727837 156.390762,104.762276 156.150970,98.813934 
	C155.907471,92.773193 150.601593,89.444809 144.851288,91.521095 
	C143.321793,92.073357 141.930618,93.008667 141.725433,93.115784 
	C139.329498,92.284531 137.954941,91.807640 136.277634,92.145332 
M314.100006,92.050255 
	C312.822540,91.704155 311.564301,91.191116 310.264221,91.041458 
	C305.204926,90.459068 300.524658,93.233673 298.660522,97.793732 
	C296.306976,103.550995 297.680359,111.151199 301.667664,114.435303 
	C305.586548,117.663048 311.187042,117.905273 315.619690,115.038750 
	C322.797180,110.397217 322.359863,98.255318 314.100006,92.050255 
M178.460495,115.166656 
	C183.929642,109.713013 182.948532,105.013359 175.818573,102.641815 
	C173.936874,102.015930 171.870514,101.784378 170.152863,100.873878 
	C168.615524,100.058952 167.441650,98.558319 166.107422,97.360222 
	C167.857605,96.419838 169.580170,94.808815 171.366028,94.735329 
	C173.017944,94.667351 174.736282,96.248306 176.427872,97.098068 
	C177.638031,97.705971 178.852325,98.305611 181.075653,99.411964 
	C178.444687,90.938828 169.395004,88.505539 164.281525,93.381592 
	C160.901611,96.604568 161.511078,101.693230 165.750076,103.775284 
	C167.950012,104.855820 170.586960,105.050446 172.778702,106.142563 
	C174.603134,107.051659 176.065826,108.686722 177.688736,110.000229 
	C175.547714,111.132133 173.464249,112.982071 171.246719,113.159866 
	C169.589279,113.292770 167.780273,111.230606 165.997986,110.217575 
	C164.797073,109.534996 163.525131,108.977356 162.284973,108.363823 
	C164.340790,116.851364 169.169952,118.645813 178.460495,115.166656 
M287.728210,106.997620 
	C290.393738,110.078079 290.102234,111.998489 286.593414,112.980957 
	C283.167114,113.940315 280.074615,113.610115 277.877655,110.130142 
	C277.257507,109.147865 275.638794,108.796043 273.395752,107.557388 
	C274.410065,113.466736 276.835419,116.475769 280.794861,116.486572 
	C284.506927,116.496704 288.862000,115.759216 291.782043,113.709457 
	C295.740631,110.930687 294.303925,105.157913 289.734192,103.250351 
	C287.297791,102.233307 284.538849,101.962112 282.152100,100.862450 
	C280.596222,100.145615 279.447693,98.544647 278.116699,97.339752 
	C279.712463,96.408272 281.320038,94.717857 282.900909,94.742485 
	C284.766266,94.771553 286.607513,96.286240 288.461090,97.152885 
	C289.696106,97.730301 290.934326,98.300804 293.148865,99.327881 
	C290.633545,91.815399 284.572968,89.081734 278.771423,92.070328 
	C276.752594,93.110321 274.511444,95.878998 274.442047,97.928261 
	C274.374298,99.930084 276.533478,102.663338 278.466644,103.910683 
	C280.881134,105.468567 284.063873,105.835793 287.728210,106.997620 
M259.070251,92.986389 
	C259.069244,99.946815 259.166199,106.909271 259.022278,113.866737 
	C258.958557,116.947449 260.136810,117.565933 263.168640,116.572060 
	C263.168640,111.359367 262.948639,106.235512 263.243378,101.141434 
	C263.451508,97.544518 264.301422,94.057022 269.435974,94.767494 
	C270.284393,94.884895 271.331848,93.563881 272.287323,92.907608 
	C272.050446,92.281242 271.813568,91.654884 271.576660,91.028519 
	C268.762207,91.485260 265.947754,91.942001 263.133301,92.398743 
	C263.121857,92.154381 263.110382,91.910019 263.098907,91.665657 
	C261.767334,91.807083 260.435730,91.948517 259.070251,92.986389 
M192.291550,112.123016 
	C187.781357,111.106628 187.711990,113.491371 188.601517,116.746124 
	C192.594040,117.970650 193.374573,116.041367 192.291550,112.123016 
M188.298157,96.207024 
	C189.733093,96.498932 191.168045,96.790840 193.027527,97.169113 
	C192.874359,94.965561 192.776657,93.560112 192.684341,92.231941 
	C189.599396,91.464737 187.716843,91.861877 188.298157,96.207024 
z"/>
<path fill="#F4F4F4" opacity="1.000000" stroke="none" 
	d="
M751.264404,111.092682 
	C750.205017,115.273666 748.004578,117.802094 743.849792,117.312141 
	C739.331604,116.779343 738.213257,113.263870 737.961792,109.385498 
	C737.866394,107.915260 737.905029,106.390732 738.187134,104.950607 
	C738.886658,101.379784 740.852844,98.714661 744.718689,98.636284 
	C748.641663,98.556763 750.681458,101.149361 751.225342,104.808105 
	C751.512085,106.736954 751.320312,108.736938 751.264404,111.092682 
z"/>
<path fill="#F4F4F4" opacity="1.000000" stroke="none" 
	d="
M769.418091,117.182983 
	C763.689514,114.135651 761.827332,106.195625 765.342651,101.427528 
	C767.776062,98.126976 772.878174,97.489784 775.840088,100.352806 
	C779.402161,103.795990 779.006531,108.210953 777.854492,112.411034 
	C776.794800,116.274406 773.809509,117.813713 769.418091,117.182983 
z"/>
<path fill="#161616" opacity="1.000000" stroke="none" 
	d="
M1287.583496,98.218323 
	C1288.976685,85.932167 1298.084839,79.113991 1308.323853,82.981956 
	C1311.848022,84.313248 1314.606567,87.671356 1318.243408,90.517204 
	C1314.743896,92.812752 1313.116211,93.547287 1311.631226,90.277275 
	C1309.778809,86.198349 1305.977783,85.573891 1301.890747,85.934769 
	C1297.637817,86.310295 1294.522461,88.473289 1293.307617,92.434967 
	C1292.404297,95.380875 1292.067017,98.655510 1292.234619,101.742584 
	C1292.587769,108.243782 1295.824463,112.116875 1300.909912,112.972595 
	C1306.927979,113.985260 1310.316162,112.015808 1313.593506,105.351440 
	C1314.721069,105.595375 1315.944336,105.860001 1317.103271,106.110725 
	C1317.205322,106.576096 1317.409302,106.929871 1317.316650,107.168190 
	C1314.651611,114.019760 1309.879639,117.261162 1302.843750,117.036110 
	C1295.717285,116.808167 1290.854248,113.299789 1288.769043,106.471428 
	C1288.003296,103.963692 1287.918945,101.247826 1287.583496,98.218323 
z"/>
<path fill="#1F1F1F" opacity="1.000000" stroke="none" 
	d="
M1369.455322,91.707977 
	C1369.634399,100.259148 1369.634399,108.398964 1369.634399,117.796913 
	C1367.542725,116.486427 1366.212280,115.652885 1364.568237,114.622856 
	C1363.879517,114.988083 1362.640259,115.795776 1361.293335,116.333275 
	C1355.613892,118.599632 1350.117676,115.472885 1349.771240,109.432465 
	C1349.429565,103.476433 1349.696655,97.485481 1349.696655,91.403389 
	C1352.230591,90.463760 1353.823120,90.589355 1353.722046,93.949417 
	C1353.586792,98.440483 1353.706909,102.938889 1353.692261,107.434052 
	C1353.681641,110.659050 1354.798462,113.120537 1358.364136,113.306755 
	C1361.927612,113.492867 1364.843262,111.956917 1365.090210,108.150169 
	C1365.444092,102.695732 1365.180542,97.201218 1365.180542,91.296623 
	C1366.875366,91.296623 1368.075806,91.296623 1369.455322,91.707977 
z"/>
<path fill="#1F1F1F" opacity="1.000000" stroke="none" 
	d="
M1380.346313,102.269592 
	C1380.295776,107.050919 1380.289795,111.367432 1380.265991,115.683861 
	C1380.264282,116.007210 1380.135620,116.329865 1380.023926,116.847572 
	C1378.945923,116.847572 1377.831421,116.847572 1376.503662,116.847572 
	C1376.503662,108.284485 1376.503662,99.865837 1376.503662,90.461754 
	C1378.252441,91.408348 1379.491089,92.078789 1381.451538,93.139954 
	C1381.771851,92.983345 1383.044312,92.256828 1384.392456,91.719513 
	C1390.606323,89.242683 1396.037231,92.586647 1396.254395,99.198257 
	C1396.444702,104.995415 1396.294189,110.803764 1396.294189,116.572647 
	C1393.346191,117.706253 1392.112671,116.958336 1392.252563,113.849503 
	C1392.416504,110.204391 1392.304443,106.546150 1392.286377,102.893738 
	C1392.268188,99.216179 1392.716064,95.031448 1387.453735,94.687546 
	C1382.688721,94.376152 1380.627441,97.326950 1380.346313,102.269592 
z"/>
<path fill="#1F1F1F" opacity="1.000000" stroke="none" 
	d="
M1244.279663,104.155876 
	C1244.279663,108.621254 1244.279663,112.614052 1244.279663,116.824387 
	C1242.957520,116.824387 1241.849121,116.824387 1240.275635,116.824387 
	C1240.275635,111.594711 1240.245605,106.462532 1240.286011,101.330910 
	C1240.313721,97.823410 1239.538330,94.823196 1235.339478,94.662804 
	C1231.152832,94.502869 1228.673706,96.804840 1228.495239,100.952087 
	C1228.273560,106.101280 1228.442139,111.267281 1228.442139,116.465553 
	C1225.588013,117.603325 1224.187866,117.285416 1224.237793,114.020317 
	C1224.352051,106.534531 1224.273926,99.045815 1224.273926,90.308456 
	C1226.276611,91.429993 1227.548706,92.142334 1229.508667,93.239944 
	C1229.561523,93.209641 1230.652222,92.459641 1231.839844,91.925552 
	C1238.407593,88.971962 1244.002319,92.474518 1244.271362,99.683800 
	C1244.321045,101.015213 1244.279175,102.350052 1244.279663,104.155876 
z"/>
<path fill="#181818" opacity="1.000000" stroke="none" 
	d="
M1331.403809,91.078232 
	C1336.888672,90.750130 1341.152466,92.379204 1343.295654,97.185707 
	C1345.655273,102.477516 1345.694458,108.020905 1342.071655,112.794640 
	C1339.110596,116.696465 1334.765015,117.837067 1329.996094,116.563362 
	C1324.877563,115.196297 1322.259399,111.594772 1321.807007,106.464569 
	C1321.321899,100.963158 1321.805420,95.709625 1327.295532,92.551323 
	C1328.427368,91.900185 1329.760010,91.598160 1331.403809,91.078232 
M1339.560913,98.460373 
	C1337.482056,94.969162 1334.409058,93.728760 1330.639526,95.080383 
	C1325.967285,96.755692 1325.668823,100.842873 1325.794067,104.988220 
	C1325.908203,108.757988 1327.116699,111.870308 1331.113403,113.080391 
	C1335.152588,114.303345 1339.104248,112.329140 1339.927612,108.100143 
	C1340.480469,105.261208 1339.940063,102.209396 1339.560913,98.460373 
z"/>
<path fill="#181818" opacity="1.000000" stroke="none" 
	d="
M1250.404541,96.551437 
	C1252.357056,91.747559 1256.153320,90.763451 1260.327881,91.049118 
	C1264.348511,91.324257 1267.803589,92.809357 1269.096924,99.004112 
	C1267.034668,98.127846 1265.733154,97.582283 1264.437744,97.022652 
	C1262.561523,96.212029 1260.684570,94.756851 1258.817139,94.771103 
	C1257.262207,94.782967 1255.720581,96.514908 1254.172974,97.484985 
	C1255.394287,98.616699 1256.437256,100.151054 1257.877197,100.789520 
	C1260.274902,101.852608 1263.001709,102.150856 1265.456421,103.112297 
	C1270.334717,105.022987 1271.910889,110.863708 1267.789429,113.772675 
	C1264.892822,115.817101 1260.521240,116.516495 1256.822876,116.476295 
	C1252.920044,116.433876 1250.359985,113.557159 1249.623535,107.715042 
	C1251.662354,108.794357 1252.878784,109.343307 1253.994019,110.051514 
	C1255.589722,111.064667 1257.206055,113.188263 1258.643433,113.051521 
	C1261.065674,112.821114 1263.354370,111.188148 1265.699219,110.145081 
	C1263.969482,108.764885 1262.433472,106.925117 1260.470825,106.097130 
	C1255.933594,104.183029 1249.740356,104.389023 1250.404541,96.551437 
z"/>
<path fill="#1B1B1B" opacity="1.000000" stroke="none" 
	d="
M1431.009521,91.204369 
	C1433.479614,90.335335 1434.551880,91.425087 1435.290039,93.777779 
	C1437.016235,99.279396 1439.002808,104.699265 1441.345825,111.490753 
	C1443.083374,106.559326 1443.996948,102.715508 1445.768066,99.318840 
	C1447.302490,96.376137 1445.851807,90.796661 1452.615356,91.023682 
	C1448.576782,101.868706 1444.948608,112.328133 1440.664307,122.511497 
	C1439.806885,124.549362 1436.524902,125.693382 1434.162476,126.841446 
	C1433.790527,127.022255 1432.359741,125.024323 1431.021362,123.615868 
	C1438.752686,122.230568 1440.286987,119.569534 1437.966187,113.092857 
	C1435.723755,106.835167 1433.435303,100.594017 1431.128662,93.655403 
	C1431.063354,92.378258 1431.036377,91.791313 1431.009521,91.204369 
z"/>
<path fill="#1A1A1A" opacity="1.000000" stroke="none" 
	d="
M1407.984131,109.573685 
	C1408.772949,111.046539 1409.532227,112.091133 1410.354858,113.083031 
	C1411.192627,114.093018 1412.092896,115.051163 1413.381836,116.499641 
	C1405.613281,117.402069 1404.078857,116.144806 1404.008545,109.756760 
	C1403.971924,106.426315 1404.001953,103.095146 1404.001587,99.764305 
	C1404.001587,98.931595 1404.359253,97.715981 1403.943481,97.326363 
	C1400.418335,94.023232 1401.933228,90.884407 1403.995361,87.671989 
	C1404.888672,86.280579 1405.690186,84.830223 1406.533325,83.406609 
	C1406.953125,83.605240 1407.373047,83.803871 1407.792847,84.002502 
	C1407.899048,86.106094 1408.005127,88.209694 1408.083374,89.761246 
	C1409.640991,90.968399 1410.860474,91.913498 1412.079956,92.858597 
	C1410.871094,93.711212 1409.662231,94.563828 1407.982666,95.748489 
	C1407.982666,99.825813 1407.982666,104.474052 1407.984131,109.573685 
z"/>
<path fill="#242424" opacity="1.000000" stroke="none" 
	d="
M1430.559448,91.340622 
	C1431.036377,91.791313 1431.063354,92.378258 1431.104370,93.258652 
	C1420.750244,95.261543 1420.328247,95.732033 1420.316406,105.635841 
	C1420.312012,109.275078 1420.315674,112.914330 1420.315674,116.583153 
	C1417.503662,117.624565 1416.174072,117.119270 1416.239014,113.947044 
	C1416.371216,107.485001 1416.278564,101.018356 1416.278442,94.553612 
	C1416.278442,93.570320 1416.278320,92.587029 1416.278320,91.476883 
	C1421.045166,91.476883 1425.577393,91.476883 1430.559448,91.340622 
z"/>
<path fill="#242424" opacity="1.000000" stroke="none" 
	d="
M1276.269287,114.926071 
	C1277.325562,113.423965 1278.386963,112.347977 1279.448242,111.271988 
	C1279.854492,111.537827 1280.260742,111.803658 1280.666992,112.069489 
	C1280.805176,113.467796 1280.943481,114.866096 1281.232300,117.789024 
	C1279.036987,116.710075 1277.655640,116.031136 1276.269287,114.926071 
z"/>
<path fill="#242424" opacity="1.000000" stroke="none" 
	d="
M1278.196289,97.053482 
	C1277.291382,95.684944 1276.816528,94.327209 1276.341675,92.969460 
	C1277.618042,92.532623 1278.894531,92.095802 1280.838257,91.430618 
	C1280.358887,93.972656 1282.995117,96.719193 1278.196289,97.053482 
z"/>
<path fill="#070707" opacity="1.000000" stroke="none" 
	d="
M207.277802,103.018494 
	C206.260727,104.004623 205.299500,104.962349 205.242615,105.971077 
	C205.046906,109.442192 205.167374,112.931137 205.167374,116.739830 
	C203.759415,116.825050 202.540955,116.898796 201.066589,116.988029 
	C201.066589,105.272545 201.066589,93.864395 201.066589,82.235977 
	C206.775345,82.235977 212.423935,81.845436 217.992554,82.345490 
	C223.595963,82.848663 226.695282,86.729378 226.801285,92.041153 
	C226.908539,97.415100 224.046158,101.392876 218.673767,102.365837 
	C215.109711,103.011314 211.395294,102.826569 207.277802,103.018494 
M221.687271,95.769814 
	C223.599869,86.592674 219.629547,84.318375 205.415146,86.529022 
	C205.415146,90.565292 205.415146,94.614326 205.415146,100.210304 
	C211.044983,98.878174 216.132095,97.674469 221.687271,95.769814 
z"/>
<path fill="#111111" opacity="1.000000" stroke="none" 
	d="
M233.739258,113.177284 
	C229.702087,106.238388 230.132095,98.125488 234.673706,94.041214 
	C238.340210,90.743958 242.591187,90.038261 247.140335,92.078812 
	C251.616837,94.086792 253.480026,97.953133 253.255417,104.846680 
	C247.363052,104.846680 241.445374,104.846680 235.346542,104.846680 
	C235.112930,108.925461 236.556564,111.675850 240.065170,112.928825 
	C243.601700,114.191772 246.436890,113.133797 248.653656,109.904221 
	C249.339005,108.905731 251.109726,108.652214 253.347336,107.607712 
	C250.051254,117.767296 241.774033,119.665733 233.739258,113.177284 
M249.196289,100.666039 
	C248.812683,96.048698 245.850006,94.213120 241.718597,94.572388 
	C237.950516,94.900055 235.375214,96.970039 235.502350,101.340935 
	C240.081650,101.340935 244.381653,101.340935 249.196289,100.666039 
z"/>
<path fill="#1A1A1A" opacity="1.000000" stroke="none" 
	d="
M325.642334,108.881546 
	C325.642334,102.745193 325.642334,97.090271 325.642334,90.315338 
	C327.647339,91.457886 329.038574,92.250694 330.698669,93.196701 
	C331.511932,92.797890 332.792206,92.010559 334.177368,91.518562 
	C339.986542,89.455231 345.198639,92.686752 345.499664,98.825745 
	C345.784210,104.627853 345.560791,110.454880 345.560791,116.685829 
	C344.248444,116.777481 343.075195,116.859413 341.638580,116.959732 
	C341.638580,111.435158 341.641083,106.283592 341.637726,101.132034 
	C341.635437,97.588493 340.583344,94.692856 336.457092,94.636818 
	C332.610229,94.584595 330.064331,96.561295 329.851044,100.589943 
	C329.613770,105.072243 329.830627,109.582588 329.484619,114.052460 
	C329.391113,115.260277 327.974915,116.365730 327.165833,117.518173 
	C326.657990,117.254501 326.150146,116.990829 325.642303,116.727158 
	C325.642303,114.272430 325.642303,111.817703 325.642334,108.881546 
z"/>
<path fill="#1A1A1A" opacity="1.000000" stroke="none" 
	d="
M136.429016,91.738037 
	C137.954941,91.807640 139.329498,92.284531 141.725433,93.115784 
	C141.930618,93.008667 143.321793,92.073357 144.851288,91.521095 
	C150.601593,89.444809 155.907471,92.773193 156.150970,98.813934 
	C156.390762,104.762276 156.203308,110.727837 156.203308,116.685852 
	C155.759476,116.968620 155.315643,117.251389 154.871796,117.534157 
	C153.994293,116.424362 152.437912,115.360252 152.359589,114.196678 
	C152.058884,109.728325 152.206558,105.227913 152.236755,100.739792 
	C152.259933,97.294075 151.037811,94.759712 147.248825,94.637718 
	C143.676422,94.522690 140.853180,96.183670 140.621613,99.951935 
	C140.286407,105.406380 140.535767,110.896751 140.535767,116.467728 
	C137.701050,117.447632 136.139252,117.471214 136.201431,114.087097 
	C136.335770,106.775177 136.264664,99.459480 136.429016,91.738037 
z"/>
<path fill="#161616" opacity="1.000000" stroke="none" 
	d="
M314.451782,92.215637 
	C322.359863,98.255318 322.797180,110.397217 315.619690,115.038750 
	C311.187042,117.905273 305.586548,117.663048 301.667664,114.435303 
	C297.680359,111.151199 296.306976,103.550995 298.660522,97.793732 
	C300.524658,93.233673 305.204926,90.459068 310.264221,91.041458 
	C311.564301,91.191116 312.822540,91.704155 314.451782,92.215637 
M314.011749,96.447075 
	C309.026001,93.648491 305.080322,94.267502 302.851837,98.197914 
	C300.382294,102.553368 301.652893,110.063271 305.243561,112.334389 
	C309.362274,114.939507 315.122437,112.979225 315.813629,108.082611 
	C316.314178,104.536469 315.064789,100.743317 314.011749,96.447075 
z"/>
<path fill="#161616" opacity="1.000000" stroke="none" 
	d="
M178.137466,115.387825 
	C169.169952,118.645813 164.340790,116.851364 162.284973,108.363823 
	C163.525131,108.977356 164.797073,109.534996 165.997986,110.217575 
	C167.780273,111.230606 169.589279,113.292770 171.246719,113.159866 
	C173.464249,112.982071 175.547714,111.132133 177.688736,110.000229 
	C176.065826,108.686722 174.603134,107.051659 172.778702,106.142563 
	C170.586960,105.050446 167.950012,104.855820 165.750076,103.775284 
	C161.511078,101.693230 160.901611,96.604568 164.281525,93.381592 
	C169.395004,88.505539 178.444687,90.938828 181.075653,99.411964 
	C178.852325,98.305611 177.638031,97.705971 176.427872,97.098068 
	C174.736282,96.248306 173.017944,94.667351 171.366028,94.735329 
	C169.580170,94.808815 167.857605,96.419838 166.107422,97.360222 
	C167.441650,98.558319 168.615524,100.058952 170.152863,100.873878 
	C171.870514,101.784378 173.936874,102.015930 175.818573,102.641815 
	C182.948532,105.013359 183.929642,109.713013 178.137466,115.387825 
z"/>
<path fill="#161616" opacity="1.000000" stroke="none" 
	d="
M287.321594,106.857330 
	C284.063873,105.835793 280.881134,105.468567 278.466644,103.910683 
	C276.533478,102.663338 274.374298,99.930084 274.442047,97.928261 
	C274.511444,95.878998 276.752594,93.110321 278.771423,92.070328 
	C284.572968,89.081734 290.633545,91.815399 293.148865,99.327881 
	C290.934326,98.300804 289.696106,97.730301 288.461090,97.152885 
	C286.607513,96.286240 284.766266,94.771553 282.900909,94.742485 
	C281.320038,94.717857 279.712463,96.408272 278.116699,97.339752 
	C279.447693,98.544647 280.596222,100.145615 282.152100,100.862450 
	C284.538849,101.962112 287.297791,102.233307 289.734192,103.250351 
	C294.303925,105.157913 295.740631,110.930687 291.782043,113.709457 
	C288.862000,115.759216 284.506927,116.496704 280.794861,116.486572 
	C276.835419,116.475769 274.410065,113.466736 273.395752,107.557388 
	C275.638794,108.796043 277.257507,109.147865 277.877655,110.130142 
	C280.074615,113.610115 283.167114,113.940315 286.593414,112.980957 
	C290.102234,111.998489 290.393738,110.078079 287.321594,106.857330 
z"/>
<path fill="#1F1F1F" opacity="1.000000" stroke="none" 
	d="
M259.087189,92.538162 
	C260.435730,91.948517 261.767334,91.807083 263.098907,91.665657 
	C263.110382,91.910019 263.121857,92.154381 263.133301,92.398743 
	C265.947754,91.942001 268.762207,91.485260 271.576660,91.028519 
	C271.813568,91.654884 272.050446,92.281242 272.287323,92.907608 
	C271.331848,93.563881 270.284393,94.884895 269.435974,94.767494 
	C264.301422,94.057022 263.451508,97.544518 263.243378,101.141434 
	C262.948639,106.235512 263.168640,111.359367 263.168640,116.572060 
	C260.136810,117.565933 258.958557,116.947449 259.022278,113.866737 
	C259.166199,106.909271 259.069244,99.946815 259.087189,92.538162 
z"/>
<path fill="#242424" opacity="1.000000" stroke="none" 
	d="
M192.579285,112.449295 
	C193.374573,116.041367 192.594040,117.970650 188.601517,116.746124 
	C187.711990,113.491371 187.781357,111.106628 192.579285,112.449295 
z"/>
<path fill="#242424" opacity="1.000000" stroke="none" 
	d="
M188.258087,95.780075 
	C187.716843,91.861877 189.599396,91.464737 192.684341,92.231941 
	C192.776657,93.560112 192.874359,94.965561 193.027527,97.169113 
	C191.168045,96.790840 189.733093,96.498932 188.258087,95.780075 
z"/>
<path fill="#F4F4F4" opacity="1.000000" stroke="none" 
	d="
M1339.724854,98.856613 
	C1339.940063,102.209396 1340.480469,105.261208 1339.927612,108.100143 
	C1339.104248,112.329140 1335.152588,114.303345 1331.113403,113.080391 
	C1327.116699,111.870308 1325.908203,108.757988 1325.794067,104.988220 
	C1325.668823,100.842873 1325.967285,96.755692 1330.639526,95.080383 
	C1334.409058,93.728760 1337.482056,94.969162 1339.724854,98.856613 
z"/>
<path fill="#F8F8F8" opacity="1.000000" stroke="none" 
	d="
M221.453247,96.120285 
	C216.132095,97.674469 211.044983,98.878174 205.415146,100.210304 
	C205.415146,94.614326 205.415146,90.565292 205.415146,86.529022 
	C219.629547,84.318375 223.599869,86.592674 221.453247,96.120285 
z"/>
<path fill="#E0E0E0" opacity="1.000000" stroke="none" 
	d="
M248.938965,101.003487 
	C244.381653,101.340935 240.081650,101.340935 235.502350,101.340935 
	C235.375214,96.970039 237.950516,94.900055 241.718597,94.572388 
	C245.850006,94.213120 248.812683,96.048698 248.938965,101.003487 
z"/>
<path fill="#F4F4F4" opacity="1.000000" stroke="none" 
	d="
M314.303772,96.753693 
	C315.064789,100.743317 316.314178,104.536469 315.813629,108.082611 
	C315.122437,112.979225 309.362274,114.939507 305.243561,112.334389 
	C301.652893,110.063271 300.382294,102.553368 302.851837,98.197914 
	C305.080322,94.267502 309.026001,93.648491 314.303772,96.753693 
z"/>
</svg>