<?xml version="1.0" standalone="no"?>
<!DOCTYPE svg PUBLIC "-//W3C//DTD SVG 20010904//EN"
 "http://www.w3.org/TR/2001/REC-SVG-20010904/DTD/svg10.dtd">
<svg version="1.0" xmlns="http://www.w3.org/2000/svg"
 width="1892.000000pt" height="748.000000pt" viewBox="0 0 1892.000000 748.000000"
 preserveAspectRatio="xMidYMid meet">

<g transform="translate(0.000000,748.000000) scale(0.100000,-0.100000)"
fill="#000000" stroke="none">
<path d="M14440 6775 l0 -305 -141 71 c-130 65 -169 76 -169 49 0 -5 43 -31
95 -57 83 -41 95 -51 95 -73 0 -22 -12 -32 -95 -73 -52 -26 -95 -52 -95 -57 0
-27 39 -16 169 49 l141 71 0 -305 0 -305 2020 0 2020 0 0 620 0 620 -2020 0
-2020 0 0 -305z m4000 -315 l0 -580 -1980 0 -1980 0 0 580 0 580 1980 0 1980
0 0 -580z"/>
<path d="M16360 6496 c0 -169 1 -176 20 -176 18 0 20 7 20 80 l0 80 49 0 c56
0 76 -18 128 -110 23 -41 33 -50 55 -50 l28 0 -32 53 c-17 28 -44 66 -60 83
l-29 31 25 7 c64 16 86 91 42 143 -23 27 -28 28 -135 31 l-111 4 0 -176z m212
117 c24 -21 23 -48 -2 -73 -16 -16 -33 -20 -95 -20 l-75 0 0 55 0 55 77 0 c57
0 81 -4 95 -17z"/>
<path d="M17130 6610 c0 -64 -3 -68 -34 -45 -27 20 -55 19 -93 -5 -73 -44 -65
-193 13 -228 34 -16 65 -15 92 4 20 14 22 14 22 0 0 -9 7 -16 15 -16 13 0 15
26 15 175 0 149 -2 175 -15 175 -12 0 -15 -13 -15 -60z m-39 -70 c20 0 41 -64
36 -108 -6 -51 -25 -74 -61 -74 -56 0 -89 67 -67 135 12 35 45 59 69 51 8 -2
18 -4 23 -4z"/>
<path d="M15710 6450 c0 -123 1 -130 20 -130 18 0 20 7 20 79 0 44 4 91 10
106 13 35 55 50 86 30 23 -15 24 -21 24 -115 0 -93 1 -100 20 -100 19 0 20 7
20 109 0 106 -1 110 -26 130 -31 25 -72 27 -100 6 -25 -19 -34 -19 -34 0 0 8
-9 15 -20 15 -19 0 -20 -7 -20 -130z"/>
<path d="M16009 6565 c-15 -8 -30 -26 -33 -41 -11 -42 14 -69 84 -88 65 -18
83 -38 57 -63 -27 -27 -77 -21 -103 13 -18 22 -26 26 -36 16 -20 -20 10 -60
54 -74 75 -22 153 30 132 89 -7 22 -23 33 -79 53 -77 28 -95 53 -51 70 30 11
73 -2 82 -25 7 -17 30 -20 38 -6 18 28 -39 71 -91 71 -15 -1 -40 -7 -54 -15z"/>
<path d="M16748 6565 c-78 -44 -77 -189 2 -230 16 -8 41 -15 55 -15 34 0 82
25 95 50 21 38 -15 56 -38 20 -28 -45 -99 -42 -121 6 -6 14 -11 29 -11 34 0 6
40 10 90 10 l90 0 0 35 c0 75 -95 128 -162 90z m105 -43 c9 -8 17 -23 17 -34
0 -16 -8 -18 -64 -18 -36 0 -67 4 -70 9 -11 17 7 43 37 56 33 14 52 11 80 -13z"/>
<path d="M16230 6545 c0 -20 5 -25 25 -25 20 0 25 5 25 25 0 20 -5 25 -25 25
-20 0 -25 -5 -25 -25z"/>
<path d="M16230 6345 c0 -20 5 -25 25 -25 20 0 25 5 25 25 0 20 -5 25 -25 25
-20 0 -25 -5 -25 -25z"/>
<path d="M15680 6260 c0 -20 7 -20 760 -20 753 0 760 0 760 20 0 20 -7 20
-760 20 -753 0 -760 0 -760 -20z"/>
<path d="M10240 6460 c0 -18 7 -20 60 -20 53 0 60 2 60 20 0 18 -7 20 -60 20
-53 0 -60 -2 -60 -20z"/>
<path d="M10480 6460 c0 -18 7 -20 60 -20 53 0 60 2 60 20 0 18 -7 20 -60 20
-53 0 -60 -2 -60 -20z"/>
<path d="M10720 6460 c0 -18 7 -20 60 -20 53 0 60 2 60 20 0 18 -7 20 -60 20
-53 0 -60 -2 -60 -20z"/>
<path d="M10960 6460 c0 -18 7 -20 60 -20 53 0 60 2 60 20 0 18 -7 20 -60 20
-53 0 -60 -2 -60 -20z"/>
<path d="M11200 6460 c0 -18 7 -20 60 -20 53 0 60 2 60 20 0 18 -7 20 -60 20
-53 0 -60 -2 -60 -20z"/>
<path d="M11440 6460 c0 -18 7 -20 60 -20 53 0 60 2 60 20 0 18 -7 20 -60 20
-53 0 -60 -2 -60 -20z"/>
<path d="M11680 6460 c0 -18 7 -20 60 -20 53 0 60 2 60 20 0 18 -7 20 -60 20
-53 0 -60 -2 -60 -20z"/>
<path d="M11920 6460 c0 -18 7 -20 60 -20 53 0 60 2 60 20 0 18 -7 20 -60 20
-53 0 -60 -2 -60 -20z"/>
<path d="M12160 6460 c0 -18 7 -20 60 -20 53 0 60 2 60 20 0 18 -7 20 -60 20
-53 0 -60 -2 -60 -20z"/>
<path d="M12400 6460 c0 -18 7 -20 60 -20 53 0 60 2 60 20 0 18 -7 20 -60 20
-53 0 -60 -2 -60 -20z"/>
<path d="M12640 6460 c0 -18 7 -20 60 -20 53 0 60 2 60 20 0 18 -7 20 -60 20
-53 0 -60 -2 -60 -20z"/>
<path d="M12880 6460 c0 -18 7 -20 60 -20 53 0 60 2 60 20 0 18 -7 20 -60 20
-53 0 -60 -2 -60 -20z"/>
<path d="M13120 6460 c0 -18 7 -20 60 -20 53 0 60 2 60 20 0 18 -7 20 -60 20
-53 0 -60 -2 -60 -20z"/>
<path d="M13360 6460 c0 -18 7 -20 60 -20 53 0 60 2 60 20 0 18 -7 20 -60 20
-53 0 -60 -2 -60 -20z"/>
<path d="M13600 6460 c0 -18 7 -20 60 -20 53 0 60 2 60 20 0 18 -7 20 -60 20
-53 0 -60 -2 -60 -20z"/>
<path d="M13840 6460 c0 -18 7 -20 60 -20 53 0 60 2 60 20 0 18 -7 20 -60 20
-53 0 -60 -2 -60 -20z"/>
<path d="M14080 6460 c0 -18 7 -20 60 -20 53 0 60 2 60 20 0 18 -7 20 -60 20
-53 0 -60 -2 -60 -20z"/>
<path d="M10190 6310 c0 -53 2 -60 20 -60 18 0 20 7 20 60 0 53 -2 60 -20 60
-18 0 -20 -7 -20 -60z"/>
<path d="M10190 6070 c0 -53 2 -60 20 -60 18 0 20 7 20 60 0 53 -2 60 -20 60
-18 0 -20 -7 -20 -60z"/>
<path d="M10190 5830 c0 -53 2 -60 20 -60 18 0 20 7 20 60 0 53 -2 60 -20 60
-18 0 -20 -7 -20 -60z"/>
<path d="M10190 5590 c0 -53 2 -60 20 -60 18 0 20 7 20 60 0 53 -2 60 -20 60
-18 0 -20 -7 -20 -60z"/>
<path d="M10190 5350 c0 -53 2 -60 20 -60 18 0 20 7 20 60 0 53 -2 60 -20 60
-18 0 -20 -7 -20 -60z"/>
<path d="M10190 5110 c0 -53 2 -60 20 -60 18 0 20 7 20 60 0 53 -2 60 -20 60
-18 0 -20 -7 -20 -60z"/>
<path d="M10190 4870 c0 -53 2 -60 20 -60 18 0 20 7 20 60 0 53 -2 60 -20 60
-18 0 -20 -7 -20 -60z"/>
<path d="M10190 4630 c0 -53 2 -60 20 -60 18 0 20 7 20 60 0 53 -2 60 -20 60
-18 0 -20 -7 -20 -60z"/>
<path d="M10190 4400 l0 -50 -888 0 -889 0 -406 -305 -407 -305 -200 100 -200
100 0 -95 0 -95 -1380 0 -1380 0 0 300 0 300 -2020 0 -2020 0 0 -620 0 -620
2020 0 2020 0 0 300 0 300 1380 0 1380 0 0 -95 0 -95 200 100 200 100 407
-305 406 -305 889 0 888 0 0 -50 c0 -43 3 -50 20 -50 17 0 20 7 20 50 l0 50
888 0 889 0 399 300 399 300 58 0 c50 0 57 2 57 20 0 18 -7 20 -57 20 l-58 0
-399 300 -399 300 -889 0 -888 0 0 50 c0 43 -3 50 -20 50 -17 0 -20 -7 -20
-50z m-5790 -670 l0 -580 -1980 0 -1980 0 0 580 0 580 1980 0 1980 0 0 -580z
m7977 293 c210 -158 383 -290 383 -293 0 -3 -173 -135 -383 -293 l-384 -287
-1783 0 -1783 0 -384 287 c-210 158 -382 291 -381 295 2 4 174 135 383 292
l380 286 1784 0 1784 0 384 -287z m-4992 -220 c74 -37 135 -70 135 -73 0 -5
-265 -140 -275 -140 -3 0 -5 63 -5 140 0 77 2 140 5 140 3 0 66 -30 140 -67z"/>
<path d="M1240 3775 c0 -168 1 -175 20 -175 18 0 20 7 20 69 l0 69 79 3 c67 4
83 8 105 28 34 32 42 80 21 124 -21 45 -54 57 -161 57 l-84 0 0 -175z m194
119 c21 -20 20 -73 -1 -96 -13 -14 -31 -18 -85 -18 l-68 0 0 65 0 65 69 0 c50
0 74 -4 85 -16z"/>
<path d="M1710 3925 c0 -18 5 -25 20 -25 15 0 20 7 20 25 0 18 -5 25 -20 25
-15 0 -20 -7 -20 -25z"/>
<path d="M2975 3936 c-88 -39 -122 -155 -74 -254 49 -100 202 -110 259 -17 25
40 25 41 0 48 -15 4 -24 -2 -35 -24 -19 -36 -43 -49 -95 -49 -32 0 -48 6 -70
28 -53 53 -49 178 7 221 38 31 106 29 138 -4 14 -13 25 -29 25 -35 0 -12 10
-13 29 -1 12 8 12 13 -3 36 -38 58 -115 80 -181 51z"/>
<path d="M3500 3775 c0 -168 1 -175 20 -175 19 0 20 7 20 175 0 168 -1 175
-20 175 -19 0 -20 -7 -20 -175z"/>
<path d="M590 3730 c0 -123 1 -130 20 -130 18 0 20 7 20 79 0 44 4 91 10 106
13 35 55 50 86 30 23 -15 24 -21 24 -115 0 -93 1 -100 20 -100 19 0 20 7 20
105 0 99 -2 107 -25 130 -28 29 -63 32 -105 10 -27 -14 -30 -14 -30 0 0 8 -9
15 -20 15 -19 0 -20 -7 -20 -130z"/>
<path d="M890 3847 c-13 -7 -29 -24 -34 -39 -15 -43 12 -72 84 -92 65 -18 83
-38 57 -63 -27 -27 -77 -21 -103 13 -17 21 -26 26 -35 17 -17 -17 -1 -52 33
-69 44 -23 106 -13 135 21 44 51 25 87 -62 114 -33 10 -64 26 -69 35 -26 40
63 56 96 17 25 -31 52 -22 37 13 -20 43 -88 59 -139 33z"/>
<path d="M1550 3730 c0 -121 1 -130 19 -130 17 0 19 10 23 100 2 55 8 104 14
110 6 6 24 12 40 13 18 2 29 8 29 17 0 22 -44 24 -66 4 -17 -16 -19 -16 -19
-1 0 10 -8 17 -20 17 -19 0 -20 -7 -20 -130z"/>
<path d="M1710 3730 c0 -123 1 -130 20 -130 19 0 20 7 20 130 0 123 -1 130
-20 130 -19 0 -20 -7 -20 -130z"/>
<path d="M1820 3730 c0 -123 1 -130 20 -130 18 0 20 7 20 88 0 93 12 125 49
135 11 2 29 -2 40 -10 19 -13 21 -24 21 -114 0 -92 1 -99 20 -99 19 0 20 7 20
93 0 50 4 97 8 103 12 19 50 34 67 28 27 -11 35 -40 35 -133 0 -74 3 -91 15
-91 12 0 15 19 15 114 0 107 -1 116 -22 130 -30 21 -71 20 -99 -3 -23 -19 -24
-19 -48 0 -28 23 -56 24 -93 5 -24 -13 -28 -13 -28 0 0 8 -9 14 -20 14 -19 0
-20 -7 -20 -130z"/>
<path d="M2261 3848 c-13 -7 -30 -23 -39 -35 -13 -20 -13 -23 2 -29 11 -4 22
1 31 14 29 41 106 35 120 -9 9 -26 -5 -36 -60 -44 -61 -9 -91 -24 -103 -51
-31 -68 55 -119 132 -79 27 14 31 14 38 0 5 -8 17 -15 26 -15 15 0 16 11 12
110 -4 84 -9 113 -22 126 -21 22 -105 29 -137 12z m119 -137 c0 -50 -58 -89
-105 -71 -27 10 -33 41 -12 58 20 17 117 28 117 13z"/>
<path d="M2490 3730 c0 -103 3 -130 14 -130 10 0 15 24 18 97 5 84 8 99 27
114 12 10 29 15 37 12 8 -3 21 2 28 12 11 15 18 0 58 -111 44 -120 46 -130 32
-156 -10 -20 -22 -28 -40 -28 -19 0 -25 -5 -22 -17 4 -25 40 -28 66 -6 13 11
44 81 81 181 54 150 57 163 38 160 -16 -2 -27 -24 -56 -107 l-35 -105 -35 107
-35 106 -50 -1 c-28 0 -61 -7 -73 -14 -20 -13 -23 -13 -23 1 0 8 -7 15 -15 15
-13 0 -15 -21 -15 -130z"/>
<path d="M3272 3840 c-41 -25 -55 -61 -50 -128 7 -87 70 -129 152 -102 47 15
70 53 70 116 1 63 -17 98 -59 119 -44 20 -73 19 -113 -5z m111 -40 c24 -22 32
-88 15 -120 -8 -14 -26 -31 -41 -38 -22 -11 -31 -10 -55 2 -35 18 -42 33 -42
90 0 82 68 119 123 66z"/>
<path d="M3644 3841 c-73 -45 -70 -187 5 -225 85 -44 171 13 171 114 0 104
-93 162 -176 111z m125 -57 c36 -79 -18 -168 -85 -143 -50 18 -71 100 -38 147
33 47 100 45 123 -4z"/>
<path d="M3870 3730 c0 -121 1 -130 19 -130 17 0 19 10 23 100 2 55 8 104 14
110 6 6 24 12 40 13 18 2 29 8 29 17 0 22 -44 24 -66 4 -17 -16 -19 -16 -19
-1 0 10 -8 17 -20 17 -19 0 -20 -7 -20 -130z"/>
<path d="M4064 3848 c-33 -16 -47 -54 -32 -86 10 -19 29 -31 78 -46 51 -17 65
-25 65 -41 0 -48 -100 -52 -112 -5 -6 24 -31 26 -40 4 -3 -10 4 -26 21 -42 54
-55 176 -23 176 45 0 34 -31 59 -94 77 -78 23 -88 55 -24 71 21 5 33 1 53 -19
27 -27 40 -32 49 -17 10 16 -5 41 -35 56 -32 17 -74 18 -105 3z"/>
<path d="M1110 3825 c0 -20 5 -25 25 -25 20 0 25 5 25 25 0 20 -5 25 -25 25
-20 0 -25 -5 -25 -25z"/>
<path d="M1110 3625 c0 -20 5 -25 25 -25 20 0 25 5 25 25 0 20 -5 25 -25 25
-20 0 -25 -5 -25 -25z"/>
<path d="M9770 3775 c0 -168 1 -175 20 -175 19 0 20 7 20 175 0 168 -1 175
-20 175 -19 0 -20 -7 -20 -175z"/>
<path d="M10906 3940 c-87 -27 -131 -149 -87 -246 36 -78 122 -112 206 -80 75
29 115 112 95 201 -23 105 -111 156 -214 125z m122 -46 c33 -23 52 -67 52
-119 0 -83 -43 -135 -113 -135 -77 0 -123 52 -121 137 1 56 21 101 53 118 35
19 101 19 129 -1z"/>
<path d="M11210 3930 c-11 -11 -20 -31 -20 -45 0 -16 -6 -25 -15 -25 -8 0 -15
-6 -15 -14 0 -8 7 -16 15 -20 12 -4 15 -27 15 -116 0 -103 1 -110 20 -110 18
0 20 8 22 113 3 108 4 112 26 115 31 5 28 32 -4 32 -21 0 -25 4 -22 23 2 15
11 23 28 26 26 3 42 19 34 33 -10 16 -64 8 -84 -12z"/>
<path d="M8690 3835 c-79 -35 -95 -46 -95 -65 0 -19 15 -28 103 -63 56 -22
105 -38 108 -34 16 16 -10 34 -85 62 -44 16 -81 32 -81 35 0 3 37 22 83 41 49
22 83 43 85 52 5 24 -11 20 -118 -28z"/>
<path d="M8970 3835 c-79 -35 -95 -46 -95 -65 0 -19 15 -28 103 -63 56 -22
105 -38 108 -34 16 16 -10 34 -85 62 -44 16 -81 32 -81 35 0 3 37 22 83 41 49
22 83 43 85 52 5 24 -11 20 -118 -28z"/>
<path d="M11312 3863 c2 -9 36 -30 86 -52 45 -19 82 -38 82 -41 0 -3 -37 -20
-82 -37 -51 -19 -84 -37 -86 -47 -5 -23 11 -20 118 23 80 33 95 42 95 61 0 19
-16 30 -99 66 -110 49 -119 51 -114 27z"/>
<path d="M11592 3863 c2 -9 36 -30 86 -52 45 -19 82 -38 82 -41 0 -3 -37 -20
-82 -37 -51 -19 -84 -37 -86 -47 -5 -23 11 -20 118 23 80 33 95 42 95 61 0 19
-16 30 -99 66 -110 49 -119 51 -114 27z"/>
<path d="M9192 3840 c-41 -25 -55 -61 -50 -128 7 -87 70 -129 152 -102 42 14
64 46 72 103 15 110 -84 182 -174 127z m111 -40 c24 -22 32 -88 15 -120 -8
-14 -26 -31 -41 -38 -22 -11 -31 -10 -55 2 -35 18 -42 33 -42 90 0 82 68 119
123 66z"/>
<path d="M9412 3788 c48 -172 53 -183 75 -186 23 -3 24 -2 54 123 17 70 21 71
36 10 30 -130 33 -136 55 -133 17 2 27 25 59 128 21 69 39 126 39 128 0 1 -8
2 -19 2 -14 0 -24 -19 -46 -95 -16 -52 -31 -93 -34 -89 -3 3 -15 44 -26 92
-17 73 -24 87 -41 90 -19 3 -24 -7 -43 -85 -12 -49 -26 -94 -30 -101 -4 -7
-18 29 -32 85 -21 83 -29 98 -47 101 l-21 3 21 -73z"/>
<path d="M10044 3841 c-73 -45 -70 -187 5 -225 85 -44 171 13 171 114 0 104
-93 162 -176 111z m125 -57 c47 -105 -60 -203 -123 -112 -33 47 -12 129 38
147 30 12 71 -6 85 -35z"/>
<path d="M10270 3730 c0 -123 1 -130 20 -130 18 0 20 7 20 79 0 44 4 91 10
106 13 35 55 50 86 30 23 -15 24 -21 24 -115 0 -93 1 -100 20 -100 19 0 20 7
20 105 0 99 -2 107 -25 130 -28 29 -63 32 -105 10 -27 -14 -30 -14 -30 0 0 8
-9 15 -20 15 -19 0 -20 -7 -20 -130z"/>
<path d="M10584 3842 c-40 -26 -58 -70 -52 -132 8 -80 68 -125 144 -106 26 7
74 51 74 68 0 21 -31 18 -52 -6 -23 -24 -35 -30 -70 -27 -25 1 -58 37 -58 61
0 19 7 20 90 20 l90 0 0 35 c0 79 -97 130 -166 87z m112 -43 c29 -33 11 -49
-55 -49 -67 0 -80 10 -57 45 24 37 80 39 112 4z"/>
<path d="M9890 3825 c0 -18 5 -25 20 -25 15 0 20 7 20 25 0 18 -5 25 -20 25
-15 0 -20 -7 -20 -25z"/>
<path d="M9890 3625 c0 -18 5 -25 20 -25 15 0 20 7 20 25 0 18 -5 25 -20 25
-15 0 -20 -7 -20 -25z"/>
<path d="M14440 4045 l0 -305 -141 71 c-130 65 -169 76 -169 49 0 -5 44 -32
98 -59 l97 -50 -42 0 c-36 -1 -43 -4 -43 -21 0 -17 7 -20 43 -21 l42 0 -97
-50 c-54 -27 -98 -54 -98 -59 0 -27 39 -16 169 49 l141 71 0 -305 0 -305 2020
0 2020 0 0 620 0 620 -2020 0 -2020 0 0 -305z m4000 -315 l0 -580 -1980 0
-1980 0 0 580 0 580 1980 0 1980 0 0 -580z"/>
<path d="M16210 3928 c-60 -31 -85 -76 -85 -153 0 -103 51 -160 153 -172 40
-4 60 -1 106 20 l56 26 0 65 0 66 -75 0 c-68 0 -75 -2 -75 -20 0 -17 7 -20 50
-20 l50 0 0 -38 c0 -47 -25 -62 -101 -62 -45 0 -55 4 -85 34 -32 32 -34 38
-34 101 0 63 2 69 34 101 30 30 40 34 85 34 42 0 57 -5 76 -25 14 -13 25 -28
25 -34 0 -5 9 -7 20 -4 24 6 24 6 5 42 -16 32 -77 61 -128 61 -18 0 -53 -10
-77 -22z"/>
<path d="M15490 3730 c0 -123 1 -130 20 -130 19 0 20 7 20 94 0 114 13 135 80
126 31 -3 40 -33 40 -127 0 -86 1 -93 20 -93 18 0 20 7 20 89 0 48 -5 102 -10
118 -17 48 -85 69 -126 38 -25 -19 -34 -19 -34 0 0 8 -7 15 -15 15 -13 0 -15
-21 -15 -130z"/>
<path d="M15784 3848 c-30 -14 -46 -52 -34 -82 6 -16 24 -29 57 -41 89 -31 95
-35 91 -53 -2 -9 -15 -23 -30 -30 -33 -15 -78 -1 -85 29 -6 20 -33 23 -40 3
-7 -20 38 -63 72 -70 68 -12 125 21 125 75 0 36 -14 48 -92 75 -34 11 -63 26
-65 31 -5 17 11 33 39 40 21 5 33 1 53 -19 27 -27 40 -32 49 -17 10 16 -5 41
-35 56 -32 17 -74 18 -105 3z"/>
<path d="M16500 3730 c0 -123 1 -130 20 -130 19 0 20 7 20 95 0 80 3 98 19
114 12 12 28 17 39 14 12 -3 22 1 25 11 9 24 -37 32 -68 12 -22 -14 -25 -15
-25 -1 0 8 -7 15 -15 15 -13 0 -15 -21 -15 -130z"/>
<path d="M16714 3850 c-42 -17 -64 -58 -64 -121 0 -51 4 -63 29 -91 26 -29 36
-33 79 -33 51 0 82 17 103 58 18 32 -20 34 -45 2 -40 -50 -126 -25 -126 36 0
17 8 19 90 19 l90 0 0 28 c0 78 -82 132 -156 102z m99 -52 c27 -32 16 -43 -51
-46 -67 -3 -88 12 -61 44 31 38 80 38 112 2z"/>
<path d="M16984 3850 c-58 -23 -86 -109 -59 -178 36 -89 161 -95 206 -9 18 32
-20 34 -45 2 -40 -49 -117 -31 -129 31 l-4 24 93 0 c88 0 94 1 94 20 0 83 -82
140 -156 110z m99 -52 c28 -33 16 -43 -56 -46 -60 -3 -67 -1 -67 16 0 19 24
45 50 55 23 8 53 -2 73 -25z"/>
<path d="M17190 3730 c0 -123 1 -130 20 -130 18 0 20 7 20 79 0 44 4 91 10
106 13 35 55 50 86 30 23 -15 24 -21 24 -115 0 -93 1 -100 20 -100 19 0 20 7
20 109 0 106 -1 110 -26 130 -31 25 -72 27 -100 6 -25 -19 -34 -19 -34 0 0 8
-9 15 -20 15 -19 0 -20 -7 -20 -130z"/>
<path d="M16010 3825 c0 -18 5 -25 20 -25 15 0 20 7 20 25 0 18 -5 25 -20 25
-15 0 -20 -7 -20 -25z"/>
<path d="M16010 3625 c0 -18 5 -25 20 -25 15 0 20 7 20 25 0 18 -5 25 -20 25
-15 0 -20 -7 -20 -25z"/>
<path d="M15450 3540 c0 -20 7 -20 990 -20 983 0 990 0 990 20 0 20 -7 20
-990 20 -983 0 -990 0 -990 -20z"/>
<path d="M13040 3730 c0 -18 7 -20 60 -20 53 0 60 2 60 20 0 18 -7 20 -60 20
-53 0 -60 -2 -60 -20z"/>
<path d="M13280 3730 c0 -18 7 -20 60 -20 53 0 60 2 60 20 0 18 -7 20 -60 20
-53 0 -60 -2 -60 -20z"/>
<path d="M13520 3730 c0 -18 7 -20 60 -20 53 0 60 2 60 20 0 18 -7 20 -60 20
-53 0 -60 -2 -60 -20z"/>
<path d="M13760 3730 c0 -18 7 -20 60 -20 53 0 60 2 60 20 0 18 -7 20 -60 20
-53 0 -60 -2 -60 -20z"/>
<path d="M14000 3730 c0 -18 7 -20 60 -20 53 0 60 2 60 20 0 18 -7 20 -60 20
-53 0 -60 -2 -60 -20z"/>
<path d="M10190 2830 c0 -53 2 -60 20 -60 18 0 20 7 20 60 0 53 -2 60 -20 60
-18 0 -20 -7 -20 -60z"/>
<path d="M10190 2590 c0 -53 2 -60 20 -60 18 0 20 7 20 60 0 53 -2 60 -20 60
-18 0 -20 -7 -20 -60z"/>
<path d="M10190 2350 c0 -53 2 -60 20 -60 18 0 20 7 20 60 0 53 -2 60 -20 60
-18 0 -20 -7 -20 -60z"/>
<path d="M10190 2110 c0 -53 2 -60 20 -60 18 0 20 7 20 60 0 53 -2 60 -20 60
-18 0 -20 -7 -20 -60z"/>
<path d="M10190 1870 c0 -53 2 -60 20 -60 18 0 20 7 20 60 0 53 -2 60 -20 60
-18 0 -20 -7 -20 -60z"/>
<path d="M10190 1630 c0 -53 2 -60 20 -60 18 0 20 7 20 60 0 53 -2 60 -20 60
-18 0 -20 -7 -20 -60z"/>
<path d="M14440 1345 l0 -305 -141 71 c-130 65 -169 76 -169 49 0 -5 50 -35
110 -65 61 -30 110 -60 110 -65 0 -5 -49 -35 -110 -65 -60 -30 -110 -60 -110
-65 0 -27 39 -16 169 49 l141 71 0 -305 0 -305 2020 0 2020 0 0 620 0 620
-2020 0 -2020 0 0 -305z m4000 -315 l0 -580 -1980 0 -1980 0 0 580 0 580 1980
0 1980 0 0 -580z"/>
<path d="M16320 1055 l0 -175 80 0 c126 0 170 27 170 103 0 27 -7 41 -31 61
-17 14 -26 26 -20 26 6 0 19 15 28 34 14 29 14 39 3 66 -19 45 -56 60 -150 60
l-80 0 0 -175z m184 113 c21 -30 20 -44 -4 -68 -16 -16 -33 -20 -80 -20 l-60
0 0 55 0 55 64 0 c56 0 67 -3 80 -22z m4 -144 c14 -10 22 -26 22 -44 0 -42
-32 -60 -107 -60 l-63 0 0 60 0 60 63 0 c40 0 70 -5 85 -16z"/>
<path d="M16630 1055 c0 -168 1 -175 20 -175 19 0 20 7 20 175 0 168 -1 175
-20 175 -19 0 -20 -7 -20 -175z"/>
<path d="M15670 1010 c0 -123 1 -130 20 -130 18 0 20 7 20 79 0 44 4 91 10
106 13 35 55 50 86 30 23 -15 24 -21 24 -115 0 -93 1 -100 20 -100 19 0 20 7
20 109 0 106 -1 110 -26 130 -31 25 -72 27 -100 6 -25 -19 -34 -19 -34 0 0 8
-9 15 -20 15 -19 0 -20 -7 -20 -130z"/>
<path d="M15969 1125 c-15 -8 -30 -26 -33 -41 -11 -42 14 -69 84 -88 65 -18
83 -38 57 -63 -27 -27 -77 -21 -103 13 -18 22 -26 26 -36 16 -20 -20 10 -60
54 -74 75 -22 153 30 132 89 -7 22 -23 33 -79 53 -77 28 -95 53 -51 70 30 11
73 -2 82 -25 7 -17 30 -20 38 -6 18 28 -39 71 -91 71 -15 -1 -40 -7 -54 -15z"/>
<path d="M16740 1048 c0 -116 5 -135 41 -153 35 -19 57 -19 93 0 35 18 36 18
36 0 0 -8 7 -15 15 -15 13 0 15 21 15 130 0 123 -1 130 -20 130 -19 0 -20 -7
-20 -93 0 -104 -13 -129 -66 -129 -43 0 -54 25 -54 129 0 86 -1 93 -20 93 -19
0 -20 -7 -20 -92z"/>
<path d="M17064 1130 c-58 -23 -86 -109 -59 -178 36 -89 161 -95 206 -9 18 32
-20 34 -45 2 -40 -49 -117 -31 -129 31 l-4 24 93 0 c88 0 94 1 94 20 0 83 -82
140 -156 110z m99 -52 c28 -33 16 -43 -56 -46 -60 -3 -67 -1 -67 16 0 19 24
45 50 55 23 8 53 -2 73 -25z"/>
<path d="M16190 1105 c0 -20 5 -25 25 -25 20 0 25 5 25 25 0 20 -5 25 -25 25
-20 0 -25 -5 -25 -25z"/>
<path d="M16190 905 c0 -20 5 -25 25 -25 20 0 25 5 25 25 0 20 -5 25 -25 25
-20 0 -25 -5 -25 -25z"/>
<path d="M15640 820 c0 -20 7 -20 800 -20 793 0 800 0 800 20 0 20 -7 20 -800
20 -793 0 -800 0 -800 -20z"/>
<path d="M10190 1390 c0 -53 2 -60 20 -60 18 0 20 7 20 60 0 53 -2 60 -20 60
-18 0 -20 -7 -20 -60z"/>
<path d="M10190 1150 c0 -53 2 -60 20 -60 18 0 20 7 20 60 0 53 -2 60 -20 60
-18 0 -20 -7 -20 -60z"/>
<path d="M10270 1030 c0 -18 6 -20 61 -20 52 0 60 2 57 18 -2 13 -15 18 -61
20 -52 3 -57 1 -57 -18z"/>
<path d="M10510 1030 c0 -18 6 -20 61 -20 52 0 60 2 57 18 -2 13 -15 18 -61
20 -52 3 -57 1 -57 -18z"/>
<path d="M10750 1030 c0 -18 6 -20 61 -20 52 0 60 2 57 18 -2 13 -15 18 -61
20 -52 3 -57 1 -57 -18z"/>
<path d="M10990 1030 c0 -18 6 -20 61 -20 52 0 60 2 57 18 -2 13 -15 18 -61
20 -52 3 -57 1 -57 -18z"/>
<path d="M11230 1030 c0 -18 6 -20 61 -20 52 0 60 2 57 18 -2 13 -15 18 -61
20 -52 3 -57 1 -57 -18z"/>
<path d="M11470 1030 c0 -18 6 -20 61 -20 52 0 60 2 57 18 -2 13 -15 18 -61
20 -52 3 -57 1 -57 -18z"/>
<path d="M11710 1030 c0 -18 6 -20 61 -20 52 0 60 2 57 18 -2 13 -15 18 -61
20 -52 3 -57 1 -57 -18z"/>
<path d="M11950 1030 c0 -18 6 -20 61 -20 52 0 60 2 57 18 -2 13 -15 18 -61
20 -52 3 -57 1 -57 -18z"/>
<path d="M12190 1030 c0 -18 6 -20 61 -20 52 0 60 2 57 18 -2 13 -15 18 -61
20 -52 3 -57 1 -57 -18z"/>
<path d="M12430 1030 c0 -18 6 -20 61 -20 52 0 60 2 57 18 -2 13 -15 18 -61
20 -52 3 -57 1 -57 -18z"/>
<path d="M12670 1030 c0 -18 6 -20 61 -20 52 0 60 2 57 18 -2 13 -15 18 -61
20 -52 3 -57 1 -57 -18z"/>
<path d="M12910 1030 c0 -18 7 -20 60 -20 53 0 60 2 60 20 0 18 -7 20 -60 20
-53 0 -60 -2 -60 -20z"/>
<path d="M13150 1030 c0 -18 7 -20 60 -20 53 0 60 2 60 20 0 18 -7 20 -60 20
-53 0 -60 -2 -60 -20z"/>
<path d="M13390 1030 c0 -18 7 -20 60 -20 53 0 60 2 60 20 0 18 -7 20 -60 20
-53 0 -60 -2 -60 -20z"/>
<path d="M13630 1030 c0 -18 7 -20 60 -20 53 0 60 2 60 20 0 18 -7 20 -60 20
-53 0 -60 -2 -60 -20z"/>
<path d="M13870 1030 c0 -18 7 -20 60 -20 53 0 60 2 60 20 0 18 -7 20 -60 20
-53 0 -60 -2 -60 -20z"/>
<path d="M14110 1030 c0 -18 7 -20 60 -20 53 0 60 2 60 20 0 18 -7 20 -60 20
-53 0 -60 -2 -60 -20z"/>
</g>
</svg>
