<svg version="1.1" id="Layer_1" xmlns="http://www.w3.org/2000/svg" xmlns:xlink="http://www.w3.org/1999/xlink" x="0px" y="0px"
	 width="100%" viewBox="0 0 1004 416" enable-background="new 0 0 1004 416" xml:space="preserve">
<path fill="none" opacity="1.000000" stroke="#000000" stroke-linecap="round" stroke-linejoin="round" stroke-width="5.000000"
	d="
M755.500000,251.000000 
	C751.303223,254.464722 746.145020,252.552826 741.477783,253.373474 
	C736.409180,254.264664 731.139771,253.946762 726.009216,254.575287 
	C722.428650,255.013916 719.519409,252.896027 715.999756,252.905914 
	C666.666809,253.044571 617.333313,253.000000 568.000000,253.000000 
	C566.499207,253.000000 564.998474,253.000000 563.250000,253.000000 
	C563.250000,293.166656 563.250000,332.833344 563.250000,372.750000 
	C696.500000,372.750000 829.500000,372.750000 962.750000,372.750000 
	C962.750000,332.833344 962.750000,293.166656 962.750000,253.594254 
	C960.727417,252.664978 958.838196,253.014725 957.000000,253.014221 
	C893.666687,252.997147 830.333313,252.987030 767.000000,253.023972 
	C761.784668,253.027008 757.971985,252.463760 754.157959,247.250229 
	C748.106934,238.978790 739.833374,232.333313 732.500000,224.999969 
"/>
<path fill="none" opacity="1.000000" stroke="#000000" stroke-linecap="round" stroke-linejoin="round" stroke-width="5.000000"
	d="
M273.500000,225.000015 
	C267.166687,231.333344 260.833344,237.666656 254.500000,244.000000 
	C253.500000,245.000000 252.006439,245.826126 251.582611,247.029114 
	C249.350479,253.364594 244.273209,253.044708 238.999954,253.039612 
	C175.666687,252.978333 112.333336,252.997147 49.000004,253.014221 
	C47.161762,253.014725 45.272572,252.664978 43.250000,253.594254 
	C43.250000,293.166656 43.250000,332.833344 43.250000,372.750000 
	C176.500000,372.750000 309.500000,372.750000 442.750000,372.750000 
	C442.750000,332.833344 442.750000,293.166656 442.750000,253.000000 
	C440.834686,253.000000 439.167328,253.000000 437.500000,253.000000 
	C388.500000,253.000000 339.492706,252.554016 290.505798,253.354218 
	C279.966125,253.526367 269.501190,253.177841 258.999298,253.068115 
	C255.765793,253.034332 252.817017,252.490097 250.000000,251.000000 
"/>
<path fill="none" opacity="1.000000" stroke="#000000" stroke-linecap="round" stroke-linejoin="round" stroke-width="5.000000"
	d="
M511.000000,164.000000 
	C513.143494,161.604950 516.262756,161.832520 518.993958,160.980606 
	C541.817261,153.861526 556.657166,138.588135 561.781006,115.451508 
	C567.126831,91.312653 557.246948,67.096214 536.025208,52.962109 
	C524.273193,45.135044 511.301758,41.717964 497.516083,43.154320 
	C478.721161,45.112598 463.663788,54.028236 452.966095,69.977264 
	C445.100311,81.704300 441.717957,94.698265 443.154297,108.483925 
	C445.112579,127.278854 454.072266,142.273010 469.945587,153.079941 
	C476.454071,157.511032 483.793732,159.436584 490.963013,162.099609 
	C497.412750,164.495331 504.087769,162.477692 510.500000,164.000000 
"/>
<path fill="none" opacity="1.000000" stroke="#000000" stroke-linecap="round" stroke-linejoin="round" stroke-width="4.000000"
	d="
M748.500000,303.000000 
	C746.812744,302.895477 745.978394,301.546051 745.018311,300.483490 
	C741.422058,296.503632 735.088013,294.723969 730.500000,296.499969 
	C725.545410,298.417877 722.000977,303.499725 722.027710,308.999878 
	C722.049744,313.528198 721.432251,318.031128 724.922791,322.066772 
	C731.555908,329.735474 740.918823,328.813721 747.000000,319.500000 
"/>
<path fill="none" opacity="1.000000" stroke="#000000" stroke-linecap="round" stroke-linejoin="round" stroke-width="4.000000"
	d="
M286.500000,315.500000 
	C286.562103,311.879822 285.437836,308.818665 282.510620,306.486664 
	C279.354340,303.972229 275.677246,303.912933 272.564728,305.618134 
	C267.040710,308.644562 267.705597,314.342926 268.069794,319.495056 
	C268.360199,323.603363 271.048920,325.917725 274.990540,327.033447 
	C279.381317,328.276245 284.715302,325.232880 285.989807,320.497253 
	C286.388733,319.014923 286.666656,317.500000 287.000000,316.000000 
"/>
<path fill="none" opacity="1.000000" stroke="#000000" stroke-linecap="round" stroke-linejoin="round" stroke-width="4.000000"
	d="
M212.500000,309.500000 
	C211.872589,309.088165 211.017380,310.191162 210.337173,308.568237 
	C209.403046,306.339447 206.995026,304.894684 204.492065,304.559143 
	C200.988831,304.089447 196.323456,306.033600 196.053574,309.004852 
	C195.711014,312.776367 198.432861,314.128998 201.499771,315.000793 
	C204.395294,315.823914 207.393860,316.251648 210.022430,317.965607 
	C212.702469,319.713104 212.463730,321.854584 210.965225,323.975433 
	C207.227188,329.265900 200.755890,328.575867 196.000000,322.500000 
"/>
<path fill="none" opacity="1.000000" stroke="#000000" stroke-linecap="round" stroke-linejoin="round" stroke-width="4.000000"
	d="
M698.000000,308.500000 
	C695.523865,305.313293 692.935364,303.611877 688.426697,305.304749 
	C685.760681,306.305725 684.079102,306.938629 683.962219,309.998566 
	C683.823120,313.637726 686.579712,314.133881 689.008240,314.976227 
	C690.799500,315.597504 692.696472,315.911957 694.493164,316.520203 
	C697.338562,317.483490 700.088135,318.959961 699.410461,322.482788 
	C698.679138,326.284851 695.121948,327.407593 692.003784,327.335663 
	C688.481750,327.254456 684.484985,326.689911 683.500000,322.000000 
"/>
<path fill="none" opacity="1.000000" stroke="#000000" stroke-linecap="round" stroke-linejoin="round" stroke-width="4.000000"
	d="
M310.500000,308.500000 
	C307.696320,306.724945 305.067108,303.963074 301.518768,304.603973 
	C296.785858,305.458771 294.000000,310.134979 294.000000,316.000000 
	C294.000000,321.865051 296.853180,326.189148 301.495117,327.517059 
	C303.386993,328.058258 304.846558,326.780334 306.467712,326.371887 
	C308.112396,325.957520 309.128662,323.811127 311.250000,324.000000 
"/>
<path fill="none" opacity="1.000000" stroke="#000000" stroke-linecap="round" stroke-linejoin="round" stroke-width="4.000000"
	d="
M847.000000,315.000000 
	C854.211609,316.360260 861.887878,315.720581 865.093872,313.433014 
	C863.633240,311.185760 864.010620,308.196564 861.063110,306.396637 
	C855.020020,302.706360 848.235657,305.436005 846.999939,312.500000 
	C845.463318,321.284332 847.157288,324.889526 854.006348,326.979248 
	C858.556702,328.367584 861.635376,326.152679 864.000000,322.500000 
"/>
<path fill="none" opacity="1.000000" stroke="#000000" stroke-linecap="round" stroke-linejoin="round" stroke-width="4.000000"
	d="
M799.500000,327.500000 
	C799.500000,322.333344 799.662415,317.160278 799.459473,312.001587 
	C799.197693,305.347687 794.353638,302.984283 788.452209,305.903320 
	C784.366821,307.924103 783.469360,311.045135 783.494080,315.000031 
	C783.520142,319.166534 783.500000,323.333344 783.500000,327.500000 
"/>
<path fill="none" opacity="1.000000" stroke="#000000" stroke-linecap="round" stroke-linejoin="round" stroke-width="5.000000"
	d="
M674.000000,327.000000 
	C674.000000,322.166656 674.015381,317.333282 673.996277,312.500000 
	C673.968933,305.582642 669.113892,302.735352 662.990601,305.982300 
	C661.676147,306.679352 660.753418,308.173462 659.000000,308.000000 
"/>
<path fill="none" opacity="1.000000" stroke="#000000" stroke-linecap="round" stroke-linejoin="round" stroke-width="5.000000"
	d="
M186.000000,327.000000 
	C186.000000,322.166656 186.015442,317.333282 185.996338,312.500000 
	C185.968979,305.582642 181.113861,302.735352 174.990616,305.982300 
	C173.676132,306.679352 172.753387,308.173462 171.000000,308.000000 
"/>
<path fill="none" opacity="1.000000" stroke="#000000" stroke-linecap="round" stroke-linejoin="round" stroke-width="5.000000"
	d="
M837.000000,327.000000 
	C837.000000,322.166656 837.015381,317.333282 836.996277,312.500000 
	C836.968933,305.582642 832.113831,302.735291 825.990601,305.982300 
	C824.676147,306.679321 823.753418,308.173462 822.000000,308.000000 
"/>
<path fill="none" opacity="1.000000" stroke="#000000" stroke-linecap="round" stroke-linejoin="round" stroke-width="4.000000"
	d="
M312.000000,305.000000 
	C312.000000,311.833344 311.876770,318.669586 312.039337,325.499054 
	C312.167236,330.871796 310.253479,334.883484 306.507477,336.517151 
	C301.930237,338.513275 295.985382,337.352783 294.000000,331.500000 
"/>
<path fill="none" opacity="1.000000" stroke="#000000" stroke-linecap="round" stroke-linejoin="round" stroke-width="6.000000"
	d="
M514.500000,81.500000 
	C505.500000,81.500000 496.500000,81.500000 487.500000,81.500000 
"/>
<path fill="none" opacity="1.000000" stroke="#000000" stroke-linecap="round" stroke-linejoin="round" stroke-width="6.000000"
	d="
M514.500000,96.500000 
	C505.500000,96.500000 496.500000,96.500000 487.500000,96.500000 
"/>
<path fill="none" opacity="1.000000" stroke="#000000" stroke-linecap="round" stroke-linejoin="round" stroke-width="6.000000"
	d="
M514.500000,111.500000 
	C505.500000,111.500000 496.500000,111.500000 487.500000,111.500000 
"/>
<path fill="none" opacity="1.000000" stroke="#000000" stroke-linecap="round" stroke-linejoin="round" stroke-width="4.000000"
	d="
M773.500000,327.500000 
	C770.985168,323.161591 773.169067,318.478973 772.818115,313.975220 
	C772.543274,310.449524 772.597778,307.438354 769.467957,305.553162 
	C766.089844,303.518494 760.952209,304.477020 757.952576,306.942261 
	C756.866699,307.834656 756.907104,310.403320 754.500000,309.500000 
"/>
<path fill="none" opacity="1.000000" stroke="#000000" stroke-linecap="round" stroke-linejoin="round" stroke-width="5.000000"
	d="
M810.000000,305.000000 
	C810.000000,312.333344 810.000000,319.666656 810.000000,327.000000 
"/>
<path fill="none" opacity="1.000000" stroke="#000000" stroke-linecap="round" stroke-linejoin="round" stroke-width="5.000000"
	d="
M821.000000,305.000000 
	C821.000000,312.333344 821.000000,319.666656 821.000000,327.000000 
"/>
<path fill="none" opacity="1.000000" stroke="#000000" stroke-linecap="round" stroke-linejoin="round" stroke-width="5.000000"
	d="
M170.000000,305.000000 
	C170.000000,312.333344 170.000000,319.666656 170.000000,327.000000 
"/>
<path fill="none" opacity="1.000000" stroke="#000000" stroke-linecap="round" stroke-linejoin="round" stroke-width="5.000000"
	d="
M658.000000,305.000000 
	C658.000000,312.333344 658.000000,319.666656 658.000000,327.000000 
"/>
<path fill="none" opacity="1.000000" stroke="#000000" stroke-linecap="round" stroke-linejoin="round" stroke-width="4.000000"
	d="
M771.500000,315.000031 
	C768.333313,315.500031 765.178955,316.106689 761.996887,316.473145 
	C757.987061,316.934875 755.468628,319.567963 756.000000,323.000000 
	C756.411194,325.655975 761.066040,328.434418 763.979858,327.440857 
	C766.575806,326.555664 769.000000,325.166656 771.500000,323.999969 
"/>
<path fill="none" opacity="1.000000" stroke="#000000" stroke-linecap="round" stroke-linejoin="round" stroke-width="5.000000"
	d="
M671.500000,223.500000 
	C671.334106,222.466202 672.039429,221.249725 670.017639,220.898514 
	C667.773865,220.508728 665.666687,219.333328 663.500000,218.500000 
"/>
<path fill="none" opacity="1.000000" stroke="#000000" stroke-linecap="round" stroke-linejoin="round" stroke-width="4.000000"
	d="
M650.500000,213.000000 
	C646.764282,213.776291 643.710693,211.823959 640.500000,210.500000 
"/>
<path fill="none" opacity="1.000000" stroke="#000000" stroke-linecap="round" stroke-linejoin="round" stroke-width="4.000000"
	d="
M433.500000,185.500000 
	C433.088165,186.127411 434.402283,187.261826 432.517487,187.598038 
	C430.112061,188.027115 427.833344,189.166687 425.500000,190.000015 
"/>
<path fill="none" opacity="1.000000" stroke="#000000" stroke-linecap="round" stroke-linejoin="round" stroke-width="5.000000"
	d="
M739.500000,245.500000 
	C736.454834,243.539474 733.345032,241.794373 729.500000,242.500000 
"/>
<path fill="none" opacity="1.000000" stroke="#000000" stroke-linecap="round" stroke-linejoin="round" stroke-width="5.000000"
	d="
M334.500000,221.500000 
	C337.808319,220.708237 340.660156,217.634125 344.500000,219.500000 
"/>
<path fill="none" opacity="1.000000" stroke="#000000" stroke-linecap="round" stroke-linejoin="round" stroke-width="4.000000"
	d="
M595.500000,195.000000 
	C597.833313,195.833328 600.112061,196.972900 602.517517,197.401947 
	C604.402283,197.738174 603.088135,198.872589 603.500000,199.500000 
"/>
<path fill="none" opacity="1.000000" stroke="#000000" stroke-linecap="round" stroke-linejoin="round" stroke-width="4.000000"
	d="
M410.500000,194.999985 
	C408.166656,195.833328 405.887970,196.972885 403.482513,197.401932 
	C401.597717,197.738144 402.911835,198.872589 402.500000,199.500000 
"/>
<path fill="none" opacity="1.000000" stroke="#000000" stroke-linecap="round" stroke-linejoin="round" stroke-width="5.000000"
	d="
M276.500000,242.500000 
	C272.661102,241.814819 269.543182,243.532852 266.500000,245.500000 
"/>
<path fill="none" opacity="1.000000" stroke="#000000" stroke-linecap="round" stroke-linejoin="round" stroke-width="4.000000"
	d="
M365.500000,210.500000 
	C362.833344,211.500000 360.166656,212.500000 357.500000,213.500000 
"/>
<path fill="none" opacity="1.000000" stroke="#000000" stroke-linecap="round" stroke-linejoin="round" stroke-width="4.000000"
	d="
M387.500000,203.000000 
	C385.067352,204.168411 382.143799,204.109512 380.000000,206.000000 
"/>
<path fill="none" opacity="1.000000" stroke="#000000" stroke-linecap="round" stroke-linejoin="round" stroke-width="4.000000"
	d="
M527.000000,169.500000 
	C528.025757,173.917160 532.513367,172.179901 535.000000,174.000000 
"/>
<path fill="none" opacity="1.000000" stroke="#000000" stroke-linecap="round" stroke-linejoin="round" stroke-width="4.000000"
	d="
M478.000000,171.500015 
	C475.750000,172.333344 473.500000,173.166672 471.250000,174.000015 
"/>
<path fill="none" opacity="1.000000" stroke="#000000" stroke-linecap="round" stroke-linejoin="round" stroke-width="4.000000"
	d="
M550.500000,179.500000 
	C553.280518,179.711243 555.491150,182.202148 558.500000,181.500000 
"/>
<path fill="none" opacity="1.000000" stroke="#000000" stroke-linecap="round" stroke-linejoin="round" stroke-width="5.000000"
	d="
M237.000000,296.000000 
	C235.844940,296.178253 235.028687,296.844269 235.023605,298.000092 
	C234.981812,307.502838 235.000000,317.005859 235.000000,327.000000 
	C239.987991,327.000000 244.558945,327.480072 248.983963,326.881470 
	C254.843231,326.088898 258.654297,320.334564 258.965607,312.498627 
	C259.368378,302.360535 254.196060,294.625885 243.495590,295.964813 
	C241.526428,296.211212 239.500000,296.000000 237.500000,296.000000 
"/>
</svg>