<svg version="1.1" id="Layer_1" xmlns="http://www.w3.org/2000/svg" xmlns:xlink="http://www.w3.org/1999/xlink" x="0px" y="0px"
	 width="100%" viewBox="0 0 807 898" enable-background="new 0 0 807 898" xml:space="preserve">
<path fill="none" opacity="1.000000" stroke="#000000" stroke-linecap="round" stroke-linejoin="round" stroke-width="4.000000"
	d="
M760.000000,193.000000 
	C756.488281,188.760742 751.067078,188.084503 746.451904,186.112503 
	C720.551697,175.045685 694.524231,164.274658 668.493896,153.514816 
	C635.685913,139.953430 602.700684,126.811249 570.045166,112.893959 
	C547.090759,103.111122 524.035706,93.582306 501.008789,83.978897 
	C476.041290,73.566147 451.180878,62.903019 426.059723,52.850731 
	C419.159668,50.089657 412.227966,47.240475 405.498138,44.003845 
	C404.010773,43.288506 402.949158,42.984734 400.932678,43.841602 
	C370.196136,56.902668 339.356110,69.721748 308.493774,82.484962 
	C275.688080,96.051842 242.700699,109.188759 210.045197,123.106049 
	C187.090790,132.888885 164.035721,142.417725 141.008804,152.021118 
	C116.041283,162.433853 91.208206,173.163483 66.047661,183.120438 
	C60.167019,185.447632 54.423595,188.206589 48.520668,190.552017 
	C47.486149,190.963074 46.188686,191.522018 46.000000,193.000000 
"/>
<path fill="none" opacity="1.000000" stroke="#000000" stroke-linecap="round" stroke-linejoin="round" stroke-width="4.000000"
	d="
M39.500000,732.000000 
	C46.359215,731.007874 51.268272,735.782715 56.968964,738.077148 
	C84.704277,749.239868 112.476952,760.331421 139.955627,772.103638 
	C162.892548,781.930054 185.964279,791.417725 208.991196,801.021118 
	C233.958694,811.433899 258.858521,822.000183 283.961761,832.095093 
	C307.307495,841.483154 330.304565,851.735168 353.509979,861.476196 
	C369.291046,868.100708 385.197632,874.427002 400.954559,881.107178 
	C402.625336,881.815491 403.372955,881.807617 405.043549,881.103333 
	C435.817383,868.128845 466.643860,855.278198 497.506195,842.515015 
	C530.311890,828.948181 563.299316,815.811218 595.954773,801.893921 
	C618.909241,792.111145 641.964294,782.582336 664.991211,772.978943 
	C689.958740,762.566162 714.848633,751.972595 739.919983,741.802673 
	C746.695129,739.054443 753.916870,736.927734 760.026794,732.537292 
	C761.946777,731.157654 764.345398,732.323242 766.500000,732.000000 
"/>
<path fill="none" opacity="1.000000" stroke="#000000" stroke-linecap="round" stroke-linejoin="round" stroke-width="4.000000"
	d="
M39.500000,193.000000 
	C46.359215,192.007843 51.268284,196.782684 56.968979,199.077072 
	C84.704269,210.239883 112.476952,221.331436 139.955612,233.103607 
	C162.892563,242.930069 185.964279,252.417725 208.991196,262.021118 
	C233.958710,272.433868 258.955688,282.777100 283.933167,293.160767 
	C306.967804,302.736786 329.951263,312.448669 352.993011,322.016815 
	C368.030029,328.260986 383.001282,334.663635 397.998230,341.004181 
	C399.712463,341.728943 401.402313,342.511444 402.800995,343.132782 
	C412.891235,338.911835 422.952484,334.722198 432.998474,330.496338 
	C450.004059,323.342957 466.965393,316.083191 484.008759,309.021179 
	C505.138763,300.265961 526.354309,291.717529 547.492798,282.982544 
	C562.196899,276.906433 576.799255,270.584106 591.508057,264.519592 
	C612.997009,255.659561 634.403687,246.603012 655.932495,237.834335 
	C670.170166,232.035370 684.309875,225.944977 698.495544,219.989426 
	C717.846741,211.865280 737.183777,203.706650 756.483337,195.460968 
	C759.727478,194.074875 762.756958,192.194595 766.500000,193.000000 
"/>
<path fill="none" opacity="1.000000" stroke="#000000" stroke-linecap="round" stroke-linejoin="round" stroke-width="4.000000"
	d="
M760.000000,732.000000 
	C756.488281,727.760742 751.067139,727.084412 746.451965,725.112427 
	C720.551697,714.045654 694.524292,703.274597 668.493896,692.514771 
	C635.685913,678.953491 602.700684,665.811279 570.045166,651.894043 
	C547.090759,642.111206 524.035706,632.582275 501.008789,622.978943 
	C476.041290,612.566101 451.183502,601.897034 426.052307,591.868958 
	C418.162506,588.720642 410.434723,585.095032 402.500000,582.000000 
	C395.000000,585.333374 387.570740,588.838074 379.986877,591.968262 
	C356.356049,601.721680 332.621857,611.225403 309.012207,621.029419 
	C284.028992,631.403931 259.044312,641.777100 234.066849,652.160767 
	C211.032166,661.736755 188.035721,671.417725 165.008804,681.021118 
	C140.041306,691.433899 115.103149,701.912415 90.067139,712.164001 
	C76.327858,717.789856 62.625664,723.570374 48.988506,729.473450 
	C47.684639,730.037781 46.471966,730.533020 46.000000,732.000000 
"/>
<path fill="none" opacity="1.000000" stroke="#000000" stroke-linecap="round" stroke-linejoin="round" stroke-width="4.000000"
	d="
M399.500000,750.500000 
	C396.894135,744.878418 392.121552,743.246460 386.511017,744.074646 
	C380.898956,744.903015 377.508759,748.089722 375.866455,753.962646 
	C372.612671,765.598450 378.996582,776.100525 390.006500,775.069397 
	C393.645599,774.728699 396.375244,773.297913 398.485382,770.489014 
	C399.585999,769.023987 400.383179,767.271240 402.500000,767.000000 
"/>
<path fill="none" opacity="1.000000" stroke="#000000" stroke-linecap="round" stroke-linejoin="round" stroke-width="5.000000"
	d="
M429.000000,701.000000 
	C433.000000,701.000000 437.002930,701.096863 440.999298,700.976624 
	C446.613220,700.807678 450.000000,697.538208 450.000000,692.500000 
	C450.000000,687.210327 446.893372,684.202454 440.999268,684.024414 
	C436.830109,683.898499 432.654144,684.000000 428.000000,684.000000 
	C428.000000,694.661194 428.000000,704.830627 428.000000,715.000000 
"/>
<path fill="none" opacity="1.000000" stroke="#000000" stroke-linecap="round" stroke-linejoin="round" stroke-width="5.000000"
	d="
M429.000000,165.000000 
	C433.000000,165.000000 437.002930,165.096893 440.999298,164.976669 
	C446.613220,164.807770 450.000000,161.538223 450.000000,156.500000 
	C450.000000,151.210327 446.893372,148.202438 440.999268,148.024399 
	C436.830109,147.898468 432.654144,148.000000 428.000000,148.000000 
	C428.000000,158.661209 428.000000,168.830597 428.000000,179.000000 
"/>
<path fill="none" opacity="1.000000" stroke="#000000" stroke-linecap="round" stroke-linejoin="round" stroke-width="5.000000"
	d="
M475.500000,473.000000 
	C479.500000,473.000000 483.506836,473.147827 487.498291,472.963318 
	C492.734802,472.721313 496.548737,469.068756 496.074554,463.993042 
	C495.588348,458.788300 492.824219,455.980835 487.000275,456.031982 
	C482.916931,456.067810 478.799042,455.492981 474.500000,456.629486 
	C474.500000,466.498596 474.500000,476.499298 474.500000,486.500000 
"/>
<path fill="none" opacity="1.000000" stroke="#000000" stroke-linecap="round" stroke-linejoin="round" stroke-width="5.000000"
	d="
M408.000000,225.000000 
	C412.000000,225.000000 416.002533,225.089920 419.999359,224.977417 
	C425.078674,224.834412 428.500000,221.340363 428.500000,216.500000 
	C428.500000,211.145493 425.618073,208.188599 419.999298,208.024002 
	C415.829926,207.901871 411.654144,208.000000 407.000000,208.000000 
	C407.000000,218.661209 407.000000,228.830597 407.000000,239.000000 
"/>
<path fill="none" opacity="1.000000" stroke="#000000" stroke-linecap="round" stroke-linejoin="round" stroke-width="4.000000"
	d="
M305.000000,220.500000 
	C300.925079,216.223465 296.695587,215.342300 293.000000,218.000000 
	C289.459656,220.546051 289.600189,223.760925 293.525482,225.954376 
	C295.206482,226.893707 297.120697,227.551285 299.010559,227.949875 
	C301.986145,228.577499 305.188629,228.874695 305.924530,232.515259 
	C306.292267,234.334595 306.118835,236.091766 304.075165,237.601715 
	C300.554657,240.202744 297.051208,239.762726 293.538879,238.399841 
	C292.084473,237.835464 291.023834,236.190445 290.500000,234.500000 
"/>
<path fill="none" opacity="1.000000" stroke="#000000" stroke-linecap="round" stroke-linejoin="round" stroke-width="4.000000"
	d="
M365.000000,756.500000 
	C360.925079,752.223450 356.695587,751.342346 353.000000,754.000000 
	C349.459656,756.546082 349.600189,759.760864 353.525513,761.954346 
	C355.206482,762.893677 357.120728,763.551208 359.010559,763.949890 
	C361.986145,764.577515 365.188629,764.874695 365.924500,768.515259 
	C366.292206,770.334595 366.118835,772.091736 364.075165,773.601685 
	C360.554657,776.202698 357.051208,775.762695 353.538849,774.399841 
	C352.084503,773.835388 351.023834,772.190430 350.500000,770.500000 
"/>
<path fill="none" opacity="1.000000" stroke="#000000" stroke-linecap="round" stroke-linejoin="round" stroke-width="4.000000"
	d="
M317.000000,756.500000 
	C312.925079,752.223450 308.695557,751.342285 304.999969,753.999939 
	C301.459625,756.546021 301.600189,759.760864 305.525513,761.954346 
	C307.206451,762.893738 309.120728,763.551208 311.010559,763.949890 
	C313.986145,764.577515 317.188629,764.874695 317.924530,768.515259 
	C318.292236,770.334595 318.118835,772.091736 316.075165,773.601685 
	C312.554657,776.202698 309.051208,775.762756 305.538849,774.399841 
	C304.084473,773.835449 303.023834,772.190430 302.500000,770.500000 
"/>
<path fill="none" opacity="1.000000" stroke="#000000" stroke-linecap="round" stroke-linejoin="round" stroke-width="4.000000"
	d="
M405.500000,697.500000 
	C404.133606,693.752930 400.976959,692.205811 397.518951,692.648193 
	C393.721649,693.134033 390.592560,695.277283 389.470856,699.492249 
	C388.362000,703.659058 388.656738,707.899414 390.626343,711.429504 
	C394.155182,717.754089 402.288025,716.566650 406.000000,709.500000 
"/>
<path fill="none" opacity="1.000000" stroke="#000000" stroke-linecap="round" stroke-linejoin="round" stroke-width="4.000000"
	d="
M405.500000,161.500000 
	C404.133606,157.752914 400.976959,156.205765 397.518951,156.648193 
	C393.721649,157.134033 390.592499,159.277222 389.470825,163.492233 
	C388.361938,167.659042 388.656708,171.899460 390.626312,175.429520 
	C394.155212,181.754105 402.288025,180.566681 406.000000,173.500000 
"/>
<path fill="none" opacity="1.000000" stroke="#000000" stroke-linecap="round" stroke-linejoin="round" stroke-width="4.000000"
	d="
M363.000000,703.000000 
	C370.211609,704.360291 377.887909,703.720581 381.093872,701.433044 
	C379.633270,699.185730 380.010651,696.196533 377.063110,694.396667 
	C371.019989,690.706360 364.235718,693.435974 362.999969,700.500000 
	C361.463318,709.284363 363.157318,712.889465 370.006348,714.979187 
	C374.556702,716.367493 377.635376,714.152710 380.000000,710.500000 
"/>
<path fill="none" opacity="1.000000" stroke="#000000" stroke-linecap="round" stroke-linejoin="round" stroke-width="4.000000"
	d="
M363.000000,167.000000 
	C370.211609,168.360275 377.887909,167.720581 381.093872,165.433014 
	C379.633270,163.185760 380.010620,160.196548 377.063141,158.396622 
	C371.020020,154.706375 364.235687,157.436005 362.999969,164.500000 
	C361.463287,173.284348 363.157288,176.889526 370.006348,178.979218 
	C374.556671,180.367538 377.635376,178.152695 380.000000,174.500000 
"/>
<path fill="none" opacity="1.000000" stroke="#000000" stroke-linecap="round" stroke-linejoin="round" stroke-width="4.000000"
	d="
M326.000000,148.000000 
	C326.000000,155.333328 325.988861,162.666687 326.003571,170.000000 
	C326.014740,175.570511 327.094635,176.961899 333.001770,178.994873 
	C337.218628,180.446152 339.918091,177.744415 341.898743,174.928772 
	C344.722076,170.915146 343.670532,161.573212 340.110657,158.855072 
	C336.898224,156.402237 334.271423,156.168091 330.987274,157.976913 
	C329.686096,158.693573 328.753387,160.173447 327.000000,160.000000 
"/>
<path fill="none" opacity="1.000000" stroke="#000000" stroke-linecap="round" stroke-linejoin="round" stroke-width="4.000000"
	d="
M326.000000,684.000000 
	C326.000000,691.333313 325.988892,698.666687 326.003601,706.000000 
	C326.014771,711.570496 327.094635,712.961914 333.001770,714.994873 
	C337.218628,716.446167 339.918091,713.744385 341.898743,710.928772 
	C344.722046,706.915222 343.670593,697.573242 340.110626,694.855103 
	C336.898193,692.402283 334.271454,692.168213 330.987274,693.976929 
	C329.686127,694.693604 328.753387,696.173462 327.000000,696.000000 
"/>
<path fill="none" opacity="1.000000" stroke="#000000" stroke-linecap="round" stroke-linejoin="round" stroke-width="4.000000"
	d="
M255.000000,475.000000 
	C259.463165,476.161224 264.007019,475.429901 268.499664,475.412415 
	C271.703094,475.399963 272.728302,473.325531 271.500000,470.500000 
	C269.992371,467.031952 265.116516,463.952484 262.000000,464.500031 
	C257.205933,465.342316 254.317001,468.984680 253.945694,473.995972 
	C253.660294,477.847473 253.383133,481.526367 256.494873,484.505371 
	C260.934723,488.755920 265.257660,487.860138 268.986908,484.983002 
	C270.491058,483.822540 271.416321,481.916199 273.500000,481.500000 
"/>
<path fill="none" opacity="1.000000" stroke="#000000" stroke-linecap="round" stroke-linejoin="round" stroke-width="4.000000"
	d="
M407.000000,475.000000 
	C411.469635,475.986328 416.006256,475.519989 420.498383,475.423859 
	C423.691956,475.355499 425.119843,472.169647 423.500000,469.500000 
	C421.782440,466.669312 415.907501,463.512329 413.525818,464.558746 
	C408.621307,466.713593 405.771515,468.549133 406.469727,474.753418 
	C406.682953,476.648102 405.708893,478.389648 406.389069,480.535156 
	C408.730377,487.920166 416.304077,489.726562 422.000214,484.000214 
	C422.665100,483.331787 423.333344,482.666656 424.000000,482.000000 
"/>
<path fill="none" opacity="1.000000" stroke="#000000" stroke-linecap="round" stroke-linejoin="round" stroke-width="4.000000"
	d="
M575.000000,475.000000 
	C579.469666,475.986328 584.006226,475.520020 588.498352,475.423859 
	C591.691956,475.355530 593.119812,472.169647 591.500000,469.500031 
	C589.782410,466.669312 583.907471,463.512299 581.525818,464.558716 
	C576.621277,466.713531 573.771606,468.549133 574.469788,474.753387 
	C574.683044,476.648071 573.708923,478.389648 574.389160,480.535156 
	C576.730469,487.920166 584.304077,489.726562 590.000244,484.000214 
	C590.665100,483.331787 591.333313,482.666687 592.000000,482.000000 
"/>
<path fill="none" opacity="1.000000" stroke="#000000" stroke-linecap="round" stroke-linejoin="round" stroke-width="4.000000"
	d="
M529.000000,703.000000 
	C533.469666,703.986328 538.006226,703.520020 542.498352,703.423889 
	C545.691956,703.355530 547.119812,700.169617 545.500000,697.500000 
	C543.782471,694.669312 537.907532,691.512390 535.525818,692.558777 
	C530.621338,694.713562 527.771606,696.549072 528.469788,702.753418 
	C528.682983,704.648132 527.708923,706.389587 528.389160,708.535156 
	C530.730408,715.920166 538.304077,717.726562 544.000244,712.000244 
	C544.665161,711.331787 545.333313,710.666687 546.000000,710.000000 
"/>
<path fill="none" opacity="1.000000" stroke="#000000" stroke-linecap="round" stroke-linejoin="round" stroke-width="4.000000"
	d="
M529.000000,167.000000 
	C533.469666,167.986328 538.006226,167.520004 542.498352,167.423843 
	C545.691956,167.355469 547.119812,164.169662 545.500000,161.500000 
	C543.782471,158.669312 537.907471,155.512360 535.525818,156.558762 
	C530.621399,158.713608 527.771606,160.549057 528.469788,166.753403 
	C528.682983,168.648102 527.708984,170.389618 528.389160,172.535141 
	C530.730408,179.920151 538.304077,181.726547 544.000244,176.000214 
	C544.665100,175.331787 545.333313,174.666672 546.000000,174.000000 
"/>
<path fill="none" opacity="1.000000" stroke="#000000" stroke-linecap="round" stroke-linejoin="round" stroke-width="4.000000"
	d="
M473.000000,756.000000 
	C471.724304,756.051392 470.940765,755.187317 469.978241,754.531921 
	C465.089996,751.203735 459.634857,752.978760 457.500031,758.500000 
	C454.887512,765.256836 458.094482,773.006042 463.974091,775.073669 
	C467.827179,776.428528 469.759552,772.467712 473.000000,772.500000 
"/>
<path fill="none" opacity="1.000000" stroke="#000000" stroke-linecap="round" stroke-linejoin="round" stroke-width="4.000000"
	d="
M481.000000,227.000000 
	C485.469635,227.986328 490.006256,227.520004 494.498383,227.423828 
	C497.691956,227.355469 499.119843,224.169647 497.500000,221.500000 
	C495.782410,218.669312 489.907501,215.512344 487.525818,216.558762 
	C482.621338,218.713608 479.771545,220.549118 480.469757,226.753403 
	C480.682983,228.648117 479.708954,230.389618 480.389130,232.535141 
	C482.730408,239.920151 490.304108,241.726562 496.000244,236.000244 
	C496.665161,235.331818 497.333344,234.666672 498.000000,234.000015 
"/>
<path fill="none" opacity="1.000000" stroke="#000000" stroke-linecap="round" stroke-linejoin="round" stroke-width="4.000000"
	d="
M296.500000,469.000000 
	C295.833344,468.666656 295.036926,468.469025 294.522125,467.976868 
	C292.092560,465.653992 290.061707,463.665192 285.931305,465.329498 
	C281.369446,467.167725 280.591675,470.826477 280.120178,474.515350 
	C279.478729,479.533356 281.346313,483.779999 285.981232,486.531586 
	C287.927429,487.686981 289.720093,487.911499 291.485565,486.482178 
	C293.409973,484.924255 296.633331,485.499359 297.178009,481.524384 
	C297.962280,475.800903 296.444153,470.140503 297.500000,464.500000 
"/>
<path fill="none" opacity="1.000000" stroke="#000000" stroke-linecap="round" stroke-linejoin="round" stroke-width="5.000000"
	d="
M353.000000,157.000000 
	C353.000000,165.833328 352.883148,174.668991 353.058472,183.498840 
	C353.127045,186.950424 351.821930,188.934189 348.495270,189.470627 
	C346.549255,189.784393 347.911835,188.127411 347.500000,187.500000 
"/>
<path fill="none" opacity="1.000000" stroke="#000000" stroke-linecap="round" stroke-linejoin="round" stroke-width="5.000000"
	d="
M353.000000,693.000000 
	C353.000000,701.833313 352.883148,710.669006 353.058502,719.498840 
	C353.127045,722.950439 351.821930,724.934204 348.495270,725.470581 
	C346.549255,725.784424 347.911835,724.127441 347.500000,723.500000 
"/>
<path fill="none" opacity="1.000000" stroke="#000000" stroke-linecap="round" stroke-linejoin="round" stroke-width="4.000000"
	d="
M654.500000,462.500000 
	C660.153687,466.322815 667.215027,467.478577 673.156311,472.034454 
	C667.184875,476.283722 660.217041,477.067413 654.500000,480.500000 
"/>
<path fill="none" opacity="1.000000" stroke="#000000" stroke-linecap="round" stroke-linejoin="round" stroke-width="4.000000"
	d="
M682.500000,462.500000 
	C688.153687,466.322815 695.215027,467.478577 701.156311,472.034454 
	C695.184875,476.283722 688.217041,477.067413 682.500000,480.500000 
"/>
<path fill="none" opacity="1.000000" stroke="#000000" stroke-linecap="round" stroke-linejoin="round" stroke-width="4.000000"
	d="
M636.500000,690.500000 
	C642.153687,694.322815 649.215027,695.478577 655.156311,700.034424 
	C649.184875,704.283691 642.217041,705.067444 636.500000,708.500000 
"/>
<path fill="none" opacity="1.000000" stroke="#000000" stroke-linecap="round" stroke-linejoin="round" stroke-width="4.000000"
	d="
M608.500000,154.500000 
	C614.153687,158.322830 621.215027,159.478577 627.156311,164.034454 
	C621.184875,168.283722 614.217041,169.067413 608.500000,172.500000 
"/>
<path fill="none" opacity="1.000000" stroke="#000000" stroke-linecap="round" stroke-linejoin="round" stroke-width="4.000000"
	d="
M636.500000,154.500000 
	C642.153687,158.322830 649.215027,159.478577 655.156311,164.034454 
	C649.184875,168.283722 642.217041,169.067413 636.500000,172.500000 
"/>
<path fill="none" opacity="1.000000" stroke="#000000" stroke-linecap="round" stroke-linejoin="round" stroke-width="4.000000"
	d="
M608.500000,690.500000 
	C614.153687,694.322815 621.215027,695.478577 627.156311,700.034424 
	C621.184875,704.283691 614.217041,705.067444 608.500000,708.500000 
"/>
<path fill="none" opacity="1.000000" stroke="#000000" stroke-linecap="round" stroke-linejoin="round" stroke-width="4.000000"
	d="
M396.000000,221.000000 
	C392.175842,216.628876 389.704437,215.322968 384.491791,217.480194 
	C382.403137,218.344589 381.124329,220.004028 381.117950,222.000381 
	C381.111969,223.876450 382.167786,225.555145 384.489716,226.048431 
	C386.538849,226.483795 388.469421,227.453430 390.507111,227.972046 
	C393.618164,228.763840 396.889313,229.530869 396.926605,233.500687 
	C396.961090,237.174606 393.845856,238.090302 390.999908,238.999695 
	C386.272736,240.510208 383.081879,238.662201 381.500000,233.500000 
"/>
<path fill="none" opacity="1.000000" stroke="#000000" stroke-linecap="round" stroke-linejoin="round" stroke-width="4.000000"
	d="
M370.000000,227.000000 
	C366.833344,227.500000 363.673492,228.049622 360.498199,228.487000 
	C356.821808,228.993423 353.515625,231.996964 353.999969,234.500015 
	C354.549713,237.341278 359.921478,240.325546 363.000000,239.500015 
	C370.000275,237.622818 371.642761,235.198410 370.918915,227.507629 
	C370.881958,227.115036 370.788452,226.964127 370.927826,226.479248 
	C372.016785,222.690262 372.076172,219.292221 367.516205,217.459686 
	C363.162048,215.709900 359.322388,216.321548 356.059296,220.051865 
	C355.274567,220.948944 354.855469,221.870224 353.500000,221.500000 
"/>
<path fill="none" opacity="1.000000" stroke="#000000" stroke-linecap="round" stroke-linejoin="round" stroke-width="4.000000"
	d="
M384.000000,474.999969 
	C380.833344,475.499969 377.673492,476.049591 374.498199,476.486969 
	C370.821808,476.993408 367.515656,479.996948 368.000000,482.500000 
	C368.549774,485.341248 373.921478,488.325531 377.000000,487.500000 
	C384.000244,485.622803 385.642731,483.198425 384.918884,475.507629 
	C384.881958,475.115021 384.788452,474.964142 384.927826,474.479248 
	C386.016785,470.690247 386.076172,467.292175 381.516205,465.459717 
	C377.162048,463.709930 373.322357,464.321533 370.059296,468.051880 
	C369.274567,468.948975 368.855469,469.870209 367.500000,469.500000 
"/>
<path fill="none" opacity="1.000000" stroke="#000000" stroke-linecap="round" stroke-linejoin="round" stroke-width="4.000000"
	d="
M452.500000,227.000000 
	C449.333344,227.500000 446.175201,228.064850 442.997864,228.483704 
	C438.964081,229.015457 436.326202,231.814743 436.999969,235.000000 
	C437.580933,237.746475 442.086792,240.535355 444.959930,239.398727 
	C447.351868,238.452454 449.895508,237.793777 452.096405,236.127335 
	C453.355438,235.174042 454.038300,234.527222 454.016724,232.999771 
	C453.964935,229.333817 454.220032,225.650009 453.944031,222.004242 
	C453.602417,217.491989 446.319153,214.871460 441.533508,217.559647 
	C440.148499,218.337601 439.166656,219.833344 438.000000,221.000000 
"/>
<path fill="none" opacity="1.000000" stroke="#000000" stroke-linecap="round" stroke-linejoin="round" stroke-width="5.000000"
	d="
M524.000000,239.000000 
	C524.000000,234.500000 524.016235,229.999924 523.996399,225.500015 
	C523.961731,217.629211 518.840942,214.676193 511.976074,218.456573 
	C510.889435,219.054993 510.013885,220.310165 508.500000,220.000000 
"/>
<path fill="none" opacity="1.000000" stroke="#000000" stroke-linecap="round" stroke-linejoin="round" stroke-width="5.000000"
	d="
M281.000000,239.000000 
	C281.000000,234.500000 281.016235,229.999924 280.996399,225.500015 
	C280.961731,217.629227 275.840973,214.676208 268.976105,218.456589 
	C267.889435,219.055008 267.013885,220.310165 265.500000,220.000000 
"/>
<path fill="none" opacity="1.000000" stroke="#000000" stroke-linecap="round" stroke-linejoin="round" stroke-width="4.000000"
	d="
M449.500000,487.500000 
	C449.500000,482.333344 449.662384,477.160278 449.459473,472.001587 
	C449.197754,465.347717 444.353607,462.984283 438.452209,465.903381 
	C434.366821,467.924133 433.469391,471.045135 433.494141,475.000031 
	C433.520203,479.166534 433.500000,483.333344 433.500000,487.500000 
"/>
<path fill="none" opacity="1.000000" stroke="#000000" stroke-linecap="round" stroke-linejoin="round" stroke-width="5.000000"
	d="
M345.000000,239.000000 
	C345.000000,234.500000 344.886749,229.996201 345.037476,225.501251 
	C345.148651,222.185593 344.348328,219.187973 341.451752,217.587326 
	C338.362854,215.880447 335.187866,216.416595 332.467224,218.965012 
	C331.857025,219.536560 330.833344,219.666672 330.000000,220.000000 
"/>
<path fill="none" opacity="1.000000" stroke="#000000" stroke-linecap="round" stroke-linejoin="round" stroke-width="5.000000"
	d="
M426.000000,775.000000 
	C426.000000,770.166687 426.003448,765.333313 425.999146,760.500000 
	C425.993011,753.563416 421.147827,750.716919 414.990631,753.982300 
	C413.676178,754.679382 412.753387,756.173462 411.000000,756.000000 
"/>
<path fill="none" opacity="1.000000" stroke="#000000" stroke-linecap="round" stroke-linejoin="round" stroke-width="5.000000"
	d="
M293.000000,775.000000 
	C293.000000,770.166687 293.015411,765.333252 292.996307,760.500000 
	C292.968964,753.582642 288.113861,750.735291 281.990601,753.982239 
	C280.676147,754.679382 279.753387,756.173462 278.000000,756.000000 
"/>
<path fill="none" opacity="1.000000" stroke="#000000" stroke-linecap="round" stroke-linejoin="round" stroke-width="5.000000"
	d="
M308.000000,465.000000 
	C308.000000,469.666656 308.038910,474.333771 307.987152,478.999847 
	C307.948792,482.462769 308.983826,485.003571 312.462769,486.582031 
	C315.747620,488.072479 318.136444,486.987274 320.484650,484.982025 
	C321.418152,484.184875 322.199188,483.215454 323.500000,483.000000 
"/>
<path fill="none" opacity="1.000000" stroke="#000000" stroke-linecap="round" stroke-linejoin="round" stroke-width="4.000000"
	d="
M447.500000,743.500000 
	C447.500000,754.166687 447.500000,764.833313 447.500000,775.500000 
"/>
<path fill="none" opacity="1.000000" stroke="#000000" stroke-linecap="round" stroke-linejoin="round" stroke-width="5.000000"
	d="
M231.000000,456.000000 
	C231.000000,466.333344 231.000000,476.666656 231.000000,487.000000 
"/>
<path fill="none" opacity="1.000000" stroke="#000000" stroke-linecap="round" stroke-linejoin="round" stroke-width="5.000000"
	d="
M396.000000,456.000000 
	C396.000000,466.333344 396.000000,476.666656 396.000000,487.000000 
"/>
<path fill="none" opacity="1.000000" stroke="#000000" stroke-linecap="round" stroke-linejoin="round" stroke-width="5.000000"
	d="
M265.000000,148.000000 
	C265.000000,158.333328 265.000000,168.666672 265.000000,179.000000 
"/>
<path fill="none" opacity="1.000000" stroke="#000000" stroke-linecap="round" stroke-linejoin="round" stroke-width="5.000000"
	d="
M265.000000,684.000000 
	C265.000000,694.333313 265.000000,704.666687 265.000000,715.000000 
"/>
<path fill="none" opacity="1.000000" stroke="#000000" stroke-linecap="round" stroke-linejoin="round" stroke-width="4.000000"
	d="
M419.999969,381.500000 
	C415.999969,373.666687 411.854034,365.902557 408.086761,357.958832 
	C406.920105,355.498779 405.621094,353.156342 403.000000,353.156342 
	C400.378906,353.156342 399.079926,355.498810 397.913239,357.958862 
	C394.145966,365.902557 390.000000,373.666656 386.000000,381.500000 
"/>
<path fill="none" opacity="1.000000" stroke="#000000" stroke-linecap="round" stroke-linejoin="round" stroke-width="4.000000"
	d="
M420.000000,544.000000 
	C414.167206,552.966980 411.640686,563.917725 404.280273,571.968140 
	C403.853516,571.821899 403.426758,571.675598 403.000000,571.529297 
	C403.000000,568.686218 403.000000,565.843079 403.000000,563.000000 
"/>
<path fill="none" opacity="1.000000" stroke="#000000" stroke-linecap="round" stroke-linejoin="round" stroke-width="4.000000"
	d="
M386.000000,544.000000 
	C389.666656,551.166687 393.300232,558.350525 397.018921,565.490173 
	C398.236115,567.827148 398.834808,570.800659 402.005249,571.475342 
	C403.787262,571.854492 402.913910,573.149292 402.956085,574.002197 
	C403.079498,576.496094 403.000000,579.000000 403.000000,581.500000 
"/>
<path fill="none" opacity="1.000000" stroke="#000000" stroke-linecap="round" stroke-linejoin="round" stroke-width="5.000000"
	d="
M536.000000,208.500000 
	C534.831055,210.360733 534.988586,212.437927 534.994690,214.500015 
	C535.010498,219.833298 535.000000,225.166672 535.000000,230.500000 
	C535.000000,237.662079 535.000000,237.662079 541.500000,240.000000 
"/>
<path fill="none" opacity="1.000000" stroke="#000000" stroke-linecap="round" stroke-linejoin="round" stroke-width="5.000000"
	d="
M416.000000,684.500000 
	C414.831085,686.360718 414.988556,688.437927 414.994690,690.500000 
	C415.010498,695.833252 415.000000,701.166687 415.000000,706.500000 
	C415.000000,713.662109 415.000000,713.662109 421.500000,716.000000 
"/>
<path fill="none" opacity="1.000000" stroke="#000000" stroke-linecap="round" stroke-linejoin="round" stroke-width="5.000000"
	d="
M416.000000,148.500000 
	C414.831085,150.360733 414.988586,152.437927 414.994720,154.500015 
	C415.010529,159.833298 415.000000,165.166672 415.000000,170.500000 
	C415.000000,177.662079 415.000000,177.662079 421.500000,180.000000 
"/>
<path fill="none" opacity="1.000000" stroke="#000000" stroke-linecap="round" stroke-linejoin="round" stroke-width="5.000000"
	d="
M462.000000,456.500000 
	C460.831085,458.360748 460.988556,460.437927 460.994690,462.500031 
	C461.010498,467.833313 461.000000,473.166656 461.000000,478.500000 
	C461.000000,485.662079 461.000000,485.662079 467.500000,488.000000 
"/>
<path fill="none" opacity="1.000000" stroke="#000000" stroke-linecap="round" stroke-linejoin="round" stroke-width="4.000000"
	d="
M619.000000,456.500000 
	C617.841309,465.314606 618.719421,474.167725 618.559326,483.001068 
	C618.511536,485.636200 619.977844,487.379120 623.000000,487.000000 
"/>
<path fill="none" opacity="1.000000" stroke="#000000" stroke-linecap="round" stroke-linejoin="round" stroke-width="4.000000"
	d="
M573.000000,148.500000 
	C571.841309,157.314621 572.719482,166.167740 572.559387,175.001083 
	C572.511658,177.636200 573.977844,179.379105 577.000000,179.000000 
"/>
<path fill="none" opacity="1.000000" stroke="#000000" stroke-linecap="round" stroke-linejoin="round" stroke-width="4.000000"
	d="
M573.000000,684.500000 
	C571.841309,693.314636 572.719482,702.167725 572.559387,711.001099 
	C572.511658,713.636169 573.977844,715.379089 577.000000,715.000000 
"/>
<path fill="none" opacity="1.000000" stroke="#000000" stroke-linecap="round" stroke-linejoin="round" stroke-width="4.000000"
	d="
M581.500000,692.000000 
	C584.395813,692.155090 584.199951,694.889404 584.903015,696.541260 
	C586.694519,700.750549 588.215942,705.109009 589.395996,709.527771 
	C589.882629,711.350037 590.885376,712.498779 592.000000,713.750000 
"/>
<path fill="none" opacity="1.000000" stroke="#000000" stroke-linecap="round" stroke-linejoin="round" stroke-width="4.000000"
	d="
M581.500000,156.000000 
	C584.395813,156.155106 584.199951,158.889374 584.902954,160.541290 
	C586.694458,164.750580 588.215942,169.109009 589.395935,173.527786 
	C589.882629,175.350006 590.885376,176.498795 592.000000,177.750000 
"/>
<path fill="none" opacity="1.000000" stroke="#000000" stroke-linecap="round" stroke-linejoin="round" stroke-width="4.000000"
	d="
M627.500000,464.000000 
	C630.395813,464.155090 630.199890,466.889374 630.902954,468.541290 
	C632.694458,472.750580 634.215942,477.108978 635.395996,481.527771 
	C635.882629,483.349976 636.885376,484.498779 638.000000,485.750000 
"/>
<path fill="none" opacity="1.000000" stroke="#000000" stroke-linecap="round" stroke-linejoin="round" stroke-width="4.000000"
	d="
M602.500000,692.000000 
	C601.888489,692.573547 600.831299,692.006775 600.414490,693.475708 
	C597.951965,702.153442 593.757690,710.218140 591.348328,718.958191 
	C590.592285,721.700562 589.170532,725.170837 585.000000,725.000000 
"/>
<path fill="none" opacity="1.000000" stroke="#000000" stroke-linecap="round" stroke-linejoin="round" stroke-width="4.000000"
	d="
M648.500000,464.000000 
	C647.888489,464.573578 646.831299,464.006775 646.414490,465.475739 
	C643.951965,474.153442 639.757690,482.218109 637.348267,490.958160 
	C636.592224,493.700562 635.170532,497.170837 631.000000,497.000000 
"/>
<path fill="none" opacity="1.000000" stroke="#000000" stroke-linecap="round" stroke-linejoin="round" stroke-width="4.000000"
	d="
M602.500000,156.000000 
	C601.888489,156.573578 600.831299,156.006760 600.414490,157.475723 
	C597.951965,166.153427 593.757690,174.218109 591.348267,182.958160 
	C590.592285,185.700577 589.170532,189.170853 585.000000,189.000000 
"/>
<path fill="none" opacity="1.000000" stroke="#000000" stroke-linecap="round" stroke-linejoin="round" stroke-width="4.000000"
	d="
M258.500000,692.000000 
	C257.589172,692.422485 256.767334,692.413391 256.372803,693.967712 
	C255.039856,699.219116 253.034668,704.296692 251.584351,709.523376 
	C251.174835,710.999207 250.463425,712.002930 249.500000,713.000000 
"/>
<path fill="none" opacity="1.000000" stroke="#000000" stroke-linecap="round" stroke-linejoin="round" stroke-width="4.000000"
	d="
M258.500000,156.000000 
	C257.589172,156.422501 256.767365,156.413391 256.372833,157.967712 
	C255.039856,163.219086 253.034622,168.296692 251.584305,173.523392 
	C251.174774,174.999237 250.463425,176.002914 249.500000,177.000000 
"/>
<path fill="none" opacity="1.000000" stroke="#000000" stroke-linecap="round" stroke-linejoin="round" stroke-width="4.000000"
	d="
M224.500000,464.000000 
	C223.589157,464.422485 222.767380,464.413391 222.372833,465.967712 
	C221.039871,471.219116 219.034668,476.296722 217.584335,481.523407 
	C217.174820,482.999237 216.463425,484.002899 215.500000,485.000000 
"/>
<path fill="none" opacity="1.000000" stroke="#000000" stroke-linecap="round" stroke-linejoin="round" stroke-width="4.000000"
	d="
M503.000000,712.000000 
	C504.275696,711.948608 505.059753,712.811523 506.021881,713.467957 
	C510.704529,716.662598 516.163757,715.284058 518.412964,709.963196 
	C520.023804,706.152466 520.475220,702.003296 518.501587,697.999207 
	C515.739868,692.396240 511.170410,691.273926 506.017731,695.024353 
	C505.072815,695.712219 504.450317,696.900635 503.000000,696.500000 
"/>
<path fill="none" opacity="1.000000" stroke="#000000" stroke-linecap="round" stroke-linejoin="round" stroke-width="4.000000"
	d="
M549.000000,468.500000 
	C550.027466,468.652069 550.714233,468.189178 551.536438,467.546631 
	C554.002502,465.619354 556.234436,463.365295 560.049561,465.407410 
	C564.493713,467.786224 565.775391,471.830841 565.764832,475.999390 
	C565.758911,478.343445 565.496521,481.295227 563.536011,483.531586 
	C559.633118,487.983704 556.575500,488.433990 551.485596,485.021515 
	C550.756470,484.532715 549.833313,484.333313 549.000000,484.000000 
"/>
<path fill="none" opacity="1.000000" stroke="#000000" stroke-linecap="round" stroke-linejoin="round" stroke-width="4.000000"
	d="
M503.000000,160.500000 
	C504.027496,160.652069 504.714233,160.189163 505.536407,159.546585 
	C508.002441,157.619324 510.234436,155.365295 514.049561,157.407410 
	C518.493713,159.786194 519.775452,163.830841 519.764893,167.999405 
	C519.758972,170.343414 519.496460,173.295212 517.536011,175.531555 
	C513.633118,179.983688 510.575531,180.433990 505.485565,177.021530 
	C504.756439,176.532730 503.833344,176.333328 503.000000,176.000000 
"/>
<path fill="none" opacity="1.000000" stroke="#000000" stroke-linecap="round" stroke-linejoin="round" stroke-width="5.000000"
	d="
M437.000000,753.000000 
	C437.000000,760.333313 437.000000,767.666687 437.000000,775.000000 
"/>
<path fill="none" opacity="1.000000" stroke="#000000" stroke-linecap="round" stroke-linejoin="round" stroke-width="5.000000"
	d="
M341.000000,753.000000 
	C341.000000,760.333313 341.000000,767.666687 341.000000,775.000000 
"/>
<path fill="none" opacity="1.000000" stroke="#000000" stroke-linecap="round" stroke-linejoin="round" stroke-width="5.000000"
	d="
M335.000000,465.000000 
	C335.000000,472.333344 335.000000,479.666656 335.000000,487.000000 
"/>
<path fill="none" opacity="1.000000" stroke="#000000" stroke-linecap="round" stroke-linejoin="round" stroke-width="5.000000"
	d="
M523.500000,753.500000 
	C522.355896,760.643921 523.316589,767.836792 523.000000,775.000000 
"/>
<path fill="none" opacity="1.000000" stroke="#000000" stroke-linecap="round" stroke-linejoin="round" stroke-width="4.000000"
	d="
M343.500000,464.500000 
	C345.500000,469.833344 347.649902,475.117554 349.422058,480.525543 
	C350.078735,482.529572 350.750916,484.282776 352.500000,485.500000 
"/>
<path fill="none" opacity="1.000000" stroke="#000000" stroke-linecap="round" stroke-linejoin="round" stroke-width="4.000000"
	d="
M361.500000,464.500000 
	C359.293854,468.057007 358.474792,472.160278 357.046692,476.017273 
	C355.653717,479.779358 354.533203,483.635559 352.250000,487.000000 
"/>
<path fill="none" opacity="1.000000" stroke="#000000" stroke-linecap="round" stroke-linejoin="round" stroke-width="4.000000"
	d="
M132.000000,461.500000 
	C131.104630,464.490295 128.066284,464.380981 125.955872,465.409454 
	C121.802856,467.433228 117.361183,468.863586 113.261131,472.072968 
	C118.537392,476.425232 125.788300,476.923401 131.500000,480.500000 
"/>
<path fill="none" opacity="1.000000" stroke="#000000" stroke-linecap="round" stroke-linejoin="round" stroke-width="4.000000"
	d="
M166.000000,153.500000 
	C165.104630,156.490280 162.066391,156.381424 159.955856,157.409363 
	C155.802399,159.432358 151.361649,160.864548 147.260925,164.072815 
	C152.537384,168.425217 159.788300,168.923401 165.500000,172.500000 
"/>
<path fill="none" opacity="1.000000" stroke="#000000" stroke-linecap="round" stroke-linejoin="round" stroke-width="4.000000"
	d="
M160.000000,461.500000 
	C159.104630,464.490295 156.066376,464.381409 153.955841,465.409363 
	C149.802383,467.432373 145.361649,468.864532 141.260925,472.072815 
	C146.537384,476.425232 153.788300,476.923401 159.500000,480.500000 
"/>
<path fill="none" opacity="1.000000" stroke="#000000" stroke-linecap="round" stroke-linejoin="round" stroke-width="4.000000"
	d="
M194.000000,689.500000 
	C193.104630,692.490295 190.066376,692.381409 187.955841,693.409363 
	C183.802399,695.432373 179.361649,696.864563 175.260925,700.072815 
	C180.537384,704.425232 187.788300,704.923401 193.500000,708.500000 
"/>
<path fill="none" opacity="1.000000" stroke="#000000" stroke-linecap="round" stroke-linejoin="round" stroke-width="4.000000"
	d="
M194.000000,153.500000 
	C193.104630,156.490280 190.066391,156.381424 187.955856,157.409363 
	C183.802383,159.432343 179.361649,160.864548 175.260925,164.072815 
	C180.537384,168.425217 187.788300,168.923401 193.500000,172.500000 
"/>
<path fill="none" opacity="1.000000" stroke="#000000" stroke-linecap="round" stroke-linejoin="round" stroke-width="4.000000"
	d="
M227.499985,692.500000 
	C229.166656,698.166687 230.941254,703.805603 232.410416,709.523010 
	C232.709991,710.688843 233.417526,711.216125 234.000000,712.000000 
"/>
<path fill="none" opacity="1.000000" stroke="#000000" stroke-linecap="round" stroke-linejoin="round" stroke-width="4.000000"
	d="
M227.500000,156.500000 
	C229.166672,162.166672 230.941238,167.805603 232.410416,173.523026 
	C232.710007,174.688858 233.417526,175.216141 234.000000,176.000000 
"/>
<path fill="none" opacity="1.000000" stroke="#000000" stroke-linecap="round" stroke-linejoin="round" stroke-width="4.000000"
	d="
M193.500015,464.500000 
	C195.166672,470.166656 196.941269,475.805603 198.410446,481.523010 
	C198.710022,482.688843 199.417526,483.216156 200.000000,484.000000 
"/>
<path fill="none" opacity="1.000000" stroke="#000000" stroke-linecap="round" stroke-linejoin="round" stroke-width="4.000000"
	d="
M166.000000,689.500000 
	C165.104630,692.490295 162.066299,692.381042 159.955856,693.409424 
	C155.802887,695.433228 151.360580,696.862366 147.261215,700.073059 
	C152.537384,704.425232 159.788300,704.923401 165.500000,708.500000 
"/>
<path fill="none" opacity="1.000000" stroke="#000000" stroke-linecap="round" stroke-linejoin="round" stroke-width="5.000000"
	d="
M465.000000,217.000000 
	C465.000000,224.333328 465.000000,231.666672 465.000000,239.000000 
"/>
<path fill="none" opacity="1.000000" stroke="#000000" stroke-linecap="round" stroke-linejoin="round" stroke-width="4.000000"
	d="
M459.500000,692.500000 
	C460.492584,700.166687 458.971924,707.833313 459.500000,715.500000 
"/>
<path fill="none" opacity="1.000000" stroke="#000000" stroke-linecap="round" stroke-linejoin="round" stroke-width="4.000000"
	d="
M459.500000,156.500000 
	C460.492584,164.166672 458.971924,171.833328 459.500000,179.500000 
"/>
<path fill="none" opacity="1.000000" stroke="#000000" stroke-linecap="round" stroke-linejoin="round" stroke-width="5.000000"
	d="
M555.500000,156.500000 
	C556.657593,163.977982 555.688354,171.503220 556.000000,179.000000 
"/>
<path fill="none" opacity="1.000000" stroke="#000000" stroke-linecap="round" stroke-linejoin="round" stroke-width="5.000000"
	d="
M264.500000,216.500000 
	C265.657623,223.977982 264.688324,231.503220 265.000000,239.000000 
"/>
<path fill="none" opacity="1.000000" stroke="#000000" stroke-linecap="round" stroke-linejoin="round" stroke-width="5.000000"
	d="
M329.000000,208.000000 
	C329.000000,218.333328 329.000000,228.666672 329.000000,239.000000 
"/>
<path fill="none" opacity="1.000000" stroke="#000000" stroke-linecap="round" stroke-linejoin="round" stroke-width="5.000000"
	d="
M507.500000,216.500000 
	C508.657623,223.977982 507.688324,231.503220 508.000000,239.000000 
"/>
<path fill="none" opacity="1.000000" stroke="#000000" stroke-linecap="round" stroke-linejoin="round" stroke-width="5.000000"
	d="
M410.000000,744.000000 
	C410.000000,754.333313 410.000000,764.666687 410.000000,775.000000 
"/>
<path fill="none" opacity="1.000000" stroke="#000000" stroke-linecap="round" stroke-linejoin="round" stroke-width="5.000000"
	d="
M277.000000,753.000000 
	C277.000000,760.333313 277.000000,767.666687 277.000000,775.000000 
"/>
<path fill="none" opacity="1.000000" stroke="#000000" stroke-linecap="round" stroke-linejoin="round" stroke-width="4.000000"
	d="
M242.500000,693.500000 
	C238.889297,698.978516 239.126114,705.846497 236.000000,711.500000 
"/>
<path fill="none" opacity="1.000000" stroke="#000000" stroke-linecap="round" stroke-linejoin="round" stroke-width="4.000000"
	d="
M242.500000,157.500000 
	C238.889297,162.978546 239.126114,169.846466 236.000000,175.500000 
"/>
<path fill="none" opacity="1.000000" stroke="#000000" stroke-linecap="round" stroke-linejoin="round" stroke-width="4.000000"
	d="
M208.500000,465.500000 
	C204.889297,470.978546 205.126114,477.846466 202.000000,483.500000 
"/>
<path fill="none" opacity="1.000000" stroke="#000000" stroke-linecap="round" stroke-linejoin="round" stroke-width="5.000000"
	d="
M516.500000,464.500000 
	C515.000000,465.782776 513.451538,464.156036 512.009705,464.536865 
	C508.641937,465.426422 506.010406,469.249023 506.002411,473.000000 
	C505.992462,477.666626 506.000000,482.333344 506.000000,487.000000 
"/>
<path fill="none" opacity="1.000000" stroke="#000000" stroke-linecap="round" stroke-linejoin="round" stroke-width="5.000000"
	d="
M601.500000,464.500000 
	C602.657593,471.977966 601.688354,479.503235 602.000000,487.000000 
"/>
<path fill="none" opacity="1.000000" stroke="#000000" stroke-linecap="round" stroke-linejoin="round" stroke-width="5.000000"
	d="
M555.500000,692.500000 
	C556.657593,699.977966 555.688354,707.503235 556.000000,715.000000 
"/>
<path fill="none" opacity="1.000000" stroke="#000000" stroke-linecap="round" stroke-linejoin="round" stroke-width="5.000000"
	d="
M324.000000,465.000000 
	C324.090424,472.501709 323.690216,480.014282 324.500000,487.500000 
"/>
<path fill="none" opacity="1.000000" stroke="#000000" stroke-linecap="round" stroke-linejoin="round" stroke-width="4.000000"
	d="
M243.000000,696.000000 
	C244.895859,697.034729 244.119415,698.945007 244.563599,700.481628 
	C245.975128,705.364563 247.666656,710.166687 249.250000,715.000000 
"/>
<path fill="none" opacity="1.000000" stroke="#000000" stroke-linecap="round" stroke-linejoin="round" stroke-width="4.000000"
	d="
M209.000000,468.000000 
	C210.895859,469.034698 210.119400,470.944977 210.563583,472.481628 
	C211.975128,477.364624 213.666672,482.166656 215.250000,487.000000 
"/>
<path fill="none" opacity="1.000000" stroke="#000000" stroke-linecap="round" stroke-linejoin="round" stroke-width="4.000000"
	d="
M243.000000,160.000000 
	C244.895859,161.034714 244.119385,162.944977 244.563583,164.481613 
	C245.975098,169.364624 247.666656,174.166672 249.249985,179.000000 
"/>
<path fill="none" opacity="1.000000" stroke="#000000" stroke-linecap="round" stroke-linejoin="round" stroke-width="4.000000"
	d="
M623.500000,464.500000 
	C618.833313,464.500000 614.162415,464.621460 609.501526,464.457184 
	C606.409485,464.348236 605.147949,467.462616 602.500000,468.000000 
"/>
<path fill="none" opacity="1.000000" stroke="#000000" stroke-linecap="round" stroke-linejoin="round" stroke-width="4.000000"
	d="
M577.500000,692.500000 
	C572.833313,692.500000 568.162415,692.621460 563.501526,692.457214 
	C560.409485,692.348267 559.147949,695.462646 556.500000,696.000000 
"/>
<path fill="none" opacity="1.000000" stroke="#000000" stroke-linecap="round" stroke-linejoin="round" stroke-width="5.000000"
	d="
M474.000000,744.000000 
	C473.237640,753.155823 475.367401,762.352661 473.578644,771.515381 
	C473.340149,772.737000 474.166656,774.166687 474.500000,775.500000 
"/>
<path fill="none" opacity="1.000000" stroke="#000000" stroke-linecap="round" stroke-linejoin="round" stroke-width="4.000000"
	d="
M577.500000,156.500000 
	C572.833313,156.500000 568.162415,156.621414 563.501526,156.457184 
	C560.409485,156.348221 559.147949,159.462616 556.500000,160.000000 
"/>
<path fill="none" opacity="1.000000" stroke="#000000" stroke-linecap="round" stroke-linejoin="round" stroke-width="5.000000"
	d="
M548.000000,465.000000 
	C548.000000,475.666656 548.000000,486.333344 548.000000,497.000000 
"/>
<path fill="none" opacity="1.000000" stroke="#000000" stroke-linecap="round" stroke-linejoin="round" stroke-width="5.000000"
	d="
M502.000000,157.000000 
	C502.000000,167.666672 502.000000,178.333328 502.000000,189.000000 
"/>
<path fill="none" opacity="1.000000" stroke="#000000" stroke-linecap="round" stroke-linejoin="round" stroke-width="5.000000"
	d="
M502.000000,693.000000 
	C502.000000,703.666687 502.000000,714.333313 502.000000,725.000000 
"/>
<path fill="none" opacity="1.000000" stroke="#000000" stroke-linecap="round" stroke-linejoin="round" stroke-width="5.000000"
	d="
M531.500000,743.500000 
	C523.000000,744.899719 523.000000,744.899719 523.000000,752.500000 
"/>
<path fill="none" opacity="1.000000" stroke="#000000" stroke-linecap="round" stroke-linejoin="round" stroke-width="4.000000"
	d="
M296.500000,485.000000 
	C298.564087,489.028198 297.010834,493.345795 297.500000,497.500000 
"/>
<path fill="none" opacity="1.000000" stroke="#000000" stroke-linecap="round" stroke-linejoin="round" stroke-width="3.000000"
	d="
M470.500000,692.500000 
	C466.738464,692.443237 463.413422,693.633606 460.500000,696.000000 
"/>
<path fill="none" opacity="1.000000" stroke="#000000" stroke-linecap="round" stroke-linejoin="round" stroke-width="3.000000"
	d="
M470.500000,156.500000 
	C466.738464,156.443207 463.413422,157.633606 460.500000,160.000000 
"/>
<path fill="none" opacity="1.000000" stroke="#000000" stroke-linecap="round" stroke-linejoin="round" stroke-width="3.000000"
	d="
M403.000000,344.000000 
	C403.000000,346.833344 403.000000,349.666656 403.000000,352.500000 
"/>
<path fill="none" opacity="1.000000" stroke="#000000" stroke-linecap="round" stroke-linejoin="round" stroke-width="3.000000"
	d="
M474.000000,217.000000 
	C472.337585,215.704849 470.871094,216.706848 469.522125,217.535995 
	C468.371216,218.243423 467.803497,219.947769 466.000000,219.500000 
"/>
<path fill="none" opacity="1.000000" stroke="#000000" stroke-linecap="round" stroke-linejoin="round" stroke-width="4.000000"
	d="
M528.500000,752.500000 
	C525.500000,752.500000 522.500000,752.500000 519.500000,752.500000 
"/>
<path fill="none" opacity="1.000000" stroke="#000000" stroke-linecap="round" stroke-linejoin="round" stroke-width="4.000000"
	d="
M465.500000,464.500000 
	C462.833344,464.590179 460.166656,465.587463 457.500000,464.500000 
"/>
<path fill="none" opacity="1.000000" stroke="#000000" stroke-linecap="round" stroke-linejoin="round" stroke-width="4.000000"
	d="
M539.500000,216.500000 
	C536.833313,216.590164 534.166687,217.587463 531.500000,216.500000 
"/>
<path fill="none" opacity="1.000000" stroke="#000000" stroke-linecap="round" stroke-linejoin="round" stroke-width="4.000000"
	d="
M419.500000,692.500000 
	C416.833344,692.590149 414.166656,693.587463 411.500000,692.500000 
"/>
<path fill="none" opacity="1.000000" stroke="#000000" stroke-linecap="round" stroke-linejoin="round" stroke-width="4.000000"
	d="
M419.500000,156.500000 
	C416.833344,156.590164 414.166656,157.587463 411.500000,156.500000 
"/>
<path fill="none" opacity="1.000000" stroke="#000000" stroke-linecap="round" stroke-linejoin="round" stroke-width="4.000000"
	d="
M299.500000,148.000000 
	C291.565216,149.580460 288.706543,155.467331 288.118988,162.509933 
	C287.603821,168.685074 289.688751,174.199707 295.508026,177.485779 
	C304.559174,182.596893 315.952606,175.910263 315.992096,165.499969 
	C316.007050,161.556778 316.560730,157.487213 313.992737,154.005356 
	C310.511658,149.285477 305.788666,147.382034 300.000000,148.000000 
"/>
<path fill="none" opacity="1.000000" stroke="#000000" stroke-linecap="round" stroke-linejoin="round" stroke-width="4.000000"
	d="
M177.000000,464.500000 
	C168.109009,467.755798 164.660690,477.848846 170.559647,483.942261 
	C172.997238,486.460205 175.984146,488.475616 180.010025,487.027893 
	C184.103943,485.555725 186.545700,482.668304 186.934402,478.493896 
	C187.577820,471.583435 186.418411,466.144562 177.500000,464.500000 
"/>
<path fill="none" opacity="1.000000" stroke="#000000" stroke-linecap="round" stroke-linejoin="round" stroke-width="4.000000"
	d="
M211.000000,156.500000 
	C202.109009,159.755814 198.660675,169.848846 204.559631,175.942276 
	C206.997208,178.460236 209.984116,180.475571 214.010010,179.027863 
	C218.103928,177.555679 220.545700,174.668335 220.934372,170.493896 
	C221.577805,163.583466 220.418442,158.144547 211.500000,156.500000 
"/>
<path fill="none" opacity="1.000000" stroke="#000000" stroke-linecap="round" stroke-linejoin="round" stroke-width="4.000000"
	d="
M483.000000,156.500000 
	C474.109009,159.755814 470.660706,169.848846 476.559631,175.942276 
	C478.997253,178.460220 481.984100,180.475555 486.010010,179.027847 
	C490.103943,177.555664 492.545746,174.668335 492.934448,170.493896 
	C493.577850,163.583420 492.418396,158.144547 483.500000,156.500000 
"/>
<path fill="none" opacity="1.000000" stroke="#000000" stroke-linecap="round" stroke-linejoin="round" stroke-width="4.000000"
	d="
M483.000000,692.500000 
	C474.109009,695.755798 470.660706,705.848816 476.559662,711.942261 
	C478.997253,714.460266 481.984100,716.475586 486.010010,715.027771 
	C490.103912,713.555603 492.545746,710.668335 492.934448,706.493896 
	C493.577881,699.583435 492.418396,694.144531 483.500000,692.500000 
"/>
<path fill="none" opacity="1.000000" stroke="#000000" stroke-linecap="round" stroke-linejoin="round" stroke-width="4.000000"
	d="
M211.000000,692.500000 
	C202.109009,695.755798 198.660721,705.848816 204.559647,711.942261 
	C206.997269,714.460205 209.984116,716.475586 214.010010,715.027832 
	C218.103928,713.555664 220.545731,710.668335 220.934402,706.493896 
	C221.577850,699.583435 220.418381,694.144531 211.500000,692.500000 
"/>
<path fill="none" opacity="1.000000" stroke="#000000" stroke-linecap="round" stroke-linejoin="round" stroke-width="5.000000"
	d="
M496.500000,744.000000 
	C490.517517,745.146179 486.136566,748.503052 485.132019,754.522034 
	C484.026428,761.146484 483.937683,767.854919 490.478943,772.529419 
	C498.462006,778.234192 510.138763,773.587769 512.067993,764.514465 
	C514.671509,752.270020 508.884125,744.123169 497.000000,744.000000 
"/>
<path fill="none" opacity="1.000000" stroke="#000000" stroke-linecap="round" stroke-linejoin="round" stroke-width="4.000000"
	d="
M299.500000,684.000000 
	C291.565216,685.580444 288.706512,691.467346 288.118958,698.509949 
	C287.603790,704.685120 289.688751,710.199768 295.508026,713.485840 
	C304.559174,718.596863 315.952606,711.910278 315.992065,701.500000 
	C316.007019,697.556824 316.560760,693.487183 313.992767,690.005371 
	C310.511688,685.285461 305.788666,683.382019 300.000000,684.000000 
"/>
<path fill="none" opacity="1.000000" stroke="#000000" stroke-linecap="round" stroke-linejoin="round" stroke-width="4.000000"
	d="
M529.000000,464.500000 
	C519.712097,468.497040 516.763611,479.130524 523.540710,484.952637 
	C529.798950,490.329102 537.513550,486.074860 538.965637,479.991791 
	C540.924805,471.784515 537.511475,466.360107 529.500000,464.500000 
"/>
</svg>