<svg version="1.1" id="Layer_1" xmlns="http://www.w3.org/2000/svg" xmlns:xlink="http://www.w3.org/1999/xlink" x="0px" y="0px"
	 width="100%" viewBox="0 0 1684 788" enable-background="new 0 0 1684 788" xml:space="preserve">
<path fill="#FFFFFF" opacity="1.000000" stroke="none" 
	d="
M1116.000000,789.000000 
	C744.000000,789.000000 372.500000,789.000000 1.000000,789.000000 
	C1.000000,526.333313 1.000000,263.666656 1.000000,1.000000 
	C562.333313,1.000000 1123.666626,1.000000 1685.000000,1.000000 
	C1685.000000,263.666656 1685.000000,526.333313 1685.000000,789.000000 
	C1495.500000,789.000000 1306.000000,789.000000 1116.000000,789.000000 
M280.999634,413.554077 
	C280.999634,478.270782 280.999634,542.987488 280.999634,608.227722 
	C274.208221,604.865906 268.078583,601.831665 260.679474,598.169006 
	C268.122070,613.214417 274.888458,626.892883 281.960205,641.188599 
	C201.118805,641.188599 121.195839,641.188599 41.257027,641.188599 
	C41.257027,682.586853 41.257027,723.655518 41.257027,764.759521 
	C202.573898,764.759521 363.632629,764.759521 524.762207,764.759521 
	C524.762207,723.449158 524.762207,682.380554 524.762207,640.812988 
	C444.536896,640.812988 364.550690,640.812988 284.114319,640.812988 
	C291.156036,626.662598 297.909515,613.091370 305.347656,598.144287 
	C297.784851,601.886414 291.581329,604.955933 284.893158,608.265259 
	C284.893158,540.064819 284.893158,472.767151 284.893158,405.039612 
	C283.511719,405.109955 282.342529,405.169464 280.999634,405.237854 
	C280.999634,407.939911 280.999634,410.257965 280.999634,413.554077 
M1353.500000,40.997509 
	C1289.408813,40.997509 1225.317627,40.997509 1160.895020,40.997509 
	C1160.895020,61.520676 1160.895020,81.425133 1160.895020,101.888947 
	C1146.729370,94.824570 1133.049805,88.002586 1118.171753,80.582947 
	C1121.862671,88.098343 1124.940918,94.366165 1128.250000,101.103821 
	C1073.441284,101.103821 1019.468872,101.103821 965.060852,101.103821 
	C965.133850,102.490639 965.195190,103.656982 965.278198,105.233826 
	C1019.672852,105.233826 1073.695801,105.233826 1128.098145,105.233826 
	C1124.828003,111.904121 1121.800415,118.079506 1118.213257,125.396416 
	C1133.106201,117.955963 1146.811646,111.108780 1161.182861,103.929008 
	C1161.182861,124.715607 1161.182861,144.769150 1161.182861,164.699829 
	C1322.732544,164.699829 1483.811035,164.699829 1644.756470,164.699829 
	C1644.756470,123.327660 1644.756470,82.258812 1644.756470,40.997509 
	C1547.795776,40.997509 1451.147949,40.997509 1353.500000,40.997509 
M285.000305,232.500000 
	C285.000305,210.070969 285.000305,187.641953 285.000305,164.818237 
	C365.314240,164.818237 445.052490,164.818237 525.190552,164.818237 
	C525.190552,144.679871 525.190552,124.938332 525.190552,104.833008 
	C566.686523,104.833008 607.782043,104.833008 648.730652,104.833008 
	C650.058533,99.979507 646.781433,101.017250 644.509460,101.015923 
	C606.510193,100.993713 568.510986,101.000069 530.511719,101.000061 
	C528.746094,101.000061 526.980469,101.000061 524.822632,101.000061 
	C524.822632,80.688919 524.822632,60.947437 524.822632,41.290810 
	C363.351074,41.290810 202.281418,41.290810 41.294430,41.290810 
	C41.294430,82.653732 41.294430,123.725281 41.294430,165.194427 
	C121.326340,165.194427 201.064575,165.194427 281.172089,165.194427 
	C281.172089,225.354248 281.172089,285.115540 281.172089,344.729889 
	C286.028442,346.048096 284.982574,342.767120 284.984039,340.497864 
	C285.007233,304.831909 285.000305,269.165955 285.000305,232.500000 
M895.089722,91.772202 
	C895.089722,89.975548 895.089722,88.178886 895.089722,86.168930 
	C893.528198,86.168930 892.257446,86.168930 890.648315,86.168930 
	C890.648315,93.441475 890.789856,100.562874 890.607178,107.675934 
	C890.435913,114.342590 888.031372,116.792969 882.138855,116.944595 
	C875.735046,117.109367 872.929504,114.694695 872.724304,108.159447 
	C872.495789,100.879189 872.672058,93.586235 872.672058,86.298805 
	C872.218140,85.999405 871.764221,85.700005 871.310303,85.400604 
	C870.293518,86.448311 868.431335,87.469292 868.397278,88.548080 
	C868.176941,95.517265 868.025330,102.521187 868.490723,109.470894 
	C869.022034,117.403770 873.604431,121.096779 881.789490,121.052277 
	C889.783997,121.008804 894.341736,117.065758 894.885681,109.149406 
	C895.260925,103.689117 895.042664,98.188049 895.089722,91.772202 
M317.741211,356.665283 
	C310.569366,351.897522 302.663147,354.788513 295.051758,353.960297 
	C295.051758,365.910065 295.051758,377.327881 295.051758,389.021851 
	C296.554169,388.929810 297.808716,388.852936 299.393707,388.755798 
	C299.393707,384.078247 299.393707,379.660980 299.393707,375.015930 
	C302.895447,375.015930 306.057831,375.149689 309.205566,374.991516 
	C319.785431,374.459747 323.910461,366.313507 317.741211,356.665283 
M388.928864,361.593964 
	C388.928864,359.133575 388.928864,356.673187 388.928864,354.007904 
	C387.342743,354.093903 386.222290,354.154633 384.660583,354.239288 
	C384.660583,357.851654 384.660583,361.275604 384.660583,364.629822 
	C383.879028,364.729156 383.499023,364.900513 383.228546,364.793915 
	C375.719971,361.835083 370.769165,363.649323 368.498840,370.219696 
	C365.657562,378.442474 369.070038,387.429779 376.081116,388.630127 
	C380.125214,389.322510 384.446869,388.393463 388.928864,388.180634 
	C388.928864,379.828674 388.928864,371.198578 388.928864,361.593964 
M235.389786,366.291779 
	C231.018387,361.145294 226.025986,362.923737 220.746429,365.540283 
	C220.746429,362.680725 220.692902,360.356659 220.760437,358.036102 
	C220.838867,355.341248 220.898132,352.786011 217.054062,354.376038 
	C217.054062,365.963379 217.054062,377.377960 217.054062,388.792511 
	C217.524490,389.033936 217.994919,389.275330 218.465363,389.516754 
	C219.225586,388.317596 220.549484,387.161011 220.643799,385.911591 
	C220.968964,381.603851 220.742966,377.257660 220.959061,372.937714 
	C221.170288,368.714905 223.746292,366.543579 227.825333,366.656738 
	C231.968018,366.771759 232.845886,369.749268 232.807678,373.293335 
	C232.752335,378.428131 232.793518,383.563995 232.793518,389.019958 
	C234.337372,388.894623 235.539612,388.796997 237.410248,388.645111 
	C236.858948,381.146790 236.337662,374.056763 235.389786,366.291779 
M823.371094,95.555107 
	C819.911133,96.378723 817.318359,98.060234 816.605957,103.237831 
	C818.584045,102.369156 820.215393,102.167336 820.915710,101.252625 
	C823.422058,97.978951 826.708923,98.057472 829.893555,99.197533 
	C831.213501,99.670044 832.392517,101.675667 832.739624,103.189522 
	C832.887329,103.833725 830.873047,105.454460 829.601624,105.839256 
	C827.240234,106.553886 824.655823,106.499794 822.249634,107.105003 
	C818.381592,108.077843 815.456604,110.208382 815.814575,114.700645 
	C816.179626,119.281303 819.588684,121.008034 823.484558,120.884079 
	C826.660583,120.783028 829.796936,119.434120 832.624878,118.720741 
	C834.082825,119.620689 835.615295,120.566635 837.064392,121.461113 
	C837.064392,116.033325 837.064697,111.411499 837.064392,106.789680 
	C837.063721,96.364838 834.647522,94.210510 823.371094,95.555107 
M243.095062,378.790405 
	C241.623596,381.800018 241.649475,384.768158 244.376755,386.909851 
	C249.382812,390.841125 254.357071,388.858124 258.522827,386.516693 
	C260.517456,387.609497 262.132751,388.494476 263.582123,389.288544 
	C263.582123,383.043457 263.635071,377.765961 263.568512,372.490021 
	C263.487976,366.105011 261.796753,363.961731 256.354736,363.084991 
	C249.953674,362.053741 245.207245,364.523438 243.004395,370.947144 
	C244.840424,370.355835 246.103622,369.975037 247.348846,369.542542 
	C249.957962,368.636383 252.540207,367.103149 255.168274,367.026947 
	C256.537750,366.987213 257.981171,369.495728 259.391174,370.853241 
	C258.056732,371.903442 256.869690,373.311218 255.359024,373.933868 
	C251.488922,375.528931 247.474945,376.774902 243.095062,378.790405 
M796.636292,100.184555 
	C803.162415,97.055588 806.153442,98.768600 806.242432,105.736671 
	C806.293457,109.729591 806.354187,113.727119 806.220459,117.716194 
	C806.110718,120.987816 807.311890,121.843582 810.383423,120.344986 
	C810.383423,115.182320 810.508911,110.027672 810.355652,104.881332 
	C810.089233,95.937965 804.821228,92.768799 796.689880,96.509399 
	C796.050171,96.803673 795.359802,96.987816 794.300964,97.361458 
	C794.300964,93.360146 794.300964,89.892433 794.300964,86.463493 
	C791.329956,85.297089 790.168030,85.997665 790.207703,89.125542 
	C790.330078,98.775124 790.322754,108.428024 790.214233,118.077934 
	C790.176392,121.444809 791.693726,121.474564 794.240662,120.574760 
	C794.240662,118.385651 794.066406,116.374786 794.275757,114.404701 
	C794.758362,109.863983 795.427368,105.343056 796.636292,100.184555 
M927.620422,99.154404 
	C924.384460,103.750183 924.189514,108.781059 925.886047,113.883537 
	C927.452026,118.593254 932.047424,121.312271 937.248901,121.035782 
	C942.418579,120.760979 945.516296,118.146072 947.252869,111.400093 
	C945.077576,112.570419 943.351624,112.947227 942.591919,114.012863 
	C940.459778,117.003647 937.819702,118.050247 934.408081,117.008301 
	C930.741577,115.888519 929.420837,113.114281 929.246948,109.026413 
	C935.424316,109.026413 941.313354,109.026413 947.491760,109.026413 
	C947.686279,103.486984 946.624634,98.961372 941.765442,96.390366 
	C936.789734,93.757744 932.148621,94.695587 927.620422,99.154404 
M672.726562,114.365005 
	C672.726562,111.405807 672.726562,108.446609 672.726562,105.021156 
	C677.350586,105.021156 681.644104,104.928169 685.931396,105.051117 
	C689.251831,105.146347 689.345337,103.610092 688.323547,100.803131 
	C683.085510,100.803131 677.984131,100.803131 672.870972,100.803131 
	C672.870972,97.102890 672.870972,93.811493 672.870972,90.021698 
	C677.961060,90.021698 682.919861,89.882629 687.866089,90.071136 
	C691.102417,90.194473 692.122437,89.169632 690.882629,86.194351 
	C683.454529,86.194351 676.181335,86.194351 668.704285,86.194351 
	C668.704285,97.838333 668.704285,109.266472 668.704285,120.998489 
	C670.127014,120.885254 671.335449,120.789070 672.726501,120.678360 
	C672.726501,118.611557 672.726501,116.959366 672.726562,114.365005 
M903.008728,106.456390 
	C906.220337,107.696770 909.542908,108.718094 912.599121,110.265457 
	C914.247375,111.099991 915.439697,112.834846 916.837769,114.163521 
	C915.144592,115.249886 913.359070,117.332466 911.780090,117.186150 
	C909.484497,116.973434 907.354187,115.120255 905.121155,114.032768 
	C903.883606,113.430122 902.580566,112.962082 900.234314,111.988075 
	C903.577637,120.574303 910.896484,123.425247 916.960693,119.398972 
	C918.951477,118.077209 920.773499,114.893730 920.724487,112.603294 
	C920.683472,110.687408 918.099854,108.366760 916.093750,107.081215 
	C914.088562,105.796227 911.293457,105.814148 909.053955,104.799126 
	C907.604675,104.142235 906.531372,102.655746 905.289612,101.540939 
	C906.826599,100.550621 908.350464,98.793724 909.903931,98.767159 
	C911.777954,98.735130 913.681702,100.160492 915.563721,100.975456 
	C916.856628,101.535332 918.134583,102.129997 919.419189,102.709114 
	C917.521301,95.671349 912.109314,93.481506 906.131836,95.849457 
	C901.620850,97.636452 900.524170,100.699791 903.008728,106.456390 
M860.964600,102.038986 
	C859.722046,95.971008 853.327454,92.942444 847.218201,96.097404 
	C845.228638,97.124878 843.062500,99.942726 843.014160,101.989891 
	C842.966858,103.990234 845.108948,106.690407 847.033203,107.925438 
	C849.445862,109.473900 852.694214,109.656860 855.421204,110.809341 
	C856.558105,111.289818 858.040894,112.789413 857.991333,113.754990 
	C857.934692,114.858215 856.537598,116.449959 855.389038,116.836060 
	C851.835632,118.030594 848.591370,117.661568 846.299194,113.979042 
	C845.710449,113.033104 844.015869,112.775452 841.845276,111.725731 
	C844.623779,120.928665 853.737915,123.693352 859.725281,118.652794 
	C863.949646,115.096405 863.028809,109.106750 857.848572,107.082848 
	C855.542786,106.182007 852.972107,105.906792 850.749878,104.862206 
	C849.192932,104.130295 848.022339,102.576424 846.679260,101.389626 
	C848.419739,100.442078 850.131592,98.819962 851.909058,98.744469 
	C853.552429,98.674667 855.246399,100.303886 856.955872,101.103996 
	C858.092102,101.635818 859.294922,102.025475 860.964600,102.038986 
M767.141785,119.942810 
	C768.721069,117.442818 771.287781,115.073479 771.640076,112.411125 
	C772.125549,108.741631 768.626099,107.330086 765.444763,106.438965 
	C763.691040,105.947716 761.789795,105.727989 760.226929,104.882957 
	C758.684204,104.048836 757.484192,102.580902 756.133850,101.391006 
	C757.876648,100.443169 759.589661,98.822968 761.370972,98.744041 
	C763.022766,98.670837 764.747803,100.243874 766.440125,101.092812 
	C767.646484,101.697990 768.852173,102.304497 770.821960,103.294182 
	C770.277954,97.802834 767.593872,95.531761 764.171631,95.483879 
	C760.779602,95.436424 756.797180,96.084084 754.102600,97.929367 
	C750.526489,100.378281 751.667786,105.830879 755.749207,107.766510 
	C758.260559,108.957558 761.223083,109.190773 763.749207,110.359467 
	C765.294922,111.074562 766.397827,112.746887 767.699585,113.989326 
	C766.220825,115.099297 764.633484,117.238373 763.286743,117.096367 
	C760.792297,116.833359 758.427795,115.260262 756.030518,114.185036 
	C754.759338,113.614845 753.533142,112.944405 752.286682,112.319229 
	C754.160339,120.427986 758.357971,122.317986 767.141785,119.942810 
M283.259369,363.919250 
	C280.656738,363.731659 277.647614,362.644196 275.556427,363.588806 
	C273.055420,364.718689 270.301086,367.269043 269.535950,369.777435 
	C268.493347,373.195648 271.362762,375.503754 274.691498,376.546631 
	C276.743561,377.189575 278.991943,377.390747 280.870758,378.344543 
	C282.412781,379.127441 283.539612,380.728210 284.850464,381.966461 
	C283.212219,383.111053 281.510864,385.261230 279.950531,385.163361 
	C277.637787,385.018311 275.416870,383.296448 273.172852,382.212585 
	C271.909973,381.602570 270.679230,380.925903 268.312225,379.696747 
	C271.427032,388.900604 280.205170,391.746216 286.017273,386.722839 
	C287.645447,385.315643 289.005280,382.338989 288.719025,380.334991 
	C288.440796,378.387146 286.164886,376.342346 284.265137,375.116821 
	C282.394714,373.910217 279.757568,373.954041 277.715210,372.932617 
	C276.051270,372.100464 274.768860,370.505432 273.317261,369.248657 
	C275.266449,368.358734 277.178162,366.901764 279.177460,366.769470 
	C280.615570,366.674316 282.140167,368.404541 283.683228,369.211487 
	C284.876251,369.835358 286.157684,370.290161 287.399811,370.820129 
	C287.720734,370.249268 288.041656,369.678375 288.362549,369.107483 
	C286.906891,367.464752 285.451233,365.822021 283.259369,363.919250 
M186.265747,377.171936 
	C187.856888,377.625061 189.601440,377.811005 190.993698,378.610474 
	C192.250092,379.331879 194.013977,380.800476 193.928909,381.801453 
	C193.829559,382.970673 192.145798,384.551788 190.836960,384.965454 
	C187.422119,386.044769 184.382797,385.419128 182.256927,381.952576 
	C181.678284,381.009003 179.945786,380.773041 177.802261,379.773895 
	C180.661255,388.953644 189.763443,391.685913 195.712723,386.635437 
	C199.930679,383.054718 199.001358,377.102509 193.810959,375.079407 
	C191.506210,374.181122 188.938431,373.904694 186.717987,372.861053 
	C185.162766,372.130005 183.993607,370.577637 182.652023,369.392059 
	C184.390350,368.443878 186.099091,366.822540 187.875656,366.744476 
	C189.519852,366.672180 191.235397,368.254028 192.921951,369.102600 
	C194.130020,369.710449 195.342133,370.310242 197.546143,371.408997 
	C195.547943,364.749237 192.527161,362.581451 187.169418,363.008301 
	C183.141083,363.329224 179.457901,364.625427 178.793198,369.283508 
	C178.093292,374.188293 181.584808,375.895142 186.265747,377.171936 
M732.570129,100.104950 
	C739.203979,97.099525 742.117737,98.769005 742.232544,105.714256 
	C742.301270,109.871048 742.057861,114.044022 742.367493,118.178810 
	C742.455505,119.354744 743.991394,120.422264 744.863281,121.539497 
	C745.308838,121.259262 745.754456,120.979027 746.200012,120.698784 
	C746.200012,114.575523 746.394836,108.444038 746.137146,102.331642 
	C745.938110,97.611839 742.598816,94.790947 737.801758,94.996292 
	C734.150757,95.152580 730.515686,95.682091 726.250000,96.107773 
	C726.250000,103.063011 726.144897,110.851189 726.385742,118.628662 
	C726.415161,119.578239 728.301086,120.470329 730.240845,122.208015 
	C730.240845,118.507179 730.086670,116.666115 730.270813,114.859550 
	C730.751404,110.144875 731.380188,105.445297 732.570129,100.104950 
M168.795197,386.866913 
	C169.735001,387.742584 170.674820,388.618256 171.614624,389.493927 
	C172.713806,382.564209 172.944611,376.596039 172.648254,370.654175 
	C172.357391,364.822754 167.263657,361.602783 161.661652,363.412048 
	C160.117966,363.910614 158.698990,364.795349 157.964645,365.147339 
	C156.094391,364.172150 154.703949,363.447144 153.011917,362.564911 
	C153.011917,371.931763 153.011917,380.341217 153.011917,388.750671 
	C153.453415,389.009460 153.894913,389.268219 154.336411,389.527008 
	C155.139603,388.362183 156.545258,387.243256 156.638123,386.024323 
	C156.977829,381.565399 156.747391,377.066101 156.986984,372.595673 
	C157.201324,368.596039 159.737122,366.589447 163.565155,366.619171 
	C167.628494,366.650665 168.820511,369.417358 168.798126,373.023865 
	C168.771332,377.340057 168.793137,381.656555 168.795197,386.866913 
M415.765564,372.554901 
	C415.765411,370.391632 415.641571,368.219635 415.793915,366.067169 
	C416.025085,362.801025 414.486328,362.404541 411.482635,363.498596 
	C411.482635,368.719055 411.661591,374.038696 411.423584,379.339600 
	C411.246735,383.279053 408.706085,385.405945 404.838867,385.358032 
	C400.705566,385.306885 399.696320,382.453674 399.753540,378.858215 
	C399.819702,374.699188 399.624969,370.531921 399.810333,366.380157 
	C399.957397,363.086243 398.780762,362.233734 395.790710,363.402710 
	C395.790710,369.403473 395.570953,375.229187 395.849121,381.031006 
	C396.161926,387.554871 401.986023,390.833191 407.960297,388.092285 
	C409.252930,387.499268 410.439911,386.675995 410.570038,386.600464 
	C412.501251,387.789520 413.735748,388.549561 415.765533,389.799286 
	C415.765533,383.491516 415.765533,378.513397 415.765564,372.554901 
M358.507751,364.770142 
	C357.445953,364.315186 356.419037,363.735535 355.316284,363.426788 
	C350.446655,362.063293 345.171387,364.026062 342.658936,368.056213 
	C339.645142,372.890533 340.206085,381.539368 343.787323,385.454773 
	C347.268188,389.260437 353.143768,390.116974 357.996155,387.525970 
	C365.360657,383.593536 365.968567,371.863068 358.507751,364.770142 
M431.632324,366.605225 
	C433.550659,367.655548 435.466705,368.710083 437.388153,369.754730 
	C438.654755,370.443298 439.929108,371.117554 441.199982,371.798248 
	C439.654724,364.716705 435.455658,362.043793 430.097443,363.159760 
	C423.683197,364.495636 420.395325,369.781525 421.043457,377.715729 
	C421.589539,384.400757 425.545288,388.680328 431.505402,389.034027 
	C436.903748,389.354340 440.807648,386.010773 441.533112,379.422852 
	C440.063232,379.850159 438.585541,380.525299 437.899597,381.673401 
	C435.469971,385.740021 430.626587,386.696991 427.459747,383.513153 
	C422.938904,378.968170 424.853119,369.427063 431.632324,366.605225 
M698.299133,85.981384 
	C698.401001,87.215492 698.130676,88.645554 698.661438,89.653893 
	C705.103271,101.891693 705.089478,114.145905 699.046631,126.489044 
	C698.367676,127.875778 697.698792,129.267441 696.865479,130.986343 
	C709.864258,127.103012 710.831604,99.983047 698.299133,85.981384 
M652.266235,100.696709 
	C649.944214,114.079971 654.806458,129.441284 662.225220,130.733475 
	C653.376953,115.843224 653.227844,100.989334 661.370850,85.739594 
	C656.743164,89.554451 654.129761,94.408089 652.266235,100.696709 
M447.086212,371.722809 
	C447.086609,375.218628 447.034882,378.715363 447.098938,382.210022 
	C447.210876,388.317383 449.437012,389.876495 456.725739,388.036713 
	C447.336334,382.634674 452.299011,374.324890 451.147888,368.199188 
	C452.954803,366.476501 454.074738,365.408783 455.194672,364.341064 
	C453.920654,363.639465 452.646637,362.937866 451.200989,362.141785 
	C451.087860,360.216125 450.955139,357.956848 450.822418,355.697601 
	C450.404297,355.550507 449.986176,355.403381 449.568054,355.256287 
	C448.741089,356.763458 448.110718,358.428955 447.048950,359.747009 
	C444.283539,363.179810 444.499695,366.453918 447.065125,369.818359 
	C447.225647,370.028931 447.086121,370.468323 447.086212,371.722809 
M327.481537,389.023071 
	C330.281525,389.561035 330.256744,387.819672 330.257172,385.808533 
	C330.258179,381.167236 330.221832,376.509613 330.593170,371.890198 
	C330.855011,368.632568 332.302765,366.207275 336.391815,366.726990 
	C337.330505,366.846252 338.430450,365.696838 339.456177,365.131317 
	C339.265961,364.466766 339.075714,363.802246 338.885468,363.137695 
	C336.071838,363.522858 333.258179,363.907990 330.421448,364.296265 
	C329.489716,363.897461 328.157928,363.327423 326.654968,362.684143 
	C326.654968,371.868256 326.654968,380.292328 327.481537,389.023071 
M959.901733,99.195312 
	C962.004944,98.686295 964.108093,98.177277 967.157471,97.439262 
	C961.949707,92.673546 957.311157,98.900925 953.313843,94.215996 
	C953.313843,103.928574 953.313843,112.338715 953.313843,120.815201 
	C954.644226,120.815201 955.758484,120.815201 957.089661,120.815201 
	C957.089661,117.792313 956.836792,114.957863 957.148743,112.187019 
	C957.618835,108.011787 958.483643,103.881004 959.901733,99.195312 
M778.254333,98.507919 
	C779.450012,99.564262 780.645630,100.620605 782.767822,102.495468 
	C782.767822,99.160538 782.767822,97.711731 782.767822,94.993362 
	C780.815674,96.159096 779.538574,96.921745 778.254333,98.507919 
M781.926514,120.975914 
	C782.370483,119.466042 782.814453,117.956177 783.413086,115.920288 
	C781.215393,116.053680 779.851624,116.136459 778.533569,116.216469 
	C778.322571,120.316238 778.322571,120.316238 781.926514,120.975914 
z"/>
<path fill="#010101" opacity="1.000000" stroke="none" 
	d="
M280.999634,413.065063 
	C280.999634,410.257965 280.999634,407.939911 280.999634,405.237854 
	C282.342529,405.169464 283.511719,405.109955 284.893158,405.039612 
	C284.893158,472.767151 284.893158,540.064819 284.893158,608.265259 
	C291.581329,604.955933 297.784851,601.886414 305.347656,598.144287 
	C297.909515,613.091370 291.156036,626.662598 284.114319,640.812988 
	C364.550690,640.812988 444.536896,640.812988 524.762207,640.812988 
	C524.762207,682.380554 524.762207,723.449158 524.762207,764.759521 
	C363.632629,764.759521 202.573898,764.759521 41.257027,764.759521 
	C41.257027,723.655518 41.257027,682.586853 41.257027,641.188599 
	C121.195839,641.188599 201.118805,641.188599 281.960205,641.188599 
	C274.888458,626.892883 268.122070,613.214417 260.679474,598.169006 
	C268.078583,601.831665 274.208221,604.865906 280.999634,608.227722 
	C280.999634,542.987488 280.999634,478.270782 280.999634,413.065063 
M228.500000,645.000000 
	C167.406342,645.000000 106.312691,645.000000 45.289253,645.000000 
	C45.289253,683.977966 45.289253,722.382263 45.289253,760.713623 
	C203.979416,760.713623 362.380066,760.713623 520.712219,760.713623 
	C520.712219,722.022217 520.712219,683.617920 520.712219,645.000000 
	C423.448456,645.000000 326.474243,645.000000 228.500000,645.000000 
z"/>
<path fill="#010101" opacity="1.000000" stroke="none" 
	d="
M1354.000000,40.997509 
	C1451.147949,40.997509 1547.795776,40.997509 1644.756470,40.997509 
	C1644.756470,82.258812 1644.756470,123.327660 1644.756470,164.699829 
	C1483.811035,164.699829 1322.732544,164.699829 1161.182861,164.699829 
	C1161.182861,144.769150 1161.182861,124.715607 1161.182861,103.929008 
	C1146.811646,111.108780 1133.106201,117.955963 1118.213257,125.396416 
	C1121.800415,118.079506 1124.828003,111.904121 1128.098145,105.233826 
	C1073.695801,105.233826 1019.672852,105.233826 965.278198,105.233826 
	C965.195190,103.656982 965.133850,102.490639 965.060852,101.103821 
	C1019.468872,101.103821 1073.441284,101.103821 1128.250000,101.103821 
	C1124.940918,94.366165 1121.862671,88.098343 1118.171753,80.582947 
	C1133.049805,88.002586 1146.729370,94.824570 1160.895020,101.888947 
	C1160.895020,81.425133 1160.895020,61.520676 1160.895020,40.997509 
	C1225.317627,40.997509 1289.408813,40.997509 1354.000000,40.997509 
M1273.500000,160.998413 
	C1395.932983,160.998413 1518.366089,160.998413 1640.793579,160.998413 
	C1640.793579,122.071869 1640.793579,83.671852 1640.793579,45.267593 
	C1482.121582,45.267593 1323.720703,45.267593 1165.308105,45.267593 
	C1165.308105,83.934380 1165.308105,122.334511 1165.308105,160.998413 
	C1201.221924,160.998413 1236.860962,160.998413 1273.500000,160.998413 
z"/>
<path fill="#000000" opacity="1.000000" stroke="none" 
	d="
M285.000305,233.000000 
	C285.000305,269.165955 285.007233,304.831909 284.984039,340.497864 
	C284.982574,342.767120 286.028442,346.048096 281.172089,344.729889 
	C281.172089,285.115540 281.172089,225.354248 281.172089,165.194427 
	C201.064575,165.194427 121.326340,165.194427 41.294430,165.194427 
	C41.294430,123.725281 41.294430,82.653732 41.294430,41.290810 
	C202.281418,41.290810 363.351074,41.290810 524.822632,41.290810 
	C524.822632,60.947437 524.822632,80.688919 524.822632,101.000061 
	C526.980469,101.000061 528.746094,101.000061 530.511719,101.000061 
	C568.510986,101.000069 606.510193,100.993713 644.509460,101.015923 
	C646.781433,101.017250 650.058533,99.979507 648.730652,104.833008 
	C607.782043,104.833008 566.686523,104.833008 525.190552,104.833008 
	C525.190552,124.938332 525.190552,144.679871 525.190552,164.818237 
	C445.052490,164.818237 365.314240,164.818237 285.000305,164.818237 
	C285.000305,187.641953 285.000305,210.070969 285.000305,233.000000 
M173.500000,161.000793 
	C289.259033,161.000793 405.018066,161.000793 520.715820,161.000793 
	C520.715820,122.027657 520.715820,83.623070 520.715820,45.283188 
	C362.027405,45.283188 203.626007,45.283188 45.285667,45.283188 
	C45.285667,83.972458 45.285667,122.377060 45.285667,161.000793 
	C87.881180,161.000793 130.190598,161.000793 173.500000,161.000793 
z"/>
<path fill="#1C1C1C" opacity="1.000000" stroke="none" 
	d="
M895.089600,92.238701 
	C895.042664,98.188049 895.260925,103.689117 894.885681,109.149406 
	C894.341736,117.065758 889.783997,121.008804 881.789490,121.052277 
	C873.604431,121.096779 869.022034,117.403770 868.490723,109.470894 
	C868.025330,102.521187 868.176941,95.517265 868.397278,88.548080 
	C868.431335,87.469292 870.293518,86.448311 871.310303,85.400604 
	C871.764221,85.700005 872.218140,85.999405 872.672058,86.298805 
	C872.672058,93.586235 872.495789,100.879189 872.724304,108.159447 
	C872.929504,114.694695 875.735046,117.109367 882.138855,116.944595 
	C888.031372,116.792969 890.435913,114.342590 890.607178,107.675934 
	C890.789856,100.562874 890.648315,93.441475 890.648315,86.168930 
	C892.257446,86.168930 893.528198,86.168930 895.089722,86.168930 
	C895.089722,88.178886 895.089722,89.975548 895.089600,92.238701 
z"/>
<path fill="#0B0B0B" opacity="1.000000" stroke="none" 
	d="
M318.000885,356.948792 
	C323.910461,366.313507 319.785431,374.459747 309.205566,374.991516 
	C306.057831,375.149689 302.895447,375.015930 299.393707,375.015930 
	C299.393707,379.660980 299.393707,384.078247 299.393707,388.755798 
	C297.808716,388.852936 296.554169,388.929810 295.051758,389.021851 
	C295.051758,377.327881 295.051758,365.910065 295.051758,353.960297 
	C302.663147,354.788513 310.569366,351.897522 318.000885,356.948792 
M313.287567,370.096222 
	C316.676483,368.162994 316.876404,365.042145 315.934479,361.865997 
	C314.904938,358.394318 311.974762,357.850128 308.745422,357.975708 
	C305.655365,358.095886 302.556976,358.001648 299.441772,358.001648 
	C299.441772,362.617371 299.441772,366.664154 299.441772,371.202148 
	C304.004364,370.950958 308.261261,370.716583 313.287567,370.096222 
z"/>
<path fill="#1C1C1C" opacity="1.000000" stroke="none" 
	d="
M388.928864,362.081238 
	C388.928864,371.198578 388.928864,379.828674 388.928864,388.180634 
	C384.446869,388.393463 380.125214,389.322510 376.081116,388.630127 
	C369.070038,387.429779 365.657562,378.442474 368.498840,370.219696 
	C370.769165,363.649323 375.719971,361.835083 383.228546,364.793915 
	C383.499023,364.900513 383.879028,364.729156 384.660583,364.629822 
	C384.660583,361.275604 384.660583,357.851654 384.660583,354.239288 
	C386.222290,354.154633 387.342743,354.093903 388.928864,354.007904 
	C388.928864,356.673187 388.928864,359.133575 388.928864,362.081238 
M384.696533,371.341858 
	C383.236511,367.853058 380.797913,365.931091 376.884277,366.845428 
	C373.163971,367.714630 372.028534,370.667572 371.868408,374.018494 
	C371.766388,376.153717 371.399048,378.845795 372.473358,380.332092 
	C374.021790,382.474243 376.738098,384.956116 379.019379,385.019714 
	C380.932831,385.073059 383.707001,382.215637 384.685120,380.017395 
	C385.668701,377.806885 384.904938,374.818909 384.696533,371.341858 
z"/>
<path fill="#151515" opacity="1.000000" stroke="none" 
	d="
M235.603088,366.629272 
	C236.337662,374.056763 236.858948,381.146790 237.410248,388.645111 
	C235.539612,388.796997 234.337372,388.894623 232.793518,389.019958 
	C232.793518,383.563995 232.752335,378.428131 232.807678,373.293335 
	C232.845886,369.749268 231.968018,366.771759 227.825333,366.656738 
	C223.746292,366.543579 221.170288,368.714905 220.959061,372.937714 
	C220.742966,377.257660 220.968964,381.603851 220.643799,385.911591 
	C220.549484,387.161011 219.225586,388.317596 218.465363,389.516754 
	C217.994919,389.275330 217.524490,389.033936 217.054062,388.792511 
	C217.054062,377.377960 217.054062,365.963379 217.054062,354.376038 
	C220.898132,352.786011 220.838867,355.341248 220.760437,358.036102 
	C220.692902,360.356659 220.746429,362.680725 220.746429,365.540283 
	C226.025986,362.923737 231.018387,361.145294 235.603088,366.629272 
z"/>
<path fill="#151515" opacity="1.000000" stroke="none" 
	d="
M823.763367,95.417091 
	C834.647522,94.210510 837.063721,96.364838 837.064392,106.789680 
	C837.064697,111.411499 837.064392,116.033325 837.064392,121.461113 
	C835.615295,120.566635 834.082825,119.620689 832.624878,118.720741 
	C829.796936,119.434120 826.660583,120.783028 823.484558,120.884079 
	C819.588684,121.008034 816.179626,119.281303 815.814575,114.700645 
	C815.456604,110.208382 818.381592,108.077843 822.249634,107.105003 
	C824.655823,106.499794 827.240234,106.553886 829.601624,105.839256 
	C830.873047,105.454460 832.887329,103.833725 832.739624,103.189522 
	C832.392517,101.675667 831.213501,99.670044 829.893555,99.197533 
	C826.708923,98.057472 823.422058,97.978951 820.915710,101.252625 
	C820.215393,102.167336 818.584045,102.369156 816.605957,103.237831 
	C817.318359,98.060234 819.911133,96.378723 823.763367,95.417091 
M820.020508,114.314194 
	C821.779846,118.531853 825.242920,117.769585 828.404175,116.863304 
	C832.085388,115.807961 833.507935,113.096161 832.631775,108.551750 
	C828.438660,110.854431 822.761169,107.866531 820.020508,114.314194 
z"/>
<path fill="#191919" opacity="1.000000" stroke="none" 
	d="
M243.306793,378.475403 
	C247.474945,376.774902 251.488922,375.528931 255.359024,373.933868 
	C256.869690,373.311218 258.056732,371.903442 259.391174,370.853241 
	C257.981171,369.495728 256.537750,366.987213 255.168274,367.026947 
	C252.540207,367.103149 249.957962,368.636383 247.348846,369.542542 
	C246.103622,369.975037 244.840424,370.355835 243.004395,370.947144 
	C245.207245,364.523438 249.953674,362.053741 256.354736,363.084991 
	C261.796753,363.961731 263.487976,366.105011 263.568512,372.490021 
	C263.635071,377.765961 263.582123,383.043457 263.582123,389.288544 
	C262.132751,388.494476 260.517456,387.609497 258.522827,386.516693 
	C254.357071,388.858124 249.382812,390.841125 244.376755,386.909851 
	C241.649475,384.768158 241.623596,381.800018 243.306793,378.475403 
M246.717911,380.824249 
	C246.334335,385.837006 249.911316,385.554718 253.041702,385.252441 
	C257.901581,384.783203 259.557068,382.276031 258.742706,376.399292 
	C254.791641,377.639709 250.945389,378.847260 246.717911,380.824249 
z"/>
<path fill="#1C1C1C" opacity="1.000000" stroke="none" 
	d="
M796.328491,100.499329 
	C795.427368,105.343056 794.758362,109.863983 794.275757,114.404701 
	C794.066406,116.374786 794.240662,118.385651 794.240662,120.574760 
	C791.693726,121.474564 790.176392,121.444809 790.214233,118.077934 
	C790.322754,108.428024 790.330078,98.775124 790.207703,89.125542 
	C790.168030,85.997665 791.329956,85.297089 794.300964,86.463493 
	C794.300964,89.892433 794.300964,93.360146 794.300964,97.361458 
	C795.359802,96.987816 796.050171,96.803673 796.689880,96.509399 
	C804.821228,92.768799 810.089233,95.937965 810.355652,104.881332 
	C810.508911,110.027672 810.383423,115.182320 810.383423,120.344986 
	C807.311890,121.843582 806.110718,120.987816 806.220459,117.716194 
	C806.354187,113.727119 806.293457,109.729591 806.242432,105.736671 
	C806.153442,98.768600 803.162415,97.055588 796.328491,100.499329 
z"/>
<path fill="#151515" opacity="1.000000" stroke="none" 
	d="
M927.858154,98.866180 
	C932.148621,94.695587 936.789734,93.757744 941.765442,96.390366 
	C946.624634,98.961372 947.686279,103.486984 947.491760,109.026413 
	C941.313354,109.026413 935.424316,109.026413 929.246948,109.026413 
	C929.420837,113.114281 930.741577,115.888519 934.408081,117.008301 
	C937.819702,118.050247 940.459778,117.003647 942.591919,114.012863 
	C943.351624,112.947227 945.077576,112.570419 947.252869,111.400093 
	C945.516296,118.146072 942.418579,120.760979 937.248901,121.035782 
	C932.047424,121.312271 927.452026,118.593254 925.886047,113.883537 
	C924.189514,108.781059 924.384460,103.750183 927.858154,98.866180 
M934.313171,98.844376 
	C931.209778,99.873619 929.340698,101.759422 929.568787,105.249695 
	C934.240540,105.249695 938.635315,105.249695 943.312561,105.249695 
	C942.611633,99.929413 939.736755,98.129135 934.313171,98.844376 
z"/>
<path fill="#0B0B0B" opacity="1.000000" stroke="none" 
	d="
M672.726562,114.836090 
	C672.726501,116.959366 672.726501,118.611557 672.726501,120.678360 
	C671.335449,120.789070 670.127014,120.885254 668.704285,120.998489 
	C668.704285,109.266472 668.704285,97.838333 668.704285,86.194351 
	C676.181335,86.194351 683.454529,86.194351 690.882629,86.194351 
	C692.122437,89.169632 691.102417,90.194473 687.866089,90.071136 
	C682.919861,89.882629 677.961060,90.021698 672.870972,90.021698 
	C672.870972,93.811493 672.870972,97.102890 672.870972,100.803131 
	C677.984131,100.803131 683.085510,100.803131 688.323547,100.803131 
	C689.345337,103.610092 689.251831,105.146347 685.931396,105.051117 
	C681.644104,104.928169 677.350586,105.021156 672.726562,105.021156 
	C672.726562,108.446609 672.726562,111.405807 672.726562,114.836090 
z"/>
<path fill="#151515" opacity="1.000000" stroke="none" 
	d="
M902.776733,106.162804 
	C900.524170,100.699791 901.620850,97.636452 906.131836,95.849457 
	C912.109314,93.481506 917.521301,95.671349 919.419189,102.709114 
	C918.134583,102.129997 916.856628,101.535332 915.563721,100.975456 
	C913.681702,100.160492 911.777954,98.735130 909.903931,98.767159 
	C908.350464,98.793724 906.826599,100.550621 905.289612,101.540955 
	C906.531372,102.655746 907.604675,104.142235 909.053955,104.799126 
	C911.293457,105.814148 914.088562,105.796227 916.093750,107.081215 
	C918.099854,108.366760 920.683472,110.687408 920.724487,112.603294 
	C920.773499,114.893730 918.951477,118.077209 916.960693,119.398972 
	C910.896484,123.425247 903.577637,120.574303 900.234314,111.988075 
	C902.580566,112.962082 903.883606,113.430122 905.121155,114.032768 
	C907.354187,115.120255 909.484497,116.973434 911.780090,117.186150 
	C913.359070,117.332466 915.144592,115.249886 916.837769,114.163513 
	C915.439697,112.834846 914.247375,111.099991 912.599121,110.265457 
	C909.542908,108.718094 906.220337,107.696770 902.776733,106.162804 
z"/>
<path fill="#151515" opacity="1.000000" stroke="none" 
	d="
M860.716248,102.258865 
	C859.294922,102.025475 858.092102,101.635818 856.955872,101.103996 
	C855.246399,100.303886 853.552429,98.674667 851.909058,98.744469 
	C850.131592,98.819962 848.419739,100.442078 846.679260,101.389641 
	C848.022339,102.576424 849.192932,104.130295 850.749878,104.862206 
	C852.972107,105.906792 855.542786,106.182007 857.848572,107.082848 
	C863.028809,109.106750 863.949646,115.096405 859.725281,118.652794 
	C853.737915,123.693352 844.623779,120.928665 841.845276,111.725731 
	C844.015869,112.775452 845.710449,113.033104 846.299194,113.979042 
	C848.591370,117.661568 851.835632,118.030594 855.389038,116.836060 
	C856.537598,116.449959 857.934692,114.858215 857.991333,113.754990 
	C858.040894,112.789413 856.558105,111.289818 855.421204,110.809341 
	C852.694214,109.656860 849.445862,109.473900 847.033203,107.925438 
	C845.108948,106.690407 842.966858,103.990234 843.014160,101.989891 
	C843.062500,99.942726 845.228638,97.124878 847.218201,96.097404 
	C853.327454,92.942444 859.722046,95.971008 860.716248,102.258865 
z"/>
<path fill="#151515" opacity="1.000000" stroke="none" 
	d="
M766.759766,120.053993 
	C758.357971,122.317986 754.160339,120.427986 752.286682,112.319229 
	C753.533142,112.944405 754.759338,113.614845 756.030518,114.185036 
	C758.427795,115.260262 760.792297,116.833359 763.286743,117.096367 
	C764.633484,117.238373 766.220825,115.099297 767.699585,113.989326 
	C766.397827,112.746887 765.294922,111.074562 763.749207,110.359467 
	C761.223083,109.190773 758.260559,108.957558 755.749207,107.766510 
	C751.667786,105.830879 750.526489,100.378281 754.102600,97.929367 
	C756.797180,96.084084 760.779602,95.436424 764.171631,95.483879 
	C767.593872,95.531761 770.277954,97.802834 770.821960,103.294182 
	C768.852173,102.304497 767.646484,101.697990 766.440125,101.092812 
	C764.747803,100.243874 763.022766,98.670837 761.370972,98.744041 
	C759.589661,98.822968 757.876648,100.443169 756.133850,101.391006 
	C757.484192,102.580902 758.684204,104.048836 760.226929,104.882957 
	C761.789795,105.727989 763.691040,105.947716 765.444763,106.438965 
	C768.626099,107.330086 772.125549,108.741631 771.640076,112.411125 
	C771.287781,115.073479 768.721069,117.442818 766.759766,120.053993 
z"/>
<path fill="#151515" opacity="1.000000" stroke="none" 
	d="
M283.627441,364.049255 
	C285.451233,365.822021 286.906891,367.464752 288.362549,369.107483 
	C288.041656,369.678375 287.720734,370.249268 287.399811,370.820129 
	C286.157684,370.290161 284.876251,369.835358 283.683228,369.211487 
	C282.140167,368.404541 280.615570,366.674316 279.177460,366.769470 
	C277.178162,366.901764 275.266449,368.358734 273.317261,369.248657 
	C274.768860,370.505432 276.051270,372.100464 277.715210,372.932617 
	C279.757568,373.954041 282.394714,373.910217 284.265137,375.116821 
	C286.164886,376.342346 288.440796,378.387146 288.719025,380.334991 
	C289.005280,382.338989 287.645447,385.315643 286.017273,386.722839 
	C280.205170,391.746216 271.427032,388.900604 268.312225,379.696747 
	C270.679230,380.925903 271.909973,381.602570 273.172852,382.212585 
	C275.416870,383.296448 277.637787,385.018311 279.950531,385.163361 
	C281.510864,385.261230 283.212219,383.111053 284.850464,381.966461 
	C283.539612,380.728210 282.412781,379.127441 280.870758,378.344543 
	C278.991943,377.390747 276.743561,377.189575 274.691498,376.546631 
	C271.362762,375.503754 268.493347,373.195648 269.535950,369.777435 
	C270.301086,367.269043 273.055420,364.718689 275.556427,363.588806 
	C277.647614,362.644196 280.656738,363.731659 283.627441,364.049255 
z"/>
<path fill="#151515" opacity="1.000000" stroke="none" 
	d="
M185.881226,377.105225 
	C181.584808,375.895142 178.093292,374.188293 178.793198,369.283508 
	C179.457901,364.625427 183.141083,363.329224 187.169418,363.008301 
	C192.527161,362.581451 195.547943,364.749237 197.546143,371.408997 
	C195.342133,370.310242 194.130020,369.710449 192.921951,369.102600 
	C191.235397,368.254028 189.519852,366.672180 187.875656,366.744476 
	C186.099091,366.822540 184.390350,368.443878 182.652023,369.392059 
	C183.993607,370.577637 185.162766,372.130005 186.717987,372.861053 
	C188.938431,373.904694 191.506210,374.181122 193.810959,375.079407 
	C199.001358,377.102509 199.930679,383.054718 195.712723,386.635437 
	C189.763443,391.685913 180.661255,388.953644 177.802261,379.773895 
	C179.945786,380.773041 181.678284,381.009003 182.256927,381.952576 
	C184.382797,385.419128 187.422119,386.044769 190.836960,384.965454 
	C192.145798,384.551788 193.829559,382.970673 193.928909,381.801453 
	C194.013977,380.800476 192.250092,379.331879 190.993698,378.610474 
	C189.601440,377.811005 187.856888,377.625061 185.881226,377.105225 
z"/>
<path fill="#1C1C1C" opacity="1.000000" stroke="none" 
	d="
M732.260010,100.422325 
	C731.380188,105.445297 730.751404,110.144875 730.270813,114.859550 
	C730.086670,116.666115 730.240845,118.507179 730.240845,122.208015 
	C728.301086,120.470329 726.415161,119.578239 726.385742,118.628662 
	C726.144897,110.851189 726.250000,103.063011 726.250000,96.107773 
	C730.515686,95.682091 734.150757,95.152580 737.801758,94.996292 
	C742.598816,94.790947 745.938110,97.611839 746.137146,102.331642 
	C746.394836,108.444038 746.200012,114.575523 746.200012,120.698784 
	C745.754456,120.979027 745.308838,121.259262 744.863281,121.539497 
	C743.991394,120.422264 742.455505,119.354744 742.367493,118.178810 
	C742.057861,114.044022 742.301270,109.871048 742.232544,105.714256 
	C742.117737,98.769005 739.203979,97.099525 732.260010,100.422325 
z"/>
<path fill="#151515" opacity="1.000000" stroke="none" 
	d="
M168.794556,386.419922 
	C168.793137,381.656555 168.771332,377.340057 168.798126,373.023865 
	C168.820511,369.417358 167.628494,366.650665 163.565155,366.619171 
	C159.737122,366.589447 157.201324,368.596039 156.986984,372.595673 
	C156.747391,377.066101 156.977829,381.565399 156.638123,386.024323 
	C156.545258,387.243256 155.139603,388.362183 154.336411,389.527008 
	C153.894913,389.268219 153.453415,389.009460 153.011917,388.750671 
	C153.011917,380.341217 153.011917,371.931763 153.011917,362.564911 
	C154.703949,363.447144 156.094391,364.172150 157.964645,365.147339 
	C158.698990,364.795349 160.117966,363.910614 161.661652,363.412048 
	C167.263657,361.602783 172.357391,364.822754 172.648254,370.654175 
	C172.944611,376.596039 172.713806,382.564209 171.614624,389.493927 
	C170.674820,388.618256 169.735001,387.742584 168.794556,386.419922 
z"/>
<path fill="#191919" opacity="1.000000" stroke="none" 
	d="
M415.765564,373.045105 
	C415.765533,378.513397 415.765533,383.491516 415.765533,389.799286 
	C413.735748,388.549561 412.501251,387.789520 410.570038,386.600464 
	C410.439911,386.675995 409.252930,387.499268 407.960297,388.092285 
	C401.986023,390.833191 396.161926,387.554871 395.849121,381.031006 
	C395.570953,375.229187 395.790710,369.403473 395.790710,363.402710 
	C398.780762,362.233734 399.957397,363.086243 399.810333,366.380157 
	C399.624969,370.531921 399.819702,374.699188 399.753540,378.858215 
	C399.696320,382.453674 400.705566,385.306885 404.838867,385.358032 
	C408.706085,385.405945 411.246735,383.279053 411.423584,379.339600 
	C411.661591,374.038696 411.482635,368.719055 411.482635,363.498596 
	C414.486328,362.404541 416.025085,362.801025 415.793915,366.067169 
	C415.641571,368.219635 415.765411,370.391632 415.765564,373.045105 
z"/>
<path fill="#151515" opacity="1.000000" stroke="none" 
	d="
M358.831177,364.971008 
	C365.968567,371.863068 365.360657,383.593536 357.996155,387.525970 
	C353.143768,390.116974 347.268188,389.260437 343.787323,385.454773 
	C340.206085,381.539368 339.645142,372.890533 342.658936,368.056213 
	C345.171387,364.026062 350.446655,362.063293 355.316284,363.426788 
	C356.419037,363.735535 357.445953,364.315186 358.831177,364.971008 
M355.644135,367.327759 
	C351.566956,365.818939 348.117493,366.452209 345.896301,370.477997 
	C343.684418,374.486847 344.720154,381.386932 347.751312,383.842865 
	C351.331055,386.743347 356.628143,385.579224 358.672333,381.442780 
	C360.799194,377.139038 359.823578,371.548859 355.644135,367.327759 
z"/>
<path fill="#191919" opacity="1.000000" stroke="none" 
	d="
M431.222412,366.703400 
	C424.853119,369.427063 422.938904,378.968170 427.459747,383.513153 
	C430.626587,386.696991 435.469971,385.740021 437.899597,381.673401 
	C438.585541,380.525299 440.063232,379.850159 441.533112,379.422852 
	C440.807648,386.010773 436.903748,389.354340 431.505402,389.034027 
	C425.545288,388.680328 421.589539,384.400757 421.043457,377.715729 
	C420.395325,369.781525 423.683197,364.495636 430.097443,363.159760 
	C435.455658,362.043793 439.654724,364.716705 441.199982,371.798248 
	C439.929108,371.117554 438.654755,370.443298 437.388153,369.754730 
	C435.466705,368.710083 433.550659,367.655548 431.222412,366.703400 
z"/>
<path fill="#1C1C1C" opacity="1.000000" stroke="none" 
	d="
M698.670898,86.043922 
	C710.831604,99.983047 709.864258,127.103012 696.865479,130.986343 
	C697.698792,129.267441 698.367676,127.875778 699.046631,126.489044 
	C705.089478,114.145905 705.103271,101.891693 698.661438,89.653893 
	C698.130676,88.645554 698.401001,87.215492 698.670898,86.043922 
z"/>
<path fill="#1C1C1C" opacity="1.000000" stroke="none" 
	d="
M652.393433,100.305069 
	C654.129761,94.408089 656.743164,89.554451 661.370850,85.739594 
	C653.227844,100.989334 653.376953,115.843224 662.225220,130.733475 
	C654.806458,129.441284 649.944214,114.079971 652.393433,100.305069 
z"/>
<path fill="#191919" opacity="1.000000" stroke="none" 
	d="
M447.086212,371.262024 
	C447.086121,370.468323 447.225647,370.028931 447.065125,369.818359 
	C444.499695,366.453918 444.283539,363.179810 447.048950,359.747009 
	C448.110718,358.428955 448.741089,356.763458 449.568054,355.256287 
	C449.986176,355.403381 450.404297,355.550507 450.822418,355.697601 
	C450.955139,357.956848 451.087860,360.216125 451.200989,362.141785 
	C452.646637,362.937866 453.920654,363.639465 455.194672,364.341064 
	C454.074738,365.408783 452.954803,366.476501 451.147888,368.199188 
	C452.299011,374.324890 447.336334,382.634674 456.725739,388.036713 
	C449.437012,389.876495 447.210876,388.317383 447.098938,382.210022 
	C447.034882,378.715363 447.086609,375.218628 447.086212,371.262024 
z"/>
<path fill="#1C1C1C" opacity="1.000000" stroke="none" 
	d="
M327.068237,388.869720 
	C326.654968,380.292328 326.654968,371.868256 326.654968,362.684143 
	C328.157928,363.327423 329.489716,363.897461 330.421448,364.296265 
	C333.258179,363.907990 336.071838,363.522858 338.885468,363.137695 
	C339.075714,363.802246 339.265961,364.466766 339.456177,365.131317 
	C338.430450,365.696838 337.330505,366.846252 336.391815,366.726990 
	C332.302765,366.207275 330.855011,368.632568 330.593170,371.890198 
	C330.221832,376.509613 330.258179,381.167236 330.257172,385.808533 
	C330.256744,387.819672 330.281525,389.561035 327.068237,388.869720 
z"/>
<path fill="#1C1C1C" opacity="1.000000" stroke="none" 
	d="
M959.541199,99.463318 
	C958.483643,103.881004 957.618835,108.011787 957.148743,112.187019 
	C956.836792,114.957863 957.089661,117.792313 957.089661,120.815201 
	C955.758484,120.815201 954.644226,120.815201 953.313843,120.815201 
	C953.313843,112.338715 953.313843,103.928574 953.313843,94.215996 
	C957.311157,98.900925 961.949707,92.673546 967.157471,97.439262 
	C964.108093,98.177277 962.004944,98.686295 959.541199,99.463318 
z"/>
<path fill="#1C1C1C" opacity="1.000000" stroke="none" 
	d="
M778.257874,98.096161 
	C779.538574,96.921745 780.815674,96.159096 782.767822,94.993362 
	C782.767822,97.711731 782.767822,99.160538 782.767822,102.495468 
	C780.645630,100.620605 779.450012,99.564262 778.257874,98.096161 
z"/>
<path fill="#1C1C1C" opacity="1.000000" stroke="none" 
	d="
M781.537354,121.011780 
	C778.322571,120.316238 778.322571,120.316238 778.533569,116.216469 
	C779.851624,116.136459 781.215393,116.053680 783.413086,115.920288 
	C782.814453,117.956177 782.370483,119.466042 781.537354,121.011780 
z"/>
<path fill="#FEFEFE" opacity="1.000000" stroke="none" 
	d="
M229.000000,645.000000 
	C326.474243,645.000000 423.448456,645.000000 520.712219,645.000000 
	C520.712219,683.617920 520.712219,722.022217 520.712219,760.713623 
	C362.380066,760.713623 203.979416,760.713623 45.289253,760.713623 
	C45.289253,722.382263 45.289253,683.977966 45.289253,645.000000 
	C106.312691,645.000000 167.406342,645.000000 229.000000,645.000000 
M253.294601,702.129639 
	C258.494415,699.765442 260.673553,696.093811 260.014374,690.807434 
	C259.390228,685.801880 256.304840,682.626282 250.665176,682.218018 
	C245.282074,681.828369 239.848648,682.134033 234.362152,682.134033 
	C234.362152,693.971008 234.362152,705.355774 234.362152,717.009888 
	C235.842636,716.903931 237.067627,716.816223 238.717529,716.698120 
	C238.717529,712.003662 238.717529,707.618530 238.717529,703.403320 
	C243.613235,703.018616 248.048233,702.670105 253.294601,702.129639 
M325.082001,716.863464 
	C326.070374,716.233765 327.909882,715.617859 327.920349,714.972290 
	C328.097443,704.058472 328.047119,693.140930 328.047119,681.294189 
	C320.773651,684.081787 326.330383,690.372131 323.417175,693.605408 
	C316.974274,689.574585 310.513733,690.752808 308.303986,696.999084 
	C307.090912,700.428223 306.758270,704.570190 307.373444,708.160400 
	C308.622223,715.448303 315.208954,718.520203 322.098267,715.815308 
	C322.746246,715.560974 323.699646,716.084473 325.082001,716.863464 
M188.285278,694.373413 
	C183.699020,690.088196 181.195129,689.912598 174.781265,693.023743 
	C172.959335,692.119629 171.574570,691.432434 169.881287,690.592163 
	C169.881287,699.955811 169.881287,708.360474 169.881287,716.765137 
	C170.342270,717.014648 170.803253,717.264099 171.264236,717.513611 
	C172.040085,716.341370 173.391846,715.213806 173.486740,713.988831 
	C173.806503,709.861267 173.639908,705.698181 173.733994,701.550415 
	C173.832779,697.195862 176.010254,694.571533 180.462799,694.646423 
	C184.930298,694.721436 185.647507,697.992676 185.639282,701.621887 
	C185.627777,706.692078 185.636368,711.762329 185.636368,716.832520 
	C186.079041,717.091064 186.521713,717.349670 186.964371,717.608276 
	C187.838745,716.695312 189.476196,715.773315 189.465469,714.870911 
	C189.386841,708.268311 188.977661,701.669678 188.285278,694.373413 
M212.790726,714.266724 
	C216.690048,708.309387 215.567612,704.830933 208.997116,702.641174 
	C207.114899,702.013855 205.049484,701.777832 203.329941,700.867676 
	C201.792435,700.053711 200.615784,698.558105 199.279922,697.363281 
	C201.033173,696.426392 202.759644,694.820190 204.547516,694.748596 
	C206.201996,694.682373 207.919830,696.263611 209.614304,697.110291 
	C210.823456,697.714417 212.040100,698.303589 214.238892,699.383362 
	C211.596207,690.937500 202.523392,688.515137 197.433624,693.390686 
	C194.072113,696.610718 194.691147,701.725464 198.939087,703.769165 
	C201.294205,704.902161 204.101700,705.096863 206.452621,706.235901 
	C208.133301,707.050293 209.394028,708.731384 210.842133,710.025757 
	C209.024017,711.166687 207.184769,713.244812 205.393295,713.204346 
	C203.290283,713.156982 201.235199,711.256348 199.146744,710.183899 
	C197.916306,709.552124 196.661499,708.967834 195.417633,708.362122 
	C197.699341,717.288391 203.914734,719.134521 212.790726,714.266724 
M280.604034,699.417603 
	C279.222473,707.944153 281.162109,713.434937 286.422638,715.889038 
	C292.204987,718.586548 299.220703,716.296387 301.846344,710.854248 
	C305.189056,703.925842 302.692841,694.866943 296.674927,692.086731 
	C290.383179,689.180054 284.006409,691.816895 280.604034,699.417603 
M380.688232,711.258667 
	C380.453674,709.930542 380.219116,708.602478 379.984558,707.274353 
	C379.028320,708.077698 378.146759,708.999634 377.100006,709.659363 
	C375.023010,710.968567 372.735504,713.256531 370.757416,713.046448 
	C368.714020,712.829346 366.093506,710.469177 365.258667,708.421570 
	C364.275635,706.010437 364.250763,702.691650 365.100800,700.208069 
	C365.827698,698.084229 368.159515,695.531311 370.183960,695.112183 
	C372.107117,694.714050 374.556824,696.826355 376.765869,697.854370 
	C378.050537,698.452209 379.317230,699.088684 380.592010,699.707825 
	C378.953278,692.820068 375.454681,690.404846 370.335968,691.017944 
	C364.766876,691.684998 361.461334,695.129944 360.512421,701.255737 
	C359.429260,708.248108 361.857513,713.838196 366.940155,716.052979 
	C372.062408,718.285034 376.322021,716.956299 380.688232,711.258667 
M334.955261,694.711853 
	C335.002380,699.526062 334.849121,704.352722 335.147949,709.151306 
	C335.511383,714.987000 340.561462,718.392395 345.987915,716.599609 
	C347.676422,716.041748 349.184601,714.938049 350.234650,714.374451 
	C351.623077,715.479126 352.855438,716.459595 354.859833,718.054382 
	C354.859833,708.280151 354.859833,699.870117 354.859833,691.475220 
	C351.094666,691.181458 351.031830,691.180176 350.970673,694.149963 
	C350.881836,698.464722 351.054474,702.790466 350.817841,707.095154 
	C350.589478,711.248840 348.075226,713.506042 343.958313,713.349731 
	C339.816162,713.192444 339.000641,710.200745 339.038544,706.685730 
	C339.093628,701.579102 339.052673,696.471497 339.052673,691.364319 
	C338.565491,691.079529 338.078308,690.794800 337.591125,690.510071 
	C336.712708,691.592651 335.834259,692.675293 334.955261,694.711853 
M390.367706,705.439819 
	C390.367767,703.285400 390.263489,701.124023 390.405151,698.978943 
	C390.496704,697.593079 390.631409,696.033752 391.328156,694.913879 
	C392.021698,693.799133 393.441650,693.136353 394.543060,692.275391 
	C393.223877,691.600281 391.904694,690.925171 390.485016,690.198608 
	C390.381592,688.176636 390.268158,685.958374 390.159332,683.830688 
	C384.410675,684.077637 388.363495,691.459351 383.327118,691.893555 
	C383.282104,691.897400 383.176819,692.563721 383.296661,692.833191 
	C383.542236,693.385376 383.951599,693.861877 384.240326,694.398193 
	C384.980652,695.773621 386.196991,697.123047 386.315582,698.557800 
	C386.614960,702.179016 386.383881,705.841858 386.421692,709.487427 
	C386.491547,716.223083 388.123138,717.573486 395.207306,716.510864 
	C394.821686,715.433167 394.537262,713.569153 394.080688,713.526062 
	C389.015289,713.047180 390.636078,709.265625 390.367706,705.439819 
M269.575378,714.952881 
	C269.618744,710.312561 269.479645,705.661011 269.763336,701.035400 
	C269.989716,697.343994 270.919098,694.000427 276.018494,694.764038 
	C276.806427,694.882019 277.819794,693.494507 278.728912,692.803223 
	C278.543335,692.492371 278.357788,692.181458 278.172211,691.870605 
	C274.134796,691.870605 270.097382,691.870605 265.823120,691.870605 
	C265.823120,699.718018 265.823120,708.133972 265.823120,717.387756 
	C267.255188,716.790283 268.395966,716.314270 269.575378,714.952881 
M221.410400,694.507935 
	C222.584290,695.560120 223.758179,696.612366 225.876770,698.511353 
	C225.876770,695.146667 225.876770,693.698364 225.876770,690.967834 
	C223.936020,692.157104 222.676956,692.928589 221.410400,694.507935 
M226.061386,713.744019 
	C224.738953,713.017456 223.416519,712.290833 221.215393,711.081421 
	C221.477814,714.093384 221.599426,715.489075 221.721039,716.884827 
	C222.137466,717.158875 222.553909,717.432922 222.970337,717.707031 
	C224.001907,716.638245 225.033493,715.569458 226.061386,713.744019 
z"/>
<path fill="#FEFEFE" opacity="1.000000" stroke="none" 
	d="
M1273.000000,160.998413 
	C1236.860962,160.998413 1201.221924,160.998413 1165.308105,160.998413 
	C1165.308105,122.334511 1165.308105,83.934380 1165.308105,45.267593 
	C1323.720703,45.267593 1482.121582,45.267593 1640.793579,45.267593 
	C1640.793579,83.671852 1640.793579,122.071869 1640.793579,160.998413 
	C1518.366089,160.998413 1395.932983,160.998413 1273.000000,160.998413 
M1387.608398,81.986488 
	C1387.174072,82.749916 1386.371704,83.509056 1386.362793,84.277435 
	C1386.283325,91.089790 1386.081299,97.917320 1386.430908,104.713860 
	C1386.868408,113.221321 1391.517334,117.204155 1400.071411,117.050537 
	C1408.215210,116.904289 1412.630615,112.806953 1412.970581,104.414703 
	C1413.266113,97.118217 1413.032104,89.800278 1413.032104,82.265190 
	C1411.603638,82.265190 1410.234497,82.265190 1408.682373,82.265190 
	C1408.682373,89.717880 1408.855103,96.864716 1408.632202,103.999168 
	C1408.423096,110.690422 1405.788452,113.035660 1399.359497,112.946053 
	C1393.451172,112.863701 1390.938110,110.354485 1390.745239,103.832550 
	C1390.563599,97.688240 1390.800903,91.530838 1390.581177,85.388985 
	C1390.539429,84.219963 1389.224854,83.096489 1387.608398,81.986488 
M1460.495483,92.791443 
	C1453.130859,89.463799 1446.512451,91.599426 1443.981934,98.120178 
	C1440.940796,105.955872 1444.021240,114.148109 1450.843872,116.369705 
	C1457.553711,118.554550 1463.086548,115.648987 1465.338745,107.459244 
	C1463.154663,108.584732 1461.401245,108.924484 1460.660767,109.976883 
	C1458.545776,112.982849 1455.917603,114.037964 1452.500488,113.018433 
	C1448.826050,111.922104 1447.503540,109.144394 1447.238647,104.886948 
	C1453.560913,104.886948 1459.562500,104.886948 1467.444214,104.886948 
	C1464.886108,100.132355 1463.016357,96.657021 1460.495483,92.791443 
M1438.097534,112.723373 
	C1440.014282,106.987175 1438.986328,104.669159 1433.589722,102.799744 
	C1431.558105,102.095963 1429.337402,101.816765 1427.448975,100.858971 
	C1425.898071,100.072441 1424.711548,98.567802 1423.363525,97.381424 
	C1425.120728,96.445038 1426.852051,94.838432 1428.642822,94.768982 
	C1430.291138,94.705055 1431.995117,96.310646 1433.690063,97.149681 
	C1434.908936,97.753006 1436.153198,98.305145 1438.329346,99.319992 
	C1435.653687,90.914886 1426.566528,88.526230 1421.478516,93.403458 
	C1418.265747,96.483139 1418.681763,101.405823 1422.592896,103.520088 
	C1424.741943,104.681786 1427.254639,105.163940 1429.591064,105.987343 
	C1431.922119,106.808815 1435.897095,106.815796 1434.465698,110.426300 
	C1433.832397,112.023674 1429.905029,112.791710 1427.401978,112.977478 
	C1426.078857,113.075676 1424.662476,111.018585 1423.177246,110.117371 
	C1422.007690,109.407654 1420.668335,108.977760 1418.282593,107.931694 
	C1422.112305,117.983475 1430.497559,119.605896 1438.097534,112.723373 
M1323.600708,117.047020 
	C1324.291016,115.867188 1325.491089,114.723900 1325.578857,113.500877 
	C1325.876099,109.355370 1325.692261,105.178139 1325.857910,101.019630 
	C1326.026733,96.784981 1328.473755,94.562317 1332.609375,94.652641 
	C1336.774414,94.743622 1337.683594,97.740204 1337.682617,101.248161 
	C1337.681396,106.389145 1337.682373,111.530136 1337.682373,116.671120 
	C1338.093262,116.970131 1338.504028,117.269150 1338.914917,117.568161 
	C1339.832520,116.604935 1341.500000,115.673859 1341.542969,114.673180 
	C1341.778198,109.187599 1341.900513,103.664482 1341.508545,98.193886 
	C1341.112915,92.672226 1335.979248,89.650940 1330.575317,91.396866 
	C1329.032471,91.895332 1327.611328,92.770454 1326.941772,93.088837 
	C1325.004395,92.127892 1323.617432,91.439949 1321.685791,90.481865 
	C1321.685791,98.054848 1321.605835,104.550484 1321.733765,111.042015 
	C1321.772949,113.034843 1322.381592,115.016441 1323.600708,117.047020 
M1356.739502,113.426910 
	C1354.870483,112.263809 1353.027588,111.055779 1351.122925,109.954376 
	C1349.969238,109.287346 1348.720093,108.785446 1346.579468,107.763069 
	C1349.346924,117.121353 1359.172974,119.802124 1364.867798,114.270973 
	C1368.542847,110.701561 1367.671997,105.186897 1362.961426,103.222885 
	C1360.523926,102.206573 1357.762695,101.938324 1355.376831,100.836197 
	C1353.829834,100.121643 1352.696533,98.511368 1351.377930,97.302368 
	C1352.992920,96.392044 1354.628296,94.725662 1356.217529,94.768608 
	C1358.076294,94.818832 1359.881714,96.387108 1361.735229,97.243103 
	C1362.961792,97.809601 1364.232056,98.281586 1366.419067,99.180832 
	C1363.510498,90.973633 1354.914307,88.628479 1349.707520,93.180260 
	C1346.194458,96.251343 1346.603271,101.479698 1350.754272,103.636482 
	C1352.930786,104.767326 1355.561279,105.010361 1357.773315,106.091301 
	C1359.643555,107.005241 1361.206299,108.548706 1362.905151,109.813538 
	C1361.143066,111.016823 1359.380859,112.220116 1356.739502,113.426910 
M1483.629883,91.971588 
	C1479.559692,91.971588 1475.489380,91.971588 1471.141846,91.971588 
	C1471.141846,99.025436 1471.238770,106.470757 1471.096436,113.911507 
	C1471.035278,117.113800 1472.301514,117.660240 1475.238281,116.471565 
	C1475.238281,111.407135 1475.014282,106.264633 1475.314453,101.152931 
	C1475.525269,97.562889 1476.384399,94.068413 1481.509399,94.752281 
	C1482.259399,94.852348 1483.216919,93.398079 1483.629883,91.971588 
M1378.077026,92.982124 
	C1376.708740,92.591827 1375.340454,92.201538 1373.721924,91.739861 
	C1373.721924,93.909882 1373.721924,95.338470 1373.721924,96.708092 
	C1376.573853,97.453232 1378.646484,97.390221 1378.077026,92.982124 
M1375.506714,117.049767 
	C1379.922241,117.163780 1377.592651,114.131432 1378.121704,111.884979 
	C1376.343140,112.052071 1374.975708,112.180550 1372.825928,112.382515 
	C1373.617432,114.319931 1374.168091,115.667839 1375.506714,117.049767 
z"/>
<path fill="#FFFFFF" opacity="1.000000" stroke="none" 
	d="
M173.000000,161.000793 
	C130.190598,161.000793 87.881180,161.000793 45.285667,161.000793 
	C45.285667,122.377060 45.285667,83.972458 45.285667,45.283188 
	C203.626007,45.283188 362.027405,45.283188 520.715820,45.283188 
	C520.715820,83.623070 520.715820,122.027657 520.715820,161.000793 
	C405.018066,161.000793 289.259033,161.000793 173.000000,161.000793 
M282.356110,86.260002 
	C288.585876,84.943893 293.588776,86.296501 295.908203,93.052094 
	C297.480652,92.377365 298.590759,91.901016 299.704193,91.423256 
	C295.769806,82.738419 287.829956,79.777321 279.359619,83.554840 
	C271.098206,87.239174 267.812317,98.454124 272.126373,108.242531 
	C275.482574,115.857697 285.024445,119.603226 292.717560,115.543594 
	C296.015289,113.803406 298.316589,110.174980 301.850739,106.619705 
	C298.828491,105.853951 297.615173,105.546532 296.474304,105.257462 
	C292.175964,113.734360 283.112274,115.788719 277.857697,109.745476 
	C272.361969,103.424980 274.392212,90.968002 282.356110,86.260002 
M341.978790,91.003403 
	C340.132904,91.598274 338.287018,92.193146 337.088348,92.579437 
	C335.456940,91.903511 334.129578,91.353554 332.239563,90.570488 
	C332.239563,99.134109 332.129059,106.769623 332.366577,114.394302 
	C332.399689,115.456795 334.145599,116.465935 335.098633,117.499771 
	C336.226837,112.083542 336.141968,107.599686 336.245209,103.120155 
	C336.435944,94.844444 340.871918,92.145943 349.079803,95.458168 
	C349.079803,100.328690 349.018280,105.299049 349.095551,110.267258 
	C349.189880,116.334175 351.483307,117.905220 358.724213,116.019371 
	C349.343109,110.640633 354.308014,102.335686 353.149780,96.185852 
	C354.945068,94.495163 356.072662,93.433273 357.200256,92.371384 
	C355.940338,91.652321 354.680389,90.933258 353.201996,90.089516 
	C353.097931,88.246742 352.970367,85.988174 352.842804,83.729607 
	C352.299377,83.565475 351.755951,83.401344 351.212555,83.237206 
	C350.208405,85.613716 349.204254,87.990219 347.871674,91.144081 
	C346.831940,91.144081 344.859375,91.144081 341.978790,91.003403 
M315.096222,116.800613 
	C317.233032,115.939560 319.369843,115.078514 320.407379,114.660423 
	C322.656769,115.818436 324.191925,116.608765 325.588104,117.327538 
	C325.588104,111.165428 325.636963,105.882278 325.575623,100.600403 
	C325.500549,94.134567 323.852570,92.001900 318.423492,91.096237 
	C312.039276,90.031250 307.221344,92.519051 304.829193,99.490509 
	C307.154877,98.323997 308.726227,97.998680 309.556824,97.034920 
	C312.368866,93.772041 315.782196,94.091583 319.076874,95.462906 
	C320.207367,95.933441 321.134644,98.031700 321.212555,99.438477 
	C321.255219,100.208549 319.448395,101.507011 318.271027,101.836578 
	C315.095612,102.725464 311.456635,102.574814 308.685638,104.088745 
	C306.628723,105.212524 304.407379,108.364891 304.527435,110.485245 
	C304.646301,112.584488 307.369171,114.834183 309.418945,116.406326 
	C310.520477,117.251175 312.607117,116.811684 315.096222,116.800613 
M238.742447,104.876167 
	C241.129623,105.549339 243.599136,106.027756 245.865723,106.986122 
	C246.850159,107.402359 248.042358,108.829224 248.007751,109.754707 
	C247.968781,110.796478 246.852524,112.347755 245.856476,112.704407 
	C242.390411,113.945488 239.083176,113.926979 236.540634,110.437836 
	C235.772095,109.383179 234.189331,108.921844 232.979538,108.188744 
	C234.578812,116.914688 243.677063,119.697418 249.672867,114.664200 
	C253.920685,111.098351 253.037155,105.114716 247.850601,103.096939 
	C245.392441,102.140602 242.663681,101.842918 240.269669,100.772408 
	C238.846176,100.135880 237.835144,98.576981 236.638672,97.432770 
	C238.035843,96.489906 239.470596,94.731827 240.821442,94.794083 
	C242.878876,94.888893 244.896500,96.202454 246.895523,97.079369 
	C248.140274,97.625397 249.319626,98.320526 251.530579,99.469658 
	C249.538162,92.640289 245.734909,90.195198 240.227066,91.072060 
	C236.603607,91.648933 233.391037,93.059349 232.778229,97.234840 
	C232.189713,101.244896 234.551361,103.367355 238.742447,104.876167 
M211.226471,100.811783 
	C211.790115,96.426552 214.302414,94.208359 218.682724,94.733040 
	C223.278854,95.283554 223.076981,98.946465 223.075195,102.338676 
	C223.072678,107.128166 223.074570,111.917648 223.074570,116.826187 
	C224.587524,116.826187 225.694641,116.826187 227.050461,116.826187 
	C227.050461,110.664558 227.243378,104.699997 226.996506,98.753693 
	C226.746765,92.738495 221.418594,89.449524 215.651230,91.540062 
	C214.120087,92.095055 212.727829,93.033234 212.148651,93.336433 
	C210.446213,92.257500 209.159866,91.442276 207.277298,90.249176 
	C207.277298,99.852562 207.277298,108.278214 207.277298,116.826225 
	C208.587158,116.826225 209.694321,116.826225 211.161530,116.826225 
	C211.161530,111.664009 211.161530,106.704559 211.226471,100.811783 
z"/>
<path fill="#F5F5F5" opacity="1.000000" stroke="none" 
	d="
M312.902863,370.289215 
	C308.261261,370.716583 304.004364,370.950958 299.441772,371.202148 
	C299.441772,366.664154 299.441772,362.617371 299.441772,358.001648 
	C302.556976,358.001648 305.655365,358.095886 308.745422,357.975708 
	C311.974762,357.850128 314.904938,358.394318 315.934479,361.865997 
	C316.876404,365.042145 316.676483,368.162994 312.902863,370.289215 
z"/>
<path fill="#F5F5F5" opacity="1.000000" stroke="none" 
	d="
M384.801697,371.756744 
	C384.904938,374.818909 385.668701,377.806885 384.685120,380.017395 
	C383.707001,382.215637 380.932831,385.073059 379.019379,385.019714 
	C376.738098,384.956116 374.021790,382.474243 372.473358,380.332092 
	C371.399048,378.845795 371.766388,376.153717 371.868408,374.018494 
	C372.028534,370.667572 373.163971,367.714630 376.884277,366.845428 
	C380.797913,365.931091 383.236511,367.853058 384.801697,371.756744 
z"/>
<path fill="#F5F5F5" opacity="1.000000" stroke="none" 
	d="
M820.014954,113.925903 
	C822.761169,107.866531 828.438660,110.854431 832.631775,108.551750 
	C833.507935,113.096161 832.085388,115.807961 828.404175,116.863304 
	C825.242920,117.769585 821.779846,118.531853 820.014954,113.925903 
z"/>
<path fill="#F5F5F5" opacity="1.000000" stroke="none" 
	d="
M246.908508,380.439514 
	C250.945389,378.847260 254.791641,377.639709 258.742706,376.399292 
	C259.557068,382.276031 257.901581,384.783203 253.041702,385.252441 
	C249.911316,385.554718 246.334335,385.837006 246.908508,380.439514 
z"/>
<path fill="#E0E0E0" opacity="1.000000" stroke="none" 
	d="
M934.674561,98.757187 
	C939.736755,98.129135 942.611633,99.929413 943.312561,105.249695 
	C938.635315,105.249695 934.240540,105.249695 929.568787,105.249695 
	C929.340698,101.759422 931.209778,99.873619 934.674561,98.757187 
z"/>
<path fill="#F5F5F5" opacity="1.000000" stroke="none" 
	d="
M355.969604,367.574738 
	C359.823578,371.548859 360.799194,377.139038 358.672333,381.442780 
	C356.628143,385.579224 351.331055,386.743347 347.751312,383.842865 
	C344.720154,381.386932 343.684418,374.486847 345.896301,370.477997 
	C348.117493,366.452209 351.566956,365.818939 355.969604,367.574738 
z"/>
<path fill="#0B0B0B" opacity="1.000000" stroke="none" 
	d="
M252.888916,702.225586 
	C248.048233,702.670105 243.613235,703.018616 238.717529,703.403320 
	C238.717529,707.618530 238.717529,712.003662 238.717529,716.698120 
	C237.067627,716.816223 235.842636,716.903931 234.362152,717.009888 
	C234.362152,705.355774 234.362152,693.971008 234.362152,682.134033 
	C239.848648,682.134033 245.282074,681.828369 250.665176,682.218018 
	C256.304840,682.626282 259.390228,685.801880 260.014374,690.807434 
	C260.673553,696.093811 258.494415,699.765442 252.888916,702.225586 
M244.530533,686.001282 
	C242.616562,686.001282 240.702606,686.001282 238.479889,686.001282 
	C238.479889,688.560791 238.479874,690.528381 238.479874,692.496033 
	C238.479874,694.592285 238.479889,696.688538 238.479889,698.969482 
	C242.548325,698.969482 246.027390,699.118103 249.488327,698.931152 
	C253.647797,698.706421 255.839081,696.320679 255.685715,692.137451 
	C255.542450,688.229614 253.502533,686.022034 249.429550,686.009155 
	C248.104584,686.004944 246.779617,686.003845 244.530533,686.001282 
z"/>
<path fill="#191919" opacity="1.000000" stroke="none" 
	d="
M324.796631,716.555176 
	C323.699646,716.084473 322.746246,715.560974 322.098267,715.815308 
	C315.208954,718.520203 308.622223,715.448303 307.373444,708.160400 
	C306.758270,704.570190 307.090912,700.428223 308.303986,696.999084 
	C310.513733,690.752808 316.974274,689.574585 323.420593,693.606689 
	C326.330383,690.372131 320.773651,684.081787 328.047119,681.294189 
	C328.047119,693.140930 328.097443,704.058472 327.920349,714.972290 
	C327.909882,715.617859 326.070374,716.233765 324.796631,716.555176 
M324.051483,700.127991 
	C323.829437,699.509338 323.690704,698.843628 323.371826,698.279785 
	C321.331604,694.671753 318.266876,693.619568 314.580444,695.350708 
	C310.872101,697.092163 309.516113,705.181213 312.033264,709.735107 
	C313.903381,713.118591 316.950317,714.518066 320.325226,712.690491 
	C322.069305,711.746094 323.425049,709.362183 324.083954,707.343872 
	C324.713531,705.415222 324.212067,703.117432 324.051483,700.127991 
z"/>
<path fill="#1C1C1C" opacity="1.000000" stroke="none" 
	d="
M188.479019,694.721558 
	C188.977661,701.669678 189.386841,708.268311 189.465469,714.870911 
	C189.476196,715.773315 187.838745,716.695312 186.964371,717.608276 
	C186.521713,717.349670 186.079041,717.091064 185.636368,716.832520 
	C185.636368,711.762329 185.627777,706.692078 185.639282,701.621887 
	C185.647507,697.992676 184.930298,694.721436 180.462799,694.646423 
	C176.010254,694.571533 173.832779,697.195862 173.733994,701.550415 
	C173.639908,705.698181 173.806503,709.861267 173.486740,713.988831 
	C173.391846,715.213806 172.040085,716.341370 171.264236,717.513611 
	C170.803253,717.264099 170.342270,717.014648 169.881287,716.765137 
	C169.881287,708.360474 169.881287,699.955811 169.881287,690.592163 
	C171.574570,691.432434 172.959335,692.119629 174.781265,693.023743 
	C181.195129,689.912598 183.699020,690.088196 188.479019,694.721558 
z"/>
<path fill="#151515" opacity="1.000000" stroke="none" 
	d="
M212.498978,714.521118 
	C203.914734,719.134521 197.699341,717.288391 195.417633,708.362122 
	C196.661499,708.967834 197.916306,709.552124 199.146744,710.183899 
	C201.235199,711.256348 203.290283,713.156982 205.393295,713.204346 
	C207.184769,713.244812 209.024017,711.166687 210.842133,710.025757 
	C209.394028,708.731384 208.133301,707.050293 206.452621,706.235901 
	C204.101700,705.096863 201.294205,704.902161 198.939087,703.769165 
	C194.691147,701.725464 194.072113,696.610718 197.433624,693.390686 
	C202.523392,688.515137 211.596207,690.937500 214.238892,699.383362 
	C212.040100,698.303589 210.823456,697.714417 209.614304,697.110291 
	C207.919830,696.263611 206.201996,694.682373 204.547516,694.748596 
	C202.759644,694.820190 201.033173,696.426392 199.279922,697.363281 
	C200.615784,698.558105 201.792435,700.053711 203.329941,700.867676 
	C205.049484,701.777832 207.114899,702.013855 208.997116,702.641174 
	C215.567612,704.830933 216.690048,708.309387 212.498978,714.521118 
z"/>
<path fill="#191919" opacity="1.000000" stroke="none" 
	d="
M280.715881,699.028687 
	C284.006409,691.816895 290.383179,689.180054 296.674927,692.086731 
	C302.692841,694.866943 305.189056,703.925842 301.846344,710.854248 
	C299.220703,716.296387 292.204987,718.586548 286.422638,715.889038 
	C281.162109,713.434937 279.222473,707.944153 280.715881,699.028687 
M297.246307,710.681396 
	C297.697540,707.148499 298.912140,703.504578 298.418213,700.109131 
	C297.705383,695.208984 292.035614,693.109802 287.898804,695.552673 
	C284.090485,697.801636 282.783905,705.686218 285.495697,710.054504 
	C287.848419,713.844299 291.980560,714.306335 297.246307,710.681396 
z"/>
<path fill="#1C1C1C" opacity="1.000000" stroke="none" 
	d="
M380.507690,711.567871 
	C376.322021,716.956299 372.062408,718.285034 366.940155,716.052979 
	C361.857513,713.838196 359.429260,708.248108 360.512421,701.255737 
	C361.461334,695.129944 364.766876,691.684998 370.335968,691.017944 
	C375.454681,690.404846 378.953278,692.820068 380.592010,699.707825 
	C379.317230,699.088684 378.050537,698.452209 376.765869,697.854370 
	C374.556824,696.826355 372.107117,694.714050 370.183960,695.112183 
	C368.159515,695.531311 365.827698,698.084229 365.100800,700.208069 
	C364.250763,702.691650 364.275635,706.010437 365.258667,708.421570 
	C366.093506,710.469177 368.714020,712.829346 370.757416,713.046448 
	C372.735504,713.256531 375.023010,710.968567 377.100006,709.659363 
	C378.146759,708.999634 379.028320,708.077698 379.984558,707.274353 
	C380.219116,708.602478 380.453674,709.930542 380.507690,711.567871 
z"/>
<path fill="#191919" opacity="1.000000" stroke="none" 
	d="
M334.955566,694.234863 
	C335.834259,692.675293 336.712708,691.592651 337.591125,690.510071 
	C338.078308,690.794800 338.565491,691.079529 339.052673,691.364319 
	C339.052673,696.471497 339.093628,701.579102 339.038544,706.685730 
	C339.000641,710.200745 339.816162,713.192444 343.958313,713.349731 
	C348.075226,713.506042 350.589478,711.248840 350.817841,707.095154 
	C351.054474,702.790466 350.881836,698.464722 350.970673,694.149963 
	C351.031830,691.180176 351.094666,691.181458 354.859833,691.475220 
	C354.859833,699.870117 354.859833,708.280151 354.859833,718.054382 
	C352.855438,716.459595 351.623077,715.479126 350.234650,714.374451 
	C349.184601,714.938049 347.676422,716.041748 345.987915,716.599609 
	C340.561462,718.392395 335.511383,714.987000 335.147949,709.151306 
	C334.849121,704.352722 335.002380,699.526062 334.955566,694.234863 
z"/>
<path fill="#1C1C1C" opacity="1.000000" stroke="none" 
	d="
M390.367676,705.930176 
	C390.636078,709.265625 389.015289,713.047180 394.080688,713.526062 
	C394.537262,713.569153 394.821686,715.433167 395.207306,716.510864 
	C388.123138,717.573486 386.491547,716.223083 386.421692,709.487427 
	C386.383881,705.841858 386.614960,702.179016 386.315582,698.557800 
	C386.196991,697.123047 384.980652,695.773621 384.240326,694.398193 
	C383.951599,693.861877 383.542236,693.385376 383.296661,692.833191 
	C383.176819,692.563721 383.282104,691.897400 383.327118,691.893555 
	C388.363495,691.459351 384.410675,684.077637 390.159332,683.830688 
	C390.268158,685.958374 390.381592,688.176636 390.485016,690.198608 
	C391.904694,690.925171 393.223877,691.600281 394.543060,692.275391 
	C393.441650,693.136353 392.021698,693.799133 391.328156,694.913879 
	C390.631409,696.033752 390.496704,697.593079 390.405151,698.978943 
	C390.263489,701.124023 390.367767,703.285400 390.367676,705.930176 
z"/>
<path fill="#191919" opacity="1.000000" stroke="none" 
	d="
M269.556061,715.395630 
	C268.395966,716.314270 267.255188,716.790283 265.823120,717.387756 
	C265.823120,708.133972 265.823120,699.718018 265.823120,691.870605 
	C270.097382,691.870605 274.134796,691.870605 278.172211,691.870605 
	C278.357788,692.181458 278.543335,692.492371 278.728912,692.803223 
	C277.819794,693.494507 276.806427,694.882019 276.018494,694.764038 
	C270.919098,694.000427 269.989716,697.343994 269.763336,701.035400 
	C269.479645,705.661011 269.618744,710.312561 269.556061,715.395630 
z"/>
<path fill="#1C1C1C" opacity="1.000000" stroke="none" 
	d="
M221.414154,694.104004 
	C222.676956,692.928589 223.936020,692.157104 225.876770,690.967834 
	C225.876770,693.698364 225.876770,695.146667 225.876770,698.511353 
	C223.758179,696.612366 222.584290,695.560120 221.414154,694.104004 
z"/>
<path fill="#1C1C1C" opacity="1.000000" stroke="none" 
	d="
M226.063232,714.122375 
	C225.033493,715.569458 224.001907,716.638245 222.970337,717.707031 
	C222.553909,717.432922 222.137466,717.158875 221.721039,716.884827 
	C221.599426,715.489075 221.477814,714.093384 221.215393,711.081421 
	C223.416519,712.290833 224.738953,713.017456 226.063232,714.122375 
z"/>
<path fill="#1C1C1C" opacity="1.000000" stroke="none" 
	d="
M1388.052979,81.969238 
	C1389.224854,83.096489 1390.539429,84.219963 1390.581177,85.388985 
	C1390.800903,91.530838 1390.563599,97.688240 1390.745239,103.832550 
	C1390.938110,110.354485 1393.451172,112.863701 1399.359497,112.946053 
	C1405.788452,113.035660 1408.423096,110.690422 1408.632202,103.999168 
	C1408.855103,96.864716 1408.682373,89.717880 1408.682373,82.265190 
	C1410.234497,82.265190 1411.603638,82.265190 1413.032104,82.265190 
	C1413.032104,89.800278 1413.266113,97.118217 1412.970581,104.414703 
	C1412.630615,112.806953 1408.215210,116.904289 1400.071411,117.050537 
	C1391.517334,117.204155 1386.868408,113.221321 1386.430908,104.713860 
	C1386.081299,97.917320 1386.283325,91.089790 1386.362793,84.277435 
	C1386.371704,83.509056 1387.174072,82.749916 1388.052979,81.969238 
z"/>
<path fill="#151515" opacity="1.000000" stroke="none" 
	d="
M1460.821045,92.986557 
	C1463.016357,96.657021 1464.886108,100.132355 1467.444214,104.886948 
	C1459.562500,104.886948 1453.560913,104.886948 1447.238647,104.886948 
	C1447.503540,109.144394 1448.826050,111.922104 1452.500488,113.018433 
	C1455.917603,114.037964 1458.545776,112.982849 1460.660767,109.976883 
	C1461.401245,108.924484 1463.154663,108.584732 1465.338745,107.459244 
	C1463.086548,115.648987 1457.553711,118.554550 1450.843872,116.369705 
	C1444.021240,114.148109 1440.940796,105.955872 1443.981934,98.120178 
	C1446.512451,91.599426 1453.130859,89.463799 1460.821045,92.986557 
M1451.641602,95.015663 
	C1450.022583,96.769005 1448.403687,98.522339 1445.982056,101.144989 
	C1452.260010,101.144989 1456.751953,101.144989 1461.341187,101.144989 
	C1459.885376,95.346588 1458.211182,94.244629 1451.641602,95.015663 
z"/>
<path fill="#191919" opacity="1.000000" stroke="none" 
	d="
M1437.916138,113.035332 
	C1430.497559,119.605896 1422.112305,117.983475 1418.282593,107.931694 
	C1420.668335,108.977760 1422.007690,109.407654 1423.177246,110.117371 
	C1424.662476,111.018585 1426.078857,113.075676 1427.401978,112.977478 
	C1429.905029,112.791710 1433.832397,112.023674 1434.465698,110.426300 
	C1435.897095,106.815796 1431.922119,106.808815 1429.591064,105.987343 
	C1427.254639,105.163940 1424.741943,104.681786 1422.592896,103.520088 
	C1418.681763,101.405823 1418.265747,96.483139 1421.478516,93.403458 
	C1426.566528,88.526230 1435.653687,90.914886 1438.329346,99.319992 
	C1436.153198,98.305145 1434.908936,97.753006 1433.690063,97.149681 
	C1431.995117,96.310646 1430.291138,94.705055 1428.642822,94.768982 
	C1426.852051,94.838432 1425.120728,96.445038 1423.363525,97.381447 
	C1424.711548,98.567802 1425.898071,100.072441 1427.448975,100.858971 
	C1429.337402,101.816765 1431.558105,102.095963 1433.589722,102.799744 
	C1438.986328,104.669159 1440.014282,106.987175 1437.916138,113.035332 
z"/>
<path fill="#1C1C1C" opacity="1.000000" stroke="none" 
	d="
M1323.165039,117.025101 
	C1322.381592,115.016441 1321.772949,113.034843 1321.733765,111.042015 
	C1321.605835,104.550484 1321.685791,98.054848 1321.685791,90.481865 
	C1323.617432,91.439949 1325.004395,92.127892 1326.941772,93.088837 
	C1327.611328,92.770454 1329.032471,91.895332 1330.575317,91.396866 
	C1335.979248,89.650940 1341.112915,92.672226 1341.508545,98.193886 
	C1341.900513,103.664482 1341.778198,109.187599 1341.542969,114.673180 
	C1341.500000,115.673859 1339.832520,116.604935 1338.914917,117.568161 
	C1338.504028,117.269150 1338.093262,116.970131 1337.682373,116.671120 
	C1337.682373,111.530136 1337.681396,106.389145 1337.682617,101.248161 
	C1337.683594,97.740204 1336.774414,94.743622 1332.609375,94.652641 
	C1328.473755,94.562317 1326.026733,96.784981 1325.857910,101.019630 
	C1325.692261,105.178139 1325.876099,109.355370 1325.578857,113.500877 
	C1325.491089,114.723900 1324.291016,115.867188 1323.165039,117.025101 
z"/>
<path fill="#191919" opacity="1.000000" stroke="none" 
	d="
M1357.179199,113.425156 
	C1359.380859,112.220116 1361.143066,111.016823 1362.905151,109.813553 
	C1361.206299,108.548706 1359.643555,107.005241 1357.773315,106.091301 
	C1355.561279,105.010361 1352.930786,104.767326 1350.754272,103.636482 
	C1346.603271,101.479698 1346.194458,96.251343 1349.707520,93.180260 
	C1354.914307,88.628479 1363.510498,90.973633 1366.419067,99.180832 
	C1364.232056,98.281586 1362.961792,97.809601 1361.735229,97.243103 
	C1359.881714,96.387108 1358.076294,94.818832 1356.217529,94.768608 
	C1354.628296,94.725662 1352.992920,96.392044 1351.377930,97.302383 
	C1352.696533,98.511368 1353.829834,100.121643 1355.376831,100.836197 
	C1357.762695,101.938324 1360.523926,102.206573 1362.961426,103.222885 
	C1367.671997,105.186897 1368.542847,110.701561 1364.867798,114.270973 
	C1359.172974,119.802124 1349.346924,117.121353 1346.579468,107.763069 
	C1348.720093,108.785446 1349.969238,109.287346 1351.122925,109.954376 
	C1353.027588,111.055779 1354.870483,112.263809 1357.179199,113.425156 
z"/>
<path fill="#1C1C1C" opacity="1.000000" stroke="none" 
	d="
M1483.854126,92.317299 
	C1483.216919,93.398079 1482.259399,94.852348 1481.509399,94.752281 
	C1476.384399,94.068413 1475.525269,97.562889 1475.314453,101.152931 
	C1475.014282,106.264633 1475.238281,111.407135 1475.238281,116.471565 
	C1472.301514,117.660240 1471.035278,117.113800 1471.096436,113.911507 
	C1471.238770,106.470757 1471.141846,99.025436 1471.141846,91.971588 
	C1475.489380,91.971588 1479.559692,91.971588 1483.854126,92.317299 
z"/>
<path fill="#1C1C1C" opacity="1.000000" stroke="none" 
	d="
M1378.098633,93.363564 
	C1378.646484,97.390221 1376.573853,97.453232 1373.721924,96.708092 
	C1373.721924,95.338470 1373.721924,93.909882 1373.721924,91.739861 
	C1375.340454,92.201538 1376.708740,92.591827 1378.098633,93.363564 
z"/>
<path fill="#1C1C1C" opacity="1.000000" stroke="none" 
	d="
M1375.112793,117.032761 
	C1374.168091,115.667839 1373.617432,114.319931 1372.825928,112.382515 
	C1374.975708,112.180550 1376.343140,112.052071 1378.121704,111.884979 
	C1377.592651,114.131432 1379.922241,117.163780 1375.112793,117.032761 
z"/>
<path fill="#151515" opacity="1.000000" stroke="none" 
	d="
M281.991638,86.438393 
	C274.392212,90.968002 272.361969,103.424980 277.857697,109.745476 
	C283.112274,115.788719 292.175964,113.734360 296.474304,105.257462 
	C297.615173,105.546532 298.828491,105.853951 301.850739,106.619705 
	C298.316589,110.174980 296.015289,113.803406 292.717560,115.543594 
	C285.024445,119.603226 275.482574,115.857697 272.126373,108.242531 
	C267.812317,98.454124 271.098206,87.239174 279.359619,83.554840 
	C287.829956,79.777321 295.769806,82.738419 299.704193,91.423256 
	C298.590759,91.901016 297.480652,92.377365 295.908203,93.052094 
	C293.588776,86.296501 288.585876,84.943893 281.991638,86.438393 
z"/>
<path fill="#1C1C1C" opacity="1.000000" stroke="none" 
	d="
M342.432800,91.073746 
	C344.859375,91.144081 346.831940,91.144081 347.871674,91.144081 
	C349.204254,87.990219 350.208405,85.613716 351.212555,83.237206 
	C351.755951,83.401344 352.299377,83.565475 352.842804,83.729607 
	C352.970367,85.988174 353.097931,88.246742 353.201996,90.089516 
	C354.680389,90.933258 355.940338,91.652321 357.200256,92.371384 
	C356.072662,93.433273 354.945068,94.495163 353.149780,96.185852 
	C354.308014,102.335686 349.343109,110.640633 358.724213,116.019371 
	C351.483307,117.905220 349.189880,116.334175 349.095551,110.267258 
	C349.018280,105.299049 349.079803,100.328690 349.079803,95.458168 
	C340.871918,92.145943 336.435944,94.844444 336.245209,103.120155 
	C336.141968,107.599686 336.226837,112.083542 335.098633,117.499771 
	C334.145599,116.465935 332.399689,115.456795 332.366577,114.394302 
	C332.129059,106.769623 332.239563,99.134109 332.239563,90.570488 
	C334.129578,91.353554 335.456940,91.903511 337.088348,92.579437 
	C338.287018,92.193146 340.132904,91.598274 342.432800,91.073746 
z"/>
<path fill="#191919" opacity="1.000000" stroke="none" 
	d="
M314.672729,116.876160 
	C312.607117,116.811684 310.520477,117.251175 309.418945,116.406326 
	C307.369171,114.834183 304.646301,112.584488 304.527435,110.485245 
	C304.407379,108.364891 306.628723,105.212524 308.685638,104.088745 
	C311.456635,102.574814 315.095612,102.725464 318.271027,101.836578 
	C319.448395,101.507011 321.255219,100.208549 321.212555,99.438477 
	C321.134644,98.031700 320.207367,95.933441 319.076874,95.462906 
	C315.782196,94.091583 312.368866,93.772041 309.556824,97.034920 
	C308.726227,97.998680 307.154877,98.323997 304.829193,99.490509 
	C307.221344,92.519051 312.039276,90.031250 318.423492,91.096237 
	C323.852570,92.001900 325.500549,94.134567 325.575623,100.600403 
	C325.636963,105.882278 325.588104,111.165428 325.588104,117.327538 
	C324.191925,116.608765 322.656769,115.818436 320.407379,114.660423 
	C319.369843,115.078514 317.233032,115.939560 314.672729,116.876160 
M321.444672,107.193451 
	C321.322723,106.569473 321.109131,105.396225 321.091797,105.399109 
	C317.254425,106.039650 313.077209,106.051331 309.723755,107.718430 
	C307.239746,108.953293 308.206055,111.808388 310.997040,112.992760 
	C314.949768,114.670113 319.333008,112.532631 321.444672,107.193451 
z"/>
<path fill="#151515" opacity="1.000000" stroke="none" 
	d="
M238.390411,104.724899 
	C234.551361,103.367355 232.189713,101.244896 232.778229,97.234840 
	C233.391037,93.059349 236.603607,91.648933 240.227066,91.072060 
	C245.734909,90.195198 249.538162,92.640289 251.530579,99.469658 
	C249.319626,98.320526 248.140274,97.625397 246.895523,97.079369 
	C244.896500,96.202454 242.878876,94.888893 240.821442,94.794083 
	C239.470596,94.731827 238.035843,96.489906 236.638672,97.432770 
	C237.835144,98.576981 238.846176,100.135880 240.269669,100.772408 
	C242.663681,101.842918 245.392441,102.140602 247.850601,103.096939 
	C253.037155,105.114716 253.920685,111.098351 249.672867,114.664200 
	C243.677063,119.697418 234.578812,116.914688 232.979538,108.188744 
	C234.189331,108.921844 235.772095,109.383179 236.540634,110.437836 
	C239.083176,113.926979 242.390411,113.945488 245.856476,112.704407 
	C246.852524,112.347755 247.968781,110.796478 248.007751,109.754707 
	C248.042358,108.829224 246.850159,107.402359 245.865723,106.986122 
	C243.599136,106.027756 241.129623,105.549339 238.390411,104.724899 
z"/>
<path fill="#1C1C1C" opacity="1.000000" stroke="none" 
	d="
M211.194000,101.278442 
	C211.161530,106.704559 211.161530,111.664009 211.161530,116.826225 
	C209.694321,116.826225 208.587158,116.826225 207.277298,116.826225 
	C207.277298,108.278214 207.277298,99.852562 207.277298,90.249176 
	C209.159866,91.442276 210.446213,92.257500 212.148651,93.336433 
	C212.727829,93.033234 214.120087,92.095055 215.651230,91.540062 
	C221.418594,89.449524 226.746765,92.738495 226.996506,98.753693 
	C227.243378,104.699997 227.050461,110.664558 227.050461,116.826187 
	C225.694641,116.826187 224.587524,116.826187 223.074570,116.826187 
	C223.074570,111.917648 223.072678,107.128166 223.075195,102.338676 
	C223.076981,98.946465 223.278854,95.283554 218.682724,94.733040 
	C214.302414,94.208359 211.790115,96.426552 211.194000,101.278442 
z"/>
<path fill="#F5F5F5" opacity="1.000000" stroke="none" 
	d="
M244.992584,686.001343 
	C246.779617,686.003845 248.104584,686.004944 249.429550,686.009155 
	C253.502533,686.022034 255.542450,688.229614 255.685715,692.137451 
	C255.839081,696.320679 253.647797,698.706421 249.488327,698.931152 
	C246.027390,699.118103 242.548325,698.969482 238.479889,698.969482 
	C238.479889,696.688538 238.479874,694.592285 238.479874,692.496033 
	C238.479874,690.528381 238.479889,688.560791 238.479889,686.001282 
	C240.702606,686.001282 242.616562,686.001282 244.992584,686.001343 
z"/>
<path fill="#F5F5F5" opacity="1.000000" stroke="none" 
	d="
M324.129639,700.554932 
	C324.212067,703.117432 324.713531,705.415222 324.083954,707.343872 
	C323.425049,709.362183 322.069305,711.746094 320.325226,712.690491 
	C316.950317,714.518066 313.903381,713.118591 312.033264,709.735107 
	C309.516113,705.181213 310.872101,697.092163 314.580444,695.350708 
	C318.266876,693.619568 321.331604,694.671753 323.371826,698.279785 
	C323.690704,698.843628 323.829437,699.509338 324.129639,700.554932 
z"/>
<path fill="#F5F5F5" opacity="1.000000" stroke="none" 
	d="
M296.984131,710.995605 
	C291.980560,714.306335 287.848419,713.844299 285.495697,710.054504 
	C282.783905,705.686218 284.090485,697.801636 287.898804,695.552673 
	C292.035614,693.109802 297.705383,695.208984 298.418213,700.109131 
	C298.912140,703.504578 297.697540,707.148499 296.984131,710.995605 
z"/>
<path fill="#E0E0E0" opacity="1.000000" stroke="none" 
	d="
M1451.998047,94.931198 
	C1458.211182,94.244629 1459.885376,95.346588 1461.341187,101.144989 
	C1456.751953,101.144989 1452.260010,101.144989 1445.982056,101.144989 
	C1448.403687,98.522339 1450.022583,96.769005 1451.998047,94.931198 
z"/>
<path fill="#F5F5F5" opacity="1.000000" stroke="none" 
	d="
M321.389374,107.623451 
	C319.333008,112.532631 314.949768,114.670113 310.997040,112.992760 
	C308.206055,111.808388 307.239746,108.953293 309.723755,107.718430 
	C313.077209,106.051331 317.254425,106.039650 321.091797,105.399109 
	C321.109131,105.396225 321.322723,106.569473 321.389374,107.623451 
z"/>
</svg>