<svg version="1.1" id="Layer_1" xmlns="http://www.w3.org/2000/svg" xmlns:xlink="http://www.w3.org/1999/xlink" x="0px" y="0px"
	 width="100%" viewBox="0 0 1044 684" enable-background="new 0 0 1044 684" xml:space="preserve">
<path fill="none" opacity="1.000000" stroke="#000000" stroke-linecap="round" stroke-linejoin="round" stroke-width="5.000000"
	d="
M1002.250000,163.000000 
	C1003.259949,161.626663 1002.992920,160.032898 1002.993286,158.500000 
	C1003.001831,121.333336 1003.002563,84.166664 1002.988647,47.000004 
	C1002.988159,45.827595 1002.818481,44.655247 1002.709717,43.250000 
	C869.500000,43.250000 736.500000,43.250000 603.375000,43.250000 
	C603.375000,123.166664 603.375000,202.833328 603.375000,283.000000 
	C736.500000,283.000000 869.500000,283.000000 1002.790100,283.000000 
	C1002.875122,281.177246 1002.991821,279.838623 1002.992188,278.500000 
	C1003.002014,241.500000 1003.005188,204.500000 1002.978882,167.500015 
	C1002.977905,166.166565 1002.666687,164.833328 1002.500000,163.500000 
"/>
<path fill="none" opacity="1.000000" stroke="#000000" stroke-linecap="round" stroke-linejoin="round" stroke-width="5.000000"
	d="
M442.250000,163.000000 
	C443.259949,161.626663 442.992950,160.032898 442.993286,158.500000 
	C443.001862,121.333336 443.002502,84.166664 442.988586,47.000004 
	C442.988129,45.827591 442.818604,44.655247 442.709900,43.250000 
	C309.500000,43.250000 176.500000,43.250000 43.375000,43.250000 
	C43.375000,123.166664 43.375000,202.833328 43.375000,283.125000 
	C176.500000,283.125000 309.500000,283.125000 442.784424,283.125000 
	C442.875214,281.177246 442.991730,279.838623 442.992096,278.500000 
	C443.001953,241.500000 443.005219,204.500000 442.978912,167.500015 
	C442.977966,166.166565 442.666687,164.833328 442.500000,163.500000 
"/>
<path fill="none" opacity="1.000000" stroke="#000000" stroke-linecap="round" stroke-linejoin="round" stroke-width="5.000000"
	d="
M243.000000,284.000000 
	C243.000000,390.166931 243.000000,496.333862 243.000000,603.000000 
	C276.664978,603.000000 309.832489,603.000000 343.000000,603.000000 
"/>
<path fill="none" opacity="1.000000" stroke="#000000" stroke-linecap="round" stroke-linejoin="round" stroke-width="5.000000"
	d="
M1001.500000,163.000000 
	C869.000000,163.000000 736.500000,163.000000 604.000000,163.000000 
"/>
<path fill="none" opacity="1.000000" stroke="#000000" stroke-linecap="round" stroke-linejoin="round" stroke-width="5.000000"
	d="
M441.500000,163.000000 
	C309.000000,163.000000 176.500000,163.000000 44.000000,163.000000 
"/>
<path fill="none" opacity="1.000000" stroke="#000000" stroke-linecap="round" stroke-linejoin="round" stroke-width="5.000000"
	d="
M803.000000,284.000000 
	C803.000000,390.166931 803.000000,496.333862 803.000000,603.000000 
	C780.002441,603.000000 757.501221,603.000000 735.000000,603.000000 
"/>
<path fill="none" opacity="1.000000" stroke="#000000" stroke-linecap="round" stroke-linejoin="round" stroke-width="5.000000"
	d="
M911.000000,243.000000 
	C837.666687,243.000000 764.333313,243.000000 691.000000,243.000000 
"/>
<path fill="none" opacity="1.000000" stroke="#000000" stroke-linecap="round" stroke-linejoin="round" stroke-width="5.000000"
	d="
M334.000000,243.000000 
	C272.000000,243.000000 210.000000,243.000000 148.000000,243.000000 
"/>
<path fill="none" opacity="1.000000" stroke="#000000" stroke-linecap="round" stroke-linejoin="round" stroke-width="5.000000"
	d="
M204.000000,101.000000 
	C208.000000,101.000000 212.002533,101.089920 215.999359,100.977409 
	C221.078690,100.834419 224.500000,97.340363 224.500000,92.500000 
	C224.500000,87.145493 221.618057,84.188629 215.999298,84.024033 
	C211.829941,83.901894 207.654129,84.000000 203.000000,84.000000 
	C203.000000,94.661201 203.000000,104.830605 203.000000,115.000000 
"/>
<path fill="none" opacity="1.000000" stroke="#000000" stroke-linecap="round" stroke-linejoin="round" stroke-width="4.000000"
	d="
M318.500000,103.500000 
	C318.562103,99.879807 317.437836,96.818657 314.510620,94.486671 
	C311.354340,91.972214 307.677216,91.912910 304.564728,93.618134 
	C299.040710,96.644554 299.705597,102.342926 300.069763,107.495071 
	C300.360138,111.603348 303.048920,113.917747 306.990540,115.033432 
	C311.381317,116.276237 316.715271,113.232895 317.989777,108.497246 
	C318.388702,107.014900 318.666687,105.500000 319.000000,104.000000 
"/>
<path fill="none" opacity="1.000000" stroke="#000000" stroke-linecap="round" stroke-linejoin="round" stroke-width="4.000000"
	d="
M882.500000,223.500000 
	C882.562073,219.879807 881.437927,216.818604 878.510620,214.486633 
	C875.354370,211.972198 871.677185,211.912918 868.564697,213.618118 
	C863.040710,216.644562 863.705688,222.342926 864.069885,227.495056 
	C864.360291,231.603348 867.048889,233.917755 870.990540,235.033432 
	C875.381287,236.276245 880.715271,233.232880 881.989807,228.497253 
	C882.388733,227.014908 882.666626,225.499985 882.999939,223.999985 
"/>
<path fill="none" opacity="1.000000" stroke="#000000" stroke-linecap="round" stroke-linejoin="round" stroke-width="4.000000"
	d="
M292.500000,97.500000 
	C291.872589,97.088165 291.017365,98.191177 290.337189,96.568245 
	C289.403046,94.339447 286.995026,92.894730 284.492065,92.559166 
	C280.988861,92.089500 276.323425,94.033569 276.053558,97.004868 
	C275.710999,100.776375 278.432861,102.128975 281.499786,103.000786 
	C284.395294,103.823868 287.393860,104.251633 290.022430,105.965599 
	C292.702484,107.713127 292.463745,109.854599 290.965240,111.975441 
	C287.227203,117.265900 280.755890,116.575851 276.000000,110.500000 
"/>
<path fill="none" opacity="1.000000" stroke="#000000" stroke-linecap="round" stroke-linejoin="round" stroke-width="4.000000"
	d="
M180.500000,97.500000 
	C179.872589,97.088165 179.017365,98.191177 178.337173,96.568245 
	C177.403061,94.339439 174.995010,92.894730 172.492065,92.559166 
	C168.988861,92.089508 164.323456,94.033585 164.053558,97.004868 
	C163.710999,100.776375 166.432861,102.128983 169.499771,103.000786 
	C172.395294,103.823875 175.393860,104.251625 178.022430,105.965591 
	C180.702454,107.713120 180.463730,109.854599 178.965240,111.975441 
	C175.227219,117.265900 168.755890,116.575851 164.000000,110.500000 
"/>
<path fill="none" opacity="1.000000" stroke="#000000" stroke-linecap="round" stroke-linejoin="round" stroke-width="4.000000"
	d="
M440.000000,600.500000 
	C437.523865,597.313293 434.935425,595.611938 430.426697,597.304749 
	C427.760681,598.305664 426.079102,598.938599 425.962189,601.998535 
	C425.823090,605.637756 428.579742,606.133850 431.008270,606.976135 
	C432.799561,607.597412 434.696472,607.911865 436.493164,608.520203 
	C439.338593,609.483459 442.088165,610.960022 441.410492,614.482788 
	C440.679077,618.284851 437.121918,619.407532 434.003784,619.335632 
	C430.481720,619.254395 426.484955,618.689880 425.500000,614.000000 
"/>
<path fill="none" opacity="1.000000" stroke="#000000" stroke-linecap="round" stroke-linejoin="round" stroke-width="4.000000"
	d="
M392.000000,600.500000 
	C389.523865,597.313293 386.935425,595.611938 382.426697,597.304749 
	C379.760681,598.305664 378.079163,598.938599 377.962219,601.998535 
	C377.823151,605.637756 380.579742,606.133850 383.008270,606.976135 
	C384.799561,607.597412 386.696472,607.911865 388.493164,608.520203 
	C391.338593,609.483459 394.088165,610.960022 393.410492,614.482788 
	C392.679077,618.284851 389.121918,619.407593 386.003784,619.335693 
	C382.481720,619.254456 378.484955,618.689880 377.500000,614.000000 
"/>
<path fill="none" opacity="1.000000" stroke="#000000" stroke-linecap="round" stroke-linejoin="round" stroke-width="4.000000"
	d="
M734.000000,216.500000 
	C731.523865,213.313278 728.935364,211.611847 724.426697,213.304703 
	C721.760681,214.305695 720.079102,214.938629 719.962158,217.998550 
	C719.823120,221.637726 722.579712,222.133911 725.008240,222.976196 
	C726.799500,223.597488 728.696472,223.911942 730.493164,224.520187 
	C733.338562,225.483490 736.088135,226.959991 735.410461,230.482773 
	C734.679077,234.284851 731.121948,235.407578 728.003784,235.335678 
	C724.481750,235.254440 720.484985,234.689911 719.500000,230.000000 
"/>
<path fill="none" opacity="1.000000" stroke="#000000" stroke-linecap="round" stroke-linejoin="round" stroke-width="4.000000"
	d="
M773.000000,96.500000 
	C768.925110,92.223457 764.695557,91.342308 761.000000,94.000015 
	C757.459656,96.546074 757.600159,99.760895 761.525513,101.954361 
	C763.206421,102.893684 765.120728,103.551262 767.010559,103.949867 
	C769.986206,104.577484 773.188538,104.874718 773.924438,108.515274 
	C774.292175,110.334618 774.118835,112.091805 772.075195,113.601746 
	C768.554688,116.202797 765.051208,115.762733 761.538879,114.399841 
	C760.084473,113.835495 759.023865,112.190453 758.500000,110.500000 
"/>
<path fill="none" opacity="1.000000" stroke="#000000" stroke-linecap="round" stroke-linejoin="round" stroke-width="4.000000"
	d="
M679.500000,601.500000 
	C678.133606,597.752930 674.976929,596.205811 671.518982,596.648193 
	C667.721680,597.134033 664.592590,599.277283 663.470825,603.492249 
	C662.362000,607.659058 662.656677,611.899475 664.626343,615.429504 
	C668.155212,621.754150 676.288025,620.566650 680.000000,613.500000 
"/>
<path fill="none" opacity="1.000000" stroke="#000000" stroke-linecap="round" stroke-linejoin="round" stroke-width="5.000000"
	d="
M759.000000,204.000000 
	C759.000000,213.833328 758.994812,223.666687 759.022705,233.499939 
	C759.023621,233.826401 759.360046,234.151901 759.828552,235.000000 
	C764.989929,235.000000 770.494995,235.000000 776.000000,235.000000 
"/>
<path fill="none" opacity="1.000000" stroke="#000000" stroke-linecap="round" stroke-linejoin="round" stroke-width="5.000000"
	d="
M228.000000,204.000000 
	C228.000000,212.000000 228.025284,220.000107 227.990173,227.999954 
	C227.970261,232.538452 225.463943,235.000000 221.000000,235.000000 
	C216.455139,235.000000 214.307098,232.521484 214.500000,227.500000 
"/>
<path fill="none" opacity="1.000000" stroke="#000000" stroke-linecap="round" stroke-linejoin="round" stroke-width="4.000000"
	d="
M478.500000,616.000000 
	C479.166656,616.166687 479.946442,616.165039 480.482849,616.525513 
	C487.261719,621.081665 493.273956,618.811096 495.000000,611.000000 
	C496.274170,605.233887 493.359009,599.179321 488.500000,597.500000 
	C484.238281,596.027100 478.928955,599.094604 477.987457,603.497314 
	C477.119659,607.555481 477.188843,611.547668 478.500000,615.500000 
"/>
<path fill="none" opacity="1.000000" stroke="#000000" stroke-linecap="round" stroke-linejoin="round" stroke-width="4.000000"
	d="
M234.000000,103.000000 
	C239.583328,104.023369 245.166672,103.236435 250.717911,103.578484 
	C251.076202,97.120804 247.557816,92.642860 242.500000,92.499992 
	C236.984238,92.344193 233.922836,96.252869 233.355469,102.737358 
	C233.069733,106.003082 233.052567,108.941231 235.036057,111.471733 
	C239.642151,117.348091 246.448364,116.656754 251.000000,110.000000 
"/>
<path fill="none" opacity="1.000000" stroke="#000000" stroke-linecap="round" stroke-linejoin="round" stroke-width="4.000000"
	d="
M853.000000,216.000000 
	C851.724304,216.051392 850.940735,215.187347 849.978210,214.531982 
	C845.089966,211.203796 839.634644,212.978760 837.499939,218.499969 
	C834.887329,225.256805 838.094543,233.005951 843.974121,235.073578 
	C847.827148,236.428574 849.759521,232.467712 853.000000,232.500000 
"/>
<path fill="none" opacity="1.000000" stroke="#000000" stroke-linecap="round" stroke-linejoin="round" stroke-width="4.000000"
	d="
M280.000000,217.000000 
	C276.175873,212.628906 273.704468,211.322952 268.491821,213.480209 
	C266.403168,214.344604 265.124329,216.004028 265.117950,218.000381 
	C265.111969,219.876450 266.167786,221.555130 268.489716,222.048431 
	C270.538849,222.483765 272.469421,223.453430 274.507111,223.972046 
	C277.618164,224.763840 280.889313,225.530869 280.926605,229.500687 
	C280.961121,233.174606 277.845856,234.090317 274.999908,234.999710 
	C270.272736,236.510239 267.081879,234.662201 265.500000,229.500000 
"/>
<path fill="none" opacity="1.000000" stroke="#000000" stroke-linecap="round" stroke-linejoin="round" stroke-width="4.000000"
	d="
M192.000000,217.000000 
	C188.175781,212.628830 185.704407,211.322998 180.491821,213.480225 
	C178.403152,214.344604 177.124298,216.004028 177.117950,218.000381 
	C177.111969,219.876450 178.167770,221.555130 180.489716,222.048431 
	C182.538864,222.483765 184.469421,223.453445 186.507111,223.972046 
	C189.618179,224.763855 192.889343,225.530869 192.926636,229.500687 
	C192.961136,233.174606 189.845840,234.090317 186.999908,234.999710 
	C182.272720,236.510239 179.081848,234.662201 177.500000,229.500000 
"/>
<path fill="none" opacity="1.000000" stroke="#000000" stroke-linecap="round" stroke-linejoin="round" stroke-width="5.000000"
	d="
M821.000000,90.500000 
	C816.727905,84.527184 811.899597,82.595886 806.000000,84.500008 
	C799.903870,86.467537 796.167847,92.563210 796.500000,100.000000 
	C797.015930,111.550339 805.374573,117.744820 815.036499,114.096634 
	C818.556091,112.767677 819.980530,109.644226 822.500000,107.500000 
"/>
<path fill="none" opacity="1.000000" stroke="#000000" stroke-linecap="round" stroke-linejoin="round" stroke-width="4.000000"
	d="
M343.500000,115.500000 
	C343.500000,110.333336 343.662384,105.160278 343.459473,100.001595 
	C343.197723,93.347694 338.353607,90.984299 332.452209,93.903374 
	C328.366852,95.924156 327.469391,99.045113 327.494141,103.000038 
	C327.520203,107.166534 327.500000,111.333336 327.500000,115.500000 
"/>
<path fill="none" opacity="1.000000" stroke="#000000" stroke-linecap="round" stroke-linejoin="round" stroke-width="4.000000"
	d="
M167.500000,235.500000 
	C167.500000,230.333328 167.662354,225.160294 167.459442,220.001602 
	C167.197723,213.347717 162.353622,210.984299 156.452209,213.903366 
	C152.366837,215.924149 151.469421,219.045105 151.494171,223.000031 
	C151.520233,227.166550 151.500000,231.333328 151.500000,235.500000 
"/>
<path fill="none" opacity="1.000000" stroke="#000000" stroke-linecap="round" stroke-linejoin="round" stroke-width="4.000000"
	d="
M827.500000,235.500000 
	C827.500000,230.333328 827.662354,225.160294 827.459412,220.001602 
	C827.197693,213.347702 822.353577,210.984268 816.452209,213.903351 
	C812.366821,215.924133 811.469360,219.045105 811.494080,223.000031 
	C811.520142,227.166550 811.500000,231.333328 811.500000,235.500000 
"/>
<path fill="none" opacity="1.000000" stroke="#000000" stroke-linecap="round" stroke-linejoin="round" stroke-width="4.000000"
	d="
M239.500000,212.500000 
	C239.500000,217.333328 239.505402,222.166687 239.498077,227.000000 
	C239.493210,230.219070 239.768387,232.924240 243.437637,234.633850 
	C247.050308,236.317108 249.396988,234.748688 251.992508,232.988953 
	C252.873062,232.391937 253.666687,231.666687 254.500015,231.000015 
"/>
<path fill="none" opacity="1.000000" stroke="#000000" stroke-linecap="round" stroke-linejoin="round" stroke-width="5.000000"
	d="
M908.000000,235.000000 
	C908.000000,230.500000 908.016235,225.999924 907.996399,221.500015 
	C907.961731,213.629211 902.841003,210.676208 895.976074,214.456589 
	C894.889404,215.054993 894.013855,216.310165 892.500000,216.000000 
"/>
<path fill="none" opacity="1.000000" stroke="#000000" stroke-linecap="round" stroke-linejoin="round" stroke-width="5.000000"
	d="
M563.000000,619.000000 
	C563.000000,614.166687 563.015442,609.333252 562.996338,604.500000 
	C562.968994,597.582642 558.113892,594.735291 551.990601,597.982239 
	C550.676147,598.679260 549.753418,600.173462 548.000000,600.000000 
"/>
<path fill="none" opacity="1.000000" stroke="#000000" stroke-linecap="round" stroke-linejoin="round" stroke-width="5.000000"
	d="
M368.000000,619.000000 
	C368.000000,614.166687 368.015411,609.333252 367.996307,604.500000 
	C367.968994,597.582642 363.113892,594.735352 356.990631,597.982300 
	C355.676147,598.679382 354.753387,600.173462 353.000000,600.000000 
"/>
<path fill="none" opacity="1.000000" stroke="#000000" stroke-linecap="round" stroke-linejoin="round" stroke-width="5.000000"
	d="
M627.000000,619.000000 
	C627.000000,614.166687 627.015442,609.333252 626.996338,604.500000 
	C626.968994,597.582642 622.113892,594.735352 615.990662,597.982361 
	C614.676208,598.679382 613.753418,600.173462 612.000000,600.000000 
"/>
<path fill="none" opacity="1.000000" stroke="#000000" stroke-linecap="round" stroke-linejoin="round" stroke-width="5.000000"
	d="
M154.000000,115.000000 
	C154.000000,110.166664 154.015442,105.333275 153.996338,100.500015 
	C153.968979,93.582626 149.113861,90.735352 142.990631,93.982330 
	C141.676147,94.679359 140.753387,96.173447 139.000000,96.000000 
"/>
<path fill="none" opacity="1.000000" stroke="#000000" stroke-linecap="round" stroke-linejoin="round" stroke-width="5.000000"
	d="
M330.000000,235.000000 
	C330.000000,230.166672 330.015411,225.333267 329.996307,220.500015 
	C329.968933,213.582626 325.113861,210.735336 318.990631,213.982330 
	C317.676147,214.679352 316.753387,216.173447 315.000000,216.000000 
"/>
<path fill="none" opacity="1.000000" stroke="#000000" stroke-linecap="round" stroke-linejoin="round" stroke-width="5.000000"
	d="
M710.000000,235.000000 
	C710.000000,230.166672 710.015442,225.333267 709.996338,220.500015 
	C709.968994,213.582642 705.113892,210.735336 698.990601,213.982300 
	C697.676147,214.679337 696.753418,216.173447 695.000000,216.000000 
"/>
<path fill="none" opacity="1.000000" stroke="#000000" stroke-linecap="round" stroke-linejoin="round" stroke-width="5.000000"
	d="
M749.000000,115.000000 
	C749.000000,110.166664 749.015442,105.333275 748.996338,100.500015 
	C748.968994,93.582634 744.113892,90.735344 737.990662,93.982330 
	C736.676147,94.679352 735.753418,96.173447 734.000000,96.000000 
"/>
<path fill="none" opacity="1.000000" stroke="#000000" stroke-linecap="round" stroke-linejoin="round" stroke-width="8.000000"
	d="
M824.500000,327.500000 
	C818.833313,321.666687 813.207275,315.793091 807.483032,310.016846 
	C804.580078,307.087616 801.429993,307.097076 798.514832,310.014832 
	C792.766846,315.767792 786.622375,321.137939 781.500000,327.500000 
"/>
<path fill="none" opacity="1.000000" stroke="#000000" stroke-linecap="round" stroke-linejoin="round" stroke-width="5.000000"
	d="
M844.000000,84.500000 
	C842.831055,86.360733 842.988647,88.437927 842.994751,90.500015 
	C843.010559,95.833305 843.000000,101.166664 843.000000,106.500000 
	C843.000000,113.662079 843.000000,113.662079 849.500000,116.000000 
"/>
<path fill="none" opacity="1.000000" stroke="#000000" stroke-linecap="round" stroke-linejoin="round" stroke-width="5.000000"
	d="
M292.000000,204.500000 
	C290.831085,206.360733 290.988556,208.437927 290.994690,210.500015 
	C291.010498,215.833298 291.000000,221.166672 291.000000,226.500000 
	C291.000000,233.662079 291.000000,233.662079 297.500000,236.000000 
"/>
<path fill="none" opacity="1.000000" stroke="#000000" stroke-linecap="round" stroke-linejoin="round" stroke-width="4.000000"
	d="
M657.500000,628.500000 
	C649.500000,628.500000 641.500000,628.500000 633.500000,628.500000 
"/>
<path fill="none" opacity="1.000000" stroke="#000000" stroke-linecap="round" stroke-linejoin="round" stroke-width="4.000000"
	d="
M470.500000,628.500000 
	C462.500000,628.500000 454.500000,628.500000 446.500000,628.500000 
"/>
<path fill="none" opacity="1.000000" stroke="#000000" stroke-linecap="round" stroke-linejoin="round" stroke-width="4.000000"
	d="
M593.500000,628.500000 
	C585.500000,628.500000 577.500000,628.500000 569.500000,628.500000 
"/>
<path fill="none" opacity="1.000000" stroke="#000000" stroke-linecap="round" stroke-linejoin="round" stroke-width="4.000000"
	d="
M729.500000,596.000000 
	C728.888489,596.573547 727.715759,595.934509 727.426697,597.486328 
	C726.428772,602.842773 723.501892,607.589478 722.301025,612.955444 
	C721.981140,614.384949 721.739441,617.223267 719.000000,617.500000 
"/>
<path fill="none" opacity="1.000000" stroke="#000000" stroke-linecap="round" stroke-linejoin="round" stroke-width="5.000000"
	d="
M701.000000,588.500000 
	C699.831055,590.360718 699.990295,592.437927 699.994690,594.500000 
	C700.008972,601.166687 700.068848,607.834351 699.968018,614.499512 
	C699.924194,617.395752 700.729675,619.221802 704.000000,619.000000 
"/>
<path fill="none" opacity="1.000000" stroke="#000000" stroke-linecap="round" stroke-linejoin="round" stroke-width="4.000000"
	d="
M831.500000,92.500000 
	C831.500000,100.166664 831.500000,107.833336 831.500000,115.500000 
"/>
<path fill="none" opacity="1.000000" stroke="#000000" stroke-linecap="round" stroke-linejoin="round" stroke-width="4.000000"
	d="
M303.500000,212.500000 
	C303.500000,220.166672 303.500000,227.833328 303.500000,235.500000 
"/>
<path fill="none" opacity="1.000000" stroke="#000000" stroke-linecap="round" stroke-linejoin="round" stroke-width="5.000000"
	d="
M416.000000,597.000000 
	C416.000000,604.333313 416.000000,611.666687 416.000000,619.000000 
"/>
<path fill="none" opacity="1.000000" stroke="#000000" stroke-linecap="round" stroke-linejoin="round" stroke-width="4.000000"
	d="
M853.500000,92.500000 
	C856.489746,98.764351 857.705444,105.780670 860.776306,111.860435 
	C862.830933,115.927986 862.218384,118.685371 860.488281,121.993874 
	C859.208069,124.442101 857.395081,125.814789 854.500000,124.500000 
"/>
<path fill="none" opacity="1.000000" stroke="#000000" stroke-linecap="round" stroke-linejoin="round" stroke-width="5.000000"
	d="
M600.000000,597.000000 
	C600.000000,604.333313 600.000000,611.666687 600.000000,619.000000 
"/>
<path fill="none" opacity="1.000000" stroke="#000000" stroke-linecap="round" stroke-linejoin="round" stroke-width="5.000000"
	d="
M688.000000,597.000000 
	C688.000000,604.333313 688.000000,611.666687 688.000000,619.000000 
"/>
<path fill="none" opacity="1.000000" stroke="#000000" stroke-linecap="round" stroke-linejoin="round" stroke-width="4.000000"
	d="
M871.500000,92.500008 
	C869.166687,98.666672 866.704041,104.790085 864.614197,111.038200 
	C864.218201,112.222061 863.858398,113.179192 863.000000,114.000000 
"/>
<path fill="none" opacity="1.000000" stroke="#000000" stroke-linecap="round" stroke-linejoin="round" stroke-width="4.000000"
	d="
M710.500000,596.500000 
	C713.326294,603.439148 715.135925,610.741882 718.423035,617.537231 
	C720.834167,622.521790 716.802490,628.514221 711.500000,628.500000 
"/>
<path fill="none" opacity="1.000000" stroke="#000000" stroke-linecap="round" stroke-linejoin="round" stroke-width="5.000000"
	d="
M531.000000,597.000000 
	C531.000000,604.333313 531.000000,611.666687 531.000000,619.000000 
"/>
<path fill="none" opacity="1.000000" stroke="#000000" stroke-linecap="round" stroke-linejoin="round" stroke-width="5.000000"
	d="
M261.000000,93.000000 
	C261.000000,100.333336 261.000000,107.666664 261.000000,115.000000 
"/>
<path fill="none" opacity="1.000000" stroke="#000000" stroke-linecap="round" stroke-linejoin="round" stroke-width="5.000000"
	d="
M547.000000,597.000000 
	C547.000000,604.333313 547.000000,611.666687 547.000000,619.000000 
"/>
<path fill="none" opacity="1.000000" stroke="#000000" stroke-linecap="round" stroke-linejoin="round" stroke-width="5.000000"
	d="
M891.500000,212.500000 
	C892.657593,219.977982 891.688354,227.503220 892.000000,235.000000 
"/>
<path fill="none" opacity="1.000000" stroke="#000000" stroke-linecap="round" stroke-linejoin="round" stroke-width="5.000000"
	d="
M694.000000,213.000000 
	C694.000000,220.333328 694.000000,227.666672 694.000000,235.000000 
"/>
<path fill="none" opacity="1.000000" stroke="#000000" stroke-linecap="round" stroke-linejoin="round" stroke-width="5.000000"
	d="
M314.000000,213.000000 
	C314.000000,220.333328 314.000000,227.666672 314.000000,235.000000 
"/>
<path fill="none" opacity="1.000000" stroke="#000000" stroke-linecap="round" stroke-linejoin="round" stroke-width="5.000000"
	d="
M138.000000,93.000000 
	C138.000000,100.333336 138.000000,107.666664 138.000000,115.000000 
"/>
<path fill="none" opacity="1.000000" stroke="#000000" stroke-linecap="round" stroke-linejoin="round" stroke-width="5.000000"
	d="
M733.000000,93.000000 
	C733.000000,100.333336 733.000000,107.666664 733.000000,115.000000 
"/>
<path fill="none" opacity="1.000000" stroke="#000000" stroke-linecap="round" stroke-linejoin="round" stroke-width="5.000000"
	d="
M611.000000,597.000000 
	C611.000000,604.333313 611.000000,611.666687 611.000000,619.000000 
"/>
<path fill="none" opacity="1.000000" stroke="#000000" stroke-linecap="round" stroke-linejoin="round" stroke-width="5.000000"
	d="
M352.000000,597.000000 
	C352.000000,604.333313 352.000000,611.666687 352.000000,619.000000 
"/>
<path fill="none" opacity="1.000000" stroke="#000000" stroke-linecap="round" stroke-linejoin="round" stroke-width="4.000000"
	d="
M255.500000,212.500000 
	C255.500000,220.166672 255.500000,227.833328 255.500000,235.500000 
"/>
<path fill="none" opacity="1.000000" stroke="#000000" stroke-linecap="round" stroke-linejoin="round" stroke-width="5.000000"
	d="
M854.000000,204.000000 
	C853.237671,213.155838 855.367432,222.352615 853.578613,231.515350 
	C853.340088,232.737030 854.166687,234.166656 854.500000,235.500000 
"/>
<path fill="none" opacity="1.000000" stroke="#000000" stroke-linecap="round" stroke-linejoin="round" stroke-width="4.000000"
	d="
M477.500000,587.500000 
	C477.883209,591.829468 476.594208,596.287598 478.500000,600.500000 
"/>
<path fill="none" opacity="1.000000" stroke="#000000" stroke-linecap="round" stroke-linejoin="round" stroke-width="3.000000"
	d="
M540.000000,597.000000 
	C538.337585,595.704834 536.871094,596.706787 535.522095,597.536011 
	C534.371216,598.243408 533.803467,599.947754 532.000000,599.500000 
"/>
<path fill="none" opacity="1.000000" stroke="#000000" stroke-linecap="round" stroke-linejoin="round" stroke-width="3.000000"
	d="
M270.000000,93.000000 
	C268.337585,91.704849 266.871094,92.706833 265.522125,93.535980 
	C264.371216,94.243401 263.803497,95.947762 262.000000,95.500000 
"/>
<path fill="none" opacity="1.000000" stroke="#000000" stroke-linecap="round" stroke-linejoin="round" stroke-width="4.000000"
	d="
M847.500000,92.500000 
	C844.833313,92.590164 842.166687,93.587456 839.500000,92.500000 
"/>
<path fill="none" opacity="1.000000" stroke="#000000" stroke-linecap="round" stroke-linejoin="round" stroke-width="4.000000"
	d="
M704.500000,596.500000 
	C701.833313,596.590149 699.166687,597.587463 696.500000,596.500000 
"/>
<path fill="none" opacity="1.000000" stroke="#000000" stroke-linecap="round" stroke-linejoin="round" stroke-width="4.000000"
	d="
M295.500000,212.500000 
	C292.833344,212.590164 290.166656,213.587463 287.500000,212.500000 
"/>
<path fill="none" opacity="1.000000" stroke="#000000" stroke-linecap="round" stroke-linejoin="round" stroke-width="4.000000"
	d="
M511.000000,596.500000 
	C505.122711,598.359619 502.372589,602.155273 502.928528,608.506226 
	C503.280945,612.532410 503.631439,615.942627 507.936188,618.125793 
	C511.862305,620.117004 514.830994,619.497925 518.015625,617.020081 
	C521.706177,614.148621 522.513916,610.083801 521.881165,606.018494 
	C521.006592,600.399719 517.489563,596.915039 511.500000,596.500000 
"/>
<path fill="none" opacity="1.000000" stroke="#000000" stroke-linecap="round" stroke-linejoin="round" stroke-width="4.000000"
	d="
M792.000000,212.500000 
	C782.712097,216.497055 779.763672,227.130493 786.540710,232.952621 
	C792.798950,238.329086 800.513611,234.074890 801.965759,227.991821 
	C803.924866,219.784546 800.511475,214.360107 792.500000,212.500000 
"/>
</svg>