<svg version="1.1" id="Layer_1" xmlns="http://www.w3.org/2000/svg" xmlns:xlink="http://www.w3.org/1999/xlink" x="0px" y="0px"
	 width="100%" viewBox="0 0 1044 324" enable-background="new 0 0 1044 324" xml:space="preserve">
<path fill="#FFFFFF" opacity="1.000000" stroke="none" 
	d="
M671.000000,325.000000 
	C447.333374,325.000000 224.166748,325.000000 1.000090,325.000000 
	C1.000060,217.000061 1.000060,109.000122 1.000030,1.000133 
	C348.999878,1.000089 696.999756,1.000089 1044.999756,1.000044 
	C1044.999756,108.999855 1044.999756,216.999710 1044.999878,324.999786 
	C920.500000,325.000000 796.000000,325.000000 671.000000,325.000000 
M163.500000,41.000000 
	C122.738876,41.000000 81.977753,41.000000 41.288227,41.000000 
	C41.288227,122.644272 41.288227,203.714020 41.288227,284.712799 
	C175.978226,284.712799 310.379822,284.712799 444.711670,284.712799 
	C444.711670,203.355515 444.711670,122.285744 444.711670,41.000000 
	C351.115662,41.000000 257.807831,41.000000 163.500000,41.000000 
M878.500000,285.000000 
	C920.594482,285.000000 962.688904,285.000000 1004.711670,285.000000 
	C1004.711670,203.355606 1004.711670,122.285858 1004.711670,41.287209 
	C870.021667,41.287209 735.620117,41.287209 601.288330,41.287209 
	C601.288330,122.644478 601.288330,203.714218 601.288330,285.000000 
	C693.550964,285.000000 785.525452,285.000000 878.500000,285.000000 
z"/>
<path fill="#000000" opacity="1.000000" stroke="none" 
	d="
M164.000000,41.000000 
	C257.807831,41.000000 351.115662,41.000000 444.711670,41.000000 
	C444.711670,122.285744 444.711670,203.355515 444.711670,284.712799 
	C310.379822,284.712799 175.978226,284.712799 41.288227,284.712799 
	C41.288227,203.714020 41.288227,122.644272 41.288227,41.000000 
	C81.977753,41.000000 122.738876,41.000000 164.000000,41.000000 
M343.500000,44.998520 
	C244.074142,44.998520 144.648285,44.998520 45.284935,44.998520 
	C45.284935,83.972801 45.284935,122.377434 45.284935,160.716949 
	C177.306717,160.716949 309.041870,160.716949 440.715027,160.716949 
	C440.715027,122.027130 440.715027,83.622505 440.715027,44.998520 
	C408.452759,44.998520 376.476379,44.998520 343.500000,44.998520 
M303.500000,281.001312 
	C349.261078,281.001312 395.022186,281.001312 440.712646,281.001312 
	C440.712646,242.022598 440.712646,203.618011 440.712646,165.285385 
	C308.688721,165.285385 176.953659,165.285385 45.287342,165.285385 
	C45.287342,203.977386 45.287342,242.381973 45.287342,281.001312 
	C131.217224,281.001312 216.858612,281.001312 303.500000,281.001312 
z"/>
<path fill="#000000" opacity="1.000000" stroke="none" 
	d="
M878.000000,285.000000 
	C785.525452,285.000000 693.550964,285.000000 601.288330,285.000000 
	C601.288330,203.714218 601.288330,122.644478 601.288330,41.287209 
	C735.620117,41.287209 870.021667,41.287209 1004.711670,41.287209 
	C1004.711670,122.285858 1004.711670,203.355606 1004.711670,285.000000 
	C962.688904,285.000000 920.594482,285.000000 878.000000,285.000000 
M609.618774,44.998745 
	C608.176514,44.998745 606.734253,44.998745 605.248108,44.998745 
	C605.248108,83.897522 605.248108,122.302223 605.248108,160.751205 
	C737.234253,160.751205 868.971008,160.751205 1000.748413,160.751205 
	C1000.748413,122.095779 1000.748413,83.690926 1000.748413,44.998741 
	C870.530334,44.998741 740.564819,44.998741 609.618774,44.998745 
M1001.001404,271.466492 
	C1001.001404,236.041122 1001.001404,200.615753 1001.001404,165.297379 
	C868.666504,165.297379 736.930298,165.297379 605.299744,165.297379 
	C605.299744,204.001999 605.299744,242.407043 605.299744,280.700684 
	C737.337219,280.700684 869.073303,280.700684 1001.001404,280.700684 
	C1001.001404,277.752930 1001.001404,275.104523 1001.001404,271.466492 
z"/>
<path fill="#FEFEFE" opacity="1.000000" stroke="none" 
	d="
M344.000000,44.998520 
	C376.476379,44.998520 408.452759,44.998520 440.715027,44.998520 
	C440.715027,83.622505 440.715027,122.027130 440.715027,160.716949 
	C309.041870,160.716949 177.306717,160.716949 45.284935,160.716949 
	C45.284935,122.377434 45.284935,83.972801 45.284935,44.998520 
	C144.648285,44.998520 244.074142,44.998520 344.000000,44.998520 
M205.853378,103.167747 
	C209.843643,103.018951 213.883972,103.213707 217.812439,102.640991 
	C223.734543,101.777641 226.958817,97.637154 226.793808,91.947807 
	C226.633820,86.431320 223.383698,82.712196 217.407639,82.245522 
	C211.998276,81.823105 206.529922,82.156265 201.098358,82.156265 
	C201.098358,93.927933 201.098358,105.339294 201.098358,117.027611 
	C202.608749,116.899094 203.830597,116.795128 205.233673,116.675743 
	C205.233673,112.189903 205.233673,108.033394 205.853378,103.167747 
M239.839035,105.036697 
	C244.293915,105.036697 248.748795,105.036697 253.158798,105.036697 
	C253.682877,96.673424 250.075104,91.685516 243.391296,91.008873 
	C237.173355,90.379395 231.943039,94.828964 231.076462,101.485397 
	C229.975037,109.946022 233.661697,115.825806 240.752884,116.918114 
	C246.849365,117.857201 251.537048,114.697357 252.942337,107.755730 
	C251.119003,108.570892 249.360229,108.785110 248.733475,109.741310 
	C246.583725,113.021088 243.793137,114.169098 240.192245,112.959549 
	C236.588547,111.749077 235.186111,108.951889 235.297379,105.036713 
	C236.620087,105.036713 237.778473,105.036713 239.839035,105.036697 
M341.641235,114.005707 
	C341.321991,117.231644 342.826569,117.597130 345.563232,116.537064 
	C345.563232,110.554131 345.773132,104.728088 345.505951,98.924004 
	C345.221375,92.741318 340.086273,89.465370 334.261200,91.488464 
	C332.863953,91.973747 331.582855,92.793488 330.618011,93.274933 
	C329.099426,92.336044 327.720917,91.483749 325.641113,90.197861 
	C325.641113,95.529442 325.641113,99.677238 325.641113,103.825027 
	C325.641113,108.120407 325.641113,112.415779 325.641113,116.711159 
	C326.133148,116.979820 326.625153,117.248482 327.117188,117.517143 
	C327.940399,116.376953 329.383453,115.285240 329.477112,114.087997 
	C329.839813,109.451096 329.592438,104.767776 329.921967,100.126579 
	C330.192474,96.317497 332.845703,94.611000 336.426239,94.632820 
	C340.222107,94.655937 341.573853,97.186798 341.615753,100.609047 
	C341.666748,104.771324 341.636353,108.934593 341.641235,114.005707 
M143.286407,95.561882 
	C150.007538,93.574379 152.150436,95.124374 152.228455,102.099785 
	C152.273056,106.088882 152.343338,110.082565 152.205048,114.067345 
	C152.089127,117.407669 153.637436,117.522148 156.216614,116.569069 
	C156.216614,110.744736 156.338409,105.093636 156.185028,99.450020 
	C156.003052,92.753677 150.672363,89.244438 144.524033,91.663139 
	C143.158539,92.200302 141.912033,93.039932 141.095093,93.479630 
	C139.675018,92.486206 138.387924,91.585808 136.237732,90.081619 
	C136.237732,99.139351 136.321487,106.610985 136.199783,114.079269 
	C136.144958,117.444145 137.674271,117.479523 140.217987,116.574577 
	C140.217987,112.894539 139.910400,109.372330 140.305969,105.930946 
	C140.688599,102.602089 141.795181,99.356461 143.286407,95.561882 
M277.816162,109.698105 
	C276.576447,109.278160 275.336700,108.858215 273.207733,108.137047 
	C276.381348,116.867798 284.689667,119.631180 290.579285,114.904808 
	C292.271912,113.546509 293.794098,110.667900 293.608643,108.650543 
	C293.428436,106.690865 291.275940,104.450592 289.404205,103.234337 
	C287.409607,101.938225 284.584869,101.988205 282.394989,100.901443 
	C280.763184,100.091629 279.565216,98.407707 278.174011,97.113075 
	C279.986725,96.259102 281.800110,94.744560 283.612000,94.746323 
	C285.257782,94.747917 286.868561,96.466896 288.558228,97.300125 
	C289.752594,97.889114 291.052856,98.263405 293.266052,99.093834 
	C290.594330,92.110199 285.689850,89.789635 279.988586,91.454094 
	C276.639709,92.431786 273.740173,94.523270 274.371063,97.963959 
	C274.809265,100.353928 277.264038,102.810120 279.451385,104.317314 
	C281.522339,105.744308 284.506744,105.770950 286.914429,106.816437 
	C288.061188,107.314392 289.571320,108.786415 289.523529,109.747925 
	C289.468628,110.852036 288.063416,112.430779 286.906189,112.835640 
	C283.577789,114.000122 280.332245,113.780411 277.816162,109.698105 
M298.238525,98.839142 
	C296.705536,107.759911 298.543732,113.327774 303.858459,115.861740 
	C309.597321,118.597939 316.606018,116.339172 319.275726,110.893044 
	C322.487549,104.341179 320.234406,95.255608 314.671936,92.328354 
	C308.604370,89.135300 301.936920,91.531296 298.238525,98.839142 
M162.117584,98.424911 
	C163.134186,105.069832 169.052368,104.454750 173.437042,106.284004 
	C175.097427,106.976692 176.268814,108.841438 177.663101,110.171936 
	C175.969376,111.260437 174.184799,113.345131 172.603516,113.200890 
	C170.306808,112.991386 168.153275,111.180450 165.945679,110.038910 
	C164.772446,109.432236 163.613998,108.797020 161.400558,107.614761 
	C162.416214,113.471519 164.838303,116.469780 168.787033,116.484833 
	C172.490051,116.498940 176.861465,115.797501 179.747284,113.739868 
	C183.853287,110.812241 182.241165,104.986961 177.346878,103.089821 
	C174.888428,102.136879 172.158920,101.847870 169.761826,100.785271 
	C168.326797,100.149139 167.297195,98.598404 166.085373,97.458755 
	C167.642899,96.488068 169.194580,94.755592 170.759476,94.743576 
	C172.627121,94.729233 174.505005,96.190834 176.380493,97.008415 
	C177.673431,97.572044 178.969833,98.127762 181.104568,99.049774 
	C179.522903,92.375618 175.673340,91.029823 171.274063,91.029282 
	C166.808182,91.028725 163.085342,92.575630 162.117584,98.424911 
M263.293640,93.151367 
	C262.201935,92.306641 261.110260,91.461914 259.079681,89.890724 
	C259.079681,99.025497 259.161591,106.474442 259.040558,113.920074 
	C258.990021,117.029655 260.242371,117.533295 263.162323,116.554588 
	C263.162323,111.282547 262.942749,106.152061 263.236572,101.051155 
	C263.445892,97.417076 264.396698,94.000237 269.505737,94.766159 
	C270.308044,94.886436 271.334747,93.509995 272.257690,92.825607 
	C271.959320,92.170280 271.660980,91.514961 271.362610,90.859642 
	C268.935699,91.521423 266.508820,92.183197 263.293640,93.151367 
M188.868759,116.846642 
	C193.449326,117.976105 193.321060,115.431274 192.616287,112.283546 
	C188.647049,111.056427 187.742035,112.852753 188.868759,116.846642 
M192.929443,95.365089 
	C193.442642,91.332001 191.135437,91.703850 188.248642,92.317245 
	C188.321930,93.959496 188.384277,95.356590 188.473557,97.357262 
	C190.220627,96.906693 191.539719,96.566505 192.929443,95.365089 
z"/>
<path fill="#FEFEFE" opacity="1.000000" stroke="none" 
	d="
M303.000000,281.001312 
	C216.858612,281.001312 131.217224,281.001312 45.287342,281.001312 
	C45.287342,242.381973 45.287342,203.977386 45.287342,165.285385 
	C176.953659,165.285385 308.688721,165.285385 440.712646,165.285385 
	C440.712646,203.618011 440.712646,242.022598 440.712646,281.001312 
	C395.022186,281.001312 349.261078,281.001312 303.000000,281.001312 
M269.500000,245.000107 
	C291.463348,245.000107 313.426666,245.000107 335.384949,245.000107 
	C336.793976,239.736496 333.123810,241.037735 330.915039,241.036072 
	C270.753784,240.990784 210.592468,240.999908 150.431168,240.999908 
	C149.132034,240.999908 147.832916,240.999878 146.604950,240.999878 
	C145.069992,245.735153 148.167725,244.992706 150.510529,244.993271 
	C189.840347,245.002823 229.170181,245.000107 269.500000,245.000107 
M241.671387,228.075760 
	C241.671387,222.462051 241.671387,216.848343 241.671387,210.894989 
	C239.933548,211.060715 238.733307,211.175171 237.622726,211.281082 
	C237.622726,217.678802 237.358002,223.659698 237.700989,229.605515 
	C238.012177,234.999908 242.713623,238.139694 247.912674,236.824402 
	C249.495026,236.424103 250.963333,235.573074 252.209473,235.044800 
	C253.891205,235.833038 255.423157,236.551086 257.438812,237.495834 
	C257.438812,228.127060 257.438812,219.701782 257.438812,211.330322 
	C254.593933,210.374390 253.207260,210.869858 253.295547,214.097595 
	C253.422531,218.739777 253.754135,223.507050 252.848343,227.988495 
	C252.431503,230.050827 249.555069,232.360336 247.308212,233.118683 
	C244.545715,234.051041 242.214447,232.266907 241.671387,228.075760 
M155.087265,213.095139 
	C153.460602,212.307281 151.833954,211.519409 149.854874,210.560852 
	C149.854874,219.850891 149.854874,228.292480 149.854874,236.734070 
	C150.302963,236.991943 150.751053,237.249832 151.199142,237.507706 
	C151.995178,236.349808 153.384109,235.238510 153.479462,234.025528 
	C153.805038,229.884293 153.507645,225.696915 153.763977,221.546661 
	C154.055359,216.828644 156.584900,214.339630 160.501602,214.600296 
	C164.989014,214.898911 165.653534,218.063339 165.643616,221.689865 
	C165.629959,226.677490 165.640198,231.665207 165.640198,236.844666 
	C167.011154,236.844666 168.124084,236.844666 169.181625,236.844666 
	C169.342239,236.351135 169.532135,236.036636 169.534241,235.720886 
	C169.566498,230.889572 169.613831,226.057800 169.579330,221.226715 
	C169.512955,211.935165 164.368286,208.735291 155.087265,213.095139 
M312.240997,213.039062 
	C312.239807,220.020233 312.324219,227.002945 312.199249,233.981903 
	C312.141754,237.192856 313.494537,237.612427 316.427826,236.480682 
	C316.427826,231.167450 316.232727,225.847061 316.492188,220.548920 
	C316.684998,216.611282 319.255280,214.550125 323.139801,214.636230 
	C327.266418,214.727692 328.286255,217.549438 328.245117,221.129654 
	C328.195496,225.450745 328.344727,229.776443 328.202911,234.093399 
	C328.091125,237.496109 329.722504,237.421692 332.207245,236.587585 
	C332.207245,230.554398 332.379364,224.734299 332.159912,218.928970 
	C331.930450,212.858597 326.707123,209.460876 320.959686,211.473297 
	C319.426239,212.010208 318.040344,212.968506 316.586517,213.733017 
	C315.212708,210.789337 315.212708,210.789337 312.240997,213.039062 
M275.836975,236.762726 
	C276.463959,236.543640 277.323364,236.512878 277.678955,236.073929 
	C279.532898,233.785416 282.224640,231.603333 282.794250,228.985840 
	C283.575653,225.395325 280.499725,223.521469 277.138336,222.659668 
	C275.056244,222.125854 272.877777,221.732651 270.978668,220.797134 
	C269.545013,220.090912 268.485443,218.625259 267.259399,217.497620 
	C268.809174,216.520660 270.349976,214.781662 271.911041,214.763306 
	C273.781982,214.741287 275.672058,216.183136 277.550293,216.999283 
	C278.841705,217.560455 280.127075,218.135666 281.415161,218.704620 
	C279.267853,211.158951 271.825104,208.888336 266.323730,212.668839 
	C262.117432,215.559326 262.269562,221.383835 266.795929,223.702713 
	C268.972504,224.817795 271.497314,225.241989 273.843719,226.039917 
	C276.069641,226.796875 279.748291,226.943771 278.506836,230.255707 
	C277.904755,231.861923 274.346832,232.946121 272.040253,233.121033 
	C270.508575,233.237183 268.834076,231.306152 267.202728,230.326035 
	C266.008575,229.608627 264.780701,228.947433 263.567841,228.261169 
	C264.936249,235.630585 267.331512,237.108231 275.836975,236.762726 
M189.607666,227.294403 
	C192.167038,230.067535 190.718140,231.949173 187.966721,232.892242 
	C184.627060,234.036926 181.501007,233.657349 179.139771,230.382080 
	C178.398315,229.353638 176.793533,228.947601 175.583923,228.256683 
	C177.352402,236.993927 186.505814,239.678192 192.429230,234.585663 
	C196.687103,230.925034 195.728043,225.112717 190.426514,223.055908 
	C188.121429,222.161621 185.549469,221.899506 183.331284,220.855927 
	C181.778076,220.125229 180.618927,218.556915 179.283798,217.362671 
	C181.037064,216.427689 182.763962,214.823914 184.551331,214.753418 
	C186.204758,214.688202 187.920303,216.269913 189.613525,217.116226 
	C190.823181,217.720825 192.041183,218.308731 194.234818,219.384262 
	C191.614899,210.952560 182.555405,208.517059 177.449112,213.371490 
	C173.919449,216.726974 174.740555,221.930603 179.363266,223.941193 
	C182.377075,225.252014 185.641754,225.986038 189.607666,227.294403 
M225.537827,230.462906 
	C220.447235,235.008179 217.943298,234.004013 214.409622,224.488892 
	C213.250122,227.043839 212.034698,228.434769 212.145355,229.710693 
	C212.534317,234.195862 215.991257,236.948410 220.741364,237.057037 
	C225.845978,237.173782 229.857422,234.389954 230.097824,229.363831 
	C230.525635,220.419418 230.218018,211.439850 230.218018,202.047821 
	C228.907852,202.110977 227.577820,202.175095 225.818695,202.259903 
	C225.818695,211.685318 225.818695,220.661392 225.537827,230.462906 
M293.090698,209.993591 
	C293.090698,208.016830 293.090698,206.040085 293.090698,202.925125 
	C291.256653,204.373199 289.781860,205.003891 289.258148,206.092255 
	C288.663025,207.328934 289.242401,209.110641 288.702118,210.400192 
	C288.262573,211.449249 286.885895,212.086884 286.043152,213.014481 
	C285.957581,213.108688 286.728302,213.918915 287.029388,214.438736 
	C287.737579,215.661285 288.902069,216.874725 288.990204,218.153290 
	C289.252441,221.958572 289.056244,225.793747 289.091187,229.616760 
	C289.151917,236.261826 291.033203,237.745209 298.789124,236.214050 
	C289.598083,230.762161 294.153961,222.456207 293.040527,215.943771 
	C294.723572,214.612091 295.961456,213.632645 297.199341,212.653183 
	C295.952759,212.016541 294.706177,211.379898 293.090698,209.993591 
M301.622559,218.636795 
	C301.622559,224.621628 301.622559,230.606461 301.622559,236.963852 
	C303.067383,236.869934 304.244385,236.793427 305.610535,236.704620 
	C305.610535,228.819458 305.555908,221.336716 305.635559,213.855408 
	C305.670868,210.537338 304.201904,210.387115 301.622620,211.640686 
	C301.622620,213.699448 301.622620,215.691681 301.622559,218.636795 
M205.733826,216.750977 
	C205.843857,215.236649 205.953873,213.722321 206.067200,212.162720 
	C204.263031,212.162720 203.022308,212.162720 201.735382,212.162720 
	C201.092072,215.152847 200.685593,217.722366 205.733826,216.750977 
M204.238861,237.057495 
	C205.011887,235.584808 205.784912,234.112137 206.828186,232.124603 
	C204.334885,232.124603 203.082733,232.124603 200.367554,232.124603 
	C201.698029,234.254471 202.574280,235.657196 204.238861,237.057495 
z"/>
<path fill="#FEFEFE" opacity="1.000000" stroke="none" 
	d="
M610.109009,44.998741 
	C740.564819,44.998741 870.530334,44.998741 1000.748413,44.998741 
	C1000.748413,83.690926 1000.748413,122.095779 1000.748413,160.751205 
	C868.971008,160.751205 737.234253,160.751205 605.248108,160.751205 
	C605.248108,122.302223 605.248108,83.897522 605.248108,44.998745 
	C606.734253,44.998745 608.176514,44.998745 610.109009,44.998741 
M794.549500,96.080017 
	C795.386841,100.747200 795.487549,105.716591 797.247131,110.005379 
	C799.465942,115.413338 806.188354,117.877457 812.546082,116.902336 
	C818.854736,115.934761 822.525024,112.518326 823.453247,105.636589 
	C821.788879,106.042809 819.982361,106.656403 819.229858,107.905144 
	C817.011475,111.586830 813.958313,113.237442 809.746887,113.140244 
	C802.712158,112.977890 798.757874,108.024956 798.794983,99.321007 
	C798.824463,92.411217 801.717102,87.571091 806.633911,86.204552 
	C812.364563,84.611824 815.902344,86.299965 820.242249,92.879219 
	C821.349854,92.458809 822.527283,92.011894 825.404724,90.919724 
	C821.422913,87.746696 818.688354,84.380066 815.173401,82.996986 
	C805.928101,79.359161 797.369324,84.805397 794.549500,96.080017 
M767.749023,101.861427 
	C767.117249,101.653603 766.478149,101.465691 765.855103,101.234360 
	C763.689148,100.430145 759.830139,100.619186 761.061218,97.219879 
	C761.578369,95.791702 765.642639,95.392632 768.162598,95.086014 
	C769.026001,94.980957 770.001038,96.760124 771.099854,97.356415 
	C772.242798,97.976616 773.596863,98.207573 775.792175,98.905548 
	C772.577393,91.118805 764.968445,88.871956 759.553711,92.753738 
	C755.414001,95.721458 755.727356,101.504730 760.303040,103.784027 
	C762.357605,104.807472 764.710876,105.216354 766.892456,106.004005 
	C769.190613,106.833771 773.276855,106.729248 771.700745,110.463104 
	C771.019470,112.077065 767.121704,112.815979 764.620117,112.983452 
	C763.287781,113.072647 761.880432,110.991119 760.388489,110.084244 
	C759.231567,109.381065 757.890930,108.980179 755.505615,107.966057 
	C759.015747,116.786621 766.603760,119.301323 772.833618,115.250305 
	C777.559631,112.177200 777.540527,105.921799 772.742249,103.483894 
	C771.424438,102.814316 769.935364,102.482056 767.749023,101.861427 
M857.799133,97.537781 
	C856.189941,95.124313 857.447510,89.648529 851.390320,91.421104 
	C854.016174,98.663017 856.518494,105.542412 859.004883,112.427521 
	C861.554688,119.488350 860.417908,121.678993 853.170898,123.703461 
	C853.021423,127.289932 855.425232,127.787933 857.728271,126.611748 
	C859.623474,125.643852 861.553528,123.715584 862.331055,121.760704 
	C866.305115,111.769142 869.910461,101.630905 873.820251,91.070023 
	C867.133179,90.728271 868.575378,96.337524 867.056458,99.247856 
	C865.287964,102.636246 864.393738,106.480919 863.120117,110.127579 
	C862.770203,110.078491 862.420288,110.029396 862.070374,109.980301 
	C860.721680,106.082329 859.372925,102.184357 857.799133,97.537781 
M734.625183,91.506058 
	C733.563904,91.338249 732.502563,91.170433 731.080383,90.945549 
	C731.080383,99.041527 730.974304,106.692429 731.202820,114.333313 
	C731.234497,115.394157 732.917053,116.405640 733.835327,117.439972 
	C734.334473,117.107544 734.833557,116.775108 735.332642,116.442680 
	C735.332642,110.973312 735.081665,105.488380 735.419434,100.039955 
	C735.650757,96.309654 738.378906,94.540176 742.004761,94.637405 
	C745.791870,94.738960 747.103088,97.182671 747.077942,100.672119 
	C747.045471,105.169785 747.142883,109.669174 747.058105,114.165436 
	C746.992249,117.659714 748.643738,117.462837 751.052979,116.403015 
	C751.052979,111.177521 751.073059,106.183426 751.048645,101.189545 
	C751.002502,91.748665 745.391418,88.499916 736.858826,92.874931 
	C736.379517,93.120735 735.464844,92.517555 734.625183,91.506058 
M841.084229,103.514038 
	C841.084412,105.505821 841.068726,107.497749 841.087524,109.489349 
	C841.150940,116.203148 842.832092,117.596489 849.610352,116.524292 
	C850.392151,112.334610 843.114014,112.688225 844.818726,107.330711 
	C846.006897,103.596481 845.047668,99.178970 845.047668,95.839966 
	C846.845825,94.541588 848.020020,93.693771 849.194153,92.845932 
	C847.867310,91.858673 846.540466,90.871414 845.151245,89.837776 
	C845.044983,87.990616 844.927979,85.958107 844.810974,83.925606 
	C844.385864,83.787727 843.960754,83.649857 843.535645,83.511978 
	C841.684387,86.638832 839.822144,89.759331 838.007568,92.907333 
	C837.890808,93.109894 838.063660,93.748489 838.233582,93.808044 
	C843.023193,95.486153 840.405396,99.555840 841.084229,103.514038 
M830.685181,90.970505 
	C830.338379,91.450699 829.693054,91.928581 829.689331,92.411430 
	C829.626953,100.497177 829.644775,108.583534 829.644775,117.027191 
	C831.106995,116.893852 832.282166,116.786690 833.611145,116.665504 
	C833.611145,108.817001 833.689453,101.386391 833.519958,93.961456 
	C833.496643,92.940781 832.242249,91.948219 830.685181,90.970505 
z"/>
<path fill="#FEFEFE" opacity="1.000000" stroke="none" 
	d="
M1001.001404,271.961304 
	C1001.001404,275.104523 1001.001404,277.752930 1001.001404,280.700684 
	C869.073303,280.700684 737.337219,280.700684 605.299744,280.700684 
	C605.299744,242.407043 605.299744,204.001999 605.299744,165.297379 
	C736.930298,165.297379 868.666504,165.297379 1001.001404,165.297379 
	C1001.001404,200.615753 1001.001404,236.041122 1001.001404,271.961304 
M870.500000,244.998505 
	C884.618591,244.998505 898.737183,244.998505 912.827820,244.998505 
	C912.827820,243.446045 912.827820,242.372299 912.827820,241.169678 
	C838.180908,241.169678 763.769043,241.169678 688.980286,241.169678 
	C689.067688,242.528580 689.142700,243.694901 689.226501,244.998505 
	C749.576172,244.998505 809.538086,244.998505 870.500000,244.998505 
M838.504578,234.070435 
	C843.544373,240.335327 850.341248,233.429901 855.761902,237.164764 
	C855.761902,224.974533 855.761902,213.570404 855.761902,201.152603 
	C849.114380,204.188477 854.122742,210.314194 851.338074,213.623535 
	C843.085266,207.032761 834.942749,214.170639 835.118530,221.339325 
	C835.218689,225.422409 836.977783,229.464783 838.504578,234.070435 
M829.587402,233.132828 
	C829.571289,228.304443 829.780396,223.462067 829.481262,218.651276 
	C829.116821,212.791260 824.076172,209.580627 818.471436,211.410736 
	C816.941772,211.910217 815.533081,212.780350 814.997498,213.036423 
	C812.924866,212.075943 811.543945,211.435989 809.754883,210.606888 
	C809.754883,219.936172 809.754883,228.249466 809.754883,236.934082 
	C811.062927,236.853302 812.234131,236.780960 813.839661,236.681808 
	C813.839661,230.976120 813.646790,225.651672 813.902283,220.348846 
	C814.097473,216.297699 816.865479,214.509583 820.697083,214.656647 
	C824.564148,214.805084 825.602356,217.557693 825.625854,220.883347 
	C825.663208,226.167099 825.635803,231.451309 825.635803,236.735336 
	C826.153442,236.995911 826.671082,237.256485 827.188721,237.517059 
	C827.988159,236.358551 828.787537,235.200058 829.587402,233.132828 
M908.389221,214.315826 
	C903.718994,210.069733 901.169067,209.922333 894.859985,213.125504 
	C893.084167,212.178314 891.714478,211.447739 890.030212,210.549362 
	C890.030212,219.939270 890.030212,228.354965 890.030212,236.770660 
	C890.484009,237.023392 890.937805,237.276123 891.391602,237.528854 
	C892.177002,236.346298 893.549805,235.208221 893.643250,233.973297 
	C893.993958,229.340622 893.713928,224.659332 894.083008,220.029175 
	C894.383972,216.253952 897.086304,214.556519 900.658203,214.622894 
	C904.427246,214.692947 905.776611,217.192215 905.783691,220.639862 
	C905.794678,225.956696 905.786621,231.273560 905.786621,236.946716 
	C907.182861,236.859283 908.367737,236.785095 910.196106,236.670593 
	C909.710144,229.176117 909.250916,222.093979 908.389221,214.315826 
M735.381592,214.857697 
	C731.515076,210.902451 726.929993,209.580933 722.437622,212.067078 
	C720.436768,213.174408 718.215454,215.860703 718.139526,217.906281 
	C718.065186,219.906143 720.253235,222.415634 722.085815,223.929581 
	C723.622864,225.199432 726.231018,225.077042 728.085205,226.085434 
	C729.989746,227.121201 731.555115,228.780579 733.268921,230.167023 
	C730.927246,231.203888 728.639404,232.835388 726.223694,233.053757 
	C724.783020,233.184006 723.174500,231.045059 721.579346,230.023163 
	C720.476624,229.316757 719.267761,228.776031 717.061829,227.608459 
	C719.675415,237.037216 729.395203,239.820572 735.175354,234.371979 
	C739.062073,230.708099 738.070740,225.100327 733.081726,223.096710 
	C730.939514,222.236389 728.497192,222.030838 726.482971,220.972504 
	C724.747681,220.060669 723.426514,218.360611 721.922241,217.009079 
	C723.919434,216.217621 725.903381,214.871750 727.918396,214.823273 
	C729.338684,214.789124 730.772339,216.565964 732.256104,217.438889 
	C733.117798,217.945847 734.090271,218.264496 735.012878,218.667892 
	C735.256531,217.594727 735.500244,216.521561 735.381592,214.857697 
M696.301575,221.784851 
	C696.534241,217.291428 698.634399,214.357269 703.380005,214.663452 
	C708.614075,215.001160 708.234436,219.160934 708.236450,222.864029 
	C708.238953,227.486008 708.237061,232.107971 708.237061,236.834229 
	C709.792542,236.834229 710.906738,236.834229 712.214233,236.834229 
	C712.214233,230.820877 712.363586,225.006622 712.174744,219.203384 
	C711.960876,212.631500 706.404907,209.215118 700.302063,211.747742 
	C698.948730,212.309372 697.702637,213.129471 697.283203,213.356461 
	C695.575195,212.251541 694.318298,211.438446 692.446411,210.227539 
	C692.446411,219.852219 692.446411,228.282104 692.446411,236.841187 
	C693.770264,236.841187 694.884705,236.841187 696.225525,236.841187 
	C696.225525,232.003067 696.225525,227.360931 696.301575,221.784851 
M781.966248,229.291962 
	C785.158630,236.179382 791.358704,238.778656 797.753174,235.910324 
	C803.767395,233.212570 806.322998,224.121933 803.003601,217.233383 
	C800.320984,211.666046 793.576355,209.414108 787.679871,212.116989 
	C782.337830,214.565720 780.391846,219.958817 781.966248,229.291962 
M861.889893,227.566193 
	C863.679688,230.225662 864.955627,233.566650 867.375122,235.391052 
	C871.393921,238.421417 877.543091,237.302078 881.145813,233.858643 
	C884.945801,230.226608 885.865234,221.711517 883.008789,216.606140 
	C880.657776,212.404343 875.415833,210.122421 870.643494,211.223221 
	C865.006470,212.523499 861.926392,216.472046 861.679749,222.791199 
	C861.628113,224.114548 861.737488,225.444168 861.889893,227.566193 
M760.876465,223.469849 
	C760.876465,216.380890 760.876465,209.291931 760.876465,202.166565 
	C759.210999,202.166565 758.083313,202.166565 756.856384,202.166565 
	C756.856384,213.768433 756.856384,225.189987 756.856384,236.735352 
	C763.909180,236.735352 770.788757,236.735352 777.837524,236.735352 
	C777.775391,235.485107 777.795654,233.692383 777.670044,233.682098 
	C772.144958,233.230072 766.607056,232.935425 760.876465,232.610886 
	C760.876465,229.737717 760.876465,227.099121 760.876465,223.469849 
M744.238159,216.728638 
	C745.595764,216.808868 746.953369,216.889084 748.367432,216.972641 
	C748.367432,215.032410 748.367432,213.634705 748.367432,211.906296 
	C746.757385,212.033356 745.413086,212.139435 743.965759,212.253647 
	C743.965759,213.759888 743.965759,214.885620 744.238159,216.728638 
M748.096680,236.795059 
	C748.280273,235.286362 748.463867,233.777679 748.668640,232.095337 
	C746.827759,232.095337 745.561462,232.095337 744.103821,232.095337 
	C744.001892,234.675949 742.749573,237.712036 748.096680,236.795059 
z"/>
<path fill="#070707" opacity="1.000000" stroke="none" 
	d="
M205.543518,103.522324 
	C205.233673,108.033394 205.233673,112.189903 205.233673,116.675743 
	C203.830597,116.795128 202.608749,116.899094 201.098358,117.027611 
	C201.098358,105.339294 201.098358,93.927933 201.098358,82.156265 
	C206.529922,82.156265 211.998276,81.823105 217.407639,82.245522 
	C223.383698,82.712196 226.633820,86.431320 226.793808,91.947807 
	C226.958817,97.637154 223.734543,101.777641 217.812439,102.640991 
	C213.883972,103.213707 209.843643,103.018951 205.543518,103.522324 
M213.317032,86.001076 
	C210.718414,86.001076 208.119797,86.001076 205.406403,86.001076 
	C205.406403,90.554260 205.406403,94.598961 205.406403,98.998802 
	C208.440445,98.998802 211.224518,99.020721 214.008133,98.994286 
	C219.990784,98.937469 222.382751,96.993591 222.320587,92.279190 
	C222.261627,87.806793 220.120712,86.144096 213.317032,86.001076 
z"/>
<path fill="#131313" opacity="1.000000" stroke="none" 
	d="
M239.387939,105.036705 
	C237.778473,105.036713 236.620087,105.036713 235.297379,105.036713 
	C235.186111,108.951889 236.588547,111.749077 240.192245,112.959549 
	C243.793137,114.169098 246.583725,113.021088 248.733475,109.741310 
	C249.360229,108.785110 251.119003,108.570892 252.942337,107.755730 
	C251.537048,114.697357 246.849365,117.857201 240.752884,116.918114 
	C233.661697,115.825806 229.975037,109.946022 231.076462,101.485397 
	C231.943039,94.828964 237.173355,90.379395 243.391296,91.008873 
	C250.075104,91.685516 253.682877,96.673424 253.158798,105.036697 
	C248.748795,105.036697 244.293915,105.036697 239.387939,105.036705 
M247.833359,101.566109 
	C247.804306,99.968895 248.297470,97.278580 247.652573,96.970482 
	C245.307922,95.850357 242.367172,94.623230 240.064026,95.171265 
	C237.972275,95.669006 236.417984,98.425392 234.346786,100.461250 
	C235.933487,101.272514 236.217392,101.542076 236.504471,101.545509 
	C239.989761,101.587273 243.475510,101.589844 247.833359,101.566109 
z"/>
<path fill="#1B1B1B" opacity="1.000000" stroke="none" 
	d="
M341.641174,113.551575 
	C341.636353,108.934593 341.666748,104.771324 341.615753,100.609047 
	C341.573853,97.186798 340.222107,94.655937 336.426239,94.632820 
	C332.845703,94.611000 330.192474,96.317497 329.921967,100.126579 
	C329.592438,104.767776 329.839813,109.451096 329.477112,114.087997 
	C329.383453,115.285240 327.940399,116.376953 327.117188,117.517143 
	C326.625153,117.248482 326.133148,116.979820 325.641113,116.711159 
	C325.641113,112.415779 325.641113,108.120407 325.641113,103.825027 
	C325.641113,99.677238 325.641113,95.529442 325.641113,90.197861 
	C327.720917,91.483749 329.099426,92.336044 330.618011,93.274933 
	C331.582855,92.793488 332.863953,91.973747 334.261200,91.488464 
	C340.086273,89.465370 345.221375,92.741318 345.505951,98.924004 
	C345.773132,104.728088 345.563232,110.554131 345.563232,116.537064 
	C342.826569,117.597130 341.321991,117.231644 341.641174,113.551575 
z"/>
<path fill="#1B1B1B" opacity="1.000000" stroke="none" 
	d="
M142.935089,95.818077 
	C141.795181,99.356461 140.688599,102.602089 140.305969,105.930946 
	C139.910400,109.372330 140.217987,112.894539 140.217987,116.574577 
	C137.674271,117.479523 136.144958,117.444145 136.199783,114.079269 
	C136.321487,106.610985 136.237732,99.139351 136.237732,90.081619 
	C138.387924,91.585808 139.675018,92.486206 141.095093,93.479630 
	C141.912033,93.039932 143.158539,92.200302 144.524033,91.663139 
	C150.672363,89.244438 156.003052,92.753677 156.185028,99.450020 
	C156.338409,105.093636 156.216614,110.744736 156.216614,116.569069 
	C153.637436,117.522148 152.089127,117.407669 152.205048,114.067345 
	C152.343338,110.082565 152.273056,106.088882 152.228455,102.099785 
	C152.150436,95.124374 150.007538,93.574379 142.935089,95.818077 
z"/>
<path fill="#151515" opacity="1.000000" stroke="none" 
	d="
M277.953918,110.067291 
	C280.332245,113.780411 283.577789,114.000122 286.906189,112.835640 
	C288.063416,112.430779 289.468628,110.852036 289.523529,109.747925 
	C289.571320,108.786415 288.061188,107.314392 286.914429,106.816437 
	C284.506744,105.770950 281.522339,105.744308 279.451385,104.317314 
	C277.264038,102.810120 274.809265,100.353928 274.371063,97.963959 
	C273.740173,94.523270 276.639709,92.431786 279.988586,91.454094 
	C285.689850,89.789635 290.594330,92.110199 293.266052,99.093834 
	C291.052856,98.263405 289.752594,97.889114 288.558228,97.300125 
	C286.868561,96.466896 285.257782,94.747917 283.612000,94.746323 
	C281.800110,94.744560 279.986725,96.259102 278.174011,97.113075 
	C279.565216,98.407707 280.763184,100.091629 282.394989,100.901443 
	C284.584869,101.988205 287.409607,101.938225 289.404205,103.234337 
	C291.275940,104.450592 293.428436,106.690865 293.608643,108.650543 
	C293.794098,110.667900 292.271912,113.546509 290.579285,114.904808 
	C284.689667,119.631180 276.381348,116.867798 273.207733,108.137047 
	C275.336700,108.858215 276.576447,109.278160 277.953918,110.067291 
z"/>
<path fill="#131313" opacity="1.000000" stroke="none" 
	d="
M298.383423,98.484406 
	C301.936920,91.531296 308.604370,89.135300 314.671936,92.328354 
	C320.234406,95.255608 322.487549,104.341179 319.275726,110.893044 
	C316.606018,116.339172 309.597321,118.597939 303.858459,115.861740 
	C298.543732,113.327774 296.705536,107.759911 298.383423,98.484406 
M311.050690,94.877327 
	C306.873260,93.912605 303.886017,95.448097 302.304840,99.363533 
	C300.514069,103.798103 301.903870,109.991013 304.967346,112.136894 
	C308.434296,114.565384 313.158813,113.539070 315.260773,109.900826 
	C318.051544,105.070366 316.526093,98.409019 311.050690,94.877327 
z"/>
<path fill="#151515" opacity="1.000000" stroke="none" 
	d="
M162.119446,98.042511 
	C163.085342,92.575630 166.808182,91.028725 171.274063,91.029282 
	C175.673340,91.029823 179.522903,92.375618 181.104568,99.049774 
	C178.969833,98.127762 177.673431,97.572044 176.380493,97.008415 
	C174.505005,96.190834 172.627121,94.729233 170.759476,94.743576 
	C169.194580,94.755592 167.642899,96.488068 166.085373,97.458755 
	C167.297195,98.598404 168.326797,100.149139 169.761826,100.785271 
	C172.158920,101.847870 174.888428,102.136879 177.346878,103.089821 
	C182.241165,104.986961 183.853287,110.812241 179.747284,113.739868 
	C176.861465,115.797501 172.490051,116.498940 168.787033,116.484833 
	C164.838303,116.469780 162.416214,113.471519 161.400558,107.614761 
	C163.613998,108.797020 164.772446,109.432236 165.945679,110.038910 
	C168.153275,111.180450 170.306808,112.991386 172.603516,113.200890 
	C174.184799,113.345131 175.969376,111.260437 177.663101,110.171936 
	C176.268814,108.841438 175.097427,106.976692 173.437042,106.284004 
	C169.052368,104.454750 163.134186,105.069832 162.119446,98.042511 
z"/>
<path fill="#1B1B1B" opacity="1.000000" stroke="none" 
	d="
M263.687775,92.998169 
	C266.508820,92.183197 268.935699,91.521423 271.362610,90.859642 
	C271.660980,91.514961 271.959320,92.170280 272.257690,92.825607 
	C271.334747,93.509995 270.308044,94.886436 269.505737,94.766159 
	C264.396698,94.000237 263.445892,97.417076 263.236572,101.051155 
	C262.942749,106.152061 263.162323,111.282547 263.162323,116.554588 
	C260.242371,117.533295 258.990021,117.029655 259.040558,113.920074 
	C259.161591,106.474442 259.079681,99.025497 259.079681,89.890724 
	C261.110260,91.461914 262.201935,92.306641 263.687775,92.998169 
z"/>
<path fill="#212121" opacity="1.000000" stroke="none" 
	d="
M188.587708,116.522095 
	C187.742035,112.852753 188.647049,111.056427 192.616287,112.283546 
	C193.321060,115.431274 193.449326,117.976105 188.587708,116.522095 
z"/>
<path fill="#212121" opacity="1.000000" stroke="none" 
	d="
M192.894135,95.795700 
	C191.539719,96.566505 190.220627,96.906693 188.473557,97.357262 
	C188.384277,95.356590 188.321930,93.959496 188.248642,92.317245 
	C191.135437,91.703850 193.442642,91.332001 192.894135,95.795700 
z"/>
<path fill="#010101" opacity="1.000000" stroke="none" 
	d="
M269.000000,245.000107 
	C229.170181,245.000107 189.840347,245.002823 150.510529,244.993271 
	C148.167725,244.992706 145.069992,245.735153 146.604950,240.999878 
	C147.832916,240.999878 149.132034,240.999908 150.431168,240.999908 
	C210.592468,240.999908 270.753784,240.990784 330.915039,241.036072 
	C333.123810,241.037735 336.793976,239.736496 335.384949,245.000107 
	C313.426666,245.000107 291.463348,245.000107 269.000000,245.000107 
z"/>
<path fill="#2A2A2A" opacity="1.000000" stroke="none" 
	d="
M241.718506,228.528961 
	C242.214447,232.266907 244.545715,234.051041 247.308212,233.118683 
	C249.555069,232.360336 252.431503,230.050827 252.848343,227.988495 
	C253.754135,223.507050 253.422531,218.739777 253.295547,214.097595 
	C253.207260,210.869858 254.593933,210.374390 257.438812,211.330322 
	C257.438812,219.701782 257.438812,228.127060 257.438812,237.495834 
	C255.423157,236.551086 253.891205,235.833038 252.209473,235.044800 
	C250.963333,235.573074 249.495026,236.424103 247.912674,236.824402 
	C242.713623,238.139694 238.012177,234.999908 237.700989,229.605515 
	C237.358002,223.659698 237.622726,217.678802 237.622726,211.281082 
	C238.733307,211.175171 239.933548,211.060715 241.671387,210.894989 
	C241.671387,216.848343 241.671387,222.462051 241.718506,228.528961 
z"/>
<path fill="#1B1B1B" opacity="1.000000" stroke="none" 
	d="
M155.462372,212.867340 
	C164.368286,208.735291 169.512955,211.935165 169.579330,221.226715 
	C169.613831,226.057800 169.566498,230.889572 169.534241,235.720886 
	C169.532135,236.036636 169.342239,236.351135 169.181625,236.844666 
	C168.124084,236.844666 167.011154,236.844666 165.640198,236.844666 
	C165.640198,231.665207 165.629959,226.677490 165.643616,221.689865 
	C165.653534,218.063339 164.989014,214.898911 160.501602,214.600296 
	C156.584900,214.339630 154.055359,216.828644 153.763977,221.546661 
	C153.507645,225.696915 153.805038,229.884293 153.479462,234.025528 
	C153.384109,235.238510 151.995178,236.349808 151.199142,237.507706 
	C150.751053,237.249832 150.302963,236.991943 149.854874,236.734070 
	C149.854874,228.292480 149.854874,219.850891 149.854874,210.560852 
	C151.833954,211.519409 153.460602,212.307281 155.462372,212.867340 
z"/>
<path fill="#1B1B1B" opacity="1.000000" stroke="none" 
	d="
M312.258118,212.597748 
	C315.212708,210.789337 315.212708,210.789337 316.586609,213.733185 
	C318.040344,212.968506 319.426239,212.010208 320.959686,211.473297 
	C326.707123,209.460876 331.930450,212.858597 332.159912,218.928970 
	C332.379364,224.734299 332.207245,230.554398 332.207245,236.587585 
	C329.722504,237.421692 328.091125,237.496109 328.202911,234.093399 
	C328.344727,229.776443 328.195496,225.450745 328.245117,221.129654 
	C328.286255,217.549438 327.266418,214.727692 323.139801,214.636230 
	C319.255280,214.550125 316.684998,216.611282 316.492188,220.548920 
	C316.232727,225.847061 316.427826,231.167450 316.427826,236.480682 
	C313.494537,237.612427 312.141754,237.192856 312.199249,233.981903 
	C312.324219,227.002945 312.239807,220.020233 312.258118,212.597748 
z"/>
<path fill="#171717" opacity="1.000000" stroke="none" 
	d="
M275.429260,236.838257 
	C267.331512,237.108231 264.936249,235.630585 263.567841,228.261169 
	C264.780701,228.947433 266.008575,229.608627 267.202728,230.326035 
	C268.834076,231.306152 270.508575,233.237183 272.040253,233.121033 
	C274.346832,232.946121 277.904755,231.861923 278.506836,230.255707 
	C279.748291,226.943771 276.069641,226.796875 273.843719,226.039917 
	C271.497314,225.241989 268.972504,224.817795 266.795929,223.702713 
	C262.269562,221.383835 262.117432,215.559326 266.323730,212.668839 
	C271.825104,208.888336 279.267853,211.158951 281.415161,218.704620 
	C280.127075,218.135666 278.841705,217.560455 277.550293,216.999283 
	C275.672058,216.183136 273.781982,214.741287 271.911041,214.763306 
	C270.349976,214.781662 268.809174,216.520660 267.259399,217.497620 
	C268.485443,218.625259 269.545013,220.090912 270.978668,220.797134 
	C272.877777,221.732651 275.056244,222.125854 277.138336,222.659668 
	C280.499725,223.521469 283.575653,225.395325 282.794250,228.985840 
	C282.224640,231.603333 279.532898,233.785416 277.678955,236.073929 
	C277.323364,236.512878 276.463959,236.543640 275.429260,236.838257 
z"/>
<path fill="#171717" opacity="1.000000" stroke="none" 
	d="
M189.200867,227.136414 
	C185.641754,225.986038 182.377075,225.252014 179.363266,223.941193 
	C174.740555,221.930603 173.919449,216.726974 177.449112,213.371490 
	C182.555405,208.517059 191.614899,210.952560 194.234818,219.384262 
	C192.041183,218.308731 190.823181,217.720825 189.613525,217.116226 
	C187.920303,216.269913 186.204758,214.688202 184.551331,214.753418 
	C182.763962,214.823914 181.037064,216.427689 179.283798,217.362671 
	C180.618927,218.556915 181.778076,220.125229 183.331284,220.855927 
	C185.549469,221.899506 188.121429,222.161621 190.426514,223.055908 
	C195.728043,225.112717 196.687103,230.925034 192.429230,234.585663 
	C186.505814,239.678192 177.352402,236.993927 175.583923,228.256683 
	C176.793533,228.947601 178.398315,229.353638 179.139771,230.382080 
	C181.501007,233.657349 184.627060,234.036926 187.966721,232.892242 
	C190.718140,231.949173 192.167038,230.067535 189.200867,227.136414 
z"/>
<path fill="#212121" opacity="1.000000" stroke="none" 
	d="
M225.678253,230.050171 
	C225.818695,220.661392 225.818695,211.685318 225.818695,202.259903 
	C227.577820,202.175095 228.907852,202.110977 230.218018,202.047821 
	C230.218018,211.439850 230.525635,220.419418 230.097824,229.363831 
	C229.857422,234.389954 225.845978,237.173782 220.741364,237.057037 
	C215.991257,236.948410 212.534317,234.195862 212.145355,229.710693 
	C212.034698,228.434769 213.250122,227.043839 214.409622,224.488892 
	C217.943298,234.004013 220.447235,235.008179 225.678253,230.050171 
z"/>
<path fill="#191919" opacity="1.000000" stroke="none" 
	d="
M293.275146,210.368423 
	C294.706177,211.379898 295.952759,212.016541 297.199341,212.653198 
	C295.961456,213.632645 294.723572,214.612091 293.040527,215.943771 
	C294.153961,222.456207 289.598083,230.762161 298.789124,236.214050 
	C291.033203,237.745209 289.151917,236.261826 289.091187,229.616760 
	C289.056244,225.793747 289.252441,221.958572 288.990204,218.153290 
	C288.902069,216.874725 287.737579,215.661285 287.029388,214.438736 
	C286.728302,213.918915 285.957581,213.108688 286.043152,213.014481 
	C286.885895,212.086884 288.262573,211.449249 288.702118,210.400192 
	C289.242401,209.110641 288.663025,207.328934 289.258148,206.092255 
	C289.781860,205.003891 291.256653,204.373199 293.090698,202.925125 
	C293.090698,206.040085 293.090698,208.016830 293.275146,210.368423 
z"/>
<path fill="#212121" opacity="1.000000" stroke="none" 
	d="
M301.622589,218.160370 
	C301.622620,215.691681 301.622620,213.699448 301.622620,211.640686 
	C304.201904,210.387115 305.670868,210.537338 305.635559,213.855408 
	C305.555908,221.336716 305.610535,228.819458 305.610535,236.704620 
	C304.244385,236.793427 303.067383,236.869934 301.622559,236.963852 
	C301.622559,230.606461 301.622559,224.621628 301.622589,218.160370 
z"/>
<path fill="#212121" opacity="1.000000" stroke="none" 
	d="
M205.367508,216.874924 
	C200.685593,217.722366 201.092072,215.152847 201.735382,212.162720 
	C203.022308,212.162720 204.263031,212.162720 206.067200,212.162720 
	C205.953873,213.722321 205.843857,215.236649 205.367508,216.874924 
z"/>
<path fill="#212121" opacity="1.000000" stroke="none" 
	d="
M203.844696,237.058716 
	C202.574280,235.657196 201.698029,234.254471 200.367554,232.124603 
	C203.082733,232.124603 204.334885,232.124603 206.828186,232.124603 
	C205.784912,234.112137 205.011887,235.584808 203.844696,237.058716 
z"/>
<path fill="#151515" opacity="1.000000" stroke="none" 
	d="
M794.624634,95.672562 
	C797.369324,84.805397 805.928101,79.359161 815.173401,82.996986 
	C818.688354,84.380066 821.422913,87.746696 825.404724,90.919724 
	C822.527283,92.011894 821.349854,92.458809 820.242249,92.879219 
	C815.902344,86.299965 812.364563,84.611824 806.633911,86.204552 
	C801.717102,87.571091 798.824463,92.411217 798.794983,99.321007 
	C798.757874,108.024956 802.712158,112.977890 809.746887,113.140244 
	C813.958313,113.237442 817.011475,111.586830 819.229858,107.905144 
	C819.982361,106.656403 821.788879,106.042809 823.453247,105.636589 
	C822.525024,112.518326 818.854736,115.934761 812.546082,116.902336 
	C806.188354,117.877457 799.465942,115.413338 797.247131,110.005379 
	C795.487549,105.716591 795.386841,100.747200 794.624634,95.672562 
z"/>
<path fill="#151515" opacity="1.000000" stroke="none" 
	d="
M768.136963,101.928215 
	C769.935364,102.482056 771.424438,102.814316 772.742249,103.483894 
	C777.540527,105.921799 777.559631,112.177200 772.833618,115.250305 
	C766.603760,119.301323 759.015747,116.786621 755.505615,107.966057 
	C757.890930,108.980179 759.231567,109.381065 760.388489,110.084244 
	C761.880432,110.991119 763.287781,113.072647 764.620117,112.983452 
	C767.121704,112.815979 771.019470,112.077065 771.700745,110.463104 
	C773.276855,106.729248 769.190613,106.833771 766.892456,106.004005 
	C764.710876,105.216354 762.357605,104.807472 760.303040,103.784027 
	C755.727356,101.504730 755.414001,95.721458 759.553711,92.753738 
	C764.968445,88.871956 772.577393,91.118805 775.792175,98.905548 
	C773.596863,98.207573 772.242798,97.976616 771.099854,97.356415 
	C770.001038,96.760124 769.026001,94.980957 768.162598,95.086014 
	C765.642639,95.392632 761.578369,95.791702 761.061218,97.219879 
	C759.830139,100.619186 763.689148,100.430145 765.855103,101.234360 
	C766.478149,101.465691 767.117249,101.653603 768.136963,101.928215 
z"/>
<path fill="#191919" opacity="1.000000" stroke="none" 
	d="
M857.911621,97.912079 
	C859.372925,102.184357 860.721680,106.082329 862.070374,109.980301 
	C862.420288,110.029396 862.770203,110.078491 863.120117,110.127579 
	C864.393738,106.480919 865.287964,102.636246 867.056458,99.247856 
	C868.575378,96.337524 867.133179,90.728271 873.820251,91.070023 
	C869.910461,101.630905 866.305115,111.769142 862.331055,121.760704 
	C861.553528,123.715584 859.623474,125.643852 857.728271,126.611748 
	C855.425232,127.787933 853.021423,127.289932 853.170898,123.703461 
	C860.417908,121.678993 861.554688,119.488350 859.004883,112.427521 
	C856.518494,105.542412 854.016174,98.663017 851.390320,91.421104 
	C857.447510,89.648529 856.189941,95.124313 857.911621,97.912079 
z"/>
<path fill="#1B1B1B" opacity="1.000000" stroke="none" 
	d="
M734.688965,91.907791 
	C735.464844,92.517555 736.379517,93.120735 736.858826,92.874931 
	C745.391418,88.499916 751.002502,91.748665 751.048645,101.189545 
	C751.073059,106.183426 751.052979,111.177521 751.052979,116.403015 
	C748.643738,117.462837 746.992249,117.659714 747.058105,114.165436 
	C747.142883,109.669174 747.045471,105.169785 747.077942,100.672119 
	C747.103088,97.182671 745.791870,94.738960 742.004761,94.637405 
	C738.378906,94.540176 735.650757,96.309654 735.419434,100.039955 
	C735.081665,105.488380 735.332642,110.973312 735.332642,116.442680 
	C734.833557,116.775108 734.334473,117.107544 733.835327,117.439972 
	C732.917053,116.405640 731.234497,115.394157 731.202820,114.333313 
	C730.974304,106.692429 731.080383,99.041527 731.080383,90.945549 
	C732.502563,91.170433 733.563904,91.338249 734.688965,91.907791 
z"/>
<path fill="#191919" opacity="1.000000" stroke="none" 
	d="
M841.084229,103.031570 
	C840.405396,99.555840 843.023193,95.486153 838.233582,93.808044 
	C838.063660,93.748489 837.890808,93.109894 838.007568,92.907333 
	C839.822144,89.759331 841.684387,86.638832 843.535645,83.511978 
	C843.960754,83.649857 844.385864,83.787727 844.810974,83.925606 
	C844.927979,85.958107 845.044983,87.990616 845.151245,89.837776 
	C846.540466,90.871414 847.867310,91.858673 849.194153,92.845947 
	C848.020020,93.693771 846.845825,94.541588 845.047668,95.839966 
	C845.047668,99.178970 846.006897,103.596481 844.818726,107.330711 
	C843.114014,112.688225 850.392151,112.334610 849.610352,116.524292 
	C842.832092,117.596489 841.150940,116.203148 841.087524,109.489349 
	C841.068726,107.497749 841.084412,105.505821 841.084229,103.031570 
z"/>
<path fill="#212121" opacity="1.000000" stroke="none" 
	d="
M831.121521,90.956573 
	C832.242249,91.948219 833.496643,92.940781 833.519958,93.961456 
	C833.689453,101.386391 833.611145,108.817001 833.611145,116.665504 
	C832.282166,116.786690 831.106995,116.893852 829.644775,117.027191 
	C829.644775,108.583534 829.626953,100.497177 829.689331,92.411430 
	C829.693054,91.928581 830.338379,91.450699 831.121521,90.956573 
z"/>
<path fill="#000000" opacity="1.000000" stroke="none" 
	d="
M870.000000,244.998505 
	C809.538086,244.998505 749.576172,244.998505 689.226501,244.998505 
	C689.142700,243.694901 689.067688,242.528580 688.980286,241.169678 
	C763.769043,241.169678 838.180908,241.169678 912.827820,241.169678 
	C912.827820,242.372299 912.827820,243.446045 912.827820,244.998505 
	C898.737183,244.998505 884.618591,244.998505 870.000000,244.998505 
z"/>
<path fill="#191919" opacity="1.000000" stroke="none" 
	d="
M838.247192,233.797974 
	C836.977783,229.464783 835.218689,225.422409 835.118530,221.339325 
	C834.942749,214.170639 843.085266,207.032761 851.337097,213.623169 
	C854.122742,210.314194 849.114380,204.188477 855.761902,201.152603 
	C855.761902,213.570404 855.761902,224.974533 855.761902,237.164764 
	C850.341248,233.429901 843.544373,240.335327 838.247192,233.797974 
M848.744995,215.338669 
	C844.440369,213.729080 841.189575,214.741867 839.525146,219.238846 
	C837.617004,224.394608 839.324280,230.923767 842.939697,232.736664 
	C846.419800,234.481705 850.654358,232.860245 851.739502,228.884613 
	C852.988953,224.306793 853.350952,219.625259 848.744995,215.338669 
z"/>
<path fill="#1B1B1B" opacity="1.000000" stroke="none" 
	d="
M829.587158,233.587189 
	C828.787537,235.200058 827.988159,236.358551 827.188721,237.517059 
	C826.671082,237.256485 826.153442,236.995911 825.635803,236.735336 
	C825.635803,231.451309 825.663208,226.167099 825.625854,220.883347 
	C825.602356,217.557693 824.564148,214.805084 820.697083,214.656647 
	C816.865479,214.509583 814.097473,216.297699 813.902283,220.348846 
	C813.646790,225.651672 813.839661,230.976120 813.839661,236.681808 
	C812.234131,236.780960 811.062927,236.853302 809.754883,236.934082 
	C809.754883,228.249466 809.754883,219.936172 809.754883,210.606888 
	C811.543945,211.435989 812.924866,212.075943 814.997498,213.036423 
	C815.533081,212.780350 816.941772,211.910217 818.471436,211.410736 
	C824.076172,209.580627 829.116821,212.791260 829.481262,218.651276 
	C829.780396,223.462067 829.571289,228.304443 829.587158,233.587189 
z"/>
<path fill="#171717" opacity="1.000000" stroke="none" 
	d="
M908.590454,214.663849 
	C909.250916,222.093979 909.710144,229.176117 910.196106,236.670593 
	C908.367737,236.785095 907.182861,236.859283 905.786621,236.946716 
	C905.786621,231.273560 905.794678,225.956696 905.783691,220.639862 
	C905.776611,217.192215 904.427246,214.692947 900.658203,214.622894 
	C897.086304,214.556519 894.383972,216.253952 894.083008,220.029175 
	C893.713928,224.659332 893.993958,229.340622 893.643250,233.973297 
	C893.549805,235.208221 892.177002,236.346298 891.391602,237.528854 
	C890.937805,237.276123 890.484009,237.023392 890.030212,236.770660 
	C890.030212,228.354965 890.030212,219.939270 890.030212,210.549362 
	C891.714478,211.447739 893.084167,212.178314 894.859985,213.125504 
	C901.169067,209.922333 903.718994,210.069733 908.590454,214.663849 
z"/>
<path fill="#171717" opacity="1.000000" stroke="none" 
	d="
M735.562744,215.153046 
	C735.500244,216.521561 735.256531,217.594727 735.012878,218.667892 
	C734.090271,218.264496 733.117798,217.945847 732.256104,217.438889 
	C730.772339,216.565964 729.338684,214.789124 727.918396,214.823273 
	C725.903381,214.871750 723.919434,216.217621 721.922241,217.009079 
	C723.426514,218.360611 724.747681,220.060669 726.482971,220.972504 
	C728.497192,222.030838 730.939514,222.236389 733.081726,223.096710 
	C738.070740,225.100327 739.062073,230.708099 735.175354,234.371979 
	C729.395203,239.820572 719.675415,237.037216 717.061829,227.608459 
	C719.267761,228.776031 720.476624,229.316757 721.579346,230.023163 
	C723.174500,231.045059 724.783020,233.184006 726.223694,233.053757 
	C728.639404,232.835388 730.927246,231.203888 733.268921,230.167038 
	C731.555115,228.780579 729.989746,227.121201 728.085205,226.085434 
	C726.231018,225.077042 723.622864,225.199432 722.085815,223.929581 
	C720.253235,222.415634 718.065186,219.906143 718.139526,217.906281 
	C718.215454,215.860703 720.436768,213.174408 722.437622,212.067078 
	C726.929993,209.580933 731.515076,210.902451 735.562744,215.153046 
z"/>
<path fill="#1B1B1B" opacity="1.000000" stroke="none" 
	d="
M696.263550,222.251831 
	C696.225525,227.360931 696.225525,232.003067 696.225525,236.841187 
	C694.884705,236.841187 693.770264,236.841187 692.446411,236.841187 
	C692.446411,228.282104 692.446411,219.852219 692.446411,210.227539 
	C694.318298,211.438446 695.575195,212.251541 697.283203,213.356461 
	C697.702637,213.129471 698.948730,212.309372 700.302063,211.747742 
	C706.404907,209.215118 711.960876,212.631500 712.174744,219.203384 
	C712.363586,225.006622 712.214233,230.820877 712.214233,236.834229 
	C710.906738,236.834229 709.792542,236.834229 708.237061,236.834229 
	C708.237061,232.107971 708.238953,227.486008 708.236450,222.864029 
	C708.234436,219.160934 708.614075,215.001160 703.380005,214.663452 
	C698.634399,214.357269 696.534241,217.291428 696.263550,222.251831 
z"/>
<path fill="#151515" opacity="1.000000" stroke="none" 
	d="
M781.865295,228.901505 
	C780.391846,219.958817 782.337830,214.565720 787.679871,212.116989 
	C793.576355,209.414108 800.320984,211.666046 803.003601,217.233383 
	C806.322998,224.121933 803.767395,233.212570 797.753174,235.910324 
	C791.358704,238.778656 785.158630,236.179382 781.865295,228.901505 
M785.310730,223.601089 
	C785.291992,227.401337 785.796875,231.270844 789.820740,232.661896 
	C791.863647,233.368118 794.789368,233.005493 796.783691,232.033676 
	C800.112976,230.411301 801.748291,223.562210 799.360291,219.509842 
	C798.028748,217.250351 794.756470,214.973511 792.234436,214.825684 
	C787.436523,214.544495 785.657166,218.400650 785.310730,223.601089 
z"/>
<path fill="#131313" opacity="1.000000" stroke="none" 
	d="
M861.831299,227.168549 
	C861.737488,225.444168 861.628113,224.114548 861.679749,222.791199 
	C861.926392,216.472046 865.006470,212.523499 870.643494,211.223221 
	C875.415833,210.122421 880.657776,212.404343 883.008789,216.606140 
	C885.865234,221.711517 884.945801,230.226608 881.145813,233.858643 
	C877.543091,237.302078 871.393921,238.421417 867.375122,235.391052 
	C864.955627,233.566650 863.679688,230.225662 861.831299,227.168549 
M876.639526,215.425903 
	C872.605408,213.782257 869.141907,214.333817 866.818359,218.294510 
	C864.582397,222.106018 865.518250,229.227554 868.415588,231.713211 
	C872.093323,234.868423 877.959045,233.740738 879.537842,229.170029 
	C881.134277,224.548294 881.621399,219.736374 876.639526,215.425903 
z"/>
<path fill="#0C0C0C" opacity="1.000000" stroke="none" 
	d="
M760.876465,223.965179 
	C760.876465,227.099121 760.876465,229.737717 760.876465,232.610886 
	C766.607056,232.935425 772.144958,233.230072 777.670044,233.682098 
	C777.795654,233.692383 777.775391,235.485107 777.837524,236.735352 
	C770.788757,236.735352 763.909180,236.735352 756.856384,236.735352 
	C756.856384,225.189987 756.856384,213.768433 756.856384,202.166565 
	C758.083313,202.166565 759.210999,202.166565 760.876465,202.166565 
	C760.876465,209.291931 760.876465,216.380890 760.876465,223.965179 
z"/>
<path fill="#212121" opacity="1.000000" stroke="none" 
	d="
M744.101929,216.369995 
	C743.965759,214.885620 743.965759,213.759888 743.965759,212.253647 
	C745.413086,212.139435 746.757385,212.033356 748.367432,211.906296 
	C748.367432,213.634705 748.367432,215.032410 748.367432,216.972641 
	C746.953369,216.889084 745.595764,216.808868 744.101929,216.369995 
z"/>
<path fill="#212121" opacity="1.000000" stroke="none" 
	d="
M747.717102,236.916748 
	C742.749573,237.712036 744.001892,234.675949 744.103821,232.095337 
	C745.561462,232.095337 746.827759,232.095337 748.668640,232.095337 
	C748.463867,233.777679 748.280273,235.286362 747.717102,236.916748 
z"/>
<path fill="#F8F8F8" opacity="1.000000" stroke="none" 
	d="
M213.776978,86.001129 
	C220.120712,86.144096 222.261627,87.806793 222.320587,92.279190 
	C222.382751,96.993591 219.990784,98.937469 214.008133,98.994286 
	C211.224518,99.020721 208.440445,98.998802 205.406403,98.998802 
	C205.406403,94.598961 205.406403,90.554260 205.406403,86.001076 
	C208.119797,86.001076 210.718414,86.001076 213.776978,86.001129 
z"/>
<path fill="#E0E0E0" opacity="1.000000" stroke="none" 
	d="
M247.397247,101.584351 
	C243.475510,101.589844 239.989761,101.587273 236.504471,101.545509 
	C236.217392,101.542076 235.933487,101.272514 234.346786,100.461250 
	C236.417984,98.425392 237.972275,95.669006 240.064026,95.171265 
	C242.367172,94.623230 245.307922,95.850357 247.652573,96.970482 
	C248.297470,97.278580 247.804306,99.968895 247.397247,101.584351 
z"/>
<path fill="#F4F4F4" opacity="1.000000" stroke="none" 
	d="
M311.459045,94.980034 
	C316.526093,98.409019 318.051544,105.070366 315.260773,109.900826 
	C313.158813,113.539070 308.434296,114.565384 304.967346,112.136894 
	C301.903870,109.991013 300.514069,103.798103 302.304840,99.363533 
	C303.886017,95.448097 306.873260,93.912605 311.459045,94.980034 
z"/>
<path fill="#F8F8F8" opacity="1.000000" stroke="none" 
	d="
M849.072754,215.598648 
	C853.350952,219.625259 852.988953,224.306793 851.739502,228.884613 
	C850.654358,232.860245 846.419800,234.481705 842.939697,232.736664 
	C839.324280,230.923767 837.617004,224.394608 839.525146,219.238846 
	C841.189575,214.741867 844.440369,213.729080 849.072754,215.598648 
z"/>
<path fill="#F4F4F4" opacity="1.000000" stroke="none" 
	d="
M785.314331,223.203186 
	C785.657166,218.400650 787.436523,214.544495 792.234436,214.825684 
	C794.756470,214.973511 798.028748,217.250351 799.360291,219.509842 
	C801.748291,223.562210 800.112976,230.411301 796.783691,232.033676 
	C794.789368,233.005493 791.863647,233.368118 789.820740,232.661896 
	C785.796875,231.270844 785.291992,227.401337 785.314331,223.203186 
z"/>
<path fill="#F4F4F4" opacity="1.000000" stroke="none" 
	d="
M876.977539,215.676895 
	C881.621399,219.736374 881.134277,224.548294 879.537842,229.170029 
	C877.959045,233.740738 872.093323,234.868423 868.415588,231.713211 
	C865.518250,229.227554 864.582397,222.106018 866.818359,218.294510 
	C869.141907,214.333817 872.605408,213.782257 876.977539,215.676895 
z"/>
</svg>