<svg version="1.1" id="Layer_1" xmlns="http://www.w3.org/2000/svg" xmlns:xlink="http://www.w3.org/1999/xlink" x="0px" y="0px"
	 width="100%" viewBox="0 0 1964 1124" enable-background="new 0 0 1964 1124" xml:space="preserve">
<path fill="none" opacity="1.000000" stroke="#000000" stroke-linecap="round" stroke-linejoin="round" stroke-width="5.000000"
	d="
M291.500000,165.000000 
	C293.523254,162.545563 296.330719,163.004211 299.000000,163.004028 
	C371.666656,162.998978 444.333344,163.002487 517.000000,162.985809 
	C518.838196,162.985397 520.727417,163.335022 523.125000,162.233444 
	C523.125000,122.833336 523.125000,83.166664 523.125000,43.250000 
	C362.833344,43.250000 203.166672,43.250000 43.250000,43.250000 
	C43.250000,83.166664 43.250000,122.833336 43.250000,162.405746 
	C45.272572,163.335022 47.161766,162.985428 49.000004,162.985825 
	C126.000000,163.002350 203.000000,163.012604 279.999969,162.970917 
	C284.994843,162.968216 289.001068,163.896027 291.620209,168.937546 
	C293.829010,173.189301 298.567902,175.258286 302.000000,178.500000 
"/>
<path fill="none" opacity="1.000000" stroke="#000000" stroke-linecap="round" stroke-linejoin="round" stroke-width="5.000000"
	d="
M1392.500000,344.500000 
	C1401.253052,342.588776 1407.734131,336.592224 1415.003296,332.005310 
	C1445.662109,312.659485 1476.329712,293.327576 1507.000977,274.001465 
	C1549.330811,247.329193 1591.670776,220.673264 1633.997559,193.996094 
	C1647.179932,185.687714 1660.334229,177.334854 1673.498047,168.996826 
	C1674.513062,168.353897 1675.875366,167.892105 1676.434814,166.960815 
	C1678.825806,162.980927 1682.619629,162.995331 1686.500000,162.995621 
	C1763.333374,163.001511 1840.166626,163.002365 1917.000000,162.985825 
	C1918.838257,162.985428 1920.727417,163.335022 1922.750000,162.405746 
	C1922.750000,122.833336 1922.750000,83.166664 1922.750000,43.250000 
	C1762.833374,43.250000 1603.166626,43.250000 1443.000000,43.250000 
	C1443.000000,83.166664 1443.000000,122.833336 1443.000000,162.290878 
	C1445.272583,163.335022 1447.161743,162.985397 1449.000000,162.985809 
	C1523.000000,163.002441 1597.000000,162.999359 1671.000000,163.003082 
	C1673.214233,163.003189 1675.483398,162.691010 1677.500000,164.000000 
"/>
<path fill="none" opacity="1.000000" stroke="#000000" stroke-linecap="round" stroke-linejoin="round" stroke-width="5.000000"
	d="
M871.500000,642.000000 
	C869.483459,643.309021 867.214172,642.996765 865.000000,642.996887 
	C806.333313,643.000793 747.666687,642.996887 689.000000,643.014221 
	C687.161804,643.014771 685.272583,642.664978 683.250000,643.594238 
	C683.250000,683.166687 683.250000,722.833313 683.250000,763.125000 
	C843.166687,763.125000 1002.833313,763.125000 1163.000000,763.125000 
	C1163.000000,722.833313 1163.000000,683.166687 1163.000000,643.709106 
	C1160.727417,642.664978 1158.838257,643.014648 1157.000000,643.014160 
	C1088.666626,642.997314 1020.333313,643.001038 952.000000,642.995911 
	C949.330750,642.995728 946.523254,643.454407 944.500000,641.000000 
"/>
<path fill="none" opacity="1.000000" stroke="#000000" stroke-linecap="round" stroke-linejoin="round" stroke-width="5.000000"
	d="
M1323.000000,1015.000000 
	C1323.000000,904.499756 1323.000000,793.999512 1323.000000,683.000000 
	C1269.667725,683.000000 1216.833862,683.000000 1164.000000,683.000000 
"/>
<path fill="none" opacity="1.000000" stroke="#000000" stroke-linecap="round" stroke-linejoin="round" stroke-width="5.000000"
	d="
M923.000000,764.000000 
	C923.000000,856.833618 923.000000,949.667236 923.000000,1043.000000 
	C948.664429,1043.000000 973.832214,1043.000000 999.000000,1043.000000 
"/>
<path fill="none" opacity="1.000000" stroke="#000000" stroke-linecap="round" stroke-linejoin="round" stroke-width="4.000000"
	d="
M1302.500000,405.500000 
	C1295.411377,406.322662 1290.212158,411.067627 1284.559692,414.595612 
	C1253.101929,434.229645 1221.837524,454.173279 1190.499023,473.998566 
	C1148.336426,500.671478 1106.189941,527.370178 1063.992798,553.988525 
	C1029.028076,576.044495 993.996216,597.993958 959.006775,620.010742 
	C955.956177,621.930237 953.000000,623.999939 950.000000,625.999939 
"/>
<path fill="none" opacity="1.000000" stroke="#000000" stroke-linecap="round" stroke-linejoin="round" stroke-width="5.000000"
	d="
M1442.000000,103.000000 
	C1318.333374,103.000000 1194.666626,103.000000 1071.000000,103.000000 
"/>
<path fill="none" opacity="1.000000" stroke="#000000" stroke-linecap="round" stroke-linejoin="round" stroke-width="4.000000"
	d="
M309.500000,184.000000 
	C320.333344,193.000000 331.083160,202.102798 342.014648,210.981949 
	C385.979248,246.692230 430.002716,282.329987 473.999054,318.001160 
	C504.003998,342.328400 533.999756,366.667023 564.000366,390.999542 
	C567.497742,393.836151 571.041260,396.617615 574.486755,399.515717 
	C577.177734,401.779083 580.020874,403.695709 583.500000,404.500000 
"/>
<path fill="none" opacity="1.000000" stroke="#000000" stroke-linecap="round" stroke-linejoin="round" stroke-width="5.000000"
	d="
M783.000000,103.000000 
	C696.666687,103.000000 610.333313,103.000000 524.000000,103.000000 
"/>
<path fill="none" opacity="1.000000" stroke="#000000" stroke-linecap="round" stroke-linejoin="round" stroke-width="5.000000"
	d="
M653.500000,465.500000 
	C656.490662,466.424042 659.052185,467.885986 661.560730,469.925262 
	C710.478943,509.692596 759.492371,549.342773 808.503662,588.995422 
	C828.314392,605.023376 848.166687,621.000000 868.000000,637.000000 
	C871.526245,644.427917 878.295837,642.975464 884.500000,642.991516 
	C895.999939,643.021240 907.500854,642.918396 918.999512,643.043030 
	C923.178284,643.088318 926.860046,642.480469 930.581238,640.128601 
	C935.474487,637.036011 941.067688,635.015564 943.728821,630.010071 
	C943.158569,619.790344 947.283752,610.878906 948.500000,601.500000 
"/>
<path fill="none" opacity="1.000000" stroke="#000000" stroke-linecap="round" stroke-linejoin="round" stroke-width="4.000000"
	d="
M1216.500000,362.500000 
	C1213.699097,356.804352 1208.763916,355.479309 1203.001587,356.017548 
	C1198.875977,356.402954 1194.905029,359.853912 1195.029541,362.998840 
	C1195.203003,367.379181 1198.403564,368.979309 1202.006104,369.977936 
	C1204.808960,370.754852 1207.691162,371.244873 1210.493652,372.022919 
	C1213.830444,372.949280 1216.856567,374.607819 1216.914429,378.501282 
	C1216.971436,382.326508 1215.066528,384.790955 1211.034912,386.107117 
	C1203.743164,388.487579 1197.400635,386.205170 1194.000000,379.250000 
"/>
<path fill="none" opacity="1.000000" stroke="#000000" stroke-linecap="round" stroke-linejoin="round" stroke-width="5.000000"
	d="
M268.000000,84.000000 
	C268.442017,91.661942 267.149506,99.369011 268.945007,107.012917 
	C270.164429,112.204300 272.428223,114.478378 278.000000,115.000000 
	C284.376312,115.596939 288.074585,113.538315 290.029785,108.511581 
	C290.795380,106.543205 291.050964,104.588829 291.026154,102.499687 
	C290.952972,96.333893 291.000000,90.166664 291.000000,84.000000 
"/>
<path fill="none" opacity="1.000000" stroke="#000000" stroke-linecap="round" stroke-linejoin="round" stroke-width="4.000000"
	d="
M880.500000,691.000000 
	C878.812744,690.895508 877.978333,689.546082 877.018250,688.483521 
	C873.422058,684.503662 867.088013,682.723999 862.500000,684.500000 
	C857.545410,686.417908 854.161438,691.501709 853.978394,696.999268 
	C853.819214,701.783386 853.916321,706.407654 856.975586,710.518188 
	C861.756470,716.941772 875.547668,717.177490 879.000000,707.500000 
"/>
<path fill="none" opacity="1.000000" stroke="#000000" stroke-linecap="round" stroke-linejoin="round" stroke-width="5.000000"
	d="
M1672.000000,101.000000 
	C1676.000000,101.000000 1680.002686,101.093475 1683.999390,100.977036 
	C1689.340698,100.821419 1692.532593,97.369598 1692.499878,92.000000 
	C1692.470825,87.209328 1689.658203,84.264763 1684.498291,84.038956 
	C1680.167114,83.849426 1675.821045,84.000000 1671.000000,84.000000 
	C1671.000000,94.661201 1671.000000,104.830605 1671.000000,115.000000 
"/>
<path fill="none" opacity="1.000000" stroke="#000000" stroke-linecap="round" stroke-linejoin="round" stroke-width="4.000000"
	d="
M1298.500000,369.500000 
	C1297.144531,369.870209 1296.694946,369.004822 1295.944580,368.043274 
	C1293.201294,364.528473 1290.074707,364.060303 1285.969849,365.408264 
	C1283.474731,366.227631 1281.939941,367.527374 1282.082886,369.995209 
	C1282.212891,372.239288 1283.691040,373.881866 1286.001587,374.494202 
	C1287.994141,375.022247 1290.083984,375.290314 1291.980103,376.049652 
	C1294.753662,377.160431 1298.508423,377.708679 1297.937256,381.991638 
	C1297.506836,385.220062 1291.961304,388.368591 1288.511719,387.455688 
	C1285.738037,386.721680 1283.174683,385.456207 1282.000000,382.500000 
"/>
<path fill="none" opacity="1.000000" stroke="#000000" stroke-linecap="round" stroke-linejoin="round" stroke-width="4.000000"
	d="
M986.500000,101.500000 
	C985.872559,101.088165 984.866577,102.330818 984.377747,100.533241 
	C983.652893,97.867256 980.796326,97.053886 978.478882,96.610390 
	C975.025696,95.949562 970.323425,98.033577 970.053528,101.004860 
	C969.710999,104.776375 972.432861,106.128983 975.499756,107.000801 
	C978.395264,107.823860 981.393799,108.251648 984.022400,109.965607 
	C986.702454,111.713127 986.463745,113.854599 984.965271,115.975449 
	C981.227173,121.265900 974.755859,120.575851 970.000000,114.500000 
"/>
<path fill="none" opacity="1.000000" stroke="#000000" stroke-linecap="round" stroke-linejoin="round" stroke-width="4.000000"
	d="
M832.500000,697.500000 
	C831.872559,697.088135 830.866577,698.330811 830.377747,696.533264 
	C829.652893,693.867249 826.796326,693.053894 824.478882,692.610352 
	C821.025696,691.949524 816.323364,694.033569 816.053528,697.004883 
	C815.710938,700.776367 818.432800,702.129089 821.499756,703.000793 
	C824.395264,703.823914 827.393799,704.251648 830.022400,705.965637 
	C832.702454,707.713074 832.463623,709.854553 830.965149,711.975342 
	C827.227112,717.265808 820.755859,716.575867 816.000000,710.500000 
"/>
<path fill="none" opacity="1.000000" stroke="#000000" stroke-linecap="round" stroke-linejoin="round" stroke-width="4.000000"
	d="
M1203.000000,1040.500000 
	C1199.070801,1036.376465 1196.004150,1035.506958 1192.008667,1037.517334 
	C1190.215210,1038.419800 1188.820679,1039.569824 1188.940186,1042.002930 
	C1189.048340,1044.203003 1189.862549,1045.276001 1191.964111,1046.092407 
	C1194.273315,1046.989502 1196.675171,1047.389038 1198.953247,1048.141479 
	C1201.683594,1049.043213 1204.908447,1050.316284 1204.010864,1054.502319 
	C1203.187256,1058.343018 1199.956543,1059.397217 1197.004150,1059.326660 
	C1193.497803,1059.242920 1189.397949,1058.824341 1188.500000,1054.000000 
"/>
<path fill="none" opacity="1.000000" stroke="#000000" stroke-linecap="round" stroke-linejoin="round" stroke-width="4.000000"
	d="
M1531.000000,368.500000 
	C1527.070923,364.376465 1524.004028,363.506866 1520.008789,365.517395 
	C1518.215210,366.419891 1516.820923,367.569824 1516.940430,370.002930 
	C1517.048462,372.203033 1517.862549,373.276001 1519.964111,374.092438 
	C1522.273193,374.989563 1524.675049,375.389099 1526.953247,376.141510 
	C1529.683594,377.043182 1532.908325,378.316315 1532.010742,382.502289 
	C1531.187134,386.342926 1527.956543,387.397278 1525.004150,387.326721 
	C1521.497803,387.242920 1517.397949,386.824341 1516.500000,382.000000 
"/>
<path fill="none" opacity="1.000000" stroke="#000000" stroke-linecap="round" stroke-linejoin="round" stroke-width="4.000000"
	d="
M1123.000000,1040.500000 
	C1120.356934,1036.500610 1116.875366,1035.726929 1112.478638,1037.445312 
	C1110.452026,1038.237427 1109.073853,1039.140381 1108.976074,1041.499023 
	C1108.880371,1043.807251 1109.480957,1045.281494 1111.971069,1046.089111 
	C1114.134277,1046.790649 1116.274536,1047.501343 1118.457031,1048.145386 
	C1121.126953,1048.933350 1124.578735,1049.729126 1124.020264,1054.002686 
	C1123.647461,1056.853882 1120.456421,1059.725952 1117.007935,1059.413086 
	C1113.574707,1059.101685 1109.817139,1058.744263 1108.500000,1054.500000 
"/>
<path fill="none" opacity="1.000000" stroke="#000000" stroke-linecap="round" stroke-linejoin="round" stroke-width="4.000000"
	d="
M1336.000000,370.000000 
	C1332.103516,364.149048 1329.454834,363.488129 1323.964355,365.919525 
	C1319.375366,367.951752 1318.072876,375.796936 1319.510498,380.496796 
	C1320.720337,384.452240 1323.481201,387.228821 1327.504517,387.345062 
	C1331.296387,387.454590 1334.859863,385.898621 1336.000000,381.500000 
"/>
<path fill="none" opacity="1.000000" stroke="#000000" stroke-linecap="round" stroke-linejoin="round" stroke-width="4.000000"
	d="
M1187.500000,354.500000 
	C1179.423218,362.674225 1177.508911,372.811646 1179.727051,383.452698 
	C1180.852661,388.852936 1182.005127,395.008331 1187.500000,398.500000 
"/>
<path fill="none" opacity="1.000000" stroke="#000000" stroke-linecap="round" stroke-linejoin="round" stroke-width="4.000000"
	d="
M1016.500000,1026.500000 
	C1009.305969,1033.546387 1007.305786,1042.604858 1008.218811,1051.978638 
	C1008.877258,1058.738159 1010.616394,1065.734863 1016.500000,1070.500000 
"/>
<path fill="none" opacity="1.000000" stroke="#000000" stroke-linecap="round" stroke-linejoin="round" stroke-width="3.000000"
	d="
M479.500000,414.500000 
	C473.675720,418.671204 472.304474,425.310150 471.179260,431.532410 
	C469.539825,440.598267 472.629578,449.068787 477.056091,456.968567 
	C477.468445,457.704468 478.666656,458.000000 479.500000,458.500000 
"/>
<path fill="none" opacity="1.000000" stroke="#000000" stroke-linecap="round" stroke-linejoin="round" stroke-width="4.000000"
	d="
M1225.500000,354.500000 
	C1233.576782,362.674225 1235.472534,372.806366 1233.281372,383.455017 
	C1232.166504,388.873138 1230.802856,394.905975 1225.500000,398.500000 
"/>
<path fill="none" opacity="1.000000" stroke="#000000" stroke-linecap="round" stroke-linejoin="round" stroke-width="3.000000"
	d="
M514.500000,414.500000 
	C520.324280,418.671204 521.695557,425.310150 522.820740,431.532410 
	C524.460205,440.598236 521.370361,449.068756 516.943848,456.968536 
	C516.531494,457.704437 515.333374,458.000031 514.500000,458.500031 
"/>
<path fill="none" opacity="1.000000" stroke="#000000" stroke-linecap="round" stroke-linejoin="round" stroke-width="4.000000"
	d="
M995.000000,703.000000 
	C1001.092285,703.607361 1007.192444,704.309692 1013.594788,702.203735 
	C1011.633240,699.185730 1012.010620,696.196472 1009.063171,694.396606 
	C1003.020020,690.706360 996.235779,693.435974 995.000061,700.500000 
	C993.463379,709.284363 995.157288,712.889465 1002.006348,714.979187 
	C1006.556702,716.367493 1009.635376,714.152710 1012.000000,710.500000 
"/>
<path fill="none" opacity="1.000000" stroke="#000000" stroke-linecap="round" stroke-linejoin="round" stroke-width="4.000000"
	d="
M326.000000,103.000000 
	C331.583344,104.023369 337.166656,103.236435 342.717896,103.578484 
	C343.104645,96.608307 339.998718,92.655319 334.500000,92.500000 
	C328.984253,92.344200 325.922852,96.252869 325.355469,102.737358 
	C325.069733,106.003082 325.052582,108.941231 327.036041,111.471741 
	C331.642120,117.348114 338.448364,116.656754 343.000000,110.000000 
"/>
<path fill="none" opacity="1.000000" stroke="#000000" stroke-linecap="round" stroke-linejoin="round" stroke-width="4.000000"
	d="
M636.000000,435.000000 
	C641.583313,436.023376 647.166687,435.236450 652.717896,435.578491 
	C653.104614,428.608307 649.998718,424.655334 644.500000,424.500000 
	C638.984253,424.344208 635.922852,428.252869 635.355530,434.737366 
	C635.069824,438.003082 635.052551,440.941254 637.036072,443.471741 
	C641.642151,449.348083 648.448364,448.656769 653.000000,442.000000 
"/>
<path fill="none" opacity="1.000000" stroke="#000000" stroke-linecap="round" stroke-linejoin="round" stroke-width="4.000000"
	d="
M871.000000,116.500000 
	C871.683167,116.600693 872.298584,116.509537 873.031006,116.948288 
	C879.732727,120.963020 885.344543,118.531029 887.000061,111.000008 
	C888.294983,105.109238 885.205688,99.697372 880.594604,97.316788 
	C877.862854,95.906464 876.345215,97.028809 874.532837,98.057861 
	C873.108582,98.866554 872.355347,100.696037 870.500000,101.000000 
"/>
<path fill="none" opacity="1.000000" stroke="#000000" stroke-linecap="round" stroke-linejoin="round" stroke-width="4.000000"
	d="
M1451.000000,375.000000 
	C1456.583374,376.023376 1462.166626,375.236450 1467.717896,375.578491 
	C1468.076538,369.115601 1464.571655,364.654938 1459.500000,364.500000 
	C1453.937622,364.330139 1450.813721,368.497284 1450.333862,374.737213 
	C1449.980713,379.328583 1450.111938,383.033203 1454.496460,385.506378 
	C1460.130981,388.684784 1462.741943,388.024750 1468.000000,382.000000 
"/>
<path fill="none" opacity="1.000000" stroke="#000000" stroke-linecap="round" stroke-linejoin="round" stroke-width="4.000000"
	d="
M1022.000000,107.500000 
	C1026.166626,107.500000 1030.336182,107.595100 1034.499268,107.474533 
	C1039.104370,107.341164 1039.961670,105.904259 1038.000000,102.000008 
	C1036.214600,98.446564 1031.513428,95.724884 1028.500000,96.500031 
	C1023.518127,97.781517 1020.723267,101.560654 1020.981079,106.500992 
	C1021.093811,108.661766 1020.369873,111.085953 1021.118164,112.952621 
	C1023.362427,118.550690 1030.362915,122.299217 1036.544678,116.548027 
	C1037.736328,115.439392 1037.814819,112.697464 1040.500000,113.500000 
"/>
<path fill="none" opacity="1.000000" stroke="#000000" stroke-linecap="round" stroke-linejoin="round" stroke-width="4.000000"
	d="
M609.500000,415.500000 
	C610.010559,423.000000 610.110107,430.483398 609.585632,438.005981 
	C609.249146,442.831299 612.789490,446.620819 617.500000,447.500000 
	C620.220886,448.007843 624.434570,444.785645 626.000000,441.000000 
	C628.778931,434.279968 625.925659,427.068542 620.039856,424.892151 
	C617.962830,424.124115 616.517273,424.940765 615.041260,425.593292 
	C613.650818,426.207947 612.940491,428.138153 611.000000,428.000000 
"/>
<path fill="none" opacity="1.000000" stroke="#000000" stroke-linecap="round" stroke-linejoin="round" stroke-width="4.000000"
	d="
M1215.000000,1056.500000 
	C1215.683105,1056.600708 1216.298584,1056.509521 1217.031006,1056.948364 
	C1223.732666,1060.963013 1229.344482,1058.531006 1231.000000,1051.000000 
	C1232.295776,1045.105957 1229.093018,1039.789062 1224.633545,1037.264038 
	C1222.063965,1035.809204 1220.674805,1037.287842 1219.044312,1037.682861 
	C1217.391968,1038.083008 1216.585693,1040.586304 1214.500000,1041.000000 
"/>
<path fill="none" opacity="1.000000" stroke="#000000" stroke-linecap="round" stroke-linejoin="round" stroke-width="5.000000"
	d="
M923.000000,88.000000 
	C923.000000,95.500000 922.981750,103.000061 923.007141,110.499977 
	C923.021362,114.710556 926.060913,118.738441 930.516052,119.390076 
	C934.259033,119.937523 937.096741,117.772095 939.005127,114.503014 
	C941.629333,110.007874 940.596863,102.424019 937.018677,98.980606 
	C934.037598,96.111732 930.854309,96.030190 927.525452,98.042099 
	C926.368652,98.741241 925.628967,100.142380 924.000000,100.000000 
"/>
<path fill="none" opacity="1.000000" stroke="#000000" stroke-linecap="round" stroke-linejoin="round" stroke-width="4.000000"
	d="
M1309.500000,1059.500000 
	C1308.260498,1054.833374 1309.891235,1050.174561 1309.530396,1045.497681 
	C1309.204834,1041.278198 1305.791138,1037.300903 1301.500000,1036.500122 
	C1298.499512,1035.940063 1294.506348,1039.196167 1292.952881,1042.980713 
	C1291.307739,1046.988159 1291.718872,1050.970215 1293.605225,1054.442871 
	C1296.737793,1060.209839 1301.541870,1060.509399 1308.500000,1056.000000 
"/>
<path fill="none" opacity="1.000000" stroke="#000000" stroke-linecap="round" stroke-linejoin="round" stroke-width="4.000000"
	d="
M1163.000000,1047.000000 
	C1167.469604,1047.986328 1172.006348,1047.521484 1176.498291,1047.423584 
	C1179.708618,1047.353516 1180.728271,1045.325562 1179.500000,1042.500000 
	C1177.933228,1038.895874 1172.607788,1035.700562 1169.500000,1036.500000 
	C1164.480835,1037.791138 1162.345825,1041.130371 1162.434570,1046.750977 
	C1162.475952,1049.361084 1161.369507,1051.920044 1162.966553,1054.520508 
	C1166.633179,1060.490601 1173.209473,1061.192261 1178.007446,1056.006836 
	C1178.991943,1054.942749 1179.224487,1052.781006 1181.500000,1053.500000 
"/>
<path fill="none" opacity="1.000000" stroke="#000000" stroke-linecap="round" stroke-linejoin="round" stroke-width="4.000000"
	d="
M724.500000,451.500000 
	C726.661743,451.338226 726.459351,453.539062 727.464233,454.536041 
	C730.581116,457.628204 733.979919,458.176819 738.014709,456.536224 
	C741.732422,455.024536 743.537964,452.161743 742.886475,448.520325 
	C741.947815,443.274200 744.417480,438.227509 743.080261,432.979553 
	C742.118347,429.204529 738.595825,425.024475 735.000000,424.499969 
	C732.067505,424.072205 727.556824,426.747833 726.639282,430.533752 
	C725.557007,434.999664 724.617004,439.868713 728.019348,443.984009 
	C731.300354,447.952637 734.706055,448.395447 738.975037,445.463684 
	C740.014648,444.749725 740.878967,443.876587 742.250000,444.000000 
"/>
<path fill="none" opacity="1.000000" stroke="#000000" stroke-linecap="round" stroke-linejoin="round" stroke-width="4.000000"
	d="
M1053.000000,1027.000000 
	C1062.837646,1038.926514 1062.640625,1057.892334 1053.000000,1070.000000 
"/>
<path fill="none" opacity="1.000000" stroke="#000000" stroke-linecap="round" stroke-linejoin="round" stroke-width="4.000000"
	d="
M1334.000000,1041.000000 
	C1330.175903,1036.629028 1327.704468,1035.322876 1322.491821,1037.480225 
	C1320.403076,1038.344604 1318.977905,1040.061768 1319.173828,1041.982300 
	C1319.332031,1043.535034 1319.842163,1045.745972 1322.490234,1046.078125 
	C1324.707153,1046.356201 1326.664673,1047.696533 1328.984741,1048.089844 
	C1333.199219,1048.804688 1335.710815,1051.794067 1335.000122,1054.500000 
	C1334.270752,1057.276245 1328.452271,1060.539917 1325.528076,1059.426270 
	C1322.838501,1058.401978 1319.926636,1057.298828 1319.000000,1054.000000 
"/>
<path fill="none" opacity="1.000000" stroke="#000000" stroke-linecap="round" stroke-linejoin="round" stroke-width="4.000000"
	d="
M1062.000000,101.000000 
	C1058.175903,96.628929 1055.704468,95.322914 1050.491821,97.480186 
	C1048.403076,98.344582 1046.977905,100.061691 1047.173828,101.982269 
	C1047.332275,103.535072 1047.842163,105.745987 1050.490234,106.078148 
	C1052.707153,106.356224 1054.662354,107.702675 1056.985107,108.089523 
	C1061.078979,108.771370 1063.812500,112.004593 1063.000000,114.499985 
	C1062.081543,117.320816 1056.381470,120.521866 1053.528076,119.426979 
	C1050.840210,118.395638 1047.926636,117.298851 1047.000000,114.000000 
"/>
<path fill="none" opacity="1.000000" stroke="#000000" stroke-linecap="round" stroke-linejoin="round" stroke-width="4.000000"
	d="
M846.000000,101.000000 
	C842.175842,96.628891 839.704468,95.322983 834.491821,97.480225 
	C832.403137,98.344620 830.978027,100.061691 831.173950,101.982262 
	C831.332214,103.535072 831.842224,105.745987 834.490173,106.078156 
	C836.707092,106.356232 838.662354,107.702660 840.985107,108.089508 
	C845.079041,108.771370 847.812500,112.004639 847.000061,114.500023 
	C846.081665,117.320839 840.381409,120.521896 837.528015,119.427040 
	C834.840088,118.395668 831.926636,117.298851 831.000000,114.000000 
"/>
<path fill="none" opacity="1.000000" stroke="#000000" stroke-linecap="round" stroke-linejoin="round" stroke-width="4.000000"
	d="
M586.000000,429.000000 
	C582.175781,424.628845 579.704468,423.323029 574.491821,425.480255 
	C572.403137,426.344635 570.978027,428.061707 571.173828,429.982269 
	C571.332214,431.535065 571.842407,433.746643 574.489685,434.081390 
	C576.541199,434.340790 578.469421,435.453461 580.507141,435.972046 
	C583.618164,436.763885 586.889343,437.530853 586.926636,441.500702 
	C586.961182,445.174622 583.845825,446.090302 580.999878,446.999695 
	C576.272705,448.510223 573.081848,446.662201 571.500000,441.500000 
"/>
<path fill="none" opacity="1.000000" stroke="#000000" stroke-linecap="round" stroke-linejoin="round" stroke-width="4.000000"
	d="
M244.000000,97.000000 
	C240.176086,92.629120 237.704636,91.322845 232.491806,93.480209 
	C230.403152,94.344604 229.124313,96.004036 229.117966,98.000374 
	C229.111984,99.876457 230.167770,101.555115 232.489716,102.048424 
	C234.538864,102.483765 236.469437,103.453438 238.507111,103.972046 
	C241.618179,104.763832 244.889313,105.530853 244.926605,109.500687 
	C244.961121,113.174606 241.845825,114.090286 238.999893,114.999672 
	C234.272705,116.510201 231.081863,114.662201 229.500000,109.500000 
"/>
<path fill="none" opacity="1.000000" stroke="#000000" stroke-linecap="round" stroke-linejoin="round" stroke-width="4.000000"
	d="
M316.000000,97.000000 
	C312.175995,92.629044 309.704559,91.322884 304.491821,93.480202 
	C302.403168,94.344604 301.124329,96.004036 301.117981,98.000374 
	C301.112000,99.876450 302.167786,101.555115 304.489716,102.048416 
	C306.538849,102.483765 308.469421,103.453423 310.507111,103.972038 
	C313.618164,104.763817 316.889313,105.530853 316.926605,109.500687 
	C316.961121,113.174606 313.845825,114.090286 310.999908,114.999687 
	C306.272705,116.510216 303.081848,114.662201 301.500000,109.500000 
"/>
<path fill="none" opacity="1.000000" stroke="#000000" stroke-linecap="round" stroke-linejoin="round" stroke-width="4.000000"
	d="
M1647.000000,97.000000 
	C1642.555786,92.333282 1639.885010,91.741547 1635.462769,93.400940 
	C1633.034912,94.312042 1632.226440,96.122704 1632.137695,98.006485 
	C1632.050537,99.854553 1633.169678,101.549622 1635.488647,102.052277 
	C1637.377808,102.461777 1639.119507,103.639778 1641.010620,103.930717 
	C1644.125122,104.409836 1646.932983,105.404022 1647.901733,108.530434 
	C1648.630127,110.881050 1646.760254,112.745132 1644.961304,113.941780 
	C1642.020752,115.897644 1638.617188,115.901466 1635.551758,114.394699 
	C1634.084351,113.673370 1633.166626,111.833336 1632.000000,110.500000 
"/>
<path fill="none" opacity="1.000000" stroke="#000000" stroke-linecap="round" stroke-linejoin="round" stroke-width="4.000000"
	d="
M1743.000000,97.000000 
	C1738.555786,92.333282 1735.884888,91.741486 1731.462769,93.400940 
	C1729.034912,94.312042 1728.226318,96.122696 1728.137695,98.006485 
	C1728.050537,99.854553 1729.169678,101.549629 1731.488647,102.052284 
	C1733.377808,102.461792 1735.119507,103.639824 1737.010620,103.930748 
	C1740.125244,104.409836 1742.932983,105.404022 1743.901733,108.530434 
	C1744.630127,110.881050 1742.760254,112.745079 1740.961182,113.941727 
	C1738.020630,115.897598 1734.617188,115.901421 1731.551758,114.394661 
	C1730.084229,113.673355 1729.166626,111.833366 1728.000000,110.500031 
"/>
<path fill="none" opacity="1.000000" stroke="#000000" stroke-linecap="round" stroke-linejoin="round" stroke-width="4.000000"
	d="
M767.000000,428.500000 
	C764.523865,425.313293 761.935364,423.611877 757.426697,425.304749 
	C754.760742,426.305756 753.079102,426.938629 752.962219,429.998566 
	C752.823181,433.637726 755.571167,434.164307 758.011902,434.963715 
	C759.615662,435.489044 761.471863,435.369141 762.969116,436.066284 
	C765.532227,437.259705 769.086182,437.839539 768.482361,441.997437 
	C768.025208,445.145233 764.815918,447.731476 761.007996,447.406342 
	C757.589661,447.114441 753.889709,446.620819 752.500000,442.500000 
"/>
<path fill="none" opacity="1.000000" stroke="#000000" stroke-linecap="round" stroke-linejoin="round" stroke-width="4.000000"
	d="
M561.500000,447.500000 
	C561.500000,442.333344 561.662415,437.160278 561.459473,432.001587 
	C561.197754,425.347717 556.353638,422.984283 550.452209,425.903320 
	C546.366821,427.924133 545.469360,431.045135 545.494141,435.000031 
	C545.520203,439.166534 545.500000,443.333344 545.500000,447.500000 
"/>
<path fill="none" opacity="1.000000" stroke="#000000" stroke-linecap="round" stroke-linejoin="round" stroke-width="4.000000"
	d="
M219.500000,115.500000 
	C219.500000,110.333336 219.662369,105.160278 219.459457,100.001595 
	C219.197739,93.347702 214.353622,90.984314 208.452209,93.903381 
	C204.366852,95.924164 203.469421,99.045113 203.494171,103.000038 
	C203.520233,107.166534 203.500000,111.333336 203.500000,115.500000 
"/>
<path fill="none" opacity="1.000000" stroke="#000000" stroke-linecap="round" stroke-linejoin="round" stroke-width="5.000000"
	d="
M1099.000000,1059.000000 
	C1099.000000,1054.500000 1098.956299,1049.999390 1099.014771,1045.500244 
	C1099.056763,1042.270752 1098.702515,1039.127563 1095.473999,1037.553467 
	C1092.292358,1036.002197 1089.159302,1036.278442 1086.474854,1038.974976 
	C1085.810059,1039.642822 1084.833252,1040.000000 1084.000000,1040.500000 
"/>
<path fill="none" opacity="1.000000" stroke="#000000" stroke-linecap="round" stroke-linejoin="round" stroke-width="5.000000"
	d="
M1494.000000,387.000000 
	C1494.000000,382.833344 1493.980469,378.666534 1494.005859,374.500031 
	C1494.027954,370.884796 1493.691528,367.514923 1490.013428,365.475861 
	C1486.526855,363.543030 1483.799805,365.213959 1480.987061,366.979370 
	C1480.239136,367.448822 1479.333374,367.666656 1478.500000,368.000000 
"/>
<path fill="none" opacity="1.000000" stroke="#000000" stroke-linecap="round" stroke-linejoin="round" stroke-width="5.000000"
	d="
M1038.000000,715.000000 
	C1038.000000,710.166687 1038.015503,705.333252 1037.996338,700.500000 
	C1037.968994,693.582581 1033.113770,690.735291 1026.990601,693.982300 
	C1025.676147,694.679321 1024.753418,696.173462 1023.000000,696.000000 
"/>
<path fill="none" opacity="1.000000" stroke="#000000" stroke-linecap="round" stroke-linejoin="round" stroke-width="5.000000"
	d="
M1272.000000,387.000000 
	C1272.000000,382.166656 1271.836182,377.325806 1272.057983,372.502655 
	C1272.203125,369.345215 1271.193726,367.186035 1268.530884,365.452545 
	C1265.746582,363.639923 1263.292236,364.716675 1261.056763,366.092163 
	C1259.737671,366.903687 1258.627808,367.922302 1257.000000,368.000000 
"/>
<path fill="none" opacity="1.000000" stroke="#000000" stroke-linecap="round" stroke-linejoin="round" stroke-width="5.000000"
	d="
M822.000000,119.000000 
	C822.000000,114.333336 822.164124,109.659561 821.962524,105.001625 
	C821.636353,97.466568 816.418518,94.731674 809.973328,98.453804 
	C808.905518,99.070473 808.013855,100.310165 806.500000,100.000000 
"/>
<path fill="none" opacity="1.000000" stroke="#000000" stroke-linecap="round" stroke-linejoin="round" stroke-width="5.000000"
	d="
M1011.000000,119.000000 
	C1011.000000,114.166664 1011.015442,109.333275 1010.996338,104.500015 
	C1010.968994,97.582626 1006.113892,94.735382 999.990662,97.982376 
	C998.676208,98.679390 997.753418,100.173447 996.000000,100.000000 
"/>
<path fill="none" opacity="1.000000" stroke="#000000" stroke-linecap="round" stroke-linejoin="round" stroke-width="5.000000"
	d="
M716.000000,447.000000 
	C716.000000,442.166656 716.015442,437.333282 715.996338,432.500000 
	C715.968994,425.582642 711.113892,422.735352 704.990662,425.982330 
	C703.676147,426.679352 702.753418,428.173462 701.000000,428.000000 
"/>
<path fill="none" opacity="1.000000" stroke="#000000" stroke-linecap="round" stroke-linejoin="round" stroke-width="5.000000"
	d="
M1622.000000,115.000000 
	C1622.000000,110.166664 1621.806641,105.322845 1622.068115,100.503700 
	C1622.241821,97.301102 1621.363403,95.150162 1618.540527,93.433319 
	C1615.709961,91.711792 1613.292236,92.716629 1611.056641,94.092125 
	C1609.737671,94.903664 1608.627808,95.922302 1607.000000,96.000000 
"/>
<path fill="none" opacity="1.000000" stroke="#000000" stroke-linecap="round" stroke-linejoin="round" stroke-width="5.000000"
	d="
M1283.000000,1059.000000 
	C1283.000000,1054.166626 1283.015503,1049.333252 1282.996460,1044.500000 
	C1282.969116,1037.582642 1278.113892,1034.735352 1271.990723,1037.982422 
	C1270.676270,1038.679443 1269.753418,1040.173462 1268.000000,1040.000000 
"/>
<path fill="none" opacity="1.000000" stroke="#000000" stroke-linecap="round" stroke-linejoin="round" stroke-width="5.000000"
	d="
M806.000000,715.000000 
	C806.000000,710.166687 806.015442,705.333252 805.996338,700.500000 
	C805.968933,693.582642 801.113892,690.735291 794.990601,693.982300 
	C793.676208,694.679382 792.753418,696.173462 791.000000,696.000000 
"/>
<path fill="none" opacity="1.000000" stroke="#000000" stroke-linecap="round" stroke-linejoin="round" stroke-width="5.000000"
	d="
M896.000000,97.000000 
	C896.000000,101.666664 896.038879,106.333771 895.987183,110.999855 
	C895.948792,114.462761 896.983826,117.003593 900.462769,118.582069 
	C903.747620,120.072479 906.136414,118.987251 908.484619,116.982002 
	C909.418091,116.184814 910.199219,115.215454 911.500000,115.000000 
"/>
<path fill="none" opacity="1.000000" stroke="#000000" stroke-linecap="round" stroke-linejoin="round" stroke-width="5.000000"
	d="
M985.000000,715.000000 
	C985.000000,710.166687 985.009949,705.333313 984.996216,700.500000 
	C984.987976,697.597534 985.258606,694.879028 981.552612,693.370728 
	C978.312561,692.052002 976.192261,693.066833 974.012817,695.014343 
	C973.095337,695.834229 972.300781,696.784546 971.000000,697.000000 
"/>
<path fill="none" opacity="1.000000" stroke="#000000" stroke-linecap="round" stroke-linejoin="round" stroke-width="5.000000"
	d="
M945.000000,715.000000 
	C945.000000,710.166687 945.009949,705.333313 944.996216,700.500000 
	C944.987976,697.597534 945.258606,694.879028 941.552612,693.370728 
	C938.312561,692.052002 936.192261,693.066833 934.012878,695.014404 
	C933.095337,695.834229 932.300781,696.784546 931.000000,697.000000 
"/>
<path fill="none" opacity="1.000000" stroke="#000000" stroke-linecap="round" stroke-linejoin="round" stroke-width="5.000000"
	d="
M1441.000000,387.000000 
	C1441.000000,382.500000 1441.101074,377.997009 1440.967651,373.500977 
	C1440.864136,370.009521 1440.589844,366.474365 1436.501587,364.995483 
	C1432.964111,363.715759 1430.744629,365.855927 1428.489990,367.989441 
	C1428.059814,368.396484 1427.500000,368.666656 1427.000000,369.000000 
"/>
<path fill="none" opacity="1.000000" stroke="#000000" stroke-linecap="round" stroke-linejoin="round" stroke-width="5.000000"
	d="
M1401.000000,387.000000 
	C1401.000000,382.500000 1401.101074,377.997009 1400.967651,373.500977 
	C1400.864014,370.009521 1400.589844,366.474365 1396.501587,364.995453 
	C1392.964111,363.715759 1390.744629,365.855927 1388.489990,367.989441 
	C1388.059814,368.396545 1387.500000,368.666687 1387.000000,369.000000 
"/>
<path fill="none" opacity="1.000000" stroke="#000000" stroke-linecap="round" stroke-linejoin="round" stroke-width="5.000000"
	d="
M506.000000,416.000000 
	C500.161926,416.000000 494.323822,416.000000 488.000000,416.000000 
	C488.000000,426.661194 488.000000,436.830597 488.000000,447.000000 
"/>
<path fill="none" opacity="1.000000" stroke="#000000" stroke-linecap="round" stroke-linejoin="round" stroke-width="5.000000"
	d="
M663.000000,416.000000 
	C663.000000,426.333344 663.000000,436.666656 663.000000,447.000000 
"/>
<path fill="none" opacity="1.000000" stroke="#000000" stroke-linecap="round" stroke-linejoin="round" stroke-width="5.000000"
	d="
M950.000000,88.000000 
	C950.000000,98.333336 950.000000,108.666664 950.000000,119.000000 
"/>
<path fill="none" opacity="1.000000" stroke="#000000" stroke-linecap="round" stroke-linejoin="round" stroke-width="5.000000"
	d="
M1034.000000,1029.000000 
	C1034.000000,1039.000000 1034.000000,1049.000000 1034.000000,1059.000000 
"/>
<path fill="none" opacity="1.000000" stroke="#000000" stroke-linecap="round" stroke-linejoin="round" stroke-width="11.000000"
	d="
M1206.500000,661.500000 
	C1201.867432,667.350708 1196.137207,672.139343 1191.019409,677.518433 
	C1186.772217,681.982361 1186.785034,684.005127 1191.016113,688.484741 
	C1196.114624,693.882507 1201.333374,699.166687 1206.500000,704.500000 
"/>
<path fill="none" opacity="1.000000" stroke="#000000" stroke-linecap="round" stroke-linejoin="round" stroke-width="8.000000"
	d="
M1399.500000,81.500015 
	C1405.000000,87.166679 1410.513306,92.820526 1415.994507,98.505302 
	C1418.858398,101.475479 1418.858521,104.524574 1415.994629,107.494804 
	C1410.513306,113.179527 1405.000000,118.833328 1399.500000,124.499992 
"/>
<path fill="none" opacity="1.000000" stroke="#000000" stroke-linecap="round" stroke-linejoin="round" stroke-width="14.000000"
	d="
M330.500000,173.500000 
	C324.619598,175.194504 318.471985,174.941467 312.496704,175.980972 
	C299.186371,178.296509 301.095459,177.946030 301.685211,190.491287 
	C301.950195,196.127930 303.002045,201.813492 303.500000,207.500000 
"/>
<path fill="none" opacity="1.000000" stroke="#000000" stroke-linecap="round" stroke-linejoin="round" stroke-width="3.000000"
	d="
M944.500000,630.500000 
	C953.128723,634.265381 962.410034,635.513611 971.500000,637.500000 
"/>
<path fill="none" opacity="1.000000" stroke="#000000" stroke-linecap="round" stroke-linejoin="round" stroke-width="5.000000"
	d="
M1505.500000,365.500000 
	C1504.409546,371.474335 1505.033813,377.505341 1505.087769,383.499207 
	C1505.122925,387.410614 1509.214844,386.671173 1511.500000,388.000000 
"/>
<path fill="none" opacity="1.000000" stroke="#000000" stroke-linecap="round" stroke-linejoin="round" stroke-width="5.000000"
	d="
M1755.000000,84.500000 
	C1753.831055,86.360733 1753.990356,88.437950 1753.994751,90.500008 
	C1754.009033,97.166641 1754.068970,103.834381 1753.968140,110.499519 
	C1753.924194,113.395782 1754.729614,115.221779 1758.000000,115.000000 
"/>
<path fill="none" opacity="1.000000" stroke="#000000" stroke-linecap="round" stroke-linejoin="round" stroke-width="5.000000"
	d="
M1051.000000,684.500000 
	C1049.831055,686.360718 1049.990356,688.437927 1049.994751,690.500000 
	C1050.009033,697.166687 1050.068848,703.834351 1049.968018,710.499512 
	C1049.924194,713.395752 1050.729614,715.221802 1054.000000,715.000000 
"/>
<path fill="none" opacity="1.000000" stroke="#000000" stroke-linecap="round" stroke-linejoin="round" stroke-width="5.000000"
	d="
M960.000000,97.000000 
	C960.000000,104.333336 960.000000,111.666664 960.000000,119.000000 
"/>
<path fill="none" opacity="1.000000" stroke="#000000" stroke-linecap="round" stroke-linejoin="round" stroke-width="5.000000"
	d="
M353.000000,93.000000 
	C353.000000,100.333336 353.000000,107.666664 353.000000,115.000000 
"/>
<path fill="none" opacity="1.000000" stroke="#000000" stroke-linecap="round" stroke-linejoin="round" stroke-width="5.000000"
	d="
M1371.000000,365.000000 
	C1371.000000,372.333344 1371.000000,379.666656 1371.000000,387.000000 
"/>
<path fill="none" opacity="1.000000" stroke="#000000" stroke-linecap="round" stroke-linejoin="round" stroke-width="5.000000"
	d="
M1411.000000,365.000000 
	C1411.000000,372.333344 1411.000000,379.666656 1411.000000,387.000000 
"/>
<path fill="none" opacity="1.000000" stroke="#000000" stroke-linecap="round" stroke-linejoin="round" stroke-width="5.000000"
	d="
M1477.500000,364.500000 
	C1478.657593,371.977966 1477.688354,379.503235 1478.000000,387.000000 
"/>
<path fill="none" opacity="1.000000" stroke="#000000" stroke-linecap="round" stroke-linejoin="round" stroke-width="5.000000"
	d="
M700.000000,425.000000 
	C700.000000,432.333344 700.000000,439.666656 700.000000,447.000000 
"/>
<path fill="none" opacity="1.000000" stroke="#000000" stroke-linecap="round" stroke-linejoin="round" stroke-width="5.000000"
	d="
M1022.000000,693.000000 
	C1022.000000,700.333313 1022.000000,707.666687 1022.000000,715.000000 
"/>
<path fill="none" opacity="1.000000" stroke="#000000" stroke-linecap="round" stroke-linejoin="round" stroke-width="5.000000"
	d="
M1256.000000,365.000000 
	C1256.000000,372.333344 1256.000000,379.666656 1256.000000,387.000000 
"/>
<path fill="none" opacity="1.000000" stroke="#000000" stroke-linecap="round" stroke-linejoin="round" stroke-width="5.000000"
	d="
M805.500000,96.500000 
	C806.657593,103.977982 805.688354,111.503220 806.000000,119.000000 
"/>
<path fill="none" opacity="1.000000" stroke="#000000" stroke-linecap="round" stroke-linejoin="round" stroke-width="5.000000"
	d="
M995.000000,88.000000 
	C995.000000,98.333336 995.000000,108.666664 995.000000,119.000000 
"/>
<path fill="none" opacity="1.000000" stroke="#000000" stroke-linecap="round" stroke-linejoin="round" stroke-width="5.000000"
	d="
M1606.000000,93.000000 
	C1606.000000,100.333336 1606.000000,107.666664 1606.000000,115.000000 
"/>
<path fill="none" opacity="1.000000" stroke="#000000" stroke-linecap="round" stroke-linejoin="round" stroke-width="5.000000"
	d="
M790.000000,693.000000 
	C790.000000,700.333313 790.000000,707.666687 790.000000,715.000000 
"/>
<path fill="none" opacity="1.000000" stroke="#000000" stroke-linecap="round" stroke-linejoin="round" stroke-width="5.000000"
	d="
M1157.500000,1036.500000 
	C1156.000000,1037.782837 1154.451538,1036.156006 1153.009766,1036.536865 
	C1149.641846,1037.426392 1147.010376,1041.249023 1147.002441,1045.000000 
	C1146.992432,1049.666626 1147.000000,1054.333374 1147.000000,1059.000000 
"/>
<path fill="none" opacity="1.000000" stroke="#000000" stroke-linecap="round" stroke-linejoin="round" stroke-width="5.000000"
	d="
M1267.000000,1037.000000 
	C1267.000000,1044.333374 1267.000000,1051.666626 1267.000000,1059.000000 
"/>
<path fill="none" opacity="1.000000" stroke="#000000" stroke-linecap="round" stroke-linejoin="round" stroke-width="5.000000"
	d="
M955.500000,692.500000 
	C956.657593,699.977966 955.688354,707.503235 956.000000,715.000000 
"/>
<path fill="none" opacity="1.000000" stroke="#000000" stroke-linecap="round" stroke-linejoin="round" stroke-width="5.000000"
	d="
M915.500000,692.500000 
	C916.657593,699.977966 915.688354,707.503235 916.000000,715.000000 
"/>
<path fill="none" opacity="1.000000" stroke="#000000" stroke-linecap="round" stroke-linejoin="round" stroke-width="4.000000"
	d="
M916.500000,696.000000 
	C918.440491,696.138184 919.173401,694.330322 920.523193,693.539551 
	C925.330994,690.722717 930.387634,693.757446 930.481384,699.500305 
	C930.568420,704.832214 930.500000,710.166687 930.500000,715.500000 
"/>
<path fill="none" opacity="1.000000" stroke="#000000" stroke-linecap="round" stroke-linejoin="round" stroke-width="4.000000"
	d="
M956.500000,696.000000 
	C958.440491,696.138184 959.173340,694.330261 960.523132,693.539490 
	C965.330994,690.722656 970.387634,693.757446 970.481384,699.500305 
	C970.568420,704.832214 970.500000,710.166687 970.500000,715.500000 
"/>
<path fill="none" opacity="1.000000" stroke="#000000" stroke-linecap="round" stroke-linejoin="round" stroke-width="5.000000"
	d="
M1082.500000,1036.500000 
	C1083.484131,1043.981812 1082.784180,1051.501099 1083.000000,1059.000000 
"/>
<path fill="none" opacity="1.000000" stroke="#000000" stroke-linecap="round" stroke-linejoin="round" stroke-width="5.000000"
	d="
M1412.000000,368.000000 
	C1414.310791,368.216949 1415.443481,366.023712 1417.460815,365.377563 
	C1422.309326,363.824646 1425.973022,365.980316 1425.994873,371.000031 
	C1426.017944,376.333252 1426.000000,381.666656 1426.000000,387.000000 
"/>
<path fill="none" opacity="1.000000" stroke="#000000" stroke-linecap="round" stroke-linejoin="round" stroke-width="5.000000"
	d="
M1372.000000,368.000000 
	C1374.310791,368.216949 1375.443481,366.023743 1377.460815,365.377625 
	C1382.309326,363.824707 1385.973022,365.980316 1385.994873,371.000031 
	C1386.017944,376.333252 1386.000000,381.666656 1386.000000,387.000000 
"/>
<path fill="none" opacity="1.000000" stroke="#000000" stroke-linecap="round" stroke-linejoin="round" stroke-width="5.000000"
	d="
M912.000000,97.000000 
	C912.090454,104.501694 911.690186,112.014290 912.500000,119.500000 
"/>
<path fill="none" opacity="1.000000" stroke="#000000" stroke-linecap="round" stroke-linejoin="round" stroke-width="5.000000"
	d="
M869.500000,96.500000 
	C869.666626,107.333336 869.833313,118.166664 870.000000,129.000000 
"/>
<path fill="none" opacity="1.000000" stroke="#000000" stroke-linecap="round" stroke-linejoin="round" stroke-width="5.000000"
	d="
M1213.500122,1036.500000 
	C1213.666748,1047.333374 1213.833374,1058.166626 1214.000122,1069.000000 
"/>
<path fill="none" opacity="1.000000" stroke="#000000" stroke-linecap="round" stroke-linejoin="round" stroke-width="5.000000"
	d="
M504.000000,431.000000 
	C499.000000,431.000000 494.000000,431.000000 489.000000,431.000000 
"/>
<path fill="none" opacity="1.000000" stroke="#000000" stroke-linecap="round" stroke-linejoin="round" stroke-width="4.000000"
	d="
M1309.500000,1027.500000 
	C1309.010864,1031.654175 1310.564087,1035.971802 1308.500000,1040.000000 
"/>
<path fill="none" opacity="1.000000" stroke="#000000" stroke-linecap="round" stroke-linejoin="round" stroke-width="5.000000"
	d="
M1045.000000,1028.000000 
	C1037.333374,1028.000000 1029.666626,1028.000000 1022.000000,1028.000000 
"/>
<path fill="none" opacity="1.000000" stroke="#000000" stroke-linecap="round" stroke-linejoin="round" stroke-width="3.000000"
	d="
M362.000000,93.000000 
	C360.337585,91.704849 358.871094,92.706833 357.522125,93.535980 
	C356.371216,94.243401 355.803497,95.947762 354.000000,95.500000 
"/>
<path fill="none" opacity="1.000000" stroke="#000000" stroke-linecap="round" stroke-linejoin="round" stroke-width="4.000000"
	d="
M1054.500000,692.500000 
	C1051.833374,692.590149 1049.166626,693.587463 1046.500000,692.500000 
"/>
<path fill="none" opacity="1.000000" stroke="#000000" stroke-linecap="round" stroke-linejoin="round" stroke-width="4.000000"
	d="
M1758.500000,92.500000 
	C1755.833374,92.590164 1753.166626,93.587456 1750.500000,92.500000 
"/>
<path fill="none" opacity="1.000000" stroke="#000000" stroke-linecap="round" stroke-linejoin="round" stroke-width="4.000000"
	d="
M1509.500000,364.500000 
	C1506.833374,364.500000 1504.166626,364.500000 1501.500000,364.500000 
"/>
<path fill="none" opacity="1.000000" stroke="#000000" stroke-linecap="round" stroke-linejoin="round" stroke-width="4.000000"
	d="
M896.000000,692.500000 
	C887.768982,696.042236 884.861084,706.616150 890.499939,712.500061 
	C895.262512,717.469666 902.724731,715.977173 905.500000,709.500000 
	C909.238647,700.774658 905.965271,694.591675 896.500000,692.500000 
"/>
<path fill="none" opacity="1.000000" stroke="#000000" stroke-linecap="round" stroke-linejoin="round" stroke-width="4.000000"
	d="
M1710.000000,92.500000 
	C1701.681274,95.546234 1700.892944,96.641205 1701.000000,105.000000 
	C1701.077759,111.072784 1704.531860,115.102608 1710.000000,115.500008 
	C1714.626465,115.836250 1719.527710,111.015129 1719.981201,105.498459 
	C1720.549805,98.582146 1717.714600,93.834877 1710.500000,92.500000 
"/>
<path fill="none" opacity="1.000000" stroke="#000000" stroke-linecap="round" stroke-linejoin="round" stroke-width="4.000000"
	d="
M1248.000000,1036.500000 
	C1239.060913,1039.309692 1238.883667,1041.887451 1238.996216,1049.000000 
	C1239.093384,1055.149536 1242.462524,1059.097412 1248.000000,1059.500000 
	C1252.626465,1059.836182 1257.453613,1055.009033 1258.000000,1049.500000 
	C1258.691772,1042.524536 1255.898438,1038.702026 1248.500000,1036.500000 
"/>
<path fill="none" opacity="1.000000" stroke="#000000" stroke-linecap="round" stroke-linejoin="round" stroke-width="4.000000"
	d="
M681.000000,424.500000 
	C672.109009,427.755798 668.660706,437.848816 674.559631,443.942261 
	C676.997253,446.460205 679.984131,448.475616 684.010010,447.027924 
	C688.103943,445.555756 690.545715,442.668335 690.934448,438.493896 
	C691.577881,431.583405 690.418396,426.144531 681.500000,424.500000 
"/>
<path fill="none" opacity="1.000000" stroke="#000000" stroke-linecap="round" stroke-linejoin="round" stroke-width="4.000000"
	d="
M1352.000000,364.500000 
	C1343.060913,367.309723 1342.883667,369.887390 1342.996094,377.000061 
	C1343.093384,383.149536 1346.462524,387.097534 1352.000000,387.500000 
	C1356.626465,387.836243 1361.453613,383.009064 1361.999878,377.500000 
	C1362.691650,370.524506 1359.898438,366.702057 1352.500000,364.500000 
"/>
</svg>