<?xml version="1.0" standalone="no"?>
<!DOCTYPE svg PUBLIC "-//W3C//DTD SVG 20010904//EN"
 "http://www.w3.org/TR/2001/REC-SVG-20010904/DTD/svg10.dtd">
<svg version="1.0" xmlns="http://www.w3.org/2000/svg"
 width="2404.000000pt" height="1552.000000pt" viewBox="0 0 2404.000000 1552.000000"
 preserveAspectRatio="xMidYMid meet">

<g transform="translate(0.000000,1552.000000) scale(0.100000,-0.100000)"
fill="#000000" stroke="none">
<path d="M370 13870 l0 -1220 1195 0 1195 0 0 -155 c0 -148 1 -155 20 -155 19
0 20 7 20 155 l0 155 1205 0 1205 0 0 905 0 905 210 -105 c116 -58 210 -103
210 -101 0 2 -20 46 -45 97 l-44 94 1834 3 c1826 2 1835 2 1835 22 0 20 -9 20
-1835 22 l-1834 3 44 94 c25 51 45 95 45 97 0 2 -95 -43 -210 -101 l-210 -105
0 305 0 305 -2420 0 -2420 0 0 -1220z m4800 600 l0 -580 -2380 0 -2380 0 0
580 0 580 2380 0 2380 0 0 -580z m0 -1200 l0 -580 -2380 0 -2380 0 0 580 0
580 2380 0 2380 0 0 -580z"/>
<path d="M2584 14679 c-42 -12 -91 -69 -100 -114 -10 -53 1 -123 23 -154 11
-14 39 -36 64 -49 52 -28 129 -25 182 5 30 18 32 22 35 86 l3 67 -71 0 c-63 0
-70 -2 -70 -20 0 -17 7 -20 50 -20 l50 0 0 -34 c0 -18 -7 -39 -16 -47 -25 -21
-116 -24 -153 -4 -80 41 -81 199 -2 239 58 30 139 15 159 -29 8 -17 17 -22 32
-18 20 5 20 6 2 37 -32 56 -108 78 -188 55z"/>
<path d="M3653 14663 c-7 -2 -13 -18 -13 -34 0 -19 -5 -29 -15 -29 -8 0 -15
-6 -15 -14 0 -8 7 -16 15 -20 12 -4 15 -25 15 -100 0 -105 10 -126 60 -126 23
0 27 3 23 20 -3 11 -14 20 -24 20 -17 0 -19 9 -19 91 0 82 2 91 20 96 11 3 20
12 20 19 0 8 -9 14 -20 14 -16 0 -20 7 -20 35 0 35 -3 38 -27 28z"/>
<path d="M1840 14470 c0 -123 1 -130 20 -130 18 0 20 7 20 79 0 44 4 91 10
106 13 35 55 50 86 30 23 -15 24 -21 24 -115 0 -93 1 -100 20 -100 19 0 20 7
20 105 0 99 -2 107 -25 130 -28 29 -63 32 -105 10 -27 -14 -30 -14 -30 0 0 8
-9 15 -20 15 -19 0 -20 -7 -20 -130z"/>
<path d="M2140 14587 c-13 -7 -29 -24 -34 -39 -15 -43 12 -72 84 -92 65 -18
83 -38 57 -63 -27 -27 -77 -21 -103 13 -17 21 -26 26 -35 17 -17 -17 -1 -52
33 -69 44 -23 106 -13 135 21 44 51 25 87 -62 114 -33 10 -64 26 -69 35 -26
40 63 56 96 17 25 -31 52 -22 37 13 -20 43 -88 59 -139 33z"/>
<path d="M2860 14491 c0 -106 1 -110 26 -130 15 -12 39 -21 54 -21 15 0 39 9
54 21 l26 20 0 -20 c0 -12 6 -21 15 -21 13 0 15 21 15 130 0 109 -2 130 -15
130 -12 0 -15 -15 -15 -74 0 -40 -5 -87 -10 -103 -13 -37 -50 -56 -84 -44 -28
11 -36 44 -36 147 0 59 -3 74 -15 74 -12 0 -15 -19 -15 -109z"/>
<path d="M3164 14581 c-34 -21 -54 -65 -54 -118 0 -94 89 -150 170 -108 32 16
55 50 45 65 -10 16 -33 11 -40 -8 -14 -47 -87 -47 -119 0 -30 43 -23 48 74 48
l90 0 0 35 c0 79 -97 130 -166 86z m118 -44 c4 -7 8 -20 8 -29 0 -15 -10 -18
-64 -18 -36 0 -67 4 -70 9 -20 32 49 76 93 59 14 -5 29 -15 33 -21z"/>
<path d="M3420 14587 c-13 -7 -29 -24 -34 -39 -15 -43 12 -72 84 -92 65 -18
83 -38 57 -63 -27 -27 -77 -21 -103 13 -17 21 -26 26 -35 17 -17 -17 -1 -52
33 -69 44 -23 106 -13 135 21 44 51 25 87 -62 114 -33 10 -64 26 -69 35 -26
40 63 56 96 17 25 -31 52 -22 37 13 -20 43 -88 59 -139 33z"/>
<path d="M2360 14565 c0 -20 5 -25 25 -25 20 0 25 5 25 25 0 20 -5 25 -25 25
-20 0 -25 -5 -25 -25z"/>
<path d="M2360 14365 c0 -20 5 -25 25 -25 20 0 25 5 25 25 0 20 -5 25 -25 25
-20 0 -25 -5 -25 -25z"/>
<path d="M1531 13438 c-63 -109 -66 -217 -9 -328 18 -36 41 -66 50 -68 15 -3
12 8 -15 65 -29 61 -32 77 -32 158 0 80 3 97 32 158 39 83 19 95 -26 15z"/>
<path d="M1650 13315 c0 -168 1 -175 20 -175 18 0 20 7 20 80 l0 80 80 0 c73
0 80 2 80 20 0 18 -7 20 -80 20 l-80 0 0 55 0 55 95 0 c88 0 95 1 95 20 0 19
-7 20 -115 20 l-115 0 0 -175z"/>
<path d="M1940 13485 c0 -3 11 -28 25 -55 48 -95 49 -221 1 -325 -30 -65 -26
-83 9 -43 55 64 81 205 55 298 -12 43 -65 130 -80 130 -5 0 -10 -2 -10 -5z"/>
<path d="M2870 13315 c0 -168 1 -175 20 -175 19 0 20 7 20 93 0 104 13 130 66
130 43 0 54 -26 54 -130 0 -86 1 -93 20 -93 19 0 20 7 20 95 0 117 -14 151
-64 161 -23 4 -46 1 -65 -9 l-31 -15 0 59 c0 52 -2 59 -20 59 -19 0 -20 -7
-20 -175z"/>
<path d="M3660 13315 c0 -168 1 -175 20 -175 19 0 20 7 20 175 0 168 -1 175
-20 175 -19 0 -20 -7 -20 -175z"/>
<path d="M3780 13315 l0 -175 83 0 c92 0 137 16 171 63 17 23 21 43 21 112 0
69 -4 89 -21 112 -34 47 -79 63 -171 63 l-83 0 0 -175z m184 124 c52 -24 71
-120 40 -197 -19 -48 -47 -62 -124 -62 l-60 0 0 135 0 135 60 0 c32 0 70 -5
84 -11z"/>
<path d="M2230 13270 c0 -123 1 -130 20 -130 19 0 20 7 20 94 0 114 13 135 80
126 31 -3 40 -33 40 -127 0 -86 1 -93 20 -93 19 0 20 7 20 95 0 118 -14 151
-66 161 -22 4 -45 2 -62 -7 -15 -7 -30 -15 -34 -17 -5 -2 -8 3 -8 12 0 9 -7
16 -15 16 -13 0 -15 -21 -15 -130z"/>
<path d="M2540 13393 c-44 -17 -64 -66 -41 -101 5 -8 37 -24 72 -36 50 -17 65
-27 67 -44 7 -47 -89 -52 -110 -6 -12 27 -16 28 -38 14 -13 -8 -12 -13 6 -37
52 -71 184 -45 184 35 0 38 -22 56 -91 76 -60 17 -78 36 -53 57 25 21 74 15
94 -11 17 -23 40 -21 40 4 0 34 -86 67 -130 49z"/>
<path d="M3181 13387 c-13 -6 -30 -22 -39 -34 -13 -20 -13 -23 2 -29 11 -4 22
1 31 14 29 40 106 35 120 -8 4 -12 4 -24 1 -27 -2 -3 -36 -12 -73 -19 -100
-21 -130 -68 -78 -119 28 -29 72 -32 117 -9 28 15 32 15 40 0 5 -9 17 -16 27
-16 17 0 18 5 10 38 -5 20 -9 69 -9 107 0 39 -4 75 -8 81 -22 33 -97 44 -141
21z m119 -137 c0 -50 -63 -90 -108 -67 -29 14 -35 26 -23 46 14 21 131 41 131
21z"/>
<path d="M3434 13388 c-33 -16 -47 -54 -32 -86 10 -19 29 -31 78 -46 51 -17
65 -25 65 -41 0 -48 -100 -52 -112 -5 -6 24 -31 26 -40 4 -3 -10 4 -26 21 -42
54 -55 176 -23 176 45 0 34 -31 59 -94 77 -78 23 -88 55 -24 71 21 5 33 1 53
-19 27 -27 40 -32 49 -17 10 16 -5 41 -35 56 -32 17 -74 18 -105 3z"/>
<path d="M2750 13365 c0 -18 5 -25 20 -25 15 0 20 7 20 25 0 18 -5 25 -20 25
-15 0 -20 -7 -20 -25z"/>
<path d="M2750 13165 c0 -18 5 -25 20 -25 15 0 20 7 20 25 0 18 -5 25 -20 25
-15 0 -20 -7 -20 -25z"/>
<path d="M15570 14790 l0 -300 -1280 0 c-1273 0 -1280 0 -1280 -20 0 -20 8
-20 1276 -22 l1277 -3 -159 -140 c-87 -77 -165 -146 -173 -153 -13 -10 5 -11
97 -6 l113 7 -17 -44 c-10 -24 -259 -647 -554 -1384 -475 -1186 -535 -1340
-518 -1343 11 -2 21 -2 22 0 1 2 249 620 551 1373 302 754 550 1372 552 1374
2 3 24 -15 48 -39 l45 -44 0 -98 0 -98 2420 0 2420 0 0 620 0 620 -2420 0
-2420 0 0 -300z m4800 -320 l0 -580 -2380 0 -2380 0 0 51 c0 34 4 48 11 43 8
-5 9 6 5 37 -4 24 -9 266 -12 537 l-6 492 2381 0 2381 0 0 -580z"/>
<path d="M17690 14516 c0 -169 1 -176 20 -176 18 0 20 7 20 80 l0 80 49 0 c56
0 76 -18 128 -110 23 -41 33 -50 55 -50 l28 0 -32 53 c-17 28 -44 66 -60 83
l-29 31 25 7 c64 16 86 91 42 143 -23 27 -28 28 -135 31 l-111 4 0 -176z m212
117 c24 -21 23 -48 -2 -73 -16 -16 -33 -20 -95 -20 l-75 0 0 55 0 55 77 0 c57
0 81 -4 95 -17z"/>
<path d="M17040 14470 c0 -123 1 -130 20 -130 18 0 20 7 20 79 0 44 4 91 10
106 13 35 55 50 86 30 23 -15 24 -21 24 -115 0 -93 1 -100 20 -100 19 0 20 7
20 109 0 106 -1 110 -26 130 -31 25 -72 27 -100 6 -25 -19 -34 -19 -34 0 0 8
-9 15 -20 15 -19 0 -20 -7 -20 -130z"/>
<path d="M17339 14585 c-15 -8 -30 -26 -33 -41 -11 -42 14 -69 84 -88 65 -18
83 -38 57 -63 -27 -27 -77 -21 -103 13 -18 22 -26 26 -36 16 -18 -18 9 -59 49
-73 47 -15 98 -4 123 28 41 52 16 91 -74 117 -32 9 -60 24 -63 32 -15 40 67
53 98 16 26 -33 57 -24 43 12 -16 41 -96 57 -145 31z"/>
<path d="M18085 14591 c-45 -19 -60 -49 -60 -122 0 -60 3 -72 26 -94 33 -34
86 -42 131 -21 44 21 63 56 63 116 0 26 -6 59 -14 73 -24 45 -95 68 -146 48z
m100 -51 c22 -25 29 -89 13 -120 -27 -51 -103 -57 -128 -10 -15 28 -12 103 5
127 25 35 80 36 110 3z"/>
<path d="M18342 14585 c-43 -19 -66 -73 -58 -134 8 -61 29 -88 75 -102 47 -14
81 -7 118 25 26 22 28 30 28 95 0 63 -3 73 -26 97 -32 32 -91 40 -137 19z
m118 -55 c6 -10 10 -37 10 -60 0 -53 -12 -75 -49 -88 -35 -12 -70 3 -88 38
-38 75 18 163 88 138 16 -6 34 -18 39 -28z"/>
<path d="M18560 14470 c0 -123 1 -130 20 -130 18 0 20 7 20 83 0 114 28 158
88 136 21 -8 22 -14 22 -114 0 -98 1 -105 20 -105 18 0 20 7 20 88 0 93 12
125 49 135 11 2 29 -2 40 -10 19 -13 21 -24 21 -114 0 -92 1 -99 20 -99 19 0
20 7 20 105 0 99 -2 107 -25 130 -29 30 -59 32 -101 6 -29 -18 -31 -18 -53 0
-28 23 -53 24 -91 4 -27 -14 -30 -14 -30 0 0 8 -9 15 -20 15 -19 0 -20 -7 -20
-130z"/>
<path d="M17560 14565 c0 -20 5 -25 25 -25 20 0 25 5 25 25 0 20 -5 25 -25 25
-20 0 -25 -5 -25 -25z"/>
<path d="M17560 14365 c0 -20 5 -25 25 -25 20 0 25 5 25 25 0 20 -5 25 -25 25
-20 0 -25 -5 -25 -25z"/>
<path d="M9274 14576 c-32 -66 -36 -83 -36 -151 0 -68 4 -85 36 -151 45 -90
79 -105 38 -16 -24 51 -26 69 -27 167 0 112 1 117 53 218 2 4 -3 7 -12 7 -9 0
-30 -30 -52 -74z"/>
<path d="M9410 14475 c0 -168 1 -175 20 -175 18 0 20 7 20 80 l0 80 80 0 c73
0 80 2 80 20 0 18 -7 20 -80 20 l-80 0 0 55 0 55 90 0 c83 0 90 1 90 20 0 19
-7 20 -110 20 l-110 0 0 -175z"/>
<path d="M9692 14643 c77 -151 84 -258 24 -389 -19 -41 -22 -54 -11 -54 8 0
31 34 51 75 33 67 37 84 37 150 0 66 -4 83 -37 150 -22 44 -43 75 -52 75 -9 0
-14 -3 -12 -7z"/>
<path d="M11370 14625 c0 -18 5 -25 20 -25 15 0 20 7 20 25 0 18 -5 25 -20 25
-15 0 -20 -7 -20 -25z"/>
<path d="M12440 14590 c0 -33 -2 -60 -5 -60 -3 0 -17 7 -31 17 -34 22 -90 8
-118 -30 -24 -33 -28 -121 -6 -161 27 -51 95 -71 138 -40 20 14 22 14 22 0 0
-9 7 -16 15 -16 13 0 15 26 15 175 0 149 -2 175 -15 175 -12 0 -15 -13 -15
-60z m-46 -71 c33 -15 50 -60 43 -111 -7 -49 -26 -70 -62 -70 -36 0 -64 30
-72 75 -9 56 16 100 64 116 1 1 13 -4 27 -10z"/>
<path d="M12520 14630 c0 -18 7 -20 60 -20 l60 0 0 -155 c0 -148 1 -155 20
-155 19 0 20 7 20 155 l0 155 55 0 c48 0 55 2 55 20 0 19 -7 20 -135 20 -128
0 -135 -1 -135 -20z"/>
<path d="M9980 14430 c0 -123 1 -130 20 -130 18 0 20 7 20 79 0 44 4 91 10
106 13 35 55 50 86 30 23 -15 24 -21 24 -115 0 -93 1 -100 20 -100 19 0 20 7
20 105 0 99 -2 107 -25 130 -28 29 -63 32 -105 10 -27 -14 -30 -14 -30 0 0 8
-9 15 -20 15 -19 0 -20 -7 -20 -130z"/>
<path d="M10290 14553 c-50 -20 -66 -75 -32 -106 10 -10 43 -24 73 -33 57 -17
71 -28 62 -51 -15 -39 -106 -32 -118 8 -7 21 -13 23 -32 11 -17 -11 5 -53 37
-69 79 -40 180 22 148 91 -9 21 -26 31 -80 47 -53 16 -68 25 -68 40 0 22 41
42 67 32 10 -3 25 -15 34 -26 17 -20 39 -16 39 7 0 34 -86 67 -130 49z"/>
<path d="M10664 14546 c-31 -14 -49 -40 -38 -57 9 -15 25 -10 43 13 33 40 116
21 109 -26 -2 -17 -14 -23 -68 -32 -45 -8 -70 -19 -82 -34 -55 -68 40 -142
122 -95 32 18 40 18 40 0 0 -8 8 -15 18 -15 16 0 17 10 14 108 -3 99 -5 109
-28 130 -29 25 -82 29 -130 8z m116 -149 c0 -41 -41 -64 -102 -59 -20 2 -34
40 -20 54 6 6 28 14 49 18 66 13 73 12 73 -13z"/>
<path d="M10930 14553 c-50 -20 -66 -75 -32 -106 10 -10 43 -24 73 -33 57 -17
71 -28 62 -51 -15 -39 -106 -32 -118 8 -4 10 -9 19 -13 19 -50 -1 -13 -75 42
-86 86 -16 153 38 124 101 -9 20 -27 30 -80 46 -53 16 -68 25 -68 40 0 22 41
42 67 32 10 -3 25 -15 34 -26 17 -20 39 -16 39 7 0 34 -86 67 -130 49z"/>
<path d="M11170 14553 c-50 -20 -66 -75 -32 -106 10 -10 43 -24 73 -33 57 -17
71 -28 62 -51 -15 -39 -106 -32 -118 8 -4 10 -9 19 -13 19 -50 -1 -13 -75 42
-86 86 -16 153 38 124 101 -9 20 -27 30 -80 46 -53 16 -68 25 -68 40 0 22 41
42 67 32 10 -3 25 -15 34 -26 17 -20 39 -16 39 7 0 34 -86 67 -130 49z"/>
<path d="M11370 14430 c0 -123 1 -130 20 -130 19 0 20 7 20 130 0 123 -1 130
-20 130 -19 0 -20 -7 -20 -130z"/>
<path d="M11520 14547 c-38 -19 -62 -73 -57 -130 8 -90 73 -137 143 -104 34
17 34 17 34 -7 0 -13 -8 -34 -19 -47 -24 -30 -84 -30 -112 0 -38 41 -55 13
-20 -30 16 -20 28 -24 75 -24 47 0 60 4 83 28 28 27 28 29 31 177 4 147 3 150
-17 150 -12 0 -21 -6 -21 -15 0 -14 -3 -14 -30 0 -35 18 -57 19 -90 2z m79
-32 c34 -17 41 -33 41 -86 0 -50 -14 -77 -46 -89 -66 -25 -119 65 -83 144 9
19 36 41 57 45 2 1 16 -6 31 -14z"/>
<path d="M11740 14430 c0 -123 1 -130 20 -130 18 0 20 7 20 79 0 44 4 91 10
106 13 35 55 50 86 30 23 -15 24 -21 24 -115 0 -93 1 -100 20 -100 19 0 20 7
20 105 0 99 -2 107 -25 130 -27 28 -71 33 -101 10 -25 -19 -34 -19 -34 0 0 8
-9 15 -20 15 -19 0 -20 -7 -20 -130z"/>
<path d="M12058 14545 c-51 -29 -74 -113 -48 -179 12 -32 65 -66 103 -66 53 0
119 52 102 80 -10 16 -25 12 -48 -14 -22 -24 -35 -30 -69 -27 -23 1 -58 40
-58 63 0 16 10 18 90 18 l90 0 0 35 c0 75 -95 128 -162 90z m105 -43 c9 -8 17
-23 17 -34 0 -16 -8 -18 -64 -18 -72 0 -85 10 -62 45 24 36 71 39 109 7z"/>
<path d="M12822 14540 c-41 -25 -55 -61 -49 -129 3 -44 9 -59 31 -78 36 -31
70 -38 117 -24 47 14 70 46 76 105 13 110 -85 181 -175 126z m113 -40 c9 -10
19 -36 21 -57 9 -71 -40 -121 -97 -101 -36 13 -49 35 -49 87 0 55 8 71 43 86
35 15 59 10 82 -15z"/>
<path d="M10500 14525 c0 -20 5 -25 25 -25 20 0 25 5 25 25 0 20 -5 25 -25 25
-20 0 -25 -5 -25 -25z"/>
<path d="M10500 14325 c0 -20 5 -25 25 -25 20 0 25 5 25 25 0 20 -5 25 -25 25
-20 0 -25 -5 -25 -25z"/>
<path d="M2020 12075 c0 -168 1 -175 20 -175 17 0 20 7 20 53 0 48 12 77 31
77 4 0 25 -29 48 -65 28 -45 46 -65 61 -65 11 0 20 2 20 5 0 2 -22 40 -50 82
l-49 78 47 48 c45 46 46 47 20 47 -20 0 -38 -13 -69 -50 -23 -27 -46 -50 -51
-50 -4 0 -8 43 -8 95 0 88 -1 95 -20 95 -19 0 -20 -7 -20 -175z"/>
<path d="M2780 12076 c0 -169 1 -176 20 -176 18 0 20 7 20 80 l0 80 49 0 c55
0 67 -11 126 -112 20 -36 33 -48 51 -48 13 0 24 3 24 6 0 13 -62 109 -88 137
-22 23 -23 27 -8 27 10 0 31 13 47 29 36 37 38 79 5 118 -23 27 -28 28 -135
31 l-111 4 0 -176z m215 110 c11 -17 13 -30 6 -48 -12 -33 -28 -38 -112 -38
l-69 0 0 55 0 55 80 0 c73 0 81 -2 95 -24z"/>
<path d="M4690 12225 c0 -18 5 -25 20 -25 15 0 20 7 20 25 0 18 -5 25 -20 25
-15 0 -20 -7 -20 -25z"/>
<path d="M4577 12223 c-4 -3 -7 -19 -7 -35 0 -18 -5 -28 -15 -28 -8 0 -15 -6
-15 -14 0 -8 7 -16 15 -20 12 -4 15 -26 15 -105 0 -89 2 -101 19 -111 33 -17
61 -12 61 10 0 13 -7 20 -20 20 -25 0 -32 27 -28 115 3 64 5 70 26 73 31 5 29
32 -3 32 -22 0 -25 4 -25 35 0 33 -8 43 -23 28z"/>
<path d="M720 12030 c0 -109 2 -130 15 -130 12 0 15 14 15 68 0 123 33 176 94
153 29 -12 36 -36 36 -138 0 -67 3 -83 15 -83 12 0 15 19 15 108 0 59 -4 112
-8 118 -22 33 -86 44 -118 19 -25 -19 -34 -19 -34 0 0 8 -7 15 -15 15 -13 0
-15 -21 -15 -130z"/>
<path d="M1013 12148 c-12 -6 -27 -23 -34 -39 -17 -44 5 -69 82 -94 50 -16 64
-24 64 -40 0 -48 -100 -52 -112 -5 -6 24 -31 26 -40 4 -3 -10 4 -26 21 -42 54
-55 176 -23 176 45 0 34 -31 59 -94 77 -78 23 -88 55 -24 71 21 5 33 1 53 -19
27 -27 40 -32 49 -17 10 16 -5 41 -35 56 -32 17 -74 18 -106 3z"/>
<path d="M1360 12030 c0 -103 3 -130 14 -130 10 0 15 23 19 88 6 103 12 120
44 133 55 21 73 -17 73 -147 0 -59 3 -74 15 -74 12 0 15 16 15 83 0 114 28
158 88 136 21 -8 22 -14 22 -114 0 -98 1 -105 20 -105 19 0 20 7 20 105 0 99
-2 107 -25 130 -29 30 -64 32 -98 5 l-26 -21 -21 21 c-23 23 -68 26 -96 5 -25
-19 -34 -19 -34 0 0 8 -7 15 -15 15 -13 0 -15 -21 -15 -130z"/>
<path d="M1801 12147 c-13 -6 -30 -22 -39 -34 -13 -20 -13 -23 2 -29 11 -4 22
1 31 14 29 40 106 35 120 -8 4 -12 4 -24 1 -27 -2 -3 -36 -12 -73 -19 -100
-21 -130 -68 -78 -119 28 -29 72 -32 117 -9 28 15 32 15 40 0 5 -9 17 -16 27
-16 17 0 18 5 10 38 -5 20 -9 69 -9 107 0 39 -4 75 -8 81 -22 33 -97 44 -141
21z m119 -137 c0 -50 -63 -90 -108 -67 -29 14 -35 26 -23 46 14 21 131 41 131
21z"/>
<path d="M2304 12141 c-34 -21 -54 -65 -54 -118 0 -94 89 -150 170 -108 32 16
55 50 45 65 -10 16 -33 11 -40 -8 -8 -28 -49 -43 -83 -31 -26 9 -52 44 -52 69
0 6 40 10 90 10 l90 0 0 35 c0 79 -97 130 -166 86z m118 -44 c4 -7 8 -20 8
-29 0 -15 -10 -18 -64 -18 -36 0 -67 4 -70 9 -20 32 49 76 93 59 14 -5 29 -15
33 -21z"/>
<path d="M2560 12147 c-13 -7 -29 -24 -34 -39 -15 -43 12 -72 84 -92 65 -18
83 -38 57 -63 -27 -27 -77 -21 -103 13 -17 21 -26 26 -35 17 -17 -17 -1 -52
33 -69 44 -23 106 -13 135 21 44 51 25 87 -62 114 -33 10 -64 26 -69 35 -26
40 63 56 96 17 25 -31 52 -22 37 13 -20 43 -88 59 -139 33z"/>
<path d="M3171 12147 c-63 -32 -88 -137 -47 -199 21 -32 76 -53 119 -44 34 7
77 42 77 62 0 26 -23 26 -44 -1 -40 -50 -111 -32 -131 33 -6 22 -5 22 89 22
90 0 96 1 96 20 0 85 -88 144 -159 107z m96 -41 c6 -6 13 -20 15 -31 3 -18 -3
-20 -64 -23 -61 -3 -68 -1 -68 16 0 49 79 75 117 38z"/>
<path d="M3414 12148 c-33 -16 -47 -54 -32 -86 10 -19 29 -31 78 -46 51 -17
65 -25 65 -41 0 -48 -100 -52 -112 -5 -6 24 -31 26 -40 4 -3 -10 4 -26 21 -42
54 -55 176 -23 176 45 0 34 -31 59 -94 77 -78 23 -88 55 -24 71 21 5 33 1 53
-19 27 -27 40 -32 49 -17 10 16 -5 41 -35 56 -32 17 -74 18 -105 3z"/>
<path d="M3664 12141 c-34 -21 -54 -65 -54 -118 0 -94 89 -150 170 -108 32 16
55 50 45 65 -10 16 -33 11 -40 -8 -14 -47 -87 -47 -119 0 -30 43 -23 48 74 48
l90 0 0 35 c0 79 -97 130 -166 86z m118 -44 c4 -7 8 -20 8 -29 0 -15 -10 -18
-64 -18 -36 0 -67 4 -70 9 -20 32 49 76 93 59 14 -5 29 -15 33 -21z"/>
<path d="M3890 12030 c0 -121 1 -130 19 -130 17 0 19 9 23 100 3 107 11 124
56 125 17 0 27 5 27 15 0 22 -43 25 -66 4 -17 -16 -19 -16 -19 -1 0 10 -8 17
-20 17 -19 0 -20 -7 -20 -130z"/>
<path d="M4030 12156 c0 -4 71 -204 85 -238 4 -10 15 -18 25 -18 13 0 27 27
58 113 22 61 43 120 47 130 5 13 2 17 -13 17 -15 0 -26 -18 -52 -92 -18 -51
-36 -96 -39 -100 -4 -4 -22 37 -40 92 -26 81 -36 100 -52 100 -10 0 -19 -2
-19 -4z"/>
<path d="M4334 12146 c-35 -15 -50 -44 -34 -60 8 -8 16 -4 29 12 33 45 126 27
119 -22 -2 -17 -14 -23 -66 -32 -72 -13 -102 -35 -102 -75 0 -67 67 -84 168
-43 6 3 12 -1 12 -10 0 -10 9 -16 21 -16 15 0 19 4 15 16 -3 9 -6 55 -6 104 0
69 -4 92 -18 110 -22 28 -94 36 -138 16z m116 -149 c0 -43 -59 -74 -106 -57
-26 10 -33 43 -12 56 13 8 69 21 101 23 12 1 17 -6 17 -22z"/>
<path d="M4690 12030 c0 -123 1 -130 20 -130 19 0 20 7 20 130 0 123 -1 130
-20 130 -19 0 -20 -7 -20 -130z"/>
<path d="M4844 12145 c-42 -21 -59 -57 -58 -119 0 -65 24 -102 74 -117 46 -14
80 -7 117 25 26 22 28 30 28 95 0 63 -3 73 -26 97 -33 32 -92 41 -135 19z m85
-30 c33 -17 41 -33 41 -85 0 -52 -8 -68 -41 -85 -50 -27 -97 6 -105 72 -6 45
12 83 46 100 31 16 26 16 59 -2z"/>
<path d="M5060 12030 c0 -123 1 -130 20 -130 18 0 20 7 20 79 0 44 4 91 10
106 13 35 55 50 86 30 23 -15 24 -21 24 -115 0 -93 1 -100 20 -100 19 0 20 7
20 105 0 99 -2 107 -25 130 -28 29 -63 32 -105 10 -27 -14 -30 -14 -30 0 0 8
-9 15 -20 15 -19 0 -20 -7 -20 -130z"/>
<path d="M1240 12125 c0 -18 5 -25 20 -25 15 0 20 7 20 25 0 18 -5 25 -20 25
-15 0 -20 -7 -20 -25z"/>
<path d="M1240 11925 c0 -18 5 -25 20 -25 15 0 20 7 20 25 0 18 -5 25 -20 25
-15 0 -20 -7 -20 -25z"/>
<path d="M2767 10945 c3 -437 3 -795 -1 -795 -3 0 -47 21 -97 46 -50 25 -93
44 -95 42 -1 -2 44 -97 102 -211 l105 -207 -1206 0 -1205 0 0 -620 0 -620
2420 0 2420 0 2 418 3 418 250 -38 c205 -31 273 -37 375 -35 l125 2 -375 55
-375 56 -3 182 -2 182 -1205 0 -1205 0 105 210 c58 115 105 212 105 215 0 3
-45 -17 -100 -45 l-100 -50 0 412 c0 227 -3 585 -7 796 -6 361 -7 382 -24 382
-18 0 -18 -30 -12 -795z m2403 -1745 l0 -580 -2380 0 -2380 0 0 580 0 580
2380 0 2380 0 0 -580z"/>
<path d="M1850 9236 c0 -169 1 -176 20 -176 18 0 20 7 20 80 l0 80 48 0 c56 0
69 -11 123 -102 28 -49 38 -58 62 -58 l28 0 -37 58 c-20 31 -48 69 -62 85 -22
23 -23 27 -8 27 10 0 31 13 47 29 36 37 38 79 5 118 -23 27 -28 28 -135 31
l-111 4 0 -176z m214 112 c21 -30 20 -44 -4 -68 -16 -16 -33 -20 -95 -20 l-75
0 0 55 0 55 79 0 c71 0 82 -2 95 -22z"/>
<path d="M3760 9385 c0 -18 5 -25 20 -25 15 0 20 7 20 25 0 18 -5 25 -20 25
-15 0 -20 -7 -20 -25z"/>
<path d="M3653 9383 c-7 -2 -13 -18 -13 -34 0 -19 -5 -29 -15 -29 -8 0 -15 -6
-15 -14 0 -8 7 -16 15 -20 12 -4 15 -25 15 -100 0 -105 10 -126 60 -126 23 0
27 3 23 20 -3 11 -14 20 -24 20 -17 0 -19 9 -19 91 0 82 2 91 20 96 11 3 20
12 20 19 0 8 -9 14 -20 14 -16 0 -20 7 -20 35 0 35 -3 38 -27 28z"/>
<path d="M1200 9190 c0 -123 1 -130 20 -130 18 0 20 7 20 79 0 44 4 91 10 106
13 35 55 50 86 30 23 -15 24 -21 24 -115 0 -93 1 -100 20 -100 19 0 20 7 20
105 0 99 -2 107 -25 130 -28 29 -63 32 -105 10 -27 -14 -30 -14 -30 0 0 8 -9
15 -20 15 -19 0 -20 -7 -20 -130z"/>
<path d="M1510 9313 c-50 -20 -66 -75 -32 -106 10 -9 40 -23 66 -31 57 -17 77
-32 69 -52 -15 -39 -105 -34 -118 7 -7 21 -13 23 -32 11 -17 -11 5 -53 37 -70
32 -17 105 -9 130 13 25 23 26 76 3 98 -10 8 -44 23 -75 32 -45 13 -58 21 -58
36 0 22 40 42 67 32 10 -3 25 -15 34 -26 17 -20 39 -16 39 7 0 34 -86 67 -130
49z"/>
<path d="M2244 9310 c-42 -17 -64 -58 -64 -121 0 -51 4 -63 29 -91 26 -29 35
-33 81 -33 46 0 55 4 82 34 27 31 29 35 13 44 -14 7 -22 3 -40 -19 -15 -19
-31 -27 -53 -27 -38 0 -57 15 -71 54 l-10 29 95 0 94 0 0 25 c0 79 -83 135
-156 105z m99 -52 c28 -33 16 -43 -56 -46 -60 -3 -67 -1 -67 16 0 19 24 45 50
55 23 8 53 -2 73 -25z"/>
<path d="M2500 9313 c-44 -17 -64 -66 -41 -101 5 -8 37 -24 72 -36 50 -17 65
-27 67 -44 7 -47 -89 -52 -110 -6 -12 27 -16 28 -38 14 -13 -8 -12 -13 6 -37
52 -71 184 -45 184 35 0 38 -22 56 -91 76 -60 17 -78 36 -53 57 25 21 74 15
94 -11 17 -23 40 -21 40 4 0 34 -86 67 -130 49z"/>
<path d="M2751 9307 c-63 -32 -88 -137 -47 -199 21 -32 76 -53 119 -44 34 7
77 42 77 62 0 26 -23 26 -44 -1 -40 -50 -111 -32 -131 33 -6 22 -5 22 89 22
90 0 96 1 96 20 0 85 -88 144 -159 107z m96 -41 c6 -6 13 -20 15 -31 3 -18 -3
-20 -64 -23 -61 -3 -68 -1 -68 16 0 49 79 75 117 38z"/>
<path d="M2960 9190 c0 -121 1 -130 19 -130 17 0 19 10 23 100 2 55 8 104 14
110 6 6 24 12 40 13 18 2 29 8 29 17 0 22 -44 24 -66 4 -17 -16 -19 -16 -19
-1 0 10 -8 17 -20 17 -19 0 -20 -7 -20 -130z"/>
<path d="M3103 9308 c2 -7 24 -66 47 -130 57 -157 64 -157 124 8 25 69 46 128
46 130 0 2 -9 4 -19 4 -16 0 -26 -19 -52 -100 -19 -55 -36 -100 -39 -100 -3 0
-20 45 -39 100 -27 83 -36 100 -53 100 -12 0 -18 -5 -15 -12z"/>
<path d="M3404 9306 c-31 -14 -49 -40 -38 -57 9 -15 25 -10 43 13 33 40 116
21 109 -26 -2 -17 -14 -23 -66 -32 -34 -6 -71 -19 -82 -29 -29 -26 -26 -69 6
-94 32 -25 62 -26 111 -6 19 8 37 15 39 15 2 0 4 -7 4 -15 0 -8 8 -15 18 -15
16 0 17 10 14 108 -3 86 -7 111 -22 126 -23 24 -96 31 -136 12z m116 -149 c0
-43 -59 -74 -106 -57 -26 10 -33 43 -12 56 13 8 69 21 101 23 12 1 17 -6 17
-22z"/>
<path d="M3760 9190 c0 -123 1 -130 20 -130 19 0 20 7 20 130 0 123 -1 130
-20 130 -19 0 -20 -7 -20 -130z"/>
<path d="M3924 9311 c-42 -18 -64 -59 -64 -122 0 -51 4 -63 29 -91 26 -29 35
-33 80 -33 41 0 55 5 76 26 50 49 51 148 2 196 -26 27 -88 39 -123 24z m100
-52 c29 -27 28 -112 -2 -141 -29 -29 -79 -28 -104 1 -20 26 -25 100 -7 132 21
41 75 45 113 8z"/>
<path d="M4140 9190 c0 -109 2 -130 15 -130 12 0 15 14 15 68 0 123 33 176 94
153 29 -12 36 -36 36 -138 0 -67 3 -83 15 -83 12 0 15 19 15 108 0 59 -4 112
-8 118 -22 33 -86 44 -118 19 -25 -19 -34 -19 -34 0 0 8 -7 15 -15 15 -13 0
-15 -21 -15 -130z"/>
<path d="M1720 9285 c0 -18 5 -25 20 -25 15 0 20 7 20 25 0 18 -5 25 -20 25
-15 0 -20 -7 -20 -25z"/>
<path d="M1720 9085 c0 -18 5 -25 20 -25 15 0 20 7 20 25 0 18 -5 25 -20 25
-15 0 -20 -7 -20 -25z"/>
<path d="M13660 11115 c0 -168 1 -175 20 -175 18 0 20 7 20 79 0 44 4 91 10
106 13 35 55 50 86 30 23 -15 24 -21 24 -115 0 -93 1 -100 20 -100 19 0 20 7
20 109 0 106 -1 110 -26 130 -32 25 -64 27 -104 6 l-30 -16 0 61 c0 53 -2 60
-20 60 -19 0 -20 -7 -20 -175z"/>
<path d="M14450 11115 c0 -168 1 -175 20 -175 18 0 20 7 20 80 l0 80 39 0 c59
0 67 -6 117 -86 36 -59 51 -74 70 -74 13 0 24 2 24 5 0 14 -85 137 -103 150
-21 15 -21 15 -1 15 54 0 92 61 73 117 -16 48 -56 63 -169 63 l-90 0 0 -175z
m201 125 c24 -13 25 -57 2 -82 -13 -14 -31 -18 -90 -18 l-73 0 0 55 0 55 71 0
c39 0 79 -5 90 -10z"/>
<path d="M13020 11070 c0 -123 1 -130 20 -130 18 0 20 7 20 79 0 44 4 91 10
106 13 35 55 50 86 30 23 -15 24 -21 24 -115 0 -93 1 -100 20 -100 19 0 20 7
20 105 0 99 -2 107 -25 130 -27 28 -71 33 -101 10 -25 -19 -34 -19 -34 0 0 8
-9 15 -20 15 -19 0 -20 -7 -20 -130z"/>
<path d="M13318 11184 c-15 -8 -31 -26 -34 -39 -10 -42 17 -70 86 -89 65 -18
83 -38 57 -63 -27 -27 -77 -21 -103 13 -17 21 -26 26 -35 17 -17 -17 -1 -52
33 -69 44 -23 106 -13 135 21 44 51 25 87 -62 114 -33 10 -64 26 -69 35 -26
40 63 56 96 17 22 -28 49 -22 41 9 -12 44 -92 63 -145 34z"/>
<path d="M13974 11186 c-35 -15 -50 -44 -34 -60 8 -8 16 -4 29 12 33 45 126
27 119 -22 -2 -17 -14 -23 -66 -32 -72 -13 -102 -35 -102 -75 0 -67 67 -84
168 -43 6 3 12 -1 12 -10 0 -10 9 -16 21 -16 15 0 19 4 15 16 -3 9 -6 55 -6
104 0 69 -4 92 -18 110 -22 28 -94 36 -138 16z m116 -149 c0 -43 -59 -74 -106
-57 -26 10 -33 43 -12 56 13 8 69 21 101 23 12 1 17 -6 17 -22z"/>
<path d="M14233 11190 c-24 -10 -43 -39 -43 -66 0 -30 30 -53 91 -70 62 -17
75 -32 55 -60 -21 -27 -75 -23 -102 9 -14 16 -29 25 -38 21 -14 -5 -14 -9 0
-35 18 -36 56 -52 107 -46 62 8 96 53 77 102 -7 19 -24 29 -80 46 -55 16 -70
25 -70 40 0 22 41 42 67 32 10 -3 25 -15 34 -26 17 -20 39 -16 39 7 0 37 -88
67 -137 46z"/>
<path d="M14828 11184 c-78 -42 -77 -188 2 -229 58 -30 132 -7 155 49 52 124
-49 239 -157 180z m107 -44 c9 -10 19 -36 21 -57 9 -71 -40 -121 -97 -101 -36
13 -49 35 -49 87 0 55 8 71 43 86 35 15 59 10 82 -15z"/>
<path d="M15104 11190 c-42 -17 -64 -58 -64 -121 0 -47 5 -63 25 -87 64 -77
185 -39 200 62 16 104 -70 183 -161 146z m101 -51 c28 -28 27 -112 -3 -141
-29 -29 -80 -28 -104 1 -20 26 -25 100 -7 132 22 41 75 45 114 8z"/>
<path d="M15320 11070 c0 -123 1 -130 20 -130 19 0 20 7 20 93 0 77 3 97 18
109 30 26 51 29 72 8 17 -17 20 -34 20 -115 0 -88 1 -95 20 -95 18 0 20 8 22
102 3 97 4 103 27 114 14 7 33 9 45 5 19 -8 21 -17 24 -115 2 -98 4 -106 22
-106 19 0 20 7 20 110 0 97 -2 112 -20 130 -25 25 -71 26 -101 1 -23 -19 -24
-19 -48 0 -28 23 -70 25 -97 4 -25 -19 -34 -19 -34 0 0 8 -7 15 -15 15 -13 0
-15 -21 -15 -130z"/>
<path d="M13540 11165 c0 -20 5 -25 25 -25 20 0 25 5 25 25 0 20 -5 25 -25 25
-20 0 -25 -5 -25 -25z"/>
<path d="M13540 10965 c0 -20 5 -25 25 -25 20 0 25 5 25 25 0 20 -5 25 -25 25
-20 0 -25 -5 -25 -25z"/>
<path d="M14081 10758 c-124 -323 -866 -2159 -869 -2150 -3 9 -282 12 -1227
12 l-1224 0 -183 130 c-101 71 -186 130 -190 130 -4 0 9 -46 28 -102 18 -56
33 -102 31 -104 -1 -1 -103 13 -227 32 -180 27 -249 34 -345 32 l-120 -3 330
-49 c182 -27 337 -52 345 -57 8 -5 -452 -9 -1022 -9 l-1038 0 0 -620 0 -620
398 -1 397 -1 -125 -18 c-69 -10 -126 -19 -127 -19 -6 -2 -2 -30 5 -34 4 -3
66 4 137 14 172 24 178 24 137 -3 -30 -19 -32 -22 -18 -36 13 -13 18 -13 42 3
26 17 27 17 20 -1 -4 -11 -37 -70 -73 -133 -50 -88 -62 -116 -51 -122 7 -5 15
-9 18 -9 3 0 51 80 106 178 l100 177 1937 3 1937 2 2 302 3 302 275 46 c253
42 275 47 278 66 3 20 -4 20 -278 -26 l-280 -47 0 227 0 227 460 1146 c253
631 460 1149 460 1152 0 3 -9 5 -20 5 -12 0 -24 -9 -29 -22z m-3681 -2184 c0
-3 -18 -31 -40 -61 -22 -31 -38 -58 -36 -60 2 -2 93 26 203 62 l200 65 1222 0
1221 0 0 -580 0 -580 -2380 0 -2380 0 0 580 0 580 995 0 c547 0 995 -3 995 -6z"/>
<path d="M9571 8069 c-29 -78 -59 -157 -67 -175 -14 -33 -14 -34 10 -34 20 0
27 8 41 50 l17 50 74 0 75 0 21 -50 c17 -40 25 -50 44 -50 23 0 24 1 11 33 -7
17 -40 96 -72 175 -50 122 -61 142 -80 142 -19 0 -29 -18 -74 -141z m107 13
l29 -82 -60 0 c-43 0 -58 3 -54 13 2 6 15 45 28 84 12 40 24 71 25 70 2 -1 16
-40 32 -85z"/>
<path d="M11580 8150 c0 -33 -2 -60 -5 -60 -3 0 -17 7 -31 17 -34 22 -90 8
-118 -30 -24 -33 -28 -121 -6 -161 27 -51 95 -71 138 -40 20 14 22 14 22 0 0
-9 7 -16 15 -16 13 0 15 26 15 175 0 149 -2 175 -15 175 -12 0 -15 -13 -15
-60z m-46 -71 c33 -15 50 -60 43 -111 -7 -49 -26 -70 -62 -70 -36 0 -64 30
-72 75 -9 56 16 100 64 116 1 1 13 -4 27 -10z"/>
<path d="M12080 8185 c0 -18 5 -25 20 -25 15 0 20 7 20 25 0 18 -5 25 -20 25
-15 0 -20 -7 -20 -25z"/>
<path d="M11973 8183 c-7 -2 -13 -18 -13 -34 0 -19 -5 -29 -15 -29 -8 0 -15
-6 -15 -14 0 -8 7 -16 15 -20 12 -4 15 -25 15 -100 0 -105 10 -126 60 -126 23
0 27 3 23 20 -3 11 -14 20 -24 20 -17 0 -19 9 -19 91 0 82 2 91 20 96 11 3 20
12 20 19 0 8 -9 14 -20 14 -16 0 -20 7 -20 35 0 35 -3 38 -27 28z"/>
<path d="M8880 7990 c0 -123 1 -130 20 -130 18 0 20 7 20 79 0 44 4 91 10 106
13 35 55 50 86 30 23 -15 24 -21 24 -115 0 -93 1 -100 20 -100 19 0 20 7 20
105 0 99 -2 107 -25 130 -28 29 -63 32 -105 10 -27 -14 -30 -14 -30 0 0 8 -9
15 -20 15 -19 0 -20 -7 -20 -130z"/>
<path d="M9190 8113 c-50 -20 -66 -75 -32 -106 10 -10 43 -24 73 -33 57 -17
71 -28 62 -51 -15 -39 -106 -32 -118 8 -7 21 -13 23 -32 11 -17 -11 5 -53 37
-69 79 -40 180 22 148 91 -9 21 -26 31 -80 47 -53 16 -68 25 -68 40 0 22 41
42 67 32 10 -3 25 -15 34 -26 17 -20 39 -16 39 7 0 34 -86 67 -130 49z"/>
<path d="M9884 8101 c-96 -59 -54 -241 56 -241 50 0 109 53 96 86 -8 22 -26
17 -36 -11 -11 -29 -48 -46 -79 -38 -42 11 -64 92 -40 146 23 50 99 55 114 8
7 -23 13 -25 34 -12 12 8 12 13 -3 36 -31 47 -90 58 -142 26z"/>
<path d="M10122 8100 c-41 -25 -55 -61 -50 -128 7 -87 70 -129 152 -102 42 14
64 46 72 103 15 110 -84 182 -174 127z m111 -40 c24 -22 32 -88 15 -120 -8
-14 -26 -31 -41 -38 -22 -11 -31 -10 -55 2 -35 18 -42 33 -42 90 0 82 68 119
123 66z"/>
<path d="M10350 7990 c0 -123 1 -130 20 -130 19 0 20 7 20 93 0 50 4 97 8 103
15 22 51 35 71 25 27 -15 31 -32 31 -132 0 -82 2 -89 20 -89 18 0 20 8 22 102
3 97 4 103 27 114 14 7 33 9 45 5 19 -8 21 -17 24 -115 2 -98 4 -106 22 -106
19 0 20 7 20 106 0 58 -5 114 -10 124 -17 31 -76 37 -111 11 l-29 -21 -20 20
c-24 24 -68 26 -96 5 -25 -19 -34 -19 -34 0 0 8 -7 15 -15 15 -13 0 -15 -21
-15 -130z"/>
<path d="M10750 7990 c0 -123 1 -130 20 -130 19 0 20 7 20 93 0 50 4 97 8 103
15 22 51 35 71 25 27 -15 31 -32 31 -132 0 -82 2 -89 20 -89 18 0 20 8 22 102
3 97 4 103 27 114 14 7 33 9 45 5 19 -8 21 -17 24 -115 2 -98 4 -106 22 -106
19 0 20 7 20 110 0 97 -2 112 -20 130 -25 25 -71 26 -101 1 -23 -19 -24 -19
-48 0 -28 23 -70 25 -97 4 -25 -19 -34 -19 -34 0 0 8 -7 15 -15 15 -13 0 -15
-21 -15 -130z"/>
<path d="M11193 8104 c-32 -16 -63 -73 -63 -114 0 -43 31 -98 65 -114 41 -20
68 -20 105 -1 45 23 60 53 60 117 0 49 -4 62 -27 88 -35 39 -92 49 -140 24z
m86 -29 c34 -17 41 -33 41 -90 0 -56 -25 -88 -69 -88 -42 0 -71 30 -77 79 -6
46 12 84 46 101 31 16 26 16 59 -2z"/>
<path d="M11724 8106 c-31 -14 -49 -40 -38 -57 8 -14 31 -11 38 6 9 24 51 36
86 23 26 -8 31 -15 28 -37 -3 -24 -9 -27 -68 -37 -45 -9 -70 -19 -82 -34 -55
-68 40 -142 122 -95 32 18 40 18 40 0 0 -8 8 -15 18 -15 16 0 17 10 14 108 -3
99 -5 109 -28 130 -29 25 -82 29 -130 8z m116 -149 c0 -41 -41 -64 -102 -59
-20 2 -34 40 -20 54 6 6 28 14 49 18 66 13 73 12 73 -13z"/>
<path d="M12080 7990 c0 -123 1 -130 20 -130 19 0 20 7 20 130 0 123 -1 130
-20 130 -19 0 -20 -7 -20 -130z"/>
<path d="M12244 8111 c-42 -18 -64 -59 -64 -122 0 -50 4 -63 28 -89 57 -64
157 -45 188 35 21 55 13 105 -24 146 -29 33 -89 47 -128 30z m101 -52 c28 -28
27 -112 -3 -141 -29 -29 -80 -28 -104 1 -20 26 -25 100 -7 132 22 41 75 45
114 8z"/>
<path d="M12460 7990 c0 -123 1 -130 20 -130 19 0 20 7 20 94 0 114 13 135 80
126 31 -3 40 -33 40 -127 0 -86 1 -93 20 -93 18 0 20 7 20 89 0 48 -5 102 -10
118 -17 48 -85 69 -126 38 -25 -19 -34 -19 -34 0 0 8 -7 15 -15 15 -13 0 -15
-21 -15 -130z"/>
<path d="M9400 8085 c0 -20 5 -25 25 -25 20 0 25 5 25 25 0 20 -5 25 -25 25
-20 0 -25 -5 -25 -25z"/>
<path d="M9400 7885 c0 -20 5 -25 25 -25 20 0 25 5 25 25 0 20 -5 25 -25 25
-20 0 -25 -5 -25 -25z"/>
<path d="M17970 9115 c0 -168 -3 -305 -6 -305 -3 0 -103 30 -221 66 -118 36
-216 64 -219 62 -2 -2 24 -42 57 -87 33 -45 59 -84 57 -86 -2 -3 -188 -35
-413 -74 l-410 -69 108 -1 c87 -1 168 9 413 50 168 28 307 49 309 47 2 -2 -9
-48 -26 -102 -17 -54 -29 -99 -27 -101 2 -2 86 58 188 132 l185 135 3 -301 2
-301 2420 0 2420 0 0 620 0 620 -2420 0 -2420 0 0 -305z m4800 -315 l0 -580
-2380 0 -2380 0 0 580 0 580 2380 0 2380 0 0 -580z"/>
<path d="M19983 8995 c-36 -15 -53 -42 -53 -83 0 -39 33 -67 105 -87 89 -24
105 -34 105 -66 0 -75 -143 -80 -178 -6 -17 35 -42 36 -42 1 0 -39 48 -81 102
-89 94 -14 158 25 158 96 0 51 -24 74 -97 94 -107 29 -134 55 -97 96 33 36
144 16 144 -27 0 -8 9 -14 20 -14 11 0 20 7 20 16 0 66 -105 105 -187 69z"/>
<path d="M20910 8985 c0 -18 5 -25 20 -25 15 0 20 7 20 25 0 18 -5 25 -20 25
-15 0 -20 -7 -20 -25z"/>
<path d="M19280 8790 c0 -123 1 -130 20 -130 18 0 20 7 20 79 0 44 4 91 10
106 13 35 55 50 86 30 23 -15 24 -21 24 -115 0 -93 1 -100 20 -100 19 0 20 7
20 109 0 106 -1 110 -26 130 -31 25 -72 27 -100 6 -25 -19 -34 -19 -34 0 0 8
-9 15 -20 15 -19 0 -20 -7 -20 -130z"/>
<path d="M19579 8905 c-15 -8 -30 -26 -33 -41 -11 -42 14 -69 84 -88 65 -18
83 -38 57 -63 -27 -27 -77 -21 -103 13 -18 22 -26 26 -36 16 -18 -18 9 -59 49
-73 47 -15 98 -4 123 28 41 52 16 91 -74 117 -32 9 -60 24 -63 32 -15 40 67
53 98 16 26 -33 57 -24 43 12 -16 41 -96 57 -145 31z"/>
<path d="M20289 8905 c-31 -17 -59 -71 -59 -114 0 -84 57 -138 134 -128 62 9
112 76 64 85 -9 2 -19 -5 -22 -16 -15 -47 -87 -47 -120 0 -31 43 -23 48 79 48
106 0 107 0 79 70 -26 64 -94 88 -155 55z m113 -48 c4 -7 8 -20 8 -29 0 -15
-10 -18 -63 -18 -35 0 -66 3 -70 6 -11 12 16 53 42 62 28 10 70 -1 83 -21z"/>
<path d="M20510 8790 c0 -121 1 -130 19 -130 17 0 19 9 23 100 1 54 8 104 14
110 6 6 24 12 40 13 18 2 29 8 29 17 0 22 -44 24 -66 4 -17 -16 -19 -16 -19
-1 0 10 -8 17 -20 17 -19 0 -20 -7 -20 -130z"/>
<path d="M20653 8908 c2 -7 24 -66 47 -130 34 -93 47 -118 61 -118 11 0 19 1
19 3 0 2 20 59 45 127 25 68 45 125 45 127 0 2 -9 3 -19 3 -16 0 -26 -19 -52
-100 -19 -55 -36 -100 -39 -100 -3 0 -20 45 -39 100 -27 83 -36 100 -53 100
-12 0 -18 -5 -15 -12z"/>
<path d="M20910 8790 c0 -123 1 -130 20 -130 19 0 20 7 20 130 0 123 -1 130
-20 130 -19 0 -20 -7 -20 -130z"/>
<path d="M21074 8910 c-42 -17 -64 -58 -64 -121 0 -50 4 -63 28 -89 39 -45 97
-51 139 -16 37 31 48 65 25 73 -9 4 -18 1 -20 -5 -9 -29 -40 -54 -66 -54 -45
0 -68 31 -68 92 0 39 5 57 20 72 29 29 71 26 98 -7 21 -27 44 -27 44 0 0 7
-14 25 -31 39 -31 26 -66 32 -105 16z"/>
<path d="M21314 8910 c-42 -17 -64 -58 -64 -121 0 -51 4 -63 29 -91 26 -29 36
-33 79 -33 51 0 82 17 103 58 18 32 -20 34 -45 2 -16 -20 -32 -28 -54 -28 -38
0 -57 15 -71 54 l-10 29 95 0 94 0 0 25 c0 79 -83 135 -156 105z m99 -52 c27
-32 16 -43 -51 -46 -67 -3 -88 12 -61 44 31 38 80 38 112 2z"/>
<path d="M19800 8885 c0 -20 5 -25 25 -25 20 0 25 5 25 25 0 20 -5 25 -25 25
-20 0 -25 -5 -25 -25z"/>
<path d="M19800 8685 c0 -20 5 -25 25 -25 20 0 25 5 25 25 0 20 -5 25 -25 25
-20 0 -25 -5 -25 -25z"/>
<path d="M6200 9075 c0 -149 2 -175 15 -175 12 0 15 14 15 68 0 96 14 140 48
149 67 18 82 -5 82 -124 0 -86 1 -93 20 -93 18 0 20 7 20 83 0 105 -13 150
-46 165 -34 16 -65 15 -90 -3 -29 -19 -34 -11 -34 52 0 40 -4 53 -15 53 -13 0
-15 -26 -15 -175z"/>
<path d="M7059 9223 c-62 -163 -119 -315 -119 -319 0 -3 10 -4 21 -2 15 2 26
17 38 48 l17 45 76 3 76 3 18 -51 c15 -41 22 -50 42 -50 19 0 23 4 18 18 -4 9
-35 88 -69 174 -55 139 -65 158 -85 158 -15 0 -26 -9 -33 -27z m60 -90 c13
-38 26 -74 29 -80 3 -10 -12 -13 -56 -13 l-60 0 26 80 c15 44 29 80 32 80 3 0
16 -30 29 -67z"/>
<path d="M9020 9189 l0 -60 -22 15 c-34 24 -74 20 -110 -13 -27 -24 -32 -36
-36 -87 -3 -50 0 -64 20 -93 30 -44 70 -58 117 -41 26 9 36 10 39 1 2 -6 10
-11 18 -11 12 0 14 31 14 175 0 168 -1 175 -20 175 -18 0 -20 -7 -20 -61z
m-14 -90 c26 -29 24 -113 -3 -141 -28 -27 -72 -27 -95 2 -20 25 -24 99 -7 131
21 40 73 44 105 8z"/>
<path d="M9530 9225 c0 -18 5 -25 20 -25 15 0 20 7 20 25 0 18 -5 25 -20 25
-15 0 -20 -7 -20 -25z"/>
<path d="M9417 9223 c-4 -3 -7 -19 -7 -35 0 -18 -5 -28 -15 -28 -8 0 -15 -6
-15 -14 0 -8 7 -16 15 -20 12 -4 15 -26 15 -105 0 -89 2 -101 19 -111 33 -17
61 -12 61 10 0 13 -7 20 -20 20 -19 0 -20 7 -20 95 0 88 1 95 20 95 11 0 20 7
20 15 0 8 -9 15 -20 15 -16 0 -20 7 -20 35 0 33 -16 46 -33 28z"/>
<path d="M5560 9030 c0 -109 2 -130 15 -130 12 0 15 14 15 68 0 123 33 176 94
153 29 -12 36 -36 36 -138 0 -67 3 -83 15 -83 12 0 15 19 15 108 0 59 -4 112
-8 118 -22 33 -86 44 -118 19 -25 -19 -34 -19 -34 0 0 8 -7 15 -15 15 -13 0
-15 -21 -15 -130z"/>
<path d="M5854 9148 c-33 -16 -47 -54 -32 -86 10 -19 29 -31 78 -46 51 -17 65
-25 65 -41 0 -48 -100 -52 -112 -5 -6 24 -31 26 -40 4 -3 -10 4 -26 21 -42 54
-55 176 -23 176 45 0 34 -31 59 -94 77 -78 23 -88 55 -24 71 21 5 33 1 53 -19
27 -27 40 -32 49 -17 10 16 -5 41 -35 56 -32 17 -74 18 -105 3z"/>
<path d="M6504 9146 c-31 -14 -49 -40 -38 -57 9 -15 25 -10 43 13 33 40 116
21 109 -26 -2 -17 -14 -23 -66 -32 -34 -6 -71 -19 -82 -29 -29 -26 -26 -69 6
-94 32 -25 62 -26 111 -6 19 8 37 15 39 15 2 0 4 -7 4 -15 0 -8 8 -15 18 -15
16 0 17 10 14 108 -3 86 -7 111 -22 126 -23 24 -96 31 -136 12z m116 -149 c0
-43 -59 -74 -106 -57 -26 10 -33 43 -12 56 13 8 69 21 101 23 12 1 17 -6 17
-22z"/>
<path d="M6770 9153 c-50 -20 -66 -75 -32 -106 10 -10 43 -24 73 -33 57 -17
71 -28 62 -51 -15 -39 -106 -32 -118 8 -7 21 -13 23 -32 11 -17 -11 5 -53 37
-70 33 -17 107 -9 130 14 50 53 24 102 -70 128 -47 13 -60 21 -60 37 0 22 40
42 67 32 10 -3 25 -15 34 -26 17 -20 39 -16 39 7 0 34 -86 67 -130 49z"/>
<path d="M7343 9150 c-35 -14 -63 -68 -63 -121 0 -91 74 -150 150 -119 32 13
66 63 55 80 -11 19 -33 10 -39 -15 -12 -49 -90 -53 -115 -6 -6 11 -11 38 -11
61 0 51 14 78 46 90 23 9 74 -4 74 -19 1 -17 19 -31 33 -25 15 5 15 9 1 35
-22 44 -78 60 -131 39z"/>
<path d="M7584 9151 c-42 -18 -64 -59 -64 -122 0 -51 4 -63 29 -91 26 -29 36
-33 79 -33 40 0 56 5 76 24 55 51 56 150 2 200 -26 25 -89 36 -122 22z m100
-52 c29 -27 28 -112 -2 -141 -29 -29 -79 -28 -104 1 -20 26 -25 100 -7 132 21
41 75 45 113 8z"/>
<path d="M7800 9030 c0 -123 1 -130 20 -130 19 0 20 7 20 93 0 59 5 99 13 109
18 24 51 30 72 14 16 -12 20 -30 23 -115 3 -77 8 -101 18 -101 11 0 14 19 14
83 0 114 28 158 88 136 21 -8 22 -14 22 -114 0 -98 1 -105 20 -105 19 0 20 7
20 105 0 99 -2 107 -25 130 -29 30 -64 32 -98 5 l-26 -21 -21 21 c-23 23 -68
26 -96 5 -25 -19 -34 -19 -34 0 0 8 -7 15 -15 15 -13 0 -15 -21 -15 -130z"/>
<path d="M8200 9030 c0 -123 1 -130 20 -130 19 0 20 7 20 93 0 59 5 99 13 109
18 24 51 30 72 14 16 -12 20 -30 23 -115 3 -77 8 -101 18 -101 11 0 14 19 14
83 0 114 28 158 88 136 21 -8 22 -14 22 -114 0 -98 1 -105 20 -105 19 0 20 7
20 105 0 99 -2 107 -25 130 -29 30 -64 32 -98 5 l-26 -21 -21 21 c-23 23 -68
26 -96 5 -25 -19 -34 -19 -34 0 0 8 -7 15 -15 15 -13 0 -15 -21 -15 -130z"/>
<path d="M8634 9141 c-73 -45 -70 -187 5 -225 85 -44 171 13 171 114 0 104
-93 162 -176 111z m125 -57 c47 -105 -60 -203 -123 -112 -33 47 -12 129 38
147 30 12 71 -6 85 -35z"/>
<path d="M9174 9146 c-35 -15 -50 -44 -34 -60 8 -8 16 -4 29 12 33 45 126 27
119 -22 -2 -17 -14 -23 -66 -32 -72 -13 -102 -35 -102 -75 0 -67 67 -84 168
-43 6 3 12 -1 12 -10 0 -10 9 -16 21 -16 15 0 19 4 15 16 -3 9 -6 55 -6 104 0
69 -4 92 -18 110 -22 28 -94 36 -138 16z m116 -149 c0 -43 -59 -74 -106 -57
-26 10 -33 43 -12 56 13 8 69 21 101 23 12 1 17 -6 17 -22z"/>
<path d="M9530 9030 c0 -123 1 -130 20 -130 19 0 20 7 20 130 0 123 -1 130
-20 130 -19 0 -20 -7 -20 -130z"/>
<path d="M9683 9144 c-32 -16 -63 -73 -63 -114 0 -43 31 -98 65 -114 41 -20
68 -20 105 -1 45 23 60 53 60 117 0 49 -4 62 -27 88 -35 39 -92 49 -140 24z
m86 -29 c34 -17 41 -33 41 -90 0 -56 -25 -88 -69 -88 -42 0 -71 30 -77 79 -6
46 12 84 46 101 31 16 26 16 59 -2z"/>
<path d="M9900 9030 c0 -123 1 -130 20 -130 18 0 20 7 20 79 0 44 4 91 10 106
13 35 55 50 86 30 23 -15 24 -21 24 -115 0 -93 1 -100 20 -100 19 0 20 7 20
105 0 99 -2 107 -25 130 -28 29 -63 32 -105 10 -27 -14 -30 -14 -30 0 0 8 -9
15 -20 15 -19 0 -20 -7 -20 -130z"/>
<path d="M6080 9125 c0 -18 5 -25 20 -25 15 0 20 7 20 25 0 18 -5 25 -20 25
-15 0 -20 -7 -20 -25z"/>
<path d="M6080 8925 c0 -18 5 -25 20 -25 15 0 20 7 20 25 0 18 -5 25 -20 25
-15 0 -20 -7 -20 -25z"/>
<path d="M14728 8519 c-10 -5 -20 -25 -24 -44 -3 -20 -12 -35 -20 -35 -8 0
-14 -7 -14 -15 0 -8 7 -15 15 -15 12 0 15 -19 15 -115 0 -108 1 -115 20 -115
18 0 20 8 22 113 l3 112 40 0 40 0 3 -112 c2 -104 4 -113 22 -113 18 0 20 9
22 113 3 108 4 112 26 115 31 5 28 32 -4 32 -21 0 -25 4 -22 23 2 16 11 23 31
25 39 5 39 42 -1 42 -41 0 -72 -26 -72 -61 0 -28 -2 -29 -46 -29 -41 0 -45 2
-42 22 2 16 12 24 33 28 18 3 31 12 33 23 3 13 -3 17 -30 17 -18 0 -41 -5 -50
-11z"/>
<path d="M15693 8523 c-25 -5 -73 -57 -73 -78 0 -54 33 -80 141 -109 66 -18
84 -36 75 -71 -16 -65 -165 -56 -182 10 -4 16 -13 25 -25 25 -45 0 -3 -82 53
-105 95 -38 198 7 198 87 0 46 -37 76 -120 99 -97 26 -119 50 -80 89 14 14 33
20 65 20 44 0 85 -24 85 -50 0 -5 9 -10 20 -10 42 0 8 63 -46 86 -32 14 -66
16 -111 7z"/>
<path d="M16610 8505 c0 -18 5 -25 20 -25 15 0 20 7 20 25 0 18 -5 25 -20 25
-15 0 -20 -7 -20 -25z"/>
<path d="M13790 8310 c0 -123 1 -130 20 -130 19 0 20 7 20 93 0 104 13 130 66
130 43 0 54 -26 54 -130 0 -86 1 -93 20 -93 19 0 20 7 20 98 0 58 -5 107 -13
122 -18 36 -74 48 -117 26 -40 -20 -40 -20 -40 -1 0 8 -7 15 -15 15 -13 0 -15
-21 -15 -130z"/>
<path d="M14084 8428 c-30 -14 -46 -52 -34 -82 6 -16 24 -29 57 -41 89 -31 95
-35 91 -53 -2 -9 -15 -23 -30 -30 -33 -15 -78 -1 -85 29 -3 11 -12 19 -21 17
-24 -5 -24 -22 -2 -51 50 -64 180 -36 180 38 0 36 -30 61 -94 79 -78 23 -88
55 -24 71 21 5 33 1 53 -19 27 -27 40 -32 49 -17 10 16 -5 41 -35 56 -32 17
-74 18 -105 3z"/>
<path d="M14473 8424 c-20 -10 -37 -30 -47 -55 -20 -49 -20 -69 0 -118 30 -77
131 -93 187 -31 23 26 27 39 27 90 0 51 -4 64 -27 90 -35 39 -92 49 -140 24z
m110 -46 c24 -28 23 -108 -1 -139 -24 -29 -75 -30 -103 -2 -11 11 -23 38 -25
59 -11 90 74 145 129 82z"/>
<path d="M14994 8421 c-34 -21 -54 -64 -54 -118 0 -94 89 -150 170 -108 32 16
55 50 45 65 -10 16 -33 11 -40 -8 -14 -47 -87 -47 -119 0 -31 43 -23 48 80 48
l96 0 -6 28 c-24 102 -95 140 -172 93z m118 -44 c4 -7 8 -20 8 -29 0 -15 -10
-18 -63 -18 -35 0 -66 3 -70 6 -11 12 16 53 42 62 28 10 70 -1 83 -21z"/>
<path d="M15220 8310 c0 -123 1 -130 20 -130 19 0 20 7 20 95 0 80 3 98 19
114 12 12 28 17 39 14 12 -3 22 1 25 11 9 24 -37 32 -68 12 -22 -14 -25 -15
-25 -1 0 8 -7 15 -15 15 -13 0 -15 -21 -15 -130z"/>
<path d="M15413 8430 c-24 -10 -43 -39 -43 -66 0 -30 30 -53 91 -70 62 -17 75
-32 55 -60 -21 -27 -75 -23 -102 9 -14 16 -29 25 -38 21 -14 -5 -14 -9 0 -35
18 -36 56 -52 107 -46 62 8 96 53 77 102 -7 19 -24 29 -80 46 -55 16 -70 25
-70 40 0 22 41 42 67 32 10 -3 25 -15 34 -26 17 -20 39 -16 39 7 0 37 -88 67
-137 46z"/>
<path d="M15994 8430 c-42 -17 -64 -58 -64 -121 0 -51 4 -63 29 -91 26 -29 36
-33 79 -33 51 0 82 17 103 58 18 32 -20 34 -45 2 -41 -51 -126 -26 -126 36 0
17 8 19 90 19 90 0 90 0 90 25 0 79 -83 135 -156 105z m99 -52 c27 -32 16 -43
-51 -46 -67 -3 -88 12 -61 44 31 38 80 38 112 2z"/>
<path d="M16210 8310 c0 -123 1 -130 20 -130 19 0 20 7 20 99 0 90 2 101 21
115 12 8 28 12 36 9 8 -3 19 2 26 11 10 14 19 -2 57 -106 61 -166 69 -166 131
5 44 120 46 128 26 125 -17 -2 -28 -23 -56 -102 -19 -55 -37 -95 -39 -90 -2 5
-18 50 -35 99 l-32 90 -50 2 c-29 1 -59 -5 -72 -13 -20 -13 -23 -13 -23 1 0 8
-7 15 -15 15 -13 0 -15 -21 -15 -130z"/>
<path d="M16610 8310 c0 -123 1 -130 20 -130 19 0 20 7 20 130 0 123 -1 130
-20 130 -19 0 -20 -7 -20 -130z"/>
<path d="M16754 8421 c-76 -47 -70 -190 9 -227 46 -22 99 -12 127 23 11 15 19
33 18 42 -5 25 -27 24 -38 -3 -19 -51 -95 -51 -119 0 -25 56 -6 127 38 142 33
12 67 -1 76 -28 4 -12 13 -20 23 -18 25 5 25 24 0 53 -31 36 -91 43 -134 16z"/>
<path d="M16994 8421 c-74 -45 -70 -187 7 -226 45 -24 107 -14 137 20 13 15
21 32 19 39 -6 19 -35 18 -41 -2 -15 -47 -87 -47 -120 0 -31 43 -23 48 80 48
l96 0 -6 28 c-24 102 -95 140 -172 93z m118 -44 c4 -7 8 -20 8 -29 0 -15 -10
-18 -63 -18 -35 0 -66 3 -70 6 -11 12 16 53 42 62 28 10 70 -1 83 -21z"/>
<path d="M14310 8405 c0 -18 5 -25 20 -25 15 0 20 7 20 25 0 18 -5 25 -20 25
-15 0 -20 -7 -20 -25z"/>
<path d="M14310 8205 c0 -18 5 -25 20 -25 15 0 20 7 20 25 0 18 -5 25 -20 25
-15 0 -20 -7 -20 -25z"/>
<path d="M9017 7198 c-49 -32 -52 -35 -39 -55 5 -9 21 -4 55 19 49 32 52 35
39 55 -5 9 -21 4 -55 -19z"/>
<path d="M8812 7062 c-39 -25 -51 -51 -26 -59 15 -5 96 56 92 69 -7 21 -22 18
-66 -10z"/>
<path d="M8613 6929 c-45 -32 -52 -46 -29 -55 20 -8 98 46 94 64 -5 25 -21 23
-65 -9z"/>
<path d="M8413 6792 c-46 -29 -47 -30 -34 -51 7 -10 19 -6 60 21 39 26 48 37
39 46 -16 16 -17 16 -65 -16z"/>
<path d="M8217 6660 c-26 -16 -47 -34 -47 -40 0 -24 32 -20 75 10 37 26 44 34
34 46 -14 17 -7 19 -62 -16z"/>
<path d="M8030 6534 c-19 -14 -42 -29 -50 -34 -13 -8 -13 -10 0 -24 13 -12 21
-10 62 18 41 28 46 35 35 49 -11 14 -16 13 -47 -9z"/>
<path d="M7813 6389 c-27 -19 -40 -35 -37 -44 9 -21 20 -19 69 15 29 20 42 35
39 45 -9 21 -23 18 -71 -16z"/>
<path d="M7618 6256 c-38 -26 -44 -35 -37 -49 9 -16 14 -14 57 15 26 17 49 33
51 35 3 2 -2 10 -10 17 -12 12 -21 10 -61 -18z"/>
<path d="M5690 6214 c-132 -25 -241 -83 -336 -178 -79 -80 -121 -148 -156
-251 -33 -100 -33 -270 0 -370 35 -103 77 -171 156 -251 122 -122 240 -172
421 -181 101 -5 116 -3 190 22 117 40 181 79 265 164 58 58 85 96 115 158 22
45 43 77 46 71 5 -7 25 0 59 22 46 29 50 35 36 48 -13 14 -19 12 -56 -12 l-40
-26 7 42 c5 24 8 88 8 143 -1 169 -55 297 -179 421 -121 120 -242 173 -411
179 -55 2 -111 1 -125 -1z m289 -67 c172 -60 306 -196 362 -369 34 -102 34
-253 1 -353 -30 -91 -37 -102 -54 -87 -11 8 -24 4 -61 -20 -26 -17 -47 -34
-47 -39 0 -20 30 -20 57 -2 53 37 57 38 37 4 -27 -46 -110 -128 -170 -168 -51
-34 -173 -82 -208 -83 -14 0 -16 3 -7 14 8 10 8 16 -2 24 -10 8 -24 4 -58 -19
-40 -28 -49 -30 -102 -25 -216 21 -410 176 -484 387 -112 321 79 669 413 754
89 22 231 14 323 -18z"/>
<path d="M5610 5815 l0 -25 160 0 160 0 0 25 0 25 -160 0 -160 0 0 -25z"/>
<path d="M5610 5665 l0 -25 160 0 160 0 0 25 0 25 -160 0 -160 0 0 -25z"/>
<path d="M5610 5515 l0 -25 160 0 160 0 0 25 0 25 -160 0 -160 0 0 -25z"/>
<path d="M6027 5184 c-40 -29 -46 -38 -37 -50 11 -12 16 -12 39 2 62 37 72 48
59 66 -12 16 -17 14 -61 -18z"/>
<path d="M7412 6119 c-34 -25 -41 -34 -31 -45 9 -10 16 -11 33 -2 49 25 75 49
69 63 -8 21 -22 18 -71 -16z"/>
<path d="M7219 5987 c-38 -26 -44 -35 -36 -49 11 -16 25 -10 105 47 5 4 -10
35 -17 34 -3 0 -27 -14 -52 -32z"/>
<path d="M7018 5853 c-38 -25 -47 -46 -28 -58 13 -8 102 54 97 68 -6 21 -31
17 -69 -10z"/>
<path d="M6821 5720 c-40 -29 -48 -49 -25 -57 15 -5 96 56 92 69 -8 22 -24 18
-67 -12z"/>
<path d="M6627 5588 c-49 -32 -52 -35 -39 -55 5 -9 21 -4 55 19 49 32 52 35
39 55 -5 9 -21 4 -55 -19z"/>
<path d="M12787 5183 c-16 -15 0 -26 131 -92 l137 -70 -992 0 c-986 -1 -993
-1 -993 -21 0 -17 7 -20 50 -20 l50 0 0 -600 0 -600 2020 0 2020 0 0 620 0
620 -1030 0 -1030 0 -170 85 c-173 86 -182 90 -193 78z m131 -274 c-76 -38
-138 -74 -138 -79 0 -28 41 -14 199 64 l171 86 1010 0 1010 0 0 -580 0 -580
-1980 0 -1980 0 0 580 0 580 923 -1 922 0 -137 -70z"/>
<path d="M12970 4435 c0 -168 1 -175 20 -175 18 0 20 7 20 85 l0 85 90 0 90 0
0 -85 c0 -84 0 -85 25 -85 l25 0 0 175 0 175 -25 0 c-24 0 -25 -2 -25 -70 l0
-70 -90 0 -90 0 0 70 c0 63 -2 70 -20 70 -19 0 -20 -7 -20 -175z"/>
<path d="M13980 4435 c0 -168 1 -175 20 -175 19 0 20 7 20 175 0 168 -1 175
-20 175 -19 0 -20 -7 -20 -175z"/>
<path d="M13597 4583 c-4 -3 -7 -19 -7 -35 0 -21 -5 -28 -20 -28 -11 0 -20 -6
-20 -14 0 -7 9 -16 20 -19 18 -5 20 -14 20 -106 0 -89 2 -101 19 -111 11 -5
29 -10 40 -10 30 0 28 38 -1 42 -22 3 -23 7 -23 93 0 86 1 90 23 93 31 5 29
32 -3 32 -22 0 -25 4 -25 35 0 33 -8 43 -23 28z"/>
<path d="M12320 4390 c0 -123 1 -130 20 -130 18 0 20 7 20 79 0 44 4 91 10
106 13 35 55 50 86 30 23 -15 24 -21 24 -115 0 -93 1 -100 20 -100 19 0 20 7
20 105 0 99 -2 107 -25 130 -27 28 -71 33 -101 10 -25 -19 -34 -19 -34 0 0 8
-9 15 -20 15 -19 0 -20 -7 -20 -130z"/>
<path d="M12618 4504 c-15 -8 -31 -26 -34 -39 -10 -42 17 -70 86 -89 65 -18
83 -38 57 -63 -27 -27 -77 -21 -103 13 -17 21 -26 26 -35 17 -17 -17 -1 -52
33 -69 44 -23 106 -13 135 21 44 51 25 87 -62 114 -33 10 -64 26 -69 35 -26
40 63 56 96 17 22 -28 49 -22 41 9 -12 44 -92 63 -145 34z"/>
<path d="M13364 4511 c-42 -18 -64 -59 -64 -122 0 -50 4 -63 28 -89 57 -64
157 -45 188 35 21 55 13 105 -24 146 -29 33 -89 47 -128 30z m101 -52 c28 -28
27 -112 -3 -141 -29 -29 -80 -28 -104 1 -20 26 -25 100 -7 132 22 41 75 45
114 8z"/>
<path d="M13758 4505 c-51 -29 -74 -113 -48 -179 12 -32 65 -66 103 -66 53 0
119 52 102 80 -10 16 -25 12 -48 -14 -22 -24 -35 -30 -69 -27 -23 1 -58 40
-58 63 0 16 10 18 90 18 l90 0 0 35 c0 75 -95 128 -162 90z m105 -43 c9 -8 17
-23 17 -34 0 -16 -8 -18 -64 -18 -72 0 -85 10 -62 45 24 36 71 39 109 7z"/>
<path d="M12840 4485 c0 -20 5 -25 25 -25 20 0 25 5 25 25 0 20 -5 25 -25 25
-20 0 -25 -5 -25 -25z"/>
<path d="M12840 4285 c0 -20 5 -25 25 -25 20 0 25 5 25 25 0 20 -5 25 -25 25
-20 0 -25 -5 -25 -25z"/>
<path d="M6030 5000 c0 -18 7 -20 60 -20 53 0 60 2 60 20 0 18 -7 20 -60 20
-53 0 -60 -2 -60 -20z"/>
<path d="M6270 5000 c0 -18 7 -20 60 -20 53 0 60 2 60 20 0 18 -7 20 -60 20
-53 0 -60 -2 -60 -20z"/>
<path d="M6510 5000 c0 -18 7 -20 60 -20 53 0 60 2 60 20 0 18 -7 20 -60 20
-53 0 -60 -2 -60 -20z"/>
<path d="M6750 5000 c0 -18 7 -20 60 -20 53 0 60 2 60 20 0 18 -7 20 -60 20
-53 0 -60 -2 -60 -20z"/>
<path d="M6990 5000 c0 -18 7 -20 60 -20 53 0 60 2 60 20 0 18 -7 20 -60 20
-53 0 -60 -2 -60 -20z"/>
<path d="M7230 5000 c0 -18 7 -20 60 -20 53 0 60 2 60 20 0 18 -7 20 -60 20
-53 0 -60 -2 -60 -20z"/>
<path d="M7470 5000 c0 -18 7 -20 60 -20 53 0 60 2 60 20 0 18 -7 20 -60 20
-53 0 -60 -2 -60 -20z"/>
<path d="M7710 5000 c0 -18 7 -20 60 -20 53 0 60 2 60 20 0 18 -7 20 -60 20
-53 0 -60 -2 -60 -20z"/>
<path d="M7950 5000 c0 -18 7 -20 60 -20 53 0 60 2 60 20 0 18 -7 20 -60 20
-53 0 -60 -2 -60 -20z"/>
<path d="M8190 5000 c0 -18 7 -20 60 -20 53 0 60 2 60 20 0 18 -7 20 -60 20
-53 0 -60 -2 -60 -20z"/>
<path d="M8430 5000 c0 -18 7 -20 60 -20 53 0 60 2 60 20 0 18 -7 20 -60 20
-53 0 -60 -2 -60 -20z"/>
<path d="M8670 5000 c0 -18 7 -20 60 -20 53 0 60 2 60 20 0 18 -7 20 -60 20
-53 0 -60 -2 -60 -20z"/>
<path d="M8910 5000 c0 -18 7 -20 60 -20 53 0 60 2 60 20 0 18 -7 20 -60 20
-53 0 -60 -2 -60 -20z"/>
<path d="M9150 5000 c0 -18 7 -20 60 -20 53 0 60 2 60 20 0 18 -7 20 -60 20
-53 0 -60 -2 -60 -20z"/>
<path d="M9390 5000 c0 -18 7 -20 60 -20 53 0 60 2 60 20 0 18 -7 20 -60 20
-53 0 -60 -2 -60 -20z"/>
<path d="M9630 5000 c0 -18 7 -20 60 -20 53 0 60 2 60 20 0 18 -7 20 -60 20
-53 0 -60 -2 -60 -20z"/>
<path d="M9870 5000 c0 -18 7 -20 60 -20 53 0 60 2 60 20 0 18 -7 20 -60 20
-53 0 -60 -2 -60 -20z"/>
<path d="M10110 5000 c0 -18 7 -20 60 -20 53 0 60 2 60 20 0 18 -7 20 -60 20
-53 0 -60 -2 -60 -20z"/>
<path d="M10350 5000 c0 -18 7 -20 60 -20 53 0 60 2 60 20 0 18 -7 20 -60 20
-53 0 -60 -2 -60 -20z"/>
<path d="M10590 5000 c0 -18 7 -20 60 -20 53 0 60 2 60 20 0 18 -7 20 -60 20
-53 0 -60 -2 -60 -20z"/>
<path d="M10830 5000 c0 -18 7 -20 60 -20 53 0 60 2 60 20 0 18 -7 20 -60 20
-53 0 -60 -2 -60 -20z"/>
<path d="M2163 2661 c-997 -416 -1813 -758 -1813 -761 0 -3 819 -346 1820
-763 l1820 -759 1812 755 1812 755 179 -90 c165 -82 207 -96 207 -68 0 5 -70
45 -155 87 -85 43 -155 80 -155 83 0 3 70 40 155 83 85 42 155 82 155 87 0 28
-42 14 -207 -68 l-179 -90 -1810 754 c-995 415 -1813 753 -1819 753 -5 -1
-826 -342 -1822 -758z m3601 -21 c971 -404 1765 -737 1765 -740 0 -3 -796
-337 -1769 -742 l-1770 -736 -1770 736 c-973 405 -1769 739 -1769 742 0 6
3531 1479 3541 1477 4 -1 801 -333 1772 -737z"/>
<path d="M2590 2195 c0 -168 1 -175 20 -175 19 0 20 7 20 175 0 168 -1 175
-20 175 -19 0 -20 -7 -20 -175z"/>
<path d="M2915 2356 c-82 -36 -118 -150 -76 -242 38 -84 137 -116 220 -72 63
34 83 75 79 163 -4 82 -22 114 -84 145 -46 23 -96 25 -139 6z m133 -42 c33
-23 52 -67 52 -119 0 -83 -43 -135 -113 -135 -58 0 -93 23 -112 74 -26 68 -5
154 44 181 35 19 101 19 129 -1z"/>
<path d="M3200 2195 c0 -168 1 -175 20 -175 11 0 20 7 20 16 0 14 2 14 22 0
37 -26 76 -20 114 18 31 31 34 40 34 90 0 67 -15 103 -51 122 -36 18 -53 18
-89 -1 l-30 -16 0 61 c0 53 -2 60 -20 60 -19 0 -20 -7 -20 -175z m146 31 c24
-20 28 -31 28 -75 0 -60 -25 -93 -70 -93 -39 0 -64 34 -64 89 0 52 13 81 43
93 32 13 33 12 63 -14z"/>
<path d="M3470 2345 c0 -18 5 -25 20 -25 15 0 20 7 20 25 0 18 -5 25 -20 25
-15 0 -20 -7 -20 -25z"/>
<path d="M4220 2195 c0 -168 1 -175 20 -175 18 0 20 7 20 70 l0 70 64 0 c34 0
77 5 95 11 51 18 74 83 51 144 -14 38 -65 55 -165 55 l-85 0 0 -175z m200 115
c11 -11 20 -31 20 -45 0 -46 -32 -65 -110 -65 l-70 0 0 65 0 65 70 0 c57 0 74
-4 90 -20z"/>
<path d="M4103 2343 c-7 -2 -13 -18 -13 -34 0 -19 -5 -29 -15 -29 -8 0 -15 -6
-15 -14 0 -8 7 -16 15 -20 12 -4 15 -25 15 -99 0 -78 3 -97 18 -110 25 -23 77
-23 68 -1 -3 9 -6 18 -6 20 0 2 -9 4 -20 4 -19 0 -20 7 -20 91 0 82 2 91 20
96 11 3 20 12 20 19 0 8 -9 14 -20 14 -16 0 -20 7 -20 35 0 35 -3 38 -27 28z"/>
<path d="M5677 2343 c-4 -3 -7 -19 -7 -34 0 -30 -28 -43 -68 -32 -13 3 -33 -2
-47 -11 -22 -14 -25 -15 -25 -1 0 8 -7 15 -15 15 -13 0 -15 -21 -15 -130 0
-123 1 -130 20 -130 19 0 20 7 20 95 0 81 3 98 20 115 11 11 26 17 36 13 9 -3
19 0 24 7 6 9 12 9 29 1 19 -11 21 -20 21 -111 0 -88 2 -100 19 -110 33 -17
61 -12 61 10 0 13 -7 20 -20 20 -25 0 -32 27 -28 115 3 64 5 70 26 73 31 5 29
32 -3 32 -22 0 -25 4 -25 35 0 33 -8 43 -23 28z"/>
<path d="M1515 2255 c-137 -60 -137 -70 -3 -124 116 -46 121 -47 116 -25 -2
11 -35 29 -88 50 l-85 33 88 40 c53 25 87 47 87 56 0 21 -2 20 -115 -30z"/>
<path d="M1795 2255 c-137 -60 -137 -70 -3 -124 116 -46 121 -47 116 -25 -2
11 -35 29 -88 50 l-85 33 88 40 c53 25 87 47 87 56 0 21 -2 20 -115 -30z"/>
<path d="M6032 2283 c2 -10 35 -31 85 -52 46 -20 83 -38 83 -41 0 -3 -37 -19
-81 -35 -74 -27 -101 -46 -86 -61 3 -4 52 12 109 34 139 55 139 66 4 127 -111
50 -119 52 -114 28z"/>
<path d="M6312 2283 c2 -10 35 -31 85 -52 46 -20 83 -38 83 -41 0 -3 -37 -19
-81 -35 -74 -27 -101 -46 -86 -61 3 -4 52 12 109 34 139 55 139 66 4 127 -111
50 -119 52 -114 28z"/>
<path d="M2014 2261 c-73 -45 -70 -187 5 -225 85 -44 171 13 171 114 0 104
-93 162 -176 111z m125 -57 c47 -105 -60 -203 -123 -112 -33 47 -12 129 38
147 30 12 71 -6 85 -35z"/>
<path d="M2249 2153 c32 -108 41 -128 59 -131 22 -3 24 1 53 123 6 28 15 53
18 58 4 4 17 -36 30 -89 21 -85 25 -95 44 -92 17 2 27 24 59 128 21 69 38 126
38 128 0 1 -9 2 -19 2 -12 0 -21 -10 -26 -27 -21 -90 -48 -164 -55 -153 -4 7
-16 50 -26 96 -16 74 -21 84 -40 84 -20 0 -25 -11 -45 -95 -13 -52 -26 -95
-29 -95 -4 0 -18 42 -31 93 -21 77 -28 93 -46 95 -21 3 -20 -1 16 -125z"/>
<path d="M3470 2120 c0 -99 -4 -160 -10 -161 -5 -1 -16 -2 -22 -3 -7 0 -14 -9
-16 -18 -5 -25 42 -24 68 2 18 18 20 33 20 180 0 153 -1 160 -20 160 -19 0
-20 -7 -20 -160z"/>
<path d="M3631 2267 c-63 -32 -88 -137 -47 -199 21 -32 76 -53 119 -44 34 7
77 42 77 62 0 26 -23 26 -44 -1 -40 -50 -111 -32 -131 33 -6 22 -5 22 89 22
90 0 96 1 96 20 0 85 -88 144 -159 107z m96 -41 c6 -6 13 -20 15 -31 3 -18 -3
-20 -64 -23 -61 -3 -68 -1 -68 16 0 49 79 75 117 38z"/>
<path d="M3884 2261 c-96 -59 -54 -241 56 -241 50 0 109 53 96 86 -8 22 -26
17 -36 -11 -13 -34 -54 -49 -88 -33 -55 26 -56 145 -2 173 35 18 75 7 85 -24
7 -23 13 -25 34 -12 12 8 12 13 -3 36 -31 47 -90 58 -142 26z"/>
<path d="M4540 2150 c0 -103 3 -130 14 -130 10 0 15 24 18 97 5 83 8 99 27
114 11 9 29 15 40 12 11 -3 21 2 24 11 9 24 -37 32 -68 12 -22 -14 -25 -15
-25 -1 0 8 -7 15 -15 15 -13 0 -15 -21 -15 -130z"/>
<path d="M4734 2261 c-73 -45 -70 -187 5 -225 85 -44 171 13 171 114 0 104
-93 162 -176 111z m125 -57 c36 -79 -18 -168 -85 -143 -50 18 -71 100 -38 147
33 47 100 45 123 -4z"/>
<path d="M4960 2100 c0 -173 1 -180 20 -180 18 0 20 7 20 66 l0 65 22 -15 c34
-24 74 -20 108 12 82 73 42 232 -58 232 -11 0 -31 -9 -46 -21 l-26 -20 0 20
c0 14 -6 21 -20 21 -19 0 -20 -7 -20 -180z m147 126 c24 -21 28 -32 28 -75 0
-59 -26 -93 -71 -93 -39 0 -64 34 -63 86 1 54 10 75 40 92 32 18 34 18 66 -10z"/>
<path d="M5274 2262 c-40 -26 -58 -70 -52 -132 8 -80 68 -125 144 -106 26 7
74 51 74 68 0 21 -31 18 -52 -6 -23 -24 -35 -30 -70 -27 -25 1 -58 37 -58 61
0 19 7 20 90 20 l90 0 0 35 c0 79 -97 130 -166 87z m110 -42 c33 -32 14 -50
-53 -50 -65 0 -78 8 -61 40 22 42 76 46 114 10z"/>
<path d="M5773 2268 c81 -217 91 -251 76 -277 -8 -14 -25 -27 -37 -29 -31 -5
-30 -42 1 -42 39 0 62 38 121 198 31 84 56 155 56 157 0 3 -8 5 -19 5 -14 0
-25 -21 -52 -100 -19 -55 -36 -100 -39 -100 -3 0 -11 19 -17 43 -27 101 -54
157 -75 157 -12 0 -18 -5 -15 -12z"/>
<path d="M2710 2245 c0 -18 5 -25 20 -25 15 0 20 7 20 25 0 18 -5 25 -20 25
-15 0 -20 -7 -20 -25z"/>
<path d="M2710 2045 c0 -18 5 -25 20 -25 15 0 20 7 20 25 0 18 -5 25 -20 25
-15 0 -20 -7 -20 -25z"/>
<path d="M3348 1759 c-10 -5 -20 -25 -24 -44 -3 -20 -12 -35 -20 -35 -8 0 -14
-7 -14 -15 0 -8 7 -15 15 -15 12 0 15 -19 15 -115 0 -108 1 -115 20 -115 18 0
20 8 22 113 l3 112 40 0 40 0 3 -112 c2 -105 4 -113 22 -113 19 0 20 7 20 115
0 108 1 115 20 115 11 0 20 7 20 15 0 9 -9 15 -21 15 -34 0 -21 44 14 48 39 5
39 42 -1 42 -41 0 -72 -26 -72 -61 0 -28 -2 -29 -46 -29 -41 0 -45 2 -42 23 2
15 11 23 28 26 26 3 42 19 34 33 -7 11 -55 9 -76 -3z"/>
<path d="M4064 1760 c-29 -11 -64 -58 -64 -84 0 -49 29 -69 142 -101 60 -16
84 -40 73 -74 -19 -60 -165 -49 -181 14 -7 28 -44 36 -44 10 0 -37 31 -74 75
-90 85 -33 171 -2 189 69 15 57 -12 86 -109 113 -86 25 -105 37 -105 64 0 27
39 49 87 49 36 0 46 -5 65 -30 27 -37 63 -42 52 -7 -10 32 -25 48 -61 64 -36
15 -87 16 -119 3z"/>
<path d="M4990 1745 c0 -16 6 -25 15 -25 9 0 15 9 15 25 0 16 -6 25 -15 25 -9
0 -15 -9 -15 -25z"/>
<path d="M2410 1550 c0 -109 2 -130 15 -130 12 0 15 14 15 68 0 123 33 176 94
153 29 -12 36 -36 36 -138 0 -67 3 -83 15 -83 12 0 15 19 15 108 0 59 -4 112
-8 118 -22 33 -86 44 -118 19 -25 -19 -34 -19 -34 0 0 8 -7 15 -15 15 -13 0
-15 -21 -15 -130z"/>
<path d="M2703 1668 c-12 -6 -27 -23 -34 -39 -17 -44 5 -69 82 -94 50 -16 64
-24 64 -40 0 -48 -100 -52 -112 -5 -6 24 -31 26 -40 4 -3 -10 4 -26 21 -42 54
-55 176 -23 176 45 0 34 -31 59 -94 77 -78 23 -88 55 -24 71 21 5 33 1 53 -19
27 -27 40 -32 49 -17 10 16 -5 41 -35 56 -32 17 -74 18 -106 3z"/>
<path d="M3084 1661 c-73 -45 -70 -187 5 -225 85 -44 171 13 171 114 0 104
-93 162 -176 111z m125 -57 c36 -79 -18 -168 -85 -143 -50 18 -71 100 -38 147
33 47 100 45 123 -4z"/>
<path d="M3614 1662 c-40 -26 -58 -70 -52 -132 8 -80 68 -125 144 -106 26 7
74 51 74 68 0 21 -31 18 -52 -6 -23 -24 -35 -30 -70 -27 -25 1 -58 37 -58 61
0 19 7 20 90 20 l90 0 0 35 c0 79 -97 130 -166 87z m110 -42 c33 -32 14 -50
-53 -50 -65 0 -78 8 -61 40 22 42 76 46 114 10z"/>
<path d="M3840 1550 c0 -123 1 -130 20 -130 19 0 20 7 20 95 0 80 3 98 19 114
12 12 28 17 39 14 12 -3 22 1 25 11 9 24 -37 32 -68 12 -22 -14 -25 -15 -25
-1 0 8 -7 15 -15 15 -13 0 -15 -21 -15 -130z"/>
<path d="M4374 1670 c-42 -17 -64 -58 -64 -121 0 -51 4 -63 29 -91 26 -29 35
-33 81 -33 46 0 55 4 82 34 27 31 29 35 13 44 -14 7 -22 3 -40 -19 -15 -19
-31 -27 -53 -27 -38 0 -57 15 -71 54 l-10 29 95 0 94 0 0 25 c0 79 -83 135
-156 105z m99 -52 c28 -33 16 -43 -56 -46 -60 -3 -67 -1 -67 16 0 19 24 45 50
55 23 8 53 -2 73 -25z"/>
<path d="M4590 1550 c0 -103 3 -130 14 -130 10 0 15 24 18 97 5 84 8 99 27
114 12 10 29 15 37 12 8 -3 20 2 27 11 10 14 19 -4 57 -109 59 -164 67 -164
126 -5 49 131 51 140 26 140 -14 0 -25 -23 -51 -101 -18 -55 -36 -98 -39 -94
-4 3 -21 48 -38 98 l-31 92 -49 2 c-28 1 -58 -5 -71 -13 -20 -13 -23 -13 -23
1 0 8 -7 15 -15 15 -13 0 -15 -21 -15 -130z"/>
<path d="M4990 1550 c0 -109 2 -130 15 -130 13 0 15 21 15 130 0 109 -2 130
-15 130 -13 0 -15 -21 -15 -130z"/>
<path d="M5134 1661 c-96 -59 -54 -241 56 -241 50 0 109 53 96 86 -8 22 -26
17 -36 -11 -13 -34 -54 -49 -88 -33 -55 26 -56 145 -2 173 35 18 75 7 85 -24
7 -23 13 -25 34 -12 12 8 12 13 -3 36 -31 47 -90 58 -142 26z"/>
<path d="M5374 1661 c-34 -21 -54 -65 -54 -118 0 -94 89 -150 170 -108 32 16
55 50 45 65 -10 16 -33 11 -40 -8 -14 -47 -87 -47 -119 0 -30 43 -23 48 74 48
l90 0 0 35 c0 79 -97 130 -166 86z m118 -44 c4 -7 8 -20 8 -29 0 -15 -10 -18
-64 -18 -36 0 -67 4 -70 9 -20 32 49 76 93 59 14 -5 29 -15 33 -21z"/>
<path d="M2930 1645 c0 -18 5 -25 20 -25 15 0 20 7 20 25 0 18 -5 25 -20 25
-15 0 -20 -7 -20 -25z"/>
<path d="M2930 1445 c0 -18 5 -25 20 -25 15 0 20 7 20 25 0 18 -5 25 -20 25
-15 0 -20 -7 -20 -25z"/>
<path d="M18176 2665 l-1809 -754 -180 90 c-165 83 -207 97 -207 69 0 -5 62
-41 138 -79 125 -64 134 -70 100 -70 -31 -1 -38 -5 -38 -21 0 -16 7 -20 38
-21 34 0 25 -6 -100 -70 -76 -38 -138 -74 -138 -79 0 -28 42 -14 207 69 l180
90 1813 -756 1812 -755 1819 758 c1000 417 1819 761 1819 764 0 5 -3629 1521
-3640 1520 -3 0 -819 -340 -1814 -755z m3596 -28 c967 -403 1758 -734 1758
-737 0 -3 -796 -336 -1769 -742 l-1769 -736 -1766 735 c-971 405 -1766 739
-1766 743 0 11 3524 1478 3540 1473 8 -2 806 -334 1772 -736z"/>
<path d="M18590 2195 c0 -168 1 -175 20 -175 19 0 20 7 20 175 0 168 -1 175
-20 175 -19 0 -20 -7 -20 -175z"/>
<path d="M18935 2363 c-37 -10 -77 -46 -96 -87 -41 -90 -9 -193 71 -233 24
-13 58 -23 75 -23 17 0 51 10 75 23 55 28 84 81 84 152 0 119 -96 196 -209
168z m117 -53 c37 -28 51 -72 46 -137 -4 -48 -10 -61 -37 -85 -65 -58 -168
-25 -191 62 -17 62 5 136 48 163 37 23 103 22 134 -3z"/>
<path d="M19200 2195 c0 -168 1 -175 20 -175 11 0 20 7 20 15 0 13 5 13 34 -2
59 -28 116 4 136 77 30 111 -50 201 -139 156 l-31 -17 0 61 c0 53 -2 60 -20
60 -19 0 -20 -7 -20 -175z m147 31 c24 -21 28 -32 28 -75 0 -38 -5 -56 -22
-72 -47 -48 -113 -12 -113 62 0 48 16 84 44 97 30 15 32 15 63 -12z"/>
<path d="M19470 2345 c0 -18 5 -25 20 -25 15 0 20 7 20 25 0 18 -5 25 -20 25
-15 0 -20 -7 -20 -25z"/>
<path d="M20220 2196 l0 -176 25 0 c24 0 25 2 25 70 l0 70 59 0 c32 0 72 5 90
11 61 21 82 114 37 166 -23 26 -28 28 -130 31 l-106 4 0 -176z m204 112 c22
-31 20 -64 -4 -88 -16 -16 -33 -20 -85 -20 l-65 0 0 65 0 65 69 0 c61 0 72 -3
85 -22z"/>
<path d="M20103 2343 c-7 -2 -13 -18 -13 -34 0 -19 -5 -29 -15 -29 -8 0 -15
-7 -15 -15 0 -8 7 -15 15 -15 12 0 15 -17 15 -93 0 -107 13 -137 61 -137 37 0
40 26 4 40 -24 9 -25 13 -25 96 0 77 2 86 20 91 11 3 20 12 20 19 0 8 -9 14
-20 14 -16 0 -20 7 -20 35 0 35 -3 38 -27 28z"/>
<path d="M21677 2343 c-4 -3 -7 -19 -7 -34 0 -29 -28 -43 -67 -33 -11 3 -31 0
-44 -7 -17 -9 -24 -9 -27 0 -2 6 -10 11 -18 11 -11 0 -14 -25 -14 -130 0 -123
1 -130 20 -130 19 0 20 7 20 95 0 80 3 98 19 114 12 12 28 17 39 14 11 -2 23
0 26 6 5 8 13 8 27 1 17 -10 19 -22 19 -110 0 -88 2 -100 19 -110 33 -17 61
-12 61 10 0 13 -7 20 -20 20 -19 0 -20 7 -20 91 0 82 2 91 20 96 11 3 20 12
20 19 0 8 -9 14 -20 14 -16 0 -20 7 -20 35 0 33 -16 46 -33 28z"/>
<path d="M17513 2253 c-74 -33 -103 -51 -103 -63 0 -13 27 -29 103 -59 111
-45 127 -48 127 -27 0 9 -33 27 -85 47 -47 17 -85 35 -85 39 0 4 38 24 85 45
47 21 85 44 85 51 0 22 -17 17 -127 -33z"/>
<path d="M17793 2253 c-74 -33 -103 -51 -103 -63 0 -13 27 -29 103 -59 111
-45 127 -48 127 -27 0 9 -33 27 -85 47 -47 17 -85 35 -85 39 0 4 38 24 85 45
47 21 85 44 85 51 0 22 -17 17 -127 -33z"/>
<path d="M22032 2283 c2 -9 36 -30 86 -52 45 -19 82 -38 82 -41 0 -3 -37 -20
-82 -37 -51 -19 -84 -37 -86 -47 -5 -23 11 -20 118 23 80 33 95 42 95 61 0 19
-16 30 -99 66 -110 49 -119 51 -114 27z"/>
<path d="M22312 2283 c2 -9 36 -30 86 -52 45 -19 82 -38 82 -41 0 -3 -37 -20
-82 -37 -51 -19 -84 -37 -86 -47 -5 -23 11 -20 118 23 80 33 95 42 95 61 0 19
-16 30 -99 66 -110 49 -119 51 -114 27z"/>
<path d="M18022 2265 c-43 -19 -66 -73 -58 -134 8 -61 29 -88 75 -102 47 -14
81 -7 118 25 26 22 28 30 28 95 0 63 -3 73 -26 97 -32 32 -91 40 -137 19z
m118 -55 c6 -10 10 -37 10 -60 0 -53 -12 -75 -49 -88 -35 -12 -70 3 -88 38
-38 75 18 163 88 138 16 -6 34 -18 39 -28z"/>
<path d="M18220 2268 c0 -7 16 -65 34 -128 30 -104 35 -115 56 -115 21 0 26 9
46 88 12 49 24 90 26 92 2 3 15 -38 27 -91 21 -85 25 -95 44 -92 17 2 27 21
53 104 48 155 48 154 24 154 -11 0 -20 -5 -20 -11 0 -6 -12 -50 -26 -97 -30
-97 -33 -96 -59 26 -16 72 -21 82 -39 82 -19 0 -25 -11 -45 -95 -13 -52 -27
-95 -31 -95 -4 0 -18 43 -31 95 -18 76 -26 95 -41 95 -10 0 -18 -6 -18 -12z"/>
<path d="M19470 2120 c0 -99 -4 -160 -10 -161 -5 -1 -16 -2 -22 -3 -7 0 -14
-9 -16 -18 -5 -25 42 -24 68 2 18 18 20 33 20 180 0 153 -1 160 -20 160 -19 0
-20 -7 -20 -160z"/>
<path d="M19640 2273 c-81 -30 -101 -161 -34 -224 34 -32 111 -34 144 -4 35
31 44 54 24 62 -10 4 -24 -4 -38 -22 -40 -49 -117 -31 -129 31 l-4 24 93 0
c88 0 94 1 94 20 0 79 -79 139 -150 113z m93 -55 c27 -32 16 -43 -51 -46 -67
-3 -88 12 -61 44 31 38 80 38 112 2z"/>
<path d="M19883 2261 c-49 -31 -66 -110 -39 -176 29 -69 131 -85 176 -28 11
15 19 33 18 42 -5 25 -27 24 -38 -3 -19 -51 -95 -51 -119 0 -25 56 -6 127 38
142 33 12 67 -1 76 -28 4 -12 13 -20 23 -18 25 5 25 24 0 53 -31 36 -91 43
-135 16z"/>
<path d="M20540 2150 c0 -123 1 -130 20 -130 19 0 20 7 20 99 0 90 2 101 21
114 11 8 28 13 38 10 11 -3 21 2 24 11 9 24 -37 32 -68 12 -22 -14 -25 -15
-25 -1 0 8 -7 15 -15 15 -13 0 -15 -21 -15 -130z"/>
<path d="M20744 2265 c-42 -21 -59 -57 -58 -119 0 -65 24 -102 74 -117 46 -14
80 -7 117 25 26 22 28 30 28 95 0 63 -3 73 -26 97 -33 32 -92 41 -135 19z
m116 -55 c6 -10 10 -37 10 -60 0 -53 -12 -75 -49 -88 -35 -12 -70 3 -88 38
-38 75 18 163 88 138 16 -6 34 -18 39 -28z"/>
<path d="M20970 2100 c0 -153 2 -180 15 -180 12 0 15 14 15 65 l0 66 30 -16
c36 -19 53 -19 89 0 60 30 77 149 30 209 -26 33 -81 44 -114 22 -30 -20 -35
-20 -35 -1 0 8 -7 15 -15 15 -13 0 -15 -27 -15 -180z m124 139 c31 -14 50 -68
42 -113 -19 -100 -136 -87 -136 15 0 59 21 93 67 108 1 1 13 -4 27 -10z"/>
<path d="M21274 2261 c-34 -21 -54 -65 -54 -118 0 -94 89 -150 170 -108 32 16
55 50 45 65 -10 17 -33 11 -40 -9 -8 -25 -53 -40 -86 -29 -23 8 -49 44 -49 68
0 6 40 10 90 10 l90 0 0 35 c0 79 -97 130 -166 86z m109 -39 c9 -8 17 -23 17
-34 0 -16 -8 -18 -64 -18 -36 0 -67 4 -70 9 -11 17 7 43 37 56 33 14 52 11 80
-13z"/>
<path d="M21815 2154 c52 -147 53 -181 4 -191 -20 -4 -29 -11 -27 -22 5 -25
43 -25 66 -1 15 17 132 313 132 335 0 3 -8 5 -18 5 -13 0 -25 -23 -51 -100
-19 -56 -36 -98 -40 -95 -3 4 -20 48 -37 98 -25 75 -35 93 -52 95 -21 3 -20
-2 23 -124z"/>
<path d="M18710 2245 c0 -18 5 -25 20 -25 15 0 20 7 20 25 0 18 -5 25 -20 25
-15 0 -20 -7 -20 -25z"/>
<path d="M18710 2045 c0 -18 5 -25 20 -25 15 0 20 7 20 25 0 18 -5 25 -20 25
-15 0 -20 -7 -20 -25z"/>
<path d="M19300 1595 c0 -168 1 -175 20 -175 19 0 20 7 20 93 0 104 13 130 66
130 43 0 54 -26 54 -130 0 -86 1 -93 20 -93 18 0 20 7 20 89 0 103 -12 144
-46 160 -33 15 -53 14 -86 -3 l-28 -15 0 60 c0 52 -2 59 -20 59 -19 0 -20 -7
-20 -175z"/>
<path d="M20080 1596 c0 -169 1 -176 20 -176 18 0 20 7 20 81 l0 80 53 -3 52
-3 50 -77 c42 -65 54 -77 77 -78 l28 0 -36 58 c-20 31 -48 69 -62 85 -22 23
-23 27 -8 27 10 0 31 13 47 29 36 37 38 79 5 118 -23 27 -28 28 -135 31 l-111
4 0 -176z m214 112 c21 -30 20 -44 -4 -68 -16 -16 -33 -20 -95 -20 l-75 0 0
55 0 55 79 0 c71 0 82 -2 95 -22z"/>
<path d="M18660 1550 c0 -123 1 -130 20 -130 19 0 20 7 20 94 0 114 13 135 80
126 31 -3 40 -33 40 -127 0 -86 1 -93 20 -93 18 0 20 7 20 89 0 48 -5 102 -10
118 -17 48 -85 69 -126 38 -25 -19 -34 -19 -34 0 0 8 -7 15 -15 15 -13 0 -15
-21 -15 -130z"/>
<path d="M18954 1669 c-30 -15 -46 -53 -34 -83 6 -16 24 -29 57 -41 89 -31 95
-35 91 -53 -2 -9 -15 -23 -30 -30 -33 -15 -78 -1 -85 29 -6 20 -33 23 -40 3
-7 -20 38 -63 72 -70 68 -12 125 21 125 75 0 36 -18 51 -93 76 -34 11 -62 25
-64 30 -5 17 10 32 40 39 22 5 33 1 53 -19 15 -15 32 -24 40 -21 19 7 18 19
-4 46 -21 25 -94 36 -128 19z"/>
<path d="M19604 1666 c-31 -14 -49 -40 -38 -57 8 -14 31 -11 38 6 9 24 51 36
86 23 26 -8 31 -15 28 -37 -3 -24 -9 -27 -68 -37 -45 -9 -70 -19 -82 -34 -55
-68 40 -142 122 -95 32 18 40 18 40 0 0 -8 8 -15 18 -15 16 0 18 9 15 98 -2
53 -6 106 -8 118 -9 41 -89 57 -151 30z m116 -149 c0 -48 -76 -79 -115 -47
-32 27 -16 49 45 61 63 12 70 11 70 -14z"/>
<path d="M19863 1668 c-12 -6 -27 -23 -33 -39 -19 -45 5 -72 80 -93 65 -18 83
-38 57 -63 -27 -27 -77 -21 -103 13 -18 22 -26 26 -36 16 -18 -18 9 -59 49
-73 47 -15 98 -4 123 28 41 52 16 91 -74 117 -32 9 -60 24 -63 32 -15 40 67
53 98 16 26 -33 57 -24 43 12 -15 38 -94 57 -141 34z"/>
<path d="M20464 1665 c-42 -21 -59 -57 -58 -119 0 -65 24 -102 74 -117 46 -14
80 -7 117 25 26 22 28 30 28 95 0 63 -3 73 -26 97 -33 32 -92 41 -135 19z
m116 -55 c6 -10 10 -37 10 -60 0 -53 -12 -75 -49 -88 -35 -12 -70 3 -88 38
-38 75 18 163 88 138 16 -6 34 -18 39 -28z"/>
<path d="M20728 1664 c-78 -42 -77 -188 2 -229 58 -30 132 -7 155 49 52 124
-49 239 -157 180z m112 -52 c54 -68 -5 -177 -81 -150 -65 23 -65 154 0 176 35
12 58 5 81 -26z"/>
<path d="M20950 1550 c0 -121 1 -130 19 -130 17 0 19 9 23 95 2 71 7 98 20
111 20 20 67 22 79 3 5 -8 9 -58 9 -111 0 -91 1 -98 20 -98 19 0 20 7 20 93 0
77 3 97 18 109 28 24 48 28 71 12 19 -14 21 -25 21 -115 0 -94 1 -99 21 -99
20 0 21 4 17 111 -3 104 -5 112 -28 131 -28 22 -80 20 -109 -6 -14 -13 -19
-12 -40 5 -28 23 -52 24 -91 4 -27 -14 -30 -14 -30 0 0 8 -9 15 -20 15 -19 0
-20 -7 -20 -130z"/>
<path d="M19180 1645 c0 -18 5 -25 20 -25 15 0 20 7 20 25 0 18 -5 25 -20 25
-15 0 -20 -7 -20 -25z"/>
<path d="M19180 1445 c0 -18 5 -25 20 -25 15 0 20 7 20 25 0 18 -5 25 -20 25
-15 0 -20 -7 -20 -25z"/>
<path d="M10340 2195 c0 -168 1 -175 20 -175 19 0 20 7 20 175 0 168 -1 175
-20 175 -19 0 -20 -7 -20 -175z"/>
<path d="M12350 2195 l0 -175 83 0 c104 0 143 18 175 80 45 90 16 215 -58 252
-25 13 -59 18 -117 18 l-83 0 0 -175z m200 107 c53 -53 49 -178 -7 -221 -20
-16 -40 -21 -89 -21 l-64 0 0 135 0 135 66 0 c59 0 68 -3 94 -28z"/>
<path d="M12690 2345 c0 -18 5 -25 20 -25 15 0 20 7 20 25 0 18 -5 25 -20 25
-15 0 -20 -7 -20 -25z"/>
<path d="M13040 2345 c0 -18 5 -25 20 -25 15 0 20 7 20 25 0 18 -5 25 -20 25
-15 0 -20 -7 -20 -25z"/>
<path d="M13410 2345 c0 -18 5 -25 20 -25 15 0 20 7 20 25 0 18 -5 25 -20 25
-15 0 -20 -7 -20 -25z"/>
<path d="M13939 2195 c41 -157 48 -175 67 -175 19 0 25 16 59 143 21 78 41
146 45 150 4 4 24 -59 46 -140 34 -127 42 -148 60 -151 19 -3 25 11 63 155 23
87 44 166 47 176 4 12 0 17 -15 17 -22 0 -25 -7 -62 -170 -27 -120 -34 -134
-43 -84 -4 22 -16 68 -26 104 -10 36 -24 84 -30 108 -10 39 -14 43 -37 40 -25
-3 -29 -11 -58 -118 -18 -63 -35 -128 -40 -145 -6 -27 -8 -28 -14 -10 -4 11
-20 77 -36 148 -26 114 -31 127 -50 127 -21 0 -21 -3 24 -175z"/>
<path d="M14370 2345 c0 -18 5 -25 20 -25 15 0 20 7 20 25 0 18 -5 25 -20 25
-15 0 -20 -7 -20 -25z"/>
<path d="M14610 2195 c0 -168 1 -175 20 -175 18 0 20 7 20 86 0 47 5 94 11
105 16 31 57 43 85 24 23 -15 24 -21 24 -115 0 -93 1 -100 20 -100 19 0 20 7
20 105 0 99 -2 107 -25 130 -28 29 -63 32 -105 10 l-30 -16 0 61 c0 53 -2 60
-20 60 -19 0 -20 -7 -20 -175z"/>
<path d="M11993 2343 c-7 -2 -13 -18 -13 -34 0 -19 -5 -29 -15 -29 -8 0 -15
-6 -15 -14 0 -8 7 -16 15 -20 12 -4 15 -25 15 -100 0 -105 10 -126 60 -126 23
0 27 3 23 20 -3 11 -14 20 -24 20 -17 0 -19 9 -19 91 0 82 2 91 20 96 11 3 20
12 20 19 0 8 -9 14 -20 14 -16 0 -20 7 -20 35 0 35 -3 38 -27 28z"/>
<path d="M13803 2343 c-7 -2 -13 -18 -13 -34 0 -19 -5 -29 -15 -29 -8 0 -15
-7 -15 -15 0 -8 7 -15 15 -15 12 0 15 -18 15 -98 0 -109 11 -132 63 -132 37 0
33 29 -5 43 -15 5 -18 20 -18 93 0 77 2 86 20 91 11 3 20 12 20 19 0 8 -9 14
-20 14 -16 0 -20 7 -20 35 0 35 -3 38 -27 28z"/>
<path d="M14497 2343 c-4 -3 -7 -19 -7 -35 0 -21 -5 -28 -20 -28 -11 0 -20 -6
-20 -14 0 -7 9 -16 20 -19 18 -5 20 -14 20 -106 0 -89 2 -101 19 -111 11 -5
29 -10 40 -10 30 0 28 38 -1 42 -22 3 -23 7 -23 93 0 86 1 90 23 93 31 5 29
32 -3 32 -22 0 -25 4 -25 35 0 33 -8 43 -23 28z"/>
<path d="M9263 2253 c-136 -60 -136 -69 1 -122 116 -45 126 -48 126 -27 0 9
-33 27 -85 47 -47 18 -85 35 -85 39 0 4 38 24 85 45 47 21 85 44 85 51 0 21
-16 17 -127 -33z"/>
<path d="M9543 2253 c-136 -60 -136 -69 1 -122 116 -45 126 -48 126 -27 0 9
-33 27 -85 47 -47 18 -85 35 -85 39 0 4 38 24 85 45 47 21 85 44 85 51 0 21
-16 17 -127 -33z"/>
<path d="M14870 2286 c0 -7 38 -30 85 -51 47 -21 85 -41 85 -45 0 -4 -38 -22
-85 -39 -52 -20 -85 -38 -85 -47 0 -21 16 -18 128 27 134 54 134 64 -3 124
-109 48 -125 52 -125 31z"/>
<path d="M15150 2286 c0 -7 38 -30 85 -51 47 -21 85 -41 85 -45 0 -4 -38 -22
-85 -39 -52 -20 -85 -38 -85 -47 0 -21 16 -18 128 27 134 54 134 64 -3 124
-109 48 -125 52 -125 31z"/>
<path d="M9773 2264 c-32 -16 -63 -73 -63 -114 0 -43 31 -98 65 -114 41 -20
68 -20 105 -1 45 23 60 53 60 117 0 49 -4 62 -27 88 -35 39 -92 49 -140 24z
m86 -29 c34 -17 41 -33 41 -90 0 -56 -25 -88 -69 -88 -42 0 -71 30 -77 79 -6
46 12 84 46 101 31 16 26 16 59 -2z"/>
<path d="M9970 2274 c0 -5 32 -118 66 -236 3 -10 15 -18 28 -18 20 0 25 10 45
96 14 57 26 91 31 83 4 -8 15 -51 25 -96 16 -73 21 -83 40 -83 19 0 26 15 59
126 21 69 36 128 32 131 -16 16 -35 -14 -56 -91 -13 -48 -26 -89 -30 -91 -4
-3 -18 38 -30 91 -19 85 -24 95 -43 92 -17 -2 -25 -19 -46 -101 -14 -54 -28
-92 -32 -85 -3 7 -17 52 -29 101 -19 70 -27 87 -42 87 -10 0 -18 -3 -18 -6z"/>
<path d="M10580 2100 c0 -173 1 -180 20 -180 18 0 20 7 20 65 l0 66 30 -16
c44 -23 69 -18 105 18 42 42 53 97 29 156 -26 67 -88 89 -138 50 l-26 -20 0
20 c0 14 -6 21 -20 21 -19 0 -20 -7 -20 -180z m147 126 c24 -21 28 -32 28 -75
0 -38 -5 -56 -22 -72 -47 -48 -113 -12 -113 62 0 48 16 84 44 97 30 15 32 15
63 -12z"/>
<path d="M10850 2150 c0 -123 1 -130 20 -130 19 0 20 7 20 95 0 80 3 98 19
114 12 12 28 17 39 14 12 -3 22 1 25 11 9 24 -37 32 -68 12 -22 -14 -25 -15
-25 -1 0 8 -7 15 -15 15 -13 0 -15 -21 -15 -130z"/>
<path d="M11053 2264 c-32 -16 -63 -73 -63 -114 0 -43 31 -98 65 -114 41 -20
68 -20 105 -1 45 23 60 53 60 117 0 49 -4 62 -27 88 -35 39 -92 49 -140 24z
m86 -29 c34 -17 41 -33 41 -90 0 -56 -25 -88 -69 -88 -42 0 -71 30 -77 79 -6
46 12 84 46 101 31 16 26 16 59 -2z"/>
<path d="M11280 2100 c0 -173 1 -180 20 -180 18 0 20 7 20 65 l0 64 28 -16
c76 -44 158 46 138 151 -15 80 -90 119 -147 77 -29 -21 -29 -21 -29 -1 0 11
-7 20 -15 20 -13 0 -15 -27 -15 -180z m157 109 c27 -52 10 -128 -33 -148 -47
-21 -94 23 -94 87 1 86 92 130 127 61z"/>
<path d="M11584 2261 c-34 -21 -54 -64 -54 -118 0 -94 89 -150 170 -108 32 16
55 50 45 65 -10 16 -33 11 -40 -8 -14 -47 -87 -47 -119 0 -31 43 -23 48 79 48
52 0 95 3 95 8 0 32 -26 85 -51 106 -37 31 -81 34 -125 7z m118 -44 c4 -7 8
-20 8 -29 0 -15 -10 -18 -63 -18 -71 0 -77 3 -69 32 11 43 100 54 124 15z"/>
<path d="M11810 2150 c0 -121 1 -130 19 -130 17 0 19 9 23 100 1 54 8 104 14
110 6 6 24 12 40 13 18 2 29 8 29 17 0 22 -44 24 -66 4 -17 -16 -19 -16 -19
-1 0 10 -8 17 -20 17 -19 0 -20 -7 -20 -130z"/>
<path d="M12122 2168 c22 -62 43 -127 45 -144 5 -35 -17 -64 -48 -64 -10 0
-19 -6 -19 -14 0 -39 63 -30 84 12 14 29 116 304 116 315 0 4 -8 7 -18 7 -14
0 -25 -23 -51 -101 -18 -55 -36 -98 -39 -94 -4 3 -21 48 -38 98 -25 75 -35 93
-52 95 -21 3 -20 -1 20 -110z"/>
<path d="M12690 2150 c0 -123 1 -130 20 -130 19 0 20 7 20 130 0 123 -1 130
-20 130 -19 0 -20 -7 -20 -130z"/>
<path d="M12840 2273 c-44 -17 -64 -66 -41 -101 4 -7 37 -23 72 -35 51 -17 65
-27 67 -44 7 -47 -90 -52 -110 -7 -12 26 -16 28 -35 16 -17 -11 5 -53 37 -69
48 -25 129 -6 144 32 21 56 -2 85 -86 109 -46 13 -58 21 -58 37 0 22 40 42 67
32 10 -3 25 -15 34 -26 17 -20 39 -16 39 7 0 34 -86 67 -130 49z"/>
<path d="M13040 2136 c0 -158 -3 -176 -31 -176 -12 0 -19 -7 -19 -20 0 -14 7
-20 23 -20 55 1 67 39 67 222 0 131 -1 138 -20 138 -19 0 -20 -7 -20 -144z"/>
<path d="M13182 2260 c-41 -25 -55 -61 -49 -129 3 -44 9 -59 31 -78 36 -31 70
-38 117 -24 45 14 69 44 76 99 15 115 -82 188 -175 132z m113 -40 c9 -10 19
-36 21 -57 9 -71 -40 -121 -97 -101 -36 13 -49 35 -49 87 0 55 8 71 43 86 35
15 59 10 82 -15z"/>
<path d="M13410 2150 c0 -123 1 -130 20 -130 19 0 20 7 20 130 0 123 -1 130
-20 130 -19 0 -20 -7 -20 -130z"/>
<path d="M13520 2150 c0 -123 1 -130 20 -130 19 0 20 7 20 94 0 114 13 135 80
126 31 -3 40 -33 40 -127 0 -86 1 -93 20 -93 18 0 20 7 20 89 0 48 -5 102 -10
118 -17 48 -85 69 -126 38 -25 -19 -34 -19 -34 0 0 8 -7 15 -15 15 -13 0 -15
-21 -15 -130z"/>
<path d="M14370 2150 c0 -123 1 -130 20 -130 19 0 20 7 20 130 0 123 -1 130
-20 130 -19 0 -20 -7 -20 -130z"/>
<path d="M10460 2245 c0 -20 5 -25 25 -25 20 0 25 5 25 25 0 20 -5 25 -25 25
-20 0 -25 -5 -25 -25z"/>
<path d="M10460 2045 c0 -20 5 -25 25 -25 20 0 25 5 25 25 0 20 -5 25 -25 25
-20 0 -25 -5 -25 -25z"/>
<path d="M7780 1900 c0 -18 7 -20 60 -20 53 0 60 2 60 20 0 18 -7 20 -60 20
-53 0 -60 -2 -60 -20z"/>
<path d="M8020 1900 c0 -18 7 -20 60 -20 53 0 60 2 60 20 0 18 -7 20 -60 20
-53 0 -60 -2 -60 -20z"/>
<path d="M8260 1900 c0 -18 7 -20 60 -20 53 0 60 2 60 20 0 18 -7 20 -60 20
-53 0 -60 -2 -60 -20z"/>
<path d="M8500 1900 c0 -18 7 -20 60 -20 53 0 60 2 60 20 0 18 -7 20 -60 20
-53 0 -60 -2 -60 -20z"/>
<path d="M8740 1900 c0 -18 7 -20 60 -20 53 0 60 2 60 20 0 18 -7 20 -60 20
-53 0 -60 -2 -60 -20z"/>
<path d="M8980 1900 c0 -18 7 -20 60 -20 53 0 60 2 60 20 0 18 -7 20 -60 20
-53 0 -60 -2 -60 -20z"/>
<path d="M15460 1900 c0 -18 7 -20 60 -20 53 0 60 2 60 20 0 18 -7 20 -60 20
-53 0 -60 -2 -60 -20z"/>
<path d="M15700 1900 c0 -18 7 -20 60 -20 53 0 60 2 60 20 0 18 -7 20 -60 20
-53 0 -60 -2 -60 -20z"/>
<path d="M15940 1900 c0 -18 7 -20 60 -20 53 0 60 2 60 20 0 18 -7 20 -60 20
-53 0 -60 -2 -60 -20z"/>
</g>
</svg>
