<svg version="1.1" id="Layer_1" xmlns="http://www.w3.org/2000/svg" xmlns:xlink="http://www.w3.org/1999/xlink" x="0px" y="0px"
	 width="100%" viewBox="0 0 484 604" enable-background="new 0 0 484 604" xml:space="preserve">
<path fill="none" opacity="1.000000" stroke="#000000" stroke-linecap="round" stroke-linejoin="round" stroke-width="5.000000"
	d="
M243.500000,163.000000 
	C309.833740,163.000000 376.167511,163.000000 442.750000,163.000000 
	C442.750000,122.833336 442.750000,83.166664 442.750000,43.250000 
	C309.500000,43.250000 176.500000,43.250000 43.250000,43.250000 
	C43.250000,83.166664 43.250000,122.833336 43.250000,162.405746 
	C45.272572,163.335022 47.161762,162.985275 49.000004,162.985764 
	C112.000000,163.002869 175.000000,162.993820 237.999985,163.033936 
	C239.656479,163.034988 241.422531,162.441299 243.000000,163.500000 
"/>
<path fill="none" opacity="1.000000" stroke="#000000" stroke-linecap="round" stroke-linejoin="round" stroke-width="5.000000"
	d="
M242.500000,442.500000 
	C240.728180,443.343353 238.838669,442.985870 237.000000,442.986359 
	C174.333328,443.002747 111.666664,442.997101 49.000004,443.014221 
	C47.161762,443.014709 45.272572,442.664978 43.250000,443.594269 
	C43.250000,483.166656 43.250000,522.833313 43.250000,562.750000 
	C176.500000,562.750000 309.500000,562.750000 442.750000,562.750000 
	C442.750000,522.833313 442.750000,483.166656 442.750000,443.594269 
	C440.727417,442.664978 438.838226,443.014709 437.000000,443.014191 
	C374.333344,442.997101 311.666656,443.002747 249.000000,442.986359 
	C247.161331,442.985870 245.271820,443.343353 243.500000,442.500000 
"/>
<path fill="none" opacity="1.000000" stroke="#000000" stroke-linecap="round" stroke-linejoin="round" stroke-width="5.000000"
	d="
M243.000000,204.000000 
	C243.000000,283.416656 243.000000,362.833344 243.000000,442.250000 
"/>
<path fill="none" opacity="1.000000" stroke="#000000" stroke-linecap="round" stroke-linejoin="round" stroke-width="4.000000"
	d="
M331.000000,111.500000 
	C328.094574,107.102829 328.396637,101.708138 326.493286,97.002716 
	C324.830872,92.893082 324.825378,88.189537 321.504364,83.577118 
	C315.842773,93.778755 316.010956,105.390656 310.750000,115.000000 
"/>
<path fill="none" opacity="1.000000" stroke="#000000" stroke-linecap="round" stroke-linejoin="round" stroke-width="4.000000"
	d="
M223.500000,97.500000 
	C222.872589,97.088165 222.017365,98.191177 221.337173,96.568245 
	C220.403061,94.339439 217.995010,92.894730 215.492065,92.559166 
	C211.988831,92.089508 207.323441,94.033607 207.053558,97.004868 
	C206.711014,100.776375 209.432861,102.128983 212.499771,103.000786 
	C215.395294,103.823875 218.393860,104.251625 221.022430,105.965591 
	C223.702454,107.713127 223.463715,109.854591 221.965225,111.975433 
	C218.227203,117.265892 211.755890,116.575851 207.000000,110.500000 
"/>
<path fill="none" opacity="1.000000" stroke="#000000" stroke-linecap="round" stroke-linejoin="round" stroke-width="4.000000"
	d="
M119.500000,97.500000 
	C118.872589,97.088165 118.017357,98.191177 117.337166,96.568245 
	C116.403046,94.339439 113.995018,92.894722 111.492065,92.559166 
	C107.988823,92.089500 103.323441,94.033607 103.053558,97.004868 
	C102.710999,100.776375 105.432861,102.128975 108.499779,103.000778 
	C111.395302,103.823868 114.393860,104.251617 117.022438,105.965591 
	C119.702461,107.713112 119.463730,109.854591 117.965225,111.975426 
	C114.227196,117.265892 107.755890,116.575851 103.000000,110.500000 
"/>
<path fill="none" opacity="1.000000" stroke="#000000" stroke-linecap="round" stroke-linejoin="round" stroke-width="4.000000"
	d="
M258.000000,97.500000 
	C255.711929,94.576141 253.702393,91.561485 248.976791,92.919228 
	C243.945343,94.364861 241.965897,97.846977 241.559769,102.505211 
	C241.288528,105.616302 241.434265,108.884377 243.525482,111.479469 
	C248.287323,117.388664 254.114044,116.769936 257.965790,109.980591 
	C258.594543,108.872299 259.144531,108.129784 260.500000,108.500000 
"/>
<path fill="none" opacity="1.000000" stroke="#000000" stroke-linecap="round" stroke-linejoin="round" stroke-width="4.000000"
	d="
M275.000000,503.000000 
	C282.211609,504.360260 289.887909,503.720581 293.093872,501.433014 
	C291.633270,499.185760 292.010651,496.196533 289.063141,494.396637 
	C283.020020,490.706360 276.235687,493.436005 274.999969,500.500000 
	C273.463287,509.284363 275.157257,512.889526 282.006348,514.979187 
	C286.556702,516.367493 289.635376,514.152710 292.000000,510.500000 
"/>
<path fill="none" opacity="1.000000" stroke="#000000" stroke-linecap="round" stroke-linejoin="round" stroke-width="4.000000"
	d="
M250.000000,512.000000 
	C251.275696,511.948608 252.069305,512.789062 253.020767,513.471008 
	C257.051636,516.360229 260.122009,516.031189 263.500031,512.500000 
	C266.684723,509.170990 266.977234,499.517029 264.000000,496.000000 
	C260.539948,491.912628 256.735596,491.558655 252.515686,495.019135 
	C251.568893,495.795532 250.800812,496.784546 249.500000,497.000000 
"/>
<path fill="none" opacity="1.000000" stroke="#000000" stroke-linecap="round" stroke-linejoin="round" stroke-width="4.000000"
	d="
M188.000000,497.000000 
	C184.175888,492.628937 181.704483,491.322968 176.491821,493.480225 
	C174.403152,494.344604 173.124329,496.004059 173.117950,498.000366 
	C173.112000,499.876465 174.167786,501.555084 176.489716,502.048401 
	C178.538864,502.483765 180.469421,503.453461 182.507095,503.972076 
	C185.618164,504.763916 188.889343,505.530853 188.926636,509.500702 
	C188.961151,513.174561 185.845825,514.090271 182.999893,514.999695 
	C178.272720,516.510193 175.081863,514.662170 173.500000,509.500000 
"/>
<path fill="none" opacity="1.000000" stroke="#000000" stroke-linecap="round" stroke-linejoin="round" stroke-width="4.000000"
	d="
M332.500000,503.000000 
	C329.333344,503.500000 326.175201,504.064850 322.997864,504.483704 
	C318.964081,505.015442 316.326233,507.814758 317.000000,511.000000 
	C317.580933,513.746460 322.086792,516.535339 324.959930,515.398743 
	C327.351868,514.452454 329.895508,513.793823 332.096405,512.127319 
	C333.355438,511.174042 334.038330,510.527222 334.016724,508.999756 
	C333.964966,505.333832 334.220062,501.649994 333.944061,498.004242 
	C333.602448,493.491974 326.319153,490.871490 321.533508,493.559631 
	C320.148499,494.337646 319.166656,495.833313 317.999969,496.999969 
"/>
<path fill="none" opacity="1.000000" stroke="#000000" stroke-linecap="round" stroke-linejoin="round" stroke-width="4.000000"
	d="
M163.500000,515.500000 
	C163.500000,510.333344 163.662354,505.160278 163.459442,500.001587 
	C163.197739,493.347717 158.353622,490.984283 152.452194,493.903351 
	C148.366821,495.924133 147.469421,499.045135 147.494171,503.000031 
	C147.520233,507.166534 147.500000,511.333344 147.500000,515.500000 
"/>
<path fill="none" opacity="1.000000" stroke="#000000" stroke-linecap="round" stroke-linejoin="round" stroke-width="5.000000"
	d="
M181.000000,93.000000 
	C181.000000,97.666664 181.038895,102.333771 180.987167,106.999855 
	C180.948776,110.462761 181.983826,113.003532 185.462784,114.582016 
	C188.747635,116.072426 191.136429,114.987267 193.484650,112.982018 
	C194.418152,112.184860 195.199188,111.215454 196.500000,111.000000 
"/>
<path fill="none" opacity="1.000000" stroke="#000000" stroke-linecap="round" stroke-linejoin="round" stroke-width="5.000000"
	d="
M93.000000,115.000000 
	C93.000000,110.166664 93.015427,105.333275 92.996323,100.500015 
	C92.968979,93.582626 88.113869,90.735359 81.990631,93.982330 
	C80.676147,94.679367 79.753387,96.173447 78.000000,96.000000 
"/>
<path fill="none" opacity="1.000000" stroke="#000000" stroke-linecap="round" stroke-linejoin="round" stroke-width="4.000000"
	d="
M243.000000,170.000000 
	C240.144043,171.227936 239.660690,174.162308 238.551544,176.524200 
	C234.558365,185.027542 229.371338,192.968872 226.500000,202.000000 
"/>
<path fill="none" opacity="1.000000" stroke="#000000" stroke-linecap="round" stroke-linejoin="round" stroke-width="4.000000"
	d="
M243.000000,164.000000 
	C243.074677,166.814667 243.260620,169.313919 244.835526,172.093201 
	C250.307205,181.749191 255.787781,191.458130 259.500000,202.000000 
"/>
<path fill="none" opacity="1.000000" stroke="#000000" stroke-linecap="round" stroke-linejoin="round" stroke-width="4.000000"
	d="
M293.500000,83.500000 
	C293.500000,94.166664 293.500000,104.833336 293.500000,115.500000 
"/>
<path fill="none" opacity="1.000000" stroke="#000000" stroke-linecap="round" stroke-linejoin="round" stroke-width="5.000000"
	d="
M156.000000,113.500000 
	C151.274307,106.897804 150.514816,98.763832 147.515305,91.493683 
	C146.666260,89.435814 146.342407,87.085136 144.056290,85.870300 
	C141.742828,87.254967 141.999756,89.423851 141.999847,91.500000 
	C142.000214,99.333336 142.000000,107.166664 142.000000,115.000000 
"/>
<path fill="none" opacity="1.000000" stroke="#000000" stroke-linecap="round" stroke-linejoin="round" stroke-width="4.000000"
	d="
M301.500000,83.500000 
	C304.822571,90.472633 305.126434,98.272247 307.534668,105.488434 
	C308.317627,107.834587 307.827942,110.644783 310.000000,112.500000 
"/>
<path fill="none" opacity="1.000000" stroke="#000000" stroke-linecap="round" stroke-linejoin="round" stroke-width="5.000000"
	d="
M169.000000,85.000000 
	C171.007797,94.944183 169.555130,105.003716 170.000000,115.000000 
"/>
<path fill="none" opacity="1.000000" stroke="#000000" stroke-linecap="round" stroke-linejoin="round" stroke-width="4.000000"
	d="
M341.500000,83.500000 
	C338.319611,90.337257 337.766602,97.908562 335.488434,104.996277 
	C334.778259,107.205620 334.998260,109.781387 333.000000,111.500000 
"/>
<path fill="none" opacity="1.000000" stroke="#000000" stroke-linecap="round" stroke-linejoin="round" stroke-width="4.000000"
	d="
M283.500000,115.500000 
	C280.985168,111.161591 283.169098,106.478973 282.818115,101.975204 
	C282.543304,98.449509 282.597778,95.438339 279.467957,93.553192 
	C276.089844,91.518494 270.952209,92.477036 267.952576,94.942276 
	C266.866699,95.834663 266.907135,98.403305 264.500000,97.500000 
"/>
<path fill="none" opacity="1.000000" stroke="#000000" stroke-linecap="round" stroke-linejoin="round" stroke-width="3.000000"
	d="
M167.000000,87.500000 
	C163.843826,92.014961 163.131790,97.418839 161.421555,102.473457 
	C159.968246,106.768715 157.833344,110.833336 156.000000,115.000000 
"/>
<path fill="none" opacity="1.000000" stroke="#000000" stroke-linecap="round" stroke-linejoin="round" stroke-width="5.000000"
	d="
M232.000000,93.000000 
	C232.000000,100.333336 232.000000,107.666664 232.000000,115.000000 
"/>
<path fill="none" opacity="1.000000" stroke="#000000" stroke-linecap="round" stroke-linejoin="round" stroke-width="5.000000"
	d="
M391.000000,84.000000 
	C391.000000,94.333336 391.000000,104.666664 391.000000,115.000000 
"/>
<path fill="none" opacity="1.000000" stroke="#000000" stroke-linecap="round" stroke-linejoin="round" stroke-width="5.000000"
	d="
M375.000000,93.000000 
	C375.000000,100.333336 375.000000,107.666664 375.000000,115.000000 
"/>
<path fill="none" opacity="1.000000" stroke="#000000" stroke-linecap="round" stroke-linejoin="round" stroke-width="5.000000"
	d="
M302.000000,493.000000 
	C302.000000,500.333344 302.000000,507.666656 302.000000,515.000000 
"/>
<path fill="none" opacity="1.000000" stroke="#000000" stroke-linecap="round" stroke-linejoin="round" stroke-width="5.000000"
	d="
M77.000000,93.000000 
	C77.000000,100.333336 77.000000,107.666664 77.000000,115.000000 
"/>
<path fill="none" opacity="1.000000" stroke="#000000" stroke-linecap="round" stroke-linejoin="round" stroke-width="5.000000"
	d="
M197.000000,93.000000 
	C197.090439,100.501694 196.690216,108.014290 197.500000,115.500000 
"/>
<path fill="none" opacity="1.000000" stroke="#000000" stroke-linecap="round" stroke-linejoin="round" stroke-width="4.000000"
	d="
M281.500000,103.000000 
	C278.333344,103.500000 275.178925,104.106659 271.996887,104.473099 
	C267.987061,104.934868 265.468658,107.567947 266.000000,111.000000 
	C266.411163,113.655991 271.066010,116.434418 273.979828,115.440865 
	C276.575806,114.555679 279.000000,113.166664 281.500000,112.000000 
"/>
<path fill="none" opacity="1.000000" stroke="#000000" stroke-linecap="round" stroke-linejoin="round" stroke-width="5.000000"
	d="
M224.499985,203.499985 
	C224.999985,203.166656 225.523727,202.512100 225.996506,202.547058 
	C237.334320,203.384933 248.665680,203.384918 260.003479,202.547073 
	C260.476257,202.512115 261.000000,203.166672 261.500000,203.500000 
"/>
<path fill="none" opacity="1.000000" stroke="#000000" stroke-linecap="round" stroke-linejoin="round" stroke-width="4.000000"
	d="
M397.500000,102.000000 
	C400.000000,105.666672 402.926117,109.129402 404.819855,113.086220 
	C405.763702,115.058372 407.045807,115.335449 408.500000,116.000000 
"/>
<path fill="none" opacity="1.000000" stroke="#000000" stroke-linecap="round" stroke-linejoin="round" stroke-width="5.000000"
	d="
M248.499985,492.500000 
	C248.666656,503.333344 248.833328,514.166687 248.999985,525.000000 
"/>
<path fill="none" opacity="1.000000" stroke="#000000" stroke-linecap="round" stroke-linejoin="round" stroke-width="4.000000"
	d="
M407.500000,91.500000 
	C403.286743,92.544083 400.881226,95.851288 398.567413,99.048782 
	C396.954315,101.277954 395.101440,102.801918 392.500000,103.500000 
"/>
<path fill="none" opacity="1.000000" stroke="#000000" stroke-linecap="round" stroke-linejoin="round" stroke-width="4.000000"
	d="
M311.000000,493.000000 
	C307.417358,490.902191 306.048340,495.888031 303.000000,495.500000 
"/>
<path fill="none" opacity="1.000000" stroke="#000000" stroke-linecap="round" stroke-linejoin="round" stroke-width="4.000000"
	d="
M384.000000,93.000000 
	C380.417358,90.902176 379.048340,95.888031 376.000000,95.500000 
"/>
<path fill="none" opacity="1.000000" stroke="#000000" stroke-linecap="round" stroke-linejoin="round" stroke-width="4.000000"
	d="
M356.000000,92.500000 
	C347.109009,95.755814 343.660675,105.848846 349.559631,111.942261 
	C351.997223,114.460243 354.984100,116.475571 359.010010,115.027847 
	C363.103943,113.555672 365.545715,110.668335 365.934387,106.493889 
	C366.577850,99.583427 365.418396,94.144539 356.500000,92.500000 
"/>
<path fill="none" opacity="1.000000" stroke="#000000" stroke-linecap="round" stroke-linejoin="round" stroke-width="4.000000"
	d="
M222.500000,484.000000 
	C215.644211,485.659637 211.639481,490.004395 211.058289,497.004852 
	C210.498199,503.750977 211.464203,510.180542 218.517014,513.463440 
	C228.237259,517.988037 237.264160,513.026855 238.905533,502.984558 
	C239.619324,498.617340 239.499390,493.917053 236.933365,490.044159 
	C233.699310,485.162781 228.788651,483.382019 223.000000,484.000000 
"/>
</svg>