<svg version="1.1" id="Layer_1" xmlns="http://www.w3.org/2000/svg" xmlns:xlink="http://www.w3.org/1999/xlink" x="0px" y="0px"
	 width="100%" viewBox="0 0 2088 724" enable-background="new 0 0 2088 724" xml:space="preserve">
<path fill="none" opacity="1.000000" stroke="#000000" stroke-linecap="round" stroke-linejoin="round" stroke-width="5.000000"
	d="
M1565.500000,103.500000 
	C1566.301270,105.103203 1565.986328,106.825539 1565.988281,108.500015 
	C1566.007812,124.833328 1565.979248,141.166733 1566.031372,157.499893 
	C1566.036743,159.159988 1565.345703,160.932098 1566.998169,162.750000 
	C1726.166626,162.750000 1885.833374,162.750000 2045.750000,162.750000 
	C2045.750000,122.833336 2045.750000,83.166664 2045.750000,43.250000 
	C1885.833374,43.250000 1726.166626,43.250000 1566.000000,43.250000 
	C1566.000000,45.165318 1566.000000,46.832661 1566.000000,48.500000 
	C1566.000000,64.833336 1566.006836,81.166672 1565.990723,97.499992 
	C1565.988892,99.357864 1566.348755,101.282410 1565.250000,103.000000 
"/>
<path fill="none" opacity="1.000000" stroke="#000000" stroke-linecap="round" stroke-linejoin="round" stroke-width="5.000000"
	d="
M844.500000,421.500000 
	C850.419983,421.289429 855.377319,424.350098 860.460510,426.589661 
	C874.242310,432.661652 887.801819,439.235687 901.507324,445.483978 
	C922.479431,455.045135 943.505859,464.487122 964.497864,474.004669 
	C977.675964,479.979492 990.836121,485.993805 1003.999329,492.001404 
	C1025.168335,501.662811 1046.351929,511.292999 1067.493042,521.015015 
	C1080.363892,526.933716 1093.135376,533.067932 1106.008423,538.981628 
	C1119.971191,545.395935 1134.624390,550.609741 1147.775635,558.379639 
	C1156.233643,563.376709 1164.406128,562.936768 1173.000122,562.950928 
	C1230.333252,563.045410 1287.666626,562.996887 1345.000000,563.014282 
	C1346.838257,563.014832 1348.727417,562.664978 1350.750000,563.594238 
	C1350.750000,603.166687 1350.750000,642.833313 1350.750000,682.750000 
	C1190.833374,682.750000 1031.166626,682.750000 871.250000,682.750000 
	C871.250000,642.833313 871.250000,603.166687 871.250000,563.594238 
	C873.272583,562.664978 875.161804,563.014465 877.000000,563.014160 
	C966.333313,562.997986 1055.666626,563.000549 1145.000000,562.996948 
	C1147.214233,562.996887 1149.483398,563.309021 1151.500000,562.000000 
"/>
<path fill="none" opacity="1.000000" stroke="#000000" stroke-linecap="round" stroke-linejoin="round" stroke-width="5.000000"
	d="
M523.500000,103.000000 
	C522.427612,98.365677 523.072327,93.664604 523.036560,88.999718 
	C522.933105,75.500511 523.024719,61.999897 522.968201,48.500134 
	C522.961243,46.839817 523.654297,45.067905 522.001892,43.250000 
	C362.833344,43.250000 203.166672,43.250000 43.250000,43.250000 
	C43.250000,83.166664 43.250000,122.833336 43.250000,162.405746 
	C45.272572,163.335022 47.161766,162.985413 49.000004,162.985825 
	C124.000000,163.002411 199.000519,163.127716 273.999298,162.824997 
	C282.577362,162.790375 290.367371,164.278061 297.422058,168.626434 
	C302.366241,171.673950 306.391174,171.742050 311.570892,169.141220 
	C320.250275,164.783203 329.471436,162.779434 339.500916,162.835907 
	C398.665710,163.169128 457.833344,163.003052 517.000000,162.985748 
	C518.838196,162.985214 520.727417,163.335022 523.000000,162.290878 
	C523.000000,142.836151 523.000000,123.168076 523.000000,103.500000 
"/>
<path fill="none" opacity="1.000000" stroke="#000000" stroke-linecap="round" stroke-linejoin="round" stroke-width="4.000000"
	d="
M719.500000,360.500000 
	C710.739624,359.527618 703.331787,354.869781 695.538635,351.412903 
	C677.749634,343.522034 660.205139,335.082153 642.491028,327.019714 
	C615.611633,314.785797 588.758301,302.497528 561.935425,290.140137 
	C542.835022,281.340546 523.628540,272.751556 504.493225,264.014801 
	C477.353180,251.623245 450.150452,239.368881 423.005554,226.987793 
	C404.143311,218.384521 385.359772,209.608627 366.492493,201.016495 
	C348.027008,192.607346 329.500732,184.331696 310.993011,176.015549 
	C310.715668,175.890930 310.333344,176.000000 310.000000,176.000000 
"/>
<path fill="none" opacity="1.000000" stroke="#000000" stroke-linecap="round" stroke-linejoin="round" stroke-width="5.000000"
	d="
M1564.500000,103.000000 
	C1473.333374,103.000000 1382.166626,103.000000 1291.000000,103.000000 
"/>
<path fill="none" opacity="1.000000" stroke="#000000" stroke-linecap="round" stroke-linejoin="round" stroke-width="5.000000"
	d="
M803.000000,103.000000 
	C710.000000,103.000000 617.000000,103.000000 524.000000,103.000000 
"/>
<path fill="none" opacity="1.000000" stroke="#000000" stroke-linecap="round" stroke-linejoin="round" stroke-width="5.000000"
	d="
M1034.500000,621.000000 
	C1038.500000,621.000000 1042.508301,621.164307 1046.498047,620.961365 
	C1052.453247,620.658569 1055.162109,617.674316 1055.000122,612.000000 
	C1054.850464,606.763794 1051.824219,603.980774 1046.000244,604.031982 
	C1041.916870,604.067810 1037.799072,603.492981 1033.500000,604.629517 
	C1033.500000,614.498596 1033.500000,624.499329 1033.500000,634.500000 
"/>
<path fill="none" opacity="1.000000" stroke="#000000" stroke-linecap="round" stroke-linejoin="round" stroke-width="4.000000"
	d="
M942.500000,101.500000 
	C941.872559,101.088165 940.866577,102.330818 940.377747,100.533241 
	C939.652893,97.867256 936.796326,97.053886 934.478882,96.610390 
	C931.025696,95.949562 926.323425,98.033577 926.053528,101.004860 
	C925.710999,104.776375 928.432861,106.128983 931.499756,107.000801 
	C934.395264,107.823875 937.393799,108.251648 940.022400,109.965607 
	C942.702454,111.713127 942.463745,113.854637 940.965271,115.975449 
	C937.227173,121.265900 930.755920,120.575851 926.000000,114.500000 
"/>
<path fill="none" opacity="1.000000" stroke="#000000" stroke-linecap="round" stroke-linejoin="round" stroke-width="4.000000"
	d="
M1713.000000,96.500000 
	C1710.523926,93.313278 1707.935425,91.611748 1703.426636,93.304672 
	C1700.760742,94.305611 1699.079224,94.938637 1698.962280,97.998558 
	C1698.823120,101.637733 1701.571167,102.164291 1704.011841,102.963737 
	C1705.615601,103.489059 1707.479858,103.359108 1708.967896,104.067566 
	C1711.614746,105.327774 1714.647705,106.284538 1714.084106,110.511215 
	C1713.523926,114.713326 1710.100098,115.219185 1707.494019,115.294365 
	C1703.829590,115.400085 1699.617554,114.913612 1698.500000,110.000000 
"/>
<path fill="none" opacity="1.000000" stroke="#000000" stroke-linecap="round" stroke-linejoin="round" stroke-width="4.000000"
	d="
M233.000000,96.500000 
	C228.925079,92.223457 224.695557,91.342293 220.999985,93.999985 
	C217.459641,96.546051 217.600174,99.760910 221.525482,101.954384 
	C223.206451,102.893707 225.120712,103.551270 227.010574,103.949875 
	C229.986176,104.577484 233.188644,104.874702 233.924500,108.515259 
	C234.292236,110.334595 234.118851,112.091766 232.075150,113.601715 
	C228.554657,116.202744 225.051193,115.762726 221.538864,114.399826 
	C220.084457,113.835464 219.023849,112.190453 218.500000,110.500000 
"/>
<path fill="none" opacity="1.000000" stroke="#000000" stroke-linecap="round" stroke-linejoin="round" stroke-width="4.000000"
	d="
M1009.000000,616.500000 
	C1006.356995,612.500610 1002.875366,611.726929 998.478638,613.445312 
	C996.451965,614.237427 995.073792,615.140259 994.976074,617.499023 
	C994.880432,619.807190 995.450745,621.348206 997.979248,622.072388 
	C999.992493,622.648987 1001.813782,623.702881 1003.985718,624.081787 
	C1008.632141,624.892334 1010.365540,627.218506 1010.063965,630.505859 
	C1009.755249,633.872314 1003.921875,636.266418 1001.024231,635.417358 
	C998.361023,634.636902 995.291809,633.953979 994.500000,630.500000 
"/>
<path fill="none" opacity="1.000000" stroke="#000000" stroke-linecap="round" stroke-linejoin="round" stroke-width="4.000000"
	d="
M587.000000,384.500000 
	C584.356995,380.500610 580.875366,379.726959 576.478638,381.445343 
	C574.452026,382.237427 573.073730,383.140259 572.976074,385.498993 
	C572.880432,387.807251 573.450745,389.348267 575.979248,390.072388 
	C577.992493,390.648956 579.813782,391.702911 581.985718,392.081818 
	C586.632141,392.892334 588.365479,395.218567 588.063965,398.505859 
	C587.755127,401.872314 581.921875,404.266449 579.024231,403.417358 
	C576.361023,402.636932 573.291809,401.953949 572.500000,398.500000 
"/>
<path fill="none" opacity="1.000000" stroke="#000000" stroke-linecap="round" stroke-linejoin="round" stroke-width="4.000000"
	d="
M1277.500000,86.500000 
	C1285.576782,94.674225 1287.472412,104.806335 1285.281250,115.454987 
	C1284.166260,120.873085 1282.802856,126.905968 1277.500000,130.500000 
"/>
<path fill="none" opacity="1.000000" stroke="#000000" stroke-linecap="round" stroke-linejoin="round" stroke-width="4.000000"
	d="
M1183.500000,86.500000 
	C1175.423218,94.674225 1173.508911,104.811638 1175.726929,115.452705 
	C1176.852539,120.852936 1178.005127,127.008347 1183.500000,130.500000 
"/>
<path fill="none" opacity="1.000000" stroke="#000000" stroke-linecap="round" stroke-linejoin="round" stroke-width="3.000000"
	d="
M876.500000,371.000000 
	C883.438293,378.159882 885.619934,386.965668 884.381287,396.484558 
	C883.521301,403.093506 881.803406,409.671875 876.500000,414.500000 
"/>
<path fill="none" opacity="1.000000" stroke="#000000" stroke-linecap="round" stroke-linejoin="round" stroke-width="4.000000"
	d="
M1905.000000,103.000000 
	C1910.583374,104.023369 1916.166626,103.236435 1921.717896,103.578484 
	C1922.076172,97.120811 1918.557861,92.642860 1913.500000,92.500000 
	C1908.046631,92.345955 1904.851685,96.640305 1904.325562,102.734932 
	C1903.925537,107.366119 1904.276245,111.026657 1908.506348,113.489120 
	C1914.092407,116.740990 1916.740845,116.026062 1922.000000,110.000000 
"/>
<path fill="none" opacity="1.000000" stroke="#000000" stroke-linecap="round" stroke-linejoin="round" stroke-width="4.000000"
	d="
M1167.000000,632.000000 
	C1167.666626,632.166626 1168.506958,632.132141 1168.971558,632.533020 
	C1171.806519,634.979309 1175.102905,636.398743 1178.441650,634.402344 
	C1182.546753,631.947632 1184.155518,627.651550 1183.899658,623.005554 
	C1183.762329,620.513672 1182.899902,618.034851 1181.039673,615.964355 
	C1177.467773,611.988708 1174.702271,611.511292 1170.490845,614.487000 
	C1169.319458,615.314636 1168.897583,617.190002 1167.000000,617.000000 
"/>
<path fill="none" opacity="1.000000" stroke="#000000" stroke-linecap="round" stroke-linejoin="round" stroke-width="4.000000"
	d="
M1119.000000,107.000000 
	C1123.469604,107.986336 1128.006226,107.520004 1132.498413,107.423851 
	C1135.692017,107.355484 1137.119873,104.169632 1135.500000,101.499977 
	C1133.448730,98.119331 1128.385620,95.877296 1125.007690,97.022575 
	C1121.233521,98.302155 1117.875854,100.194443 1118.452026,106.754211 
	C1118.603271,108.476280 1117.740723,110.339188 1118.084839,111.982185 
	C1118.903198,115.889656 1121.525879,118.128845 1125.490234,119.042267 
	C1129.753784,120.024605 1132.597656,118.156754 1135.006714,115.005127 
	C1135.290405,114.633919 1135.666626,114.333305 1136.000000,113.999969 
"/>
<path fill="none" opacity="1.000000" stroke="#000000" stroke-linecap="round" stroke-linejoin="round" stroke-width="4.000000"
	d="
M1003.000000,123.500000 
	C1005.690369,129.006409 1007.926880,130.236481 1013.000000,129.000000 
	C1019.010559,127.535034 1020.549744,125.819901 1019.904419,119.509773 
	C1019.401062,114.588043 1021.085327,109.859253 1020.500000,105.000000 
	C1019.818542,99.342873 1013.404358,95.417152 1008.486755,97.468231 
	C1003.625427,99.495834 1002.964966,103.455818 1002.964966,108.000000 
	C1002.964966,112.544182 1003.778442,116.232986 1008.421509,118.650703 
	C1011.024231,120.005928 1012.961731,119.039543 1014.957153,118.371933 
	C1016.411682,117.885246 1017.211060,115.775497 1019.250000,116.000000 
"/>
<path fill="none" opacity="1.000000" stroke="#000000" stroke-linecap="round" stroke-linejoin="round" stroke-width="4.000000"
	d="
M1789.000000,119.500000 
	C1792.192749,126.034615 1800.067871,127.534500 1804.525391,122.522621 
	C1805.598389,121.316193 1806.181030,120.016335 1805.974365,118.503494 
	C1805.263550,113.297241 1806.494385,108.174019 1806.528198,103.000183 
	C1806.552368,99.282478 1805.710815,96.414711 1802.050659,94.407593 
	C1797.755005,92.051956 1793.224365,92.566345 1790.500000,96.499985 
	C1786.315552,102.541893 1789.554443,112.727699 1795.936401,115.166306 
	C1798.207153,116.033890 1799.286133,114.421066 1800.990112,114.324646 
	C1802.223267,114.254860 1803.187622,112.208572 1805.000000,112.500000 
"/>
<path fill="none" opacity="1.000000" stroke="#000000" stroke-linecap="round" stroke-linejoin="round" stroke-width="4.000000"
	d="
M313.000000,103.000000 
	C317.463165,104.161217 322.007019,103.429901 326.499664,103.412445 
	C329.703094,103.399994 330.728302,101.325523 329.500000,98.500000 
	C327.992401,95.031929 323.116516,91.952438 320.000000,92.499992 
	C315.205933,93.342285 312.316986,96.984673 311.945679,101.995972 
	C311.660278,105.847481 311.383118,109.526382 314.494843,112.505386 
	C318.934753,116.755928 323.257660,115.860100 326.986877,112.982986 
	C328.491058,111.822525 329.416321,109.916206 331.500000,109.500000 
"/>
<path fill="none" opacity="1.000000" stroke="#000000" stroke-linecap="round" stroke-linejoin="round" stroke-width="4.000000"
	d="
M732.000000,384.000000 
	C728.440002,382.746490 725.688354,378.446625 720.928589,381.901611 
	C717.746826,384.211151 715.084229,389.451935 716.000000,394.000000 
	C716.944397,398.690247 720.890259,403.100342 724.500000,403.500000 
	C727.543335,403.836945 732.312195,400.550781 732.979370,397.495483 
	C733.930420,393.140076 733.859741,388.787445 732.500000,384.500000 
"/>
<path fill="none" opacity="1.000000" stroke="#000000" stroke-linecap="round" stroke-linejoin="round" stroke-width="4.000000"
	d="
M789.000000,371.000000 
	C778.824097,383.438721 779.962769,403.109711 789.000000,414.000000 
"/>
<path fill="none" opacity="1.000000" stroke="#000000" stroke-linecap="round" stroke-linejoin="round" stroke-width="4.000000"
	d="
M850.000000,101.000000 
	C846.175964,96.629028 843.704590,95.322922 838.491821,97.480202 
	C836.403137,98.344627 834.978088,100.061684 835.173950,101.982262 
	C835.332275,103.535065 835.842224,105.745995 838.490173,106.078156 
	C840.707092,106.356232 842.662354,107.702660 844.985107,108.089508 
	C849.079041,108.771355 851.812500,112.004631 851.000061,114.500015 
	C850.081604,117.320831 844.381409,120.521896 841.528015,119.427010 
	C838.840088,118.395638 835.926636,117.298851 835.000000,114.000000 
"/>
<path fill="none" opacity="1.000000" stroke="#000000" stroke-linecap="round" stroke-linejoin="round" stroke-width="4.000000"
	d="
M758.000000,385.000000 
	C754.175903,380.628967 751.704529,379.322968 746.491821,381.480225 
	C744.403137,382.344604 742.978027,384.061707 743.173889,385.982269 
	C743.332214,387.535065 743.842407,389.746613 746.489685,390.081360 
	C748.541199,390.340729 750.469421,391.453430 752.507141,391.972046 
	C755.618164,392.763824 758.889343,393.530853 758.926636,397.500702 
	C758.961182,401.174622 755.845886,402.090393 752.999939,402.999725 
	C748.272766,404.510284 745.081848,402.662201 743.500000,397.500000 
"/>
<path fill="none" opacity="1.000000" stroke="#000000" stroke-linecap="round" stroke-linejoin="round" stroke-width="4.000000"
	d="
M1831.500000,103.000000 
	C1828.333374,103.500000 1825.173096,104.046715 1821.998413,104.488586 
	C1817.726318,105.083206 1815.234375,107.949997 1815.999878,111.500031 
	C1816.594116,114.255547 1820.962158,115.851967 1824.515625,115.071007 
	C1827.307739,114.457336 1829.267456,111.968636 1832.250000,112.000000 
"/>
<path fill="none" opacity="1.000000" stroke="#000000" stroke-linecap="round" stroke-linejoin="round" stroke-width="4.000000"
	d="
M1207.500000,623.000000 
	C1204.333374,623.500000 1201.175171,624.064819 1197.997803,624.483643 
	C1193.963989,625.015442 1191.326172,627.814758 1192.000000,631.000000 
	C1192.580933,633.746460 1197.048584,636.464905 1199.973755,635.426086 
	C1202.762207,634.435852 1205.333252,632.833252 1208.000000,631.499939 
"/>
<path fill="none" opacity="1.000000" stroke="#000000" stroke-linecap="round" stroke-linejoin="round" stroke-width="5.000000"
	d="
M278.000000,84.000000 
	C271.495728,84.000000 264.991455,84.000000 258.375000,84.000000 
	C258.375000,94.500000 258.375000,104.500000 258.375000,115.000000 
	C265.325195,115.000000 272.162598,115.000000 279.000000,115.000000 
"/>
<path fill="none" opacity="1.000000" stroke="#000000" stroke-linecap="round" stroke-linejoin="round" stroke-width="4.000000"
	d="
M914.500000,106.999992 
	C911.500000,107.499992 908.514404,108.127579 905.496521,108.468971 
	C901.356384,108.937294 898.648376,111.334251 899.000000,114.500000 
	C899.348328,117.637291 904.112183,120.620049 907.474976,119.429291 
	C910.264038,118.441650 913.470459,117.400414 915.311401,115.332176 
	C916.978088,113.459686 916.276245,110.166122 915.495850,107.501221 
	C915.444275,107.325233 915.220459,107.121727 915.266296,107.006485 
	C917.050964,102.520340 916.355591,98.812828 911.479919,97.055756 
	C906.775574,95.360405 902.991699,97.246964 900.000000,101.000000 
"/>
<path fill="none" opacity="1.000000" stroke="#000000" stroke-linecap="round" stroke-linejoin="round" stroke-width="4.000000"
	d="
M1045.500000,107.000000 
	C1042.333374,107.500000 1039.175171,108.064850 1035.997803,108.483688 
	C1031.963989,109.015442 1029.326172,111.814766 1029.999878,115.000023 
	C1030.580933,117.746490 1035.048584,120.464828 1037.973755,119.426064 
	C1040.762207,118.435867 1043.333374,116.833313 1046.000000,115.499985 
"/>
<path fill="none" opacity="1.000000" stroke="#000000" stroke-linecap="round" stroke-linejoin="round" stroke-width="4.000000"
	d="
M355.500000,115.500000 
	C355.500000,110.333336 355.662354,105.160278 355.459442,100.001595 
	C355.197723,93.347694 350.353607,90.984299 344.452209,93.903358 
	C340.366821,95.924141 339.469391,99.045113 339.494141,103.000038 
	C339.520203,107.166534 339.500000,111.333336 339.500000,115.500000 
"/>
<path fill="none" opacity="1.000000" stroke="#000000" stroke-linecap="round" stroke-linejoin="round" stroke-width="5.000000"
	d="
M563.000000,403.000000 
	C563.000000,398.500000 563.016174,393.999939 562.996338,389.500031 
	C562.961670,381.629242 557.841003,378.676208 550.976074,382.456573 
	C549.889404,383.054993 549.013855,384.310150 547.500000,384.000000 
"/>
<path fill="none" opacity="1.000000" stroke="#000000" stroke-linecap="round" stroke-linejoin="round" stroke-width="5.000000"
	d="
M985.000000,635.000000 
	C985.000000,630.500000 985.016174,625.999939 984.996338,621.500000 
	C984.961670,613.629211 979.841003,610.676208 972.976135,614.456665 
	C971.889465,615.055054 971.013855,616.310181 969.500000,616.000000 
"/>
<path fill="none" opacity="1.000000" stroke="#000000" stroke-linecap="round" stroke-linejoin="round" stroke-width="5.000000"
	d="
M209.000000,115.000000 
	C209.000000,110.500000 209.016251,105.999931 208.996414,101.500015 
	C208.961731,93.629211 203.840973,90.676201 196.976089,94.456589 
	C195.889450,95.054993 195.013885,96.310165 193.500000,96.000000 
"/>
<path fill="none" opacity="1.000000" stroke="#000000" stroke-linecap="round" stroke-linejoin="round" stroke-width="5.000000"
	d="
M1236.000000,635.000000 
	C1236.000000,630.833313 1235.980347,626.666565 1236.005859,622.500061 
	C1236.027954,618.884827 1235.691528,615.514954 1232.013428,613.475891 
	C1228.526855,611.543091 1225.799805,613.213989 1222.987061,614.979431 
	C1222.239136,615.448853 1221.333374,615.666687 1220.500000,616.000061 
"/>
<path fill="none" opacity="1.000000" stroke="#000000" stroke-linecap="round" stroke-linejoin="round" stroke-width="5.000000"
	d="
M707.000000,403.000000 
	C707.000000,398.166656 707.015442,393.333282 706.996338,388.500000 
	C706.968994,381.582642 702.113892,378.735352 695.990662,381.982330 
	C694.676147,382.679352 693.753418,384.173462 692.000000,384.000000 
"/>
<path fill="none" opacity="1.000000" stroke="#000000" stroke-linecap="round" stroke-linejoin="round" stroke-width="5.000000"
	d="
M826.000000,119.000000 
	C826.000000,114.333336 826.164185,109.659561 825.962585,105.001617 
	C825.636353,97.466583 820.418518,94.731667 813.973328,98.453796 
	C812.905518,99.070457 812.013855,100.310165 810.500000,100.000000 
"/>
<path fill="none" opacity="1.000000" stroke="#000000" stroke-linecap="round" stroke-linejoin="round" stroke-width="5.000000"
	d="
M1689.000000,115.000000 
	C1689.000000,110.500000 1688.956299,105.999428 1689.014771,101.500191 
	C1689.056763,98.270653 1688.701172,95.131142 1685.474365,93.552368 
	C1682.288452,91.993530 1679.177002,92.404442 1676.478027,94.976921 
	C1675.791626,95.631210 1674.833374,96.000008 1674.000000,96.500008 
"/>
<path fill="none" opacity="1.000000" stroke="#000000" stroke-linecap="round" stroke-linejoin="round" stroke-width="5.000000"
	d="
M1074.000000,119.000000 
	C1074.000000,114.500000 1073.956299,109.999428 1074.014771,105.500191 
	C1074.056763,102.270653 1073.702515,99.127602 1070.473999,97.553452 
	C1067.292236,96.002197 1064.159302,96.278374 1061.474854,98.974960 
	C1060.810059,99.642731 1059.833374,99.999969 1059.000000,100.499969 
"/>
<path fill="none" opacity="1.000000" stroke="#000000" stroke-linecap="round" stroke-linejoin="round" stroke-width="5.000000"
	d="
M1860.000000,115.000000 
	C1860.000000,110.833336 1859.980347,106.666542 1860.005859,102.500038 
	C1860.027954,98.884827 1859.691528,95.514885 1856.013428,93.475769 
	C1852.526978,91.542961 1849.799805,93.214058 1846.987061,94.979446 
	C1846.239136,95.448906 1845.333374,95.666634 1844.500000,95.999969 
"/>
<path fill="none" opacity="1.000000" stroke="#000000" stroke-linecap="round" stroke-linejoin="round" stroke-width="5.000000"
	d="
M890.000000,119.000000 
	C890.000000,114.666664 890.034912,110.332993 889.992554,106.000076 
	C889.910400,97.597023 884.681641,94.440666 877.535095,98.560867 
	C876.685364,99.050735 876.027466,99.652069 875.000000,99.500000 
"/>
<path fill="none" opacity="1.000000" stroke="#000000" stroke-linecap="round" stroke-linejoin="round" stroke-width="8.000000"
	d="
M566.500000,81.500000 
	C560.833313,87.500000 555.203735,93.535614 549.482117,99.482780 
	C547.137085,101.920242 547.137085,104.079742 549.482117,106.517204 
	C555.203735,112.464340 560.833313,118.499992 566.500000,124.499992 
"/>
<path fill="none" opacity="1.000000" stroke="#000000" stroke-linecap="round" stroke-linejoin="round" stroke-width="3.000000"
	d="
M305.500000,172.500000 
	C305.333405,180.577759 309.819763,187.412689 311.535767,194.991898 
	C311.963104,196.879425 312.833344,198.666656 313.500000,200.500000 
"/>
<path fill="none" opacity="1.000000" stroke="#000000" stroke-linecap="round" stroke-linejoin="round" stroke-width="4.000000"
	d="
M681.000000,390.500000 
	C680.810974,384.301605 677.704529,380.647034 672.500000,380.500000 
	C666.981445,380.344147 663.985962,384.162506 663.360413,390.736725 
	C663.049316,394.006378 663.052551,396.941254 665.036072,399.471741 
	C669.642090,405.348114 676.448364,404.656769 681.000000,398.000000 
"/>
<path fill="none" opacity="1.000000" stroke="#000000" stroke-linecap="round" stroke-linejoin="round" stroke-width="5.000000"
	d="
M1246.000000,91.500000 
	C1244.274292,94.345291 1245.089722,97.488014 1245.034058,100.500626 
	C1244.920410,106.665199 1245.000000,112.833336 1245.000000,119.000000 
"/>
<path fill="none" opacity="1.000000" stroke="#000000" stroke-linecap="round" stroke-linejoin="round" stroke-width="5.000000"
	d="
M1268.000000,88.000000 
	C1268.000000,94.833336 1267.915649,101.668236 1268.043091,108.499199 
	C1268.091309,111.089165 1267.605469,113.458611 1266.500000,115.750000 
"/>
<path fill="none" opacity="1.000000" stroke="#000000" stroke-linecap="round" stroke-linejoin="round" stroke-width="5.000000"
	d="
M1202.500000,87.500000 
	C1200.485718,90.397354 1202.028687,93.495659 1202.012939,96.500069 
	C1201.973511,103.999863 1202.000000,111.500000 1202.000000,119.000000 
"/>
<path fill="none" opacity="1.000000" stroke="#000000" stroke-linecap="round" stroke-linejoin="round" stroke-width="5.000000"
	d="
M862.500000,371.500000 
	C860.485718,374.397339 862.028748,377.495667 862.012939,380.500061 
	C861.973572,387.999847 862.000000,395.500000 862.000000,403.000000 
"/>
<path fill="none" opacity="1.000000" stroke="#000000" stroke-linecap="round" stroke-linejoin="round" stroke-width="4.000000"
	d="
M1081.500000,635.500000 
	C1079.049316,631.156860 1081.156860,626.477478 1080.816895,621.976074 
	C1080.550171,618.445923 1080.597778,615.438354 1077.467896,613.553223 
	C1074.089844,611.518494 1068.952148,612.476990 1065.952515,614.942261 
	C1064.866699,615.834656 1064.907104,618.403320 1062.500000,617.500000 
"/>
<path fill="none" opacity="1.000000" stroke="#000000" stroke-linecap="round" stroke-linejoin="round" stroke-width="4.000000"
	d="
M1147.000000,618.000000 
	C1143.733398,612.913269 1141.953369,612.383484 1137.479980,613.412964 
	C1131.591309,614.768066 1130.895386,618.444763 1130.569214,624.503723 
	C1130.462769,626.480042 1130.652832,628.790039 1131.589722,630.449402 
	C1135.471558,637.325012 1142.957153,637.037231 1146.965820,629.980591 
	C1147.595215,628.872742 1148.144531,628.129761 1149.500000,628.500000 
"/>
<path fill="none" opacity="1.000000" stroke="#000000" stroke-linecap="round" stroke-linejoin="round" stroke-width="4.000000"
	d="
M627.500000,403.500000 
	C625.049377,399.156830 627.156738,394.477509 626.816711,389.976074 
	C626.550049,386.445953 626.597778,383.438354 623.467957,381.553162 
	C620.089844,379.518494 614.952209,380.476990 611.952515,382.942230 
	C610.866699,383.834625 610.907104,386.403320 608.500000,385.500000 
"/>
<path fill="none" opacity="1.000000" stroke="#000000" stroke-linecap="round" stroke-linejoin="round" stroke-width="5.000000"
	d="
M368.000000,84.500000 
	C366.831085,86.360733 366.988586,88.437927 366.994690,90.500015 
	C367.010498,95.833305 367.000000,101.166664 367.000000,106.500000 
	C367.000000,113.662079 367.000000,113.662079 373.500000,116.000000 
"/>
<path fill="none" opacity="1.000000" stroke="#000000" stroke-linecap="round" stroke-linejoin="round" stroke-width="4.000000"
	d="
M1245.500000,88.500000 
	C1253.585449,97.019249 1257.451294,108.700912 1266.477539,116.525856 
	C1266.820190,116.822861 1266.833252,117.500023 1266.999878,118.000023 
"/>
<path fill="none" opacity="1.000000" stroke="#000000" stroke-linecap="round" stroke-linejoin="round" stroke-width="5.000000"
	d="
M1247.500000,613.500000 
	C1246.409546,619.474365 1247.033936,625.505371 1247.087769,631.499207 
	C1247.122925,635.410645 1251.214844,634.671143 1253.500000,636.000000 
"/>
<path fill="none" opacity="1.000000" stroke="#000000" stroke-linecap="round" stroke-linejoin="round" stroke-width="4.000000"
	d="
M639.000000,372.500000 
	C637.885315,381.482452 638.776855,390.501770 638.512634,399.500366 
	C638.411499,402.944763 641.315979,402.813385 643.500000,403.500000 
"/>
<path fill="none" opacity="1.000000" stroke="#000000" stroke-linecap="round" stroke-linejoin="round" stroke-width="4.000000"
	d="
M1109.000000,604.500000 
	C1107.885376,613.482422 1108.725220,622.500977 1108.545532,631.500916 
	C1108.489990,634.285889 1110.508301,635.108398 1113.000000,635.000000 
"/>
<path fill="none" opacity="1.000000" stroke="#000000" stroke-linecap="round" stroke-linejoin="round" stroke-width="4.000000"
	d="
M1049.500000,120.000000 
	C1046.528442,120.145317 1046.635986,116.658043 1046.739502,116.040161 
	C1047.312378,112.622963 1046.211792,109.257065 1046.644287,106.019264 
	C1047.188843,101.941170 1047.172852,98.961525 1042.520630,97.437187 
	C1037.312256,95.730644 1034.189087,96.491241 1031.000000,101.000000 
"/>
<path fill="none" opacity="1.000000" stroke="#000000" stroke-linecap="round" stroke-linejoin="round" stroke-width="4.000000"
	d="
M1211.500000,636.000000 
	C1208.528442,636.145325 1208.635986,632.658020 1208.739624,632.040161 
	C1209.312500,628.622986 1208.211792,625.257019 1208.644165,622.019226 
	C1209.188721,617.941162 1209.172852,614.961487 1204.520630,613.437134 
	C1199.312256,611.730530 1196.189087,612.491272 1193.000000,617.000000 
"/>
<path fill="none" opacity="1.000000" stroke="#000000" stroke-linecap="round" stroke-linejoin="round" stroke-width="5.000000"
	d="
M653.000000,372.500000 
	C651.831055,374.360748 651.990295,376.437958 651.994751,378.500000 
	C652.008972,385.166626 652.068909,391.834381 651.968079,398.499512 
	C651.924194,401.395782 652.729675,403.221771 656.000000,403.000000 
"/>
<path fill="none" opacity="1.000000" stroke="#000000" stroke-linecap="round" stroke-linejoin="round" stroke-width="4.000000"
	d="
M1833.500000,115.500000 
	C1831.389648,111.389374 1833.165405,106.988022 1832.762329,102.725197 
	C1832.408081,98.978149 1833.534058,95.366379 1829.007935,93.480812 
	C1824.500732,91.603134 1820.855957,92.453308 1817.000000,96.500000 
"/>
<path fill="none" opacity="1.000000" stroke="#000000" stroke-linecap="round" stroke-linejoin="round" stroke-width="5.000000"
	d="
M1156.000000,613.000000 
	C1156.000000,620.333313 1156.000000,627.666687 1156.000000,635.000000 
"/>
<path fill="none" opacity="1.000000" stroke="#000000" stroke-linecap="round" stroke-linejoin="round" stroke-width="5.000000"
	d="
M1870.000000,93.000000 
	C1870.000000,100.333336 1870.000000,107.666664 1870.000000,115.000000 
"/>
<path fill="none" opacity="1.000000" stroke="#000000" stroke-linecap="round" stroke-linejoin="round" stroke-width="5.000000"
	d="
M1121.000000,613.000000 
	C1121.000000,620.333313 1121.000000,627.666687 1121.000000,635.000000 
"/>
<path fill="none" opacity="1.000000" stroke="#000000" stroke-linecap="round" stroke-linejoin="round" stroke-width="5.000000"
	d="
M1084.000000,97.000000 
	C1084.000000,104.333336 1084.000000,111.666664 1084.000000,119.000000 
"/>
<path fill="none" opacity="1.000000" stroke="#000000" stroke-linecap="round" stroke-linejoin="round" stroke-width="4.000000"
	d="
M286.500000,92.500000 
	C288.166687,96.666664 290.198944,100.732285 291.387085,105.031212 
	C292.380676,108.626106 293.935577,111.835709 295.750000,115.000000 
"/>
<path fill="none" opacity="1.000000" stroke="#000000" stroke-linecap="round" stroke-linejoin="round" stroke-width="4.000000"
	d="
M304.500000,92.500000 
	C301.211670,99.315842 300.070648,107.000809 296.000000,113.500000 
"/>
<path fill="none" opacity="1.000000" stroke="#000000" stroke-linecap="round" stroke-linejoin="round" stroke-width="4.000000"
	d="
M1896.500000,92.499954 
	C1890.816406,99.653320 1885.132935,106.806686 1879.128662,114.363831 
	C1885.321655,116.640068 1891.502319,114.971458 1897.500000,115.500000 
"/>
<path fill="none" opacity="1.000000" stroke="#000000" stroke-linecap="round" stroke-linejoin="round" stroke-width="4.000000"
	d="
M1110.500000,96.499992 
	C1104.792480,103.634361 1099.084961,110.768730 1093.036133,118.329819 
	C1099.321655,120.640068 1105.502319,118.971458 1111.500000,119.500000 
"/>
<path fill="none" opacity="1.000000" stroke="#000000" stroke-linecap="round" stroke-linejoin="round" stroke-width="5.000000"
	d="
M874.000000,88.000000 
	C874.000000,98.333336 874.000000,108.666664 874.000000,119.000000 
"/>
<path fill="none" opacity="1.000000" stroke="#000000" stroke-linecap="round" stroke-linejoin="round" stroke-width="5.000000"
	d="
M192.500000,92.500000 
	C193.657608,99.977982 192.688339,107.503220 193.000000,115.000000 
"/>
<path fill="none" opacity="1.000000" stroke="#000000" stroke-linecap="round" stroke-linejoin="round" stroke-width="5.000000"
	d="
M1774.000000,93.000000 
	C1774.000000,100.333336 1774.000000,107.666664 1774.000000,115.000000 
"/>
<path fill="none" opacity="1.000000" stroke="#000000" stroke-linecap="round" stroke-linejoin="round" stroke-width="5.000000"
	d="
M691.000000,381.000000 
	C691.000000,388.333344 691.000000,395.666656 691.000000,403.000000 
"/>
<path fill="none" opacity="1.000000" stroke="#000000" stroke-linecap="round" stroke-linejoin="round" stroke-width="5.000000"
	d="
M546.500000,380.500000 
	C547.657593,387.977966 546.688354,395.503235 547.000000,403.000000 
"/>
<path fill="none" opacity="1.000000" stroke="#000000" stroke-linecap="round" stroke-linejoin="round" stroke-width="5.000000"
	d="
M968.500000,612.500000 
	C969.657593,619.977966 968.688354,627.503235 969.000000,635.000000 
"/>
<path fill="none" opacity="1.000000" stroke="#000000" stroke-linecap="round" stroke-linejoin="round" stroke-width="5.000000"
	d="
M1091.500000,612.500000 
	C1092.456787,619.982422 1091.813599,627.500427 1092.000000,635.000000 
"/>
<path fill="none" opacity="1.000000" stroke="#000000" stroke-linecap="round" stroke-linejoin="round" stroke-width="5.000000"
	d="
M1219.500000,612.500000 
	C1220.657593,619.977966 1219.688354,627.503235 1220.000000,635.000000 
"/>
<path fill="none" opacity="1.000000" stroke="#000000" stroke-linecap="round" stroke-linejoin="round" stroke-width="5.000000"
	d="
M988.000000,97.000000 
	C988.000000,104.333336 988.000000,111.666664 988.000000,119.000000 
"/>
<path fill="none" opacity="1.000000" stroke="#000000" stroke-linecap="round" stroke-linejoin="round" stroke-width="5.000000"
	d="
M1843.500000,92.500000 
	C1844.657593,99.977982 1843.688354,107.503220 1844.000000,115.000000 
"/>
<path fill="none" opacity="1.000000" stroke="#000000" stroke-linecap="round" stroke-linejoin="round" stroke-width="5.000000"
	d="
M1931.500000,92.500000 
	C1932.456787,99.982445 1931.813599,107.500443 1932.000000,115.000000 
"/>
<path fill="none" opacity="1.000000" stroke="#000000" stroke-linecap="round" stroke-linejoin="round" stroke-width="5.000000"
	d="
M809.500000,96.500000 
	C810.657593,103.977982 809.688354,111.503220 810.000000,119.000000 
"/>
<path fill="none" opacity="1.000000" stroke="#000000" stroke-linecap="round" stroke-linejoin="round" stroke-width="5.000000"
	d="
M1156.500000,96.500000 
	C1155.000000,97.782776 1153.451538,96.156029 1152.009766,96.536873 
	C1148.641968,97.426422 1146.010376,101.249039 1146.002441,105.000008 
	C1145.992432,109.666649 1146.000000,114.333336 1146.000000,119.000000 
"/>
<path fill="none" opacity="1.000000" stroke="#000000" stroke-linecap="round" stroke-linejoin="round" stroke-width="5.000000"
	d="
M1057.500000,96.500000 
	C1058.484131,103.981834 1057.784180,111.501091 1058.000000,119.000000 
"/>
<path fill="none" opacity="1.000000" stroke="#000000" stroke-linecap="round" stroke-linejoin="round" stroke-width="5.000000"
	d="
M277.000000,99.000000 
	C271.000000,99.000000 265.000000,99.000000 259.000000,99.000000 
"/>
<path fill="none" opacity="1.000000" stroke="#000000" stroke-linecap="round" stroke-linejoin="round" stroke-width="5.000000"
	d="
M1672.500000,92.500000 
	C1673.484131,99.981834 1672.784180,107.501091 1673.000000,115.000000 
"/>
<path fill="none" opacity="1.000000" stroke="#000000" stroke-linecap="round" stroke-linejoin="round" stroke-width="4.000000"
	d="
M625.500000,391.000000 
	C622.333313,391.500000 619.178955,392.106659 615.996887,392.473114 
	C611.987061,392.934845 609.468628,395.567963 610.000000,399.000000 
	C610.411194,401.655975 615.066040,404.434418 617.979858,403.440887 
	C620.575806,402.555725 623.000000,401.166656 625.500000,400.000000 
"/>
<path fill="none" opacity="1.000000" stroke="#000000" stroke-linecap="round" stroke-linejoin="round" stroke-width="4.000000"
	d="
M1079.500000,623.000000 
	C1076.333374,623.500000 1073.178955,624.106689 1069.996948,624.473145 
	C1065.987061,624.934937 1063.468628,627.567932 1064.000000,631.000000 
	C1064.411255,633.656006 1069.065918,636.434448 1071.979858,635.440918 
	C1074.575806,634.555786 1077.000000,633.166748 1079.500000,632.000061 
"/>
<path fill="none" opacity="1.000000" stroke="#000000" stroke-linecap="round" stroke-linejoin="round" stroke-width="4.000000"
	d="
M682.500000,391.500000 
	C676.342041,391.011505 670.138306,392.217133 664.000000,391.000000 
"/>
<path fill="none" opacity="1.000000" stroke="#000000" stroke-linecap="round" stroke-linejoin="round" stroke-width="4.000000"
	d="
M1113.500000,612.500000 
	C1108.833374,612.500000 1104.165405,612.563782 1099.500366,612.477173 
	C1096.492798,612.421387 1095.095947,615.358521 1092.500000,616.000000 
"/>
<path fill="none" opacity="1.000000" stroke="#000000" stroke-linecap="round" stroke-linejoin="round" stroke-width="4.000000"
	d="
M1108.500000,97.500000 
	C1103.614380,95.451019 1098.492310,96.948494 1093.500000,96.500000 
"/>
<path fill="none" opacity="1.000000" stroke="#000000" stroke-linecap="round" stroke-linejoin="round" stroke-width="4.000000"
	d="
M1894.500000,93.500000 
	C1889.614380,91.451019 1884.492310,92.948494 1879.500000,92.500000 
"/>
<path fill="none" opacity="1.000000" stroke="#000000" stroke-linecap="round" stroke-linejoin="round" stroke-width="5.000000"
	d="
M1166.000000,613.000000 
	C1166.000000,623.666687 1166.000000,634.333313 1166.000000,645.000000 
"/>
<path fill="none" opacity="1.000000" stroke="#000000" stroke-linecap="round" stroke-linejoin="round" stroke-width="4.000000"
	d="
M733.500000,371.500000 
	C733.010864,375.654205 734.564087,379.971802 732.500000,384.000000 
"/>
<path fill="none" opacity="1.000000" stroke="#000000" stroke-linecap="round" stroke-linejoin="round" stroke-width="3.000000"
	d="
M1942.500000,92.500000 
	C1938.738403,92.443207 1935.413452,93.633598 1932.500000,96.000000 
"/>
<path fill="none" opacity="1.000000" stroke="#000000" stroke-linecap="round" stroke-linejoin="round" stroke-width="4.000000"
	d="
M1783.500000,93.500000 
	C1782.000000,91.427742 1780.403564,92.660622 1779.027710,93.543182 
	C1777.701782,94.393715 1776.940552,96.138168 1775.000000,96.000000 
"/>
<path fill="none" opacity="1.000000" stroke="#000000" stroke-linecap="round" stroke-linejoin="round" stroke-width="4.000000"
	d="
M1200.500000,91.500000 
	C1197.437012,92.532631 1195.195923,94.880066 1192.500000,96.500000 
"/>
<path fill="none" opacity="1.000000" stroke="#000000" stroke-linecap="round" stroke-linejoin="round" stroke-width="4.000000"
	d="
M860.500000,375.500000 
	C857.437073,376.532623 855.195862,378.880066 852.500000,380.500000 
"/>
<path fill="none" opacity="1.000000" stroke="#000000" stroke-linecap="round" stroke-linejoin="round" stroke-width="4.000000"
	d="
M997.000000,97.000000 
	C993.186157,94.940781 991.946533,99.746239 989.000000,100.000000 
"/>
<path fill="none" opacity="1.000000" stroke="#000000" stroke-linecap="round" stroke-linejoin="round" stroke-width="4.000000"
	d="
M656.500000,380.500000 
	C653.833313,380.590179 651.166687,381.587463 648.500000,380.500000 
"/>
<path fill="none" opacity="1.000000" stroke="#000000" stroke-linecap="round" stroke-linejoin="round" stroke-width="4.000000"
	d="
M1251.500000,612.500000 
	C1248.833374,612.500000 1246.166626,612.500000 1243.500000,612.500000 
"/>
<path fill="none" opacity="1.000000" stroke="#000000" stroke-linecap="round" stroke-linejoin="round" stroke-width="4.000000"
	d="
M371.500000,92.500000 
	C368.833344,92.590164 366.166656,93.587456 363.500000,92.500000 
"/>
<path fill="none" opacity="1.000000" stroke="#000000" stroke-linecap="round" stroke-linejoin="round" stroke-width="4.000000"
	d="
M642.500000,380.500000 
	C639.833313,381.143677 637.166687,381.143677 634.500000,380.500000 
"/>
<path fill="none" opacity="1.000000" stroke="#000000" stroke-linecap="round" stroke-linejoin="round" stroke-width="5.000000"
	d="
M962.500000,88.000000 
	C956.284241,89.175957 952.112732,92.749794 951.081299,99.013390 
	C949.998352,105.589310 950.259094,112.000656 956.487915,116.516693 
	C964.432190,122.276588 976.138855,117.587761 978.068054,108.514465 
	C980.670227,96.275558 974.878784,88.123131 963.000000,88.000000 
"/>
<path fill="none" opacity="1.000000" stroke="#000000" stroke-linecap="round" stroke-linejoin="round" stroke-width="4.000000"
	d="
M805.000000,371.500000 
	C798.591125,373.005219 796.843994,377.654724 797.017334,383.499481 
	C797.145813,387.833527 796.358582,392.238251 797.538513,396.489319 
	C798.819031,401.102814 802.237549,403.773407 806.000000,403.500000 
	C809.780762,403.225189 813.238586,399.381622 814.035889,395.006531 
	C814.952148,389.978394 815.087036,384.996429 813.995239,380.001038 
	C812.982056,375.364960 810.586670,372.080017 805.500000,371.500000 
"/>
<path fill="none" opacity="1.000000" stroke="#000000" stroke-linecap="round" stroke-linejoin="round" stroke-width="5.000000"
	d="
M1748.500000,84.000000 
	C1735.696899,85.380165 1733.309937,101.367035 1739.039307,109.472237 
	C1742.308105,114.096588 1750.553467,116.414818 1755.500000,114.499992 
	C1761.050171,112.351509 1765.095825,105.159042 1764.499878,98.500008 
	C1763.619751,88.665863 1758.740112,84.100960 1749.000000,84.000000 
"/>
</svg>