<?xml version="1.0" standalone="no"?>
<!DOCTYPE svg PUBLIC "-//W3C//DTD SVG 20010904//EN"
 "http://www.w3.org/TR/2001/REC-SVG-20010904/DTD/svg10.dtd">
<svg version="1.0" xmlns="http://www.w3.org/2000/svg"
 width="3907.000000pt" height="2428.000000pt" viewBox="0 0 3907.000000 2428.000000"
 preserveAspectRatio="xMidYMid meet">

<g transform="translate(0.000000,2428.000000) scale(0.100000,-0.100000)"
fill="#000000" stroke="none">
<path d="M640 23230 l0 -620 720 0 720 0 0 -2820 c0 -2813 0 -2820 20 -2820
20 0 20 7 20 2820 l0 2820 665 0 665 0 -100 -200 -100 -200 95 0 95 0 -2
-1858 -3 -1858 409 -307 409 -307 889 0 888 0 0 -50 c0 -43 3 -50 20 -50 17 0
20 7 20 50 l0 50 888 0 889 0 399 300 399 300 58 0 c50 0 57 2 57 20 0 18 -7
20 -57 20 l-58 0 -399 300 -399 300 -889 0 -888 0 0 50 c0 43 -3 50 -20 50
-17 0 -20 -7 -20 -50 l0 -50 -888 0 -889 0 -386 -290 -387 -290 0 1835 0 1835
95 0 95 0 -100 200 -100 200 1005 0 1005 0 0 310 0 311 1760 -3 c1606 -3 1760
-2 1760 13 0 13 -20 17 -122 22 -66 4 -858 7 -1760 7 l-1638 0 0 290 0 290
-2420 0 -2420 0 0 -620z m4800 0 l0 -580 -2380 0 -2380 0 0 580 0 580 2380 0
2380 0 0 -580z m-1907 -835 c37 -74 67 -137 67 -140 0 -3 -63 -5 -140 -5 -77
0 -140 2 -140 5 0 10 135 275 140 275 3 0 36 -61 73 -135z m4684 -3602 c210
-158 383 -290 383 -293 0 -3 -173 -135 -383 -293 l-384 -287 -1783 0 -1783 0
-384 287 c-210 158 -382 291 -381 295 2 4 174 135 383 292 l380 286 1784 0
1784 0 384 -287z"/>
<path d="M2845 23313 c-26 -71 -56 -149 -66 -175 l-19 -48 24 0 c20 0 27 8 41
50 l17 51 76 -3 76 -3 17 -45 c13 -36 22 -46 43 -48 27 -3 27 -3 13 30 -7 18
-40 97 -72 176 -50 123 -61 142 -80 142 -19 0 -29 -17 -70 -127z m100 7 c14
-40 25 -77 25 -82 0 -4 -25 -8 -56 -8 -41 0 -55 3 -51 13 2 6 15 45 28 84 12
40 24 71 26 69 2 -1 14 -36 28 -76z"/>
<path d="M3883 23413 c-7 -2 -13 -18 -13 -34 0 -19 -5 -29 -15 -29 -8 0 -15
-6 -15 -14 0 -8 7 -16 15 -20 12 -4 15 -25 15 -100 0 -105 10 -126 60 -126 23
0 27 3 23 20 -3 11 -14 20 -24 20 -17 0 -19 9 -19 91 0 82 2 91 20 96 11 3 20
12 20 19 0 8 -9 14 -20 14 -16 0 -20 7 -20 35 0 35 -3 38 -27 28z"/>
<path d="M2150 23220 c0 -123 1 -130 20 -130 18 0 20 7 20 79 0 44 4 91 10
106 13 35 55 50 86 30 23 -15 24 -21 24 -115 0 -93 1 -100 20 -100 19 0 20 7
20 105 0 99 -2 107 -25 130 -28 29 -63 32 -105 10 -27 -14 -30 -14 -30 0 0 8
-9 15 -20 15 -19 0 -20 -7 -20 -130z"/>
<path d="M2450 23337 c-13 -7 -29 -24 -34 -39 -15 -43 12 -72 84 -92 65 -18
83 -38 57 -63 -27 -27 -77 -21 -103 13 -17 21 -26 26 -35 17 -17 -17 -1 -52
33 -69 44 -23 106 -13 135 21 44 51 25 87 -62 114 -33 10 -64 26 -69 35 -26
40 63 56 96 17 25 -31 52 -22 37 13 -20 43 -88 59 -139 33z"/>
<path d="M3144 23338 c-33 -16 -47 -54 -32 -86 10 -19 29 -31 78 -46 51 -17
65 -25 65 -41 0 -48 -100 -52 -112 -5 -6 24 -31 26 -40 4 -3 -10 4 -26 21 -42
54 -55 176 -23 176 45 0 34 -31 59 -94 77 -78 23 -88 55 -24 71 21 5 33 1 53
-19 27 -27 40 -32 49 -17 10 16 -5 41 -35 56 -32 17 -74 18 -105 3z"/>
<path d="M3384 23338 c-33 -16 -47 -54 -32 -86 10 -19 29 -31 78 -46 51 -17
65 -25 65 -41 0 -48 -100 -52 -112 -5 -6 24 -31 26 -40 4 -3 -10 4 -26 21 -42
54 -55 176 -23 176 45 0 34 -31 59 -94 77 -78 23 -88 55 -24 71 21 5 33 1 53
-19 27 -27 40 -32 49 -17 10 16 -5 41 -35 56 -32 17 -74 18 -105 3z"/>
<path d="M3634 23331 c-34 -21 -54 -65 -54 -118 0 -94 89 -150 170 -108 32 16
55 50 45 65 -10 16 -33 11 -40 -8 -14 -47 -87 -47 -119 0 -30 43 -23 48 74 48
l90 0 0 35 c0 79 -97 130 -166 86z m118 -44 c4 -7 8 -20 8 -29 0 -15 -10 -18
-64 -18 -36 0 -67 4 -70 9 -20 32 49 76 93 59 14 -5 29 -15 33 -21z"/>
<path d="M2670 23315 c0 -20 5 -25 25 -25 20 0 25 5 25 25 0 20 -5 25 -25 25
-20 0 -25 -5 -25 -25z"/>
<path d="M2670 23115 c0 -20 5 -25 25 -25 20 0 25 5 25 25 0 20 -5 25 -25 25
-20 0 -25 -5 -25 -25z"/>
<path d="M5610 18545 c0 -149 2 -175 15 -175 13 0 15 26 15 175 0 149 -2 175
-15 175 -13 0 -15 -26 -15 -175z"/>
<path d="M6746 18710 c-87 -27 -131 -149 -87 -246 37 -82 131 -115 214 -75 52
25 73 52 86 113 31 138 -80 247 -213 208z m122 -46 c33 -23 52 -67 52 -119 0
-83 -43 -135 -113 -135 -77 0 -123 52 -121 137 1 56 21 101 53 118 35 19 101
19 129 -1z"/>
<path d="M7050 18700 c-11 -11 -20 -31 -20 -45 0 -16 -6 -25 -15 -25 -8 0 -15
-6 -15 -14 0 -8 7 -16 15 -20 12 -4 15 -27 15 -116 0 -103 1 -110 20 -110 18
0 20 8 22 113 3 108 4 112 26 115 31 5 28 32 -4 32 -21 0 -25 4 -22 23 2 16
11 23 31 25 19 2 27 9 27 23 0 26 -53 26 -80 -1z"/>
<path d="M4530 18605 c-79 -35 -95 -46 -95 -65 0 -19 15 -28 95 -61 107 -43
123 -46 118 -23 -2 10 -35 28 -85 47 -46 17 -83 34 -83 37 0 3 37 22 83 41 49
22 83 43 85 52 5 24 -11 20 -118 -28z"/>
<path d="M4810 18605 c-79 -35 -95 -46 -95 -65 0 -19 15 -28 95 -61 107 -43
123 -46 118 -23 -2 10 -35 28 -85 47 -46 17 -83 34 -83 37 0 3 37 22 83 41 49
22 83 43 85 52 5 24 -11 20 -118 -28z"/>
<path d="M7152 18633 c2 -9 36 -30 86 -52 45 -19 82 -38 82 -41 0 -3 -37 -20
-82 -37 -51 -19 -84 -37 -86 -47 -5 -23 11 -20 118 23 80 33 95 42 95 61 0 19
-16 30 -99 66 -110 49 -119 51 -114 27z"/>
<path d="M7432 18633 c2 -9 36 -30 86 -52 45 -19 82 -38 82 -41 0 -3 -37 -20
-82 -37 -51 -19 -84 -37 -86 -47 -5 -23 11 -20 118 23 80 33 95 42 95 61 0 19
-16 30 -99 66 -110 49 -119 51 -114 27z"/>
<path d="M5032 18610 c-41 -25 -55 -61 -50 -128 7 -87 70 -129 152 -102 47 15
70 53 70 116 1 63 -17 98 -59 119 -44 20 -73 19 -113 -5z m111 -40 c24 -22 32
-88 15 -120 -8 -14 -26 -31 -41 -38 -22 -11 -31 -10 -55 2 -35 18 -42 33 -42
90 0 82 68 119 123 66z"/>
<path d="M5252 18558 c48 -171 53 -183 75 -186 19 -3 23 7 44 92 13 53 26 96
29 96 3 0 11 -26 18 -57 23 -111 32 -133 52 -133 16 0 26 21 55 118 20 64 38
123 40 130 3 6 -4 12 -14 12 -14 0 -24 -20 -46 -95 -16 -52 -31 -92 -34 -89
-3 3 -15 44 -26 92 -17 73 -24 87 -41 90 -19 3 -24 -7 -43 -85 -12 -49 -26
-95 -30 -102 -5 -8 -17 24 -33 86 -20 83 -27 98 -45 101 l-22 3 21 -73z"/>
<path d="M5884 18611 c-73 -45 -70 -187 5 -225 85 -44 171 13 171 114 0 104
-93 162 -176 111z m125 -57 c47 -105 -60 -203 -123 -112 -33 47 -12 129 38
147 30 12 71 -6 85 -35z"/>
<path d="M6110 18500 c0 -123 1 -130 20 -130 18 0 20 7 20 79 0 44 4 91 10
106 13 35 55 50 86 30 23 -15 24 -21 24 -115 0 -93 1 -100 20 -100 19 0 20 7
20 105 0 99 -2 107 -25 130 -28 29 -63 32 -105 10 -27 -14 -30 -14 -30 0 0 8
-9 15 -20 15 -19 0 -20 -7 -20 -130z"/>
<path d="M6424 18612 c-40 -26 -58 -70 -52 -132 8 -80 68 -125 144 -106 26 7
74 51 74 68 0 21 -31 18 -52 -6 -23 -24 -35 -30 -70 -27 -25 1 -58 37 -58 61
0 19 7 20 90 20 l90 0 0 35 c0 79 -97 130 -166 87z m110 -42 c33 -32 14 -50
-53 -50 -65 0 -78 8 -61 40 22 42 76 46 114 10z"/>
<path d="M5730 18595 c0 -18 5 -25 20 -25 15 0 20 7 20 25 0 18 -5 25 -20 25
-15 0 -20 -7 -20 -25z"/>
<path d="M5730 18395 c0 -18 5 -25 20 -25 15 0 20 7 20 25 0 18 -5 25 -20 25
-15 0 -20 -7 -20 -25z"/>
<path d="M19040 23545 l0 -305 -210 105 c-115 58 -210 103 -210 100 0 -3 20
-46 45 -95 25 -49 45 -93 45 -96 0 -4 -1114 -4 -2475 0 -2415 7 -2475 6 -2475
-12 0 -18 40 -19 1397 -25 768 -4 1882 -7 2475 -7 593 0 1078 -2 1078 -5 0 -3
-20 -46 -45 -95 -25 -49 -45 -92 -45 -95 0 -3 95 42 210 100 l210 105 0 -305
0 -305 998 0 999 0 6 -1012 c4 -557 7 -1557 7 -2223 0 -665 3 -1551 7 -1967 6
-735 7 -758 25 -758 19 0 19 29 14 1283 -3 705 -8 2046 -12 2980 l-5 1697 908
0 908 -1 2450 -2990 c1348 -1645 2455 -2995 2462 -3000 7 -6 21 -9 32 -7 16 2
-478 610 -2436 2998 l-2455 2995 466 3 466 2 0 620 0 620 -2420 0 -2420 0 0
-305z m4800 -315 l0 -580 -2380 0 -2380 0 0 580 0 580 2380 0 2380 0 0 -580z"/>
<path d="M20920 23265 c0 -168 1 -175 20 -175 18 0 20 7 20 69 l0 69 79 3 c67
4 83 8 105 28 53 50 42 141 -20 167 -20 8 -69 14 -119 14 l-85 0 0 -175z m193
123 c27 -22 31 -61 7 -91 -20 -25 -27 -27 -91 -27 l-69 0 0 65 0 65 68 0 c39
0 75 -5 85 -12z"/>
<path d="M21828 23429 c-12 -6 -18 -22 -18 -44 0 -28 -4 -35 -20 -35 -11 0
-20 -6 -20 -14 0 -7 9 -16 20 -19 18 -5 20 -14 20 -116 0 -91 3 -111 15 -111
12 0 15 22 17 113 3 108 4 112 26 115 31 5 29 32 -3 32 -42 0 -29 45 15 51 14
2 26 12 28 22 3 13 -3 17 -30 17 -18 0 -41 -5 -50 -11z"/>
<path d="M22190 23265 c0 -168 1 -175 20 -175 19 0 20 7 20 175 0 168 -1 175
-20 175 -19 0 -20 -7 -20 -175z"/>
<path d="M22300 23415 c0 -18 5 -25 20 -25 15 0 20 7 20 25 0 18 -5 25 -20 25
-15 0 -20 -7 -20 -25z"/>
<path d="M21683 23413 c-7 -2 -13 -18 -13 -34 0 -19 -5 -29 -15 -29 -8 0 -15
-6 -15 -14 0 -8 7 -16 15 -20 12 -4 15 -25 15 -99 0 -78 3 -97 18 -110 25 -23
77 -23 68 -1 -3 9 -6 18 -6 20 0 2 -9 4 -20 4 -19 0 -20 7 -20 91 0 82 2 91
20 96 11 3 20 12 20 19 0 8 -9 14 -20 14 -16 0 -20 7 -20 35 0 35 -3 38 -27
28z"/>
<path d="M20270 23220 c0 -121 1 -130 19 -130 17 0 19 9 23 95 2 72 7 98 20
111 20 20 73 23 90 6 7 -7 14 -54 16 -112 3 -77 8 -100 18 -100 11 0 14 23 14
109 0 106 -1 110 -26 130 -31 25 -72 27 -100 6 -25 -19 -34 -19 -34 0 0 8 -9
15 -20 15 -19 0 -20 -7 -20 -130z"/>
<path d="M20573 23338 c-12 -6 -27 -23 -33 -39 -19 -45 5 -72 80 -93 65 -18
83 -38 57 -63 -27 -27 -77 -21 -103 13 -18 22 -26 26 -36 16 -18 -18 9 -59 49
-73 92 -30 183 51 124 110 -10 10 -44 26 -75 35 -32 9 -60 24 -63 32 -15 40
67 53 98 16 26 -33 57 -24 43 12 -15 38 -94 57 -141 34z"/>
<path d="M21278 23334 c-78 -42 -77 -188 2 -229 58 -30 132 -7 155 49 52 124
-49 239 -157 180z m112 -52 c54 -68 -5 -177 -81 -150 -65 23 -65 154 0 176 35
12 58 5 81 -26z"/>
<path d="M21500 23220 c0 -121 1 -130 19 -130 17 0 19 9 23 100 1 54 8 104 14
110 6 6 24 12 40 13 18 2 29 8 29 17 0 22 -44 24 -66 4 -17 -16 -19 -16 -19
-1 0 10 -8 17 -20 17 -19 0 -20 -7 -20 -130z"/>
<path d="M21974 23335 c-42 -21 -59 -57 -58 -119 0 -65 24 -102 74 -117 46
-14 80 -7 117 25 26 22 28 30 28 95 0 63 -3 73 -26 97 -33 32 -92 41 -135 19z
m116 -55 c16 -31 12 -105 -8 -129 -23 -29 -76 -31 -103 -4 -43 42 -31 134 20
159 29 15 77 1 91 -26z"/>
<path d="M22300 23220 c0 -123 1 -130 20 -130 19 0 20 7 20 130 0 123 -1 130
-20 130 -19 0 -20 -7 -20 -130z"/>
<path d="M22453 23334 c-32 -16 -63 -73 -63 -114 0 -43 31 -98 65 -114 41 -20
68 -20 105 -1 45 23 60 53 60 117 0 49 -4 62 -27 88 -35 39 -92 49 -140 24z
m117 -54 c16 -31 12 -105 -8 -129 -23 -29 -76 -31 -103 -4 -43 42 -31 134 20
159 29 15 77 1 91 -26z"/>
<path d="M20800 23315 c0 -18 5 -25 20 -25 15 0 20 7 20 25 0 18 -5 25 -20 25
-15 0 -20 -7 -20 -25z"/>
<path d="M20800 23115 c0 -18 5 -25 20 -25 15 0 20 7 20 25 0 18 -5 25 -20 25
-15 0 -20 -7 -20 -25z"/>
<path d="M9830 23265 c0 -149 2 -175 15 -175 8 0 15 7 15 16 0 9 3 14 8 12 4
-2 19 -10 34 -17 76 -38 153 50 134 153 -14 75 -87 117 -141 82 l-25 -16 0 60
c0 53 -2 60 -20 60 -19 0 -20 -7 -20 -175z m155 14 c42 -79 -12 -178 -79 -148
-62 28 -60 144 3 175 32 16 59 7 76 -27z"/>
<path d="M10360 23265 c0 -168 1 -175 20 -175 19 0 20 7 20 175 0 168 -1 175
-20 175 -19 0 -20 -7 -20 -175z"/>
<path d="M11490 23420 c0 -18 7 -20 55 -20 l55 0 0 -155 c0 -148 1 -155 20
-155 19 0 20 7 20 155 l0 155 60 0 c53 0 60 2 60 20 0 19 -7 20 -135 20 -128
0 -135 -1 -135 -20z"/>
<path d="M12020 23265 c0 -168 1 -175 20 -175 18 0 20 7 20 69 l0 69 79 3 c67
4 83 8 105 28 32 30 41 71 26 117 -16 49 -56 64 -165 64 l-85 0 0 -175z m194
119 c21 -20 20 -73 -1 -96 -13 -14 -31 -18 -85 -18 l-68 0 0 65 0 65 69 0 c50
0 74 -4 85 -16z"/>
<path d="M12928 23430 c-10 -6 -20 -26 -24 -45 -3 -20 -12 -35 -20 -35 -8 0
-14 -7 -14 -15 0 -8 7 -15 15 -15 12 0 15 -19 15 -115 0 -108 1 -115 20 -115
18 0 20 8 22 113 3 108 4 112 26 115 31 5 28 32 -4 32 -21 0 -25 4 -22 22 2
17 12 24 33 28 18 3 30 11 30 20 0 18 -52 25 -77 10z"/>
<path d="M13300 23265 c0 -168 1 -175 20 -175 19 0 20 7 20 175 0 168 -1 175
-20 175 -19 0 -20 -7 -20 -175z"/>
<path d="M13400 23415 c0 -18 5 -25 20 -25 15 0 20 7 20 25 0 18 -5 25 -20 25
-15 0 -20 -7 -20 -25z"/>
<path d="M12783 23413 c-7 -2 -13 -18 -13 -34 0 -19 -5 -29 -15 -29 -8 0 -15
-6 -15 -14 0 -8 7 -16 15 -20 12 -4 15 -25 15 -100 0 -105 10 -126 60 -126 23
0 27 3 23 20 -3 11 -14 20 -24 20 -17 0 -19 9 -19 91 0 82 2 91 20 96 11 3 20
12 20 19 0 8 -9 14 -20 14 -16 0 -20 7 -20 35 0 35 -3 38 -27 28z"/>
<path d="M9190 23220 c0 -123 1 -130 20 -130 19 0 20 7 20 93 0 50 4 97 8 103
15 23 50 34 75 25 30 -12 37 -35 37 -138 0 -76 2 -83 20 -83 18 0 20 7 20 89
0 48 -5 102 -10 118 -17 48 -85 69 -126 38 -25 -19 -34 -19 -34 0 0 8 -7 15
-15 15 -13 0 -15 -21 -15 -130z"/>
<path d="M9484 23338 c-33 -16 -47 -54 -32 -86 10 -19 29 -31 78 -46 51 -17
65 -25 65 -41 0 -48 -100 -52 -112 -4 -6 20 -33 23 -40 3 -6 -19 36 -62 67
-69 91 -20 167 58 111 114 -10 10 -44 26 -75 35 -78 23 -88 55 -24 71 21 5 33
1 53 -19 27 -27 40 -32 49 -17 10 16 -5 41 -35 56 -32 17 -74 18 -105 3z"/>
<path d="M10134 23331 c-34 -21 -54 -64 -54 -118 0 -94 89 -150 170 -108 32
16 55 50 45 65 -10 16 -33 11 -40 -8 -14 -47 -87 -47 -119 0 -31 43 -23 48 79
48 52 0 95 3 95 8 0 32 -26 85 -51 106 -37 31 -81 34 -125 7z m118 -44 c4 -7
8 -20 8 -29 0 -15 -10 -18 -63 -18 -71 0 -77 3 -69 32 11 43 100 54 124 15z"/>
<path d="M10512 23335 c-80 -35 -82 -189 -3 -229 85 -44 171 13 171 114 0 52
-22 96 -60 115 -36 18 -65 19 -108 0z m118 -55 c18 -33 12 -108 -10 -130 -51
-51 -130 -9 -130 68 0 42 22 80 54 91 27 10 73 -6 86 -29z"/>
<path d="M10730 23220 c0 -123 1 -130 20 -130 18 0 20 7 20 79 0 44 4 91 10
106 13 35 55 50 86 30 23 -15 24 -21 24 -115 0 -93 1 -100 20 -100 19 0 20 7
20 105 0 99 -2 107 -25 130 -28 29 -63 32 -105 10 -27 -14 -30 -14 -30 0 0 8
-9 15 -20 15 -19 0 -20 -7 -20 -130z"/>
<path d="M11028 23321 c-29 -25 -32 -35 -36 -95 -4 -64 -3 -67 31 -101 39 -39
78 -46 115 -19 21 15 22 14 22 -13 0 -36 -9 -49 -43 -62 -30 -12 -65 -2 -86
23 -19 23 -40 20 -34 -3 19 -73 152 -80 188 -10 22 41 22 309 0 309 -8 0 -15
-7 -15 -15 0 -19 -9 -19 -34 0 -31 23 -72 18 -108 -14z m118 -32 c26 -29 24
-113 -3 -141 -28 -27 -72 -27 -95 2 -20 25 -24 99 -7 131 21 40 73 44 105 8z"/>
<path d="M11310 23343 c-50 -20 -66 -75 -32 -106 10 -10 43 -24 73 -33 57 -17
71 -28 62 -51 -15 -39 -106 -32 -118 8 -4 10 -9 19 -13 19 -50 -1 -13 -75 42
-86 86 -16 153 38 124 101 -9 20 -27 30 -80 46 -53 16 -68 25 -68 40 0 22 41
42 67 32 10 -3 25 -15 34 -26 17 -20 39 -16 39 7 0 34 -86 67 -130 49z"/>
<path d="M11793 23334 c-32 -16 -63 -73 -63 -114 0 -43 31 -98 65 -114 41 -20
68 -20 105 -1 45 23 60 53 60 117 0 49 -4 62 -27 88 -35 39 -92 49 -140 24z
m86 -29 c34 -17 41 -33 41 -90 0 -56 -25 -88 -69 -88 -42 0 -71 30 -77 79 -6
46 12 84 46 101 31 16 26 16 59 -2z"/>
<path d="M12372 23330 c-41 -25 -55 -61 -49 -129 3 -44 9 -59 31 -78 36 -31
70 -38 117 -24 47 14 70 46 76 105 13 110 -85 181 -175 126z m113 -40 c9 -10
19 -36 21 -57 9 -71 -40 -121 -97 -101 -36 13 -49 35 -49 87 0 55 8 71 43 86
35 15 59 10 82 -15z"/>
<path d="M12600 23220 c0 -121 1 -130 19 -130 17 0 19 9 23 100 1 54 8 104 14
110 6 6 24 12 40 13 18 2 29 8 29 17 0 22 -44 24 -66 4 -17 -16 -19 -16 -19
-1 0 10 -8 17 -20 17 -19 0 -20 -7 -20 -130z"/>
<path d="M13073 23334 c-32 -16 -63 -73 -63 -114 0 -43 31 -98 65 -114 41 -20
68 -20 105 -1 45 23 60 53 60 117 0 49 -4 62 -27 88 -35 39 -92 49 -140 24z
m110 -46 c24 -28 23 -108 -1 -139 -24 -29 -75 -30 -103 -2 -11 11 -23 38 -25
59 -11 90 74 145 129 82z"/>
<path d="M13400 23220 c0 -123 1 -130 20 -130 19 0 20 7 20 130 0 123 -1 130
-20 130 -19 0 -20 -7 -20 -130z"/>
<path d="M13553 23334 c-32 -16 -63 -73 -63 -114 0 -43 31 -98 65 -114 41 -20
68 -20 105 -1 45 23 60 53 60 117 0 49 -4 62 -27 88 -35 39 -92 49 -140 24z
m110 -46 c24 -28 23 -108 -1 -139 -24 -29 -75 -30 -103 -2 -11 11 -23 38 -25
59 -11 90 74 145 129 82z"/>
<path d="M9710 23315 c0 -18 5 -25 20 -25 15 0 20 7 20 25 0 18 -5 25 -20 25
-15 0 -20 -7 -20 -25z"/>
<path d="M9710 23115 c0 -18 5 -25 20 -25 15 0 20 7 20 25 0 18 -5 25 -20 25
-15 0 -20 -7 -20 -25z"/>
<path d="M10280 21545 l0 -305 -141 71 c-130 65 -169 76 -169 49 0 -5 43 -31
95 -57 83 -41 95 -51 95 -73 0 -22 -12 -32 -95 -73 -52 -26 -95 -52 -95 -57 0
-27 39 -16 169 49 l141 71 0 -305 0 -305 2020 0 2020 0 0 620 0 620 -2020 0
-2020 0 0 -305z m4000 -315 l0 -580 -1980 0 -1980 0 0 580 0 580 1980 0 1980
0 0 -580z"/>
<path d="M12093 21425 c-36 -15 -53 -42 -53 -83 0 -40 34 -68 110 -88 75 -20
100 -38 100 -70 0 -31 -36 -54 -85 -54 -47 0 -82 21 -96 57 -11 30 -46 28 -41
-2 11 -62 75 -100 155 -92 65 6 107 45 107 98 0 49 -27 75 -100 95 -104 28
-131 55 -94 95 33 36 144 16 144 -27 0 -8 9 -14 20 -14 11 0 20 7 20 16 0 66
-105 105 -187 69z"/>
<path d="M12990 21265 c0 -168 1 -175 20 -175 17 0 20 7 20 53 0 48 12 77 31
77 4 0 25 -29 48 -65 28 -45 46 -65 61 -65 11 0 20 3 20 8 -1 4 -23 41 -50 82
l-49 75 47 48 c45 46 46 47 20 47 -20 0 -38 -13 -69 -50 -23 -27 -46 -50 -51
-50 -4 0 -8 43 -8 95 0 88 -1 95 -20 95 -19 0 -20 -7 -20 -175z"/>
<path d="M12373 21413 c-7 -2 -13 -18 -13 -34 0 -19 -5 -29 -15 -29 -8 0 -15
-7 -15 -15 0 -8 7 -15 15 -15 12 0 15 -18 15 -98 0 -109 11 -132 63 -132 37 0
33 29 -5 43 -15 5 -18 20 -18 93 0 77 2 86 20 91 11 3 20 12 20 19 0 8 -9 14
-20 14 -16 0 -20 7 -20 35 0 35 -3 38 -27 28z"/>
<path d="M11390 21220 c0 -123 1 -130 20 -130 18 0 20 7 20 79 0 44 4 91 10
106 13 35 55 50 86 30 23 -15 24 -21 24 -115 0 -93 1 -100 20 -100 19 0 20 7
20 105 0 99 -2 107 -25 130 -27 28 -71 33 -101 10 -25 -19 -34 -19 -34 0 0 8
-9 15 -20 15 -19 0 -20 -7 -20 -130z"/>
<path d="M11688 21334 c-15 -8 -31 -26 -34 -39 -10 -42 17 -70 86 -89 65 -18
83 -38 57 -63 -27 -27 -77 -21 -103 13 -17 21 -26 26 -35 17 -17 -17 -1 -52
33 -69 44 -23 106 -13 135 21 44 51 25 87 -62 114 -33 10 -64 26 -69 35 -26
40 63 56 96 17 22 -28 49 -22 41 9 -12 44 -92 63 -145 34z"/>
<path d="M12532 21335 c-80 -35 -82 -189 -3 -229 85 -44 171 13 171 114 0 52
-22 96 -60 115 -36 18 -65 19 -108 0z m118 -55 c6 -10 10 -37 10 -60 0 -53
-12 -75 -49 -88 -97 -34 -144 142 -47 177 27 10 73 -6 86 -29z"/>
<path d="M12794 21331 c-96 -60 -54 -241 56 -241 50 0 109 53 96 86 -8 22 -26
17 -36 -11 -11 -29 -48 -46 -79 -38 -43 11 -64 92 -40 147 22 48 99 52 114 6
4 -12 13 -20 23 -18 25 5 25 24 0 53 -31 36 -91 43 -134 16z"/>
<path d="M11910 21315 c0 -20 5 -25 25 -25 20 0 25 5 25 25 0 20 -5 25 -25 25
-20 0 -25 -5 -25 -25z"/>
<path d="M11910 21115 c0 -20 5 -25 25 -25 20 0 25 5 25 25 0 20 -5 25 -25 25
-20 0 -25 -5 -25 -25z"/>
<path d="M11360 21030 c0 -20 7 -20 920 -20 913 0 920 0 920 20 0 20 -7 20
-920 20 -913 0 -920 0 -920 -20z"/>
<path d="M6080 21230 c0 -18 7 -20 60 -20 53 0 60 2 60 20 0 18 -7 20 -60 20
-53 0 -60 -2 -60 -20z"/>
<path d="M6320 21230 c0 -18 7 -20 60 -20 53 0 60 2 60 20 0 18 -7 20 -60 20
-53 0 -60 -2 -60 -20z"/>
<path d="M6560 21230 c0 -18 7 -20 60 -20 53 0 60 2 60 20 0 18 -7 20 -60 20
-53 0 -60 -2 -60 -20z"/>
<path d="M6800 21230 c0 -18 7 -20 60 -20 53 0 60 2 60 20 0 18 -7 20 -60 20
-53 0 -60 -2 -60 -20z"/>
<path d="M7040 21230 c0 -18 7 -20 60 -20 53 0 60 2 60 20 0 18 -7 20 -60 20
-53 0 -60 -2 -60 -20z"/>
<path d="M7280 21230 c0 -18 7 -20 60 -20 53 0 60 2 60 20 0 18 -7 20 -60 20
-53 0 -60 -2 -60 -20z"/>
<path d="M7520 21230 c0 -18 7 -20 60 -20 53 0 60 2 60 20 0 18 -7 20 -60 20
-53 0 -60 -2 -60 -20z"/>
<path d="M7760 21230 c0 -18 7 -20 60 -20 53 0 60 2 60 20 0 18 -7 20 -60 20
-53 0 -60 -2 -60 -20z"/>
<path d="M8000 21230 c0 -18 7 -20 60 -20 53 0 60 2 60 20 0 18 -7 20 -60 20
-53 0 -60 -2 -60 -20z"/>
<path d="M8240 21230 c0 -18 7 -20 60 -20 53 0 60 2 60 20 0 18 -7 20 -60 20
-53 0 -60 -2 -60 -20z"/>
<path d="M8480 21230 c0 -18 7 -20 60 -20 53 0 60 2 60 20 0 18 -7 20 -60 20
-53 0 -60 -2 -60 -20z"/>
<path d="M8720 21230 c0 -18 7 -20 60 -20 53 0 60 2 60 20 0 18 -7 20 -60 20
-53 0 -60 -2 -60 -20z"/>
<path d="M8960 21230 c0 -18 7 -20 60 -20 53 0 60 2 60 20 0 18 -7 20 -60 20
-53 0 -60 -2 -60 -20z"/>
<path d="M9200 21230 c0 -18 7 -20 60 -20 53 0 60 2 60 20 0 18 -7 20 -60 20
-53 0 -60 -2 -60 -20z"/>
<path d="M9440 21230 c0 -18 7 -20 60 -20 53 0 60 2 60 20 0 18 -7 20 -60 20
-53 0 -60 -2 -60 -20z"/>
<path d="M9680 21230 c0 -18 7 -20 60 -20 53 0 60 2 60 20 0 18 -7 20 -60 20
-53 0 -60 -2 -60 -20z"/>
<path d="M9920 21230 c0 -18 7 -20 60 -20 53 0 60 2 60 20 0 18 -7 20 -60 20
-53 0 -60 -2 -60 -20z"/>
<path d="M6030 21080 c0 -53 2 -60 20 -60 18 0 20 7 20 60 0 53 -2 60 -20 60
-18 0 -20 -7 -20 -60z"/>
<path d="M6030 20840 c0 -53 2 -60 20 -60 18 0 20 7 20 60 0 53 -2 60 -20 60
-18 0 -20 -7 -20 -60z"/>
<path d="M6030 20600 c0 -53 2 -60 20 -60 18 0 20 7 20 60 0 53 -2 60 -20 60
-18 0 -20 -7 -20 -60z"/>
<path d="M6030 20360 c0 -53 2 -60 20 -60 18 0 20 7 20 60 0 53 -2 60 -20 60
-18 0 -20 -7 -20 -60z"/>
<path d="M6030 20120 c0 -53 2 -60 20 -60 18 0 20 7 20 60 0 53 -2 60 -20 60
-18 0 -20 -7 -20 -60z"/>
<path d="M6030 19880 c0 -53 2 -60 20 -60 18 0 20 7 20 60 0 53 -2 60 -20 60
-18 0 -20 -7 -20 -60z"/>
<path d="M6030 19640 c0 -53 2 -60 20 -60 18 0 20 7 20 60 0 53 -2 60 -20 60
-18 0 -20 -7 -20 -60z"/>
<path d="M6030 19400 c0 -53 2 -60 20 -60 18 0 20 7 20 60 0 53 -2 60 -20 60
-18 0 -20 -7 -20 -60z"/>
<path d="M10280 18815 l0 -305 -141 71 c-130 65 -169 76 -169 49 0 -5 44 -32
98 -59 l97 -50 -42 0 c-36 -1 -43 -4 -43 -21 0 -17 7 -20 43 -21 l42 0 -97
-50 c-54 -27 -98 -54 -98 -59 0 -27 39 -16 169 49 l141 71 0 -305 0 -305 2020
0 2020 0 0 620 0 620 -2020 0 -2020 0 0 -305z m4000 -315 l0 -580 -1980 0
-1980 0 0 580 0 580 1980 0 1980 0 0 -580z"/>
<path d="M12080 18545 l0 -175 80 0 c126 0 170 27 170 103 0 27 -7 41 -31 61
-17 14 -26 26 -20 26 6 0 19 15 28 34 14 29 14 39 3 66 -19 45 -56 60 -150 60
l-80 0 0 -175z m178 123 c44 -56 10 -98 -78 -98 l-60 0 0 55 0 55 64 0 c39 0
67 -5 74 -12z m10 -154 c14 -10 22 -26 22 -44 0 -42 -32 -60 -107 -60 l-63 0
0 60 0 60 63 0 c40 0 70 -5 85 -16z"/>
<path d="M13090 18660 c0 -64 -3 -68 -34 -45 -27 20 -55 19 -93 -5 -73 -44
-65 -193 13 -228 34 -16 65 -15 92 4 20 14 22 14 22 0 0 -9 7 -16 15 -16 13 0
15 26 15 175 0 149 -2 175 -15 175 -12 0 -15 -13 -15 -60z m-46 -71 c33 -15
50 -60 43 -111 -7 -49 -26 -70 -62 -70 -36 0 -64 30 -72 75 -9 56 16 100 64
116 1 1 13 -4 27 -10z"/>
<path d="M11430 18500 c0 -123 1 -130 20 -130 18 0 20 7 20 79 0 44 4 91 10
106 13 35 55 50 86 30 23 -15 24 -21 24 -115 0 -93 1 -100 20 -100 19 0 20 7
20 105 0 99 -2 107 -25 130 -27 28 -71 33 -101 10 -25 -19 -34 -19 -34 0 0 8
-9 15 -20 15 -19 0 -20 -7 -20 -130z"/>
<path d="M11740 18623 c-49 -19 -65 -70 -34 -105 9 -10 43 -25 75 -34 62 -17
75 -32 55 -60 -21 -27 -75 -23 -102 9 -14 16 -29 25 -38 21 -14 -5 -14 -9 0
-35 18 -36 56 -52 107 -46 64 9 97 54 75 102 -9 20 -27 30 -80 46 -53 16 -68
25 -68 40 0 22 41 42 67 32 10 -3 25 -15 34 -26 17 -20 39 -16 39 7 0 34 -86
67 -130 49z"/>
<path d="M12432 18610 c-41 -25 -55 -61 -49 -129 3 -44 9 -59 31 -78 36 -31
70 -38 117 -24 47 14 70 46 76 105 13 110 -85 181 -175 126z m113 -40 c9 -10
19 -36 21 -57 9 -71 -40 -121 -97 -101 -36 13 -49 35 -49 87 0 55 8 71 43 86
35 15 59 10 82 -15z"/>
<path d="M12660 18500 c0 -123 1 -130 20 -130 19 0 20 7 20 93 0 104 13 130
66 130 43 0 54 -26 54 -130 0 -86 1 -93 20 -93 19 0 20 7 20 98 0 58 -5 107
-13 122 -18 36 -74 48 -117 26 -40 -20 -40 -20 -40 -1 0 8 -7 15 -15 15 -13 0
-15 -21 -15 -130z"/>
<path d="M11950 18595 c0 -20 5 -25 25 -25 20 0 25 5 25 25 0 20 -5 25 -25 25
-20 0 -25 -5 -25 -25z"/>
<path d="M11950 18395 c0 -20 5 -25 25 -25 20 0 25 5 25 25 0 20 -5 25 -25 25
-20 0 -25 -5 -25 -25z"/>
<path d="M11400 18310 c0 -20 7 -20 880 -20 873 0 880 0 880 20 0 20 -7 20
-880 20 -873 0 -880 0 -880 -20z"/>
<path d="M8880 18500 c0 -18 7 -20 60 -20 53 0 60 2 60 20 0 18 -7 20 -60 20
-53 0 -60 -2 -60 -20z"/>
<path d="M9120 18500 c0 -18 7 -20 60 -20 53 0 60 2 60 20 0 18 -7 20 -60 20
-53 0 -60 -2 -60 -20z"/>
<path d="M9360 18500 c0 -18 7 -20 60 -20 53 0 60 2 60 20 0 18 -7 20 -60 20
-53 0 -60 -2 -60 -20z"/>
<path d="M9600 18500 c0 -18 7 -20 60 -20 53 0 60 2 60 20 0 18 -7 20 -60 20
-53 0 -60 -2 -60 -20z"/>
<path d="M9840 18500 c0 -18 7 -20 60 -20 53 0 60 2 60 20 0 18 -7 20 -60 20
-53 0 -60 -2 -60 -20z"/>
<path d="M6030 17600 c0 -53 2 -60 20 -60 18 0 20 7 20 60 0 53 -2 60 -20 60
-18 0 -20 -7 -20 -60z"/>
<path d="M6030 17360 c0 -53 2 -60 20 -60 18 0 20 7 20 60 0 53 -2 60 -20 60
-18 0 -20 -7 -20 -60z"/>
<path d="M6030 17120 c0 -53 2 -60 20 -60 18 0 20 7 20 60 0 53 -2 60 -20 60
-18 0 -20 -7 -20 -60z"/>
<path d="M6030 16880 c0 -53 2 -60 20 -60 18 0 20 7 20 60 0 53 -2 60 -20 60
-18 0 -20 -7 -20 -60z"/>
<path d="M930 16705 c0 -168 1 -175 20 -175 18 0 20 7 20 79 0 44 4 91 10 106
13 35 55 50 86 30 23 -15 24 -21 24 -115 0 -93 1 -100 20 -100 19 0 20 7 20
109 0 106 -1 110 -26 130 -32 25 -64 27 -104 6 l-30 -16 0 61 c0 53 -2 60 -20
60 -19 0 -20 -7 -20 -175z"/>
<path d="M1710 16705 c0 -168 1 -175 20 -175 18 0 20 8 22 148 l3 147 50 -148
c65 -194 71 -194 134 -4 25 75 49 137 53 137 5 0 8 -63 8 -140 0 -118 2 -140
15 -140 13 0 15 26 15 176 l0 175 -27 -3 c-25 -3 -30 -13 -72 -140 -25 -75
-49 -139 -53 -143 -3 -4 -28 59 -54 139 l-48 146 -33 0 -33 0 0 -175z"/>
<path d="M2530 16705 c0 -168 1 -175 20 -175 17 0 20 7 20 53 0 48 12 77 31
77 4 0 25 -29 48 -65 28 -45 46 -65 61 -65 11 0 20 2 20 5 0 2 -22 40 -50 82
l-49 78 47 48 c45 46 46 47 20 47 -20 0 -38 -13 -69 -50 -23 -27 -46 -50 -51
-50 -4 0 -8 43 -8 95 0 88 -1 95 -20 95 -19 0 -20 -7 -20 -175z"/>
<path d="M3180 16705 l0 -175 83 0 c136 0 185 41 194 163 4 51 0 70 -19 107
-32 62 -71 80 -175 80 l-83 0 0 -175z m193 114 c55 -43 59 -169 6 -221 -24
-25 -35 -28 -93 -28 l-66 0 0 135 0 135 64 0 c49 0 69 -5 89 -21z"/>
<path d="M3063 16853 c-7 -2 -13 -18 -13 -34 0 -19 -5 -29 -15 -29 -8 0 -15
-6 -15 -14 0 -8 7 -16 15 -20 12 -4 15 -25 15 -100 0 -105 10 -126 60 -126 23
0 27 3 23 20 -3 11 -14 20 -24 20 -17 0 -19 9 -19 91 0 82 2 91 20 96 11 3 20
12 20 19 0 8 -9 14 -20 14 -16 0 -20 7 -20 35 0 35 -3 38 -27 28z"/>
<path d="M3807 16853 c-4 -3 -7 -19 -7 -35 0 -18 -5 -28 -15 -28 -8 0 -15 -6
-15 -14 0 -8 7 -16 15 -20 12 -4 15 -26 15 -105 0 -89 2 -101 19 -111 33 -17
61 -12 61 10 0 13 -7 20 -20 20 -25 0 -32 27 -28 115 3 64 5 70 26 73 31 5 29
32 -3 32 -22 0 -25 4 -25 35 0 33 -8 43 -23 28z"/>
<path d="M290 16660 c0 -123 1 -130 20 -130 18 0 20 7 20 79 0 44 4 91 10 106
13 35 55 50 86 30 23 -15 24 -21 24 -115 0 -93 1 -100 20 -100 19 0 20 7 20
105 0 99 -2 107 -25 130 -28 29 -63 32 -105 10 -27 -14 -30 -14 -30 0 0 8 -9
15 -20 15 -19 0 -20 -7 -20 -130z"/>
<path d="M600 16783 c-50 -20 -66 -75 -32 -106 10 -9 40 -23 66 -31 57 -17 77
-32 69 -52 -15 -39 -105 -34 -118 7 -7 21 -13 23 -32 11 -17 -11 5 -53 37 -70
32 -17 105 -9 130 13 25 23 26 76 3 98 -10 8 -44 23 -75 32 -45 13 -58 21 -58
36 0 22 40 42 67 32 10 -3 25 -15 34 -26 17 -20 39 -16 39 7 0 34 -86 67 -130
49z"/>
<path d="M1244 16776 c-35 -15 -50 -44 -34 -60 8 -8 16 -4 29 12 33 45 126 27
119 -22 -2 -17 -14 -23 -66 -32 -72 -13 -102 -35 -102 -75 0 -67 67 -84 168
-43 6 3 12 -1 12 -10 0 -10 9 -16 21 -16 15 0 19 4 15 16 -3 9 -6 55 -6 104 0
69 -4 92 -18 110 -22 28 -94 36 -138 16z m116 -149 c0 -43 -59 -74 -106 -57
-26 10 -33 43 -12 56 13 8 69 21 101 23 12 1 17 -6 17 -22z"/>
<path d="M1510 16783 c-44 -17 -64 -66 -41 -101 5 -8 37 -24 72 -36 50 -17 65
-27 67 -44 7 -47 -89 -52 -110 -6 -12 27 -16 28 -38 14 -13 -8 -12 -13 6 -37
52 -71 184 -45 184 35 0 38 -22 56 -91 76 -60 17 -78 36 -53 57 25 21 74 15
94 -11 17 -23 40 -21 40 4 0 34 -86 67 -130 49z"/>
<path d="M2151 16777 c-13 -6 -30 -22 -39 -34 -13 -20 -13 -23 2 -29 11 -4 22
1 31 14 29 40 106 35 120 -8 4 -12 4 -24 1 -27 -2 -3 -36 -12 -73 -19 -100
-21 -130 -68 -78 -119 28 -29 72 -32 117 -9 28 15 32 15 40 0 5 -9 17 -16 27
-16 17 0 18 5 10 38 -5 20 -9 69 -9 107 0 39 -4 75 -8 81 -22 33 -97 44 -141
21z m119 -137 c0 -50 -63 -90 -108 -67 -29 14 -35 26 -23 46 14 21 131 41 131
21z"/>
<path d="M2370 16660 c0 -121 1 -130 19 -130 17 0 19 10 23 100 2 55 8 104 14
110 6 6 24 12 40 13 18 2 29 8 29 17 0 22 -44 24 -66 4 -17 -16 -19 -16 -19
-1 0 10 -8 17 -20 17 -19 0 -20 -7 -20 -130z"/>
<path d="M2814 16771 c-34 -21 -54 -65 -54 -118 0 -94 89 -150 170 -108 32 16
55 50 45 65 -10 16 -33 11 -40 -8 -14 -47 -87 -47 -119 0 -30 43 -23 48 74 48
l90 0 0 35 c0 79 -97 130 -166 86z m118 -44 c4 -7 8 -20 8 -29 0 -15 -10 -18
-64 -18 -36 0 -67 4 -70 9 -20 32 49 76 93 59 14 -5 29 -15 33 -21z"/>
<path d="M3564 16776 c-35 -15 -50 -44 -34 -60 8 -8 16 -4 29 12 33 45 126 27
119 -22 -2 -17 -14 -23 -66 -32 -72 -13 -102 -35 -102 -75 0 -67 67 -84 168
-43 6 3 12 -1 12 -10 0 -10 9 -16 21 -16 15 0 19 4 15 16 -3 9 -6 55 -6 104 0
69 -4 92 -18 110 -22 28 -94 36 -138 16z m116 -149 c0 -43 -59 -74 -106 -57
-26 10 -33 43 -12 56 13 8 69 21 101 23 12 1 17 -6 17 -22z"/>
<path d="M3964 16776 c-35 -15 -50 -44 -34 -60 8 -8 16 -4 29 12 33 45 126 27
119 -22 -2 -17 -14 -23 -66 -32 -72 -13 -102 -35 -102 -75 0 -67 67 -84 168
-43 6 3 12 -1 12 -10 0 -10 9 -16 21 -16 15 0 19 4 15 16 -3 9 -6 55 -6 104 0
69 -4 92 -18 110 -22 28 -94 36 -138 16z m116 -149 c0 -43 -59 -74 -106 -57
-26 10 -33 43 -12 56 13 8 69 21 101 23 12 1 17 -6 17 -22z"/>
<path d="M810 16755 c0 -18 5 -25 20 -25 15 0 20 7 20 25 0 18 -5 25 -20 25
-15 0 -20 -7 -20 -25z"/>
<path d="M6030 16640 c0 -53 2 -60 20 -60 18 0 20 7 20 60 0 53 -2 60 -20 60
-18 0 -20 -7 -20 -60z"/>
<path d="M810 16555 c0 -18 5 -25 20 -25 15 0 20 7 20 25 0 18 -5 25 -20 25
-15 0 -20 -7 -20 -25z"/>
<path d="M19400 16535 c0 -18 5 -25 20 -25 15 0 20 7 20 25 0 18 -5 25 -20 25
-15 0 -20 -7 -20 -25z"/>
<path d="M20170 16385 c0 -168 1 -175 20 -175 19 0 20 7 20 175 0 168 -1 175
-20 175 -19 0 -20 -7 -20 -175z"/>
<path d="M21913 16545 c-36 -15 -53 -42 -53 -83 0 -41 34 -68 117 -91 87 -24
89 -25 96 -52 9 -33 -33 -69 -80 -69 -49 0 -85 19 -101 53 -17 35 -42 36 -42
1 0 -39 48 -81 102 -89 94 -14 158 25 158 96 0 51 -24 74 -97 94 -80 21 -107
37 -111 62 -4 28 33 53 78 53 39 0 80 -23 80 -46 0 -8 9 -14 20 -14 11 0 20 7
20 16 0 66 -105 105 -187 69z"/>
<path d="M21503 16533 c-7 -2 -13 -18 -13 -34 0 -19 -5 -29 -15 -29 -8 0 -15
-6 -15 -14 0 -8 7 -16 15 -20 12 -4 15 -25 15 -99 0 -78 3 -97 18 -110 25 -23
77 -23 68 -1 -3 9 -6 18 -6 20 0 2 -9 4 -20 4 -19 0 -20 7 -20 91 0 82 2 91
20 96 11 3 20 12 20 19 0 8 -9 14 -20 14 -16 0 -20 7 -20 35 0 35 -3 38 -27
28z"/>
<path d="M22193 16533 c-7 -2 -13 -18 -13 -34 0 -19 -5 -29 -15 -29 -8 0 -15
-7 -15 -15 0 -8 7 -15 15 -15 12 0 15 -17 15 -93 0 -107 13 -137 61 -137 37 0
40 26 4 40 -24 9 -25 13 -25 96 0 77 2 86 20 91 11 3 20 12 20 19 0 8 -9 14
-20 14 -16 0 -20 7 -20 35 0 35 -3 38 -27 28z"/>
<path d="M22753 16533 c-7 -2 -13 -18 -13 -34 0 -19 -5 -29 -15 -29 -8 0 -15
-7 -15 -15 0 -8 7 -15 15 -15 12 0 15 -17 15 -93 0 -107 13 -137 61 -137 37 0
40 26 4 40 -24 9 -25 13 -25 96 0 77 2 86 20 91 11 3 20 12 20 19 0 8 -9 14
-20 14 -16 0 -20 7 -20 35 0 35 -3 38 -27 28z"/>
<path d="M26360 16495 c0 -18 5 -25 20 -25 15 0 20 7 20 25 0 18 -5 25 -20 25
-15 0 -20 -7 -20 -25z"/>
<path d="M27130 16345 c0 -168 1 -175 20 -175 19 0 20 7 20 175 0 168 -1 175
-20 175 -19 0 -20 -7 -20 -175z"/>
<path d="M28873 16504 c-58 -29 -69 -107 -19 -139 13 -9 54 -24 92 -34 61 -18
94 -39 94 -63 0 -5 -11 -20 -25 -33 -43 -44 -138 -29 -158 25 -7 18 -19 30
-29 30 -21 0 -23 -18 -6 -54 37 -83 201 -87 243 -6 34 67 -4 116 -109 141 -28
6 -61 18 -73 25 -50 31 -11 84 60 84 31 0 45 -7 68 -31 18 -19 35 -29 44 -25
14 5 14 9 0 37 -28 54 -117 75 -182 43z"/>
<path d="M28463 16493 c-7 -2 -13 -18 -13 -34 0 -19 -5 -29 -15 -29 -8 0 -15
-6 -15 -14 0 -8 7 -16 15 -20 12 -4 15 -24 15 -93 0 -103 14 -133 61 -133 37
0 40 26 4 40 -24 9 -25 13 -25 96 0 77 2 86 20 91 11 3 20 12 20 19 0 8 -9 14
-20 14 -16 0 -20 7 -20 35 0 35 -3 38 -27 28z"/>
<path d="M29157 16493 c-4 -3 -7 -19 -7 -35 0 -21 -5 -28 -20 -28 -11 0 -20
-6 -20 -14 0 -7 9 -16 20 -19 18 -5 20 -14 20 -106 0 -89 2 -101 19 -111 29
-15 61 -12 61 5 0 9 -11 20 -25 25 -25 10 -26 12 -23 97 3 83 4 88 26 91 31 5
29 32 -3 32 -22 0 -25 4 -25 35 0 33 -8 43 -23 28z"/>
<path d="M29717 16493 c-4 -3 -7 -19 -7 -35 0 -21 -5 -28 -20 -28 -11 0 -20
-6 -20 -14 0 -7 9 -16 20 -19 18 -5 20 -14 20 -106 0 -89 2 -101 19 -111 29
-15 61 -12 61 5 0 9 -11 20 -25 25 -25 10 -26 12 -23 97 3 83 4 88 26 91 31 5
29 32 -3 32 -22 0 -25 4 -25 35 0 33 -8 43 -23 28z"/>
<path d="M18760 16340 c0 -123 1 -130 20 -130 19 0 20 7 20 93 0 103 13 130
65 130 48 0 55 -17 55 -124 0 -92 1 -99 20 -99 19 0 20 7 20 98 0 58 -5 107
-13 122 -18 36 -74 48 -117 26 -40 -20 -40 -20 -40 -1 0 8 -7 15 -15 15 -13 0
-15 -21 -15 -130z"/>
<path d="M19070 16463 c-30 -12 -50 -37 -50 -63 0 -35 23 -54 90 -77 43 -14
56 -23 58 -40 7 -47 -98 -49 -113 -2 -7 21 -13 23 -32 11 -17 -11 5 -53 37
-70 32 -17 105 -9 130 13 25 23 26 76 3 98 -10 8 -44 23 -75 32 -45 13 -58 21
-58 36 0 22 40 42 67 32 10 -3 25 -15 34 -26 17 -20 39 -16 39 7 0 34 -86 67
-130 49z"/>
<path d="M19400 16340 c0 -123 1 -130 20 -130 19 0 20 7 20 130 0 123 -1 130
-20 130 -19 0 -20 -7 -20 -130z"/>
<path d="M19510 16340 c0 -123 1 -130 20 -130 19 0 20 7 20 93 0 98 3 108 37
125 52 28 73 -11 73 -134 0 -65 3 -84 14 -84 10 0 15 23 18 94 2 54 9 100 16
109 17 20 43 26 70 16 21 -8 22 -14 22 -114 0 -98 1 -105 20 -105 19 0 20 7
20 108 0 114 -3 122 -37 141 -32 16 -57 14 -86 -9 l-26 -21 -21 21 c-23 23
-68 26 -96 5 -25 -19 -34 -19 -34 0 0 8 -7 15 -15 15 -13 0 -15 -21 -15 -130z"/>
<path d="M19910 16290 c0 -173 1 -180 20 -180 18 0 20 7 20 66 l0 65 22 -15
c65 -46 148 21 148 119 0 91 -85 156 -146 110 -25 -19 -34 -19 -34 0 0 8 -7
15 -15 15 -13 0 -15 -27 -15 -180z m155 117 c31 -44 13 -141 -27 -156 -58 -21
-108 39 -94 113 13 69 85 94 121 43z"/>
<path d="M20328 16455 c-78 -44 -77 -189 2 -230 37 -19 73 -19 110 0 32 16 55
50 45 65 -10 17 -33 11 -40 -9 -8 -25 -53 -40 -86 -29 -23 8 -49 44 -49 68 0
6 40 10 90 10 l90 0 0 35 c0 75 -95 128 -162 90z m105 -43 c9 -8 17 -23 17
-34 0 -16 -8 -18 -64 -18 -36 0 -67 4 -70 9 -11 17 7 43 37 56 33 14 52 11 80
-13z"/>
<path d="M20550 16340 c0 -123 1 -130 20 -130 19 0 20 7 20 93 0 50 4 97 8
103 15 22 51 35 71 25 27 -15 31 -32 31 -132 0 -69 3 -89 14 -89 10 0 15 23
18 94 2 54 9 100 16 109 17 20 43 26 70 16 21 -8 22 -14 22 -114 0 -98 1 -105
20 -105 19 0 20 7 20 108 0 114 -3 122 -37 141 -32 16 -57 14 -86 -9 l-26 -21
-21 21 c-23 23 -68 26 -96 5 -25 -19 -34 -19 -34 0 0 8 -7 15 -15 15 -13 0
-15 -21 -15 -130z"/>
<path d="M21004 16460 c-42 -17 -64 -58 -64 -121 0 -51 4 -63 29 -91 26 -29
36 -33 79 -33 51 0 82 17 103 58 18 32 -20 34 -45 2 -16 -20 -32 -28 -54 -28
-38 0 -57 15 -71 54 l-10 29 95 0 94 0 0 25 c0 79 -83 135 -156 105z m99 -52
c27 -32 16 -43 -51 -46 -67 -3 -88 12 -61 44 31 38 80 38 112 2z"/>
<path d="M21220 16340 c0 -105 3 -130 14 -130 11 0 15 22 18 95 2 72 7 98 20
111 20 20 73 23 90 6 7 -7 14 -54 16 -112 3 -77 8 -100 18 -100 11 0 14 23 14
109 0 106 -1 110 -26 130 -31 25 -72 27 -100 6 -25 -19 -34 -19 -34 0 0 8 -7
15 -15 15 -13 0 -15 -21 -15 -130z"/>
<path d="M21638 16450 c-21 -16 -28 -30 -28 -56 0 -32 4 -37 43 -53 23 -10 56
-22 72 -27 43 -14 46 -48 5 -62 -38 -14 -80 0 -87 29 -6 20 -33 23 -40 3 -7
-20 38 -63 72 -70 68 -12 125 21 125 75 0 36 -18 51 -94 76 -67 22 -78 42 -34
62 31 16 78 2 78 -22 0 -10 7 -15 17 -13 50 10 6 68 -57 75 -36 4 -51 1 -72
-17z"/>
<path d="M22310 16340 c0 -123 1 -130 20 -130 19 0 20 7 20 93 0 104 9 124 54
129 16 2 31 8 33 15 6 18 -42 27 -68 12 -17 -9 -24 -9 -27 0 -2 6 -10 11 -18
11 -11 0 -14 -25 -14 -130z"/>
<path d="M22511 16458 c-13 -7 -30 -23 -39 -35 -13 -20 -13 -23 2 -29 10 -4
23 2 34 16 35 43 122 24 122 -26 0 -13 -58 -34 -92 -34 -30 0 -65 -21 -77 -46
-30 -68 56 -119 133 -79 27 14 31 14 38 0 5 -8 17 -15 26 -15 15 0 16 11 12
110 -4 84 -9 113 -22 126 -21 22 -105 29 -137 12z m119 -144 c0 -28 -19 -52
-50 -63 -39 -13 -80 1 -80 28 0 24 18 38 55 44 62 9 75 7 75 -9z"/>
<path d="M22925 16461 c-42 -18 -59 -50 -63 -115 -4 -58 -2 -66 24 -95 52 -57
148 -51 180 11 13 25 13 29 0 34 -9 4 -25 -5 -39 -22 -42 -49 -127 -24 -127
37 0 17 8 19 91 19 l92 0 -6 42 c-7 53 -42 88 -93 94 -21 2 -48 0 -59 -5z
m101 -52 c29 -33 11 -49 -55 -49 -67 0 -80 10 -57 45 24 37 80 39 112 4z"/>
<path d="M23180 16457 c-59 -29 -77 -145 -33 -205 27 -37 83 -51 117 -29 14
10 27 13 31 7 8 -13 -5 -57 -21 -71 -23 -19 -83 -13 -105 10 -24 26 -39 27
-39 3 0 -35 38 -57 96 -57 94 0 113 40 114 238 0 110 -1 117 -20 117 -11 0
-20 -7 -20 -15 0 -14 -3 -14 -30 0 -35 18 -57 19 -90 2z m109 -63 c36 -79 -18
-168 -86 -143 -40 15 -56 83 -33 144 19 50 96 50 119 -1z"/>
<path d="M23422 16358 c22 -62 43 -127 45 -144 5 -35 -17 -64 -48 -64 -10 0
-19 -6 -19 -14 0 -39 63 -30 84 12 14 29 116 304 116 315 0 4 -8 7 -18 7 -14
0 -25 -23 -51 -101 -18 -55 -36 -98 -39 -94 -4 3 -21 48 -38 98 -25 75 -35 93
-52 95 -21 3 -20 -1 20 -110z"/>
<path d="M6030 16400 c0 -53 2 -60 20 -60 18 0 20 7 20 60 0 53 -2 60 -20 60
-18 0 -20 -7 -20 -60z"/>
<path d="M19280 16435 c0 -18 5 -25 20 -25 15 0 20 7 20 25 0 18 -5 25 -20 25
-15 0 -20 -7 -20 -25z"/>
<path d="M25720 16300 c0 -123 1 -130 20 -130 19 0 20 7 20 89 0 101 15 134
63 134 50 0 57 -16 57 -124 0 -92 1 -99 20 -99 19 0 20 7 20 103 0 76 -4 108
-15 124 -21 30 -74 39 -114 19 -27 -15 -31 -15 -31 -1 0 8 -9 15 -20 15 -19 0
-20 -7 -20 -130z"/>
<path d="M26023 16420 c-24 -10 -43 -39 -43 -66 0 -30 30 -53 91 -70 62 -17
75 -32 55 -60 -21 -27 -75 -23 -102 9 -14 16 -29 25 -38 21 -14 -5 -14 -9 0
-35 18 -36 56 -52 107 -46 62 8 96 53 77 102 -7 19 -24 29 -80 46 -55 16 -70
25 -70 40 0 41 91 44 106 4 9 -21 34 -19 34 3 0 43 -84 75 -137 52z"/>
<path d="M26360 16300 c0 -123 1 -130 20 -130 19 0 20 7 20 130 0 123 -1 130
-20 130 -19 0 -20 -7 -20 -130z"/>
<path d="M26470 16300 c0 -123 1 -130 20 -130 19 0 20 7 20 93 0 77 3 97 18
109 30 26 51 29 72 8 17 -17 20 -34 20 -115 0 -88 1 -95 20 -95 19 0 20 7 20
93 0 93 8 118 40 129 8 3 25 2 38 -3 21 -8 22 -14 22 -114 0 -98 1 -105 20
-105 19 0 20 7 20 110 0 97 -2 112 -20 130 -25 25 -71 26 -101 1 -23 -19 -24
-19 -48 0 -28 23 -70 25 -97 4 -25 -19 -34 -19 -34 0 0 8 -7 15 -15 15 -13 0
-15 -21 -15 -130z"/>
<path d="M26870 16250 c0 -173 1 -180 20 -180 18 0 20 7 20 65 l0 65 26 -16
c38 -25 91 -9 122 36 20 30 23 44 20 94 -4 51 -9 63 -36 87 -36 32 -77 37
-108 14 -25 -19 -34 -19 -34 0 0 8 -7 15 -15 15 -13 0 -15 -27 -15 -180z m155
117 c21 -30 19 -110 -3 -137 -37 -46 -104 -20 -116 45 -17 91 72 159 119 92z"/>
<path d="M27289 16415 c-31 -17 -59 -71 -59 -114 0 -84 57 -138 134 -128 62 9
112 76 64 85 -9 2 -19 -6 -23 -17 -7 -24 -53 -41 -81 -30 -24 8 -54 46 -54 66
0 10 25 13 95 13 106 0 107 0 79 70 -26 64 -94 88 -155 55z m113 -48 c4 -7 8
-20 8 -29 0 -15 -10 -18 -63 -18 -35 0 -66 3 -70 6 -11 12 16 53 42 62 28 10
70 -1 83 -21z"/>
<path d="M27510 16300 c0 -123 1 -130 20 -130 18 0 20 7 20 88 0 94 12 125 50
135 14 3 29 -2 41 -14 16 -16 19 -34 19 -114 0 -88 1 -95 20 -95 19 0 20 7 20
93 0 104 11 130 54 130 44 0 51 -16 54 -123 3 -78 7 -100 18 -100 11 0 14 22
14 110 0 97 -2 112 -20 130 -25 25 -71 26 -101 1 -23 -19 -24 -19 -48 0 -28
23 -70 25 -97 4 -25 -19 -34 -19 -34 0 0 8 -7 15 -15 15 -13 0 -15 -21 -15
-130z"/>
<path d="M27964 16421 c-42 -18 -64 -59 -64 -122 0 -50 4 -63 28 -89 50 -56
146 -50 178 12 13 26 13 29 -2 35 -10 4 -24 -4 -38 -22 -40 -50 -126 -25 -126
36 0 17 8 19 91 19 l92 0 -6 42 c-7 53 -42 88 -93 94 -21 2 -49 0 -60 -5z
m103 -57 c22 -34 9 -44 -57 -44 -66 0 -79 10 -56 45 26 40 86 39 113 -1z"/>
<path d="M28180 16300 c0 -123 1 -130 20 -130 19 0 20 7 20 93 0 101 4 112 40
125 62 22 80 -9 80 -134 0 -77 2 -84 20 -84 18 0 20 7 20 89 0 48 -5 102 -10
118 -17 48 -85 69 -126 38 -25 -19 -34 -19 -34 0 0 8 -7 15 -15 15 -13 0 -15
-21 -15 -130z"/>
<path d="M28620 16423 c-44 -17 -64 -66 -41 -101 5 -8 37 -24 72 -36 55 -19
64 -25 64 -46 0 -44 -88 -47 -107 -4 -12 27 -16 28 -38 14 -13 -8 -12 -13 6
-37 52 -71 184 -45 184 35 0 38 -22 56 -92 76 -46 13 -58 21 -58 37 0 22 40
42 67 32 10 -3 25 -15 34 -26 17 -20 39 -16 39 7 0 34 -86 67 -130 49z"/>
<path d="M29270 16300 c0 -123 1 -130 20 -130 18 0 20 7 20 84 0 110 9 134 52
138 21 2 33 8 33 18 0 20 -42 25 -62 8 -13 -10 -17 -10 -20 0 -3 6 -13 12 -24
12 -18 0 -19 -9 -19 -130z"/>
<path d="M29472 16416 c-37 -17 -50 -42 -33 -59 9 -9 16 -7 30 11 33 45 126
27 119 -22 -2 -17 -14 -23 -66 -32 -70 -13 -102 -35 -102 -71 0 -62 58 -89
131 -60 35 14 41 14 46 1 3 -8 14 -14 25 -14 14 0 18 5 14 16 -3 9 -6 55 -6
104 0 69 -4 92 -18 110 -23 28 -94 36 -140 16z m118 -142 c0 -28 -19 -52 -50
-63 -39 -13 -80 1 -80 28 0 23 11 31 54 42 53 12 76 10 76 -7z"/>
<path d="M29878 16415 c-51 -29 -74 -113 -48 -179 12 -32 65 -66 103 -66 53 0
119 52 102 80 -10 16 -25 12 -48 -14 -22 -24 -35 -30 -69 -27 -23 1 -58 40
-58 63 0 16 10 18 90 18 l90 0 0 35 c0 75 -95 128 -162 90z m108 -46 c29 -33
11 -49 -55 -49 -67 0 -80 10 -57 45 24 37 80 39 112 4z"/>
<path d="M30134 16411 c-74 -45 -70 -187 6 -226 31 -16 45 -16 98 0 18 6 22 3
22 -13 0 -11 -8 -30 -19 -43 -24 -30 -84 -30 -112 0 -23 25 -39 27 -39 6 0
-21 34 -53 65 -61 39 -10 90 4 116 32 23 24 24 33 27 175 4 146 3 149 -17 149
-12 0 -21 -6 -21 -15 0 -14 -3 -14 -30 0 -38 20 -58 19 -96 -4z m111 -44 c17
-25 20 -99 4 -128 -14 -27 -48 -38 -80 -27 -65 23 -65 154 0 176 34 11 58 5
76 -21z"/>
<path d="M30372 16348 c57 -155 63 -176 52 -206 -7 -19 -17 -28 -37 -30 -15
-2 -27 -10 -27 -17 0 -39 63 -28 85 16 19 35 115 296 115 311 0 5 -7 8 -16 6
-11 -2 -29 -36 -51 -98 -19 -52 -36 -96 -38 -98 -2 -2 -18 42 -36 97 -29 88
-36 101 -55 101 l-23 0 31 -82z"/>
<path d="M10280 16115 l0 -305 -141 71 c-130 65 -169 76 -169 49 0 -5 50 -35
110 -65 61 -30 110 -60 110 -65 0 -5 -49 -35 -110 -65 -60 -30 -110 -60 -110
-65 0 -27 39 -16 169 49 l141 71 0 -305 0 -305 2020 0 2020 0 0 620 0 620
-2020 0 -2020 0 0 -305z m4000 -315 l0 -580 -1980 0 -1980 0 0 580 0 580 1980
0 1980 0 0 -580z"/>
<path d="M11503 15981 c-71 -33 -101 -110 -81 -206 19 -89 93 -138 185 -120
39 7 103 62 103 88 0 19 -33 32 -39 15 -2 -7 -17 -25 -32 -40 -39 -39 -97 -39
-141 1 -32 28 -33 32 -33 106 0 74 1 78 33 106 25 23 42 29 76 29 38 0 49 -5
73 -34 19 -23 33 -32 45 -27 17 6 16 8 -2 39 -36 59 -112 77 -187 43z"/>
<path d="M13260 15940 l0 -61 -30 16 c-42 22 -66 19 -102 -14 -31 -28 -33 -33
-33 -99 0 -61 3 -74 24 -96 29 -31 80 -43 112 -25 17 9 24 9 27 0 2 -6 12 -11
23 -11 18 0 19 9 19 175 0 168 -1 175 -20 175 -18 0 -20 -7 -20 -60z m-15 -93
c23 -32 20 -120 -5 -142 -27 -24 -70 -22 -92 5 -20 25 -24 99 -7 131 21 41 78
44 104 6z"/>
<path d="M13370 15975 c0 -18 5 -25 20 -25 15 0 20 7 20 25 0 18 -5 25 -20 25
-15 0 -20 -7 -20 -25z"/>
<path d="M13493 15973 c-7 -2 -13 -18 -13 -34 0 -19 -5 -29 -15 -29 -8 0 -15
-7 -15 -15 0 -8 7 -15 15 -15 12 0 15 -18 15 -98 0 -109 11 -132 63 -132 37 0
33 29 -5 43 -15 5 -18 20 -18 93 0 77 2 86 20 91 11 3 20 12 20 19 0 8 -9 14
-20 14 -16 0 -20 7 -20 35 0 35 -3 38 -27 28z"/>
<path d="M10780 15780 c0 -123 1 -130 20 -130 18 0 20 7 20 86 0 47 5 94 11
105 16 31 57 43 85 24 23 -15 24 -21 24 -115 0 -93 1 -100 20 -100 19 0 20 7
20 105 0 99 -2 107 -25 130 -28 29 -63 32 -105 10 -27 -14 -30 -14 -30 0 0 8
-9 15 -20 15 -19 0 -20 -7 -20 -130z"/>
<path d="M11090 15903 c-44 -17 -64 -66 -41 -101 4 -7 37 -23 72 -35 51 -17
65 -27 67 -44 7 -47 -90 -52 -110 -7 -12 26 -16 28 -35 16 -17 -11 5 -53 37
-69 48 -25 129 -6 144 32 21 56 -2 85 -86 109 -46 13 -58 21 -58 37 0 22 40
42 67 32 10 -3 25 -15 34 -26 17 -20 39 -16 39 7 0 34 -86 67 -130 49z"/>
<path d="M11812 15895 c-80 -35 -82 -189 -3 -229 85 -44 171 13 171 114 0 52
-22 96 -60 115 -36 18 -65 19 -108 0z m118 -55 c6 -10 10 -37 10 -60 0 -53
-12 -75 -49 -88 -97 -34 -144 142 -47 177 27 10 73 -6 86 -29z"/>
<path d="M12030 15780 c0 -121 1 -130 19 -130 17 0 19 9 23 95 2 71 7 98 20
111 20 20 67 22 79 3 5 -8 9 -58 9 -111 0 -91 1 -98 20 -98 18 0 20 7 20 88 0
93 12 125 49 135 11 2 29 -2 40 -10 19 -13 21 -24 21 -114 0 -92 1 -99 20 -99
19 0 20 7 20 98 0 109 -11 142 -54 157 -22 7 -35 5 -65 -11 -37 -20 -39 -20
-61 -2 -27 22 -52 23 -90 3 -27 -14 -30 -14 -30 0 0 8 -9 15 -20 15 -19 0 -20
-7 -20 -130z"/>
<path d="M12430 15780 c0 -121 1 -130 19 -130 17 0 19 9 23 95 2 71 7 98 20
111 20 20 67 22 79 3 5 -8 9 -58 9 -111 0 -91 1 -98 20 -98 18 0 20 7 20 88 0
93 12 125 49 135 11 2 29 -2 40 -10 19 -13 21 -24 21 -114 0 -92 1 -99 20 -99
19 0 20 7 20 98 0 109 -11 142 -54 157 -22 7 -35 5 -65 -11 -37 -20 -39 -20
-61 -2 -27 22 -52 23 -90 3 -27 -14 -30 -14 -30 0 0 8 -9 15 -20 15 -19 0 -20
-7 -20 -130z"/>
<path d="M12872 15890 c-41 -25 -55 -61 -49 -129 3 -44 9 -59 31 -78 36 -31
70 -38 117 -24 45 14 69 44 76 99 15 115 -82 188 -175 132z m113 -40 c9 -10
19 -36 21 -57 9 -71 -40 -121 -97 -101 -36 13 -49 35 -49 87 0 55 8 71 43 86
35 15 59 10 82 -15z"/>
<path d="M13370 15780 c0 -123 1 -130 20 -130 19 0 20 7 20 130 0 123 -1 130
-20 130 -19 0 -20 -7 -20 -130z"/>
<path d="M13590 15904 c0 -4 20 -63 45 -131 41 -111 44 -127 33 -151 -9 -18
-22 -28 -41 -30 -21 -3 -27 -8 -23 -19 3 -8 6 -17 6 -19 0 -2 9 -4 19 -4 33 0
61 33 87 105 99 272 95 255 75 255 -15 0 -26 -19 -47 -77 -15 -43 -32 -89 -37
-103 -8 -22 -13 -14 -44 78 -28 82 -38 102 -54 102 -10 0 -19 -3 -19 -6z"/>
<path d="M11300 15875 c0 -18 5 -25 20 -25 15 0 20 7 20 25 0 18 -5 25 -20 25
-15 0 -20 -7 -20 -25z"/>
<path d="M11300 15675 c0 -18 5 -25 20 -25 15 0 20 7 20 25 0 18 -5 25 -20 25
-15 0 -20 -7 -20 -25z"/>
<path d="M10750 15590 c0 -20 7 -20 1400 -20 1393 0 1400 0 1400 20 0 20 -7
20 -1400 20 -1393 0 -1400 0 -1400 -20z"/>
<path d="M13730 15590 c0 -17 7 -20 40 -20 33 0 40 3 40 20 0 17 -7 20 -40 20
-33 0 -40 -3 -40 -20z"/>
<path d="M26240 16395 c0 -20 5 -25 25 -25 20 0 25 5 25 25 0 20 -5 25 -25 25
-20 0 -25 -5 -25 -25z"/>
<path d="M2080 12875 c0 -1922 -3 -3495 -7 -3495 -5 0 -50 22 -100 49 -51 27
-93 48 -93 45 0 -2 47 -99 105 -214 l105 -210 -725 0 -725 0 0 -620 0 -620
1205 0 1205 0 -100 -200 -100 -200 95 0 95 0 -2 -1893 -3 -1893 409 -307 409
-307 889 0 888 0 0 -50 c0 -43 3 -50 20 -50 17 0 20 7 20 50 l0 50 888 0 889
0 411 308 c226 169 411 309 411 312 0 3 -185 143 -411 313 l-411 307 -889 0
-888 0 0 50 c0 43 -3 50 -20 50 -17 0 -20 -7 -20 -50 l0 -50 -888 0 -889 0
-386 -290 -387 -290 0 1870 0 1870 95 0 95 0 -100 200 -100 200 1205 0 1205 0
0 620 0 620 -1685 0 -1685 0 105 210 c58 115 105 212 105 215 0 3 -42 -18 -93
-45 -52 -28 -97 -50 -100 -50 -4 0 -7 1573 -7 3495 0 3488 0 3495 -20 3495
-20 0 -20 -7 -20 -3495z m3360 -4445 l0 -580 -2380 0 -2380 0 0 580 0 580
2380 0 2380 0 0 -580z m-2307 -835 c37 -74 67 -137 67 -140 0 -3 -63 -5 -140
-5 -77 0 -140 2 -140 5 0 10 135 275 140 275 3 0 36 -61 73 -135z m4684 -3672
c210 -158 383 -290 383 -293 0 -3 -173 -135 -383 -293 l-384 -287 -1783 0
-1783 0 -384 287 c-210 158 -382 291 -381 295 2 4 174 135 383 292 l380 286
1784 0 1784 0 384 -287z"/>
<path d="M2160 8466 c0 -169 1 -176 20 -176 18 0 20 8 22 143 l3 142 48 -142
c39 -114 52 -143 67 -143 15 0 28 29 67 143 l48 142 3 -142 c2 -135 4 -143 22
-143 19 0 20 7 20 175 l0 175 -28 0 c-27 0 -29 -5 -76 -146 -26 -80 -51 -143
-54 -139 -4 4 -28 68 -53 143 -45 135 -46 137 -77 140 l-32 3 0 -175z"/>
<path d="M2980 8465 c0 -168 1 -175 20 -175 17 0 20 7 20 53 0 48 12 77 31 77
4 0 24 -29 45 -65 30 -50 43 -65 61 -65 27 0 26 3 -38 103 l-39 61 47 48 c45
46 46 48 21 48 -18 0 -39 -15 -72 -50 -26 -27 -49 -50 -51 -50 -3 0 -5 43 -5
95 0 88 -1 95 -20 95 -19 0 -20 -7 -20 -175z"/>
<path d="M3630 8464 l0 -176 94 4 c107 4 133 17 162 75 26 53 25 157 -2 204
-30 51 -74 69 -171 69 l-83 0 0 -176z m195 114 c50 -44 50 -181 0 -225 -21
-19 -38 -23 -91 -23 l-64 0 0 135 0 135 64 0 c53 0 70 -4 91 -22z"/>
<path d="M3507 8613 c-4 -3 -7 -19 -7 -35 0 -21 -5 -28 -20 -28 -11 0 -20 -6
-20 -14 0 -7 9 -16 20 -19 18 -5 20 -14 20 -104 0 -108 6 -123 52 -123 36 0
38 27 3 40 -24 9 -25 13 -25 96 0 77 2 86 20 91 11 3 20 12 20 19 0 8 -9 14
-20 14 -16 0 -20 7 -20 35 0 33 -8 43 -23 28z"/>
<path d="M4253 8613 c-7 -2 -13 -18 -13 -34 0 -19 -5 -29 -15 -29 -8 0 -15 -6
-15 -14 0 -8 7 -16 15 -20 12 -4 15 -25 15 -99 0 -78 3 -97 18 -110 25 -23 77
-23 68 -1 -3 9 -6 18 -6 20 0 2 -9 4 -20 4 -19 0 -20 7 -20 91 0 82 2 91 20
96 11 3 20 12 20 19 0 8 -9 14 -20 14 -16 0 -20 7 -20 35 0 35 -3 38 -27 28z"/>
<path d="M1510 8420 c0 -123 1 -130 20 -130 18 0 20 7 20 79 0 44 4 91 10 106
13 35 55 50 86 30 23 -15 24 -21 24 -115 0 -93 1 -100 20 -100 19 0 20 7 20
105 0 99 -2 107 -25 130 -28 29 -63 32 -105 10 -27 -14 -30 -14 -30 0 0 8 -9
15 -20 15 -19 0 -20 -7 -20 -130z"/>
<path d="M1810 8537 c-13 -7 -29 -24 -34 -39 -15 -43 12 -72 84 -92 65 -18 83
-38 57 -63 -27 -27 -77 -21 -103 13 -17 21 -26 26 -35 17 -17 -17 -1 -52 33
-69 44 -23 106 -13 135 21 44 51 25 87 -62 114 -33 10 -64 26 -69 35 -26 40
63 56 96 17 25 -31 52 -22 37 13 -20 43 -88 59 -139 33z"/>
<path d="M2594 8536 c-31 -14 -49 -40 -38 -57 9 -15 25 -10 43 13 33 40 116
21 109 -26 -2 -17 -14 -23 -66 -32 -34 -6 -71 -19 -82 -29 -29 -26 -26 -69 6
-94 32 -25 62 -26 111 -6 19 8 37 15 39 15 2 0 4 -7 4 -15 0 -8 8 -15 18 -15
16 0 17 10 14 108 -3 86 -7 111 -22 126 -23 24 -96 31 -136 12z m116 -149 c0
-43 -59 -74 -106 -57 -26 10 -33 43 -12 56 13 8 69 21 101 23 12 1 17 -6 17
-22z"/>
<path d="M2820 8420 c0 -121 1 -130 19 -130 17 0 19 9 23 100 3 107 11 124 56
125 17 0 27 5 27 15 0 22 -43 25 -66 4 -17 -16 -19 -16 -19 -1 0 10 -8 17 -20
17 -19 0 -20 -7 -20 -130z"/>
<path d="M3264 8532 c-40 -26 -58 -70 -52 -132 8 -80 68 -125 144 -106 26 7
74 51 74 68 0 21 -31 18 -52 -6 -23 -24 -35 -30 -70 -27 -25 1 -58 37 -58 61
0 19 7 20 90 20 l90 0 0 35 c0 79 -97 130 -166 87z m110 -42 c33 -32 14 -50
-53 -50 -65 0 -78 8 -61 40 22 42 76 46 114 10z"/>
<path d="M4011 8537 c-13 -6 -30 -22 -39 -34 -13 -20 -13 -23 2 -29 11 -4 22
1 31 14 29 40 106 35 120 -8 4 -12 4 -24 1 -27 -2 -3 -36 -12 -73 -19 -100
-21 -130 -68 -78 -119 28 -29 72 -32 117 -9 28 15 32 15 40 0 5 -9 17 -16 27
-16 17 0 18 5 10 38 -5 20 -9 69 -9 107 0 39 -4 75 -8 81 -22 33 -97 44 -141
21z m119 -137 c0 -50 -63 -90 -108 -67 -29 14 -35 26 -23 46 14 21 131 41 131
21z"/>
<path d="M4411 8537 c-13 -6 -30 -22 -39 -34 -13 -20 -13 -23 2 -29 11 -4 22
1 31 14 29 40 106 35 120 -8 4 -12 4 -24 1 -27 -2 -3 -36 -12 -73 -19 -100
-21 -130 -68 -78 -119 28 -29 72 -32 117 -9 28 15 32 15 40 0 5 -9 17 -16 27
-16 17 0 18 5 10 38 -5 20 -9 69 -9 107 0 39 -4 75 -8 81 -22 33 -97 44 -141
21z m119 -137 c0 -50 -63 -90 -108 -67 -29 14 -35 26 -23 46 14 21 131 41 131
21z"/>
<path d="M2030 8515 c0 -20 5 -25 25 -25 20 0 25 5 25 25 0 20 -5 25 -25 25
-20 0 -25 -5 -25 -25z"/>
<path d="M2030 8315 c0 -20 5 -25 25 -25 20 0 25 5 25 25 0 20 -5 25 -25 25
-20 0 -25 -5 -25 -25z"/>
<path d="M5210 3665 c0 -149 2 -175 15 -175 13 0 15 26 15 175 0 149 -2 175
-15 175 -13 0 -15 -26 -15 -175z"/>
<path d="M6346 3830 c-87 -27 -131 -149 -87 -246 37 -82 131 -115 214 -75 52
25 73 52 86 113 31 138 -80 247 -213 208z m122 -46 c33 -23 52 -67 52 -119 0
-83 -43 -135 -113 -135 -77 0 -123 52 -121 137 1 56 21 101 53 118 35 19 101
19 129 -1z"/>
<path d="M6650 3820 c-11 -11 -20 -31 -20 -45 0 -16 -6 -25 -15 -25 -8 0 -15
-6 -15 -14 0 -8 7 -16 15 -20 12 -4 15 -27 15 -116 0 -103 1 -110 20 -110 18
0 20 8 22 113 3 108 4 112 26 115 31 5 28 32 -4 32 -21 0 -25 4 -22 23 2 16
11 23 31 25 19 2 27 9 27 23 0 26 -53 26 -80 -1z"/>
<path d="M4130 3725 c-79 -35 -95 -46 -95 -65 0 -19 15 -28 95 -61 107 -43
123 -46 118 -23 -2 10 -35 28 -85 47 -46 17 -83 34 -83 37 0 3 37 22 83 41 49
22 83 43 85 52 5 24 -11 20 -118 -28z"/>
<path d="M4410 3725 c-79 -35 -95 -46 -95 -65 0 -19 15 -28 95 -61 107 -43
123 -46 118 -23 -2 10 -35 28 -85 47 -46 17 -83 34 -83 37 0 3 37 22 83 41 49
22 83 43 85 52 5 24 -11 20 -118 -28z"/>
<path d="M6752 3753 c2 -9 36 -30 86 -52 45 -19 82 -38 82 -41 0 -3 -37 -20
-82 -37 -51 -19 -84 -37 -86 -47 -5 -23 11 -20 118 23 80 33 95 42 95 61 0 19
-16 30 -99 66 -110 49 -119 51 -114 27z"/>
<path d="M7032 3753 c2 -9 36 -30 86 -52 45 -19 82 -38 82 -41 0 -3 -37 -20
-82 -37 -51 -19 -84 -37 -86 -47 -5 -23 11 -20 118 23 80 33 95 42 95 61 0 19
-16 30 -99 66 -110 49 -119 51 -114 27z"/>
<path d="M4632 3730 c-41 -25 -55 -61 -50 -128 7 -87 70 -129 152 -102 47 15
70 53 70 116 1 63 -17 98 -59 119 -44 20 -73 19 -113 -5z m111 -40 c24 -22 32
-88 15 -120 -8 -14 -26 -31 -41 -38 -22 -11 -31 -10 -55 2 -35 18 -42 33 -42
90 0 82 68 119 123 66z"/>
<path d="M4852 3678 c48 -171 53 -183 75 -186 19 -3 23 7 44 92 13 53 26 96
29 96 3 0 11 -26 18 -57 23 -111 32 -133 52 -133 16 0 26 21 55 118 20 64 38
123 40 130 3 6 -4 12 -14 12 -14 0 -24 -20 -46 -95 -16 -52 -31 -92 -34 -89
-3 3 -15 44 -26 92 -17 73 -24 87 -41 90 -19 3 -24 -7 -43 -85 -12 -49 -26
-95 -30 -102 -5 -8 -17 24 -33 86 -20 83 -27 98 -45 101 l-22 3 21 -73z"/>
<path d="M5484 3731 c-73 -45 -70 -187 5 -225 85 -44 171 13 171 114 0 104
-93 162 -176 111z m125 -57 c47 -105 -60 -203 -123 -112 -33 47 -12 129 38
147 30 12 71 -6 85 -35z"/>
<path d="M5710 3620 c0 -123 1 -130 20 -130 18 0 20 7 20 79 0 44 4 91 10 106
13 35 55 50 86 30 23 -15 24 -21 24 -115 0 -93 1 -100 20 -100 19 0 20 7 20
105 0 99 -2 107 -25 130 -28 29 -63 32 -105 10 -27 -14 -30 -14 -30 0 0 8 -9
15 -20 15 -19 0 -20 -7 -20 -130z"/>
<path d="M6024 3732 c-40 -26 -58 -70 -52 -132 8 -80 68 -125 144 -106 26 7
74 51 74 68 0 21 -31 18 -52 -6 -23 -24 -35 -30 -70 -27 -25 1 -58 37 -58 61
0 19 7 20 90 20 l90 0 0 35 c0 79 -97 130 -166 87z m110 -42 c33 -32 14 -50
-53 -50 -65 0 -78 8 -61 40 22 42 76 46 114 10z"/>
<path d="M5330 3715 c0 -18 5 -25 20 -25 15 0 20 7 20 25 0 18 -5 25 -20 25
-15 0 -20 -7 -20 -25z"/>
<path d="M5330 3515 c0 -18 5 -25 20 -25 15 0 20 7 20 25 0 18 -5 25 -20 25
-15 0 -20 -7 -20 -25z"/>
<path d="M19280 16235 c0 -18 5 -25 20 -25 15 0 20 7 20 25 0 18 -5 25 -20 25
-15 0 -20 -7 -20 -25z"/>
<path d="M6030 16160 c0 -53 2 -60 20 -60 18 0 20 7 20 60 0 53 -2 60 -20 60
-18 0 -20 -7 -20 -60z"/>
<path d="M26240 16195 c0 -20 5 -25 25 -25 20 0 25 5 25 25 0 20 -5 25 -25 25
-20 0 -25 -5 -25 -25z"/>
<path d="M21060 15753 c0 -164 5 -1843 11 -3731 6 -1889 9 -3435 7 -3438 -2
-2 -42 17 -88 41 -47 24 -91 45 -98 45 -7 0 34 -93 93 -210 l105 -210 -1225 0
-1225 0 0 -620 0 -620 2620 0 2620 0 0 300 0 300 50 0 c43 0 50 3 50 20 0 17
-7 20 -50 20 l-50 0 0 300 0 300 -1385 0 -1385 0 105 210 c58 116 103 210 100
210 -3 0 -46 -21 -96 -46 -50 -25 -93 -44 -94 -42 -3 3 -25 6383 -25 7171 0
290 0 297 -20 297 -20 0 -20 -7 -20 -297z m2780 -8123 l0 -580 -2580 0 -2580
0 0 580 0 580 2580 0 2580 0 0 -580z"/>
<path d="M19540 7665 c0 -168 1 -175 20 -175 19 0 20 7 20 175 0 168 -1 175
-20 175 -19 0 -20 -7 -20 -175z"/>
<path d="M21933 7825 c-36 -15 -53 -42 -53 -83 0 -41 34 -68 117 -91 87 -24
89 -25 96 -52 9 -33 -33 -69 -80 -69 -49 0 -85 19 -101 53 -17 35 -42 36 -42
1 0 -39 48 -81 102 -89 94 -14 158 25 158 96 0 51 -24 74 -97 94 -80 21 -107
37 -111 62 -4 28 33 53 78 53 39 0 80 -23 80 -46 0 -8 9 -14 20 -14 11 0 20 7
20 16 0 66 -105 105 -187 69z"/>
<path d="M20693 7813 c-7 -2 -13 -18 -13 -34 0 -19 -5 -29 -15 -29 -8 0 -15
-7 -15 -15 0 -8 7 -15 15 -15 12 0 15 -17 15 -93 0 -107 13 -137 61 -137 37 0
40 26 4 40 -24 9 -25 13 -25 96 0 77 2 86 20 91 11 3 20 12 20 19 0 8 -9 14
-20 14 -16 0 -20 7 -20 35 0 35 -3 38 -27 28z"/>
<path d="M21763 7813 c-7 -2 -13 -18 -13 -34 0 -19 -5 -29 -15 -29 -8 0 -15
-6 -15 -14 0 -8 7 -16 15 -20 12 -4 15 -25 15 -99 0 -78 3 -97 18 -110 25 -23
77 -23 68 -1 -3 9 -6 18 -6 20 0 2 -9 4 -20 4 -19 0 -20 7 -20 91 0 82 2 91
20 96 11 3 20 12 20 19 0 8 -9 14 -20 14 -16 0 -20 7 -20 35 0 35 -3 38 -27
28z"/>
<path d="M22213 7813 c-7 -2 -13 -18 -13 -34 0 -19 -5 -29 -15 -29 -8 0 -15
-7 -15 -15 0 -8 7 -15 15 -15 12 0 15 -17 15 -93 0 -107 13 -137 61 -137 37 0
40 26 4 40 -24 9 -25 13 -25 96 0 77 2 86 20 91 11 3 20 12 20 19 0 8 -9 14
-20 14 -16 0 -20 7 -20 35 0 35 -3 38 -27 28z"/>
<path d="M22773 7813 c-7 -2 -13 -18 -13 -34 0 -19 -5 -29 -15 -29 -8 0 -15
-7 -15 -15 0 -8 7 -15 15 -15 12 0 15 -17 15 -93 0 -107 13 -137 61 -137 37 0
40 26 4 40 -24 9 -25 13 -25 96 0 77 2 86 20 91 11 3 20 12 20 19 0 8 -9 14
-20 14 -16 0 -20 7 -20 35 0 35 -3 38 -27 28z"/>
<path d="M18890 7620 c0 -123 1 -130 20 -130 19 0 20 7 20 94 0 114 13 135 80
126 31 -3 40 -33 40 -127 0 -86 1 -93 20 -93 18 0 20 7 20 89 0 48 -5 102 -10
118 -17 48 -85 69 -126 38 -25 -19 -34 -19 -34 0 0 8 -7 15 -15 15 -13 0 -15
-21 -15 -130z"/>
<path d="M19183 7739 c-12 -7 -26 -23 -31 -38 -15 -42 1 -67 55 -86 89 -31 95
-35 91 -53 -2 -9 -15 -23 -30 -30 -33 -15 -78 -1 -85 29 -6 20 -33 23 -40 3
-7 -20 38 -63 72 -70 68 -12 125 21 125 75 0 36 -18 51 -93 76 -34 11 -62 25
-64 30 -5 17 10 32 40 39 22 5 33 1 53 -19 15 -15 32 -24 40 -21 19 7 18 19
-4 46 -21 26 -94 36 -129 19z"/>
<path d="M19660 7620 c0 -123 1 -130 20 -130 19 0 20 7 20 93 0 103 13 130 65
130 48 0 55 -17 55 -124 0 -92 1 -99 20 -99 19 0 20 7 20 98 0 58 -5 107 -13
122 -18 36 -74 48 -117 26 -40 -20 -40 -20 -40 -1 0 8 -7 15 -15 15 -13 0 -15
-21 -15 -130z"/>
<path d="M19949 7623 c62 -172 70 -172 132 0 43 119 45 128 27 125 -16 -2 -28
-24 -55 -98 -19 -52 -36 -96 -38 -98 -2 -2 -18 42 -36 97 -29 87 -36 101 -55
101 -21 0 -20 -4 25 -127z"/>
<path d="M20230 7743 c-81 -30 -101 -161 -34 -224 34 -32 111 -34 144 -4 35
31 44 54 24 62 -10 4 -24 -4 -38 -22 -40 -49 -117 -31 -129 31 l-4 24 93 0 94
0 0 25 c0 76 -80 133 -150 108z m93 -55 c27 -32 16 -43 -51 -46 -67 -3 -88 12
-61 44 31 38 80 38 112 2z"/>
<path d="M20458 7730 c-21 -16 -28 -30 -28 -56 0 -32 4 -37 43 -53 23 -10 56
-22 72 -27 38 -12 40 -44 3 -61 -33 -16 -78 -2 -85 28 -6 20 -33 23 -40 3 -7
-20 38 -63 72 -70 68 -12 125 21 125 74 0 38 -22 56 -92 76 -61 17 -71 26 -62
49 12 32 89 29 100 -5 6 -20 35 -21 41 -2 8 24 -33 56 -77 61 -36 4 -51 1 -72
-17z"/>
<path d="M20810 7620 c0 -123 1 -130 20 -130 19 0 20 7 20 93 0 50 4 97 8 103
15 22 51 35 71 25 27 -15 31 -32 31 -132 0 -69 3 -89 14 -89 10 0 15 23 18 94
2 54 9 100 16 109 17 20 43 26 70 16 21 -8 22 -14 22 -114 0 -98 1 -105 20
-105 19 0 20 7 20 108 0 114 -3 122 -37 141 -32 16 -57 14 -86 -9 l-26 -21
-21 21 c-23 23 -68 26 -96 5 -25 -19 -34 -19 -34 0 0 8 -7 15 -15 15 -13 0
-15 -21 -15 -130z"/>
<path d="M21264 7740 c-42 -17 -64 -58 -64 -121 0 -51 4 -63 29 -91 26 -29 36
-33 79 -33 51 0 82 17 103 58 18 32 -20 34 -45 2 -16 -20 -32 -28 -54 -28 -38
0 -57 15 -71 54 l-10 29 95 0 94 0 0 25 c0 79 -83 135 -156 105z m99 -52 c27
-32 16 -43 -51 -46 -67 -3 -88 12 -61 44 31 38 80 38 112 2z"/>
<path d="M21480 7620 c0 -105 3 -130 14 -130 11 0 15 22 18 95 2 72 7 98 20
111 20 20 73 23 90 6 7 -7 14 -54 16 -112 3 -77 8 -100 18 -100 11 0 14 23 14
109 0 106 -1 110 -26 130 -31 25 -72 27 -100 6 -25 -19 -34 -19 -34 0 0 8 -7
15 -15 15 -13 0 -15 -21 -15 -130z"/>
<path d="M22330 7620 c0 -123 1 -130 20 -130 19 0 20 7 20 95 0 80 3 98 19
114 12 12 28 17 39 14 12 -3 22 1 25 11 9 24 -37 32 -68 12 -22 -14 -25 -15
-25 -1 0 8 -7 15 -15 15 -13 0 -15 -21 -15 -130z"/>
<path d="M22531 7738 c-13 -7 -30 -23 -39 -35 -13 -20 -13 -23 2 -29 10 -4 23
2 34 16 35 43 122 24 122 -26 0 -13 -58 -34 -92 -34 -30 0 -65 -21 -77 -46
-30 -68 56 -119 133 -79 27 14 31 14 38 0 5 -8 17 -15 26 -15 15 0 16 11 12
110 -4 84 -9 113 -22 126 -21 22 -105 29 -137 12z m119 -144 c0 -28 -19 -52
-50 -63 -39 -13 -80 1 -80 28 0 24 18 38 55 44 62 9 75 7 75 -9z"/>
<path d="M22944 7740 c-42 -17 -64 -58 -64 -121 0 -51 4 -63 29 -91 26 -29 36
-33 79 -33 51 0 82 17 103 58 18 32 -20 34 -45 2 -40 -50 -126 -25 -126 36 0
17 8 19 90 19 90 0 90 0 90 25 0 79 -83 135 -156 105z m99 -52 c27 -32 16 -43
-51 -46 -67 -3 -88 12 -61 44 31 38 80 38 112 2z"/>
<path d="M23200 7737 c-59 -29 -77 -145 -33 -205 27 -37 83 -51 117 -29 14 10
27 13 31 7 8 -13 -5 -57 -21 -71 -23 -19 -83 -13 -105 10 -24 26 -39 27 -39 3
0 -35 38 -57 96 -57 94 0 113 40 114 238 0 110 -1 117 -20 117 -11 0 -20 -7
-20 -15 0 -14 -3 -14 -30 0 -35 18 -57 19 -90 2z m109 -63 c36 -79 -18 -168
-86 -143 -40 15 -56 83 -33 144 19 50 96 50 119 -1z"/>
<path d="M23442 7638 c22 -62 43 -127 45 -144 5 -35 -17 -64 -48 -64 -10 0
-19 -6 -19 -14 0 -39 63 -30 84 12 14 29 116 304 116 315 0 4 -8 7 -18 7 -14
0 -25 -23 -51 -101 -18 -55 -36 -98 -39 -94 -4 3 -21 48 -38 98 -25 75 -35 93
-52 95 -21 3 -20 -1 20 -110z"/>
<path d="M19410 7715 c0 -18 5 -25 20 -25 15 0 20 7 20 25 0 18 -5 25 -20 25
-15 0 -20 -7 -20 -25z"/>
<path d="M19410 7515 c0 -18 5 -25 20 -25 15 0 20 7 20 25 0 18 -5 25 -20 25
-15 0 -20 -7 -20 -25z"/>
<path d="M28310 16006 c0 -3 1382 -1691 3071 -3751 1688 -2061 3072 -3752
3075 -3759 3 -9 -26 -20 -96 -36 -56 -12 -98 -26 -93 -30 4 -5 94 -47 198 -94
l190 -85 -1297 -1 -1298 0 0 -305 0 -305 -185 93 c-155 77 -187 90 -195 77 -8
-12 20 -30 150 -95 88 -44 160 -82 160 -85 0 -3 -72 -41 -160 -85 -130 -65
-158 -83 -150 -95 8 -13 40 0 195 77 l185 93 0 -305 0 -305 3315 0 3315 0 0
620 0 620 -1994 0 -1994 0 -25 108 c-14 59 -37 162 -53 229 -15 67 -30 121
-33 119 -3 -3 -24 -45 -46 -95 -22 -50 -43 -90 -48 -88 -4 1 -1387 1685 -3073
3742 -2369 2890 -3071 3741 -3090 3743 -13 2 -24 1 -24 -2z m10340 -8376 l0
-580 -3275 0 -3275 0 0 580 0 580 3275 0 3275 0 0 -580z"/>
<path d="M33233 7821 c-71 -33 -101 -110 -81 -206 19 -89 93 -138 185 -120 39
7 103 62 103 88 0 23 -38 28 -45 6 -17 -51 -96 -74 -154 -44 -71 36 -67 211 5
244 14 6 42 11 64 11 32 0 44 -6 67 -34 19 -23 33 -32 45 -27 17 6 16 8 -2 39
-36 59 -112 77 -187 43z"/>
<path d="M34430 7665 c0 -168 1 -175 20 -175 19 0 20 7 20 175 0 168 -1 175
-20 175 -19 0 -20 -7 -20 -175z"/>
<path d="M36601 7827 c-41 -21 -64 -60 -56 -96 8 -39 34 -56 120 -80 79 -22
100 -39 92 -73 -17 -66 -166 -60 -183 7 -7 28 -44 35 -44 9 0 -74 117 -126
203 -91 41 18 57 37 64 79 8 54 -25 85 -117 108 -67 17 -100 38 -100 62 0 24
43 48 85 48 44 0 85 -24 85 -50 0 -5 9 -10 20 -10 24 0 26 18 4 49 -32 45
-121 65 -173 38z"/>
<path d="M35757 7813 c-4 -3 -7 -19 -7 -35 0 -18 -5 -28 -15 -28 -8 0 -15 -6
-15 -14 0 -8 7 -16 15 -20 12 -4 15 -26 15 -105 0 -89 2 -101 19 -111 33 -17
61 -12 61 10 0 13 -7 20 -20 20 -19 0 -20 7 -20 91 0 82 2 91 20 96 11 3 20
12 20 19 0 8 -9 14 -20 14 -16 0 -20 7 -20 35 0 33 -16 46 -33 28z"/>
<path d="M36877 7813 c-4 -3 -7 -19 -7 -35 0 -18 -5 -28 -15 -28 -8 0 -15 -6
-15 -14 0 -8 7 -16 15 -20 12 -4 15 -26 15 -105 0 -89 2 -101 19 -111 33 -17
61 -12 61 10 0 13 -7 20 -20 20 -19 0 -20 7 -20 91 0 82 2 91 20 96 11 3 20
12 20 19 0 8 -9 14 -20 14 -16 0 -20 7 -20 35 0 33 -16 46 -33 28z"/>
<path d="M37437 7813 c-4 -3 -7 -19 -7 -35 0 -18 -5 -28 -15 -28 -8 0 -15 -6
-15 -14 0 -8 7 -16 15 -20 12 -4 15 -26 15 -105 0 -89 2 -101 19 -111 33 -17
61 -12 61 10 0 13 -7 20 -20 20 -19 0 -20 7 -20 91 0 82 2 91 20 96 11 3 20
12 20 19 0 8 -9 14 -20 14 -16 0 -20 7 -20 35 0 33 -16 46 -33 28z"/>
<path d="M32510 7620 c0 -123 1 -130 20 -130 19 0 20 7 20 89 0 101 15 134 63
134 50 0 57 -16 57 -124 0 -92 1 -99 20 -99 19 0 20 7 20 103 0 76 -4 108 -15
124 -21 30 -74 39 -114 19 -27 -15 -31 -15 -31 -1 0 8 -9 15 -20 15 -19 0 -20
-7 -20 -130z"/>
<path d="M32820 7743 c-50 -20 -66 -75 -32 -106 10 -10 41 -24 69 -32 61 -18
78 -35 60 -58 -24 -31 -101 -22 -112 13 -7 22 -13 24 -32 12 -17 -11 5 -53 37
-70 32 -17 105 -9 130 13 25 23 26 76 3 98 -10 8 -44 23 -75 32 -45 13 -58 21
-58 36 0 22 40 42 67 32 10 -3 25 -15 34 -26 17 -20 39 -16 39 7 0 34 -86 67
-130 49z"/>
<path d="M33544 7735 c-42 -21 -59 -57 -58 -119 0 -65 24 -102 74 -117 46 -14
80 -7 117 25 26 22 28 30 28 95 0 63 -3 73 -26 97 -33 32 -92 41 -135 19z
m116 -55 c6 -10 10 -37 10 -60 0 -53 -12 -75 -49 -88 -35 -12 -70 3 -88 38
-38 75 18 163 88 138 16 -6 34 -18 39 -28z"/>
<path d="M33760 7620 c0 -121 1 -130 19 -130 17 0 19 9 23 95 2 71 7 98 20
111 20 20 67 22 79 3 5 -8 9 -58 9 -111 0 -91 1 -98 20 -98 19 0 20 7 20 93 0
77 3 97 18 109 28 24 48 28 71 12 19 -14 21 -25 21 -115 0 -94 1 -99 21 -99
20 0 21 4 17 111 -3 104 -5 112 -28 131 -28 22 -80 20 -109 -6 -14 -13 -19
-12 -40 5 -28 23 -52 24 -91 4 -27 -14 -30 -14 -30 0 0 8 -9 15 -20 15 -19 0
-20 -7 -20 -130z"/>
<path d="M34160 7570 c0 -173 1 -180 20 -180 18 0 20 7 20 66 l0 65 22 -15
c79 -56 176 49 147 157 -18 68 -75 102 -127 76 -15 -7 -30 -15 -34 -17 -5 -2
-8 3 -8 12 0 9 -8 16 -20 16 -19 0 -20 -7 -20 -180z m157 118 c27 -30 25 -111
-4 -139 -49 -49 -114 -12 -112 65 1 54 10 75 39 91 28 15 53 10 77 -17z"/>
<path d="M34594 7740 c-42 -17 -64 -58 -64 -121 0 -51 4 -63 29 -91 26 -29 36
-33 79 -33 51 0 82 17 103 58 18 32 -20 34 -45 2 -17 -21 -31 -28 -55 -27 -39
1 -56 14 -70 53 l-10 29 95 0 94 0 0 25 c0 79 -83 135 -156 105z m99 -52 c27
-32 16 -43 -51 -46 -67 -3 -88 12 -61 44 31 38 80 38 112 2z"/>
<path d="M34800 7620 c0 -121 1 -130 19 -130 17 0 19 9 23 95 2 71 7 98 20
111 20 20 67 22 79 3 5 -8 9 -58 9 -111 0 -91 1 -98 20 -98 18 0 20 7 20 88 0
93 12 125 49 135 11 2 29 -2 40 -10 19 -13 21 -24 21 -114 0 -92 1 -99 20 -99
19 0 20 7 20 98 0 109 -11 142 -54 157 -22 7 -35 5 -65 -11 -37 -20 -39 -20
-61 -2 -27 22 -52 23 -90 3 -27 -14 -30 -14 -30 0 0 8 -9 15 -20 15 -19 0 -20
-7 -20 -130z"/>
<path d="M35244 7731 c-34 -21 -54 -65 -54 -118 0 -94 89 -150 170 -108 32 16
55 50 45 65 -10 17 -33 11 -40 -9 -7 -24 -53 -41 -81 -30 -24 8 -54 46 -54 66
0 10 25 13 95 13 52 0 95 3 95 8 0 28 -24 82 -44 101 -34 32 -93 37 -132 12z
m121 -52 c10 -31 -3 -39 -64 -39 -65 0 -71 3 -63 32 12 47 113 53 127 7z"/>
<path d="M35470 7620 c0 -123 1 -130 20 -130 19 0 20 7 20 89 0 101 15 134 63
134 50 0 57 -16 57 -124 0 -92 1 -99 20 -99 19 0 20 7 20 105 0 99 -2 107 -25
130 -28 29 -63 32 -105 10 -27 -14 -30 -14 -30 0 0 8 -9 15 -20 15 -19 0 -20
-7 -20 -130z"/>
<path d="M35914 7736 c-35 -15 -50 -44 -34 -60 8 -8 16 -4 29 12 33 45 126 27
119 -22 -2 -17 -14 -23 -66 -32 -72 -13 -102 -35 -102 -75 0 -67 67 -84 168
-43 6 3 12 -1 12 -10 0 -10 9 -16 21 -16 15 0 19 4 15 16 -3 9 -6 55 -6 104 0
69 -4 92 -18 110 -22 28 -94 36 -138 16z m116 -149 c0 -43 -59 -74 -106 -57
-26 10 -33 43 -12 56 13 8 69 21 101 23 12 1 17 -6 17 -22z"/>
<path d="M36140 7620 c0 -123 1 -130 20 -130 19 0 20 7 20 91 0 105 9 129 49
129 37 0 50 27 17 36 -13 3 -34 0 -47 -7 -17 -9 -24 -9 -27 0 -2 6 -10 11 -18
11 -11 0 -14 -25 -14 -130z"/>
<path d="M36280 7744 c0 -4 20 -63 45 -131 41 -111 44 -127 33 -151 -9 -18
-22 -28 -41 -30 -21 -3 -27 -8 -23 -19 3 -8 6 -17 6 -19 0 -2 9 -4 19 -4 33 0
61 33 87 105 99 272 95 255 75 255 -15 0 -26 -19 -47 -77 -15 -43 -32 -89 -37
-103 -8 -22 -13 -14 -44 78 -28 82 -38 102 -54 102 -10 0 -19 -3 -19 -6z"/>
<path d="M36990 7620 c0 -123 1 -130 20 -130 18 0 20 7 20 84 0 110 9 134 52
138 21 2 33 8 33 18 0 22 -43 25 -66 4 -17 -16 -19 -16 -19 -1 0 10 -8 17 -20
17 -19 0 -20 -7 -20 -130z"/>
<path d="M37194 7736 c-35 -15 -50 -44 -34 -60 8 -8 15 -6 24 6 35 48 121 39
121 -12 0 -23 -6 -26 -63 -36 -34 -6 -71 -19 -82 -29 -29 -26 -26 -69 6 -94
32 -25 62 -26 111 -6 19 8 37 15 39 15 2 0 4 -7 4 -15 0 -8 8 -15 18 -15 15 0
17 11 14 107 -3 88 -7 111 -22 127 -23 24 -96 30 -136 12z m116 -149 c0 -43
-59 -74 -106 -57 -26 10 -33 43 -12 56 13 8 69 21 101 23 12 1 17 -6 17 -22z"/>
<path d="M37594 7731 c-17 -11 -36 -34 -43 -52 -43 -123 53 -229 159 -174 32
16 55 50 45 65 -10 17 -33 11 -40 -9 -7 -24 -53 -41 -81 -30 -24 8 -54 46 -54
66 0 10 25 13 96 13 l96 0 -6 28 c-24 102 -95 140 -172 93z m121 -52 c4 -10 3
-23 0 -29 -7 -11 -117 -14 -128 -4 -11 12 16 53 42 62 33 11 78 -4 86 -29z"/>
<path d="M37859 7735 c-73 -39 -72 -192 2 -230 35 -19 57 -19 92 -1 26 14 27
14 27 -13 0 -59 -78 -86 -123 -43 -27 26 -47 28 -47 7 0 -21 34 -53 65 -61 39
-10 90 4 116 32 23 24 24 33 27 175 3 145 3 149 -17 149 -12 0 -21 -6 -21 -14
0 -13 -4 -13 -27 0 -35 17 -61 17 -94 -1z m106 -48 c21 -30 19 -110 -3 -137
-40 -49 -110 -16 -118 56 -11 88 76 146 121 81z"/>
<path d="M38070 7742 c0 -5 20 -64 45 -131 40 -110 44 -126 33 -149 -9 -18
-23 -28 -41 -30 -32 -4 -35 -34 -4 -40 38 -8 64 25 102 130 21 57 48 131 61
166 l24 63 -22 -3 c-17 -2 -27 -20 -52 -95 -17 -50 -34 -94 -37 -97 -3 -3 -21
39 -40 94 -26 75 -38 100 -51 100 -10 0 -18 -4 -18 -8z"/>
<path d="M33030 7715 c0 -18 5 -25 20 -25 15 0 20 7 20 25 0 18 -5 25 -20 25
-15 0 -20 -7 -20 -25z"/>
<path d="M33030 7515 c0 -18 5 -25 20 -25 15 0 20 7 20 25 0 18 -5 25 -20 25
-15 0 -20 -7 -20 -25z"/>
<path d="M6030 15920 c0 -53 2 -60 20 -60 18 0 20 7 20 60 0 53 -2 60 -20 60
-18 0 -20 -7 -20 -60z"/>
<path d="M6110 15800 c0 -18 7 -20 60 -20 53 0 60 2 60 20 0 18 -7 20 -60 20
-53 0 -60 -2 -60 -20z"/>
<path d="M6350 15800 c0 -18 7 -20 60 -20 53 0 60 2 60 20 0 18 -7 20 -60 20
-53 0 -60 -2 -60 -20z"/>
<path d="M6590 15800 c0 -18 7 -20 60 -20 53 0 60 2 60 20 0 18 -7 20 -60 20
-53 0 -60 -2 -60 -20z"/>
<path d="M6830 15800 c0 -18 7 -20 60 -20 53 0 60 2 60 20 0 18 -7 20 -60 20
-53 0 -60 -2 -60 -20z"/>
<path d="M7070 15800 c0 -18 7 -20 60 -20 53 0 60 2 60 20 0 18 -7 20 -60 20
-53 0 -60 -2 -60 -20z"/>
<path d="M7310 15800 c0 -18 7 -20 60 -20 53 0 60 2 60 20 0 18 -7 20 -60 20
-53 0 -60 -2 -60 -20z"/>
<path d="M7550 15800 c0 -18 7 -20 60 -20 53 0 60 2 60 20 0 18 -7 20 -60 20
-53 0 -60 -2 -60 -20z"/>
<path d="M7790 15800 c0 -18 7 -20 60 -20 53 0 60 2 60 20 0 18 -7 20 -60 20
-53 0 -60 -2 -60 -20z"/>
<path d="M8030 15800 c0 -18 7 -20 60 -20 53 0 60 2 60 20 0 18 -7 20 -60 20
-53 0 -60 -2 -60 -20z"/>
<path d="M8270 15800 c0 -18 7 -20 60 -20 53 0 60 2 60 20 0 18 -7 20 -60 20
-53 0 -60 -2 -60 -20z"/>
<path d="M8510 15800 c0 -18 7 -20 60 -20 53 0 60 2 60 20 0 18 -7 20 -60 20
-53 0 -60 -2 -60 -20z"/>
<path d="M8750 15800 c0 -18 7 -20 60 -20 53 0 60 2 60 20 0 18 -7 20 -60 20
-53 0 -60 -2 -60 -20z"/>
<path d="M8990 15800 c0 -18 7 -20 60 -20 53 0 60 2 60 20 0 18 -7 20 -60 20
-53 0 -60 -2 -60 -20z"/>
<path d="M9230 15800 c0 -18 7 -20 60 -20 53 0 60 2 60 20 0 18 -7 20 -60 20
-53 0 -60 -2 -60 -20z"/>
<path d="M9470 15800 c0 -18 7 -20 60 -20 53 0 60 2 60 20 0 18 -7 20 -60 20
-53 0 -60 -2 -60 -20z"/>
<path d="M9710 15800 c0 -18 7 -20 60 -20 53 0 60 2 60 20 0 18 -7 20 -60 20
-53 0 -60 -2 -60 -20z"/>
<path d="M9950 15800 c0 -18 7 -20 60 -20 53 0 60 2 60 20 0 18 -7 20 -60 20
-53 0 -60 -2 -60 -20z"/>
<path d="M26440 7625 c0 -168 1 -175 20 -175 19 0 20 7 20 175 0 168 -1 175
-20 175 -19 0 -20 -7 -20 -175z"/>
<path d="M27860 7625 c0 -168 1 -175 20 -175 19 0 20 7 20 175 0 168 -1 175
-20 175 -19 0 -20 -7 -20 -175z"/>
<path d="M29385 7786 c-69 -31 -103 -101 -92 -193 12 -112 127 -174 229 -124
60 29 88 79 88 158 0 65 -21 109 -72 146 -34 25 -113 32 -153 13z m134 -42
c29 -21 51 -72 51 -119 0 -47 -22 -98 -51 -119 -27 -19 -87 -21 -123 -4 -79
35 -87 193 -13 238 39 24 104 26 136 4z"/>
<path d="M29700 7780 c-11 -11 -20 -31 -20 -45 0 -16 -6 -25 -15 -25 -8 0 -15
-6 -15 -14 0 -8 7 -16 15 -20 12 -4 15 -27 15 -116 0 -103 1 -110 20 -110 18
0 20 8 22 113 3 108 4 112 26 115 31 5 28 32 -4 32 -21 0 -25 4 -22 23 2 15
11 23 28 26 26 3 42 19 34 33 -10 16 -64 8 -84 -12z"/>
<path d="M29183 7773 c-7 -2 -13 -18 -13 -34 0 -19 -5 -29 -15 -29 -8 0 -15
-6 -15 -14 0 -8 7 -16 15 -20 12 -4 15 -24 15 -93 0 -103 14 -133 61 -133 37
0 40 26 4 40 -24 9 -25 13 -25 96 0 77 2 86 20 91 11 3 20 12 20 19 0 8 -9 14
-20 14 -16 0 -20 7 -20 35 0 35 -3 38 -27 28z"/>
<path d="M25363 7683 c-136 -60 -136 -69 1 -122 116 -45 126 -48 126 -27 0 9
-33 27 -85 47 -47 18 -85 35 -85 39 0 4 37 23 83 42 46 21 83 43 85 52 5 24
-13 19 -125 -31z"/>
<path d="M25643 7683 c-136 -60 -136 -69 1 -122 116 -45 126 -48 126 -27 0 9
-33 27 -85 47 -47 18 -85 35 -85 39 0 4 37 23 83 42 46 21 83 43 85 52 5 24
-13 19 -125 -31z"/>
<path d="M29802 7714 c2 -9 39 -31 86 -52 45 -19 82 -38 82 -41 0 -3 -38 -21
-85 -39 -51 -20 -85 -39 -85 -48 0 -20 14 -17 120 25 83 32 95 40 95 61 0 20
-14 30 -95 66 -105 47 -123 52 -118 28z"/>
<path d="M30082 7714 c2 -9 39 -31 86 -52 45 -19 82 -38 82 -41 0 -3 -38 -21
-85 -39 -51 -20 -85 -39 -85 -48 0 -20 14 -17 120 25 83 32 95 40 95 61 0 20
-14 30 -95 66 -105 47 -123 52 -118 28z"/>
<path d="M25873 7694 c-79 -40 -77 -191 4 -229 49 -24 100 -14 136 25 23 26
27 39 27 90 0 51 -4 64 -27 90 -35 39 -92 49 -140 24z m112 -47 c21 -30 19
-110 -3 -136 -23 -30 -76 -31 -105 -3 -25 26 -29 110 -7 137 31 37 90 38 115
2z"/>
<path d="M26070 7702 c0 -5 16 -62 35 -128 19 -65 35 -120 35 -122 0 -2 10 -2
22 0 19 3 25 16 44 91 12 49 24 91 27 93 3 3 15 -38 28 -90 20 -83 26 -96 44
-96 18 0 26 17 59 126 20 69 35 128 32 131 -16 16 -34 -14 -55 -88 -13 -46
-27 -88 -31 -92 -5 -5 -18 35 -30 88 -20 87 -24 96 -43 93 -18 -2 -25 -19 -46
-95 -13 -51 -27 -93 -31 -93 -3 0 -16 43 -29 95 -19 79 -26 95 -42 95 -10 0
-19 -4 -19 -8z"/>
<path d="M26735 7701 c-45 -19 -60 -49 -60 -121 0 -58 4 -72 24 -94 30 -32 81
-43 122 -26 31 13 65 63 54 80 -11 18 -33 10 -39 -14 -7 -28 -51 -47 -83 -35
-30 11 -43 39 -43 92 0 69 39 103 98 83 12 -4 22 -10 22 -14 1 -18 18 -32 33
-26 13 5 14 10 4 31 -19 43 -82 64 -132 44z"/>
<path d="M26974 7701 c-42 -18 -64 -59 -64 -122 0 -51 4 -63 29 -91 26 -29 35
-33 80 -33 41 0 55 5 76 26 50 49 51 148 2 196 -26 27 -88 39 -123 24z m99
-49 c26 -23 24 -123 -3 -147 -27 -25 -80 -22 -102 6 -22 27 -24 106 -3 136 24
34 71 36 108 5z"/>
<path d="M27190 7580 c0 -123 1 -130 20 -130 19 0 20 7 20 93 0 77 3 97 18
109 30 26 51 29 72 8 17 -17 20 -34 20 -115 0 -88 1 -95 20 -95 19 0 20 7 20
93 0 104 11 130 54 130 44 0 51 -16 54 -123 3 -78 7 -100 18 -100 11 0 14 22
14 110 0 97 -2 112 -20 130 -25 25 -71 26 -101 1 -23 -19 -24 -19 -48 0 -28
23 -70 25 -97 4 -25 -19 -34 -19 -34 0 0 8 -7 15 -15 15 -13 0 -15 -21 -15
-130z"/>
<path d="M27590 7530 c0 -173 1 -180 20 -180 18 0 20 7 20 65 l0 65 26 -16
c38 -25 91 -9 122 36 20 30 23 44 20 94 -4 51 -9 63 -36 87 -36 32 -77 37
-108 14 -25 -19 -34 -19 -34 0 0 8 -7 15 -15 15 -13 0 -15 -27 -15 -180z m155
117 c21 -30 19 -110 -3 -137 -36 -44 -103 -20 -116 40 -18 92 72 165 119 97z"/>
<path d="M28009 7695 c-31 -17 -59 -71 -59 -114 0 -84 57 -138 134 -128 62 9
112 76 64 85 -9 2 -19 -5 -22 -16 -15 -47 -87 -47 -120 0 -31 43 -23 48 80 48
l96 0 -7 36 c-3 21 -13 47 -21 59 -28 43 -95 57 -145 30z m119 -60 c6 -12 8
-26 5 -29 -4 -3 -34 -6 -68 -6 -34 0 -64 3 -68 6 -3 3 -1 17 5 30 22 48 104
48 126 -1z"/>
<path d="M28230 7580 c0 -123 1 -130 20 -130 18 0 20 7 20 88 0 94 12 125 50
135 14 3 29 -2 41 -14 16 -16 19 -34 19 -114 0 -88 1 -95 20 -95 19 0 20 7 20
93 0 104 11 130 54 130 44 0 51 -16 54 -123 3 -78 7 -100 18 -100 11 0 14 22
14 110 0 97 -2 112 -20 130 -25 25 -71 26 -101 1 -23 -19 -24 -19 -48 0 -28
23 -56 24 -93 5 -24 -13 -28 -13 -28 0 0 8 -9 14 -20 14 -19 0 -20 -7 -20
-130z"/>
<path d="M28685 7701 c-42 -18 -59 -50 -63 -115 -4 -58 -2 -66 24 -95 52 -57
148 -51 180 11 13 26 13 29 -2 35 -10 4 -24 -4 -38 -22 -40 -50 -126 -25 -126
36 0 17 8 19 91 19 l92 0 -6 42 c-7 53 -42 88 -93 94 -21 2 -48 0 -59 -5z
m101 -52 c29 -33 11 -49 -55 -49 -67 0 -80 10 -57 45 24 37 80 39 112 4z"/>
<path d="M28900 7580 c0 -123 1 -130 20 -130 19 0 20 7 20 93 0 101 4 112 40
125 62 22 80 -9 80 -134 0 -77 2 -84 20 -84 18 0 20 7 20 89 0 48 -5 102 -10
118 -17 48 -85 69 -126 38 -25 -19 -34 -19 -34 0 0 8 -7 15 -15 15 -13 0 -15
-21 -15 -130z"/>
<path d="M26560 7675 c0 -20 5 -25 25 -25 20 0 25 5 25 25 0 20 -5 25 -25 25
-20 0 -25 -5 -25 -25z"/>
<path d="M24100 7630 c0 -18 7 -20 60 -20 53 0 60 2 60 20 0 18 -7 20 -60 20
-53 0 -60 -2 -60 -20z"/>
<path d="M24340 7630 c0 -18 7 -20 60 -20 53 0 60 2 60 20 0 18 -7 20 -60 20
-53 0 -60 -2 -60 -20z"/>
<path d="M24580 7630 c0 -18 7 -20 60 -20 53 0 60 2 60 20 0 18 -7 20 -60 20
-53 0 -60 -2 -60 -20z"/>
<path d="M24820 7630 c0 -18 7 -20 60 -20 53 0 60 2 60 20 0 18 -7 20 -60 20
-53 0 -60 -2 -60 -20z"/>
<path d="M25060 7630 c0 -18 7 -20 60 -20 53 0 60 2 60 20 0 18 -7 20 -60 20
-53 0 -60 -2 -60 -20z"/>
<path d="M30340 7630 c0 -18 7 -20 60 -20 53 0 60 2 60 20 0 18 -7 20 -60 20
-53 0 -60 -2 -60 -20z"/>
<path d="M30580 7630 c0 -18 7 -20 60 -20 53 0 60 2 60 20 0 18 -7 20 -60 20
-53 0 -60 -2 -60 -20z"/>
<path d="M30820 7630 c0 -18 7 -20 60 -20 53 0 60 2 60 20 0 18 -7 20 -60 20
-53 0 -60 -2 -60 -20z"/>
<path d="M31060 7630 c0 -18 7 -20 60 -20 53 0 60 2 60 20 0 18 -7 20 -60 20
-53 0 -60 -2 -60 -20z"/>
<path d="M31300 7630 c0 -18 7 -20 60 -20 53 0 60 2 60 20 0 18 -7 20 -60 20
-53 0 -60 -2 -60 -20z"/>
<path d="M31540 7630 c0 -18 7 -20 60 -20 53 0 60 2 60 20 0 18 -7 20 -60 20
-53 0 -60 -2 -60 -20z"/>
<path d="M31780 7630 c0 -18 7 -20 60 -20 53 0 60 2 60 20 0 18 -7 20 -60 20
-53 0 -60 -2 -60 -20z"/>
<path d="M26560 7475 c0 -20 5 -25 25 -25 20 0 25 5 25 25 0 20 -5 25 -25 25
-20 0 -25 -5 -25 -25z"/>
<path d="M9480 6745 l0 -305 -141 71 c-130 65 -169 76 -169 49 0 -5 52 -36
115 -67 63 -32 115 -60 115 -63 0 -3 -52 -31 -115 -63 -63 -31 -115 -62 -115
-67 0 -27 39 -16 169 49 l141 71 0 -305 0 -305 2600 0 2600 0 0 620 0 620
-2600 0 -2600 0 0 -305z m5160 -315 l0 -580 -2560 0 -2560 0 0 580 0 580 2560
0 2560 0 0 -580z"/>
<path d="M10490 6620 c0 -18 7 -20 55 -20 l55 0 0 -155 c0 -148 1 -155 20
-155 19 0 20 7 20 155 l0 155 60 0 c53 0 60 2 60 20 0 19 -7 20 -135 20 -128
0 -135 -1 -135 -20z"/>
<path d="M11250 6465 c0 -168 1 -175 20 -175 18 0 20 7 20 79 0 44 4 91 10
106 13 35 55 50 86 30 23 -15 24 -21 24 -115 0 -93 1 -100 20 -100 19 0 20 7
20 109 0 106 -1 110 -26 130 -32 25 -64 27 -104 6 l-30 -16 0 61 c0 53 -2 60
-20 60 -19 0 -20 -7 -20 -175z"/>
<path d="M12050 6465 c0 -168 1 -175 20 -175 19 0 20 7 20 175 0 168 -1 175
-20 175 -19 0 -20 -7 -20 -175z"/>
<path d="M12993 6625 c-36 -15 -53 -42 -53 -83 0 -40 34 -68 110 -88 75 -20
100 -38 100 -70 0 -31 -36 -54 -85 -54 -47 0 -82 21 -96 57 -11 30 -46 28 -41
-2 11 -62 75 -100 155 -92 65 6 107 45 107 99 0 50 -24 73 -97 93 -107 29
-134 55 -97 96 33 36 144 16 144 -27 0 -8 9 -14 20 -14 11 0 20 7 20 16 0 66
-105 105 -187 69z"/>
<path d="M13783 6613 c-7 -2 -13 -18 -13 -34 0 -19 -5 -29 -15 -29 -8 0 -15
-6 -15 -14 0 -8 7 -16 15 -20 12 -4 15 -25 15 -100 0 -105 10 -126 60 -126 23
0 27 3 23 20 -3 11 -14 20 -24 20 -17 0 -19 9 -19 91 0 82 2 91 20 96 11 3 20
12 20 19 0 8 -9 14 -20 14 -16 0 -20 7 -20 35 0 35 -3 38 -27 28z"/>
<path d="M9870 6420 c0 -123 1 -130 20 -130 19 0 20 7 20 93 0 50 4 97 8 103
15 23 50 34 75 25 30 -12 37 -35 37 -138 0 -76 2 -83 20 -83 18 0 20 7 20 89
0 48 -5 102 -10 118 -17 48 -85 69 -126 38 -25 -19 -34 -19 -34 0 0 8 -7 15
-15 15 -13 0 -15 -21 -15 -130z"/>
<path d="M10164 6538 c-33 -16 -47 -54 -32 -86 10 -19 29 -31 78 -46 51 -17
65 -25 65 -41 0 -48 -100 -52 -112 -4 -6 20 -33 23 -40 3 -7 -20 38 -63 72
-70 45 -8 80 1 105 28 45 48 16 96 -74 122 -78 23 -88 55 -24 71 21 5 33 1 53
-19 27 -27 40 -32 49 -17 10 16 -5 41 -35 56 -32 17 -74 18 -105 3z"/>
<path d="M10801 6537 c-59 -30 -86 -127 -52 -190 19 -36 75 -61 119 -53 36 5
82 40 82 62 0 26 -23 26 -44 -1 -40 -49 -117 -31 -129 31 l-4 24 93 0 c88 0
94 1 94 20 0 85 -88 144 -159 107z m102 -49 c28 -33 16 -43 -56 -46 -60 -3
-67 -1 -67 16 0 19 24 45 50 55 23 8 53 -2 73 -25z"/>
<path d="M11054 6531 c-96 -60 -54 -241 56 -241 50 0 109 53 96 86 -8 22 -26
17 -36 -11 -11 -29 -48 -46 -79 -38 -43 11 -64 92 -40 147 22 48 99 52 114 6
4 -12 13 -20 23 -18 25 5 25 24 0 53 -31 36 -91 43 -134 16z"/>
<path d="M11520 6420 c0 -123 1 -130 20 -130 19 0 20 7 20 93 0 104 13 130 66
130 43 0 54 -26 54 -130 0 -86 1 -93 20 -93 19 0 20 7 20 98 0 58 -5 107 -13
122 -18 36 -74 48 -117 26 -40 -20 -40 -20 -40 -1 0 8 -7 15 -15 15 -13 0 -15
-21 -15 -130z"/>
<path d="M11832 6535 c-80 -35 -82 -189 -3 -229 85 -44 171 13 171 114 0 52
-22 96 -60 115 -36 18 -65 19 -108 0z m118 -55 c6 -10 10 -37 10 -60 0 -53
-12 -75 -49 -88 -97 -34 -144 142 -47 177 27 10 73 -6 86 -29z"/>
<path d="M12214 6541 c-42 -18 -64 -59 -64 -122 0 -50 4 -63 28 -89 57 -64
157 -45 188 35 21 55 13 105 -24 146 -29 33 -89 47 -128 30z m101 -52 c28 -28
27 -112 -3 -141 -29 -29 -80 -28 -104 1 -20 26 -25 100 -7 132 22 41 75 45
114 8z"/>
<path d="M12464 6531 c-38 -23 -59 -77 -51 -134 11 -83 76 -125 143 -94 34 17
34 17 34 -7 0 -13 -8 -34 -19 -47 -24 -30 -84 -30 -112 0 -38 41 -55 13 -20
-30 16 -20 28 -24 75 -24 47 0 60 4 83 28 28 27 28 29 31 177 4 147 3 150 -17
150 -12 0 -21 -6 -21 -15 0 -14 -3 -14 -30 0 -38 20 -58 19 -96 -4z m85 -26
c34 -17 41 -33 41 -86 0 -50 -14 -77 -46 -89 -66 -25 -119 65 -83 144 9 19 36
41 57 45 2 1 16 -6 31 -14z"/>
<path d="M12712 6438 c22 -62 43 -127 45 -144 5 -35 -17 -64 -48 -64 -10 0
-19 -6 -19 -14 0 -39 63 -30 84 12 14 29 116 304 116 315 0 4 -8 7 -18 7 -14
0 -25 -23 -51 -101 -18 -55 -36 -98 -39 -94 -4 3 -21 48 -38 98 -25 75 -35 93
-52 95 -21 3 -20 -1 20 -110z"/>
<path d="M13294 6531 c-34 -21 -54 -64 -54 -118 0 -94 89 -150 170 -108 32 16
55 50 45 65 -10 16 -33 11 -40 -8 -14 -47 -87 -47 -119 0 -31 43 -23 48 80 48
l96 0 -6 28 c-24 102 -95 140 -172 93z m118 -44 c4 -7 8 -20 8 -29 0 -15 -10
-18 -63 -18 -35 0 -66 3 -70 6 -11 12 16 53 42 62 28 10 70 -1 83 -21z"/>
<path d="M13568 6534 c-78 -42 -77 -188 2 -229 36 -19 63 -19 99 -1 28 15 56
61 46 77 -12 18 -33 9 -39 -16 -12 -49 -90 -53 -115 -6 -18 32 -13 106 7 132
33 39 98 26 114 -23 2 -5 11 -6 20 -3 16 6 16 9 2 36 -24 48 -84 62 -136 33z"/>
<path d="M13932 6530 c-41 -25 -55 -61 -49 -129 3 -44 9 -59 31 -78 36 -31 70
-38 117 -24 45 14 69 44 76 99 15 115 -82 188 -175 132z m113 -40 c9 -10 19
-36 21 -57 9 -71 -40 -121 -97 -101 -36 13 -49 35 -49 87 0 55 8 71 43 86 35
15 59 10 82 -15z"/>
<path d="M14160 6420 c0 -121 1 -130 19 -130 17 0 19 9 23 100 1 54 8 104 14
110 6 6 24 12 40 13 18 2 29 8 29 17 0 22 -44 24 -66 4 -17 -16 -19 -16 -19
-1 0 10 -8 17 -20 17 -19 0 -20 -7 -20 -130z"/>
<path d="M10390 6515 c0 -18 5 -25 20 -25 15 0 20 7 20 25 0 18 -5 25 -20 25
-15 0 -20 -7 -20 -25z"/>
<path d="M10390 6315 c0 -18 5 -25 20 -25 15 0 20 7 20 25 0 18 -5 25 -20 25
-15 0 -20 -7 -20 -25z"/>
<path d="M9830 6230 c0 -20 7 -20 1280 -20 1273 0 1280 0 1280 20 0 20 -7 20
-1280 20 -1273 0 -1280 0 -1280 -20z"/>
<path d="M12820 6230 c0 -20 7 -20 735 -20 728 0 735 0 735 20 0 20 -7 20
-735 20 -728 0 -735 0 -735 -20z"/>
<path d="M5630 6420 c0 -23 4 -30 20 -30 11 0 20 5 20 10 0 6 14 10 30 10 23
0 30 4 30 20 0 17 -7 20 -50 20 -49 0 -50 -1 -50 -30z"/>
<path d="M5850 6430 c0 -18 7 -20 60 -20 53 0 60 2 60 20 0 18 -7 20 -60 20
-53 0 -60 -2 -60 -20z"/>
<path d="M6090 6430 c0 -18 7 -20 60 -20 53 0 60 2 60 20 0 18 -7 20 -60 20
-53 0 -60 -2 -60 -20z"/>
<path d="M6330 6430 c0 -18 7 -20 60 -20 53 0 60 2 60 20 0 18 -7 20 -60 20
-53 0 -60 -2 -60 -20z"/>
<path d="M6570 6430 c0 -18 7 -20 60 -20 53 0 60 2 60 20 0 18 -7 20 -60 20
-53 0 -60 -2 -60 -20z"/>
<path d="M6810 6430 c0 -18 7 -20 60 -20 53 0 60 2 60 20 0 18 -7 20 -60 20
-53 0 -60 -2 -60 -20z"/>
<path d="M7050 6430 c0 -18 7 -20 60 -20 53 0 60 2 60 20 0 18 -7 20 -60 20
-53 0 -60 -2 -60 -20z"/>
<path d="M7290 6430 c0 -18 7 -20 60 -20 53 0 60 2 60 20 0 18 -7 20 -60 20
-53 0 -60 -2 -60 -20z"/>
<path d="M7530 6430 c0 -18 7 -20 60 -20 53 0 60 2 60 20 0 18 -7 20 -60 20
-53 0 -60 -2 -60 -20z"/>
<path d="M7770 6430 c0 -18 7 -20 60 -20 53 0 60 2 60 20 0 18 -7 20 -60 20
-53 0 -60 -2 -60 -20z"/>
<path d="M8010 6430 c0 -18 7 -20 60 -20 53 0 60 2 60 20 0 18 -7 20 -60 20
-53 0 -60 -2 -60 -20z"/>
<path d="M8250 6430 c0 -18 7 -20 60 -20 53 0 60 2 60 20 0 18 -7 20 -60 20
-53 0 -60 -2 -60 -20z"/>
<path d="M8490 6430 c0 -18 7 -20 60 -20 53 0 60 2 60 20 0 18 -7 20 -60 20
-53 0 -60 -2 -60 -20z"/>
<path d="M8730 6430 c0 -18 7 -20 60 -20 53 0 60 2 60 20 0 18 -7 20 -60 20
-53 0 -60 -2 -60 -20z"/>
<path d="M8970 6430 c0 -18 7 -20 60 -20 53 0 60 2 60 20 0 18 -7 20 -60 20
-53 0 -60 -2 -60 -20z"/>
<path d="M9210 6430 c0 -18 7 -20 60 -20 53 0 60 2 60 20 0 18 -7 20 -60 20
-53 0 -60 -2 -60 -20z"/>
<path d="M5630 6210 c0 -53 2 -60 20 -60 18 0 20 7 20 60 0 53 -2 60 -20 60
-18 0 -20 -7 -20 -60z"/>
<path d="M5630 5970 c0 -53 2 -60 20 -60 18 0 20 7 20 60 0 53 -2 60 -20 60
-18 0 -20 -7 -20 -60z"/>
<path d="M5630 5730 c0 -53 2 -60 20 -60 18 0 20 7 20 60 0 53 -2 60 -20 60
-18 0 -20 -7 -20 -60z"/>
<path d="M5630 5490 c0 -53 2 -60 20 -60 18 0 20 7 20 60 0 53 -2 60 -20 60
-18 0 -20 -7 -20 -60z"/>
<path d="M5630 5250 c0 -53 2 -60 20 -60 18 0 20 7 20 60 0 53 -2 60 -20 60
-18 0 -20 -7 -20 -60z"/>
<path d="M5630 5010 c0 -53 2 -60 20 -60 18 0 20 7 20 60 0 53 -2 60 -20 60
-18 0 -20 -7 -20 -60z"/>
<path d="M5630 4770 c0 -53 2 -60 20 -60 18 0 20 7 20 60 0 53 -2 60 -20 60
-18 0 -20 -7 -20 -60z"/>
<path d="M5630 4530 c0 -53 2 -60 20 -60 18 0 20 7 20 60 0 53 -2 60 -20 60
-18 0 -20 -7 -20 -60z"/>
<path d="M5630 2730 c0 -53 2 -60 20 -60 18 0 20 7 20 60 0 53 -2 60 -20 60
-18 0 -20 -7 -20 -60z"/>
<path d="M5630 2490 c0 -53 2 -60 20 -60 18 0 20 7 20 60 0 53 -2 60 -20 60
-18 0 -20 -7 -20 -60z"/>
<path d="M5630 2250 c0 -53 2 -60 20 -60 18 0 20 7 20 60 0 53 -2 60 -20 60
-18 0 -20 -7 -20 -60z"/>
<path d="M5630 2010 c0 -53 2 -60 20 -60 18 0 20 7 20 60 0 53 -2 60 -20 60
-18 0 -20 -7 -20 -60z"/>
<path d="M5630 1770 c0 -53 2 -60 20 -60 18 0 20 7 20 60 0 53 -2 60 -20 60
-18 0 -20 -7 -20 -60z"/>
<path d="M9480 1315 l0 -305 -141 71 c-130 65 -169 76 -169 49 0 -5 47 -34
105 -62 65 -33 105 -58 105 -68 0 -10 -40 -35 -105 -68 -58 -28 -105 -57 -105
-62 0 -27 39 -16 169 49 l141 71 0 -305 0 -305 2600 0 2600 0 0 620 0 620
-2600 0 -2600 0 0 -305z m5160 -315 l0 -580 -2560 0 -2560 0 0 580 0 580 2560
0 2560 0 0 -580z"/>
<path d="M10500 1025 c0 -168 1 -175 20 -175 18 0 20 7 20 85 l0 85 90 0 90 0
0 -85 c0 -84 0 -85 25 -85 l25 0 0 175 0 175 -25 0 c-24 0 -25 -2 -25 -70 l0
-70 -90 0 -90 0 0 70 c0 63 -2 70 -20 70 -19 0 -20 -7 -20 -175z"/>
<path d="M11370 1025 c0 -168 1 -175 20 -175 19 0 20 7 20 175 0 168 -1 175
-20 175 -19 0 -20 -7 -20 -175z"/>
<path d="M11610 1025 c0 -168 1 -175 20 -175 18 0 20 7 20 79 0 44 4 91 10
106 13 35 55 50 86 30 23 -15 24 -21 24 -115 0 -93 1 -100 20 -100 19 0 20 7
20 109 0 106 -1 110 -26 130 -32 25 -64 27 -104 6 l-30 -16 0 61 c0 53 -2 60
-20 60 -19 0 -20 -7 -20 -175z"/>
<path d="M13003 1184 c-39 -19 -60 -65 -47 -102 11 -31 53 -55 137 -77 44 -12
61 -22 70 -42 10 -23 8 -28 -16 -49 -49 -42 -140 -27 -160 26 -7 18 -19 30
-29 30 -21 0 -23 -18 -6 -54 37 -83 201 -87 243 -6 34 67 -4 116 -109 141 -28
6 -61 18 -73 25 -50 31 -11 84 60 84 30 0 45 -7 67 -30 34 -37 65 -41 54 -7
-10 32 -25 48 -61 64 -42 17 -90 16 -130 -3z"/>
<path d="M11503 1173 c-7 -2 -13 -18 -13 -34 0 -19 -5 -29 -15 -29 -8 0 -15
-6 -15 -14 0 -8 7 -16 15 -20 12 -4 15 -25 15 -100 0 -105 10 -126 60 -126 23
0 27 3 23 20 -3 11 -14 20 -24 20 -17 0 -19 9 -19 91 0 82 2 91 20 96 11 3 20
12 20 19 0 8 -9 14 -20 14 -16 0 -20 7 -20 35 0 35 -3 38 -27 28z"/>
<path d="M13793 1173 c-7 -2 -13 -18 -13 -34 0 -19 -5 -29 -15 -29 -8 0 -15
-7 -15 -15 0 -8 7 -15 15 -15 12 0 15 -18 15 -98 0 -109 11 -132 63 -132 37 0
33 29 -5 43 -15 5 -18 20 -18 93 0 77 2 86 20 91 11 3 20 12 20 19 0 8 -9 14
-20 14 -16 0 -20 7 -20 35 0 35 -3 38 -27 28z"/>
<path d="M9850 980 c0 -123 1 -130 20 -130 18 0 20 7 20 79 0 44 4 91 10 106
13 35 55 50 86 30 23 -15 24 -21 24 -115 0 -93 1 -100 20 -100 19 0 20 7 20
105 0 99 -2 107 -25 130 -28 29 -63 32 -105 10 -27 -14 -30 -14 -30 0 0 8 -9
15 -20 15 -19 0 -20 -7 -20 -130z"/>
<path d="M10160 1103 c-50 -20 -66 -75 -32 -106 10 -10 43 -24 73 -33 57 -17
71 -28 62 -51 -15 -39 -106 -32 -118 8 -4 10 -9 19 -13 19 -50 -1 -13 -75 42
-86 86 -16 153 38 124 101 -9 20 -27 30 -80 46 -53 16 -68 25 -68 40 0 22 41
42 67 32 10 -3 25 -15 34 -26 17 -20 39 -16 39 7 0 34 -86 67 -130 49z"/>
<path d="M10894 1100 c-42 -17 -64 -58 -64 -121 0 -51 4 -63 29 -91 26 -29 36
-33 79 -33 51 0 82 17 103 58 18 32 -20 34 -45 2 -41 -51 -126 -26 -126 36 0
17 8 19 90 19 90 0 90 0 90 25 0 79 -83 135 -156 105z m99 -52 c27 -32 16 -43
-51 -46 -67 -3 -88 12 -61 44 31 38 80 38 112 2z"/>
<path d="M11151 1097 c-13 -6 -30 -22 -39 -34 -13 -20 -13 -23 2 -29 11 -4 22
1 31 14 29 40 106 35 120 -8 4 -12 4 -24 1 -27 -2 -3 -36 -12 -73 -19 -74 -16
-88 -25 -98 -66 -5 -21 -1 -33 19 -52 29 -30 75 -34 120 -11 27 14 31 14 38 0
5 -8 17 -15 26 -15 15 0 16 11 10 112 -3 62 -7 114 -7 115 -1 1 -14 9 -31 18
-35 18 -86 19 -119 2z m119 -136 c0 -29 -22 -60 -50 -69 -50 -18 -102 13 -80
48 13 20 130 39 130 21z"/>
<path d="M11928 1094 c-37 -19 -58 -63 -58 -117 0 -89 75 -148 150 -117 32 13
66 63 55 80 -11 19 -33 10 -39 -15 -12 -49 -90 -53 -115 -6 -18 32 -13 106 7
132 33 39 98 26 114 -23 2 -5 11 -6 20 -3 16 6 16 9 2 36 -24 48 -84 62 -136
33z"/>
<path d="M12164 1096 c-35 -15 -50 -44 -34 -60 8 -8 16 -4 29 12 33 45 126 27
119 -22 -2 -17 -14 -23 -66 -32 -72 -13 -102 -35 -102 -75 0 -67 67 -84 168
-43 6 3 12 -1 12 -10 0 -10 9 -16 21 -16 15 0 19 4 15 16 -3 9 -6 55 -6 104 0
69 -4 92 -18 110 -22 28 -94 36 -138 16z m116 -149 c0 -43 -59 -74 -106 -57
-26 10 -33 43 -12 56 13 8 69 21 101 23 12 1 17 -6 17 -22z"/>
<path d="M12390 980 c0 -123 1 -130 20 -130 19 0 20 7 20 99 0 90 2 101 21
114 11 8 28 13 38 10 11 -3 21 2 24 11 9 24 -37 32 -68 12 -22 -14 -25 -15
-25 -1 0 8 -7 15 -15 15 -13 0 -15 -21 -15 -130z"/>
<path d="M12601 1097 c-59 -30 -86 -127 -52 -190 19 -36 75 -61 119 -53 36 5
82 40 82 62 0 26 -23 26 -44 -1 -40 -49 -117 -31 -129 31 l-4 24 93 0 c88 0
94 1 94 20 0 85 -88 144 -159 107z m102 -49 c28 -33 16 -43 -56 -46 -60 -3
-67 -1 -67 16 0 19 24 45 50 55 23 8 53 -2 73 -25z"/>
<path d="M13324 1100 c-42 -17 -64 -58 -64 -121 0 -51 4 -63 29 -91 26 -29 36
-33 79 -33 51 0 82 17 103 58 18 32 -20 34 -45 2 -41 -51 -126 -26 -126 36 0
17 8 19 90 19 90 0 90 0 90 25 0 79 -83 135 -156 105z m99 -52 c27 -32 16 -43
-51 -46 -67 -3 -88 12 -61 44 31 38 80 38 112 2z"/>
<path d="M13574 1091 c-96 -60 -54 -241 56 -241 50 0 109 53 96 86 -8 22 -26
17 -36 -11 -11 -29 -48 -46 -79 -38 -43 11 -64 92 -40 147 22 48 99 52 114 6
4 -12 13 -20 23 -18 25 5 25 24 0 53 -31 36 -91 43 -134 16z"/>
<path d="M13953 1094 c-20 -10 -37 -30 -47 -55 -20 -49 -20 -69 0 -118 30 -77
131 -93 187 -31 23 26 27 39 27 90 0 51 -4 64 -27 90 -35 39 -92 49 -140 24z
m110 -46 c24 -28 23 -108 -1 -139 -24 -29 -75 -30 -103 -2 -11 11 -23 38 -25
59 -11 90 74 145 129 82z"/>
<path d="M14170 980 c0 -123 1 -130 20 -130 18 0 20 7 20 79 0 88 14 140 38
142 10 1 24 2 32 3 8 0 15 8 15 16 0 22 -43 25 -66 4 -17 -16 -19 -16 -19 -1
0 10 -8 17 -20 17 -19 0 -20 -7 -20 -130z"/>
<path d="M10370 1075 c0 -20 5 -25 25 -25 20 0 25 5 25 25 0 20 -5 25 -25 25
-20 0 -25 -5 -25 -25z"/>
<path d="M10370 875 c0 -20 5 -25 25 -25 20 0 25 5 25 25 0 20 -5 25 -25 25
-20 0 -25 -5 -25 -25z"/>
<path d="M9820 790 c0 -20 7 -20 2240 -20 2233 0 2240 0 2240 20 0 20 -7 20
-2240 20 -2233 0 -2240 0 -2240 -20z"/>
<path d="M5630 1530 c0 -53 2 -60 20 -60 18 0 20 7 20 60 0 53 -2 60 -20 60
-18 0 -20 -7 -20 -60z"/>
<path d="M5630 1290 c0 -53 2 -60 20 -60 18 0 20 7 20 60 0 53 -2 60 -20 60
-18 0 -20 -7 -20 -60z"/>
<path d="M5630 1045 c0 -49 3 -65 14 -65 19 0 26 22 26 81 0 42 -3 49 -20 49
-18 0 -20 -7 -20 -65z"/>
<path d="M5780 1000 c0 -18 7 -20 60 -20 53 0 60 2 60 20 0 18 -7 20 -60 20
-53 0 -60 -2 -60 -20z"/>
<path d="M6020 1000 c0 -18 7 -20 60 -20 53 0 60 2 60 20 0 18 -7 20 -60 20
-53 0 -60 -2 -60 -20z"/>
<path d="M6260 1000 c0 -18 7 -20 60 -20 53 0 60 2 60 20 0 18 -7 20 -60 20
-53 0 -60 -2 -60 -20z"/>
<path d="M6500 1000 c0 -18 7 -20 60 -20 53 0 60 2 60 20 0 18 -7 20 -60 20
-53 0 -60 -2 -60 -20z"/>
<path d="M6740 1000 c0 -18 7 -20 60 -20 53 0 60 2 60 20 0 18 -7 20 -60 20
-53 0 -60 -2 -60 -20z"/>
<path d="M6980 1000 c0 -18 7 -20 60 -20 53 0 60 2 60 20 0 18 -7 20 -60 20
-53 0 -60 -2 -60 -20z"/>
<path d="M7220 1000 c0 -18 7 -20 60 -20 53 0 60 2 60 20 0 18 -7 20 -60 20
-53 0 -60 -2 -60 -20z"/>
<path d="M7460 1000 c0 -18 7 -20 60 -20 53 0 60 2 60 20 0 18 -7 20 -60 20
-53 0 -60 -2 -60 -20z"/>
<path d="M7700 1000 c0 -18 7 -20 60 -20 53 0 60 2 60 20 0 18 -7 20 -60 20
-53 0 -60 -2 -60 -20z"/>
<path d="M7940 1000 c0 -18 7 -20 60 -20 53 0 60 2 60 20 0 18 -7 20 -60 20
-53 0 -60 -2 -60 -20z"/>
<path d="M8180 1000 c0 -18 7 -20 60 -20 53 0 60 2 60 20 0 18 -7 20 -60 20
-53 0 -60 -2 -60 -20z"/>
<path d="M8420 1000 c0 -18 7 -20 60 -20 53 0 60 2 60 20 0 18 -7 20 -60 20
-53 0 -60 -2 -60 -20z"/>
<path d="M8660 1000 c0 -18 7 -20 60 -20 53 0 60 2 60 20 0 18 -7 20 -60 20
-53 0 -60 -2 -60 -20z"/>
<path d="M8900 1000 c0 -18 7 -20 60 -20 53 0 60 2 60 20 0 18 -7 20 -60 20
-53 0 -60 -2 -60 -20z"/>
<path d="M9140 1000 c0 -18 7 -20 60 -20 53 0 60 2 60 20 0 18 -7 20 -60 20
-53 0 -60 -2 -60 -20z"/>
</g>
</svg>
