<svg version="1.1" id="Layer_1" xmlns="http://www.w3.org/2000/svg" xmlns:xlink="http://www.w3.org/1999/xlink" x="0px" y="0px"
	 width="100%" viewBox="0 0 1644 204" enable-background="new 0 0 1644 204" xml:space="preserve">
<path fill="#FFFFFF" opacity="1.000000" stroke="none" 
	d="
M1244.000000,205.000000 
	C829.333374,205.000000 415.166718,205.000000 1.000056,205.000000 
	C1.000037,137.000031 1.000037,69.000061 1.000019,1.000065 
	C548.999939,1.000043 1096.999878,1.000043 1644.999756,1.000022 
	C1644.999878,68.999931 1644.999878,136.999863 1645.000000,204.999908 
	C1511.500000,205.000000 1378.000000,205.000000 1244.000000,205.000000 
M1053.500000,100.997681 
	C1037.171387,100.997704 1020.842896,100.983078 1004.514343,101.009750 
	C1001.127930,101.015282 1001.128052,101.085930 1001.618835,105.138176 
	C1056.936279,105.138176 1112.302124,105.138176 1168.182251,105.138176 
	C1164.961548,111.612007 1161.994995,117.574966 1159.028442,123.537926 
	C1159.274902,123.879044 1159.521362,124.220161 1159.767822,124.561279 
	C1173.382080,117.792313 1186.996338,111.023346 1201.179932,103.971336 
	C1201.179932,124.765404 1201.179932,144.703232 1201.179932,164.650421 
	C1335.986938,164.650421 1470.489868,164.650421 1604.713501,164.650421 
	C1604.713501,123.236641 1604.713501,82.175125 1604.713501,41.309029 
	C1469.983521,41.309029 1335.606689,41.309029 1200.901978,41.309029 
	C1200.901978,61.520035 1200.901978,81.421867 1200.901978,101.890373 
	C1186.730713,94.822029 1173.045288,87.996078 1158.194458,80.588799 
	C1161.865356,88.083221 1164.942261,94.364815 1168.191162,100.997681 
	C1129.808105,100.997681 1092.154053,100.997681 1053.500000,100.997681 
M122.500000,41.000595 
	C95.404694,41.000595 68.309395,41.000595 41.291809,41.000595 
	C41.291809,82.648163 41.291809,123.719040 41.291809,164.709137 
	C175.984726,164.709137 310.386230,164.709137 445.188232,164.709137 
	C445.188232,144.680313 445.188232,124.939011 445.188232,104.833939 
	C482.682739,104.833939 519.777588,104.833939 556.725586,104.833939 
	C558.055969,99.981735 554.780151,101.017937 552.507874,101.016411 
	C518.509155,100.993546 484.510468,101.000603 450.511780,101.000595 
	C448.746063,101.000595 446.980316,101.000587 444.823151,101.000587 
	C444.823151,80.691132 444.823151,60.949844 444.823151,41.000595 
	C337.448181,41.000595 230.474091,41.000595 122.500000,41.000595 
M648.566833,95.880730 
	C647.210999,96.811157 645.855164,97.741577 644.493408,98.663300 
	C639.705505,93.920509 637.159119,93.750267 631.145813,97.314621 
	C629.605469,96.286240 628.345642,95.445137 626.454834,94.182762 
	C626.454834,103.827881 626.454834,112.272545 626.454834,120.840538 
	C627.783875,120.840538 628.901367,120.840538 630.675537,120.840538 
	C630.675537,115.002029 630.437195,109.347374 630.762817,103.725380 
	C630.965820,100.220200 633.507690,98.471840 636.993896,98.677887 
	C640.570374,98.889275 641.037231,101.610970 641.058472,104.434921 
	C641.099609,109.887627 641.070557,115.340866 641.070557,121.009529 
	C642.700195,120.904243 643.810547,120.832504 645.223083,120.741249 
	C645.223083,115.044823 645.016846,109.547523 645.298279,104.075302 
	C645.475403,100.631416 647.791931,98.622421 651.290588,98.657074 
	C655.056885,98.694374 655.810852,101.348991 655.792358,104.506493 
	C655.760498,109.935387 655.783569,115.364609 655.783569,120.793694 
	C656.319580,121.050049 656.855530,121.306404 657.391541,121.562752 
	C658.188416,120.372528 659.604492,119.216660 659.672791,117.985962 
	C659.939880,113.173531 659.869019,108.335449 659.759338,103.510635 
	C659.603577,96.661087 656.286621,94.193275 648.566833,95.880730 
M889.794250,99.362152 
	C890.730286,91.354340 888.208496,87.008812 881.304199,86.296509 
	C875.762817,85.724815 870.115417,86.180901 864.337769,86.180901 
	C864.337769,97.883026 864.337769,109.283524 864.337769,120.765411 
	C865.801270,120.765411 867.036438,120.765411 868.728882,120.765411 
	C868.728882,116.106010 868.728882,111.704971 868.728882,107.004684 
	C872.491394,107.004684 875.808167,107.169609 879.101990,106.965355 
	C883.835205,106.671822 887.935913,105.179565 889.794250,99.362152 
M790.246155,106.723267 
	C790.289307,106.226273 790.328064,105.728867 790.376282,105.232361 
	C790.798401,100.889000 793.174438,98.414726 797.551575,98.686363 
	C802.112000,98.969360 802.312805,102.491974 802.268616,106.017380 
	C802.218628,110.008018 802.372864,114.004143 802.221741,117.989670 
	C802.097229,121.273209 803.624817,121.548454 806.386230,120.567551 
	C806.386230,115.730042 806.396545,110.917442 806.378601,106.104942 
	C806.374268,104.942490 806.335876,103.773949 806.211243,102.619202 
	C805.573242,96.708794 800.859314,93.624535 795.177856,95.444328 
	C793.667358,95.928154 792.236755,96.661247 790.267151,97.491684 
	C790.267151,93.452881 790.267151,89.860909 790.267151,86.268936 
	C789.821960,85.982292 789.376770,85.695656 788.931580,85.409012 
	C788.041199,86.400955 786.394165,87.379761 786.376709,88.386856 
	C786.189636,99.163261 786.260376,109.944138 786.260376,120.830826 
	C787.808899,120.830826 788.921753,120.830826 790.237549,120.830826 
	C790.237549,116.306396 790.237549,111.988518 790.246155,106.723267 
M894.261658,115.169266 
	C897.178589,121.916275 901.549072,122.713730 910.728577,118.580322 
	C912.580811,119.676430 914.098450,120.574570 915.609924,121.469025 
	C915.609924,114.805389 915.745972,109.027954 915.571228,103.259933 
	C915.400818,97.634979 912.922180,95.358833 907.108765,94.971184 
	C900.455383,94.527504 896.683105,96.870918 895.225220,103.833763 
	C897.454346,102.360069 898.814758,101.735085 899.816650,100.746765 
	C902.776978,97.826630 906.176025,97.990044 909.412659,99.657120 
	C910.499451,100.216911 911.127808,102.356659 911.225342,103.823448 
	C911.267090,104.451462 909.506836,105.526566 908.407776,105.832710 
	C906.340454,106.408607 904.160461,106.586113 902.023987,106.906952 
	C897.645996,107.564423 894.479736,109.477158 894.261658,115.169266 
M812.789490,101.474617 
	C814.553345,103.650185 815.701111,103.149483 817.275146,100.979019 
	C819.755005,97.559448 823.457092,98.073975 826.735657,99.473885 
	C827.851929,99.950508 828.733948,102.092827 828.783203,103.506798 
	C828.810120,104.278366 826.979736,105.518547 825.794067,105.843399 
	C823.413025,106.495773 820.880005,106.566925 818.445374,107.055656 
	C813.971008,107.953873 811.267151,111.161980 811.825745,114.979729 
	C812.486328,119.494423 815.881287,121.084328 819.747131,120.895157 
	C822.898193,120.740967 825.990479,119.384300 828.258972,118.785248 
	C830.212769,119.795715 831.736816,120.583916 833.048157,121.262115 
	C833.048157,114.835815 833.328613,109.213783 832.917114,103.642868 
	C832.739929,101.244888 831.775208,98.139687 830.047241,96.765823 
	C824.952393,92.715218 816.318237,95.051880 812.789490,101.474617 
M947.671021,94.970924 
	C938.627747,97.117790 934.587158,104.720619 937.762573,113.614540 
	C939.464905,118.382622 943.738403,121.202377 949.003235,121.031494 
	C954.163757,120.863998 957.248352,118.381660 958.500549,112.456398 
	C956.923950,112.765518 955.226807,113.246033 954.362671,114.368095 
	C952.085754,117.324799 949.256226,118.145813 946.002625,116.877594 
	C942.636963,115.565620 940.939819,112.984787 941.638672,108.701477 
	C947.719849,108.701477 953.610535,108.701477 959.490173,108.701477 
	C959.215820,99.557961 956.525757,96.312462 947.671021,94.970924 
M687.559448,107.471794 
	C687.431213,102.498360 685.929443,98.258682 681.053589,96.037964 
	C676.689026,94.050072 672.493286,94.685097 668.961731,97.812469 
	C664.425171,101.829849 664.306580,107.214066 665.467896,112.590622 
	C666.602173,117.841919 670.931763,120.947594 676.420898,121.031166 
	C681.738281,121.112129 685.074219,118.604630 687.475281,111.386330 
	C684.999023,112.756660 683.250488,113.185081 682.400452,114.299095 
	C680.144348,117.255714 677.362122,118.138321 674.071960,116.911041 
	C670.622375,115.624298 669.013367,112.983681 669.454407,109.417213 
	C675.638977,109.039825 681.545044,108.679428 687.559448,107.471794 
M851.307068,106.173225 
	C849.868042,105.785408 848.252686,105.685371 847.033691,104.938423 
	C845.435669,103.959236 844.150330,102.469635 842.730530,101.199554 
	C844.680603,100.331032 846.598083,98.899414 848.591797,98.783768 
	C850.019592,98.700958 851.511902,100.452934 853.046021,101.250534 
	C854.237366,101.869942 855.537720,102.279594 857.724731,103.158112 
	C855.074036,95.791374 849.541199,93.181381 843.706421,95.970886 
	C841.570129,96.992203 839.108459,99.879967 839.051514,101.977562 
	C838.995972,104.022324 841.454041,106.680206 843.488098,108.084778 
	C845.555054,109.512009 848.551575,109.513405 850.945496,110.578651 
	C852.241211,111.155212 853.128906,112.648895 854.200623,113.728844 
	C852.967163,114.873756 851.912964,116.596405 850.463806,117.046097 
	C847.218018,118.053261 844.350159,117.239006 842.321228,114.038422 
	C841.712708,113.078560 840.062622,112.778999 837.889038,111.663231 
	C840.133850,119.433807 844.963501,122.262032 851.189270,120.728355 
	C854.987427,119.792709 858.014587,117.880951 858.314209,113.522781 
	C858.616455,109.127136 855.665283,107.447777 851.307068,106.173225 
M579.698853,120.154984 
	C583.232239,119.970108 587.078857,120.564751 590.185120,119.316757 
	C592.142456,118.530357 594.036011,114.976936 594.015625,112.681999 
	C593.998657,110.766342 591.449890,108.448997 589.481079,107.099075 
	C587.662781,105.852371 584.975830,105.944893 582.951416,104.903511 
	C581.329102,104.068962 580.126221,102.418808 578.737244,101.130585 
	C580.539917,100.268631 582.342957,98.740685 584.145142,98.741615 
	C585.780151,98.742462 587.377747,100.482430 589.061279,101.315224 
	C590.259277,101.907875 591.572571,102.267494 593.758667,103.070717 
	C590.953369,95.679832 584.893555,93.070946 579.155212,96.115784 
	C577.176208,97.165848 575.035767,99.992630 575.004028,102.039368 
	C574.973083,104.038582 577.136108,106.708534 579.065979,107.940361 
	C581.482178,109.482582 584.722290,109.671349 587.444336,110.826965 
	C588.572815,111.306053 590.041382,112.824722 589.980042,113.782631 
	C589.909241,114.889114 588.509460,116.460571 587.357605,116.845406 
	C583.806519,118.031845 580.565369,117.664894 578.282227,113.979546 
	C577.700684,113.040749 576.008118,112.790230 574.825989,112.223465 
	C574.417542,112.830185 574.009094,113.436897 573.600647,114.043610 
	C575.380737,116.012489 577.160889,117.981361 579.698853,120.154984 
M758.839783,105.769058 
	C758.213501,105.550804 757.483276,105.469864 756.979980,105.089081 
	C755.339478,103.847954 753.781799,102.497307 752.192261,101.188797 
	C754.477966,100.390602 756.721130,99.237579 759.068848,98.955864 
	C760.117249,98.830048 761.314453,100.565643 762.556519,101.253456 
	C763.718506,101.896896 765.029175,102.271927 767.233887,103.145149 
	C764.248962,94.966660 755.706116,92.645393 750.517151,97.181396 
	C746.992920,100.262146 747.361267,105.457848 751.517761,107.606956 
	C753.832031,108.803535 756.660278,109.001587 758.984863,110.184349 
	C760.765442,111.090317 762.119873,112.834000 763.663879,114.205086 
	C761.628235,115.279930 759.592834,117.185066 757.556885,117.185616 
	C755.688660,117.186119 753.837402,115.102859 751.944702,113.995865 
	C750.798706,113.325592 749.588013,112.765930 747.374390,111.624420 
	C748.424072,117.419083 750.801819,120.456993 754.769775,120.477837 
	C758.475464,120.497299 762.815186,119.795998 765.747498,117.774857 
	C769.727966,115.031174 768.352844,109.312111 763.883606,107.275383 
	C762.538208,106.662224 761.050415,106.361687 758.839783,105.769058 
M738.249329,118.091339 
	C737.967285,121.474289 739.721252,121.439903 742.226746,120.587585 
	C742.226746,114.570312 742.395264,108.755623 742.180359,102.955139 
	C741.955933,96.896667 736.758057,93.485237 731.014587,95.446106 
	C729.483337,95.968872 728.077454,96.858887 727.628052,97.080421 
	C725.560242,96.104706 724.216370,95.470558 722.249390,94.542435 
	C722.249390,103.160484 722.333191,110.623810 722.211548,118.083794 
	C722.156677,121.451797 723.697754,121.468819 726.560242,120.466125 
	C726.560242,114.916290 726.319092,109.432533 726.643127,103.982368 
	C726.867310,100.212578 729.665649,98.545784 733.239197,98.644760 
	C737.029114,98.749725 738.268066,101.267143 738.245605,104.714394 
	C738.218689,108.866272 738.245361,113.018501 738.249329,118.091339 
M985.091858,105.925766 
	C985.137268,102.239525 985.369629,98.404144 981.518311,96.248940 
	C977.217163,93.842003 973.204773,94.904938 970.108887,97.421844 
	C968.511169,96.404022 967.208374,95.574066 965.100281,94.231079 
	C965.100281,103.194122 965.188354,110.658501 965.061340,118.119232 
	C965.002380,121.587845 966.619690,121.417809 969.386230,120.402565 
	C969.386230,114.871613 969.116333,109.383766 969.479797,103.938187 
	C969.727905,100.220840 972.526062,98.517967 976.123108,98.648582 
	C979.919617,98.786430 981.124390,101.302444 981.099731,104.742966 
	C981.067566,109.225311 981.180359,113.710068 981.073914,118.190056 
	C980.990906,121.681046 982.744995,121.310806 985.091492,120.550713 
	C985.091492,115.794113 985.091492,111.314651 985.091858,105.925766 
M598.400696,111.785378 
	C600.933105,119.576508 606.580261,122.715477 613.580933,120.223335 
	C620.278259,117.839172 623.283081,109.318413 620.092407,101.758713 
	C617.597046,95.846664 610.695435,93.241364 604.619934,96.106148 
	C598.195496,99.135498 597.747559,104.882149 598.400696,111.785378 
M564.810364,90.207733 
	C556.380981,105.168633 559.328796,129.070602 569.796448,130.636566 
	C561.308167,110.633026 561.310120,107.089859 568.958984,85.488579 
	C567.701050,86.848785 566.443115,88.208992 564.810364,90.207733 
M1000.888733,118.123810 
	C997.068909,117.149429 996.194275,114.576958 996.561584,110.927536 
	C996.876343,107.800186 996.566284,104.614166 996.669373,101.458565 
	C996.698303,100.571968 996.992615,99.514290 997.549927,98.865738 
	C998.441772,97.827896 999.655029,97.066292 1000.732422,96.187904 
	C999.409119,95.521042 998.085876,94.854187 996.752075,94.182030 
	C996.645386,92.117424 996.537537,90.030022 996.429688,87.942612 
	C996.053772,87.755753 995.677795,87.568901 995.301880,87.382042 
	C994.423767,88.645615 993.121277,89.797287 992.752625,91.195229 
	C991.886414,94.479408 988.200256,97.821396 992.597412,101.318863 
	C993.083984,101.705833 992.659424,103.231514 992.666748,104.229027 
	C992.697327,108.384361 992.292175,112.614067 992.977295,116.658920 
	C993.257446,118.312843 995.716797,119.929657 997.544312,120.847603 
	C998.440308,121.297623 1001.581970,122.517746 1000.888733,118.123810 
M695.448792,125.698853 
	C694.633606,127.356544 693.818359,129.014236 692.811218,131.062347 
	C699.334717,128.978867 704.581665,115.639420 703.527100,105.276512 
	C702.581116,95.980461 697.533447,86.842422 693.112732,86.422874 
	C700.934631,103.782196 701.441345,111.099556 695.448792,125.698853 
M922.243713,115.302338 
	C922.243713,117.098389 922.243713,118.894432 922.243713,120.862915 
	C923.763855,120.862915 924.871399,120.862915 926.382568,120.862915 
	C926.382568,115.400093 926.150146,110.106239 926.465698,104.845245 
	C926.670166,101.435959 927.640198,98.167427 932.445679,98.738480 
	C933.367249,98.847992 934.442139,97.666924 935.446289,97.081253 
	C935.245239,96.425514 935.044189,95.769775 934.843140,95.114037 
	C932.034790,95.510071 929.226440,95.906105 926.503357,96.290115 
	C925.444458,95.865784 924.122375,95.335999 922.243774,94.583176 
	C922.243774,101.784645 922.243774,108.066650 922.243713,115.302338 
M776.586304,95.942528 
	C775.579834,97.244858 774.573364,98.547188 772.881775,100.736084 
	C775.991272,100.736084 777.349731,100.736084 779.794312,100.736084 
	C778.797363,98.703926 778.123169,97.329666 776.586304,95.942528 
M774.330261,120.197502 
	C775.757263,120.490494 777.184265,120.783478 779.033325,121.163124 
	C778.882141,118.967941 778.785583,117.565926 778.696838,116.277519 
	C775.614746,115.462883 773.727112,115.840782 774.330261,120.197502 
z"/>
<path fill="#020202" opacity="1.000000" stroke="none" 
	d="
M1054.000000,100.997681 
	C1092.154053,100.997681 1129.808105,100.997681 1168.191162,100.997681 
	C1164.942261,94.364815 1161.865356,88.083221 1158.194458,80.588799 
	C1173.045288,87.996078 1186.730713,94.822029 1200.901978,101.890373 
	C1200.901978,81.421867 1200.901978,61.520035 1200.901978,41.309029 
	C1335.606689,41.309029 1469.983521,41.309029 1604.713501,41.309029 
	C1604.713501,82.175125 1604.713501,123.236641 1604.713501,164.650421 
	C1470.489868,164.650421 1335.986938,164.650421 1201.179932,164.650421 
	C1201.179932,144.703232 1201.179932,124.765404 1201.179932,103.971336 
	C1186.996338,111.023346 1173.382080,117.792313 1159.767822,124.561279 
	C1159.521362,124.220161 1159.274902,123.879044 1159.028442,123.537926 
	C1161.994995,117.574966 1164.961548,111.612007 1168.182251,105.138176 
	C1112.302124,105.138176 1056.936279,105.138176 1001.618835,105.138176 
	C1001.128052,101.085930 1001.127930,101.015282 1004.514343,101.009750 
	C1020.842896,100.983078 1037.171387,100.997704 1054.000000,100.997681 
M1405.500000,45.000626 
	C1338.745361,45.000626 1271.990723,45.000626 1205.351318,45.000626 
	C1205.351318,84.020065 1205.351318,122.420151 1205.351318,160.695328 
	C1337.407959,160.695328 1469.146851,160.695328 1600.749023,160.695328 
	C1600.749023,121.990265 1600.749023,83.589973 1600.749023,45.000626 
	C1535.790039,45.000626 1471.145020,45.000626 1405.500000,45.000626 
z"/>
<path fill="#000000" opacity="1.000000" stroke="none" 
	d="
M123.000000,41.000595 
	C230.474091,41.000595 337.448181,41.000595 444.823151,41.000595 
	C444.823151,60.949844 444.823151,80.691132 444.823151,101.000587 
	C446.980316,101.000587 448.746063,101.000595 450.511780,101.000595 
	C484.510468,101.000603 518.509155,100.993546 552.507874,101.016411 
	C554.780151,101.017937 558.055969,99.981735 556.725586,104.833939 
	C519.777588,104.833939 482.682739,104.833939 445.188232,104.833939 
	C445.188232,124.939011 445.188232,144.680313 445.188232,164.709137 
	C310.386230,164.709137 175.984726,164.709137 41.291809,164.709137 
	C41.291809,123.719040 41.291809,82.648163 41.291809,41.000595 
	C68.309395,41.000595 95.404694,41.000595 123.000000,41.000595 
M169.500000,161.001785 
	C259.926483,161.001785 350.352966,161.001785 440.716003,161.001785 
	C440.716003,122.026665 440.716003,83.621887 440.716003,45.283092 
	C308.693207,45.283092 176.957626,45.283092 45.284981,45.283092 
	C45.284981,83.973434 45.284981,122.378212 45.284981,161.001785 
	C86.547592,161.001785 127.523796,161.001785 169.500000,161.001785 
z"/>
<path fill="#1B1B1B" opacity="1.000000" stroke="none" 
	d="
M648.946411,95.730064 
	C656.286621,94.193275 659.603577,96.661087 659.759338,103.510635 
	C659.869019,108.335449 659.939880,113.173531 659.672791,117.985962 
	C659.604492,119.216660 658.188416,120.372528 657.391541,121.562752 
	C656.855530,121.306404 656.319580,121.050049 655.783569,120.793694 
	C655.783569,115.364609 655.760498,109.935387 655.792358,104.506493 
	C655.810852,101.348991 655.056885,98.694374 651.290588,98.657074 
	C647.791931,98.622421 645.475403,100.631416 645.298279,104.075302 
	C645.016846,109.547523 645.223083,115.044823 645.223083,120.741249 
	C643.810547,120.832504 642.700195,120.904243 641.070557,121.009529 
	C641.070557,115.340866 641.099609,109.887627 641.058472,104.434921 
	C641.037231,101.610970 640.570374,98.889275 636.993896,98.677887 
	C633.507690,98.471840 630.965820,100.220200 630.762817,103.725380 
	C630.437195,109.347374 630.675537,115.002029 630.675537,120.840538 
	C628.901367,120.840538 627.783875,120.840538 626.454834,120.840538 
	C626.454834,112.272545 626.454834,103.827881 626.454834,94.182762 
	C628.345642,95.445137 629.605469,96.286240 631.145813,97.314621 
	C637.159119,93.750267 639.705505,93.920509 644.496338,98.667648 
	C645.855164,97.741577 647.210999,96.811157 648.946411,95.730064 
z"/>
<path fill="#171717" opacity="1.000000" stroke="none" 
	d="
M889.683838,99.716995 
	C887.935913,105.179565 883.835205,106.671822 879.101990,106.965355 
	C875.808167,107.169609 872.491394,107.004684 868.728882,107.004684 
	C868.728882,111.704971 868.728882,116.106010 868.728882,120.765411 
	C867.036438,120.765411 865.801270,120.765411 864.337769,120.765411 
	C864.337769,109.283524 864.337769,97.883026 864.337769,86.180901 
	C870.115417,86.180901 875.762817,85.724815 881.304199,86.296509 
	C888.208496,87.008812 890.730286,91.354340 889.683838,99.716995 
M880.759155,102.825432 
	C884.619812,101.741043 886.460876,98.937050 885.449524,95.304802 
	C884.893799,93.309227 882.716003,90.697250 880.887207,90.344353 
	C876.958740,89.586273 872.782654,90.111732 868.785278,90.111732 
	C868.785278,94.680290 868.785278,98.624275 868.785278,102.921776 
	C872.610413,102.921776 876.241394,102.921776 880.759155,102.825432 
z"/>
<path fill="#1B1B1B" opacity="1.000000" stroke="none" 
	d="
M790.241821,107.196960 
	C790.237549,111.988518 790.237549,116.306396 790.237549,120.830826 
	C788.921753,120.830826 787.808899,120.830826 786.260376,120.830826 
	C786.260376,109.944138 786.189636,99.163261 786.376709,88.386856 
	C786.394165,87.379761 788.041199,86.400955 788.931580,85.409012 
	C789.376770,85.695656 789.821960,85.982292 790.267151,86.268936 
	C790.267151,89.860909 790.267151,93.452881 790.267151,97.491684 
	C792.236755,96.661247 793.667358,95.928154 795.177856,95.444328 
	C800.859314,93.624535 805.573242,96.708794 806.211243,102.619202 
	C806.335876,103.773949 806.374268,104.942490 806.378601,106.104942 
	C806.396545,110.917442 806.386230,115.730042 806.386230,120.567551 
	C803.624817,121.548454 802.097229,121.273209 802.221741,117.989670 
	C802.372864,114.004143 802.218628,110.008018 802.268616,106.017380 
	C802.312805,102.491974 802.112000,98.969360 797.551575,98.686363 
	C793.174438,98.414726 790.798401,100.889000 790.376282,105.232361 
	C790.328064,105.728867 790.289307,106.226273 790.241821,107.196960 
z"/>
<path fill="#191919" opacity="1.000000" stroke="none" 
	d="
M894.224365,114.785202 
	C894.479736,109.477158 897.645996,107.564423 902.023987,106.906952 
	C904.160461,106.586113 906.340454,106.408607 908.407776,105.832710 
	C909.506836,105.526566 911.267090,104.451462 911.225342,103.823448 
	C911.127808,102.356659 910.499451,100.216911 909.412659,99.657120 
	C906.176025,97.990044 902.776978,97.826630 899.816650,100.746765 
	C898.814758,101.735085 897.454346,102.360069 895.225220,103.833763 
	C896.683105,96.870918 900.455383,94.527504 907.108765,94.971184 
	C912.922180,95.358833 915.400818,97.634979 915.571228,103.259933 
	C915.745972,109.027954 915.609924,114.805389 915.609924,121.469025 
	C914.098450,120.574570 912.580811,119.676430 910.728577,118.580322 
	C901.549072,122.713730 897.178589,121.916275 894.224365,114.785202 
M911.507507,110.397339 
	C908.688782,108.498878 899.881042,109.709366 899.120178,112.428688 
	C898.768738,113.684769 899.951111,116.300133 901.138123,116.889702 
	C905.461121,119.036674 910.036072,116.302078 911.507507,110.397339 
z"/>
<path fill="#131313" opacity="1.000000" stroke="none" 
	d="
M812.861938,101.154068 
	C816.318237,95.051880 824.952393,92.715218 830.047241,96.765823 
	C831.775208,98.139687 832.739929,101.244888 832.917114,103.642868 
	C833.328613,109.213783 833.048157,114.835815 833.048157,121.262115 
	C831.736816,120.583916 830.212769,119.795715 828.258972,118.785248 
	C825.990479,119.384300 822.898193,120.740967 819.747131,120.895157 
	C815.881287,121.084328 812.486328,119.494423 811.825745,114.979729 
	C811.267151,111.161980 813.971008,107.953873 818.445374,107.055656 
	C820.880005,106.566925 823.413025,106.495773 825.794067,105.843399 
	C826.979736,105.518547 828.810120,104.278366 828.783203,103.506798 
	C828.733948,102.092827 827.851929,99.950508 826.735657,99.473885 
	C823.457092,98.073975 819.755005,97.559448 817.275146,100.979019 
	C815.701111,103.149483 814.553345,103.650185 812.861938,101.154068 
M826.634583,109.068146 
	C824.679199,109.398735 822.537903,109.341568 820.819336,110.165916 
	C818.999939,111.038643 817.582703,112.749893 815.989868,114.094902 
	C817.913269,115.229073 819.766907,117.089989 821.780579,117.283195 
	C823.617554,117.459442 826.082703,116.269325 827.437622,114.872879 
	C828.871582,113.394875 830.910400,110.939804 826.634583,109.068146 
z"/>
<path fill="#131313" opacity="1.000000" stroke="none" 
	d="
M948.081299,94.968987 
	C956.525757,96.312462 959.215820,99.557961 959.490173,108.701477 
	C953.610535,108.701477 947.719849,108.701477 941.638672,108.701477 
	C940.939819,112.984787 942.636963,115.565620 946.002625,116.877594 
	C949.256226,118.145813 952.085754,117.324799 954.362671,114.368095 
	C955.226807,113.246033 956.923950,112.765518 958.500549,112.456398 
	C957.248352,118.381660 954.163757,120.863998 949.003235,121.031494 
	C943.738403,121.202377 939.464905,118.382622 937.762573,113.614540 
	C934.587158,104.720619 938.627747,97.117790 948.081299,94.968987 
M941.359863,104.639565 
	C945.936157,105.059052 950.512451,105.478539 955.264954,105.914177 
	C955.077209,100.926735 952.799377,98.939049 949.317688,98.564499 
	C945.389221,98.141907 942.580750,99.940887 941.359863,104.639565 
z"/>
<path fill="#131313" opacity="1.000000" stroke="none" 
	d="
M687.505310,107.895416 
	C681.545044,108.679428 675.638977,109.039825 669.454407,109.417213 
	C669.013367,112.983681 670.622375,115.624298 674.071960,116.911041 
	C677.362122,118.138321 680.144348,117.255714 682.400452,114.299095 
	C683.250488,113.185081 684.999023,112.756660 687.475281,111.386330 
	C685.074219,118.604630 681.738281,121.112129 676.420898,121.031166 
	C670.931763,120.947594 666.602173,117.841919 665.467896,112.590622 
	C664.306580,107.214066 664.425171,101.829849 668.961731,97.812469 
	C672.493286,94.685097 676.689026,94.050072 681.053589,96.037964 
	C685.929443,98.258682 687.431213,102.498360 687.505310,107.895416 
M675.042297,98.656151 
	C671.573242,99.341942 669.746582,101.446129 669.210083,105.296730 
	C674.037415,105.296730 678.496399,105.296730 683.262390,105.296730 
	C682.884338,100.239632 680.071350,98.533112 675.042297,98.656151 
z"/>
<path fill="#151515" opacity="1.000000" stroke="none" 
	d="
M851.662842,106.327744 
	C855.665283,107.447777 858.616455,109.127136 858.314209,113.522781 
	C858.014587,117.880951 854.987427,119.792709 851.189270,120.728355 
	C844.963501,122.262032 840.133850,119.433807 837.889038,111.663231 
	C840.062622,112.778999 841.712708,113.078560 842.321228,114.038422 
	C844.350159,117.239006 847.218018,118.053261 850.463806,117.046097 
	C851.912964,116.596405 852.967163,114.873756 854.200623,113.728851 
	C853.128906,112.648895 852.241211,111.155212 850.945496,110.578651 
	C848.551575,109.513405 845.555054,109.512009 843.488098,108.084778 
	C841.454041,106.680206 838.995972,104.022324 839.051514,101.977562 
	C839.108459,99.879967 841.570129,96.992203 843.706421,95.970886 
	C849.541199,93.181381 855.074036,95.791374 857.724731,103.158112 
	C855.537720,102.279594 854.237366,101.869942 853.046021,101.250534 
	C851.511902,100.452934 850.019592,98.700958 848.591797,98.783768 
	C846.598083,98.899414 844.680603,100.331032 842.730530,101.199562 
	C844.150330,102.469635 845.435669,103.959236 847.033691,104.938423 
	C848.252686,105.685371 849.868042,105.785408 851.662842,106.327744 
z"/>
<path fill="#151515" opacity="1.000000" stroke="none" 
	d="
M579.319946,120.052612 
	C577.160889,117.981361 575.380737,116.012489 573.600647,114.043610 
	C574.009094,113.436897 574.417542,112.830185 574.825989,112.223465 
	C576.008118,112.790230 577.700684,113.040749 578.282227,113.979546 
	C580.565369,117.664894 583.806519,118.031845 587.357605,116.845406 
	C588.509460,116.460571 589.909241,114.889114 589.980042,113.782631 
	C590.041382,112.824722 588.572815,111.306053 587.444336,110.826965 
	C584.722290,109.671349 581.482178,109.482582 579.065979,107.940361 
	C577.136108,106.708534 574.973083,104.038582 575.004028,102.039368 
	C575.035767,99.992630 577.176208,97.165848 579.155212,96.115784 
	C584.893555,93.070946 590.953369,95.679832 593.758667,103.070717 
	C591.572571,102.267494 590.259277,101.907875 589.061279,101.315224 
	C587.377747,100.482430 585.780151,98.742462 584.145142,98.741615 
	C582.342957,98.740685 580.539917,100.268631 578.737244,101.130585 
	C580.126221,102.418808 581.329102,104.068962 582.951416,104.903511 
	C584.975830,105.944893 587.662781,105.852371 589.481079,107.099075 
	C591.449890,108.448997 593.998657,110.766342 594.015625,112.681999 
	C594.036011,114.976936 592.142456,118.530357 590.185120,119.316757 
	C587.078857,120.564751 583.232239,119.970108 579.319946,120.052612 
z"/>
<path fill="#171717" opacity="1.000000" stroke="none" 
	d="
M759.233765,105.843491 
	C761.050415,106.361687 762.538208,106.662224 763.883606,107.275383 
	C768.352844,109.312111 769.727966,115.031174 765.747498,117.774857 
	C762.815186,119.795998 758.475464,120.497299 754.769775,120.477837 
	C750.801819,120.456993 748.424072,117.419083 747.374390,111.624420 
	C749.588013,112.765930 750.798706,113.325592 751.944702,113.995865 
	C753.837402,115.102859 755.688660,117.186119 757.556885,117.185616 
	C759.592834,117.185066 761.628235,115.279930 763.663879,114.205093 
	C762.119873,112.834000 760.765442,111.090317 758.984863,110.184349 
	C756.660278,109.001587 753.832031,108.803535 751.517761,107.606956 
	C747.361267,105.457848 746.992920,100.262146 750.517151,97.181396 
	C755.706116,92.645393 764.248962,94.966660 767.233887,103.145149 
	C765.029175,102.271927 763.718506,101.896896 762.556519,101.253456 
	C761.314453,100.565643 760.117249,98.830048 759.068848,98.955864 
	C756.721130,99.237579 754.477966,100.390602 752.192261,101.188797 
	C753.781799,102.497307 755.339478,103.847954 756.979980,105.089081 
	C757.483276,105.469864 758.213501,105.550804 759.233765,105.843491 
z"/>
<path fill="#1B1B1B" opacity="1.000000" stroke="none" 
	d="
M738.249023,117.630959 
	C738.245361,113.018501 738.218689,108.866272 738.245605,104.714394 
	C738.268066,101.267143 737.029114,98.749725 733.239197,98.644760 
	C729.665649,98.545784 726.867310,100.212578 726.643127,103.982368 
	C726.319092,109.432533 726.560242,114.916290 726.560242,120.466125 
	C723.697754,121.468819 722.156677,121.451797 722.211548,118.083794 
	C722.333191,110.623810 722.249390,103.160484 722.249390,94.542435 
	C724.216370,95.470558 725.560242,96.104706 727.628052,97.080421 
	C728.077454,96.858887 729.483337,95.968872 731.014587,95.446106 
	C736.758057,93.485237 741.955933,96.896667 742.180359,102.955139 
	C742.395264,108.755623 742.226746,114.570312 742.226746,120.587585 
	C739.721252,121.439903 737.967285,121.474289 738.249023,117.630959 
z"/>
<path fill="#1B1B1B" opacity="1.000000" stroke="none" 
	d="
M985.091675,106.380478 
	C985.091492,111.314651 985.091492,115.794113 985.091492,120.550713 
	C982.744995,121.310806 980.990906,121.681046 981.073914,118.190056 
	C981.180359,113.710068 981.067566,109.225311 981.099731,104.742966 
	C981.124390,101.302444 979.919617,98.786430 976.123108,98.648582 
	C972.526062,98.517967 969.727905,100.220840 969.479797,103.938187 
	C969.116333,109.383766 969.386230,114.871613 969.386230,120.402565 
	C966.619690,121.417809 965.002380,121.587845 965.061340,118.119232 
	C965.188354,110.658501 965.100281,103.194122 965.100281,94.231079 
	C967.208374,95.574066 968.511169,96.404022 970.108887,97.421844 
	C973.204773,94.904938 977.217163,93.842003 981.518311,96.248940 
	C985.369629,98.404144 985.137268,102.239525 985.091675,106.380478 
z"/>
<path fill="#191919" opacity="1.000000" stroke="none" 
	d="
M598.316467,111.372803 
	C597.747559,104.882149 598.195496,99.135498 604.619934,96.106148 
	C610.695435,93.241364 617.597046,95.846664 620.092407,101.758713 
	C623.283081,109.318413 620.278259,117.839172 613.580933,120.223335 
	C606.580261,122.715477 600.933105,119.576508 598.316467,111.372803 
M602.579102,111.615364 
	C603.598816,115.535881 606.305176,118.078140 610.128784,117.163734 
	C612.550415,116.584602 615.188354,114.129044 616.335938,111.821960 
	C617.387207,109.708649 617.458984,106.169670 616.341675,104.159851 
	C615.023010,101.787949 612.182983,99.362442 609.605042,98.807793 
	C606.035034,98.039703 603.327026,100.665390 602.602905,104.393486 
	C602.198608,106.474922 602.426880,108.679230 602.579102,111.615364 
z"/>
<path fill="#202020" opacity="1.000000" stroke="none" 
	d="
M564.997803,89.888474 
	C566.443115,88.208992 567.701050,86.848785 568.958984,85.488579 
	C561.310120,107.089859 561.308167,110.633026 569.796448,130.636566 
	C559.328796,129.070602 556.380981,105.168633 564.997803,89.888474 
z"/>
<path fill="#1B1B1B" opacity="1.000000" stroke="none" 
	d="
M1000.964844,118.505005 
	C1001.581970,122.517746 998.440308,121.297623 997.544312,120.847603 
	C995.716797,119.929657 993.257446,118.312843 992.977295,116.658920 
	C992.292175,112.614067 992.697327,108.384361 992.666748,104.229027 
	C992.659424,103.231514 993.083984,101.705833 992.597412,101.318863 
	C988.200256,97.821396 991.886414,94.479408 992.752625,91.195229 
	C993.121277,89.797287 994.423767,88.645615 995.301880,87.382042 
	C995.677795,87.568901 996.053772,87.755753 996.429688,87.942612 
	C996.537537,90.030022 996.645386,92.117424 996.752075,94.182030 
	C998.085876,94.854187 999.409119,95.521042 1000.732422,96.187897 
	C999.655029,97.066292 998.441772,97.827896 997.549927,98.865738 
	C996.992615,99.514290 996.698303,100.571968 996.669373,101.458565 
	C996.566284,104.614166 996.876343,107.800186 996.561584,110.927536 
	C996.194275,114.576958 997.068909,117.149429 1000.964844,118.505005 
z"/>
<path fill="#202020" opacity="1.000000" stroke="none" 
	d="
M695.616211,125.346283 
	C701.441345,111.099556 700.934631,103.782196 693.112732,86.422874 
	C697.533447,86.842422 702.581116,95.980461 703.527100,105.276512 
	C704.581665,115.639420 699.334717,128.978867 692.811218,131.062347 
	C693.818359,129.014236 694.633606,127.356544 695.616211,125.346283 
z"/>
<path fill="#202020" opacity="1.000000" stroke="none" 
	d="
M922.243774,114.825500 
	C922.243774,108.066650 922.243774,101.784645 922.243774,94.583176 
	C924.122375,95.335999 925.444458,95.865784 926.503357,96.290115 
	C929.226440,95.906105 932.034790,95.510071 934.843140,95.114037 
	C935.044189,95.769775 935.245239,96.425514 935.446289,97.081253 
	C934.442139,97.666924 933.367249,98.847992 932.445679,98.738480 
	C927.640198,98.167427 926.670166,101.435959 926.465698,104.845245 
	C926.150146,110.106239 926.382568,115.400093 926.382568,120.862915 
	C924.871399,120.862915 923.763855,120.862915 922.243713,120.862915 
	C922.243713,118.894432 922.243713,117.098389 922.243774,114.825500 
z"/>
<path fill="#202020" opacity="1.000000" stroke="none" 
	d="
M777.017639,95.948967 
	C778.123169,97.329666 778.797363,98.703926 779.794312,100.736084 
	C777.349731,100.736084 775.991272,100.736084 772.881775,100.736084 
	C774.573364,98.547188 775.579834,97.244858 777.017639,95.948967 
z"/>
<path fill="#202020" opacity="1.000000" stroke="none" 
	d="
M774.290405,119.772888 
	C773.727112,115.840782 775.614746,115.462883 778.696838,116.277519 
	C778.785583,117.565926 778.882141,118.967941 779.033325,121.163124 
	C777.184265,120.783478 775.757263,120.490494 774.290405,119.772888 
z"/>
<path fill="#FEFEFE" opacity="1.000000" stroke="none" 
	d="
M1406.000000,45.000626 
	C1471.145020,45.000626 1535.790039,45.000626 1600.749023,45.000626 
	C1600.749023,83.589973 1600.749023,121.990265 1600.749023,160.695328 
	C1469.146851,160.695328 1337.407959,160.695328 1205.351318,160.695328 
	C1205.351318,122.420151 1205.351318,84.020065 1205.351318,45.000626 
	C1271.990723,45.000626 1338.745361,45.000626 1406.000000,45.000626 
M1334.147949,89.585793 
	C1334.148071,97.550430 1334.266968,105.517632 1334.094971,113.478546 
	C1334.016357,117.117661 1335.377319,117.752197 1338.668701,116.354614 
	C1338.668701,112.063148 1338.668701,107.792336 1338.668701,103.503845 
	C1343.688721,103.054123 1348.504150,103.007446 1353.151001,102.098503 
	C1357.819214,101.185417 1360.385010,97.122147 1360.182007,92.047867 
	C1359.991455,87.285316 1358.025879,83.340576 1352.956421,82.723022 
	C1346.820068,81.975479 1340.583740,82.046829 1334.147949,81.752716 
	C1334.147949,84.663498 1334.147949,86.637154 1334.147949,89.585793 
M1365.695435,101.494476 
	C1365.695435,106.592224 1365.695435,111.689964 1365.695435,116.787712 
	C1366.261719,117.030571 1366.828003,117.273438 1367.394287,117.516304 
	C1368.154053,116.318039 1369.477661,115.162125 1369.571533,113.913818 
	C1369.895264,109.604134 1369.661621,105.255608 1369.884888,100.934509 
	C1370.103027,96.711884 1372.681030,94.553024 1376.773193,94.684624 
	C1380.969604,94.819588 1381.718506,97.897255 1381.701050,101.380783 
	C1381.675537,106.498703 1381.694458,111.616829 1381.694458,116.734871 
	C1382.138672,117.026405 1382.582886,117.317947 1383.027100,117.609489 
	C1383.961304,116.632393 1385.665894,115.682549 1385.701660,114.673630 
	C1385.895630,109.188049 1385.987793,103.661140 1385.516113,98.200195 
	C1385.031006,92.583649 1380.046021,89.695305 1374.602905,91.423836 
	C1373.068359,91.911133 1371.610840,92.641106 1369.674194,93.443687 
	C1369.674194,90.714195 1369.639893,88.399284 1369.683350,86.085846 
	C1369.732666,83.467781 1369.963257,80.732765 1365.695435,82.508224 
	C1365.695435,88.514542 1365.695435,94.505905 1365.695435,101.494476 
M1484.378784,108.924477 
	C1484.815308,117.379601 1490.315308,119.079903 1500.546143,114.714996 
	C1502.752808,115.831367 1504.291748,116.609947 1505.687622,117.316109 
	C1505.687622,111.148346 1505.737427,105.857506 1505.674805,100.567986 
	C1505.598633,94.130554 1503.916016,91.976089 1498.464722,91.087479 
	C1492.026489,90.037979 1487.231445,92.544289 1485.129028,99.031052 
	C1487.014648,98.343735 1488.761841,98.259399 1489.399658,97.374962 
	C1491.685547,94.205177 1494.801636,94.035179 1497.843140,95.073792 
	C1499.334595,95.583092 1500.284302,97.679367 1501.479126,99.057411 
	C1500.230957,100.031036 1499.115967,101.363625 1497.701294,101.888863 
	C1495.867065,102.569901 1493.557495,102.153267 1491.878540,103.027466 
	C1489.261475,104.390282 1487.002808,106.441177 1484.378784,108.924477 
M1274.713135,97.624535 
	C1277.337402,96.762405 1280.150024,94.936966 1282.515381,95.399475 
	C1283.933838,95.676811 1285.330933,99.465179 1285.547241,101.786507 
	C1286.006470,106.713097 1285.687256,111.712234 1285.687256,116.681625 
	C1286.160645,116.959671 1286.633911,117.237709 1287.107300,117.515755 
	C1287.959961,116.393036 1289.490601,115.303932 1289.548340,114.141823 
	C1289.803589,108.991364 1289.870728,103.805771 1289.559692,98.659866 
	C1289.205322,92.794922 1284.146118,89.587349 1278.538818,91.410889 
	C1277.001343,91.910904 1275.584473,92.782394 1274.993042,93.064056 
	C1272.982300,92.102379 1271.596313,91.439491 1269.682983,90.524399 
	C1269.682983,99.088943 1269.679199,106.582268 1269.688354,114.075562 
	C1269.689331,114.901863 1269.764404,115.728081 1269.823120,116.916794 
	C1271.105347,116.846626 1272.280884,116.782295 1273.310303,116.725967 
	C1273.660889,110.331001 1273.988037,104.366974 1274.713135,97.624535 
M1512.350708,115.866562 
	C1513.510132,116.334343 1514.669434,116.802132 1516.725342,117.631676 
	C1516.725342,110.956978 1516.451538,105.310928 1516.820068,99.707123 
	C1517.072021,95.875496 1520.087769,94.488892 1523.615112,94.691238 
	C1527.175049,94.895454 1528.280396,97.366219 1528.286255,100.559525 
	C1528.294556,105.042908 1528.398438,109.529045 1528.273071,114.008736 
	C1528.182983,117.232513 1529.589600,117.616562 1532.303345,116.538712 
	C1532.303345,110.640450 1532.468262,104.828918 1532.258911,99.030907 
	C1532.030518,92.711769 1526.681030,89.354164 1520.711182,91.592781 
	C1519.344238,92.105423 1518.076660,92.882912 1517.273071,93.284050 
	C1515.893677,92.361786 1514.858032,91.669319 1513.822388,90.976807 
	C1513.314819,92.166565 1512.393066,93.347816 1512.368408,94.547501 
	C1512.228760,101.352837 1512.303711,108.162582 1512.350708,115.866562 
M1421.393677,116.470688 
	C1424.322266,116.317596 1427.688232,117.002678 1430.052734,115.768715 
	C1432.285400,114.603607 1434.313965,111.615593 1434.897461,109.076714 
	C1435.665771,105.732986 1432.985962,103.716057 1429.759155,102.826508 
	C1427.518433,102.208817 1425.178467,101.775269 1423.103149,100.793732 
	C1421.656372,100.109444 1420.582642,98.636261 1419.342285,97.515465 
	C1420.900146,96.538467 1422.451904,94.794983 1424.017456,94.782562 
	C1425.886597,94.767723 1427.779663,96.208511 1429.639038,97.069313 
	C1430.873535,97.640739 1432.066895,98.300850 1434.031372,99.306671 
	C1433.500366,93.766586 1430.787476,91.506073 1427.368530,91.464226 
	C1423.968384,91.422623 1420.008423,92.123535 1417.275513,93.959862 
	C1413.854126,96.258919 1414.852783,101.532112 1418.618896,103.535355 
	C1420.783691,104.686882 1423.428711,104.930969 1425.605591,106.066528 
	C1427.539673,107.075371 1430.769653,109.072227 1430.573486,110.074028 
	C1429.837891,113.829926 1426.334106,113.838135 1423.358521,113.047195 
	C1421.796997,112.632179 1420.596069,110.972061 1419.139404,110.015839 
	C1418.035889,109.291428 1416.785156,108.791176 1415.599854,108.191132 
	C1415.121216,108.912498 1414.642578,109.633865 1414.163818,110.355232 
	C1416.318359,112.307762 1418.473022,114.260284 1421.393677,116.470688 
M1300.983765,104.688324 
	C1303.526123,105.424164 1306.144775,105.976257 1308.573853,106.985031 
	C1309.565308,107.396774 1310.775391,108.818710 1310.745117,109.743629 
	C1310.711426,110.769638 1309.573364,112.279724 1308.568726,112.659264 
	C1305.096680,113.971077 1301.819336,113.888687 1299.260742,110.434822 
	C1298.481445,109.382843 1296.887817,108.934044 1295.667236,108.209000 
	C1297.338623,117.101715 1307.075806,119.793633 1312.811157,114.316833 
	C1316.677979,110.624329 1315.638306,105.058304 1310.584229,103.091812 
	C1308.126221,102.135437 1305.398804,101.836296 1303.002686,100.769516 
	C1301.568970,100.131325 1300.539917,98.584206 1299.328857,97.445709 
	C1300.736938,96.500938 1302.182373,94.739731 1303.544556,94.801941 
	C1305.608032,94.896194 1307.629028,96.222816 1309.637817,97.095901 
	C1310.881470,97.636497 1312.068848,98.306870 1314.263428,99.414642 
	C1312.199585,92.504501 1307.377319,89.486351 1302.026489,91.403351 
	C1299.459717,92.322891 1296.619995,94.841621 1295.663574,97.316246 
	C1294.378174,100.642250 1296.877808,103.196571 1300.983765,104.688324 
M1394.413574,127.029312 
	C1396.424438,125.786316 1399.523560,124.999451 1400.267212,123.225334 
	C1404.651245,112.765411 1408.486938,102.075706 1412.538818,91.380272 
	C1407.692749,89.985435 1407.808350,93.437874 1406.929565,95.686813 
	C1405.962158,98.163239 1405.153076,100.701286 1404.259888,103.207092 
	C1403.427490,105.542076 1402.575439,107.870041 1401.292480,111.416153 
	C1398.989258,104.711136 1397.024292,99.438049 1395.393921,94.063499 
	C1394.527222,91.206627 1393.173096,90.168373 1390.140015,91.500038 
	C1392.630249,98.345100 1395.126831,105.181976 1397.604858,112.025627 
	C1400.322388,119.530357 1399.356812,121.505943 1391.320557,123.915588 
	C1392.174194,125.033371 1392.894043,125.975883 1394.413574,127.029312 
M1450.756226,98.347321 
	C1450.692017,101.955101 1450.044800,105.673264 1450.702148,109.144402 
	C1451.650757,114.153641 1456.417236,117.239197 1461.424316,117.042656 
	C1466.550049,116.841454 1469.805908,113.737793 1470.379639,107.436821 
	C1468.918701,107.880699 1467.873901,108.869614 1466.698853,109.666779 
	C1464.767944,110.976791 1462.634644,113.295593 1460.804199,113.104561 
	C1458.670654,112.881882 1455.834351,110.811531 1455.003418,108.829971 
	C1453.933105,106.277267 1453.837524,102.794762 1454.667480,100.132118 
	C1455.324585,98.024361 1457.805664,95.492966 1459.852295,95.098595 
	C1461.774414,94.728226 1464.177856,96.935638 1466.390503,97.963676 
	C1467.660645,98.553749 1468.972534,99.054039 1471.157959,99.967911 
	C1469.466675,93.688705 1466.349487,91.183441 1461.711060,91.035843 
	C1456.847656,90.881081 1452.972046,92.830360 1450.756226,98.347321 
M1478.149780,116.975311 
	C1478.474731,116.485046 1479.079346,115.996819 1479.082886,115.504196 
	C1479.141724,107.444023 1479.124634,99.383301 1479.124634,91.322701 
	C1478.656982,91.042274 1478.189331,90.761848 1477.721558,90.481422 
	C1476.858276,91.586288 1475.286987,92.666595 1475.247681,93.800072 
	C1475.012817,100.569092 1475.044312,107.352715 1475.227051,114.124924 
	C1475.253784,115.116737 1476.565186,116.073898 1478.149780,116.975311 
M1441.528198,90.987045 
	C1441.171875,91.277657 1440.507935,91.564034 1440.503906,91.859512 
	C1440.396851,99.620872 1440.265991,107.385361 1440.450562,115.141899 
	C1440.468872,115.916977 1442.473999,116.644814 1444.303955,117.911537 
	C1444.303955,108.904854 1444.378052,101.468513 1444.219604,94.037086 
	C1444.197266,92.994934 1443.035522,91.977074 1441.528198,90.987045 
M1323.487427,91.943916 
	C1322.837280,93.298927 1322.187012,94.653946 1321.536743,96.008942 
	C1322.922974,96.411095 1324.309082,96.813255 1325.695312,97.215408 
	C1326.047974,96.871521 1326.400635,96.527634 1326.753296,96.183746 
	C1325.925049,94.770920 1325.096924,93.358101 1323.487427,91.943916 
M1323.487427,111.943932 
	C1322.837280,113.298943 1322.187012,114.653961 1321.536743,116.008949 
	C1322.922974,116.411110 1324.309082,116.813271 1325.695312,117.215431 
	C1326.028198,116.837746 1326.360962,116.460060 1326.693848,116.082382 
	C1325.885498,114.703339 1325.077148,113.324303 1323.487427,111.943932 
z"/>
<path fill="#FEFEFE" opacity="1.000000" stroke="none" 
	d="
M169.000000,161.001785 
	C127.523796,161.001785 86.547592,161.001785 45.284981,161.001785 
	C45.284981,122.378212 45.284981,83.973434 45.284981,45.283092 
	C176.957626,45.283092 308.693207,45.283092 440.716003,45.283092 
	C440.716003,83.621887 440.716003,122.026665 440.716003,161.001785 
	C350.352966,161.001785 259.926483,161.001785 169.000000,161.001785 
M218.528275,90.587463 
	C216.280624,83.776154 210.259964,80.615509 202.718719,82.287979 
	C197.247421,83.501381 194.065216,86.655106 193.994110,91.079826 
	C193.907379,96.478043 197.668427,98.528717 202.001160,99.894379 
	C205.317642,100.939720 208.849960,101.427635 212.002777,102.810036 
	C213.529434,103.479439 215.269028,105.597458 215.333054,107.125778 
	C215.397415,108.661873 213.856125,110.850601 212.398651,111.759949 
	C207.136658,115.043037 199.962448,112.661736 197.043900,107.286606 
	C196.443832,106.181442 194.724625,105.683952 192.645554,104.340515 
	C194.178696,114.766006 202.370438,119.124207 211.801086,116.237587 
	C216.416840,114.824753 219.444931,111.993622 219.656647,107.091568 
	C219.879883,101.922546 216.454666,99.350021 211.958572,97.992012 
	C208.309891,96.889961 204.524994,96.177917 200.982330,94.818924 
	C199.734741,94.340332 198.328308,92.489311 198.266296,91.203583 
	C198.202896,89.889038 199.389526,88.065865 200.569870,87.221481 
	C204.541931,84.379929 211.152466,86.090027 214.197342,90.051651 
	C214.924881,90.998199 216.987549,90.918556 218.528275,90.587463 
M280.549927,115.098495 
	C281.918335,115.843208 283.286713,116.587921 285.182434,117.619606 
	C285.182434,105.233322 285.182434,93.799210 285.182434,82.187057 
	C283.975525,82.187057 282.876068,82.187057 281.366058,82.187057 
	C281.366058,86.133965 281.366058,89.883583 281.366058,93.851463 
	C274.790924,90.104103 270.802887,90.299744 267.216492,94.291405 
	C263.366516,98.576439 263.036133,107.630676 266.550720,112.537292 
	C269.623260,116.826744 274.076477,117.851822 280.549927,115.098495 
M295.712067,114.976768 
	C304.366821,119.101738 311.086121,116.692177 312.957214,107.792435 
	C311.140717,108.579102 309.371582,108.771629 308.754181,109.716606 
	C306.622253,112.979767 303.868866,114.151932 300.256042,112.983147 
	C296.626801,111.809044 295.276459,108.996330 295.228485,104.965927 
	C301.327148,104.965927 307.242828,104.965927 313.113800,104.965927 
	C313.644012,98.346809 311.741730,94.278259 307.320831,92.143570 
	C302.901642,90.009712 297.871399,90.824936 294.433899,94.232109 
	C289.507050,99.115486 289.816193,108.654816 295.712067,114.976768 
M130.678619,117.016502 
	C133.322433,117.506447 133.649643,116.040794 133.625610,113.859131 
	C133.576126,109.367325 133.589600,104.862427 133.882736,100.382912 
	C134.147873,96.331642 136.830185,94.520271 140.664841,94.650986 
	C144.523788,94.782501 145.602127,97.513771 145.626343,100.851494 
	C145.664703,106.141449 145.636551,111.431900 145.636551,116.722137 
	C146.095596,117.006073 146.554657,117.290009 147.013702,117.573944 
	C147.870163,116.570602 149.420486,115.597931 149.466415,114.558777 
	C149.701431,109.240623 149.786285,103.891068 149.467575,98.579857 
	C149.117676,92.748970 143.992737,89.571281 138.398575,91.437469 
	C136.878662,91.944511 135.472931,92.793846 135.094742,92.973389 
	C132.876282,92.023972 131.501144,91.435471 129.890350,90.746109 
	C129.890350,100.015823 129.890350,108.330765 130.678619,117.016502 
M164.494537,90.960220 
	C163.510361,91.082977 162.500885,91.105469 161.546539,91.346390 
	C158.021057,92.236389 155.432205,94.196365 155.327820,98.096275 
	C155.227005,101.863510 157.837311,103.660294 161.040054,104.709137 
	C162.766876,105.274635 164.712372,105.352798 166.277786,106.182076 
	C167.977142,107.082306 169.349670,108.599495 170.864731,109.847656 
	C168.931747,111.047775 167.044907,113.094612 165.052444,113.203217 
	C163.165482,113.306061 161.159622,111.390793 159.221588,110.334595 
	C157.996582,109.666985 156.800018,108.947151 155.590698,108.250740 
	C157.341217,116.990036 166.502335,119.680649 172.428864,114.584946 
	C176.687881,110.922997 175.725983,105.110519 170.420639,103.054375 
	C168.114532,102.160622 165.541229,101.899544 163.323212,100.854591 
	C161.771973,100.123772 160.617493,98.550804 159.285797,97.353966 
	C161.041626,96.421646 162.772141,94.820503 164.560699,94.752815 
	C166.214188,94.690239 167.925735,96.278633 169.619537,97.124283 
	C170.828781,97.728004 172.050964,98.305824 174.121826,99.309212 
	C173.062302,92.822525 169.485504,91.535271 164.494537,90.960220 
M329.567047,94.582527 
	C333.573425,94.686089 335.121704,96.952713 335.084259,100.728439 
	C335.039673,105.224129 334.908539,109.731773 335.200958,114.209023 
	C335.274628,115.337433 336.819763,116.369728 337.688690,117.446190 
	C338.144958,117.144386 338.601227,116.842583 339.057495,116.540779 
	C339.057495,115.406174 339.058899,114.271576 339.057220,113.136971 
	C339.050018,108.307922 339.238831,103.468468 338.984192,98.652473 
	C338.666779,92.648933 333.288452,89.422279 327.514130,91.599068 
	C326.023468,92.161018 324.658844,93.057343 324.347778,93.219757 
	C322.343933,92.139824 321.054260,91.444778 319.081757,90.381729 
	C319.081757,99.084503 319.154633,106.568031 319.048523,114.049034 
	C319.001251,117.383476 320.402618,117.612114 323.147034,116.361557 
	C323.147034,111.452995 323.066986,106.633430 323.173096,101.817970 
	C323.253815,98.154366 324.615265,95.315086 329.567047,94.582527 
M243.046555,101.412323 
	C243.046555,97.984718 243.046555,94.557121 243.046555,91.129517 
	C242.500626,90.875771 241.954697,90.622025 241.408768,90.368271 
	C240.591064,91.431580 239.108932,92.470192 239.068329,93.562393 
	C238.871170,98.865654 238.810272,104.200722 239.179016,109.491203 
	C239.595505,115.466431 245.133621,118.585526 250.760803,116.284882 
	C252.197144,115.697632 253.509140,114.806236 253.839920,114.624634 
	C255.793823,115.776352 257.052948,116.518539 259.045868,117.693260 
	C259.045868,108.927666 258.955811,101.466179 259.087433,94.008606 
	C259.145142,90.740738 257.680725,90.562416 254.820267,91.421577 
	C254.820267,96.857185 255.014618,102.154373 254.756287,107.429382 
	C254.563583,111.364159 251.965958,113.413567 248.116669,113.364273 
	C244.344116,113.315948 243.022537,110.811790 243.049255,107.351372 
	C243.062088,105.690910 243.048294,104.030235 243.046555,101.412323 
M350.385223,84.100655 
	C344.126251,83.043755 348.937134,91.982056 343.529327,91.693687 
	C343.510315,92.191292 343.377106,92.720985 343.505371,93.177177 
	C343.625946,93.605957 344.084106,93.927422 344.286713,94.347694 
	C345.093750,96.021805 346.342743,97.662849 346.535431,99.414322 
	C346.897308,102.704086 346.620850,106.062111 346.643768,109.391518 
	C346.690674,116.210533 348.112244,117.431694 356.977966,116.368950 
	C346.624695,110.746140 351.936615,102.352730 350.632965,95.896416 
	C352.408325,94.536873 353.572784,93.645142 354.737274,92.753410 
	C353.464905,91.843071 352.192505,90.932739 350.579620,89.778778 
	C350.579620,88.458855 350.579620,86.630196 350.385223,84.100655 
M233.987503,113.299721 
	C232.780106,112.120010 230.642578,111.021523 230.531204,109.746109 
	C230.115875,104.990135 230.365326,100.176109 230.365326,96.048874 
	C232.091599,94.623627 233.323853,93.606262 234.556091,92.588898 
	C233.241165,91.726303 231.926239,90.863716 230.459671,89.901649 
	C230.376358,88.115189 230.278671,86.020996 230.181000,83.926804 
	C227.152420,86.486244 225.167847,89.501518 223.315659,92.596016 
	C223.130386,92.905571 223.732346,93.704391 223.997940,94.262337 
	C224.794388,95.935524 226.157928,97.555519 226.302567,99.279945 
	C226.675964,103.731377 226.311722,108.242065 226.628113,112.701706 
	C226.884003,116.308632 229.680679,116.952789 232.761337,117.079735 
	C235.607788,117.197037 235.102051,115.606117 233.987503,113.299721 
M184.225204,111.944557 
	C179.687271,111.817360 181.840012,114.780670 181.650452,116.883652 
	C183.240067,116.883652 184.503128,116.883652 186.528351,116.883652 
	C185.945648,115.020515 185.473816,113.511902 184.225204,111.944557 
M183.445312,91.942230 
	C182.573730,93.346855 181.702148,94.751480 180.239166,97.109222 
	C183.200714,96.947174 184.545074,96.873611 187.118530,96.732796 
	C185.861557,94.649582 185.045486,93.297089 183.445312,91.942230 
z"/>
<path fill="#F9F9F9" opacity="1.000000" stroke="none" 
	d="
M880.315796,102.873604 
	C876.241394,102.921776 872.610413,102.921776 868.785278,102.921776 
	C868.785278,98.624275 868.785278,94.680290 868.785278,90.111732 
	C872.782654,90.111732 876.958740,89.586273 880.887207,90.344353 
	C882.716003,90.697250 884.893799,93.309227 885.449524,95.304802 
	C886.460876,98.937050 884.619812,101.741043 880.315796,102.873604 
z"/>
<path fill="#EEEEEE" opacity="1.000000" stroke="none" 
	d="
M911.507568,110.780350 
	C910.036072,116.302078 905.461121,119.036674 901.138123,116.889702 
	C899.951111,116.300133 898.768738,113.684769 899.120178,112.428688 
	C899.881042,109.709366 908.688782,108.498878 911.507568,110.780350 
z"/>
<path fill="#EEEEEE" opacity="1.000000" stroke="none" 
	d="
M827.055298,109.027061 
	C830.910400,110.939804 828.871582,113.394875 827.437622,114.872879 
	C826.082703,116.269325 823.617554,117.459442 821.780579,117.283195 
	C819.766907,117.089989 817.913269,115.229073 815.989868,114.094894 
	C817.582703,112.749893 818.999939,111.038643 820.819336,110.165916 
	C822.537903,109.341568 824.679199,109.398735 827.055298,109.027061 
z"/>
<path fill="#E0E0E0" opacity="1.000000" stroke="none" 
	d="
M941.378967,104.261932 
	C942.580750,99.940887 945.389221,98.141907 949.317688,98.564499 
	C952.799377,98.939049 955.077209,100.926735 955.264954,105.914177 
	C950.512451,105.478539 945.936157,105.059052 941.378967,104.261932 
z"/>
<path fill="#E0E0E0" opacity="1.000000" stroke="none" 
	d="
M675.402466,98.569122 
	C680.071350,98.533112 682.884338,100.239632 683.262390,105.296730 
	C678.496399,105.296730 674.037415,105.296730 669.210083,105.296730 
	C669.746582,101.446129 671.573242,99.341942 675.402466,98.569122 
z"/>
<path fill="#F9F9F9" opacity="1.000000" stroke="none" 
	d="
M602.474609,111.221764 
	C602.426880,108.679230 602.198608,106.474922 602.602905,104.393486 
	C603.327026,100.665390 606.035034,98.039703 609.605042,98.807793 
	C612.182983,99.362442 615.023010,101.787949 616.341675,104.159851 
	C617.458984,106.169670 617.387207,109.708649 616.335938,111.821960 
	C615.188354,114.129044 612.550415,116.584602 610.128784,117.163734 
	C606.305176,118.078140 603.598816,115.535881 602.474609,111.221764 
z"/>
<path fill="#171717" opacity="1.000000" stroke="none" 
	d="
M1334.147949,89.098297 
	C1334.147949,86.637154 1334.147949,84.663498 1334.147949,81.752716 
	C1340.583740,82.046829 1346.820068,81.975479 1352.956421,82.723022 
	C1358.025879,83.340576 1359.991455,87.285316 1360.182007,92.047867 
	C1360.385010,97.122147 1357.819214,101.185417 1353.151001,102.098503 
	C1348.504150,103.007446 1343.688721,103.054123 1338.668701,103.503845 
	C1338.668701,107.792336 1338.668701,112.063148 1338.668701,116.354614 
	C1335.377319,117.752197 1334.016357,117.117661 1334.094971,113.478546 
	C1334.266968,105.517632 1334.148071,97.550430 1334.147949,89.098297 
M1349.989380,86.050858 
	C1346.245850,86.050858 1342.502319,86.050858 1338.839111,86.050858 
	C1338.839111,90.675522 1338.839111,94.613907 1338.839111,98.962936 
	C1342.166870,98.962936 1345.292603,98.938560 1348.417725,98.969421 
	C1351.931519,99.004120 1354.801147,97.861206 1355.521240,94.126221 
	C1356.257935,90.305443 1355.203979,87.165871 1349.989380,86.050858 
z"/>
<path fill="#1B1B1B" opacity="1.000000" stroke="none" 
	d="
M1365.695435,100.995865 
	C1365.695435,94.505905 1365.695435,88.514542 1365.695435,82.508224 
	C1369.963257,80.732765 1369.732666,83.467781 1369.683350,86.085846 
	C1369.639893,88.399284 1369.674194,90.714195 1369.674194,93.443687 
	C1371.610840,92.641106 1373.068359,91.911133 1374.602905,91.423836 
	C1380.046021,89.695305 1385.031006,92.583649 1385.516113,98.200195 
	C1385.987793,103.661140 1385.895630,109.188049 1385.701660,114.673630 
	C1385.665894,115.682549 1383.961304,116.632393 1383.027100,117.609489 
	C1382.582886,117.317947 1382.138672,117.026405 1381.694458,116.734871 
	C1381.694458,111.616829 1381.675537,106.498703 1381.701050,101.380783 
	C1381.718506,97.897255 1380.969604,94.819588 1376.773193,94.684624 
	C1372.681030,94.553024 1370.103027,96.711884 1369.884888,100.934509 
	C1369.661621,105.255608 1369.895264,109.604134 1369.571533,113.913818 
	C1369.477661,115.162125 1368.154053,116.318039 1367.394287,117.516304 
	C1366.828003,117.273438 1366.261719,117.030571 1365.695435,116.787712 
	C1365.695435,111.689964 1365.695435,106.592224 1365.695435,100.995865 
z"/>
<path fill="#1B1B1B" opacity="1.000000" stroke="none" 
	d="
M1484.485474,108.562485 
	C1487.002808,106.441177 1489.261475,104.390282 1491.878540,103.027466 
	C1493.557495,102.153267 1495.867065,102.569901 1497.701294,101.888863 
	C1499.115967,101.363625 1500.230957,100.031036 1501.479126,99.057411 
	C1500.284302,97.679367 1499.334595,95.583092 1497.843140,95.073792 
	C1494.801636,94.035179 1491.685547,94.205177 1489.399658,97.374962 
	C1488.761841,98.259399 1487.014648,98.343735 1485.129028,99.031052 
	C1487.231445,92.544289 1492.026489,90.037979 1498.464722,91.087479 
	C1503.916016,91.976089 1505.598633,94.130554 1505.674805,100.567986 
	C1505.737427,105.857506 1505.687622,111.148346 1505.687622,117.316109 
	C1504.291748,116.609947 1502.752808,115.831367 1500.546143,114.714996 
	C1490.315308,119.079903 1484.815308,117.379601 1484.485474,108.562485 
M1501.560547,107.186432 
	C1501.298828,106.481728 1500.936768,105.142113 1500.790283,105.165306 
	C1497.250122,105.725502 1493.683105,106.257408 1490.249756,107.242950 
	C1489.471558,107.466354 1488.619385,109.459480 1488.805542,110.449036 
	C1488.993164,111.446350 1490.281494,112.582321 1491.346924,113.007385 
	C1495.428101,114.635918 1499.517578,112.495407 1501.560547,107.186432 
z"/>
<path fill="#1B1B1B" opacity="1.000000" stroke="none" 
	d="
M1274.514160,98.013748 
	C1273.988037,104.366974 1273.660889,110.331001 1273.310303,116.725967 
	C1272.280884,116.782295 1271.105347,116.846626 1269.823120,116.916794 
	C1269.764404,115.728081 1269.689331,114.901863 1269.688354,114.075562 
	C1269.679199,106.582268 1269.682983,99.088943 1269.682983,90.524399 
	C1271.596313,91.439491 1272.982300,92.102379 1274.993042,93.064056 
	C1275.584473,92.782394 1277.001343,91.910904 1278.538818,91.410889 
	C1284.146118,89.587349 1289.205322,92.794922 1289.559692,98.659866 
	C1289.870728,103.805771 1289.803589,108.991364 1289.548340,114.141823 
	C1289.490601,115.303932 1287.959961,116.393036 1287.107300,117.515755 
	C1286.633911,117.237709 1286.160645,116.959671 1285.687256,116.681625 
	C1285.687256,111.712234 1286.006470,106.713097 1285.547241,101.786507 
	C1285.330933,99.465179 1283.933838,95.676811 1282.515381,95.399475 
	C1280.150024,94.936966 1277.337402,96.762405 1274.514160,98.013748 
z"/>
<path fill="#202020" opacity="1.000000" stroke="none" 
	d="
M1512.328125,115.418694 
	C1512.303711,108.162582 1512.228760,101.352837 1512.368408,94.547501 
	C1512.393066,93.347816 1513.314819,92.166565 1513.822388,90.976830 
	C1514.858032,91.669319 1515.893677,92.361786 1517.273071,93.284050 
	C1518.076660,92.882912 1519.344238,92.105423 1520.711182,91.592781 
	C1526.681030,89.354164 1532.030518,92.711769 1532.258911,99.030907 
	C1532.468262,104.828918 1532.303345,110.640450 1532.303345,116.538712 
	C1529.589600,117.616562 1528.182983,117.232513 1528.273071,114.008736 
	C1528.398438,109.529045 1528.294556,105.042908 1528.286255,100.559525 
	C1528.280396,97.366219 1527.175049,94.895454 1523.615112,94.691238 
	C1520.087769,94.488892 1517.072021,95.875496 1516.820068,99.707123 
	C1516.451538,105.310928 1516.725342,110.956978 1516.725342,117.631676 
	C1514.669434,116.802132 1513.510132,116.334343 1512.328125,115.418694 
z"/>
<path fill="#191919" opacity="1.000000" stroke="none" 
	d="
M1421.010620,116.341751 
	C1418.473022,114.260284 1416.318359,112.307762 1414.163818,110.355232 
	C1414.642578,109.633865 1415.121216,108.912498 1415.599854,108.191132 
	C1416.785156,108.791176 1418.035889,109.291428 1419.139404,110.015839 
	C1420.596069,110.972061 1421.796997,112.632179 1423.358521,113.047195 
	C1426.334106,113.838135 1429.837891,113.829926 1430.573486,110.074028 
	C1430.769653,109.072227 1427.539673,107.075371 1425.605591,106.066528 
	C1423.428711,104.930969 1420.783691,104.686882 1418.618896,103.535355 
	C1414.852783,101.532112 1413.854126,96.258919 1417.275513,93.959862 
	C1420.008423,92.123535 1423.968384,91.422623 1427.368530,91.464226 
	C1430.787476,91.506073 1433.500366,93.766586 1434.031372,99.306671 
	C1432.066895,98.300850 1430.873535,97.640739 1429.639038,97.069313 
	C1427.779663,96.208511 1425.886597,94.767723 1424.017456,94.782562 
	C1422.451904,94.794983 1420.900146,96.538467 1419.342285,97.515472 
	C1420.582642,98.636261 1421.656372,100.109444 1423.103149,100.793732 
	C1425.178467,101.775269 1427.518433,102.208817 1429.759155,102.826508 
	C1432.985962,103.716057 1435.665771,105.732986 1434.897461,109.076714 
	C1434.313965,111.615593 1432.285400,114.603607 1430.052734,115.768715 
	C1427.688232,117.002678 1424.322266,116.317596 1421.010620,116.341751 
z"/>
<path fill="#191919" opacity="1.000000" stroke="none" 
	d="
M1300.642578,104.510773 
	C1296.877808,103.196571 1294.378174,100.642250 1295.663574,97.316246 
	C1296.619995,94.841621 1299.459717,92.322891 1302.026489,91.403351 
	C1307.377319,89.486351 1312.199585,92.504501 1314.263428,99.414642 
	C1312.068848,98.306870 1310.881470,97.636497 1309.637817,97.095901 
	C1307.629028,96.222816 1305.608032,94.896194 1303.544556,94.801941 
	C1302.182373,94.739731 1300.736938,96.500938 1299.328857,97.445679 
	C1300.539917,98.584206 1301.568970,100.131325 1303.002686,100.769516 
	C1305.398804,101.836296 1308.126221,102.135437 1310.584229,103.091812 
	C1315.638306,105.058304 1316.677979,110.624329 1312.811157,114.316833 
	C1307.075806,119.793633 1297.338623,117.101715 1295.667236,108.209000 
	C1296.887817,108.934044 1298.481445,109.382843 1299.260742,110.434822 
	C1301.819336,113.888687 1305.096680,113.971077 1308.568726,112.659264 
	C1309.573364,112.279724 1310.711426,110.769638 1310.745117,109.743629 
	C1310.775391,108.818710 1309.565308,107.396774 1308.573853,106.985031 
	C1306.144775,105.976257 1303.526123,105.424164 1300.642578,104.510773 
z"/>
<path fill="#1B1B1B" opacity="1.000000" stroke="none" 
	d="
M1394.013672,126.973854 
	C1392.894043,125.975883 1392.174194,125.033371 1391.320557,123.915588 
	C1399.356812,121.505943 1400.322388,119.530357 1397.604858,112.025627 
	C1395.126831,105.181976 1392.630249,98.345100 1390.140015,91.500038 
	C1393.173096,90.168373 1394.527222,91.206627 1395.393921,94.063499 
	C1397.024292,99.438049 1398.989258,104.711136 1401.292480,111.416153 
	C1402.575439,107.870041 1403.427490,105.542076 1404.259888,103.207092 
	C1405.153076,100.701286 1405.962158,98.163239 1406.929565,95.686813 
	C1407.808350,93.437874 1407.692749,89.985435 1412.538818,91.380272 
	C1408.486938,102.075706 1404.651245,112.765411 1400.267212,123.225334 
	C1399.523560,124.999451 1396.424438,125.786316 1394.013672,126.973854 
z"/>
<path fill="#1B1B1B" opacity="1.000000" stroke="none" 
	d="
M1450.881836,97.988052 
	C1452.972046,92.830360 1456.847656,90.881081 1461.711060,91.035843 
	C1466.349487,91.183441 1469.466675,93.688705 1471.157959,99.967911 
	C1468.972534,99.054039 1467.660645,98.553749 1466.390503,97.963676 
	C1464.177856,96.935638 1461.774414,94.728226 1459.852295,95.098595 
	C1457.805664,95.492966 1455.324585,98.024361 1454.667480,100.132118 
	C1453.837524,102.794762 1453.933105,106.277267 1455.003418,108.829971 
	C1455.834351,110.811531 1458.670654,112.881882 1460.804199,113.104561 
	C1462.634644,113.295593 1464.767944,110.976791 1466.698853,109.666779 
	C1467.873901,108.869614 1468.918701,107.880699 1470.379639,107.436821 
	C1469.805908,113.737793 1466.550049,116.841454 1461.424316,117.042656 
	C1456.417236,117.239197 1451.650757,114.153641 1450.702148,109.144402 
	C1450.044800,105.673264 1450.692017,101.955101 1450.881836,97.988052 
z"/>
<path fill="#202020" opacity="1.000000" stroke="none" 
	d="
M1477.715942,117.011200 
	C1476.565186,116.073898 1475.253784,115.116737 1475.227051,114.124924 
	C1475.044312,107.352715 1475.012817,100.569092 1475.247681,93.800072 
	C1475.286987,92.666595 1476.858276,91.586288 1477.721558,90.481422 
	C1478.189331,90.761848 1478.656982,91.042274 1479.124634,91.322701 
	C1479.124634,99.383301 1479.141724,107.444023 1479.082886,115.504196 
	C1479.079346,115.996819 1478.474731,116.485046 1477.715942,117.011200 
z"/>
<path fill="#202020" opacity="1.000000" stroke="none" 
	d="
M1441.964722,90.967506 
	C1443.035522,91.977074 1444.197266,92.994934 1444.219604,94.037086 
	C1444.378052,101.468513 1444.303955,108.904854 1444.303955,117.911537 
	C1442.473999,116.644814 1440.468872,115.916977 1440.450562,115.141899 
	C1440.265991,107.385361 1440.396851,99.620872 1440.503906,91.859512 
	C1440.507935,91.564034 1441.171875,91.277657 1441.964722,90.967506 
z"/>
<path fill="#202020" opacity="1.000000" stroke="none" 
	d="
M1323.878174,91.944595 
	C1325.096924,93.358101 1325.925049,94.770920 1326.753296,96.183746 
	C1326.400635,96.527634 1326.047974,96.871521 1325.695312,97.215408 
	C1324.309082,96.813255 1322.922974,96.411095 1321.536743,96.008957 
	C1322.187012,94.653946 1322.837280,93.298927 1323.878174,91.944595 
z"/>
<path fill="#202020" opacity="1.000000" stroke="none" 
	d="
M1323.878174,111.944595 
	C1325.077148,113.324303 1325.885498,114.703339 1326.693848,116.082382 
	C1326.360962,116.460060 1326.028198,116.837746 1325.695312,117.215431 
	C1324.309082,116.813271 1322.922974,116.411110 1321.536743,116.008965 
	C1322.187012,114.653961 1322.837280,113.298943 1323.878174,111.944595 
z"/>
<path fill="#131313" opacity="1.000000" stroke="none" 
	d="
M218.482208,90.949173 
	C216.987549,90.918556 214.924881,90.998199 214.197342,90.051651 
	C211.152466,86.090027 204.541931,84.379929 200.569870,87.221481 
	C199.389526,88.065865 198.202896,89.889038 198.266296,91.203583 
	C198.328308,92.489311 199.734741,94.340332 200.982330,94.818924 
	C204.524994,96.177917 208.309891,96.889961 211.958572,97.992012 
	C216.454666,99.350021 219.879883,101.922546 219.656647,107.091568 
	C219.444931,111.993622 216.416840,114.824753 211.801086,116.237587 
	C202.370438,119.124207 194.178696,114.766006 192.645554,104.340515 
	C194.724625,105.683952 196.443832,106.181442 197.043900,107.286606 
	C199.962448,112.661736 207.136658,115.043037 212.398651,111.759949 
	C213.856125,110.850601 215.397415,108.661873 215.333054,107.125778 
	C215.269028,105.597458 213.529434,103.479439 212.002777,102.810036 
	C208.849960,101.427635 205.317642,100.939720 202.001160,99.894379 
	C197.668427,98.528717 193.907379,96.478043 193.994110,91.079826 
	C194.065216,86.655106 197.247421,83.501381 202.718719,82.287979 
	C210.259964,80.615509 216.280624,83.776154 218.482208,90.949173 
z"/>
<path fill="#0F0F0F" opacity="1.000000" stroke="none" 
	d="
M280.140137,115.334793 
	C274.076477,117.851822 269.623260,116.826744 266.550720,112.537292 
	C263.036133,107.630676 263.366516,98.576439 267.216492,94.291405 
	C270.802887,90.299744 274.790924,90.104103 281.366058,93.851463 
	C281.366058,89.883583 281.366058,86.133965 281.366058,82.187057 
	C282.876068,82.187057 283.975525,82.187057 285.182434,82.187057 
	C285.182434,93.799210 285.182434,105.233322 285.182434,117.619606 
	C283.286713,116.587921 281.918335,115.843208 280.140137,115.334793 
M268.167938,105.177727 
	C268.389160,106.314224 268.218475,107.882217 268.905334,108.506050 
	C270.940338,110.354393 273.294250,113.044525 275.560486,113.080582 
	C277.489899,113.111282 280.483215,110.257927 281.213684,108.079544 
	C282.645813,103.808678 282.814026,98.798630 278.490173,95.903877 
	C276.788025,94.764328 273.576172,95.398773 271.217438,95.943123 
	C270.184113,96.181580 269.286102,98.123840 268.832886,99.463676 
	C268.315216,100.994064 268.361176,102.715111 268.167938,105.177727 
z"/>
<path fill="#131313" opacity="1.000000" stroke="none" 
	d="
M295.401947,114.754608 
	C289.816193,108.654816 289.507050,99.115486 294.433899,94.232109 
	C297.871399,90.824936 302.901642,90.009712 307.320831,92.143570 
	C311.741730,94.278259 313.644012,98.346809 313.113800,104.965927 
	C307.242828,104.965927 301.327148,104.965927 295.228485,104.965927 
	C295.276459,108.996330 296.626801,111.809044 300.256042,112.983147 
	C303.868866,114.151932 306.622253,112.979767 308.754181,109.716606 
	C309.371582,108.771629 311.140717,108.579102 312.957214,107.792435 
	C311.086121,116.692177 304.366821,119.101738 295.401947,114.754608 
M306.115570,95.389542 
	C299.500916,93.476166 296.123047,95.400406 295.766785,101.279434 
	C300.172729,101.279434 304.578674,101.279434 310.169556,101.279434 
	C308.700195,98.960365 307.716827,97.408348 306.115570,95.389542 
z"/>
<path fill="#1B1B1B" opacity="1.000000" stroke="none" 
	d="
M130.284485,116.831108 
	C129.890350,108.330765 129.890350,100.015823 129.890350,90.746109 
	C131.501144,91.435471 132.876282,92.023972 135.094742,92.973389 
	C135.472931,92.793846 136.878662,91.944511 138.398575,91.437469 
	C143.992737,89.571281 149.117676,92.748970 149.467575,98.579857 
	C149.786285,103.891068 149.701431,109.240623 149.466415,114.558777 
	C149.420486,115.597931 147.870163,116.570602 147.013702,117.573944 
	C146.554657,117.290009 146.095596,117.006073 145.636551,116.722137 
	C145.636551,111.431900 145.664703,106.141449 145.626343,100.851494 
	C145.602127,97.513771 144.523788,94.782501 140.664841,94.650986 
	C136.830185,94.520271 134.147873,96.331642 133.882736,100.382912 
	C133.589600,104.862427 133.576126,109.367325 133.625610,113.859131 
	C133.649643,116.040794 133.322433,117.506447 130.284485,116.831108 
z"/>
<path fill="#171717" opacity="1.000000" stroke="none" 
	d="
M164.906815,90.971451 
	C169.485504,91.535271 173.062302,92.822525 174.121826,99.309212 
	C172.050964,98.305824 170.828781,97.728004 169.619537,97.124283 
	C167.925735,96.278633 166.214188,94.690239 164.560699,94.752815 
	C162.772141,94.820503 161.041626,96.421646 159.285797,97.353966 
	C160.617493,98.550804 161.771973,100.123772 163.323212,100.854591 
	C165.541229,101.899544 168.114532,102.160622 170.420639,103.054375 
	C175.725983,105.110519 176.687881,110.922997 172.428864,114.584946 
	C166.502335,119.680649 157.341217,116.990036 155.590698,108.250740 
	C156.800018,108.947151 157.996582,109.666985 159.221588,110.334595 
	C161.159622,111.390793 163.165482,113.306061 165.052444,113.203217 
	C167.044907,113.094612 168.931747,111.047775 170.864731,109.847656 
	C169.349670,108.599495 167.977142,107.082306 166.277786,106.182076 
	C164.712372,105.352798 162.766876,105.274635 161.040054,104.709137 
	C157.837311,103.660294 155.227005,101.863510 155.327820,98.096275 
	C155.432205,94.196365 158.021057,92.236389 161.546539,91.346390 
	C162.500885,91.105469 163.510361,91.082977 164.906815,90.971451 
z"/>
<path fill="#1B1B1B" opacity="1.000000" stroke="none" 
	d="
M329.144775,94.646240 
	C324.615265,95.315086 323.253815,98.154366 323.173096,101.817970 
	C323.066986,106.633430 323.147034,111.452995 323.147034,116.361557 
	C320.402618,117.612114 319.001251,117.383476 319.048523,114.049034 
	C319.154633,106.568031 319.081757,99.084503 319.081757,90.381729 
	C321.054260,91.444778 322.343933,92.139824 324.347778,93.219757 
	C324.658844,93.057343 326.023468,92.161018 327.514130,91.599068 
	C333.288452,89.422279 338.666779,92.648933 338.984192,98.652473 
	C339.238831,103.468468 339.050018,108.307922 339.057220,113.136971 
	C339.058899,114.271576 339.057495,115.406174 339.057495,116.540779 
	C338.601227,116.842583 338.144958,117.144386 337.688690,117.446190 
	C336.819763,116.369728 335.274628,115.337433 335.200958,114.209023 
	C334.908539,109.731773 335.039673,105.224129 335.084259,100.728439 
	C335.121704,96.952713 333.573425,94.686089 329.144775,94.646240 
z"/>
<path fill="#191919" opacity="1.000000" stroke="none" 
	d="
M243.046555,101.890991 
	C243.048294,104.030235 243.062088,105.690910 243.049255,107.351372 
	C243.022537,110.811790 244.344116,113.315948 248.116669,113.364273 
	C251.965958,113.413567 254.563583,111.364159 254.756287,107.429382 
	C255.014618,102.154373 254.820267,96.857185 254.820267,91.421577 
	C257.680725,90.562416 259.145142,90.740738 259.087433,94.008606 
	C258.955811,101.466179 259.045868,108.927666 259.045868,117.693260 
	C257.052948,116.518539 255.793823,115.776352 253.839920,114.624634 
	C253.509140,114.806236 252.197144,115.697632 250.760803,116.284882 
	C245.133621,118.585526 239.595505,115.466431 239.179016,109.491203 
	C238.810272,104.200722 238.871170,98.865654 239.068329,93.562393 
	C239.108932,92.470192 240.591064,91.431580 241.408768,90.368271 
	C241.954697,90.622025 242.500626,90.875771 243.046555,91.129517 
	C243.046555,94.557121 243.046555,97.984718 243.046555,101.890991 
z"/>
<path fill="#1B1B1B" opacity="1.000000" stroke="none" 
	d="
M350.482422,84.451096 
	C350.579620,86.630196 350.579620,88.458855 350.579620,89.778778 
	C352.192505,90.932739 353.464905,91.843071 354.737274,92.753403 
	C353.572784,93.645142 352.408325,94.536873 350.632965,95.896416 
	C351.936615,102.352730 346.624695,110.746140 356.977966,116.368950 
	C348.112244,117.431694 346.690674,116.210533 346.643768,109.391518 
	C346.620850,106.062111 346.897308,102.704086 346.535431,99.414322 
	C346.342743,97.662849 345.093750,96.021805 344.286713,94.347694 
	C344.084106,93.927422 343.625946,93.605957 343.505371,93.177177 
	C343.377106,92.720985 343.510315,92.191292 343.529327,91.693687 
	C348.937134,91.982056 344.126251,83.043755 350.482422,84.451096 
z"/>
<path fill="#1B1B1B" opacity="1.000000" stroke="none" 
	d="
M234.299042,113.603600 
	C235.102051,115.606117 235.607788,117.197037 232.761337,117.079735 
	C229.680679,116.952789 226.884003,116.308632 226.628113,112.701706 
	C226.311722,108.242065 226.675964,103.731377 226.302567,99.279945 
	C226.157928,97.555519 224.794388,95.935524 223.997940,94.262337 
	C223.732346,93.704391 223.130386,92.905571 223.315659,92.596016 
	C225.167847,89.501518 227.152420,86.486244 230.181000,83.926804 
	C230.278671,86.020996 230.376358,88.115189 230.459671,89.901649 
	C231.926239,90.863716 233.241165,91.726303 234.556091,92.588898 
	C233.323853,93.606262 232.091599,94.623627 230.365326,96.048874 
	C230.365326,100.176109 230.115875,104.990135 230.531204,109.746109 
	C230.642578,111.021523 232.780106,112.120010 234.299042,113.603600 
z"/>
<path fill="#202020" opacity="1.000000" stroke="none" 
	d="
M184.613602,111.973923 
	C185.473816,113.511902 185.945648,115.020515 186.528351,116.883652 
	C184.503128,116.883652 183.240067,116.883652 181.650452,116.883652 
	C181.840012,114.780670 179.687271,111.817360 184.613602,111.973923 
z"/>
<path fill="#202020" opacity="1.000000" stroke="none" 
	d="
M183.837372,91.943413 
	C185.045486,93.297089 185.861557,94.649582 187.118530,96.732796 
	C184.545074,96.873611 183.200714,96.947174 180.239166,97.109222 
	C181.702148,94.751480 182.573730,93.346855 183.837372,91.943413 
z"/>
<path fill="#F9F9F9" opacity="1.000000" stroke="none" 
	d="
M1350.434082,86.075256 
	C1355.203979,87.165871 1356.257935,90.305443 1355.521240,94.126221 
	C1354.801147,97.861206 1351.931519,99.004120 1348.417725,98.969421 
	C1345.292603,98.938560 1342.166870,98.962936 1338.839111,98.962936 
	C1338.839111,94.613907 1338.839111,90.675522 1338.839111,86.050858 
	C1342.502319,86.050858 1346.245850,86.050858 1350.434082,86.075256 
z"/>
<path fill="#EEEEEE" opacity="1.000000" stroke="none" 
	d="
M1501.510986,107.572731 
	C1499.517578,112.495407 1495.428101,114.635918 1491.346924,113.007385 
	C1490.281494,112.582321 1488.993164,111.446350 1488.805542,110.449036 
	C1488.619385,109.459480 1489.471558,107.466354 1490.249756,107.242950 
	C1493.683105,106.257408 1497.250122,105.725502 1500.790283,105.165306 
	C1500.936768,105.142113 1501.298828,106.481728 1501.510986,107.572731 
z"/>
<path fill="#F3F3F3" opacity="1.000000" stroke="none" 
	d="
M268.165070,104.765518 
	C268.361176,102.715111 268.315216,100.994064 268.832886,99.463676 
	C269.286102,98.123840 270.184113,96.181580 271.217438,95.943123 
	C273.576172,95.398773 276.788025,94.764328 278.490173,95.903877 
	C282.814026,98.798630 282.645813,103.808678 281.213684,108.079544 
	C280.483215,110.257927 277.489899,113.111282 275.560486,113.080582 
	C273.294250,113.044525 270.940338,110.354393 268.905334,108.506050 
	C268.218475,107.882217 268.389160,106.314224 268.165070,104.765518 
z"/>
<path fill="#E0E0E0" opacity="1.000000" stroke="none" 
	d="
M306.424500,95.622940 
	C307.716827,97.408348 308.700195,98.960365 310.169556,101.279434 
	C304.578674,101.279434 300.172729,101.279434 295.764587,101.283401 
	C296.123047,95.400406 299.500916,93.476166 306.424500,95.622940 
z"/>
</svg>