<svg version="1.1" id="Layer_1" xmlns="http://www.w3.org/2000/svg" xmlns:xlink="http://www.w3.org/1999/xlink" x="0px" y="0px"
	 width="100%" viewBox="0 0 1645 206" enable-background="new 0 0 1645 206" xml:space="preserve">
<path fill="#FFFFFF" opacity="1.000000" stroke="none" 
	d="
M1243.000000,207.000000 
	C828.666687,207.000000 414.833374,207.000000 1.000056,207.000000 
	C1.000037,138.333359 1.000037,69.666725 1.000019,1.000065 
	C549.333252,1.000043 1097.666504,1.000043 1645.999756,1.000022 
	C1645.999878,69.666603 1645.999878,138.333206 1646.000000,206.999908 
	C1511.833374,207.000000 1377.666626,207.000000 1243.000000,207.000000 
M1104.349487,117.867638 
	C1113.361572,113.330246 1122.373657,108.792854 1132.019897,103.936172 
	C1132.019897,124.628181 1132.019897,144.664093 1132.019897,164.757431 
	C1293.554565,164.757431 1454.623901,164.757431 1615.754272,164.757431 
	C1615.754272,123.442551 1615.754272,82.371292 1615.754272,41.245880 
	C1454.438599,41.245880 1293.369385,41.245880 1131.777588,41.245880 
	C1131.777588,61.474869 1131.777588,81.462578 1131.777588,101.858452 
	C1117.561646,94.771729 1103.930298,87.976410 1089.156738,80.611694 
	C1092.855103,88.145332 1095.898193,94.343941 1099.200073,101.069748 
	C1050.470459,101.069748 1002.385803,101.069748 953.969055,101.069748 
	C954.131104,102.623680 954.253540,103.797356 954.394165,105.146103 
	C1002.723450,105.146103 1050.656372,105.146103 1099.091187,105.146103 
	C1095.842529,111.785690 1092.772217,118.060623 1089.164673,125.433868 
	C1094.817993,122.579628 1099.232666,120.350761 1104.349487,117.867638 
M263.500000,164.999481 
	C349.593018,164.999481 435.686066,164.999481 522.178345,164.999481 
	C522.178345,144.688950 522.178345,124.947464 522.178345,104.999474 
	C524.222839,104.999474 525.868347,104.999474 527.513855,104.999474 
	C560.346069,104.999474 593.178284,105.004028 626.010498,104.993393 
	C629.892029,104.992134 629.892029,104.953560 629.406982,100.843323 
	C593.713379,100.843323 557.970093,100.843323 521.830444,100.843323 
	C521.830444,80.699951 521.830444,60.958469 521.830444,41.284294 
	C360.361877,41.284294 199.294022,41.284294 38.287613,41.284294 
	C38.287613,82.639679 38.287613,123.710655 38.287613,164.999481 
	C113.216316,164.999481 187.858154,164.999481 263.500000,164.999481 
M849.803711,117.922676 
	C850.248596,118.953072 850.693481,119.983475 851.138367,121.013863 
	C852.226562,120.347374 853.314758,119.680893 854.646118,118.865509 
	C860.224182,121.864395 863.789429,121.656967 867.584961,117.823349 
	C871.512634,113.856247 872.616760,105.190117 869.136292,100.183113 
	C867.588440,97.956322 864.744934,95.906326 862.148376,95.339790 
	C859.645813,94.793777 856.703552,96.262894 853.954895,96.849274 
	C853.225891,86.044006 853.225891,86.044006 849.803772,86.699135 
	C849.803772,96.794510 849.803772,106.914261 849.803711,117.922676 
M935.611755,120.205078 
	C940.288452,120.205078 944.965149,120.205078 949.921143,120.205078 
	C949.921143,110.004669 949.843323,99.522545 949.966980,89.042793 
	C950.005676,85.763596 948.689697,85.361320 945.617432,86.636909 
	C945.617432,89.928032 945.617432,93.342636 945.617432,96.892662 
	C937.361511,94.274162 933.160217,95.214752 930.430054,100.034103 
	C926.635559,106.732170 928.554810,115.308502 935.611755,120.205078 
M792.758057,119.015541 
	C792.687866,113.533470 792.912231,108.027481 792.469727,102.575638 
	C791.964539,96.353455 786.937683,93.502541 780.989624,95.642136 
	C779.649841,96.124054 778.356262,96.734367 776.588196,97.475571 
	C776.588196,94.692513 776.555969,92.380013 776.596741,90.068802 
	C776.642395,87.479240 776.892212,84.744713 772.872070,86.398605 
	C772.872070,97.936539 772.872070,109.343758 772.872070,120.750969 
	C773.325867,121.007088 773.779663,121.263206 774.233459,121.519325 
	C775.018250,120.349686 776.389526,119.225128 776.483459,118.002403 
	C776.839233,113.372986 776.550659,108.691864 776.949890,104.068680 
	C777.273010,100.327644 780.008606,98.599907 783.554199,98.647133 
	C787.343445,98.697609 788.620239,101.284027 788.632812,104.696373 
	C788.652283,110.004662 788.637939,115.313072 788.637939,121.462173 
	C790.329956,120.819046 791.521667,120.366074 792.758057,119.015541 
M887.390686,94.953537 
	C882.432678,95.189407 877.804626,95.949997 876.636353,102.362823 
	C878.178772,102.330009 879.728149,101.974556 880.576050,101.005424 
	C883.404724,97.772270 886.816711,98.085114 890.106018,99.482933 
	C891.231445,99.961197 892.141968,102.071594 892.204041,103.478050 
	C892.237976,104.248116 890.408875,105.495819 889.220825,105.838974 
	C887.005859,106.478706 884.636475,106.564056 882.347656,106.971809 
	C877.550537,107.826431 874.688660,111.106140 875.224670,115.048866 
	C875.721924,118.706474 879.205811,121.394073 883.789612,120.946030 
	C886.674561,120.664024 889.466064,119.425774 891.903381,118.729652 
	C893.524292,119.611160 895.143494,120.491745 896.582458,121.274307 
	C896.582458,115.170013 896.620667,110.040482 896.573425,104.911743 
	C896.507080,97.715103 895.390747,96.418320 887.390686,94.953537 
M659.587463,100.985588 
	C658.133057,100.985588 656.678650,100.985588 655.122131,100.985588 
	C655.122131,97.127922 655.122131,93.743546 655.122131,90.014275 
	C660.336426,90.014275 665.304932,89.889130 670.263184,90.060738 
	C673.284729,90.165321 674.173462,89.130905 673.111694,86.303711 
	C665.658508,86.303711 658.294373,86.303711 650.991455,86.303711 
	C650.991455,98.013641 650.991455,109.403198 650.991455,121.033699 
	C652.263062,120.945381 654.079956,120.957359 654.095093,120.798103 
	C654.585327,115.640106 654.901978,110.465599 655.269958,104.909416 
	C660.541382,104.909416 665.641113,104.909416 670.740906,104.909416 
	C670.998413,104.420540 671.255920,103.931664 671.513428,103.442787 
	C670.359253,102.623894 669.284607,101.288261 668.034119,101.096016 
	C665.595032,100.721016 663.057556,100.985764 659.587463,100.985588 
M839.900269,115.182571 
	C835.187866,118.629158 831.766846,118.161537 828.466248,113.944733 
	C827.744751,113.022949 826.150391,112.784325 823.963318,111.769485 
	C826.816956,120.980362 836.056396,123.709450 841.953918,118.595970 
	C846.001526,115.086494 845.241760,109.260033 840.341248,107.201698 
	C838.059082,106.243149 835.456543,106.004669 833.246582,104.930885 
	C831.580811,104.121559 830.308350,102.502716 828.860901,101.244164 
	C830.805237,100.363739 832.713989,98.918587 834.705811,98.793228 
	C836.131958,98.703468 837.632507,100.452744 839.168884,101.248070 
	C840.359802,101.864540 841.657654,102.274475 843.855042,103.156273 
	C840.925598,94.947594 832.193909,92.622330 827.086304,97.227905 
	C823.630066,100.344406 824.086853,105.597900 828.272095,107.664749 
	C830.764954,108.895844 833.771240,109.092133 836.253784,110.337639 
	C837.854492,111.140732 838.924072,113.002357 839.900269,115.182571 
M751.829712,98.669609 
	C747.692322,94.791718 742.486145,93.568604 738.290466,96.273994 
	C736.463501,97.452026 734.576721,100.095757 734.563904,102.085785 
	C734.551270,104.032364 736.507996,106.528572 738.298157,107.803795 
	C740.212463,109.167381 743.068726,109.124031 745.275757,110.188393 
	C746.993896,111.016945 748.346985,112.602470 749.862305,113.851608 
	C747.926025,115.049202 746.034241,117.094498 744.040527,117.199173 
	C742.154053,117.298218 740.155701,115.369377 738.216003,114.315010 
	C736.993469,113.650497 735.788330,112.954002 734.575378,112.271843 
	C736.370117,121.013565 745.570312,123.680382 751.463989,118.558121 
	C755.509277,115.042305 754.748596,109.288864 749.854004,107.211082 
	C747.730408,106.309647 745.432617,105.820427 743.217957,105.131157 
	C740.971619,104.432022 737.295593,104.372871 738.746643,100.956474 
	C739.342712,99.553139 743.179016,99.182190 745.580627,99.049149 
	C746.625183,98.991287 747.697815,100.826096 748.891418,101.593185 
	C749.699158,102.112343 750.740234,102.268532 751.676941,102.587074 
	C751.835815,101.506218 751.994690,100.425369 751.829712,98.669609 
M708.640625,98.042816 
	C708.640625,105.631721 708.640625,113.220634 708.640625,120.809540 
	C709.221497,121.043098 709.802368,121.276665 710.383179,121.510223 
	C711.118042,120.300789 712.396423,119.131744 712.489868,117.874611 
	C712.822510,113.399910 712.593750,108.885101 712.880554,104.404877 
	C713.139771,100.354500 715.808594,98.529305 719.645264,98.649834 
	C723.500610,98.770935 724.599548,101.490578 724.624451,104.833855 
	C724.663818,110.127235 724.634949,115.421120 724.634949,120.714790 
	C725.084900,121.001404 725.534851,121.288025 725.984802,121.574646 
	C726.851501,120.578522 728.420654,119.613815 728.466858,118.581009 
	C728.704834,113.263054 728.787170,107.913643 728.472107,102.602020 
	C728.125549,96.761322 723.020203,93.573677 717.421692,95.427643 
	C715.898071,95.932182 714.490845,96.788055 713.056519,97.470161 
	C710.771484,94.127182 710.309875,94.109276 708.640625,98.042816 
M806.675232,117.125443 
	C805.515930,114.814507 803.609985,112.583015 803.353882,110.175972 
	C802.831421,105.265327 803.197327,100.260170 803.197327,94.958450 
	C801.631165,95.112602 800.435669,95.230270 799.281921,95.343826 
	C799.281921,101.587532 799.002747,107.424347 799.357117,113.222443 
	C799.744019,119.551643 805.405273,122.702728 811.222473,120.159065 
	C812.538391,119.583649 813.734741,118.734848 814.388794,118.357018 
	C815.885925,119.537971 817.087524,120.485779 819.051575,122.035042 
	C819.051575,112.200340 819.051575,103.760468 819.051575,95.011139 
	C817.679810,95.114677 816.476562,95.205498 815.101257,95.309311 
	C815.101257,100.372154 815.198975,105.028252 815.075989,109.678497 
	C814.928955,115.234451 813.382507,116.720177 806.675232,117.125443 
M903.237122,118.092033 
	C902.952698,121.481331 904.711487,121.434479 907.535889,120.475410 
	C907.535889,114.901588 907.288147,109.413361 907.621155,103.960609 
	C907.851196,100.194801 910.665588,98.528557 914.238647,98.638985 
	C918.025146,98.756012 919.257385,101.280121 919.234558,104.728271 
	C919.204895,109.214676 919.058044,113.713226 919.356873,118.180084 
	C919.435120,119.349213 920.976807,120.420425 921.846375,121.536606 
	C922.298157,121.256668 922.749939,120.976738 923.201721,120.696808 
	C923.201721,114.745178 923.383423,108.786446 923.151062,102.843903 
	C922.915283,96.814781 917.619873,93.454582 911.888184,95.503616 
	C910.357605,96.050797 908.968811,96.994759 908.090027,97.455215 
	C906.660583,96.397911 905.420166,95.480453 903.236633,93.865440 
	C903.236633,102.597191 903.236633,109.883011 903.237122,118.092033 
M682.029907,91.831566 
	C688.334534,105.234787 686.486145,118.147789 679.036560,130.927658 
	C685.255859,129.360336 690.432068,117.023300 689.923462,106.370544 
	C689.496033,97.418465 684.052429,86.990051 679.112488,86.315285 
	C680.045471,88.042358 680.881165,89.589447 682.029907,91.831566 
M639.693970,127.961502 
	C640.888916,129.112778 642.083923,130.264038 643.278870,131.415314 
	C643.609131,131.117432 643.939392,130.819550 644.269653,130.521667 
	C635.591919,115.815575 635.329834,101.065598 644.495728,86.112366 
	C633.142883,88.798988 630.584351,111.811783 639.693970,127.961502 
M764.737915,100.756973 
	C764.849915,99.238998 764.961914,97.721016 765.077332,96.156693 
	C763.263123,96.156693 762.018188,96.156693 760.727051,96.156693 
	C760.070190,99.163620 759.681824,101.727364 764.737915,100.756973 
M765.089050,118.492882 
	C763.971313,117.416794 762.853577,116.340706 761.735840,115.264626 
	C761.388367,115.606071 761.040833,115.947525 760.693359,116.288971 
	C760.693359,117.805061 760.693359,119.321152 760.693359,122.238350 
	C762.717041,120.865776 763.900879,120.062828 765.089050,118.492882 
z"/>
<path fill="#010101" opacity="1.000000" stroke="none" 
	d="
M1103.998413,117.994766 
	C1099.232666,120.350761 1094.817993,122.579628 1089.164673,125.433868 
	C1092.772217,118.060623 1095.842529,111.785690 1099.091187,105.146103 
	C1050.656372,105.146103 1002.723450,105.146103 954.394165,105.146103 
	C954.253540,103.797356 954.131104,102.623680 953.969055,101.069748 
	C1002.385803,101.069748 1050.470459,101.069748 1099.200073,101.069748 
	C1095.898193,94.343941 1092.855103,88.145332 1089.156738,80.611694 
	C1103.930298,87.976410 1117.561646,94.771729 1131.777588,101.858452 
	C1131.777588,81.462578 1131.777588,61.474869 1131.777588,41.245880 
	C1293.369385,41.245880 1454.438599,41.245880 1615.754272,41.245880 
	C1615.754272,82.371292 1615.754272,123.442551 1615.754272,164.757431 
	C1454.623901,164.757431 1293.554565,164.757431 1132.019897,164.757431 
	C1132.019897,144.664093 1132.019897,124.628181 1132.019897,103.936172 
	C1122.373657,108.792854 1113.361572,113.330246 1103.998413,117.994766 
M1145.533691,161.000107 
	C1300.954956,161.000107 1456.376343,161.000107 1611.701660,161.000107 
	C1611.701660,122.004021 1611.701660,83.599442 1611.701660,45.297073 
	C1453.001709,45.297073 1294.600342,45.297073 1136.300293,45.297073 
	C1136.300293,83.999512 1136.300293,122.404060 1136.300293,161.000107 
	C1139.245728,161.000107 1141.894897,161.000107 1145.533691,161.000107 
z"/>
<path fill="#000000" opacity="1.000000" stroke="none" 
	d="
M263.000000,164.999481 
	C187.858154,164.999481 113.216316,164.999481 38.287613,164.999481 
	C38.287613,123.710655 38.287613,82.639679 38.287613,41.284294 
	C199.294022,41.284294 360.361877,41.284294 521.830444,41.284294 
	C521.830444,60.958469 521.830444,80.699951 521.830444,100.843323 
	C557.970093,100.843323 593.713379,100.843323 629.406982,100.843323 
	C629.892029,104.953560 629.892029,104.992134 626.010498,104.993393 
	C593.178284,105.004028 560.346069,104.999474 527.513855,104.999474 
	C525.868347,104.999474 524.222839,104.999474 522.178345,104.999474 
	C522.178345,124.947464 522.178345,144.688950 522.178345,164.999481 
	C435.686066,164.999481 349.593018,164.999481 263.000000,164.999481 
M254.500000,161.001404 
	C342.259827,161.001404 430.019653,161.001404 517.713806,161.001404 
	C517.713806,122.025154 517.713806,83.620384 517.713806,45.284035 
	C359.024475,45.284035 200.622833,45.284035 42.286201,45.284035 
	C42.286201,83.974930 42.286201,122.379692 42.286201,161.001404 
	C112.882393,161.001404 183.191193,161.001404 254.500000,161.001404 
z"/>
<path fill="#121212" opacity="1.000000" stroke="none" 
	d="
M849.803711,117.478340 
	C849.803772,106.914261 849.803772,96.794510 849.803772,86.699135 
	C853.225891,86.044006 853.225891,86.044006 853.954712,96.847977 
	C856.703552,96.262894 859.645813,94.793777 862.148376,95.339790 
	C864.744934,95.906326 867.588440,97.956322 869.136292,100.183113 
	C872.616760,105.190117 871.512634,113.856247 867.584961,117.823349 
	C863.789429,121.656967 860.224182,121.864395 854.646118,118.865509 
	C853.314758,119.680893 852.226562,120.347374 851.138367,121.013870 
	C850.693481,119.983475 850.248596,118.953072 849.803711,117.478340 
M858.075500,98.995163 
	C853.214294,102.533295 851.654175,109.414803 854.693665,114.305267 
	C856.651367,117.455185 859.525330,118.259621 862.853516,116.795822 
	C866.409058,115.231987 868.113647,109.743797 866.737488,104.427544 
	C865.706055,100.443146 863.443542,97.949867 858.075500,98.995163 
z"/>
<path fill="#1A1A1A" opacity="1.000000" stroke="none" 
	d="
M935.248535,120.074158 
	C928.554810,115.308502 926.635559,106.732170 930.430054,100.034103 
	C933.160217,95.214752 937.361511,94.274162 945.617432,96.892662 
	C945.617432,93.342636 945.617432,89.928032 945.617432,86.636909 
	C948.689697,85.361320 950.005676,85.763596 949.966980,89.042793 
	C949.843323,99.522545 949.921143,110.004669 949.921143,120.205078 
	C944.965149,120.205078 940.288452,120.205078 935.248535,120.074158 
M941.104126,98.875809 
	C936.666443,97.946472 934.153687,100.031929 933.099731,104.148659 
	C931.655579,109.789299 933.372986,115.401634 937.066956,116.836098 
	C940.416199,118.136673 943.248108,117.269325 945.103943,114.058167 
	C947.777466,109.432487 946.270508,102.493362 941.104126,98.875809 
z"/>
<path fill="#1A1A1A" opacity="1.000000" stroke="none" 
	d="
M792.735718,119.464325 
	C791.521667,120.366074 790.329956,120.819046 788.637939,121.462173 
	C788.637939,115.313072 788.652283,110.004662 788.632812,104.696373 
	C788.620239,101.284027 787.343445,98.697609 783.554199,98.647133 
	C780.008606,98.599907 777.273010,100.327644 776.949890,104.068680 
	C776.550659,108.691864 776.839233,113.372986 776.483459,118.002403 
	C776.389526,119.225128 775.018250,120.349686 774.233459,121.519325 
	C773.779663,121.263206 773.325867,121.007088 772.872070,120.750969 
	C772.872070,109.343758 772.872070,97.936539 772.872070,86.398605 
	C776.892212,84.744713 776.642395,87.479240 776.596741,90.068802 
	C776.555969,92.380013 776.588196,94.692513 776.588196,97.475571 
	C778.356262,96.734367 779.649841,96.124054 780.989624,95.642136 
	C786.937683,93.502541 791.964539,96.353455 792.469727,102.575638 
	C792.912231,108.027481 792.687866,113.533470 792.735718,119.464325 
z"/>
<path fill="#191919" opacity="1.000000" stroke="none" 
	d="
M887.814026,94.963707 
	C895.390747,96.418320 896.507080,97.715103 896.573425,104.911743 
	C896.620667,110.040482 896.582458,115.170013 896.582458,121.274307 
	C895.143494,120.491745 893.524292,119.611160 891.903381,118.729652 
	C889.466064,119.425774 886.674561,120.664024 883.789612,120.946030 
	C879.205811,121.394073 875.721924,118.706474 875.224670,115.048866 
	C874.688660,111.106140 877.550537,107.826431 882.347656,106.971809 
	C884.636475,106.564056 887.005859,106.478706 889.220825,105.838974 
	C890.408875,105.495819 892.237976,104.248116 892.204041,103.478050 
	C892.141968,102.071594 891.231445,99.961197 890.106018,99.482933 
	C886.816711,98.085114 883.404724,97.772270 880.576050,101.005424 
	C879.728149,101.974556 878.178772,102.330009 876.636353,102.362823 
	C877.804626,95.949997 882.432678,95.189407 887.814026,94.963707 
M887.057312,117.123787 
	C891.267212,116.102791 892.896729,113.468338 892.228333,108.884506 
	C888.899780,109.394386 885.752441,109.543312 882.852173,110.467598 
	C881.492493,110.900909 880.049805,112.705704 879.734619,114.130150 
	C879.564575,114.898537 881.552734,116.431740 882.833374,117.134888 
	C883.718628,117.620949 885.059204,117.277618 887.057312,117.123787 
z"/>
<path fill="#080808" opacity="1.000000" stroke="none" 
	d="
M660.074158,100.985596 
	C663.057556,100.985764 665.595032,100.721016 668.034119,101.096016 
	C669.284607,101.288261 670.359253,102.623894 671.513428,103.442787 
	C671.255920,103.931664 670.998413,104.420540 670.740906,104.909416 
	C665.641113,104.909416 660.541382,104.909416 655.269958,104.909416 
	C654.901978,110.465599 654.585327,115.640106 654.095093,120.798103 
	C654.079956,120.957359 652.263062,120.945381 650.991455,121.033699 
	C650.991455,109.403198 650.991455,98.013641 650.991455,86.303711 
	C658.294373,86.303711 665.658508,86.303711 673.111694,86.303711 
	C674.173462,89.130905 673.284729,90.165321 670.263184,90.060738 
	C665.304932,89.889130 660.336426,90.014275 655.122131,90.014275 
	C655.122131,93.743546 655.122131,97.127922 655.122131,100.985588 
	C656.678650,100.985588 658.133057,100.985588 660.074158,100.985596 
z"/>
<path fill="#171717" opacity="1.000000" stroke="none" 
	d="
M840.065918,114.786072 
	C838.924072,113.002357 837.854492,111.140732 836.253784,110.337639 
	C833.771240,109.092133 830.764954,108.895844 828.272095,107.664749 
	C824.086853,105.597900 823.630066,100.344406 827.086304,97.227905 
	C832.193909,92.622330 840.925598,94.947594 843.855042,103.156273 
	C841.657654,102.274475 840.359802,101.864540 839.168884,101.248070 
	C837.632507,100.452744 836.131958,98.703468 834.705811,98.793228 
	C832.713989,98.918587 830.805237,100.363739 828.860901,101.244171 
	C830.308350,102.502716 831.580811,104.121559 833.246582,104.930885 
	C835.456543,106.004669 838.059082,106.243149 840.341248,107.201698 
	C845.241760,109.260033 846.001526,115.086494 841.953918,118.595970 
	C836.056396,123.709450 826.816956,120.980362 823.963318,111.769485 
	C826.150391,112.784325 827.744751,113.022949 828.466248,113.944733 
	C831.766846,118.161537 835.187866,118.629158 840.065918,114.786072 
z"/>
<path fill="#171717" opacity="1.000000" stroke="none" 
	d="
M751.991638,99.007065 
	C751.994690,100.425369 751.835815,101.506218 751.676941,102.587082 
	C750.740234,102.268532 749.699158,102.112343 748.891418,101.593185 
	C747.697815,100.826096 746.625183,98.991287 745.580627,99.049149 
	C743.179016,99.182190 739.342712,99.553139 738.746643,100.956474 
	C737.295593,104.372871 740.971619,104.432022 743.217957,105.131157 
	C745.432617,105.820427 747.730408,106.309647 749.854004,107.211082 
	C754.748596,109.288864 755.509277,115.042305 751.463989,118.558121 
	C745.570312,123.680382 736.370117,121.013565 734.575378,112.271843 
	C735.788330,112.954002 736.993469,113.650497 738.216003,114.315010 
	C740.155701,115.369377 742.154053,117.298218 744.040527,117.199173 
	C746.034241,117.094498 747.926025,115.049202 749.862305,113.851593 
	C748.346985,112.602470 746.993896,111.016945 745.275757,110.188393 
	C743.068726,109.124031 740.212463,109.167381 738.298157,107.803795 
	C736.507996,106.528572 734.551270,104.032364 734.563904,102.085785 
	C734.576721,100.095757 736.463501,97.452026 738.290466,96.273994 
	C742.486145,93.568604 747.692322,94.791718 751.991638,99.007065 
z"/>
<path fill="#1A1A1A" opacity="1.000000" stroke="none" 
	d="
M708.641357,97.602394 
	C710.309875,94.109276 710.771484,94.127182 713.056519,97.470161 
	C714.490845,96.788055 715.898071,95.932182 717.421692,95.427643 
	C723.020203,93.573677 728.125549,96.761322 728.472107,102.602020 
	C728.787170,107.913643 728.704834,113.263054 728.466858,118.581009 
	C728.420654,119.613815 726.851501,120.578522 725.984802,121.574646 
	C725.534851,121.288025 725.084900,121.001404 724.634949,120.714790 
	C724.634949,115.421120 724.663818,110.127235 724.624451,104.833855 
	C724.599548,101.490578 723.500610,98.770935 719.645264,98.649834 
	C715.808594,98.529305 713.139771,100.354500 712.880554,104.404877 
	C712.593750,108.885101 712.822510,113.399910 712.489868,117.874611 
	C712.396423,119.131744 711.118042,120.300789 710.383179,121.510223 
	C709.802368,121.276665 709.221497,121.043098 708.640625,120.809540 
	C708.640625,113.220634 708.640625,105.631721 708.641357,97.602394 
z"/>
<path fill="#121212" opacity="1.000000" stroke="none" 
	d="
M807.102661,117.247864 
	C813.382507,116.720177 814.928955,115.234451 815.075989,109.678497 
	C815.198975,105.028252 815.101257,100.372154 815.101257,95.309311 
	C816.476562,95.205498 817.679810,95.114677 819.051575,95.011139 
	C819.051575,103.760468 819.051575,112.200340 819.051575,122.035042 
	C817.087524,120.485779 815.885925,119.537971 814.388794,118.357018 
	C813.734741,118.734848 812.538391,119.583649 811.222473,120.159065 
	C805.405273,122.702728 799.744019,119.551643 799.357117,113.222443 
	C799.002747,107.424347 799.281921,101.587532 799.281921,95.343826 
	C800.435669,95.230270 801.631165,95.112602 803.197327,94.958450 
	C803.197327,100.260170 802.831421,105.265327 803.353882,110.175972 
	C803.609985,112.583015 805.515930,114.814507 807.102661,117.247864 
z"/>
<path fill="#1A1A1A" opacity="1.000000" stroke="none" 
	d="
M903.236877,117.630432 
	C903.236633,109.883011 903.236633,102.597191 903.236633,93.865440 
	C905.420166,95.480453 906.660583,96.397911 908.090027,97.455215 
	C908.968811,96.994759 910.357605,96.050797 911.888184,95.503616 
	C917.619873,93.454582 922.915283,96.814781 923.151062,102.843903 
	C923.383423,108.786446 923.201721,114.745178 923.201721,120.696808 
	C922.749939,120.976738 922.298157,121.256668 921.846375,121.536606 
	C920.976807,120.420425 919.435120,119.349213 919.356873,118.180084 
	C919.058044,113.713226 919.204895,109.214676 919.234558,104.728271 
	C919.257385,101.280121 918.025146,98.756012 914.238647,98.638985 
	C910.665588,98.528557 907.851196,100.194801 907.621155,103.960609 
	C907.288147,109.413361 907.535889,114.901588 907.535889,120.475410 
	C904.711487,121.434479 902.952698,121.481331 903.236877,117.630432 
z"/>
<path fill="#1E1E1E" opacity="1.000000" stroke="none" 
	d="
M681.873413,91.484055 
	C680.881165,89.589447 680.045471,88.042358 679.112488,86.315285 
	C684.052429,86.990051 689.496033,97.418465 689.923462,106.370544 
	C690.432068,117.023300 685.255859,129.360336 679.036560,130.927658 
	C686.486145,118.147789 688.334534,105.234787 681.873413,91.484055 
z"/>
<path fill="#1E1E1E" opacity="1.000000" stroke="none" 
	d="
M639.478088,127.657570 
	C630.584351,111.811783 633.142883,88.798988 644.495728,86.112366 
	C635.329834,101.065598 635.591919,115.815575 644.269653,130.521667 
	C643.939392,130.819550 643.609131,131.117432 643.278870,131.415314 
	C642.083923,130.264038 640.888916,129.112778 639.478088,127.657570 
z"/>
<path fill="#232323" opacity="1.000000" stroke="none" 
	d="
M764.370361,100.881271 
	C759.681824,101.727364 760.070190,99.163620 760.727051,96.156693 
	C762.018188,96.156693 763.263123,96.156693 765.077332,96.156693 
	C764.961914,97.721016 764.849915,99.238998 764.370361,100.881271 
z"/>
<path fill="#232323" opacity="1.000000" stroke="none" 
	d="
M765.086914,118.876381 
	C763.900879,120.062828 762.717041,120.865776 760.693359,122.238350 
	C760.693359,119.321152 760.693359,117.805061 760.693359,116.288971 
	C761.040833,115.947525 761.388367,115.606071 761.735840,115.264626 
	C762.853577,116.340706 763.971313,117.416794 765.086914,118.876381 
z"/>
<path fill="#FEFEFE" opacity="1.000000" stroke="none" 
	d="
M1145.038818,161.000107 
	C1141.894897,161.000107 1139.245728,161.000107 1136.300293,161.000107 
	C1136.300293,122.404060 1136.300293,83.999512 1136.300293,45.297073 
	C1294.600342,45.297073 1453.001709,45.297073 1611.701660,45.297073 
	C1611.701660,83.599442 1611.701660,122.004021 1611.701660,161.000107 
	C1456.376343,161.000107 1300.954956,161.000107 1145.038818,161.000107 
M1362.983765,109.422119 
	C1362.983765,111.863464 1362.983765,114.304810 1362.983765,116.806168 
	C1364.644775,116.806168 1365.732422,116.806168 1367.387573,116.806168 
	C1367.387573,107.810005 1367.387573,99.013321 1367.387573,90.216629 
	C1370.948853,97.784004 1373.432739,105.497871 1376.147339,113.129730 
	C1376.667480,114.592262 1378.096069,115.731743 1379.105591,117.020256 
	C1380.240601,115.679848 1381.856812,114.517303 1382.429199,112.968925 
	C1385.220947,105.416771 1387.733643,97.761528 1390.345093,90.142769 
	C1390.672119,90.204933 1390.999023,90.267097 1391.325928,90.329262 
	C1391.325928,99.060600 1391.325928,107.791939 1391.325928,117.817276 
	C1393.287354,116.683868 1395.358765,116.057930 1395.370728,115.394760 
	C1395.571045,104.324883 1395.513672,93.250336 1395.513672,82.141022 
	C1393.207886,82.141022 1391.579590,82.141022 1389.729492,82.141022 
	C1386.435791,91.783699 1383.167236,101.352486 1379.494507,112.104668 
	C1375.874268,101.160332 1372.706177,91.582695 1369.620850,82.255081 
	C1367.143066,82.255081 1365.220337,82.255081 1362.983765,82.255081 
	C1362.983765,91.169914 1362.983765,99.807259 1362.983765,109.422119 
M1412.766602,116.592331 
	C1414.706543,115.772400 1416.646484,114.952477 1417.331177,114.663048 
	C1419.714233,115.861122 1421.227051,116.621712 1422.580688,117.302292 
	C1422.580688,111.158714 1422.628296,105.885086 1422.568481,100.612679 
	C1422.495239,94.148033 1420.867432,92.024246 1415.466797,91.102928 
	C1409.138428,90.023323 1404.330200,92.454056 1401.740234,99.367241 
	C1404.043213,98.324608 1405.705566,98.084999 1406.480591,97.127327 
	C1409.055420,93.946327 1412.330200,94.072342 1415.479980,95.246101 
	C1416.772461,95.727753 1417.899170,97.791794 1418.184692,99.308525 
	C1418.307861,99.963821 1416.234619,101.479912 1414.939087,101.865898 
	C1411.790283,102.803947 1408.134155,102.648605 1405.412598,104.208000 
	C1403.409668,105.355621 1401.477295,108.542297 1401.527832,110.774841 
	C1401.571289,112.697281 1404.171265,115.016685 1406.190430,116.287369 
	C1407.652832,117.207741 1410.014160,116.699661 1412.766602,116.592331 
M1305.421265,95.725113 
	C1312.032104,93.441956 1314.515625,95.068062 1314.625488,101.880318 
	C1314.705322,106.831497 1314.641113,111.785004 1314.641113,116.737480 
	C1315.112793,117.016991 1315.584595,117.296509 1316.056274,117.576019 
	C1316.898804,116.561623 1318.423340,115.576859 1318.468994,114.527893 
	C1318.700073,109.208679 1318.788696,103.858025 1318.463867,98.546738 
	C1318.107422,92.721504 1312.962280,89.563934 1307.365479,91.448494 
	C1305.849731,91.958870 1304.444214,92.796242 1303.810303,93.095444 
	C1301.917114,92.065887 1300.625977,91.363708 1298.806763,90.374306 
	C1298.806763,99.773315 1298.806763,108.217979 1298.806763,116.837616 
	C1300.032959,116.837616 1301.140015,116.837616 1302.586670,116.837616 
	C1302.586670,113.162743 1302.307983,109.650177 1302.666138,106.203812 
	C1303.015381,102.843956 1304.015869,99.551811 1305.421265,95.725113 
M1449.217407,103.737534 
	C1449.216553,102.242226 1449.281494,100.743477 1449.203613,99.252190 
	C1448.859497,92.659889 1443.463013,89.223488 1437.347778,91.732101 
	C1435.991821,92.288422 1434.745239,93.111183 1434.219849,93.394745 
	C1432.594604,92.293022 1431.343262,91.444756 1429.436646,90.152260 
	C1429.436646,99.806358 1429.436646,108.236786 1429.436646,116.852203 
	C1430.742310,116.852203 1431.848999,116.852203 1433.473633,116.852203 
	C1433.473633,111.208038 1433.248535,105.736145 1433.548462,100.293175 
	C1433.768433,96.300323 1436.573975,94.458427 1440.393677,94.643394 
	C1444.199829,94.827713 1445.264893,97.488663 1445.242188,100.881149 
	C1445.206665,106.165520 1445.232788,111.450310 1445.232788,116.828316 
	C1446.800659,116.828316 1447.911865,116.828316 1449.217529,116.828316 
	C1449.217529,112.636482 1449.217529,108.654518 1449.217407,103.737534 
M1328.716797,99.115349 
	C1329.385742,97.735893 1330.109985,95.157227 1330.714233,95.185005 
	C1333.302368,95.304001 1335.892090,96.071777 1338.406616,96.845665 
	C1339.767700,97.264618 1340.978638,98.171585 1342.257202,98.858414 
	C1340.492920,91.032387 1331.970947,88.631996 1326.722778,93.112610 
	C1323.021606,96.272385 1323.562744,101.679848 1328.014404,103.803238 
	C1330.372925,104.928253 1333.183105,105.113762 1335.525635,106.261765 
	C1337.188110,107.076424 1338.409180,108.791557 1339.827271,110.104706 
	C1337.986694,111.218224 1336.114746,113.262794 1334.313965,113.201820 
	C1332.218628,113.130882 1330.201660,111.184975 1328.119629,110.113358 
	C1326.898315,109.484734 1325.616211,108.974014 1323.240479,107.906624 
	C1326.550049,116.721863 1334.258789,119.517250 1340.306274,115.165131 
	C1342.152954,113.836121 1343.900024,110.773445 1343.717285,108.676933 
	C1343.541382,106.657631 1341.157959,104.232147 1339.123779,103.114861 
	C1336.138672,101.475273 1332.601440,100.841087 1328.716797,99.115349 
M1355.083374,95.277657 
	C1355.578613,91.340523 1353.352905,91.590042 1350.588623,92.318474 
	C1350.588623,93.851311 1350.588623,95.252510 1350.588623,97.374619 
	C1352.292847,96.863792 1353.666016,96.452217 1355.083374,95.277657 
M1350.453491,112.873558 
	C1350.453491,114.136711 1350.453491,115.399864 1350.453491,116.780136 
	C1352.153564,116.780136 1353.505493,116.780136 1354.898682,116.780136 
	C1354.898682,115.072906 1354.898682,113.658028 1354.898682,111.941566 
	C1353.428711,112.035980 1352.164673,112.117165 1350.453491,112.873558 
z"/>
<path fill="#FEFEFE" opacity="1.000000" stroke="none" 
	d="
M254.000000,161.001404 
	C183.191193,161.001404 112.882393,161.001404 42.286201,161.001404 
	C42.286201,122.379692 42.286201,83.974930 42.286201,45.284035 
	C200.622833,45.284035 359.024475,45.284035 517.713806,45.284035 
	C517.713806,83.620384 517.713806,122.025154 517.713806,161.001404 
	C430.019653,161.001404 342.259827,161.001404 254.000000,161.001404 
M229.809464,86.774857 
	C232.113953,95.626442 234.559967,104.444801 236.650024,113.346725 
	C237.434311,116.687080 238.756348,117.953300 242.138153,116.543945 
	C244.774399,107.016701 247.413132,97.480515 250.051849,87.944328 
	C253.317368,96.442810 255.718506,104.893181 257.875854,113.405334 
	C258.614838,116.320999 259.656830,118.011375 263.166168,116.597954 
	C266.199249,105.287704 269.273010,93.825783 272.346771,82.363869 
	C271.811981,82.019516 271.277191,81.675171 270.742401,81.330818 
	C269.627960,82.588806 267.948730,83.674850 267.503693,85.136635 
	C266.101685,89.741798 265.190643,94.494835 264.035156,99.177208 
	C263.240845,102.395935 262.356110,105.592346 261.511780,108.798737 
	C261.191040,108.744476 260.870300,108.690216 260.549561,108.635956 
	C258.093933,99.767822 255.638306,90.899689 253.143661,81.890701 
	C251.148972,82.009583 249.561127,82.104218 248.061218,82.193611 
	C245.469040,91.076149 242.977997,99.612106 240.486954,108.148064 
	C239.935394,108.027283 239.383835,107.906494 238.832260,107.785713 
	C237.151962,100.347702 235.399353,92.924942 233.826950,85.464188 
	C233.198639,82.482941 232.075500,80.918358 228.773575,82.533249 
	C229.056198,83.701805 229.327148,84.822029 229.809464,86.774857 
M316.943207,106.614212 
	C316.943207,109.915092 316.943207,113.215981 316.943207,116.516861 
	C317.378632,116.834534 317.814056,117.152206 318.249451,117.469872 
	C319.140961,116.399796 320.722412,115.378693 320.802460,114.251022 
	C321.119995,109.777748 320.866882,105.267677 321.021912,100.778023 
	C321.148895,97.099762 323.136780,94.764381 326.901489,94.661873 
	C331.018433,94.549767 331.639801,97.514717 331.636993,100.791595 
	C331.632446,106.092125 331.635773,111.392654 331.635773,116.693184 
	C332.047821,116.998840 332.459869,117.304497 332.871887,117.610153 
	C333.777710,116.622650 335.425568,115.664589 335.466095,114.642761 
	C335.690216,108.994339 335.815460,103.309074 335.406128,97.677765 
	C335.003479,92.137886 329.964233,89.458656 324.831329,91.743393 
	C323.233307,92.454681 321.844177,93.635147 320.372589,94.592270 
	C315.365295,89.904518 313.015930,89.772598 307.141754,93.225441 
	C305.410645,92.203117 304.117401,91.439377 302.077271,90.234550 
	C302.077271,99.143692 301.972076,106.791351 302.203278,114.428833 
	C302.234039,115.445274 303.971863,116.410042 304.919159,117.398743 
	C306.056580,115.393280 306.030731,114.412453 306.060944,113.433365 
	C306.204437,108.783592 306.091187,104.103943 306.605560,99.494766 
	C306.993195,96.021446 309.716156,93.915726 312.978455,94.908844 
	C314.668762,95.423416 316.011658,98.189911 316.795776,100.216057 
	C317.413239,101.811462 316.934875,103.830971 316.943207,106.614212 
M347.600677,91.794533 
	C345.450531,93.459396 343.300385,95.124268 341.150269,96.789139 
	C341.622437,97.504524 342.094604,98.219902 342.566803,98.935280 
	C343.765656,98.272995 345.239105,97.861053 346.113068,96.902519 
	C348.983917,93.753860 352.418823,94.080078 355.705933,95.458252 
	C356.824768,95.927330 357.716034,98.075287 357.771179,99.492676 
	C357.801270,100.265488 355.975281,101.522087 354.789490,101.851166 
	C351.612030,102.732964 347.973694,102.583672 345.204468,104.098267 
	C343.161041,105.215866 340.975372,108.376198 341.097015,110.497704 
	C341.217102,112.591461 343.940399,115.923065 345.906952,116.228195 
	C349.722534,116.820221 353.808289,115.671280 358.384247,115.178902 
	C358.966888,115.516754 360.573761,116.448486 362.021118,117.287712 
	C362.021118,110.586052 361.977692,104.801971 362.034821,99.018890 
	C362.080627,94.384552 359.653717,91.820007 355.286560,91.252472 
	C353.037781,90.960236 350.690094,91.428680 347.600677,91.794533 
M372.743622,115.000885 
	C372.771149,110.681488 372.662659,106.355812 372.861572,102.044319 
	C373.094818,96.988220 375.559906,94.334465 379.615753,94.590660 
	C384.416260,94.893875 384.844177,98.321342 384.804810,102.085579 
	C384.753510,106.996208 384.792236,111.907768 384.792236,116.818932 
	C385.316956,117.076118 385.841644,117.333298 386.366364,117.590477 
	C387.159729,116.528267 388.587158,115.495621 388.638306,114.398796 
	C388.877991,109.259041 388.937592,104.091850 388.684601,98.953011 
	C388.371857,92.598976 383.031769,89.366920 377.004333,91.671722 
	C375.664093,92.184189 374.419647,92.947029 374.138428,93.088348 
	C372.017792,92.085587 370.655121,91.441223 369.070587,90.691971 
	C369.070587,100.024963 369.070587,108.417358 369.070587,117.604530 
	C370.632233,116.868111 371.667236,116.380035 372.743622,115.000885 
M205.748978,116.647522 
	C209.799271,115.460037 212.692902,113.158897 212.478699,108.576149 
	C212.272095,104.155571 208.614197,103.192772 205.246643,102.133293 
	C203.664536,101.635536 201.879059,101.569565 200.471817,100.790909 
	C199.064270,100.012100 198.013672,98.588226 196.806595,97.447128 
	C198.201797,96.501617 199.635742,94.737343 200.983185,94.801109 
	C203.041702,94.898529 205.055588,96.223595 207.059067,97.094978 
	C208.299088,97.634315 209.484711,98.298691 211.706711,99.415596 
	C209.461639,91.923149 203.887787,89.172455 197.955475,91.921669 
	C195.790512,92.924980 193.267395,95.777412 193.176056,97.884575 
	C193.087402,99.929337 195.506424,102.715576 197.556625,104.055321 
	C199.957825,105.624451 203.218140,105.818588 205.964340,106.951904 
	C206.965729,107.365166 208.188766,108.773567 208.173019,109.708801 
	C208.155609,110.742096 207.037552,112.306709 206.042282,112.674179 
	C202.568573,113.956764 199.260727,113.935715 196.709900,110.430176 
	C195.944855,109.378799 194.358597,108.924995 193.148575,108.197418 
	C194.392868,115.708801 197.042679,117.293961 205.748978,116.647522 
M296.900665,107.430557 
	C297.564362,101.161278 297.143860,95.250122 290.552399,92.082253 
	C284.524231,89.185112 277.496002,91.899445 275.098999,97.806610 
	C272.105896,105.182732 274.942719,113.721390 281.193878,116.151779 
	C287.977234,118.789085 294.021088,115.693993 296.900665,107.430557 
M183.074951,110.406204 
	C183.929214,112.641991 180.975861,117.237114 187.056747,117.041374 
	C187.056747,115.091614 187.057144,113.781227 187.056671,112.470840 
	C187.055054,107.977837 187.206818,103.478218 187.013748,98.993446 
	C186.751373,92.898109 181.621567,89.479935 175.838318,91.458969 
	C174.297028,91.986397 172.903534,92.945686 172.004868,93.413666 
	C170.496704,92.430420 169.196274,91.582611 167.075760,90.200150 
	C167.075760,99.200302 167.129028,106.680679 167.052094,114.159714 
	C167.016464,117.624512 168.630692,117.462677 171.056702,116.414619 
	C171.056702,115.197693 171.042328,114.203766 171.059189,113.210381 
	C171.132568,108.887421 170.980499,104.543724 171.362946,100.247864 
	C171.715729,96.285172 174.432587,94.426003 178.286301,94.658035 
	C182.118515,94.888779 183.133347,97.566498 183.081146,100.951538 
	C183.037521,103.779778 183.073959,106.609253 183.074951,110.406204 
M223.620132,94.492271 
	C222.474457,93.412720 221.328796,92.333168 220.183121,91.253624 
	C219.849884,91.584808 219.516632,91.916000 219.183380,92.247192 
	C219.183380,93.771194 219.183380,95.295189 219.183380,98.135323 
	C221.146423,96.880943 222.379257,96.093163 223.620132,94.492271 
M223.546356,116.126419 
	C223.546356,114.863312 223.546356,113.600204 223.546356,112.219971 
	C221.846359,112.219971 220.494492,112.219971 219.101318,112.219971 
	C219.101318,113.923088 219.101318,115.340210 219.101318,117.058296 
	C220.571289,116.963882 221.835175,116.882698 223.546356,116.126419 
z"/>
<path fill="#F3F3F3" opacity="1.000000" stroke="none" 
	d="
M858.475342,98.889771 
	C863.443542,97.949867 865.706055,100.443146 866.737488,104.427544 
	C868.113647,109.743797 866.409058,115.231987 862.853516,116.795822 
	C859.525330,118.259621 856.651367,117.455185 854.693665,114.305267 
	C851.654175,109.414803 853.214294,102.533295 858.475342,98.889771 
z"/>
<path fill="#F7F7F7" opacity="1.000000" stroke="none" 
	d="
M941.506226,98.974380 
	C946.270508,102.493362 947.777466,109.432487 945.103943,114.058167 
	C943.248108,117.269325 940.416199,118.136673 937.066956,116.836098 
	C933.372986,115.401634 931.655579,109.789299 933.099731,104.148659 
	C934.153687,100.031929 936.666443,97.946472 941.506226,98.974380 
z"/>
<path fill="#ECECEC" opacity="1.000000" stroke="none" 
	d="
M886.626831,117.214340 
	C885.059204,117.277618 883.718628,117.620949 882.833374,117.134888 
	C881.552734,116.431740 879.564575,114.898537 879.734619,114.130150 
	C880.049805,112.705704 881.492493,110.900909 882.852173,110.467598 
	C885.752441,109.543312 888.899780,109.394386 892.228333,108.884506 
	C892.896729,113.468338 891.267212,116.102791 886.626831,117.214340 
z"/>
<path fill="#0E0E0E" opacity="1.000000" stroke="none" 
	d="
M1362.983765,108.933357 
	C1362.983765,99.807259 1362.983765,91.169914 1362.983765,82.255081 
	C1365.220337,82.255081 1367.143066,82.255081 1369.620850,82.255081 
	C1372.706177,91.582695 1375.874268,101.160332 1379.494507,112.104668 
	C1383.167236,101.352486 1386.435791,91.783699 1389.729492,82.141022 
	C1391.579590,82.141022 1393.207886,82.141022 1395.513672,82.141022 
	C1395.513672,93.250336 1395.571045,104.324883 1395.370728,115.394760 
	C1395.358765,116.057930 1393.287354,116.683868 1391.325928,117.817276 
	C1391.325928,107.791939 1391.325928,99.060600 1391.325928,90.329262 
	C1390.999023,90.267097 1390.672119,90.204933 1390.345093,90.142769 
	C1387.733643,97.761528 1385.220947,105.416771 1382.429199,112.968925 
	C1381.856812,114.517303 1380.240601,115.679848 1379.105591,117.020264 
	C1378.096069,115.731743 1376.667480,114.592262 1376.147339,113.129730 
	C1373.432739,105.497871 1370.948853,97.784004 1367.387573,90.216629 
	C1367.387573,99.013321 1367.387573,107.810005 1367.387573,116.806168 
	C1365.732422,116.806168 1364.644775,116.806168 1362.983765,116.806168 
	C1362.983765,114.304810 1362.983765,111.863464 1362.983765,108.933357 
z"/>
<path fill="#191919" opacity="1.000000" stroke="none" 
	d="
M1412.370605,116.710442 
	C1410.014160,116.699661 1407.652832,117.207741 1406.190430,116.287369 
	C1404.171265,115.016685 1401.571289,112.697281 1401.527832,110.774841 
	C1401.477295,108.542297 1403.409668,105.355621 1405.412598,104.208000 
	C1408.134155,102.648605 1411.790283,102.803947 1414.939087,101.865898 
	C1416.234619,101.479912 1418.307861,99.963821 1418.184692,99.308525 
	C1417.899170,97.791794 1416.772461,95.727753 1415.479980,95.246101 
	C1412.330200,94.072342 1409.055420,93.946327 1406.480591,97.127327 
	C1405.705566,98.084999 1404.043213,98.324608 1401.740234,99.367241 
	C1404.330200,92.454056 1409.138428,90.023323 1415.466797,91.102928 
	C1420.867432,92.024246 1422.495239,94.148033 1422.568481,100.612679 
	C1422.628296,105.885086 1422.580688,111.158714 1422.580688,117.302292 
	C1421.227051,116.621712 1419.714233,115.861122 1417.331177,114.663048 
	C1416.646484,114.952477 1414.706543,115.772400 1412.370605,116.710442 
M1409.810425,106.111130 
	C1408.388550,107.586006 1406.966553,109.060890 1405.544556,110.535728 
	C1407.589844,111.496674 1409.640747,113.270714 1411.679443,113.257034 
	C1416.616211,113.223915 1418.555542,110.329880 1417.884155,104.929657 
	C1415.476562,105.300812 1413.074341,105.671165 1409.810425,106.111130 
z"/>
<path fill="#1A1A1A" opacity="1.000000" stroke="none" 
	d="
M1305.075806,95.977524 
	C1304.015869,99.551811 1303.015381,102.843956 1302.666138,106.203812 
	C1302.307983,109.650177 1302.586670,113.162743 1302.586670,116.837616 
	C1301.140015,116.837616 1300.032959,116.837616 1298.806763,116.837616 
	C1298.806763,108.217979 1298.806763,99.773315 1298.806763,90.374306 
	C1300.625977,91.363708 1301.917114,92.065887 1303.810303,93.095444 
	C1304.444214,92.796242 1305.849731,91.958870 1307.365479,91.448494 
	C1312.962280,89.563934 1318.107422,92.721504 1318.463867,98.546738 
	C1318.788696,103.858025 1318.700073,109.208679 1318.468994,114.527893 
	C1318.423340,115.576859 1316.898804,116.561623 1316.056274,117.576019 
	C1315.584595,117.296509 1315.112793,117.016991 1314.641113,116.737480 
	C1314.641113,111.785004 1314.705322,106.831497 1314.625488,101.880318 
	C1314.515625,95.068062 1312.032104,93.441956 1305.075806,95.977524 
z"/>
<path fill="#1A1A1A" opacity="1.000000" stroke="none" 
	d="
M1449.217529,104.205040 
	C1449.217529,108.654518 1449.217529,112.636482 1449.217529,116.828316 
	C1447.911865,116.828316 1446.800659,116.828316 1445.232788,116.828316 
	C1445.232788,111.450310 1445.206665,106.165520 1445.242188,100.881149 
	C1445.264893,97.488663 1444.199829,94.827713 1440.393677,94.643394 
	C1436.573975,94.458427 1433.768433,96.300323 1433.548462,100.293175 
	C1433.248535,105.736145 1433.473633,111.208038 1433.473633,116.852203 
	C1431.848999,116.852203 1430.742310,116.852203 1429.436646,116.852203 
	C1429.436646,108.236786 1429.436646,99.806358 1429.436646,90.152260 
	C1431.343262,91.444756 1432.594604,92.293022 1434.219849,93.394745 
	C1434.745239,93.111183 1435.991821,92.288422 1437.347778,91.732101 
	C1443.463013,89.223488 1448.859497,92.659889 1449.203613,99.252190 
	C1449.281494,100.743477 1449.216553,102.242226 1449.217529,104.205040 
z"/>
<path fill="#171717" opacity="1.000000" stroke="none" 
	d="
M1329.008057,99.446945 
	C1332.601440,100.841087 1336.138672,101.475273 1339.123779,103.114861 
	C1341.157959,104.232147 1343.541382,106.657631 1343.717285,108.676933 
	C1343.900024,110.773445 1342.152954,113.836121 1340.306274,115.165131 
	C1334.258789,119.517250 1326.550049,116.721863 1323.240479,107.906624 
	C1325.616211,108.974014 1326.898315,109.484734 1328.119629,110.113358 
	C1330.201660,111.184975 1332.218628,113.130882 1334.313965,113.201820 
	C1336.114746,113.262794 1337.986694,111.218224 1339.827271,110.104721 
	C1338.409180,108.791557 1337.188110,107.076424 1335.525635,106.261765 
	C1333.183105,105.113762 1330.372925,104.928253 1328.014404,103.803238 
	C1323.562744,101.679848 1323.021606,96.272385 1326.722778,93.112610 
	C1331.970947,88.631996 1340.492920,91.032387 1342.257202,98.858414 
	C1340.978638,98.171585 1339.767700,97.264618 1338.406616,96.845665 
	C1335.892090,96.071777 1333.302368,95.304001 1330.714233,95.185005 
	C1330.109985,95.157227 1329.385742,97.735893 1329.008057,99.446945 
z"/>
<path fill="#232323" opacity="1.000000" stroke="none" 
	d="
M1355.061279,95.659149 
	C1353.666016,96.452217 1352.292847,96.863792 1350.588623,97.374619 
	C1350.588623,95.252510 1350.588623,93.851311 1350.588623,92.318474 
	C1353.352905,91.590042 1355.578613,91.340523 1355.061279,95.659149 
z"/>
<path fill="#232323" opacity="1.000000" stroke="none" 
	d="
M1350.677124,112.535950 
	C1352.164673,112.117165 1353.428711,112.035980 1354.898682,111.941566 
	C1354.898682,113.658028 1354.898682,115.072906 1354.898682,116.780136 
	C1353.505493,116.780136 1352.153564,116.780136 1350.453491,116.780136 
	C1350.453491,115.399864 1350.453491,114.136711 1350.677124,112.535950 
z"/>
<path fill="#171717" opacity="1.000000" stroke="none" 
	d="
M229.703766,86.358559 
	C229.327148,84.822029 229.056198,83.701805 228.773575,82.533249 
	C232.075500,80.918358 233.198639,82.482941 233.826950,85.464188 
	C235.399353,92.924942 237.151962,100.347702 238.832260,107.785713 
	C239.383835,107.906494 239.935394,108.027283 240.486954,108.148064 
	C242.977997,99.612106 245.469040,91.076149 248.061218,82.193611 
	C249.561127,82.104218 251.148972,82.009583 253.143661,81.890701 
	C255.638306,90.899689 258.093933,99.767822 260.549561,108.635956 
	C260.870300,108.690216 261.191040,108.744476 261.511780,108.798737 
	C262.356110,105.592346 263.240845,102.395935 264.035156,99.177208 
	C265.190643,94.494835 266.101685,89.741798 267.503693,85.136635 
	C267.948730,83.674850 269.627960,82.588806 270.742401,81.330818 
	C271.277191,81.675171 271.811981,82.019516 272.346771,82.363869 
	C269.273010,93.825783 266.199249,105.287704 263.166168,116.597954 
	C259.656830,118.011375 258.614838,116.320999 257.875854,113.405334 
	C255.718506,104.893181 253.317368,96.442810 250.051849,87.944328 
	C247.413132,97.480515 244.774399,107.016701 242.138153,116.543945 
	C238.756348,117.953300 237.434311,116.687080 236.650024,113.346725 
	C234.559967,104.444801 232.113953,95.626442 229.703766,86.358559 
z"/>
<path fill="#1C1C1C" opacity="1.000000" stroke="none" 
	d="
M316.943237,106.138161 
	C316.934875,103.830971 317.413239,101.811462 316.795776,100.216057 
	C316.011658,98.189911 314.668762,95.423416 312.978455,94.908844 
	C309.716156,93.915726 306.993195,96.021446 306.605560,99.494766 
	C306.091187,104.103943 306.204437,108.783592 306.060944,113.433365 
	C306.030731,114.412453 306.056580,115.393280 304.919159,117.398743 
	C303.971863,116.410042 302.234039,115.445274 302.203278,114.428833 
	C301.972076,106.791351 302.077271,99.143692 302.077271,90.234550 
	C304.117401,91.439377 305.410645,92.203117 307.141754,93.225441 
	C313.015930,89.772598 315.365295,89.904518 320.372589,94.592270 
	C321.844177,93.635147 323.233307,92.454681 324.831329,91.743393 
	C329.964233,89.458656 335.003479,92.137886 335.406128,97.677765 
	C335.815460,103.309074 335.690216,108.994339 335.466095,114.642761 
	C335.425568,115.664589 333.777710,116.622650 332.871887,117.610153 
	C332.459869,117.304497 332.047821,116.998840 331.635773,116.693184 
	C331.635773,111.392654 331.632446,106.092125 331.636993,100.791595 
	C331.639801,97.514717 331.018433,94.549767 326.901489,94.661873 
	C323.136780,94.764381 321.148895,97.099762 321.021912,100.778023 
	C320.866882,105.267677 321.119995,109.777748 320.802460,114.251022 
	C320.722412,115.378693 319.140961,116.399796 318.249451,117.469872 
	C317.814056,117.152206 317.378632,116.834534 316.943207,116.516861 
	C316.943207,113.215981 316.943207,109.915092 316.943237,106.138161 
z"/>
<path fill="#121212" opacity="1.000000" stroke="none" 
	d="
M347.993896,91.673965 
	C350.690094,91.428680 353.037781,90.960236 355.286560,91.252472 
	C359.653717,91.820007 362.080627,94.384552 362.034821,99.018890 
	C361.977692,104.801971 362.021118,110.586052 362.021118,117.287712 
	C360.573761,116.448486 358.966888,115.516754 358.384247,115.178902 
	C353.808289,115.671280 349.722534,116.820221 345.906952,116.228195 
	C343.940399,115.923065 341.217102,112.591461 341.097015,110.497704 
	C340.975372,108.376198 343.161041,105.215866 345.204468,104.098267 
	C347.973694,102.583672 351.612030,102.732964 354.789490,101.851166 
	C355.975281,101.522087 357.801270,100.265488 357.771179,99.492676 
	C357.716034,98.075287 356.824768,95.927330 355.705933,95.458252 
	C352.418823,94.080078 348.983917,93.753860 346.113068,96.902519 
	C345.239105,97.861053 343.765656,98.272995 342.566803,98.935280 
	C342.094604,98.219902 341.622437,97.504524 341.150269,96.789139 
	C343.300385,95.124268 345.450531,93.459396 347.993896,91.673965 
M350.663422,105.992035 
	C348.788025,107.057236 346.821808,108.007843 345.151825,109.332100 
	C344.942200,109.498329 346.257019,112.655602 346.930023,112.680466 
	C349.766968,112.785278 353.002350,112.929955 355.354767,111.676453 
	C357.039490,110.778725 357.553680,107.684227 359.133545,104.461235 
	C355.375885,105.180862 353.435486,105.552475 350.663422,105.992035 
z"/>
<path fill="#171717" opacity="1.000000" stroke="none" 
	d="
M372.722931,115.446426 
	C371.667236,116.380035 370.632233,116.868111 369.070587,117.604530 
	C369.070587,108.417358 369.070587,100.024963 369.070587,90.691971 
	C370.655121,91.441223 372.017792,92.085587 374.138428,93.088348 
	C374.419647,92.947029 375.664093,92.184189 377.004333,91.671722 
	C383.031769,89.366920 388.371857,92.598976 388.684601,98.953011 
	C388.937592,104.091850 388.877991,109.259041 388.638306,114.398796 
	C388.587158,115.495621 387.159729,116.528267 386.366364,117.590477 
	C385.841644,117.333298 385.316956,117.076118 384.792236,116.818932 
	C384.792236,111.907768 384.753510,106.996208 384.804810,102.085579 
	C384.844177,98.321342 384.416260,94.893875 379.615753,94.590660 
	C375.559906,94.334465 373.094818,96.988220 372.861572,102.044319 
	C372.662659,106.355812 372.771149,110.681488 372.722931,115.446426 
z"/>
<path fill="#171717" opacity="1.000000" stroke="none" 
	d="
M205.349808,116.746727 
	C197.042679,117.293961 194.392868,115.708801 193.148575,108.197418 
	C194.358597,108.924995 195.944855,109.378799 196.709900,110.430176 
	C199.260727,113.935715 202.568573,113.956764 206.042282,112.674179 
	C207.037552,112.306709 208.155609,110.742096 208.173019,109.708801 
	C208.188766,108.773567 206.965729,107.365166 205.964340,106.951904 
	C203.218140,105.818588 199.957825,105.624451 197.556625,104.055321 
	C195.506424,102.715576 193.087402,99.929337 193.176056,97.884575 
	C193.267395,95.777412 195.790512,92.924980 197.955475,91.921669 
	C203.887787,89.172455 209.461639,91.923149 211.706711,99.415596 
	C209.484711,98.298691 208.299088,97.634315 207.059067,97.094978 
	C205.055588,96.223595 203.041702,94.898529 200.983185,94.801109 
	C199.635742,94.737343 198.201797,96.501617 196.806595,97.447128 
	C198.013672,98.588226 199.064270,100.012100 200.471817,100.790909 
	C201.879059,101.569565 203.664536,101.635536 205.246643,102.133293 
	C208.614197,103.192772 212.272095,104.155571 212.478699,108.576149 
	C212.692902,113.158897 209.799271,115.460037 205.349808,116.746727 
z"/>
<path fill="#191919" opacity="1.000000" stroke="none" 
	d="
M296.827484,107.806870 
	C294.021088,115.693993 287.977234,118.789085 281.193878,116.151779 
	C274.942719,113.721390 272.105896,105.182732 275.098999,97.806610 
	C277.496002,91.899445 284.524231,89.185112 290.552399,92.082253 
	C297.143860,95.250122 297.564362,101.161278 296.827484,107.806870 
M278.337555,101.150414 
	C278.409180,103.299850 278.177185,105.513565 278.615753,107.585327 
	C279.526978,111.890137 283.089874,114.140793 287.123901,113.187355 
	C292.000549,112.034767 292.936676,108.288597 292.976013,104.002754 
	C293.015778,99.672150 291.983276,95.889938 287.131073,94.849518 
	C282.637726,93.886032 279.813965,96.049416 278.337555,101.150414 
z"/>
<path fill="#1C1C1C" opacity="1.000000" stroke="none" 
	d="
M183.074951,109.922195 
	C183.073959,106.609253 183.037521,103.779778 183.081146,100.951538 
	C183.133347,97.566498 182.118515,94.888779 178.286301,94.658035 
	C174.432587,94.426003 171.715729,96.285172 171.362946,100.247864 
	C170.980499,104.543724 171.132568,108.887421 171.059189,113.210381 
	C171.042328,114.203766 171.056702,115.197693 171.056702,116.414619 
	C168.630692,117.462677 167.016464,117.624512 167.052094,114.159714 
	C167.129028,106.680679 167.075760,99.200302 167.075760,90.200150 
	C169.196274,91.582611 170.496704,92.430420 172.004868,93.413666 
	C172.903534,92.945686 174.297028,91.986397 175.838318,91.458969 
	C181.621567,89.479935 186.751373,92.898109 187.013748,98.993446 
	C187.206818,103.478218 187.055054,107.977837 187.056671,112.470840 
	C187.057144,113.781227 187.056747,115.091614 187.056747,117.041374 
	C180.975861,117.237114 183.929214,112.641991 183.074951,109.922195 
z"/>
<path fill="#232323" opacity="1.000000" stroke="none" 
	d="
M223.616119,94.898827 
	C222.379257,96.093163 221.146423,96.880943 219.183380,98.135323 
	C219.183380,95.295189 219.183380,93.771194 219.183380,92.247192 
	C219.516632,91.916000 219.849884,91.584808 220.183121,91.253624 
	C221.328796,92.333168 222.474457,93.412720 223.616119,94.898827 
z"/>
<path fill="#232323" opacity="1.000000" stroke="none" 
	d="
M223.322723,116.463974 
	C221.835175,116.882698 220.571289,116.963882 219.101318,117.058296 
	C219.101318,115.340210 219.101318,113.923088 219.101318,112.219971 
	C220.494492,112.219971 221.846359,112.219971 223.546356,112.219971 
	C223.546356,113.600204 223.546356,114.863312 223.322723,116.463974 
z"/>
<path fill="#ECECEC" opacity="1.000000" stroke="none" 
	d="
M1410.241211,106.076324 
	C1413.074341,105.671165 1415.476562,105.300812 1417.884155,104.929657 
	C1418.555542,110.329880 1416.616211,113.223915 1411.679443,113.257034 
	C1409.640747,113.270714 1407.589844,111.496674 1405.544556,110.535751 
	C1406.966553,109.060890 1408.388550,107.586006 1410.241211,106.076324 
z"/>
<path fill="#ECECEC" opacity="1.000000" stroke="none" 
	d="
M351.079224,105.958061 
	C353.435486,105.552475 355.375885,105.180862 359.133545,104.461235 
	C357.553680,107.684227 357.039490,110.778725 355.354767,111.676453 
	C353.002350,112.929955 349.766968,112.785278 346.930023,112.680466 
	C346.257019,112.655602 344.942200,109.498329 345.151825,109.332100 
	C346.821808,108.007843 348.788025,107.057236 351.079224,105.958061 
z"/>
<path fill="#F7F7F7" opacity="1.000000" stroke="none" 
	d="
M278.430481,100.753006 
	C279.813965,96.049416 282.637726,93.886032 287.131073,94.849518 
	C291.983276,95.889938 293.015778,99.672150 292.976013,104.002754 
	C292.936676,108.288597 292.000549,112.034767 287.123901,113.187355 
	C283.089874,114.140793 279.526978,111.890137 278.615753,107.585327 
	C278.177185,105.513565 278.409180,103.299850 278.430481,100.753006 
z"/>
</svg>