<svg version="1.1" id="Layer_1" xmlns="http://www.w3.org/2000/svg" xmlns:xlink="http://www.w3.org/1999/xlink" x="0px" y="0px"
	 width="100%" viewBox="0 0 635 327" enable-background="new 0 0 635 327" xml:space="preserve">
<path fill="#FFFFFF" opacity="1.000000" stroke="none" 
	d="
M426.000000,328.000000 
	C284.000000,328.000000 142.500000,328.000000 1.000000,328.000000 
	C1.000000,219.000000 1.000000,110.000000 1.000000,1.000000 
	C212.666672,1.000000 424.333344,1.000000 636.000000,1.000000 
	C636.000000,110.000000 636.000000,219.000000 636.000000,328.000000 
	C566.166687,328.000000 496.333344,328.000000 426.000000,328.000000 
M253.500000,40.999866 
	C182.739594,40.999866 111.979179,40.999866 41.288326,40.999866 
	C41.288326,122.643631 41.288326,203.713974 41.288326,284.713440 
	C223.978729,284.713440 406.380554,284.713440 588.713989,284.713440 
	C588.713989,203.356201 588.713989,122.285919 588.713989,40.999866 
	C477.116547,40.999866 365.808289,40.999866 253.500000,40.999866 
z"/>
<path fill="#000000" opacity="1.000000" stroke="none" 
	d="
M254.000000,40.999866 
	C365.808289,40.999866 477.116547,40.999866 588.713989,40.999866 
	C588.713989,122.285919 588.713989,203.356201 588.713989,284.713440 
	C406.380554,284.713440 223.978729,284.713440 41.288326,284.713440 
	C41.288326,203.713974 41.288326,122.643631 41.288326,40.999866 
	C111.979179,40.999866 182.739594,40.999866 254.000000,40.999866 
M44.999416,75.500000 
	C44.999416,103.928795 44.999416,132.357590 44.999416,160.715515 
	C225.309952,160.715515 405.044678,160.715515 584.715210,160.715515 
	C584.715210,122.025162 584.715210,83.620560 584.715210,45.284538 
	C404.691803,45.284538 224.957184,45.284538 44.999416,45.284538 
	C44.999416,55.212063 44.999416,64.856033 44.999416,75.500000 
M114.500000,281.001709 
	C271.259125,281.001709 428.018280,281.001709 584.718445,281.001709 
	C584.718445,242.029114 584.718445,203.624176 584.718445,165.281830 
	C404.696075,165.281830 224.960464,165.281830 45.284103,165.281830 
	C45.284103,203.971085 45.284103,242.376083 45.284103,281.001709 
	C68.212837,281.001709 90.856415,281.001709 114.500000,281.001709 
z"/>
<path fill="#FFFFFF" opacity="1.000000" stroke="none" 
	d="
M44.999416,75.000000 
	C44.999416,64.856033 44.999416,55.212063 44.999416,45.284538 
	C224.957184,45.284538 404.691803,45.284538 584.715210,45.284538 
	C584.715210,83.620560 584.715210,122.025162 584.715210,160.715515 
	C405.044678,160.715515 225.309952,160.715515 44.999416,160.715515 
	C44.999416,132.357590 44.999416,103.928795 44.999416,75.000000 
M295.733612,117.012848 
	C299.892059,117.013962 304.059357,117.186440 308.206604,116.971481 
	C313.059021,116.719978 317.512421,115.493835 319.148987,110.054649 
	C320.752777,104.724312 318.525848,101.064812 315.182770,99.306702 
	C316.098358,95.474701 318.142822,91.801964 317.315247,88.967880 
	C316.533142,86.289581 312.996338,83.144737 310.203552,82.599266 
	C305.004791,81.583862 299.466278,82.307907 293.992523,82.307907 
	C293.992523,90.582298 293.913055,98.400131 294.028259,106.215080 
	C294.080780,109.775909 294.517853,113.331070 295.733612,117.012848 
M379.084778,97.503830 
	C379.084991,103.000038 379.172760,108.498161 379.052307,113.991730 
	C378.981171,117.236847 380.335663,117.613808 382.657257,116.639793 
	C384.191925,112.379272 380.734009,107.147636 385.773926,104.354500 
	C391.301239,107.297043 390.281891,116.857674 399.563873,117.142159 
	C395.690491,111.006004 392.422424,105.828720 389.161438,100.662689 
	C392.177063,97.502777 395.010559,94.533707 398.235199,91.154793 
	C390.124786,90.059410 388.927673,98.323883 383.113281,100.609299 
	C383.113281,94.368797 383.113281,88.317825 383.113281,82.266853 
	C382.554474,82.016602 381.995667,81.766357 381.436859,81.516106 
	C380.653046,82.682091 379.287689,83.803108 379.193390,85.022415 
	C378.898987,88.830368 379.085022,92.675468 379.084778,97.503830 
M249.579529,114.953445 
	C249.574478,109.624535 249.775162,104.285408 249.511444,98.969330 
	C249.193085,92.552299 243.887024,89.337151 237.833435,91.653587 
	C236.498901,92.164246 235.245743,92.887550 234.879242,93.065147 
	C232.854691,92.021706 231.558197,91.353500 229.814743,90.454926 
	C229.814743,99.808563 229.814743,108.249847 229.814743,116.691132 
	C230.238770,116.961967 230.662781,117.232803 231.086807,117.503639 
	C231.919083,116.377502 233.379105,115.300606 233.472000,114.116478 
	C233.822754,109.645172 233.613068,105.133217 233.836853,100.647644 
	C234.037552,96.624695 236.535614,94.612793 240.396317,94.634270 
	C244.523041,94.657227 245.628403,97.518997 245.636276,101.075470 
	C245.647690,106.229950 245.639206,111.384460 245.639206,117.458511 
	C247.272400,116.780922 248.406540,116.310379 249.579529,114.953445 
M261.863983,100.563019 
	C261.052643,99.342461 260.241272,98.121902 259.429932,96.901344 
	C260.636200,96.161591 261.940826,94.688896 263.028198,94.834862 
	C265.282318,95.137459 267.439453,96.254326 269.600098,97.126434 
	C270.851349,97.631477 272.031891,98.311699 273.973419,99.274803 
	C273.413422,93.797287 270.733582,91.522850 267.317078,91.473640 
	C263.926483,91.424812 259.947754,92.075874 257.250793,93.918526 
	C253.684586,96.355080 254.840500,101.776184 258.883789,103.758522 
	C261.083954,104.837227 263.715424,105.039757 265.908234,106.128929 
	C267.738586,107.038048 269.213470,108.662704 270.845795,109.970482 
	C268.712860,111.113419 266.640472,112.976715 264.427094,113.162766 
	C262.768890,113.302170 260.946075,111.252235 259.164215,110.233719 
	C257.958008,109.544258 256.695587,108.953117 255.458328,108.318001 
	C257.475494,116.927711 266.258820,119.739731 272.036957,114.705971 
	C273.656952,113.294701 275.000336,110.316299 274.707184,108.315048 
	C274.422058,106.368500 272.170990,104.248291 270.245941,103.124947 
	C268.032074,101.833038 265.228485,101.551651 261.863983,100.563019 
M340.238129,116.038307 
	C346.307098,113.396950 347.376648,108.235527 347.079254,102.408249 
	C346.840759,97.735710 344.906036,94.069794 340.523376,92.050522 
	C335.782623,89.866226 330.066956,91.087975 326.853729,94.849464 
	C323.500763,98.774536 323.044312,107.105591 325.921783,111.859146 
	C328.545776,116.193954 333.412323,117.771286 340.238129,116.038307 
M373.087555,98.697670 
	C369.694153,91.645065 363.170105,89.071770 356.811340,92.277779 
	C351.010254,95.202599 348.755280,104.558823 352.239807,111.245827 
	C355.030762,116.601822 362.036591,118.579407 367.806702,115.639977 
	C372.850159,113.070740 374.669891,107.702202 373.087555,98.697670 
M283.461792,117.055840 
	C287.930420,117.165352 285.549164,114.127708 286.057709,111.871826 
	C284.264893,112.042801 282.888794,112.174034 280.709503,112.381866 
	C281.531830,114.337517 282.098877,115.686127 283.461792,117.055840 
M284.226349,91.946495 
	C279.927246,91.689529 281.763580,94.624924 281.416809,97.005280 
	C283.176941,96.921394 284.541687,96.856361 286.615723,96.757515 
	C285.956909,94.816605 285.479828,93.410957 284.226349,91.946495 
z"/>
<path fill="#FEFEFE" opacity="1.000000" stroke="none" 
	d="
M114.000000,281.001709 
	C90.856415,281.001709 68.212837,281.001709 45.284103,281.001709 
	C45.284103,242.376083 45.284103,203.971085 45.284103,165.281830 
	C224.960464,165.281830 404.696075,165.281830 584.718445,165.281830 
	C584.718445,203.624176 584.718445,242.029114 584.718445,281.001709 
	C428.018280,281.001709 271.259125,281.001709 114.000000,281.001709 
M458.656189,221.920822 
	C461.398285,226.097488 463.971008,230.401657 466.969940,234.384964 
	C468.091614,235.874771 470.206329,236.616943 472.694763,238.238663 
	C472.694763,225.194778 472.694763,213.750534 472.694763,201.990311 
	C471.271790,202.113083 470.085754,202.215424 468.447021,202.356827 
	C468.447021,210.914627 468.447021,219.111496 468.447021,227.308365 
	C462.438049,220.096390 457.566956,212.467438 452.399689,205.044693 
	C451.242371,203.382263 449.047607,202.442078 447.330505,201.169388 
	C446.922760,201.542191 446.515045,201.914993 446.107300,202.287796 
	C446.107300,203.930161 446.107269,205.572525 446.107269,207.214890 
	C446.107269,217.020218 446.107300,226.825562 446.107300,236.956223 
	C447.700439,236.864349 448.890137,236.795761 450.748108,236.688629 
	C450.748108,228.081787 450.748108,219.814606 450.748108,211.547440 
	C451.071808,211.500290 451.395508,211.453156 451.719238,211.406006 
	C453.891571,214.714905 456.063904,218.023819 458.656189,221.920822 
M434.707458,235.503494 
	C436.371918,232.792374 439.396210,230.057312 439.349060,227.376312 
	C439.292908,224.183853 436.601013,221.037766 435.494568,218.777512 
	C436.222382,215.242371 437.697937,211.844971 437.391388,208.616806 
	C437.001984,204.515656 433.348480,202.513947 429.478119,202.238525 
	C424.410980,201.877945 419.298798,202.150146 413.994293,202.150146 
	C413.994293,208.283432 413.994293,213.926910 413.994293,219.570404 
	C413.994293,225.322205 413.994293,231.073990 413.994293,237.583237 
	C421.156769,236.969574 427.576721,236.419525 434.707458,235.503494 
M394.420044,206.036774 
	C397.787781,205.980072 400.512726,206.841125 402.250580,210.185074 
	C402.793304,211.229294 404.721954,211.553268 406.752563,212.578888 
	C405.008759,204.432785 399.471588,200.980179 391.825775,202.072098 
	C385.933167,202.913620 382.198425,206.280289 381.984406,210.943588 
	C381.782135,215.350586 384.467743,218.274673 390.345490,219.988708 
	C393.682495,220.961853 397.177795,221.551315 400.343262,222.914108 
	C404.478119,224.694199 404.684753,229.091934 401.046722,231.565002 
	C396.018127,234.983337 387.980682,232.785233 385.105713,227.433044 
	C384.485138,226.277740 382.834076,225.675995 380.751404,224.159286 
	C381.887787,234.395828 389.883759,239.012100 399.152191,236.424454 
	C404.566101,234.912949 407.839844,231.345169 407.707062,226.788864 
	C407.556763,221.630630 404.189026,219.204773 399.677246,217.921906 
	C396.171509,216.925079 392.566986,216.196060 389.183502,214.889374 
	C387.895508,214.391953 386.267944,212.597382 386.292419,211.425232 
	C386.323456,209.938126 387.579834,208.076797 388.863586,207.132233 
	C390.059509,206.252319 391.983978,206.362518 394.420044,206.036774 
M302.405090,210.965469 
	C299.948151,211.678787 297.491211,212.392090 294.747253,213.188736 
	C294.747253,210.668915 294.693481,208.345291 294.761292,206.025223 
	C294.840179,203.325500 294.877380,200.791519 291.063446,202.377182 
	C291.063446,213.975693 291.063446,225.387817 291.063446,236.799942 
	C291.536346,237.042023 292.009277,237.284088 292.482178,237.526169 
	C293.237061,236.316803 294.552277,235.149155 294.645966,233.890594 
	C294.979004,229.415939 294.694489,224.895187 295.030518,220.420929 
	C295.329529,216.439621 298.035980,214.537476 301.850067,214.651047 
	C305.659302,214.764496 306.834473,217.391800 306.798523,220.815750 
	C306.775757,222.980759 306.795044,225.146225 306.795166,227.311478 
	C306.795319,230.443863 306.795197,233.576248 306.795197,237.038589 
	C308.360962,236.894211 309.559784,236.783661 310.856140,236.664139 
	C310.856140,230.938354 310.857483,225.620758 310.855743,220.303177 
	C310.854034,215.118637 308.729492,211.670395 302.405090,210.965469 
M321.674194,216.991379 
	C324.702576,216.378525 327.726624,215.413620 330.762146,215.375931 
	C331.627686,215.365173 332.873047,217.969604 333.222351,219.535782 
	C333.344604,220.083908 331.409027,221.517212 330.220764,221.841599 
	C327.839752,222.491592 325.304413,222.549179 322.872009,223.044052 
	C318.459381,223.941757 315.633087,227.301788 316.258514,231.008820 
	C317.005371,235.435806 320.334442,237.131592 324.238220,236.903992 
	C327.421631,236.718369 330.537170,235.368942 332.782990,234.773941 
	C334.664459,235.792221 336.173370,236.608841 337.580963,237.370667 
	C337.580963,230.894592 337.683075,225.287338 337.552948,219.685471 
	C337.415985,213.789978 335.260010,211.568893 329.539795,211.001633 
	C322.808594,210.334106 318.706085,212.774811 317.359711,218.968491 
	C318.932159,218.440948 320.102478,218.048309 321.674194,216.991379 
M178.476685,216.983215 
	C176.837311,216.983215 175.197952,216.983215 173.529175,216.983215 
	C173.529175,213.167572 173.529175,209.748032 173.529175,206.016205 
	C178.882156,206.016205 184.019424,205.934692 189.152588,206.044601 
	C192.624603,206.118942 192.371246,204.443314 191.554382,202.254120 
	C183.993408,202.254120 176.748840,202.254120 169.348236,202.254120 
	C169.348236,213.920212 169.348236,225.314865 169.348236,237.008499 
	C170.786667,236.885544 171.983337,236.783249 173.360260,236.665543 
	C173.360260,231.324158 173.360260,226.360916 173.360260,220.911316 
	C178.810410,220.911316 184.051147,220.911316 189.291885,220.911316 
	C189.549454,220.418350 189.807037,219.925400 190.064606,219.432434 
	C189.024857,218.616226 188.064651,217.262695 186.928955,217.094543 
	C184.489853,216.733429 181.960251,216.983429 178.476685,216.983215 
M226.792557,214.062378 
	C226.792557,221.638275 226.792557,229.214172 226.792557,236.790085 
	C227.343536,237.032730 227.894501,237.275375 228.445480,237.518021 
	C229.212875,236.326965 230.552719,235.178741 230.645569,233.937241 
	C230.991837,229.306931 230.711914,224.628403 231.087692,220.002151 
	C231.394302,216.227432 234.113098,214.549866 237.679092,214.624435 
	C241.450790,214.703278 242.777618,217.216553 242.784500,220.654770 
	C242.795120,225.968231 242.787292,231.281738 242.787292,236.949982 
	C244.184372,236.860580 245.369308,236.784744 246.729996,236.697662 
	C246.729996,230.485764 246.938309,224.671600 246.673111,218.879120 
	C246.391602,212.730011 241.231003,209.480072 235.394928,211.520309 
	C233.897171,212.043900 232.509048,212.881180 231.759857,213.242203 
	C230.181946,212.285217 229.108795,211.634369 228.035645,210.983521 
	C227.621552,211.716965 227.207458,212.450409 226.792557,214.062378 
M350.208771,232.951477 
	C347.063721,233.273193 347.749908,225.868240 342.964020,229.195343 
	C345.261169,237.091293 355.000916,239.801437 360.743713,234.318619 
	C364.609497,230.627823 363.565399,225.053955 358.510529,223.092468 
	C356.052887,222.138794 353.325073,221.845306 350.930206,220.779556 
	C349.496796,220.141632 348.470642,218.588593 347.261414,217.446869 
	C348.662415,216.492157 350.098602,214.715958 351.456238,214.774094 
	C353.524902,214.862686 355.542145,216.213715 357.575531,217.042542 
	C358.868591,217.569626 360.151398,218.121887 361.438782,218.662842 
	C359.220734,211.132523 351.746124,208.894943 346.291046,212.698502 
	C341.909027,215.753845 342.341797,221.675217 347.296967,223.912170 
	C349.985840,225.126038 353.046600,225.509460 355.753571,226.692932 
	C357.015930,227.244827 358.767059,228.950073 358.625244,229.876816 
	C358.441010,231.080795 356.753357,232.410416 355.412964,232.978287 
	C354.159698,233.509262 352.514832,233.115952 350.208771,232.951477 
M257.363220,224.229294 
	C260.054230,225.059067 262.828766,225.695786 265.398071,226.806992 
	C266.537811,227.299927 268.026093,228.792023 267.975098,229.757629 
	C267.916718,230.862900 266.514160,232.453659 265.361938,232.841080 
	C261.799469,234.038879 258.551361,233.670898 256.260956,229.967758 
	C255.676987,229.023544 253.952560,228.784683 251.789444,227.770309 
	C254.699966,236.985260 263.897003,239.694336 269.785767,234.573639 
	C273.799347,231.083557 273.013947,225.202057 268.140778,223.182632 
	C265.851868,222.234146 263.245331,222.003006 261.036713,220.926010 
	C259.380890,220.118561 258.130798,218.479034 256.700104,217.209930 
	C258.655365,216.337128 260.578156,214.897247 262.576874,214.782684 
	C264.007324,214.700699 265.497009,216.477539 267.040222,217.269165 
	C268.220428,217.874588 269.525787,218.236069 271.772400,219.080994 
	C269.098663,212.207382 264.232727,209.477402 258.908539,211.521744 
	C256.489380,212.450668 253.666916,214.970016 253.109146,217.272263 
	C252.661087,219.121674 255.349426,221.730927 257.363220,224.229294 
M158.349136,244.232788 
	C159.501114,245.224823 160.653076,246.216843 161.805054,247.208862 
	C154.046692,230.082138 154.031357,221.794235 162.530746,202.407425 
	C151.755829,203.636261 149.027237,228.203354 158.349136,244.232788 
M206.914734,234.394608 
	C210.636139,220.828964 205.429459,202.593201 197.619324,202.535004 
	C206.861816,217.200531 206.265671,231.953506 198.323898,247.068222 
	C203.149704,244.428619 204.668701,239.613632 206.914734,234.394608 
M373.898804,230.368225 
	C373.898804,221.074844 373.898804,211.781479 373.898804,202.231415 
	C372.353027,202.231415 371.136292,202.231415 369.878265,202.231415 
	C369.878265,213.874451 369.878265,225.301819 369.878265,237.028137 
	C371.317871,236.902405 372.524750,236.796982 373.898804,236.676971 
	C373.898804,234.626404 373.898804,232.975784 373.898804,230.368225 
z"/>
<path fill="#0C0C0C" opacity="1.000000" stroke="none" 
	d="
M295.257080,116.950821 
	C294.517853,113.331070 294.080780,109.775909 294.028259,106.215080 
	C293.913055,98.400131 293.992523,90.582298 293.992523,82.307907 
	C299.466278,82.307907 305.004791,81.583862 310.203552,82.599266 
	C312.996338,83.144737 316.533142,86.289581 317.315247,88.967880 
	C318.142822,91.801964 316.098358,95.474701 315.182770,99.306702 
	C318.525848,101.064812 320.752777,104.724312 319.148987,110.054649 
	C317.512421,115.493835 313.059021,116.719978 308.206604,116.971481 
	C304.059357,117.186440 299.892059,117.013962 295.257080,116.950821 
M311.497040,101.520401 
	C307.116364,101.316193 302.735718,101.111984 298.382629,100.909065 
	C298.382629,105.345200 298.382629,108.950157 298.382629,112.985764 
	C301.874420,112.985764 305.255432,113.452423 308.422119,112.829597 
	C310.717529,112.378120 314.036072,110.855888 314.527252,109.134529 
	C315.105652,107.107491 313.124268,104.350021 311.497040,101.520401 
M298.161682,88.714851 
	C298.161682,91.319817 298.161682,93.924782 298.161682,96.994446 
	C300.829529,96.994446 303.098358,96.999527 305.367157,96.992348 
	C306.524841,96.988678 307.698944,97.082794 308.837158,96.925972 
	C313.169006,96.329147 315.245544,92.054367 313.012421,88.439056 
	C311.064514,85.285454 301.068085,84.842888 298.161682,88.714851 
z"/>
<path fill="#1A1A1A" opacity="1.000000" stroke="none" 
	d="
M379.084778,97.004997 
	C379.085022,92.675468 378.898987,88.830368 379.193390,85.022415 
	C379.287689,83.803108 380.653046,82.682091 381.436859,81.516106 
	C381.995667,81.766357 382.554474,82.016602 383.113281,82.266853 
	C383.113281,88.317825 383.113281,94.368797 383.113281,100.609299 
	C388.927673,98.323883 390.124786,90.059410 398.235199,91.154793 
	C395.010559,94.533707 392.177063,97.502777 389.161438,100.662689 
	C392.422424,105.828720 395.690491,111.006004 399.563873,117.142159 
	C390.281891,116.857674 391.301239,107.297043 385.773926,104.354500 
	C380.734009,107.147636 384.191925,112.379272 382.657257,116.639793 
	C380.335663,117.613808 378.981171,117.236847 379.052307,113.991730 
	C379.172760,108.498161 379.084991,103.000038 379.084778,97.004997 
z"/>
<path fill="#1A1A1A" opacity="1.000000" stroke="none" 
	d="
M249.560120,115.396637 
	C248.406540,116.310379 247.272400,116.780922 245.639206,117.458511 
	C245.639206,111.384460 245.647690,106.229950 245.636276,101.075470 
	C245.628403,97.518997 244.523041,94.657227 240.396317,94.634270 
	C236.535614,94.612793 234.037552,96.624695 233.836853,100.647644 
	C233.613068,105.133217 233.822754,109.645172 233.472000,114.116478 
	C233.379105,115.300606 231.919083,116.377502 231.086807,117.503639 
	C230.662781,117.232803 230.238770,116.961967 229.814743,116.691132 
	C229.814743,108.249847 229.814743,99.808563 229.814743,90.454926 
	C231.558197,91.353500 232.854691,92.021706 234.879242,93.065147 
	C235.245743,92.887550 236.498901,92.164246 237.833435,91.653587 
	C243.887024,89.337151 249.193085,92.552299 249.511444,98.969330 
	C249.775162,104.285408 249.574478,109.624535 249.560120,115.396637 
z"/>
<path fill="#171717" opacity="1.000000" stroke="none" 
	d="
M262.272522,100.697189 
	C265.228485,101.551651 268.032074,101.833038 270.245941,103.124947 
	C272.170990,104.248291 274.422058,106.368500 274.707184,108.315048 
	C275.000336,110.316299 273.656952,113.294701 272.036957,114.705971 
	C266.258820,119.739731 257.475494,116.927711 255.458328,108.318001 
	C256.695587,108.953117 257.958008,109.544258 259.164215,110.233719 
	C260.946075,111.252235 262.768890,113.302170 264.427094,113.162766 
	C266.640472,112.976715 268.712860,111.113419 270.845795,109.970474 
	C269.213470,108.662704 267.738586,107.038048 265.908234,106.128929 
	C263.715424,105.039757 261.083954,104.837227 258.883789,103.758522 
	C254.840500,101.776184 253.684586,96.355080 257.250793,93.918526 
	C259.947754,92.075874 263.926483,91.424812 267.317078,91.473640 
	C270.733582,91.522850 273.413422,93.797287 273.973419,99.274803 
	C272.031891,98.311699 270.851349,97.631477 269.600098,97.126434 
	C267.439453,96.254326 265.282318,95.137459 263.028198,94.834862 
	C261.940826,94.688896 260.636200,96.161591 259.429932,96.901344 
	C260.241272,98.121902 261.052643,99.342461 262.272522,100.697189 
z"/>
<path fill="#181818" opacity="1.000000" stroke="none" 
	d="
M339.852356,116.143768 
	C333.412323,117.771286 328.545776,116.193954 325.921783,111.859146 
	C323.044312,107.105591 323.500763,98.774536 326.853729,94.849464 
	C330.066956,91.087975 335.782623,89.866226 340.523376,92.050522 
	C344.906036,94.069794 346.840759,97.735710 347.079254,102.408249 
	C347.376648,108.235527 346.307098,113.396950 339.852356,116.143768 
M337.139648,113.203148 
	C343.084625,110.577133 345.169769,101.727760 340.962708,96.978050 
	C338.202026,93.861275 332.333160,93.395958 330.554932,96.951302 
	C328.925903,100.208344 328.576599,104.512985 328.926208,108.237503 
	C329.275818,111.962288 332.558807,113.517525 337.139648,113.203148 
z"/>
<path fill="#161616" opacity="1.000000" stroke="none" 
	d="
M373.185547,99.090157 
	C374.669891,107.702202 372.850159,113.070740 367.806702,115.639977 
	C362.036591,118.579407 355.030762,116.601822 352.239807,111.245827 
	C348.755280,104.558823 351.010254,95.202599 356.811340,92.277779 
	C363.170105,89.071770 369.694153,91.645065 373.185547,99.090157 
M367.570892,111.129921 
	C368.045837,107.188316 369.398712,103.099815 368.770142,99.342842 
	C368.009918,94.798973 362.301514,93.204277 358.398193,95.654884 
	C354.837646,97.890305 353.553070,105.286682 355.964539,109.667549 
	C358.137390,113.614937 362.005463,114.330681 367.570892,111.129921 
z"/>
<path fill="#1E1E1E" opacity="1.000000" stroke="none" 
	d="
M283.063873,117.045288 
	C282.098877,115.686127 281.531830,114.337517 280.709503,112.381866 
	C282.888794,112.174034 284.264893,112.042801 286.057709,111.871826 
	C285.549164,114.127708 287.930420,117.165352 283.063873,117.045288 
z"/>
<path fill="#1E1E1E" opacity="1.000000" stroke="none" 
	d="
M284.614532,91.975899 
	C285.479828,93.410957 285.956909,94.816605 286.615723,96.757515 
	C284.541687,96.856361 283.176941,96.921394 281.416809,97.005280 
	C281.763580,94.624924 279.927246,91.689529 284.614532,91.975899 
z"/>
<path fill="#131313" opacity="1.000000" stroke="none" 
	d="
M458.446228,221.626770 
	C456.063904,218.023819 453.891571,214.714905 451.719238,211.406006 
	C451.395508,211.453156 451.071808,211.500290 450.748108,211.547440 
	C450.748108,219.814606 450.748108,228.081787 450.748108,236.688629 
	C448.890137,236.795761 447.700439,236.864349 446.107300,236.956223 
	C446.107300,226.825562 446.107269,217.020218 446.107269,207.214890 
	C446.107269,205.572525 446.107300,203.930161 446.107300,202.287796 
	C446.515045,201.914993 446.922760,201.542191 447.330505,201.169388 
	C449.047607,202.442078 451.242371,203.382263 452.399689,205.044693 
	C457.566956,212.467438 462.438049,220.096390 468.447021,227.308365 
	C468.447021,219.111496 468.447021,210.914627 468.447021,202.356827 
	C470.085754,202.215424 471.271790,202.113083 472.694763,201.990311 
	C472.694763,213.750534 472.694763,225.194778 472.694763,238.238663 
	C470.206329,236.616943 468.091614,235.874771 466.969940,234.384964 
	C463.971008,230.401657 461.398285,226.097488 458.446228,221.626770 
z"/>
<path fill="#0C0C0C" opacity="1.000000" stroke="none" 
	d="
M434.352051,235.686493 
	C427.576721,236.419525 421.156769,236.969574 413.994293,237.583237 
	C413.994293,231.073990 413.994293,225.322205 413.994293,219.570404 
	C413.994293,213.926910 413.994293,208.283432 413.994293,202.150146 
	C419.298798,202.150146 424.410980,201.877945 429.478119,202.238525 
	C433.348480,202.513947 437.001984,204.515656 437.391388,208.616806 
	C437.697937,211.844971 436.222382,215.242371 435.494568,218.777512 
	C436.601013,221.037766 439.292908,224.183853 439.349060,227.376312 
	C439.396210,230.057312 436.371918,232.792374 434.352051,235.686493 
M418.239166,221.842712 
	C418.239166,225.448364 418.239166,229.054016 418.239166,232.976944 
	C422.141754,232.976944 425.606079,233.072876 429.062683,232.950668 
	C432.707947,232.821793 435.038422,231.092896 435.132782,227.167984 
	C435.227356,223.235626 432.941223,221.329163 429.335999,221.105759 
	C425.863861,220.890610 422.363892,221.124817 418.239166,221.842712 
M418.234528,206.833191 
	C418.234528,210.093628 418.234528,213.354065 418.234528,216.937927 
	C422.066772,216.937927 425.666443,217.553513 428.882660,216.708923 
	C430.837189,216.195679 433.141632,213.644547 433.607697,211.621567 
	C434.312592,208.562256 432.206116,206.241684 428.790070,206.092606 
	C425.493011,205.948700 422.182098,206.122116 418.234528,206.833191 
z"/>
<path fill="#131313" opacity="1.000000" stroke="none" 
	d="
M394.003876,206.036804 
	C391.983978,206.362518 390.059509,206.252319 388.863586,207.132233 
	C387.579834,208.076797 386.323456,209.938126 386.292419,211.425232 
	C386.267944,212.597382 387.895508,214.391953 389.183502,214.889374 
	C392.566986,216.196060 396.171509,216.925079 399.677246,217.921906 
	C404.189026,219.204773 407.556763,221.630630 407.707062,226.788864 
	C407.839844,231.345169 404.566101,234.912949 399.152191,236.424454 
	C389.883759,239.012100 381.887787,234.395828 380.751404,224.159286 
	C382.834076,225.675995 384.485138,226.277740 385.105713,227.433044 
	C387.980682,232.785233 396.018127,234.983337 401.046722,231.565002 
	C404.684753,229.091934 404.478119,224.694199 400.343262,222.914108 
	C397.177795,221.551315 393.682495,220.961853 390.345490,219.988708 
	C384.467743,218.274673 381.782135,215.350586 381.984406,210.943588 
	C382.198425,206.280289 385.933167,202.913620 391.825775,202.072098 
	C399.471588,200.980179 405.008759,204.432785 406.752563,212.578888 
	C404.721954,211.553268 402.793304,211.229294 402.250580,210.185074 
	C400.512726,206.841125 397.787781,205.980072 394.003876,206.036804 
z"/>
<path fill="#161616" opacity="1.000000" stroke="none" 
	d="
M302.816284,210.977631 
	C308.729492,211.670395 310.854034,215.118637 310.855743,220.303177 
	C310.857483,225.620758 310.856140,230.938354 310.856140,236.664139 
	C309.559784,236.783661 308.360962,236.894211 306.795197,237.038589 
	C306.795197,233.576248 306.795319,230.443863 306.795166,227.311478 
	C306.795044,225.146225 306.775757,222.980759 306.798523,220.815750 
	C306.834473,217.391800 305.659302,214.764496 301.850067,214.651047 
	C298.035980,214.537476 295.329529,216.439621 295.030518,220.420929 
	C294.694489,224.895187 294.979004,229.415939 294.645966,233.890594 
	C294.552277,235.149155 293.237061,236.316803 292.482178,237.526169 
	C292.009277,237.284088 291.536346,237.042023 291.063446,236.799942 
	C291.063446,225.387817 291.063446,213.975693 291.063446,202.377182 
	C294.877380,200.791519 294.840179,203.325500 294.761292,206.025223 
	C294.693481,208.345291 294.747253,210.668915 294.747253,213.188736 
	C297.491211,212.392090 299.948151,211.678787 302.816284,210.977631 
z"/>
<path fill="#181818" opacity="1.000000" stroke="none" 
	d="
M321.473511,217.323532 
	C320.102478,218.048309 318.932159,218.440948 317.359711,218.968491 
	C318.706085,212.774811 322.808594,210.334106 329.539795,211.001633 
	C335.260010,211.568893 337.415985,213.789978 337.552948,219.685471 
	C337.683075,225.287338 337.580963,230.894592 337.580963,237.370667 
	C336.173370,236.608841 334.664459,235.792221 332.782990,234.773941 
	C330.537170,235.368942 327.421631,236.718369 324.238220,236.903992 
	C320.334442,237.131592 317.005371,235.435806 316.258514,231.008820 
	C315.633087,227.301788 318.459381,223.941757 322.872009,223.044052 
	C325.304413,222.549179 327.839752,222.491592 330.220764,221.841599 
	C331.409027,221.517212 333.344604,220.083908 333.222351,219.535782 
	C332.873047,217.969604 331.627686,215.365173 330.762146,215.375931 
	C327.726624,215.413620 324.702576,216.378525 321.473511,217.323532 
M333.364532,228.053452 
	C332.949097,227.035385 332.417175,225.103149 332.135986,225.138977 
	C328.890808,225.552414 325.626465,226.074326 322.502625,227.016495 
	C321.612305,227.285019 320.482208,229.152603 320.672546,230.021866 
	C320.927368,231.185730 322.201111,232.711334 323.315857,232.997849 
	C327.483856,234.069107 331.190002,233.351105 333.364532,228.053452 
z"/>
<path fill="#0A0A0A" opacity="1.000000" stroke="none" 
	d="
M178.972198,216.983215 
	C181.960251,216.983429 184.489853,216.733429 186.928955,217.094543 
	C188.064651,217.262695 189.024857,218.616226 190.064606,219.432434 
	C189.807037,219.925400 189.549454,220.418350 189.291885,220.911316 
	C184.051147,220.911316 178.810410,220.911316 173.360260,220.911316 
	C173.360260,226.360916 173.360260,231.324158 173.360260,236.665543 
	C171.983337,236.783249 170.786667,236.885544 169.348236,237.008499 
	C169.348236,225.314865 169.348236,213.920212 169.348236,202.254120 
	C176.748840,202.254120 183.993408,202.254120 191.554382,202.254120 
	C192.371246,204.443314 192.624603,206.118942 189.152588,206.044601 
	C184.019424,205.934692 178.882156,206.016205 173.529175,206.016205 
	C173.529175,209.748032 173.529175,213.167572 173.529175,216.983215 
	C175.197952,216.983215 176.837311,216.983215 178.972198,216.983215 
z"/>
<path fill="#171717" opacity="1.000000" stroke="none" 
	d="
M226.792969,213.623108 
	C227.207458,212.450409 227.621552,211.716965 228.035645,210.983521 
	C229.108795,211.634369 230.181946,212.285217 231.759857,213.242203 
	C232.509048,212.881180 233.897171,212.043900 235.394928,211.520309 
	C241.231003,209.480072 246.391602,212.730011 246.673111,218.879120 
	C246.938309,224.671600 246.729996,230.485764 246.729996,236.697662 
	C245.369308,236.784744 244.184372,236.860580 242.787292,236.949982 
	C242.787292,231.281738 242.795120,225.968231 242.784500,220.654770 
	C242.777618,217.216553 241.450790,214.703278 237.679092,214.624435 
	C234.113098,214.549866 231.394302,216.227432 231.087692,220.002151 
	C230.711914,224.628403 230.991837,229.306931 230.645569,233.937241 
	C230.552719,235.178741 229.212875,236.326965 228.445480,237.518021 
	C227.894501,237.275375 227.343536,237.032730 226.792557,236.790085 
	C226.792557,229.214172 226.792557,221.638275 226.792969,213.623108 
z"/>
<path fill="#171717" opacity="1.000000" stroke="none" 
	d="
M350.625549,233.040451 
	C352.514832,233.115952 354.159698,233.509262 355.412964,232.978287 
	C356.753357,232.410416 358.441010,231.080795 358.625244,229.876816 
	C358.767059,228.950073 357.015930,227.244827 355.753571,226.692932 
	C353.046600,225.509460 349.985840,225.126038 347.296967,223.912170 
	C342.341797,221.675217 341.909027,215.753845 346.291046,212.698502 
	C351.746124,208.894943 359.220734,211.132523 361.438782,218.662842 
	C360.151398,218.121887 358.868591,217.569626 357.575531,217.042542 
	C355.542145,216.213715 353.524902,214.862686 351.456238,214.774094 
	C350.098602,214.715958 348.662415,216.492157 347.261414,217.446869 
	C348.470642,218.588593 349.496796,220.141632 350.930206,220.779556 
	C353.325073,221.845306 356.052887,222.138794 358.510529,223.092468 
	C363.565399,225.053955 364.609497,230.627823 360.743713,234.318619 
	C355.000916,239.801437 345.261169,237.091293 342.964020,229.195343 
	C347.749908,225.868240 347.063721,233.273193 350.625549,233.040451 
z"/>
<path fill="#151515" opacity="1.000000" stroke="none" 
	d="
M257.004639,224.116150 
	C255.349426,221.730927 252.661087,219.121674 253.109146,217.272263 
	C253.666916,214.970016 256.489380,212.450668 258.908539,211.521744 
	C264.232727,209.477402 269.098663,212.207382 271.772400,219.080994 
	C269.525787,218.236069 268.220428,217.874588 267.040222,217.269165 
	C265.497009,216.477539 264.007324,214.700699 262.576874,214.782684 
	C260.578156,214.897247 258.655365,216.337128 256.700104,217.209946 
	C258.130798,218.479034 259.380890,220.118561 261.036713,220.926010 
	C263.245331,222.003006 265.851868,222.234146 268.140778,223.182632 
	C273.013947,225.202057 273.799347,231.083557 269.785767,234.573639 
	C263.897003,239.694336 254.699966,236.985260 251.789444,227.770309 
	C253.952560,228.784683 255.676987,229.023544 256.260956,229.967758 
	C258.551361,233.670898 261.799469,234.038879 265.361938,232.841080 
	C266.514160,232.453659 267.916718,230.862900 267.975098,229.757629 
	C268.026093,228.792023 266.537811,227.299927 265.398071,226.806992 
	C262.828766,225.695786 260.054230,225.059067 257.004639,224.116150 
z"/>
<path fill="#1E1E1E" opacity="1.000000" stroke="none" 
	d="
M158.151398,243.925186 
	C149.027237,228.203354 151.755829,203.636261 162.530746,202.407425 
	C154.031357,221.794235 154.046692,230.082138 161.805054,247.208862 
	C160.653076,246.216843 159.501114,245.224823 158.151398,243.925186 
z"/>
<path fill="#1E1E1E" opacity="1.000000" stroke="none" 
	d="
M206.788422,234.768646 
	C204.668701,239.613632 203.149704,244.428619 198.323898,247.068222 
	C206.265671,231.953506 206.861816,217.200531 197.619324,202.535004 
	C205.429459,202.593201 210.636139,220.828964 206.788422,234.768646 
z"/>
<path fill="#131313" opacity="1.000000" stroke="none" 
	d="
M373.898804,230.846695 
	C373.898804,232.975784 373.898804,234.626404 373.898804,236.676971 
	C372.524750,236.796982 371.317871,236.902405 369.878265,237.028137 
	C369.878265,225.301819 369.878265,213.874451 369.878265,202.231415 
	C371.136292,202.231415 372.353027,202.231415 373.898804,202.231415 
	C373.898804,211.781479 373.898804,221.074844 373.898804,230.846695 
z"/>
<path fill="#F8F8F8" opacity="1.000000" stroke="none" 
	d="
M311.874939,101.714844 
	C313.124268,104.350021 315.105652,107.107491 314.527252,109.134529 
	C314.036072,110.855888 310.717529,112.378120 308.422119,112.829597 
	C305.255432,113.452423 301.874420,112.985764 298.382629,112.985764 
	C298.382629,108.950157 298.382629,105.345200 298.382629,100.909065 
	C302.735718,101.111984 307.116364,101.316193 311.874939,101.714844 
z"/>
<path fill="#F6F6F6" opacity="1.000000" stroke="none" 
	d="
M298.164795,88.248344 
	C301.068085,84.842888 311.064514,85.285454 313.012421,88.439056 
	C315.245544,92.054367 313.169006,96.329147 308.837158,96.925972 
	C307.698944,97.082794 306.524841,96.988678 305.367157,96.992348 
	C303.098358,96.999527 300.829529,96.994446 298.161682,96.994446 
	C298.161682,93.924782 298.161682,91.319817 298.164795,88.248344 
z"/>
<path fill="#F6F6F6" opacity="1.000000" stroke="none" 
	d="
M336.736328,113.300171 
	C332.558807,113.517525 329.275818,111.962288 328.926208,108.237503 
	C328.576599,104.512985 328.925903,100.208344 330.554932,96.951302 
	C332.333160,93.395958 338.202026,93.861275 340.962708,96.978050 
	C345.169769,101.727760 343.084625,110.577133 336.736328,113.300171 
z"/>
<path fill="#F5F5F5" opacity="1.000000" stroke="none" 
	d="
M367.282104,111.419113 
	C362.005463,114.330681 358.137390,113.614937 355.964539,109.667549 
	C353.553070,105.286682 354.837646,97.890305 358.398193,95.654884 
	C362.301514,93.204277 368.009918,94.798973 368.770142,99.342842 
	C369.398712,103.099815 368.045837,107.188316 367.282104,111.419113 
z"/>
<path fill="#F8F8F8" opacity="1.000000" stroke="none" 
	d="
M418.557648,221.502167 
	C422.363892,221.124817 425.863861,220.890610 429.335999,221.105759 
	C432.941223,221.329163 435.227356,223.235626 435.132782,227.167984 
	C435.038422,231.092896 432.707947,232.821793 429.062683,232.950668 
	C425.606079,233.072876 422.141754,232.976944 418.239166,232.976944 
	C418.239166,229.054016 418.239166,225.448364 418.557648,221.502167 
z"/>
<path fill="#F6F6F6" opacity="1.000000" stroke="none" 
	d="
M418.555908,206.494659 
	C422.182098,206.122116 425.493011,205.948700 428.790070,206.092606 
	C432.206116,206.241684 434.312592,208.562256 433.607697,211.621567 
	C433.141632,213.644547 430.837189,216.195679 428.882660,216.708923 
	C425.666443,217.553513 422.066772,216.937927 418.234528,216.937927 
	C418.234528,213.354065 418.234528,210.093628 418.555908,206.494659 
z"/>
<path fill="#ECECEC" opacity="1.000000" stroke="none" 
	d="
M333.272888,228.468231 
	C331.190002,233.351105 327.483856,234.069107 323.315857,232.997849 
	C322.201111,232.711334 320.927368,231.185730 320.672546,230.021866 
	C320.482208,229.152603 321.612305,227.285019 322.502625,227.016495 
	C325.626465,226.074326 328.890808,225.552414 332.135986,225.138977 
	C332.417175,225.103149 332.949097,227.035385 333.272888,228.468231 
z"/>
</svg>