<svg version="1.1" id="Layer_1" xmlns="http://www.w3.org/2000/svg" xmlns:xlink="http://www.w3.org/1999/xlink" x="0px" y="0px"
	 width="100%" viewBox="0 0 431 271" enable-background="new 0 0 431 271" xml:space="preserve">
<path fill="#FFFFFF" opacity="1.000000" stroke="none" 
	d="
M287.000000,272.000000 
	C191.333344,272.000000 96.166702,272.000000 1.000038,272.000000 
	C1.000026,181.666702 1.000026,91.333397 1.000013,1.000075 
	C144.666611,1.000050 288.333221,1.000050 431.999878,1.000025 
	C431.999908,91.333260 431.999908,181.666519 431.999939,271.999878 
	C383.833344,272.000000 335.666656,272.000000 287.000000,272.000000 
M248.500000,16.000000 
	C170.406937,16.000000 92.313858,16.000000 14.286777,16.000000 
	C14.286777,97.641388 14.286777,178.711121 14.286777,259.714294 
	C148.975311,259.714294 283.376892,259.714294 417.713165,259.714294 
	C417.713165,178.358490 417.713165,97.288757 417.713165,16.000000 
	C361.451080,16.000000 305.475525,16.000000 248.500000,16.000000 
z"/>
<path fill="#000000" opacity="1.000000" stroke="none" 
	d="
M249.000000,16.000000 
	C305.475525,16.000000 361.451080,16.000000 417.713165,16.000000 
	C417.713165,97.288757 417.713165,178.358490 417.713165,259.714294 
	C283.376892,259.714294 148.975311,259.714294 14.286777,259.714294 
	C14.286777,178.711121 14.286777,97.641388 14.286777,16.000000 
	C92.313858,16.000000 170.406937,16.000000 249.000000,16.000000 
M332.500000,256.001160 
	C359.595428,256.001160 386.690857,256.001160 413.711731,256.001160 
	C413.711731,217.021072 413.711731,178.616516 413.711731,140.286285 
	C281.687134,140.286285 149.952179,140.286285 18.288290,140.286285 
	C18.288290,178.978989 18.288290,217.383560 18.288290,256.001160 
	C122.885094,256.001160 227.192551,256.001160 332.500000,256.001160 
M17.998518,100.500000 
	C17.998518,112.264305 17.998518,124.028618 17.998518,135.715302 
	C150.309982,135.715302 282.045166,135.715302 413.713379,135.715302 
	C413.713379,97.023827 413.713379,58.619186 413.713379,20.284725 
	C281.689941,20.284725 149.954758,20.284725 17.998518,20.284725 
	C17.998518,46.880219 17.998518,73.190109 17.998518,100.500000 
z"/>
<path fill="#FEFEFE" opacity="1.000000" stroke="none" 
	d="
M332.000000,256.001160 
	C227.192551,256.001160 122.885094,256.001160 18.288290,256.001160 
	C18.288290,217.383560 18.288290,178.978989 18.288290,140.286285 
	C149.952179,140.286285 281.687134,140.286285 413.711731,140.286285 
	C413.711731,178.616516 413.711731,217.021072 413.711731,256.001160 
	C386.690857,256.001160 359.595428,256.001160 332.000000,256.001160 
M169.500000,216.001190 
	C156.389526,216.001190 143.279068,216.001190 130.212372,216.001190 
	C130.212372,217.570862 130.212372,218.637680 130.212372,219.827301 
	C186.173630,219.827301 241.896500,219.827301 297.990631,219.827301 
	C297.897156,218.462555 297.817200,217.294830 297.728607,216.001190 
	C255.062683,216.001190 212.781342,216.001190 169.500000,216.001190 
M252.045593,204.524139 
	C252.170654,201.206253 251.952301,197.829086 252.512009,194.586212 
	C253.141724,190.937866 255.962769,189.374664 259.525970,189.673798 
	C263.054596,189.970032 264.123169,192.438263 264.093842,195.655228 
	C264.054443,199.979156 264.234314,204.310486 264.038605,208.625854 
	C263.887909,211.947662 265.120209,212.736679 268.054596,211.617325 
	C268.054596,205.667358 268.295227,199.841934 267.990601,194.045166 
	C267.648834,187.542374 262.564301,184.444397 256.436554,186.659744 
	C255.098511,187.143463 253.812607,187.771393 251.989777,188.552780 
	C251.989777,184.487457 251.989777,180.912888 251.989777,177.338303 
	C251.551880,177.040115 251.113968,176.741928 250.676071,176.443741 
	C249.813873,177.442810 248.221680,178.428162 248.202576,179.443085 
	C248.014832,189.418701 248.007889,199.400894 248.210007,209.375931 
	C248.230820,210.403870 249.942169,211.397522 250.869095,212.407089 
	C251.261261,212.070999 251.653442,211.734909 252.045609,211.398819 
	C252.045609,209.423584 252.045609,207.448349 252.045593,204.524139 
M274.640717,202.431870 
	C274.640717,205.542862 274.640717,208.653870 274.640717,211.764862 
	C275.175446,212.016083 275.710175,212.267303 276.244934,212.518524 
	C277.025787,211.344284 278.388489,210.214600 278.482422,208.987762 
	C278.811981,204.683807 278.619293,200.343109 278.787415,196.022690 
	C278.951660,191.800827 281.380066,189.558929 285.514679,189.638382 
	C289.651459,189.717865 290.632172,192.675598 290.635773,196.193161 
	C290.640991,201.343369 290.637115,206.493591 290.637115,211.840363 
	C292.002136,211.840363 293.114807,211.840363 294.550049,211.840363 
	C294.550049,205.711243 294.779175,199.727493 294.486420,193.769409 
	C294.186432,187.663986 288.919128,184.452805 283.123383,186.537460 
	C281.746552,187.032684 280.470856,187.808960 279.778442,188.147766 
	C278.035461,187.211456 276.629761,186.456329 274.640747,185.387863 
	C274.640747,191.478271 274.640747,196.466919 274.640717,202.431870 
M137.217636,206.253174 
	C137.302307,202.602448 137.190933,198.933731 137.524246,195.305847 
	C137.890961,191.314377 140.559738,189.462921 144.382904,189.643051 
	C148.188705,189.822357 149.264359,192.475327 149.241837,195.871521 
	C149.206787,201.158157 149.232574,206.445206 149.232574,211.832031 
	C150.795074,211.832031 151.908417,211.832031 153.213730,211.832031 
	C153.213730,205.815826 153.363876,200.000748 153.173950,194.196793 
	C152.958969,187.627426 147.394592,184.213333 141.293365,186.751282 
	C139.940414,187.314056 138.694656,188.134537 138.294754,188.351242 
	C136.572937,187.246155 135.314667,186.438568 133.237717,185.105545 
	C133.237717,190.566559 133.237717,194.705612 133.237717,198.844666 
	C133.237717,203.137863 133.237717,207.431046 133.237717,211.836975 
	C134.780579,211.836975 135.895721,211.836975 137.217636,211.836975 
	C137.217636,210.148438 137.217636,208.661346 137.217636,206.253174 
M162.029694,203.381668 
	C158.752762,202.983322 158.179657,204.361908 159.546265,207.096970 
	C161.438660,210.884354 164.987915,212.474960 168.626419,211.834244 
	C171.909409,211.256134 175.612671,209.620972 177.816284,207.237076 
	C180.512466,204.320312 178.713699,199.941574 174.886002,198.306320 
	C172.615814,197.336472 170.010101,197.097885 167.828629,195.991470 
	C166.069778,195.099426 164.720657,193.399521 163.189758,192.058029 
	C165.345032,191.272079 167.456436,190.118683 169.673920,189.854050 
	C170.795120,189.720261 172.078781,191.248657 173.342712,191.925156 
	C174.592102,192.593903 175.909149,193.136246 177.196518,193.734039 
	C175.368439,186.669220 169.265579,184.075333 163.607010,187.125671 
	C161.620163,188.196716 159.459656,191.026031 159.439392,193.072861 
	C159.419586,195.073471 161.633240,197.722870 163.582260,198.957382 
	C166.007812,200.493698 169.247208,200.683060 171.971649,201.839310 
	C173.104065,202.319916 174.584946,203.853271 174.514465,204.804749 
	C174.432343,205.913589 173.004593,207.494293 171.847885,207.848389 
	C167.848373,209.072800 164.217163,208.666290 162.029694,203.381668 
M220.632812,204.723694 
	C224.016159,211.459824 230.382187,213.829620 236.684265,210.698959 
	C242.353546,207.882660 244.687683,198.945160 241.502014,192.251495 
	C238.854126,186.687790 232.059982,184.402481 226.185104,187.099457 
	C220.767044,189.586716 218.869019,195.095993 220.632812,204.723694 
M214.171585,190.503464 
	C214.171585,186.067734 214.171585,181.631989 214.171585,176.907196 
	C212.358063,177.087372 211.137024,177.208679 209.815750,177.339951 
	C209.815750,185.998459 210.062637,194.328552 209.624664,202.622498 
	C209.527420,204.463837 207.354187,207.026505 205.535889,207.753021 
	C202.745743,208.867874 200.423233,207.206284 199.712036,204.005203 
	C199.506653,203.080719 199.270279,202.163132 199.048111,201.242386 
	C198.546677,201.086349 198.045242,200.930328 197.543808,200.774307 
	C196.953217,201.993317 195.817078,203.236267 195.869293,204.427094 
	C196.063995,208.866379 199.490601,211.798752 204.221954,212.001724 
	C209.077637,212.210007 213.013290,209.593872 213.642395,204.942734 
	C214.240845,200.518234 214.027832,195.983948 214.171585,190.503464 
M185.864456,191.850967 
	C190.451050,192.981140 190.333191,190.438766 189.622360,187.284225 
	C185.639282,186.044724 184.732971,187.846924 185.864456,191.850967 
M185.864456,211.850967 
	C190.451050,212.981140 190.333191,210.438766 189.624863,207.295364 
	C185.370529,207.034515 185.370529,207.034515 185.864456,211.850967 
z"/>
<path fill="#FEFEFE" opacity="1.000000" stroke="none" 
	d="
M17.998518,100.000000 
	C17.998518,73.190109 17.998518,46.880219 17.998518,20.284725 
	C149.954758,20.284725 281.689941,20.284725 413.713379,20.284725 
	C413.713379,58.619186 413.713379,97.023827 413.713379,135.715302 
	C282.045166,135.715302 150.309982,135.715302 17.998518,135.715302 
	C17.998518,124.028618 17.998518,112.264305 17.998518,100.000000 
M173.833038,74.499817 
	C173.833038,80.266960 173.833038,86.034103 173.833038,92.103783 
	C175.655701,91.913132 176.878174,91.785255 178.328552,91.633553 
	C178.328552,87.018570 178.328552,82.734581 178.328552,78.376869 
	C183.017166,78.037674 187.512985,78.079620 191.862976,77.303787 
	C197.170212,76.357193 199.990341,72.228752 199.786636,66.852386 
	C199.591370,61.699005 196.667389,57.914242 191.303558,57.414257 
	C185.589447,56.881626 179.787231,57.294376 174.075424,57.294376 
	C173.967880,57.879490 173.860443,58.194668 173.859375,58.510212 
	C173.842529,63.507034 173.839340,68.503906 173.833038,74.499817 
M219.338928,66.808098 
	C212.060196,64.876457 206.382812,67.786354 204.514862,74.406029 
	C202.253571,82.419617 205.402344,89.501465 212.116913,91.503700 
	C218.498047,93.406502 223.915451,90.468422 226.277405,82.523285 
	C224.051498,83.640991 222.321396,83.949966 221.612854,84.969139 
	C219.372421,88.191856 216.506317,89.198982 212.994354,87.903008 
	C209.545410,86.630287 208.097321,83.908859 208.336090,79.825668 
	C214.508911,79.825668 220.419525,79.825668 226.514465,79.825668 
	C226.576797,74.124641 225.289001,69.597588 219.338928,66.808098 
M311.222260,69.938049 
	C312.361176,72.107002 314.262543,74.201248 314.483856,76.460114 
	C314.979462,81.518600 314.638977,86.658997 314.638977,91.766045 
	C315.138794,92.037125 315.638641,92.308205 316.138458,92.579285 
	C316.953918,91.544189 318.428619,90.536812 318.473480,89.469322 
	C318.697144,84.150703 318.794556,78.800430 318.457733,73.491661 
	C318.087524,67.655518 312.936859,64.546547 307.316986,66.464828 
	C305.808197,66.979836 304.404205,67.801933 303.844879,68.064301 
	C301.872040,67.032600 300.576721,66.355202 298.804016,65.428154 
	C298.804016,74.798126 298.804016,83.240700 298.804016,91.817894 
	C300.066010,91.817894 301.164642,91.817894 302.663849,91.817894 
	C302.663849,86.785690 302.493408,81.965126 302.707916,77.161758 
	C302.963379,71.441170 304.489319,70.112747 311.222260,69.938049 
M109.238190,81.466522 
	C109.238342,83.957695 109.354683,86.455650 109.209579,88.938332 
	C109.023354,92.124802 110.446381,92.618202 113.623528,91.421532 
	C113.623528,85.892593 113.333633,80.241074 113.724167,74.636978 
	C113.990028,70.821846 117.047653,69.434776 120.562805,69.663979 
	C124.081230,69.893372 125.233879,72.332169 125.225792,75.551514 
	C125.214523,80.035522 125.336884,84.522697 125.203789,89.002617 
	C125.107872,92.231194 126.519592,92.604530 129.209183,91.556694 
	C129.209183,85.651939 129.373932,79.837822 129.164764,74.037201 
	C128.936859,67.717308 123.548523,64.337273 117.615013,66.625389 
	C116.114357,67.204086 114.742020,68.115540 114.453049,68.268684 
	C112.489189,67.151711 111.231659,66.436485 109.238213,65.302689 
	C109.238213,71.203522 109.238213,75.841484 109.238190,81.466522 
M292.376221,72.358650 
	C288.235443,65.951714 281.722321,64.150063 275.825897,67.780548 
	C270.569946,71.016685 268.794464,80.535744 272.306244,86.650887 
	C275.218628,91.722313 282.006195,93.494400 287.604248,90.644882 
	C293.014465,87.890945 294.762665,81.881775 292.376221,72.358650 
M258.994537,91.893044 
	C259.945496,91.602455 261.264618,91.608658 261.781219,90.967880 
	C263.631317,88.673035 266.448730,86.183548 266.497437,83.720184 
	C266.536163,81.760910 263.280090,79.437836 261.079346,77.835999 
	C259.564819,76.733620 257.201080,76.867203 255.497375,75.935478 
	C253.859177,75.039574 252.581833,73.483864 251.145920,72.218071 
	C253.096893,71.341568 255.012421,69.903427 257.010742,69.777336 
	C258.448120,69.686630 259.966187,71.403290 261.504059,72.206978 
	C262.703125,72.833626 263.988098,73.295952 266.183960,74.238808 
	C263.302002,66.012001 254.794235,63.633854 249.551498,68.138527 
	C245.845261,71.323013 246.396713,76.709625 250.868134,78.828148 
	C253.230408,79.947380 256.045288,80.120682 258.388733,81.267082 
	C260.047791,82.078690 261.259094,83.805527 262.670288,85.123810 
	C260.990601,86.225098 259.227478,88.323326 257.651001,88.191368 
	C255.351303,87.998878 253.196548,86.180946 250.958786,85.099884 
	C249.734085,84.508217 248.465759,84.006866 246.120697,82.988800 
	C248.964859,90.593590 250.947723,91.850655 258.994537,91.893044 
M150.090500,90.951714 
	C153.392624,89.318436 155.851685,86.535263 154.559189,83.070114 
	C153.698029,80.761368 150.737549,79.029541 148.393906,77.551117 
	C146.786652,76.537216 144.485870,76.674431 142.754105,75.789986 
	C141.333084,75.064255 140.293854,73.590950 139.085403,72.449005 
	C140.481934,71.504539 141.909744,69.751564 143.267715,69.804108 
	C145.331848,69.883949 147.353363,71.201668 149.381683,72.021568 
	C150.687531,72.549416 151.973145,73.127327 153.267838,73.682800 
	C151.067657,66.134399 143.588852,63.881023 138.129623,67.694763 
	C133.925385,70.631783 134.112076,76.401955 138.669876,78.721809 
	C140.850250,79.831581 143.369705,80.266914 145.720932,81.051567 
	C147.961151,81.799171 151.618744,81.977966 150.347046,85.285385 
	C149.728256,86.894707 146.138809,88.056480 143.867188,88.102928 
	C142.223282,88.136543 140.587677,85.913223 138.847534,84.863579 
	C137.732468,84.190987 136.433960,83.822479 134.264130,82.921867 
	C137.055069,91.384087 141.293747,93.315392 150.090500,90.951714 
M236.087463,77.072754 
	C236.628387,73.021889 236.851776,68.753754 242.964630,69.861305 
	C243.589676,69.974564 244.505753,68.481628 246.062469,66.991524 
	C240.602081,66.991524 236.456970,66.991524 232.071640,66.991524 
	C232.071640,74.138268 232.145859,81.581345 232.037170,89.021759 
	C231.989960,92.253693 233.339661,92.592842 236.063629,91.490189 
	C236.063629,86.883987 236.063629,82.429146 236.087463,77.072754 
M165.863907,71.238640 
	C166.429581,67.535675 165.279434,65.935585 161.479279,67.447899 
	C160.615250,70.946541 161.345825,72.857986 165.863907,71.238640 
M161.211380,89.505035 
	C162.385986,90.555862 163.560608,91.606697 164.735214,92.657524 
	C165.060623,92.288116 165.386047,91.918709 165.711456,91.549301 
	C165.711456,90.146118 165.711456,88.742935 165.711456,86.039429 
	C163.751083,87.177643 162.485779,87.912292 161.211380,89.505035 
z"/>
<path fill="#000000" opacity="1.000000" stroke="none" 
	d="
M170.000000,216.001190 
	C212.781342,216.001190 255.062683,216.001190 297.728607,216.001190 
	C297.817200,217.294830 297.897156,218.462555 297.990631,219.827301 
	C241.896500,219.827301 186.173630,219.827301 130.212372,219.827301 
	C130.212372,218.637680 130.212372,217.570862 130.212372,216.001190 
	C143.279068,216.001190 156.389526,216.001190 170.000000,216.001190 
z"/>
<path fill="#181818" opacity="1.000000" stroke="none" 
	d="
M252.045593,204.998627 
	C252.045609,207.448349 252.045609,209.423584 252.045609,211.398819 
	C251.653442,211.734909 251.261261,212.070999 250.869095,212.407089 
	C249.942169,211.397522 248.230820,210.403870 248.210007,209.375931 
	C248.007889,199.400894 248.014832,189.418701 248.202576,179.443085 
	C248.221680,178.428162 249.813873,177.442810 250.676071,176.443741 
	C251.113968,176.741928 251.551880,177.040115 251.989777,177.338303 
	C251.989777,180.912888 251.989777,184.487457 251.989777,188.552780 
	C253.812607,187.771393 255.098511,187.143463 256.436554,186.659744 
	C262.564301,184.444397 267.648834,187.542374 267.990601,194.045166 
	C268.295227,199.841934 268.054596,205.667358 268.054596,211.617325 
	C265.120209,212.736679 263.887909,211.947662 264.038605,208.625854 
	C264.234314,204.310486 264.054443,199.979156 264.093842,195.655228 
	C264.123169,192.438263 263.054596,189.970032 259.525970,189.673798 
	C255.962769,189.374664 253.141724,190.937866 252.512009,194.586212 
	C251.952301,197.829086 252.170654,201.206253 252.045593,204.998627 
z"/>
<path fill="#1B1B1B" opacity="1.000000" stroke="none" 
	d="
M274.640747,201.943726 
	C274.640747,196.466919 274.640747,191.478271 274.640747,185.387863 
	C276.629761,186.456329 278.035461,187.211456 279.778442,188.147766 
	C280.470856,187.808960 281.746552,187.032684 283.123383,186.537460 
	C288.919128,184.452805 294.186432,187.663986 294.486420,193.769409 
	C294.779175,199.727493 294.550049,205.711243 294.550049,211.840363 
	C293.114807,211.840363 292.002136,211.840363 290.637115,211.840363 
	C290.637115,206.493591 290.640991,201.343369 290.635773,196.193161 
	C290.632172,192.675598 289.651459,189.717865 285.514679,189.638382 
	C281.380066,189.558929 278.951660,191.800827 278.787415,196.022690 
	C278.619293,200.343109 278.811981,204.683807 278.482422,208.987762 
	C278.388489,210.214600 277.025787,211.344284 276.244934,212.518524 
	C275.710175,212.267303 275.175446,212.016083 274.640717,211.764862 
	C274.640717,208.653870 274.640717,205.542862 274.640747,201.943726 
z"/>
<path fill="#1A1A1A" opacity="1.000000" stroke="none" 
	d="
M137.217636,206.713715 
	C137.217636,208.661346 137.217636,210.148438 137.217636,211.836975 
	C135.895721,211.836975 134.780579,211.836975 133.237717,211.836975 
	C133.237717,207.431046 133.237717,203.137863 133.237717,198.844666 
	C133.237717,194.705612 133.237717,190.566559 133.237717,185.105545 
	C135.314667,186.438568 136.572937,187.246155 138.294754,188.351242 
	C138.694656,188.134537 139.940414,187.314056 141.293365,186.751282 
	C147.394592,184.213333 152.958969,187.627426 153.173950,194.196793 
	C153.363876,200.000748 153.213730,205.815826 153.213730,211.832031 
	C151.908417,211.832031 150.795074,211.832031 149.232574,211.832031 
	C149.232574,206.445206 149.206787,201.158157 149.241837,195.871521 
	C149.264359,192.475327 148.188705,189.822357 144.382904,189.643051 
	C140.559738,189.462921 137.890961,191.314377 137.524246,195.305847 
	C137.190933,198.933731 137.302307,202.602448 137.217636,206.713715 
z"/>
<path fill="#151515" opacity="1.000000" stroke="none" 
	d="
M162.279083,203.680832 
	C164.217163,208.666290 167.848373,209.072800 171.847885,207.848389 
	C173.004593,207.494293 174.432343,205.913589 174.514465,204.804749 
	C174.584946,203.853271 173.104065,202.319916 171.971649,201.839310 
	C169.247208,200.683060 166.007812,200.493698 163.582260,198.957382 
	C161.633240,197.722870 159.419586,195.073471 159.439392,193.072861 
	C159.459656,191.026031 161.620163,188.196716 163.607010,187.125671 
	C169.265579,184.075333 175.368439,186.669220 177.196518,193.734039 
	C175.909149,193.136246 174.592102,192.593903 173.342712,191.925156 
	C172.078781,191.248657 170.795120,189.720261 169.673920,189.854050 
	C167.456436,190.118683 165.345032,191.272079 163.189758,192.058029 
	C164.720657,193.399521 166.069778,195.099426 167.828629,195.991470 
	C170.010101,197.097885 172.615814,197.336472 174.886002,198.306320 
	C178.713699,199.941574 180.512466,204.320312 177.816284,207.237076 
	C175.612671,209.620972 171.909409,211.256134 168.626419,211.834244 
	C164.987915,212.474960 161.438660,210.884354 159.546265,207.096970 
	C158.179657,204.361908 158.752762,202.983322 162.279083,203.680832 
z"/>
<path fill="#161616" opacity="1.000000" stroke="none" 
	d="
M220.496094,204.366608 
	C218.869019,195.095993 220.767044,189.586716 226.185104,187.099457 
	C232.059982,184.402481 238.854126,186.687790 241.502014,192.251495 
	C244.687683,198.945160 242.353546,207.882660 236.684265,210.698959 
	C230.382187,213.829620 224.016159,211.459824 220.496094,204.366608 
M238.688248,198.539703 
	C238.576553,194.216095 237.310364,190.609589 232.467484,189.739212 
	C228.741318,189.069519 226.028427,190.692230 224.557495,194.171951 
	C222.734909,198.483536 223.765396,205.119019 227.042648,206.875763 
	C228.993301,207.921371 231.879837,208.353470 233.973007,207.755997 
	C237.867966,206.644180 238.569748,202.986816 238.688248,198.539703 
z"/>
<path fill="#090909" opacity="1.000000" stroke="none" 
	d="
M214.171600,191.000702 
	C214.027832,195.983948 214.240845,200.518234 213.642395,204.942734 
	C213.013290,209.593872 209.077637,212.210007 204.221954,212.001724 
	C199.490601,211.798752 196.063995,208.866379 195.869293,204.427094 
	C195.817078,203.236267 196.953217,201.993317 197.543808,200.774307 
	C198.045242,200.930328 198.546677,201.086349 199.048111,201.242386 
	C199.270279,202.163132 199.506653,203.080719 199.712036,204.005203 
	C200.423233,207.206284 202.745743,208.867874 205.535889,207.753021 
	C207.354187,207.026505 209.527420,204.463837 209.624664,202.622498 
	C210.062637,194.328552 209.815750,185.998459 209.815750,177.339951 
	C211.137024,177.208679 212.358063,177.087372 214.171585,176.907196 
	C214.171585,181.631989 214.171585,186.067734 214.171600,191.000702 
z"/>
<path fill="#232323" opacity="1.000000" stroke="none" 
	d="
M185.581909,191.526337 
	C184.732971,187.846924 185.639282,186.044724 189.622360,187.284225 
	C190.333191,190.438766 190.451050,192.981140 185.581909,191.526337 
z"/>
<path fill="#232323" opacity="1.000000" stroke="none" 
	d="
M185.581909,211.526337 
	C185.370529,207.034515 185.370529,207.034515 189.624863,207.295364 
	C190.333191,210.438766 190.451050,212.981140 185.581909,211.526337 
z"/>
<path fill="#070707" opacity="1.000000" stroke="none" 
	d="
M173.833038,74.000290 
	C173.839340,68.503906 173.842529,63.507034 173.859375,58.510212 
	C173.860443,58.194668 173.967880,57.879490 174.075424,57.294376 
	C179.787231,57.294376 185.589447,56.881626 191.303558,57.414257 
	C196.667389,57.914242 199.591370,61.699005 199.786636,66.852386 
	C199.990341,72.228752 197.170212,76.357193 191.862976,77.303787 
	C187.512985,78.079620 183.017166,78.037674 178.328552,78.376869 
	C178.328552,82.734581 178.328552,87.018570 178.328552,91.633553 
	C176.878174,91.785255 175.655701,91.913132 173.833038,92.103783 
	C173.833038,86.034103 173.833038,80.266960 173.833038,74.000290 
M178.151810,69.386536 
	C178.225220,70.822678 178.298645,72.258812 178.385040,73.948654 
	C182.302750,73.948654 185.934464,74.161087 189.529999,73.891289 
	C193.436340,73.598167 195.430130,71.215050 195.313629,67.241737 
	C195.198013,63.297768 193.264435,61.061272 189.191681,61.014614 
	C185.607758,60.973557 182.023010,61.006035 178.151810,61.006035 
	C178.151810,63.865147 178.151810,66.153206 178.151810,69.386536 
z"/>
<path fill="#111111" opacity="1.000000" stroke="none" 
	d="
M219.712936,66.923370 
	C225.289001,69.597588 226.576797,74.124641 226.514465,79.825668 
	C220.419525,79.825668 214.508911,79.825668 208.336090,79.825668 
	C208.097321,83.908859 209.545410,86.630287 212.994354,87.903008 
	C216.506317,89.198982 219.372421,88.191856 221.612854,84.969139 
	C222.321396,83.949966 224.051498,83.640991 226.277405,82.523285 
	C223.915451,90.468422 218.498047,93.406502 212.116913,91.503700 
	C205.402344,89.501465 202.253571,82.419617 204.514862,74.406029 
	C206.382812,67.786354 212.060196,64.876457 219.712936,66.923370 
M214.624741,76.618629 
	C217.160400,76.618629 219.696060,76.618629 222.421509,76.618629 
	C221.674530,71.154282 218.873093,69.158997 214.690201,69.571152 
	C210.929504,69.941689 208.367020,71.984398 208.519897,76.618576 
	C210.445847,76.618576 212.093597,76.618576 214.624741,76.618629 
z"/>
<path fill="#1B1B1B" opacity="1.000000" stroke="none" 
	d="
M310.794434,69.831200 
	C304.489319,70.112747 302.963379,71.441170 302.707916,77.161758 
	C302.493408,81.965126 302.663849,86.785690 302.663849,91.817894 
	C301.164642,91.817894 300.066010,91.817894 298.804016,91.817894 
	C298.804016,83.240700 298.804016,74.798126 298.804016,65.428154 
	C300.576721,66.355202 301.872040,67.032600 303.844879,68.064301 
	C304.404205,67.801933 305.808197,66.979836 307.316986,66.464828 
	C312.936859,64.546547 318.087524,67.655518 318.457733,73.491661 
	C318.794556,78.800430 318.697144,84.150703 318.473480,89.469322 
	C318.428619,90.536812 316.953918,91.544189 316.138458,92.579285 
	C315.638641,92.308205 315.138794,92.037125 314.638977,91.766045 
	C314.638977,86.658997 314.979462,81.518600 314.483856,76.460114 
	C314.262543,74.201248 312.361176,72.107002 310.794434,69.831200 
z"/>
<path fill="#1A1A1A" opacity="1.000000" stroke="none" 
	d="
M109.238205,80.972984 
	C109.238213,75.841484 109.238213,71.203522 109.238213,65.302689 
	C111.231659,66.436485 112.489189,67.151711 114.453049,68.268684 
	C114.742020,68.115540 116.114357,67.204086 117.615013,66.625389 
	C123.548523,64.337273 128.936859,67.717308 129.164764,74.037201 
	C129.373932,79.837822 129.209183,85.651939 129.209183,91.556694 
	C126.519592,92.604530 125.107872,92.231194 125.203789,89.002617 
	C125.336884,84.522697 125.214523,80.035522 125.225792,75.551514 
	C125.233879,72.332169 124.081230,69.893372 120.562805,69.663979 
	C117.047653,69.434776 113.990028,70.821846 113.724167,74.636978 
	C113.333633,80.241074 113.623528,85.892593 113.623528,91.421532 
	C110.446381,92.618202 109.023354,92.124802 109.209579,88.938332 
	C109.354683,86.455650 109.238342,83.957695 109.238205,80.972984 
z"/>
<path fill="#131313" opacity="1.000000" stroke="none" 
	d="
M292.548004,72.709877 
	C294.762665,81.881775 293.014465,87.890945 287.604248,90.644882 
	C282.006195,93.494400 275.218628,91.722313 272.306244,86.650887 
	C268.794464,80.535744 270.569946,71.016685 275.825897,67.780548 
	C281.722321,64.150063 288.235443,65.951714 292.548004,72.709877 
M282.414612,69.517197 
	C275.097656,70.956505 271.804504,80.301918 276.621796,85.956314 
	C279.275391,89.071030 284.376709,89.259460 287.209473,86.347404 
	C291.877197,81.549004 289.622345,72.078232 282.414612,69.517197 
z"/>
<path fill="#151515" opacity="1.000000" stroke="none" 
	d="
M258.584351,91.938431 
	C250.947723,91.850655 248.964859,90.593590 246.120697,82.988800 
	C248.465759,84.006866 249.734085,84.508217 250.958786,85.099884 
	C253.196548,86.180946 255.351303,87.998878 257.651001,88.191368 
	C259.227478,88.323326 260.990601,86.225098 262.670288,85.123810 
	C261.259094,83.805527 260.047791,82.078690 258.388733,81.267082 
	C256.045288,80.120682 253.230408,79.947380 250.868134,78.828148 
	C246.396713,76.709625 245.845261,71.323013 249.551498,68.138527 
	C254.794235,63.633854 263.302002,66.012001 266.183960,74.238808 
	C263.988098,73.295952 262.703125,72.833626 261.504059,72.206978 
	C259.966187,71.403290 258.448120,69.686630 257.010742,69.777336 
	C255.012421,69.903427 253.096893,71.341568 251.145920,72.218063 
	C252.581833,73.483864 253.859177,75.039574 255.497375,75.935478 
	C257.201080,76.867203 259.564819,76.733620 261.079346,77.835999 
	C263.280090,79.437836 266.536163,81.760910 266.497437,83.720184 
	C266.448730,86.183548 263.631317,88.673035 261.781219,90.967880 
	C261.264618,91.608658 259.945496,91.602455 258.584351,91.938431 
z"/>
<path fill="#151515" opacity="1.000000" stroke="none" 
	d="
M149.707520,91.061356 
	C141.293747,93.315392 137.055069,91.384087 134.264130,82.921867 
	C136.433960,83.822479 137.732468,84.190987 138.847534,84.863579 
	C140.587677,85.913223 142.223282,88.136543 143.867188,88.102928 
	C146.138809,88.056480 149.728256,86.894707 150.347046,85.285385 
	C151.618744,81.977966 147.961151,81.799171 145.720932,81.051567 
	C143.369705,80.266914 140.850250,79.831581 138.669876,78.721809 
	C134.112076,76.401955 133.925385,70.631783 138.129623,67.694763 
	C143.588852,63.881023 151.067657,66.134399 153.267838,73.682800 
	C151.973145,73.127327 150.687531,72.549416 149.381683,72.021568 
	C147.353363,71.201668 145.331848,69.883949 143.267715,69.804108 
	C141.909744,69.751564 140.481934,71.504539 139.085403,72.449005 
	C140.293854,73.590950 141.333084,75.064255 142.754105,75.789986 
	C144.485870,76.674431 146.786652,76.537216 148.393906,77.551117 
	C150.737549,79.029541 153.698029,80.761368 154.559189,83.070114 
	C155.851685,86.535263 153.392624,89.318436 149.707520,91.061356 
z"/>
<path fill="#1D1D1D" opacity="1.000000" stroke="none" 
	d="
M236.075546,77.523529 
	C236.063629,82.429146 236.063629,86.883987 236.063629,91.490189 
	C233.339661,92.592842 231.989960,92.253693 232.037170,89.021759 
	C232.145859,81.581345 232.071640,74.138268 232.071640,66.991524 
	C236.456970,66.991524 240.602081,66.991524 246.062469,66.991524 
	C244.505753,68.481628 243.589676,69.974564 242.964630,69.861305 
	C236.851776,68.753754 236.628387,73.021889 236.075546,77.523529 
z"/>
<path fill="#232323" opacity="1.000000" stroke="none" 
	d="
M165.570709,71.559174 
	C161.345825,72.857986 160.615250,70.946541 161.479279,67.447899 
	C165.279434,65.935585 166.429581,67.535675 165.570709,71.559174 
z"/>
<path fill="#232323" opacity="1.000000" stroke="none" 
	d="
M161.215942,89.075989 
	C162.485779,87.912292 163.751083,87.177643 165.711456,86.039429 
	C165.711456,88.742935 165.711456,90.146118 165.711456,91.549301 
	C165.386047,91.918709 165.060623,92.288116 164.735214,92.657524 
	C163.560608,91.606697 162.385986,90.555862 161.215942,89.075989 
z"/>
<path fill="#F5F5F5" opacity="1.000000" stroke="none" 
	d="
M238.688049,198.943237 
	C238.569748,202.986816 237.867966,206.644180 233.973007,207.755997 
	C231.879837,208.353470 228.993301,207.921371 227.042648,206.875763 
	C223.765396,205.119019 222.734909,198.483536 224.557495,194.171951 
	C226.028427,190.692230 228.741318,189.069519 232.467484,189.739212 
	C237.310364,190.609589 238.576553,194.216095 238.688049,198.943237 
z"/>
<path fill="#F8F8F8" opacity="1.000000" stroke="none" 
	d="
M178.151810,68.913902 
	C178.151810,66.153206 178.151810,63.865147 178.151810,61.006035 
	C182.023010,61.006035 185.607758,60.973557 189.191681,61.014614 
	C193.264435,61.061272 195.198013,63.297768 195.313629,67.241737 
	C195.430130,71.215050 193.436340,73.598167 189.529999,73.891289 
	C185.934464,74.161087 182.302750,73.948654 178.385040,73.948654 
	C178.298645,72.258812 178.225220,70.822678 178.151810,68.913902 
z"/>
<path fill="#E0E0E0" opacity="1.000000" stroke="none" 
	d="
M214.183044,76.618607 
	C212.093597,76.618576 210.445847,76.618576 208.519897,76.618576 
	C208.367020,71.984398 210.929504,69.941689 214.690201,69.571152 
	C218.873093,69.158997 221.674530,71.154282 222.421509,76.618629 
	C219.696060,76.618629 217.160400,76.618629 214.183044,76.618607 
z"/>
<path fill="#F4F4F4" opacity="1.000000" stroke="none" 
	d="
M282.828461,69.600906 
	C289.622345,72.078232 291.877197,81.549004 287.209473,86.347404 
	C284.376709,89.259460 279.275391,89.071030 276.621796,85.956314 
	C271.804504,80.301918 275.097656,70.956505 282.828461,69.600906 
z"/>
</svg>