<svg version="1.1" id="Layer_1" xmlns="http://www.w3.org/2000/svg" xmlns:xlink="http://www.w3.org/1999/xlink" x="0px" y="0px"
	 width="100%" viewBox="0 0 1644 404" enable-background="new 0 0 1644 404" xml:space="preserve">
<path fill="none" opacity="1.000000" stroke="#000000" stroke-linecap="round" stroke-linejoin="round" stroke-width="5.000000"
	d="
M443.500031,202.750000 
	C443.333344,201.000000 443.025879,199.250320 443.021912,197.499954 
	C442.984894,181.166702 443.020630,164.833267 442.968506,148.500107 
	C442.963226,146.840012 443.654297,145.067902 442.001892,143.250000 
	C309.500000,143.250000 176.500000,143.250000 43.250000,143.250000 
	C43.250000,183.166672 43.250000,222.833328 43.250000,262.750000 
	C176.500000,262.750000 309.500000,262.750000 443.000000,262.750000 
	C443.000000,260.834686 443.000000,259.167328 443.000000,257.500000 
	C443.000000,241.166672 442.995911,224.833328 443.005676,208.500000 
	C443.006805,206.638412 442.691132,204.723038 443.750000,203.000000 
"/>
<path fill="none" opacity="1.000000" stroke="#000000" stroke-linecap="round" stroke-linejoin="round" stroke-width="5.000000"
	d="
M950.500000,105.000000 
	C951.610596,110.471397 950.900696,116.001762 950.960022,121.500435 
	C951.089355,133.499039 950.972290,145.500137 951.031921,157.499847 
	C951.040161,159.160339 950.345703,160.932098 951.998108,162.750000 
	C1084.500000,162.750000 1217.500000,162.750000 1350.750000,162.750000 
	C1350.750000,122.833336 1350.750000,83.166664 1350.750000,43.250000 
	C1217.500000,43.250000 1084.500000,43.250000 951.000000,43.250000 
	C951.000000,45.165318 951.000000,46.832661 951.000000,48.500000 
	C951.000000,65.500000 951.007507,82.500008 950.988281,99.499985 
	C950.986389,101.174454 951.301270,102.896797 950.500000,104.500000 
"/>
<path fill="none" opacity="1.000000" stroke="#000000" stroke-linecap="round" stroke-linejoin="round" stroke-width="5.000000"
	d="
M950.500000,302.000000 
	C951.641785,306.295837 950.920837,310.670471 950.956360,315.000366 
	C951.072510,329.166077 950.976318,343.333435 951.031616,357.499878 
	C951.038147,359.160126 950.345703,360.932098 951.998108,362.750000 
	C1084.500000,362.750000 1217.500000,362.750000 1350.750000,362.750000 
	C1350.750000,322.833344 1350.750000,283.166656 1350.750000,243.250000 
	C1217.500000,243.250000 1084.500000,243.250000 951.000000,243.250000 
	C951.000000,245.165314 951.000000,246.832657 951.000000,248.500000 
	C951.000000,264.500000 951.007935,280.500000 950.988281,296.500000 
	C950.986206,298.174469 951.301270,299.896790 950.500000,301.500000 
"/>
<path fill="none" opacity="1.000000" stroke="#000000" stroke-linecap="round" stroke-linejoin="round" stroke-width="5.000000"
	d="
M641.500000,203.000000 
	C575.666687,203.000000 509.833344,203.000000 444.000000,203.000000 
"/>
<path fill="none" opacity="1.000000" stroke="#000000" stroke-linecap="round" stroke-linejoin="round" stroke-width="5.000000"
	d="
M786.500000,160.500000 
	C781.665039,158.649460 778.390930,154.563431 774.117981,151.816513 
	C751.560120,137.315109 720.274536,141.458862 701.904846,159.402573 
	C693.004456,168.096512 686.604492,178.212677 684.224304,190.045120 
	C680.379150,209.160660 684.373047,226.981812 697.543884,241.961411 
	C705.972107,251.547165 716.150269,258.175079 728.956909,261.183441 
	C741.073669,264.029724 752.415527,263.049561 764.044556,259.132172 
	C772.564758,256.262054 779.843994,251.394897 785.807312,245.311142 
	C794.339172,236.606934 799.899597,225.900864 802.103455,213.518402 
	C804.275818,201.312454 802.442139,189.781082 797.951050,178.519516 
	C795.969360,173.550323 792.816833,169.187683 789.473267,165.021469 
	C788.424988,163.715332 787.023865,162.690445 786.500000,161.000000 
"/>
<path fill="none" opacity="1.000000" stroke="#000000" stroke-linecap="round" stroke-linejoin="round" stroke-width="5.000000"
	d="
M758.000000,223.000000 
	C758.000000,207.498215 758.000000,191.996414 758.000000,176.250000 
	C747.166687,176.250000 736.833313,176.250000 726.000000,176.250000 
	C726.000000,191.996414 726.000000,207.498215 726.000000,223.000000 
"/>
<path fill="none" opacity="1.000000" stroke="#000000" stroke-linecap="round" stroke-linejoin="round" stroke-width="5.000000"
	d="
M302.500000,213.500000 
	C298.019958,208.717285 298.018829,202.092239 295.526489,196.488220 
	C294.371216,193.890594 293.276520,191.223602 292.577728,188.480209 
	C292.103363,186.617859 291.443939,185.357590 288.847839,184.700729 
	C287.065430,194.903275 288.433868,204.996689 288.000000,215.000000 
"/>
<path fill="none" opacity="1.000000" stroke="#000000" stroke-linecap="round" stroke-linejoin="round" stroke-width="4.000000"
	d="
M1244.500000,297.500000 
	C1243.144531,297.870209 1242.695068,297.004761 1241.944580,296.043243 
	C1239.201416,292.528412 1236.074707,292.060242 1231.969849,293.408264 
	C1229.474731,294.227600 1227.939819,295.527374 1228.082764,297.995209 
	C1228.212769,300.239288 1229.691040,301.881836 1232.001587,302.494171 
	C1233.994141,303.022247 1236.083984,303.290314 1237.980103,304.049652 
	C1240.753662,305.160400 1244.508423,305.708679 1243.937378,309.991638 
	C1243.506958,313.220062 1237.961304,316.368591 1234.511719,315.455688 
	C1231.738037,314.721680 1229.174683,313.456207 1228.000000,310.500000 
"/>
<path fill="none" opacity="1.000000" stroke="#000000" stroke-linecap="round" stroke-linejoin="round" stroke-width="4.000000"
	d="
M1112.500000,97.500000 
	C1111.872559,97.088165 1110.866577,98.330818 1110.377808,96.533218 
	C1109.652954,93.867256 1106.796387,93.053879 1104.478882,92.610390 
	C1101.025635,91.949562 1096.323364,94.033600 1096.053345,97.004852 
	C1095.710815,100.776360 1098.432861,102.129005 1101.499756,103.000793 
	C1104.395386,103.823891 1107.393799,104.251671 1110.022339,105.965668 
	C1112.702515,107.713196 1112.463623,109.854576 1110.965210,111.975395 
	C1107.227173,117.265869 1100.755859,116.575851 1096.000000,110.500000 
"/>
<path fill="none" opacity="1.000000" stroke="#000000" stroke-linecap="round" stroke-linejoin="round" stroke-width="4.000000"
	d="
M141.000000,196.500000 
	C136.925079,192.223465 132.695587,191.342331 129.000015,194.000015 
	C125.459656,196.546082 125.600174,199.760925 129.525482,201.954391 
	C131.206451,202.893707 133.120697,203.551285 135.010574,203.949875 
	C137.986176,204.577484 141.188629,204.874695 141.924469,208.515259 
	C142.292221,210.334610 142.118851,212.091797 140.075165,213.601730 
	C136.554657,216.202774 133.051193,215.762741 129.538864,214.399841 
	C128.084457,213.835480 127.023842,212.190445 126.500000,210.500000 
"/>
<path fill="none" opacity="1.000000" stroke="#000000" stroke-linecap="round" stroke-linejoin="round" stroke-width="4.000000"
	d="
M1211.500000,103.000000 
	C1216.300781,104.111664 1221.169434,103.387848 1226.000610,103.424309 
	C1228.285767,103.441551 1229.122437,101.843544 1228.525146,99.493607 
	C1227.481445,95.387733 1223.411377,92.154610 1219.500000,92.500000 
	C1215.202271,92.879509 1211.590088,96.405800 1210.963989,100.494492 
	C1210.442871,103.897751 1209.695923,107.461838 1211.574707,110.453079 
	C1215.842407,117.247841 1222.093384,117.145851 1228.000000,110.500000 
"/>
<path fill="none" opacity="1.000000" stroke="#000000" stroke-linecap="round" stroke-linejoin="round" stroke-width="4.000000"
	d="
M365.000000,203.000000 
	C369.469635,203.986328 374.006256,203.519989 378.498383,203.423813 
	C381.691956,203.355453 383.119843,200.169617 381.500031,197.499985 
	C379.782471,194.669281 373.907501,191.512329 371.525818,192.558746 
	C366.621307,194.713577 363.771545,196.549133 364.469757,202.753403 
	C364.682983,204.648117 363.708923,206.389618 364.389130,208.535156 
	C366.730377,215.920151 374.304108,217.726562 380.000214,212.000229 
	C380.665131,211.331787 381.333313,210.666641 381.999969,209.999985 
"/>
<path fill="none" opacity="1.000000" stroke="#000000" stroke-linecap="round" stroke-linejoin="round" stroke-width="4.000000"
	d="
M1167.500000,315.500000 
	C1166.228516,311.333344 1167.670410,307.171387 1167.536377,302.998840 
	C1167.359253,297.479736 1163.688232,292.803406 1159.000000,292.500000 
	C1155.406006,292.267395 1150.736938,296.384613 1150.080566,301.011444 
	C1149.500488,305.101837 1150.136841,309.247589 1153.038208,312.465515 
	C1156.500122,316.305023 1160.236328,316.059357 1166.500000,312.000000 
"/>
<path fill="none" opacity="1.000000" stroke="#000000" stroke-linecap="round" stroke-linejoin="round" stroke-width="4.000000"
	d="
M211.000000,196.000000 
	C207.240967,193.572266 203.623871,190.824234 198.966995,194.457703 
	C196.180618,196.631729 194.486954,201.747147 195.500000,206.500000 
	C196.497864,211.181625 199.767654,214.974274 203.503967,215.470154 
	C206.790482,215.906326 208.819000,213.133926 211.500000,212.000000 
"/>
<path fill="none" opacity="1.000000" stroke="#000000" stroke-linecap="round" stroke-linejoin="round" stroke-width="4.000000"
	d="
M190.500000,216.000000 
	C187.193436,215.644760 187.005676,212.381760 186.164520,210.429123 
	C183.082520,203.274719 180.644409,195.841293 178.016861,188.493973 
	C177.416733,186.815842 176.960999,185.112579 174.692871,184.399658 
	C171.333344,186.833344 171.607437,191.181290 170.143600,194.562180 
	C167.469864,200.737503 165.770874,207.316452 163.157883,213.566010 
	C162.486160,215.172546 161.683517,215.516861 160.500000,216.000000 
"/>
<path fill="none" opacity="1.000000" stroke="#000000" stroke-linecap="round" stroke-linejoin="round" stroke-width="4.000000"
	d="
M1145.500000,316.000000 
	C1143.862183,315.304474 1142.602783,314.645172 1141.890259,312.537079 
	C1138.987061,303.947998 1135.663696,295.501129 1132.503662,286.998657 
	C1132.047729,285.772095 1131.201050,284.965637 1129.819092,284.374176 
	C1126.679932,286.369751 1126.786377,290.073486 1125.537354,293.015869 
	C1122.381714,300.450867 1121.036255,308.614502 1116.500000,315.500000 
"/>
<path fill="none" opacity="1.000000" stroke="#000000" stroke-linecap="round" stroke-linejoin="round" stroke-width="5.000000"
	d="
M950.000000,301.500000 
	C943.825256,299.902740 938.059387,302.926971 932.019104,303.305206 
	C925.212830,303.731476 918.379333,305.360870 911.494324,305.931213 
	C909.562134,306.091278 908.243408,306.374084 908.000000,308.500000 
"/>
<path fill="none" opacity="1.000000" stroke="#000000" stroke-linecap="round" stroke-linejoin="round" stroke-width="5.000000"
	d="
M908.000000,97.500000 
	C908.138855,99.027779 908.975342,99.833611 910.499512,100.004539 
	C919.333862,100.995255 928.170105,101.971222 936.998535,103.012291 
	C941.330811,103.523163 945.446716,105.905991 950.000000,104.500000 
"/>
<path fill="none" opacity="1.000000" stroke="#000000" stroke-linecap="round" stroke-linejoin="round" stroke-width="4.000000"
	d="
M1096.000000,297.000000 
	C1092.175781,292.628784 1089.704346,291.322998 1084.491821,293.480164 
	C1082.403076,294.344574 1080.978027,296.061707 1081.173828,297.982269 
	C1081.332153,299.535065 1081.842163,301.746002 1084.490234,302.078156 
	C1086.707153,302.356262 1088.664673,303.696472 1090.984741,304.089905 
	C1095.199219,304.804596 1097.710693,307.794067 1097.000000,310.500000 
	C1096.270752,313.276215 1090.452271,316.539795 1087.528076,315.426178 
	C1084.838623,314.401886 1081.926636,313.298859 1081.000000,310.000000 
"/>
<path fill="none" opacity="1.000000" stroke="#000000" stroke-linecap="round" stroke-linejoin="round" stroke-width="4.000000"
	d="
M342.000000,203.000000 
	C338.833344,203.500000 335.673492,204.049606 332.498199,204.486984 
	C328.821808,204.993408 325.515656,207.996948 325.999969,210.500000 
	C326.549774,213.341263 331.921478,216.325546 335.000000,215.500000 
	C342.000244,213.622803 343.642761,211.198410 342.918915,203.507629 
	C342.881958,203.115036 342.788483,202.964142 342.927826,202.479263 
	C344.016815,198.690277 344.076172,195.292206 339.516205,193.459686 
	C335.162018,191.709900 331.322357,192.321533 328.059296,196.051865 
	C327.274567,196.948959 326.855469,197.870224 325.500000,197.500000 
"/>
<path fill="none" opacity="1.000000" stroke="#000000" stroke-linecap="round" stroke-linejoin="round" stroke-width="4.000000"
	d="
M1188.500000,103.000000 
	C1185.500000,103.500000 1182.514404,104.127586 1179.496460,104.468971 
	C1175.356445,104.937279 1172.648438,107.334229 1173.000000,110.500000 
	C1173.348389,113.637268 1178.112183,116.620087 1181.474976,115.429298 
	C1184.264038,114.441689 1187.470459,113.400475 1189.311523,111.332207 
	C1190.978149,109.459763 1190.269531,106.168076 1189.508667,103.497520 
	C1189.442871,103.266289 1189.466064,102.994583 1189.505005,102.750801 
	C1190.079468,99.153282 1191.473145,95.436600 1186.519531,93.451118 
	C1182.146729,91.698334 1178.506592,92.442307 1174.499878,96.499886 
	C1174.334229,96.667633 1174.166626,96.833305 1174.000000,96.999977 
"/>
<path fill="none" opacity="1.000000" stroke="#000000" stroke-linecap="round" stroke-linejoin="round" stroke-width="4.000000"
	d="
M223.500000,192.500000 
	C223.500000,197.333328 223.505402,202.166687 223.498077,207.000000 
	C223.493210,210.219070 223.768387,212.924240 227.437637,214.633850 
	C231.050308,216.317108 233.396988,214.748703 235.992508,212.988953 
	C236.873062,212.391937 237.666672,211.666672 238.500000,211.000000 
"/>
<path fill="none" opacity="1.000000" stroke="#000000" stroke-linecap="round" stroke-linejoin="round" stroke-width="5.000000"
	d="
M117.000000,215.000000 
	C117.000000,210.500000 117.016243,205.999924 116.996414,201.500015 
	C116.961731,193.629211 111.840981,190.676208 104.976089,194.456589 
	C103.889442,195.054993 103.013878,196.310165 101.500000,196.000000 
"/>
<path fill="none" opacity="1.000000" stroke="#000000" stroke-linecap="round" stroke-linejoin="round" stroke-width="5.000000"
	d="
M1072.000000,315.000000 
	C1072.000000,310.500000 1072.186157,305.990601 1071.959229,301.502045 
	C1071.550415,293.415710 1066.361816,290.354980 1059.523560,294.538452 
	C1058.542603,295.138519 1057.775635,296.051392 1056.500000,296.000000 
"/>
<path fill="none" opacity="1.000000" stroke="#000000" stroke-linecap="round" stroke-linejoin="round" stroke-width="5.000000"
	d="
M1086.000000,115.000000 
	C1086.000000,110.166664 1086.015381,105.333275 1085.996338,100.500015 
	C1085.968994,93.582634 1081.113770,90.735352 1074.990601,93.982353 
	C1073.676147,94.679375 1072.753418,96.173447 1071.000000,96.000000 
"/>
<path fill="none" opacity="1.000000" stroke="#000000" stroke-linecap="round" stroke-linejoin="round" stroke-width="5.000000"
	d="
M1178.000000,293.000000 
	C1178.000000,297.166656 1177.974609,301.333557 1178.007568,305.499939 
	C1178.036987,309.217438 1178.155884,312.707306 1182.465088,314.580322 
	C1186.446045,316.310699 1188.953979,314.537170 1191.522949,312.023468 
	C1192.030151,311.527191 1192.833374,311.333313 1193.500000,311.000000 
"/>
<path fill="none" opacity="1.000000" stroke="#000000" stroke-linecap="round" stroke-linejoin="round" stroke-width="4.000000"
	d="
M676.000000,203.000000 
	C674.772095,200.144043 671.837708,199.660690 669.475830,198.551514 
	C660.972473,194.558350 653.031128,189.371338 644.000000,186.500000 
"/>
<path fill="none" opacity="1.000000" stroke="#000000" stroke-linecap="round" stroke-linejoin="round" stroke-width="4.000000"
	d="
M682.000000,203.000000 
	C678.301392,202.315598 675.544800,204.261551 672.447937,205.901703 
	C663.427979,210.678802 654.200195,215.071426 644.957520,219.409454 
	C643.804504,219.950607 643.149048,220.602997 642.500000,221.500000 
"/>
<path fill="none" opacity="1.000000" stroke="#000000" stroke-linecap="round" stroke-linejoin="round" stroke-width="5.000000"
	d="
M1201.000000,84.000000 
	C1201.000000,94.333336 1201.000000,104.666664 1201.000000,115.000000 
"/>
<path fill="none" opacity="1.000000" stroke="#000000" stroke-linecap="round" stroke-linejoin="round" stroke-width="5.000000"
	d="
M250.000000,184.000000 
	C250.000000,194.333328 250.000000,204.666672 250.000000,215.000000 
"/>
<path fill="none" opacity="1.000000" stroke="#000000" stroke-linecap="round" stroke-linejoin="round" stroke-width="5.000000"
	d="
M354.000000,184.000000 
	C354.000000,194.333328 354.000000,204.666672 354.000000,215.000000 
"/>
<path fill="none" opacity="1.000000" stroke="#000000" stroke-linecap="round" stroke-linejoin="round" stroke-width="5.000000"
	d="
M1205.000000,284.000000 
	C1205.000000,294.333344 1205.000000,304.666656 1205.000000,315.000000 
"/>
<path fill="none" opacity="1.000000" stroke="#000000" stroke-linecap="round" stroke-linejoin="round" stroke-width="5.000000"
	d="
M1149.000000,113.500000 
	C1144.274292,106.897804 1143.514771,98.763824 1140.515259,91.493698 
	C1139.666260,89.435829 1139.342407,87.085136 1137.056274,85.870300 
	C1134.742798,87.254967 1134.999756,89.423851 1134.999878,91.500000 
	C1135.000244,99.333336 1135.000000,107.166664 1135.000000,115.000000 
"/>
<path fill="none" opacity="1.000000" stroke="#000000" stroke-linecap="round" stroke-linejoin="round" stroke-width="4.000000"
	d="
M315.000000,186.500000 
	C316.918701,187.946411 316.491669,190.040543 316.494812,192.000015 
	C316.507324,199.833313 316.500000,207.666672 316.500000,215.500000 
"/>
<path fill="none" opacity="1.000000" stroke="#000000" stroke-linecap="round" stroke-linejoin="round" stroke-width="5.000000"
	d="
M1162.000000,85.000000 
	C1164.007812,94.944183 1162.555176,105.003716 1163.000000,115.000000 
"/>
<path fill="none" opacity="1.000000" stroke="#000000" stroke-linecap="round" stroke-linejoin="round" stroke-width="3.000000"
	d="
M315.000000,185.000000 
	C310.299683,189.695938 309.857391,196.291626 307.628021,202.049561 
	C305.936859,206.417419 304.731018,210.961884 302.250000,215.000000 
"/>
<path fill="none" opacity="1.000000" stroke="#000000" stroke-linecap="round" stroke-linejoin="round" stroke-width="5.000000"
	d="
M945.000000,105.500000 
	C944.285950,107.662086 942.495605,108.964622 940.998596,110.498611 
	C934.001831,117.668404 927.000000,124.833321 920.000000,131.999985 
"/>
<path fill="none" opacity="1.000000" stroke="#000000" stroke-linecap="round" stroke-linejoin="round" stroke-width="5.000000"
	d="
M920.500000,274.500000 
	C927.833374,282.000000 935.184448,289.482788 942.478943,297.020355 
	C943.464966,298.039246 944.166687,299.333344 945.000000,300.500000 
"/>
<path fill="none" opacity="1.000000" stroke="#000000" stroke-linecap="round" stroke-linejoin="round" stroke-width="3.000000"
	d="
M1160.000000,87.500000 
	C1156.843872,92.014961 1156.131714,97.418823 1154.421631,102.473465 
	C1152.968384,106.768730 1150.833374,110.833351 1149.000000,115.000023 
"/>
<path fill="none" opacity="1.000000" stroke="#000000" stroke-linecap="round" stroke-linejoin="round" stroke-width="4.000000"
	d="
M1217.000000,284.500000 
	C1215.885376,293.482452 1216.725098,302.500977 1216.545532,311.500916 
	C1216.489868,314.285919 1218.508301,315.108398 1221.000000,315.000000 
"/>
<path fill="none" opacity="1.000000" stroke="#000000" stroke-linecap="round" stroke-linejoin="round" stroke-width="5.000000"
	d="
M263.000000,184.500000 
	C261.831085,186.360733 261.990265,188.437943 261.994690,190.500015 
	C262.008942,197.166656 262.068848,203.834366 261.968048,210.499512 
	C261.924225,213.395782 262.729675,215.221771 266.000000,215.000000 
"/>
<path fill="none" opacity="1.000000" stroke="#000000" stroke-linecap="round" stroke-linejoin="round" stroke-width="5.000000"
	d="
M1055.500000,292.500000 
	C1056.657593,299.977966 1055.688354,307.503235 1056.000000,315.000000 
"/>
<path fill="none" opacity="1.000000" stroke="#000000" stroke-linecap="round" stroke-linejoin="round" stroke-width="5.000000"
	d="
M100.500000,192.500000 
	C101.657608,199.977982 100.688339,207.503220 101.000000,215.000000 
"/>
<path fill="none" opacity="1.000000" stroke="#000000" stroke-linecap="round" stroke-linejoin="round" stroke-width="5.000000"
	d="
M1070.000000,93.000000 
	C1070.000000,100.333336 1070.000000,107.666664 1070.000000,115.000000 
"/>
<path fill="none" opacity="1.000000" stroke="#000000" stroke-linecap="round" stroke-linejoin="round" stroke-width="4.000000"
	d="
M239.500000,192.500000 
	C239.500000,200.166672 239.500000,207.833328 239.500000,215.500000 
"/>
<path fill="none" opacity="1.000000" stroke="#000000" stroke-linecap="round" stroke-linejoin="round" stroke-width="5.000000"
	d="
M1194.000000,293.000000 
	C1194.090454,300.501709 1193.690186,308.014282 1194.500000,315.500000 
"/>
<path fill="none" opacity="1.000000" stroke="#000000" stroke-linecap="round" stroke-linejoin="round" stroke-width="5.000000"
	d="
M642.500000,184.500000 
	C643.510437,190.141846 642.784424,195.834518 642.990173,201.500351 
	C643.208313,207.507599 642.131409,213.585297 644.000000,219.500000 
"/>
<path fill="none" opacity="1.000000" stroke="#000000" stroke-linecap="round" stroke-linejoin="round" stroke-width="4.000000"
	d="
M212.500000,183.500000 
	C212.500000,194.166672 212.500000,204.833328 212.500000,215.500000 
"/>
<path fill="none" opacity="1.000000" stroke="#000000" stroke-linecap="round" stroke-linejoin="round" stroke-width="5.000000"
	d="
M1123.000000,304.500000 
	C1128.000000,305.393677 1133.000000,305.229584 1138.000000,304.500000 
"/>
<path fill="none" opacity="1.000000" stroke="#000000" stroke-linecap="round" stroke-linejoin="round" stroke-width="5.000000"
	d="
M168.000000,204.500000 
	C172.833328,205.358398 177.666672,205.269653 182.500000,204.500000 
"/>
<path fill="none" opacity="1.000000" stroke="#000000" stroke-linecap="round" stroke-linejoin="round" stroke-width="4.000000"
	d="
M1167.500000,283.500000 
	C1167.010864,287.654205 1168.564087,291.971802 1166.500000,296.000000 
"/>
<path fill="none" opacity="1.000000" stroke="#000000" stroke-linecap="round" stroke-linejoin="round" stroke-width="4.000000"
	d="
M877.500000,275.500000 
	C877.177307,277.489349 878.494934,277.523132 879.951111,278.119385 
	C882.421204,279.130737 884.761414,280.227966 887.500000,280.000000 
"/>
<path fill="none" opacity="1.000000" stroke="#000000" stroke-linecap="round" stroke-linejoin="round" stroke-width="4.000000"
	d="
M863.500000,274.500000 
	C863.822693,272.510651 862.505066,272.476898 861.048889,271.880646 
	C858.578796,270.869263 856.238586,269.772034 853.500000,270.000000 
"/>
<path fill="none" opacity="1.000000" stroke="#000000" stroke-linecap="round" stroke-linejoin="round" stroke-width="4.000000"
	d="
M887.500000,126.000000 
	C883.996460,125.553314 881.148438,127.599304 878.002930,128.510086 
	C876.796448,128.859390 877.849854,129.879135 877.500000,130.500000 
"/>
<path fill="none" opacity="1.000000" stroke="#000000" stroke-linecap="round" stroke-linejoin="round" stroke-width="4.000000"
	d="
M863.500000,131.500000 
	C863.822693,133.489334 862.505066,133.523117 861.048889,134.119385 
	C858.578857,135.130753 856.238586,136.227966 853.500000,136.000000 
"/>
<path fill="none" opacity="1.000000" stroke="#000000" stroke-linecap="round" stroke-linejoin="round" stroke-width="4.000000"
	d="
M830.500000,262.500000 
	C834.329773,260.684540 837.095459,264.189362 840.500000,264.500000 
"/>
<path fill="none" opacity="1.000000" stroke="#000000" stroke-linecap="round" stroke-linejoin="round" stroke-width="4.000000"
	d="
M900.500000,120.500000 
	C903.904541,120.189377 906.670227,116.684532 910.500000,118.500000 
"/>
<path fill="none" opacity="1.000000" stroke="#000000" stroke-linecap="round" stroke-linejoin="round" stroke-width="4.000000"
	d="
M900.000000,283.500000 
	C901.482544,286.391327 906.613342,288.345917 910.500000,287.500000 
"/>
<path fill="none" opacity="1.000000" stroke="#000000" stroke-linecap="round" stroke-linejoin="round" stroke-width="4.000000"
	d="
M841.000000,139.500000 
	C839.517456,142.391327 834.386658,144.345917 830.500000,143.500000 
"/>
<path fill="none" opacity="1.000000" stroke="#000000" stroke-linecap="round" stroke-linejoin="round" stroke-width="4.000000"
	d="
M787.000000,245.500000 
	C789.269165,247.575302 792.613342,247.193314 795.000000,249.000000 
"/>
<path fill="none" opacity="1.000000" stroke="#000000" stroke-linecap="round" stroke-linejoin="round" stroke-width="4.000000"
	d="
M817.500000,256.500000 
	C815.083313,255.666672 812.666687,254.833344 810.250000,254.000000 
"/>
<path fill="none" opacity="1.000000" stroke="#000000" stroke-linecap="round" stroke-linejoin="round" stroke-width="4.000000"
	d="
M817.500000,149.500000 
	C815.083313,150.333328 812.666687,151.166656 810.250000,152.000000 
"/>
<path fill="none" opacity="1.000000" stroke="#000000" stroke-linecap="round" stroke-linejoin="round" stroke-width="4.000000"
	d="
M794.500000,157.500000 
	C792.075073,158.687637 789.135864,158.589691 787.000000,160.500000 
"/>
<path fill="none" opacity="1.000000" stroke="#000000" stroke-linecap="round" stroke-linejoin="round" stroke-width="4.000000"
	d="
M931.500000,110.500000 
	C928.532410,109.962952 926.218506,112.040764 923.500000,112.500000 
"/>
<path fill="none" opacity="1.000000" stroke="#000000" stroke-linecap="round" stroke-linejoin="round" stroke-width="4.000000"
	d="
M924.000000,294.000000 
	C926.669495,293.652618 928.756775,296.215973 931.500000,295.500000 
"/>
<path fill="none" opacity="1.000000" stroke="#000000" stroke-linecap="round" stroke-linejoin="round" stroke-width="4.000000"
	d="
M1221.500000,292.500000 
	C1218.500000,292.413116 1215.500000,293.615875 1212.500000,292.500000 
"/>
<path fill="none" opacity="1.000000" stroke="#000000" stroke-linecap="round" stroke-linejoin="round" stroke-width="4.000000"
	d="
M266.500000,192.500000 
	C263.833344,192.590164 261.166656,193.587463 258.500000,192.500000 
"/>
</svg>