<svg version="1.1" id="Layer_1" xmlns="http://www.w3.org/2000/svg" xmlns:xlink="http://www.w3.org/1999/xlink" x="0px" y="0px"
	 width="100%" viewBox="0 0 1784 208" enable-background="new 0 0 1784 208" xml:space="preserve">
<path fill="none" opacity="1.000000" stroke="#000000" stroke-linecap="round" stroke-linejoin="round" stroke-width="5.000000"
	d="
M1263.000000,103.500000 
	C1263.000000,123.168076 1263.000000,142.836151 1263.000000,162.750000 
	C1423.166626,162.750000 1582.833374,162.750000 1742.750000,162.750000 
	C1742.750000,122.833336 1742.750000,83.166664 1742.750000,43.250000 
	C1582.833374,43.250000 1423.166626,43.250000 1263.000000,43.250000 
	C1263.000000,45.165318 1263.000000,46.832661 1263.000000,48.500000 
	C1263.000000,65.000000 1263.022949,81.500084 1262.964478,97.999878 
	C1262.958618,99.657127 1263.558716,101.422539 1262.500000,103.000000 
"/>
<path fill="none" opacity="1.000000" stroke="#000000" stroke-linecap="round" stroke-linejoin="round" stroke-width="5.000000"
	d="
M523.500000,102.750000 
	C523.333374,101.000000 523.025940,99.250320 523.021973,97.499947 
	C522.984924,81.166695 523.020630,64.833267 522.968506,48.500099 
	C522.963196,46.840012 523.654297,45.067905 522.001892,43.250000 
	C362.833344,43.250000 203.166672,43.250000 43.250000,43.250000 
	C43.250000,83.166664 43.250000,122.833336 43.250000,162.750000 
	C203.166672,162.750000 362.833344,162.750000 523.000000,162.750000 
	C523.000000,160.834686 523.000000,159.167343 523.000000,157.500000 
	C523.000000,141.166672 522.995850,124.833336 523.005676,108.500000 
	C523.006775,106.638405 522.691162,104.723030 523.750000,103.000000 
"/>
<path fill="none" opacity="1.000000" stroke="#000000" stroke-linecap="round" stroke-linejoin="round" stroke-width="5.000000"
	d="
M1262.000000,103.000000 
	C1218.333374,103.000000 1174.666626,103.000000 1131.000000,103.000000 
"/>
<path fill="none" opacity="1.000000" stroke="#000000" stroke-linecap="round" stroke-linejoin="round" stroke-width="4.000000"
	d="
M824.500000,107.500000 
	C824.562073,103.879807 823.437866,100.818649 820.510620,98.486671 
	C817.354370,95.972221 813.677246,95.912964 810.564758,97.618187 
	C805.040710,100.644600 805.705750,106.342911 806.069885,111.495056 
	C806.360291,115.603340 809.048889,117.917763 812.990540,119.033440 
	C817.381287,120.276253 822.715271,117.232880 823.989746,112.497246 
	C824.388733,111.014908 824.666626,109.499992 825.000000,107.999992 
"/>
<path fill="none" opacity="1.000000" stroke="#000000" stroke-linecap="round" stroke-linejoin="round" stroke-width="4.000000"
	d="
M263.000000,111.500000 
	C260.094574,107.102829 260.396637,101.708138 258.493256,97.002724 
	C256.830872,92.893082 256.825378,88.189537 253.504364,83.577118 
	C247.842773,93.778755 248.010956,105.390656 242.750000,115.000000 
"/>
<path fill="none" opacity="1.000000" stroke="#000000" stroke-linecap="round" stroke-linejoin="round" stroke-width="4.000000"
	d="
M708.000000,100.500000 
	C705.523865,97.313278 702.935364,95.611862 698.426697,97.304733 
	C695.760681,98.305710 694.079163,98.938637 693.962219,101.998558 
	C693.823181,105.637733 696.579712,106.133881 699.008240,106.976196 
	C700.799500,107.597466 702.696472,107.911942 704.493164,108.520203 
	C707.338562,109.483505 710.088135,110.959984 709.410461,114.482780 
	C708.679138,118.284866 705.121948,119.407562 702.003784,119.335655 
	C698.481750,119.254417 694.484985,118.689903 693.500000,114.000000 
"/>
<path fill="none" opacity="1.000000" stroke="#000000" stroke-linecap="round" stroke-linejoin="round" stroke-width="4.000000"
	d="
M212.000000,96.500000 
	C209.523880,93.313278 206.935394,91.611855 202.426682,93.304726 
	C199.760696,94.305702 198.079132,94.938637 197.962189,97.998558 
	C197.823120,101.637733 200.579742,102.133888 203.008255,102.976196 
	C204.799530,103.597466 206.696487,103.911942 208.493164,104.520195 
	C211.338562,105.483498 214.088104,106.959976 213.410446,110.482773 
	C212.679047,114.284851 209.121948,115.407555 206.003784,115.335648 
	C202.481735,115.254425 198.484970,114.689903 197.500000,110.000000 
"/>
<path fill="none" opacity="1.000000" stroke="#000000" stroke-linecap="round" stroke-linejoin="round" stroke-width="4.000000"
	d="
M1437.000000,96.500000 
	C1432.925049,92.223457 1428.695557,91.342293 1425.000000,93.999962 
	C1421.459595,96.546043 1421.600220,99.760941 1425.525513,101.954407 
	C1427.206421,102.893768 1429.120605,103.551254 1431.010620,103.949883 
	C1433.986206,104.577477 1437.188599,104.874718 1437.924438,108.515274 
	C1438.292114,110.334610 1438.118774,112.091705 1436.075073,113.601639 
	C1432.554688,116.202698 1429.051147,115.762764 1425.538818,114.399841 
	C1424.084473,113.835495 1423.023804,112.190453 1422.500000,110.500000 
"/>
<path fill="none" opacity="1.000000" stroke="#000000" stroke-linecap="round" stroke-linejoin="round" stroke-width="4.000000"
	d="
M886.500000,102.000000 
	C884.951599,97.791298 881.553406,96.054619 877.516724,96.619537 
	C872.941406,97.259834 870.131409,101.167953 870.030457,106.000633 
	C869.953552,109.677689 869.475098,113.452858 872.478943,116.520645 
	C877.423889,121.570839 883.559509,120.131516 887.000000,113.000000 
"/>
<path fill="none" opacity="1.000000" stroke="#000000" stroke-linecap="round" stroke-linejoin="round" stroke-width="5.000000"
	d="
M571.000000,103.000000 
	C555.333313,103.000000 539.666687,103.000000 524.000000,103.000000 
"/>
<path fill="none" opacity="1.000000" stroke="#000000" stroke-linecap="round" stroke-linejoin="round" stroke-width="4.000000"
	d="
M588.500000,86.500000 
	C581.264954,94.146408 578.913513,103.300812 580.548889,113.492157 
	C581.569397,119.851974 583.195068,126.074883 588.500000,130.500000 
"/>
<path fill="none" opacity="1.000000" stroke="#000000" stroke-linecap="round" stroke-linejoin="round" stroke-width="4.000000"
	d="
M848.500000,100.500000 
	C845.696350,98.724937 843.067139,95.963066 839.518799,96.603958 
	C834.785889,97.458801 832.000000,102.134956 832.000000,108.000000 
	C832.000000,113.865028 834.853149,118.189224 839.495117,119.517097 
	C841.386963,120.058281 842.846558,118.780380 844.467712,118.371948 
	C846.112366,117.957573 847.128662,115.811119 849.250000,116.000000 
"/>
<path fill="none" opacity="1.000000" stroke="#000000" stroke-linecap="round" stroke-linejoin="round" stroke-width="4.000000"
	d="
M637.500000,87.000000 
	C645.948120,94.729027 647.725159,110.907585 642.936523,121.471237 
	C641.496948,124.647041 640.934387,128.478409 637.500000,130.500000 
"/>
<path fill="none" opacity="1.000000" stroke="#000000" stroke-linecap="round" stroke-linejoin="round" stroke-width="4.000000"
	d="
M732.000000,88.000000 
	C732.000000,95.333336 731.988953,102.666687 732.003662,109.999992 
	C732.014771,115.570511 733.094666,116.961906 739.001770,118.994896 
	C743.218628,120.446152 745.918091,117.744385 747.898682,114.928741 
	C750.722046,110.915169 749.670593,101.573242 746.110657,98.855095 
	C742.898193,96.402275 740.271423,96.168083 736.987305,97.976913 
	C735.686096,98.693542 734.753418,100.173447 733.000000,100.000000 
"/>
<path fill="none" opacity="1.000000" stroke="#000000" stroke-linecap="round" stroke-linejoin="round" stroke-width="4.000000"
	d="
M1039.000000,107.000000 
	C1043.469604,107.986336 1048.006226,107.520004 1052.498413,107.423851 
	C1055.692017,107.355484 1057.119751,104.169701 1055.499878,101.500046 
	C1053.782349,98.669350 1047.907471,95.512291 1045.525757,96.558746 
	C1040.621338,98.713547 1037.771484,100.549042 1038.469727,106.753410 
	C1038.682861,108.648117 1037.708862,110.389626 1038.389160,112.535156 
	C1040.730347,119.920143 1048.304199,121.726562 1054.000244,116.000244 
	C1054.665161,115.331871 1055.333374,114.666679 1056.000000,114.000015 
"/>
<path fill="none" opacity="1.000000" stroke="#000000" stroke-linecap="round" stroke-linejoin="round" stroke-width="4.000000"
	d="
M909.500000,107.000008 
	C906.333313,107.500008 903.175232,108.064850 899.997864,108.483704 
	C895.964050,109.015450 893.326233,111.814735 894.000000,114.999992 
	C894.580933,117.746460 899.048462,120.464806 901.973755,119.426048 
	C904.762268,118.435852 907.333313,116.833321 910.000000,115.499985 
"/>
<path fill="none" opacity="1.000000" stroke="#000000" stroke-linecap="round" stroke-linejoin="round" stroke-width="4.000000"
	d="
M361.500000,103.000000 
	C358.333344,103.500000 355.175201,104.064835 351.997864,104.483688 
	C347.964081,105.015450 345.326233,107.814743 346.000000,111.000000 
	C346.580963,113.746468 351.048492,116.464806 353.973755,115.426071 
	C356.762268,114.435875 359.333344,112.833344 362.000000,111.500015 
"/>
<path fill="none" opacity="1.000000" stroke="#000000" stroke-linecap="round" stroke-linejoin="round" stroke-width="4.000000"
	d="
M1576.500000,103.000015 
	C1573.333374,103.500015 1570.175171,104.064888 1566.997803,104.483727 
	C1562.963989,105.015480 1560.326172,107.814728 1561.000000,111.000008 
	C1561.580933,113.746468 1566.086792,116.535324 1568.959961,115.398705 
	C1571.351929,114.452438 1573.895508,113.793808 1576.096436,112.127312 
	C1577.355347,111.174042 1578.038330,110.527229 1578.016724,108.999763 
	C1577.964966,105.333832 1578.220093,101.650002 1577.944092,98.004234 
	C1577.602417,93.491982 1570.319214,90.871468 1565.533447,93.559647 
	C1564.148560,94.337624 1563.166748,95.833389 1562.000000,97.000053 
"/>
<path fill="none" opacity="1.000000" stroke="#000000" stroke-linecap="round" stroke-linejoin="round" stroke-width="4.000000"
	d="
M1495.500000,92.500000 
	C1495.500000,97.333336 1495.505493,102.166672 1495.498169,107.000000 
	C1495.493286,110.219078 1495.768311,112.924202 1499.437622,114.633789 
	C1503.050415,116.317062 1505.396973,114.748695 1507.992554,112.988983 
	C1508.873047,112.391914 1509.666626,111.666664 1510.500000,110.999992 
"/>
<path fill="none" opacity="1.000000" stroke="#000000" stroke-linecap="round" stroke-linejoin="round" stroke-width="5.000000"
	d="
M1413.000000,115.000000 
	C1413.000000,110.500000 1413.016235,105.999931 1412.996460,101.500015 
	C1412.961670,93.629219 1407.841064,90.676285 1400.976074,94.456627 
	C1399.889404,95.055038 1399.013916,96.310165 1397.500000,96.000000 
"/>
<path fill="none" opacity="1.000000" stroke="#000000" stroke-linecap="round" stroke-linejoin="round" stroke-width="5.000000"
	d="
M390.000000,115.000000 
	C390.000000,110.500000 390.016235,105.999931 389.996429,101.500015 
	C389.961731,93.629219 384.840973,90.676216 377.976105,94.456589 
	C376.889435,95.054993 376.013885,96.310165 374.500000,96.000000 
"/>
<path fill="none" opacity="1.000000" stroke="#000000" stroke-linecap="round" stroke-linejoin="round" stroke-width="5.000000"
	d="
M684.000000,119.000000 
	C684.000000,114.166664 684.015442,109.333275 683.996338,104.500015 
	C683.968933,97.582626 679.113892,94.735352 672.990662,97.982330 
	C671.676147,98.679352 670.753418,100.173447 669.000000,100.000000 
"/>
<path fill="none" opacity="1.000000" stroke="#000000" stroke-linecap="round" stroke-linejoin="round" stroke-width="5.000000"
	d="
M1605.000000,115.000000 
	C1605.000000,110.166664 1605.015381,105.333275 1604.996338,100.500015 
	C1604.968994,93.582634 1600.113770,90.735352 1593.990601,93.982330 
	C1592.676147,94.679405 1591.753418,96.173447 1590.000000,96.000000 
"/>
<path fill="none" opacity="1.000000" stroke="#000000" stroke-linecap="round" stroke-linejoin="round" stroke-width="5.000000"
	d="
M188.000000,115.000000 
	C188.000000,110.166664 188.015442,105.333275 187.996338,100.500015 
	C187.968979,93.582626 183.113861,90.735352 176.990631,93.982330 
	C175.676147,94.679359 174.753387,96.173447 173.000000,96.000000 
"/>
<path fill="none" opacity="1.000000" stroke="#000000" stroke-linecap="round" stroke-linejoin="round" stroke-width="5.000000"
	d="
M1028.000000,119.000000 
	C1028.000000,114.166664 1028.003418,109.333336 1027.999146,104.500000 
	C1027.993042,97.563416 1023.147827,94.716949 1016.990662,97.982353 
	C1015.676208,98.679436 1014.753418,100.173447 1013.000000,100.000000 
"/>
<path fill="none" opacity="1.000000" stroke="#000000" stroke-linecap="round" stroke-linejoin="round" stroke-width="4.000000"
	d="
M336.500000,115.500000 
	C336.500000,110.666664 336.432800,105.832077 336.523438,101.000443 
	C336.584625,97.740471 336.423553,94.631409 332.991669,93.017738 
	C329.849091,91.540092 327.398407,93.323494 325.014191,95.019958 
	C324.256683,95.558968 323.666656,96.333328 323.000000,96.999992 
"/>
<path fill="none" opacity="1.000000" stroke="#000000" stroke-linecap="round" stroke-linejoin="round" stroke-width="5.000000"
	d="
M1552.000000,115.000000 
	C1552.000000,110.333336 1551.904785,105.664101 1552.030518,101.000824 
	C1552.129150,97.345367 1551.197998,94.484367 1547.508545,92.979095 
	C1544.208252,91.632622 1542.173706,93.675232 1539.995728,95.494888 
	C1539.357056,96.028412 1538.666748,96.500038 1538.000000,97.000038 
"/>
<path fill="none" opacity="1.000000" stroke="#000000" stroke-linecap="round" stroke-linejoin="round" stroke-width="5.000000"
	d="
M629.000000,88.000000 
	C623.161926,88.000000 617.323853,88.000000 611.000000,88.000000 
	C611.000000,98.661201 611.000000,108.830605 611.000000,119.000000 
"/>
<path fill="none" opacity="1.000000" stroke="#000000" stroke-linecap="round" stroke-linejoin="round" stroke-width="5.000000"
	d="
M922.000000,88.000000 
	C922.000000,98.333336 922.000000,108.666664 922.000000,119.000000 
"/>
<path fill="none" opacity="1.000000" stroke="#000000" stroke-linecap="round" stroke-linejoin="round" stroke-width="5.000000"
	d="
M796.000000,88.000000 
	C796.000000,98.333336 796.000000,108.666664 796.000000,119.000000 
"/>
<path fill="none" opacity="1.000000" stroke="#000000" stroke-linecap="round" stroke-linejoin="round" stroke-width="5.000000"
	d="
M598.000000,88.000000 
	C598.000000,98.333336 598.000000,108.666664 598.000000,119.000000 
"/>
<path fill="none" opacity="1.000000" stroke="#000000" stroke-linecap="round" stroke-linejoin="round" stroke-width="8.000000"
	d="
M1219.500000,81.499992 
	C1225.166626,87.499992 1230.796387,93.535568 1236.517944,99.482727 
	C1238.862915,101.920219 1238.862915,104.079803 1236.517944,106.517250 
	C1230.796387,112.464417 1225.166626,118.500015 1219.500000,124.500015 
"/>
<path fill="none" opacity="1.000000" stroke="#000000" stroke-linecap="round" stroke-linejoin="round" stroke-width="4.000000"
	d="
M233.500000,83.500000 
	C236.822571,90.472633 237.126404,98.272247 239.534637,105.488441 
	C240.317612,107.834602 239.827942,110.644783 242.000000,112.500000 
"/>
<path fill="none" opacity="1.000000" stroke="#000000" stroke-linecap="round" stroke-linejoin="round" stroke-width="5.000000"
	d="
M947.000000,117.500000 
	C942.274292,110.897804 941.514832,102.763832 938.515320,95.493675 
	C937.666260,93.435806 937.342407,91.085136 935.056274,89.870300 
	C932.742859,91.254967 932.999695,93.423851 932.999817,95.500000 
	C933.000183,103.333336 933.000000,111.166664 933.000000,119.000000 
"/>
<path fill="none" opacity="1.000000" stroke="#000000" stroke-linecap="round" stroke-linejoin="round" stroke-width="5.000000"
	d="
M960.000000,89.000000 
	C962.007812,98.944183 960.555115,109.003716 961.000000,119.000000 
"/>
<path fill="none" opacity="1.000000" stroke="#000000" stroke-linecap="round" stroke-linejoin="round" stroke-width="4.000000"
	d="
M273.500000,83.500000 
	C270.319611,90.337257 269.766602,97.908562 267.488434,104.996277 
	C266.778290,107.205627 266.998260,109.781387 265.000000,111.500000 
"/>
<path fill="none" opacity="1.000000" stroke="#000000" stroke-linecap="round" stroke-linejoin="round" stroke-width="4.000000"
	d="
M850.000000,97.000000 
	C850.000000,103.833336 849.876770,110.669601 850.039307,117.499062 
	C850.167175,122.871788 848.253540,126.883499 844.507446,128.517136 
	C839.930298,130.513260 833.985413,129.352798 832.000000,123.500000 
"/>
<path fill="none" opacity="1.000000" stroke="#000000" stroke-linecap="round" stroke-linejoin="round" stroke-width="3.000000"
	d="
M958.000000,91.500000 
	C954.843811,96.014961 954.131714,101.418823 952.421570,106.473457 
	C950.968201,110.768700 948.833374,114.833336 947.000000,119.000008 
"/>
<path fill="none" opacity="1.000000" stroke="#000000" stroke-linecap="round" stroke-linejoin="round" stroke-width="4.000000"
	d="
M365.500000,116.000000 
	C362.528473,116.145317 362.635895,112.658066 362.739471,112.040138 
	C363.312286,108.622948 362.211731,105.257057 362.644104,102.019241 
	C363.188690,97.941162 363.172913,94.961494 358.520599,93.437141 
	C353.312225,91.730598 350.189056,92.491249 347.000000,97.000000 
"/>
<path fill="none" opacity="1.000000" stroke="#000000" stroke-linecap="round" stroke-linejoin="round" stroke-width="5.000000"
	d="
M1001.000000,88.500000 
	C999.831055,90.360733 999.990295,92.437950 999.994690,94.500008 
	C1000.008972,101.166641 1000.068909,107.834381 999.968079,114.499519 
	C999.924255,117.395782 1000.729675,119.221779 1004.000000,119.000000 
"/>
<path fill="none" opacity="1.000000" stroke="#000000" stroke-linecap="round" stroke-linejoin="round" stroke-width="4.000000"
	d="
M913.500000,120.000000 
	C910.528442,120.145317 910.635864,116.658058 910.739441,116.040138 
	C911.312256,112.622948 910.211731,109.257050 910.644043,106.019241 
	C911.188660,101.941154 911.172852,98.961487 906.520569,97.437149 
	C901.312256,95.730606 898.189087,96.491241 895.000000,101.000000 
"/>
<path fill="none" opacity="1.000000" stroke="#000000" stroke-linecap="round" stroke-linejoin="round" stroke-width="5.000000"
	d="
M759.000000,97.000000 
	C759.000000,104.333336 759.000000,111.666664 759.000000,119.000000 
"/>
<path fill="none" opacity="1.000000" stroke="#000000" stroke-linecap="round" stroke-linejoin="round" stroke-width="5.000000"
	d="
M860.000000,97.000000 
	C860.000000,104.333336 860.000000,111.666664 860.000000,119.000000 
"/>
<path fill="none" opacity="1.000000" stroke="#000000" stroke-linecap="round" stroke-linejoin="round" stroke-width="5.000000"
	d="
M1126.000000,88.000000 
	C1120.930664,88.427528 1120.029907,89.283203 1120.009888,94.000046 
	C1119.974609,102.333229 1120.000000,110.666664 1120.000000,119.000000 
"/>
<path fill="none" opacity="1.000000" stroke="#000000" stroke-linecap="round" stroke-linejoin="round" stroke-width="5.000000"
	d="
M1482.500000,98.000000 
	C1476.000000,98.000000 1469.500000,98.000000 1463.000000,98.000000 
"/>
<path fill="none" opacity="1.000000" stroke="#000000" stroke-linecap="round" stroke-linejoin="round" stroke-width="5.000000"
	d="
M307.000000,93.000000 
	C307.000000,100.333336 307.000000,107.666664 307.000000,115.000000 
"/>
<path fill="none" opacity="1.000000" stroke="#000000" stroke-linecap="round" stroke-linejoin="round" stroke-width="5.000000"
	d="
M1396.500000,92.500000 
	C1397.657593,99.977982 1396.688354,107.503220 1397.000000,115.000000 
"/>
<path fill="none" opacity="1.000000" stroke="#000000" stroke-linecap="round" stroke-linejoin="round" stroke-width="5.000000"
	d="
M1522.000000,93.000000 
	C1522.000000,100.333336 1522.000000,107.666664 1522.000000,115.000000 
"/>
<path fill="none" opacity="1.000000" stroke="#000000" stroke-linecap="round" stroke-linejoin="round" stroke-width="5.000000"
	d="
M1589.000000,93.000000 
	C1589.000000,100.333336 1589.000000,107.666664 1589.000000,115.000000 
"/>
<path fill="none" opacity="1.000000" stroke="#000000" stroke-linecap="round" stroke-linejoin="round" stroke-width="5.000000"
	d="
M1076.500000,96.500000 
	C1075.000000,97.782776 1073.451538,96.156013 1072.009766,96.536858 
	C1068.641968,97.426407 1066.010376,101.249039 1066.002441,105.000008 
	C1065.992432,109.666649 1066.000000,114.333336 1066.000000,119.000000 
"/>
<path fill="none" opacity="1.000000" stroke="#000000" stroke-linecap="round" stroke-linejoin="round" stroke-width="5.000000"
	d="
M1012.000000,88.000000 
	C1012.000000,98.333336 1012.000000,108.666664 1012.000000,119.000000 
"/>
<path fill="none" opacity="1.000000" stroke="#000000" stroke-linecap="round" stroke-linejoin="round" stroke-width="5.000000"
	d="
M668.000000,97.000000 
	C668.000000,104.333336 668.000000,111.666664 668.000000,119.000000 
"/>
<path fill="none" opacity="1.000000" stroke="#000000" stroke-linecap="round" stroke-linejoin="round" stroke-width="5.000000"
	d="
M373.500000,92.500000 
	C374.657623,99.977982 373.688324,107.503220 374.000000,115.000000 
"/>
<path fill="none" opacity="1.000000" stroke="#000000" stroke-linecap="round" stroke-linejoin="round" stroke-width="5.000000"
	d="
M172.000000,93.000000 
	C172.000000,100.333336 172.000000,107.666664 172.000000,115.000000 
"/>
<path fill="none" opacity="1.000000" stroke="#000000" stroke-linecap="round" stroke-linejoin="round" stroke-width="4.000000"
	d="
M1511.500000,92.500000 
	C1511.500000,100.166664 1511.500000,107.833336 1511.500000,115.500000 
"/>
<path fill="none" opacity="1.000000" stroke="#000000" stroke-linecap="round" stroke-linejoin="round" stroke-width="5.000000"
	d="
M308.000000,96.000000 
	C309.940521,96.138168 310.660980,94.291908 312.025238,93.546143 
	C317.023743,90.813759 322.026276,94.119102 322.003906,100.000015 
	C321.984863,104.999939 322.000000,110.000000 322.000000,115.000000 
"/>
<path fill="none" opacity="1.000000" stroke="#000000" stroke-linecap="round" stroke-linejoin="round" stroke-width="5.000000"
	d="
M1523.000000,96.000000 
	C1525.310791,96.216942 1526.443481,94.023804 1528.460815,93.377670 
	C1533.309326,91.824753 1536.973145,93.980316 1536.994873,99.000023 
	C1537.018066,104.333260 1537.000000,109.666664 1537.000000,115.000000 
"/>
<path fill="none" opacity="1.000000" stroke="#000000" stroke-linecap="round" stroke-linejoin="round" stroke-width="5.000000"
	d="
M1484.000000,84.000000 
	C1484.000000,94.333336 1484.000000,104.666664 1484.000000,115.000000 
"/>
<path fill="none" opacity="1.000000" stroke="#000000" stroke-linecap="round" stroke-linejoin="round" stroke-width="5.000000"
	d="
M1462.000000,84.000000 
	C1462.000000,94.333336 1462.000000,104.666664 1462.000000,115.000000 
"/>
<path fill="none" opacity="1.000000" stroke="#000000" stroke-linecap="round" stroke-linejoin="round" stroke-width="5.000000"
	d="
M627.000000,103.000000 
	C622.000000,103.000000 617.000000,103.000000 612.000000,103.000000 
"/>
<path fill="none" opacity="1.000000" stroke="#000000" stroke-linecap="round" stroke-linejoin="round" stroke-width="4.000000"
	d="
M1125.500000,96.500000 
	C1122.500000,96.348824 1119.500000,97.718124 1116.500000,96.500000 
"/>
<path fill="none" opacity="1.000000" stroke="#000000" stroke-linecap="round" stroke-linejoin="round" stroke-width="4.000000"
	d="
M1004.500000,96.500000 
	C1001.833313,96.590164 999.166687,97.587456 996.500000,96.500000 
"/>
<path fill="none" opacity="1.000000" stroke="#000000" stroke-linecap="round" stroke-linejoin="round" stroke-width="4.000000"
	d="
M288.000000,92.500000 
	C279.109009,95.755814 275.660675,105.848839 281.559631,111.942261 
	C283.997223,114.460243 286.984100,116.475586 291.010010,115.027863 
	C295.103943,113.555687 297.545685,110.668327 297.934387,106.493889 
	C298.577820,99.583420 297.418396,94.144539 288.500000,92.500000 
"/>
<path fill="none" opacity="1.000000" stroke="#000000" stroke-linecap="round" stroke-linejoin="round" stroke-width="4.000000"
	d="
M777.000000,96.500000 
	C768.109009,99.755814 764.660706,109.848824 770.559631,115.942284 
	C772.997192,118.460236 775.984070,120.475548 780.010010,119.027824 
	C784.103882,117.555649 786.545654,114.668335 786.934387,110.493889 
	C787.577759,103.583443 786.418396,98.144547 777.500000,96.500000 
"/>
<path fill="none" opacity="1.000000" stroke="#000000" stroke-linecap="round" stroke-linejoin="round" stroke-width="4.000000"
	d="
M979.000000,96.500000 
	C973.122742,98.359596 970.372620,102.155319 970.928589,108.506256 
	C971.280945,112.532425 971.631470,115.942642 975.936218,118.125809 
	C979.862366,120.116959 982.830994,119.497955 986.015625,117.020119 
	C989.706238,114.148674 990.513916,110.083794 989.881165,106.018501 
	C989.006592,100.399681 985.489563,96.915024 979.500000,96.500000 
"/>
<path fill="none" opacity="1.000000" stroke="#000000" stroke-linecap="round" stroke-linejoin="round" stroke-width="4.000000"
	d="
M1092.500000,88.000000 
	C1084.565186,89.580460 1081.706421,95.467331 1081.118896,102.509918 
	C1080.603760,108.685081 1082.688721,114.199776 1088.507935,117.485863 
	C1097.559204,122.596893 1108.952637,115.910263 1108.992065,105.499969 
	C1109.006958,101.556770 1109.560791,97.487213 1106.992798,94.005325 
	C1103.511719,89.285454 1098.788696,87.382034 1093.000000,88.000000 
"/>
</svg>