<svg version="1.1" id="Layer_1" xmlns="http://www.w3.org/2000/svg" xmlns:xlink="http://www.w3.org/1999/xlink" x="0px" y="0px"
	 width="100%" viewBox="0 0 807 928" enable-background="new 0 0 807 928" xml:space="preserve">
<path fill="none" opacity="1.000000" stroke="#000000" stroke-linecap="round" stroke-linejoin="round" stroke-width="4.000000"
	d="
M764.000000,192.000000 
	C760.488281,187.760742 755.067078,187.084503 750.451904,185.112503 
	C724.551697,174.045685 698.524292,163.274643 672.493896,152.514801 
	C639.685913,138.953445 606.700684,125.811256 574.045166,111.893974 
	C551.090759,102.111130 528.035706,92.582306 505.008789,82.978897 
	C480.041290,72.566147 455.180878,61.903019 430.059723,51.850731 
	C423.159668,49.089657 416.227966,46.240482 409.498138,43.003853 
	C408.010773,42.288513 406.949158,41.984726 404.932678,42.841599 
	C374.196136,55.902679 343.356140,68.721779 312.493774,81.484962 
	C279.688110,95.051834 246.700684,108.188744 214.045197,122.106041 
	C191.090790,131.888885 168.035721,141.417740 145.008820,151.021133 
	C120.041290,161.433868 95.208206,172.163483 70.047661,182.120438 
	C64.167015,184.447617 58.423595,187.206589 52.520672,189.552032 
	C51.486145,189.963058 50.188686,190.522018 50.000000,192.000000 
"/>
<path fill="none" opacity="1.000000" stroke="#000000" stroke-linecap="round" stroke-linejoin="round" stroke-width="4.000000"
	d="
M43.500000,735.000000 
	C50.359215,734.007874 55.268250,738.782776 60.968941,741.077148 
	C88.704254,752.239929 116.476959,763.331421 143.955597,775.103638 
	C166.892548,784.930054 189.964279,794.417725 212.991196,804.021118 
	C237.958694,814.433899 262.858551,825.000061 287.961792,835.095032 
	C311.307465,844.483154 334.304565,854.735229 357.509979,864.476257 
	C373.291046,871.100708 389.197632,877.427002 404.954559,884.107239 
	C406.625336,884.815491 407.372955,884.807617 409.043549,884.103333 
	C439.817413,871.128906 470.643890,858.278259 501.506226,845.515076 
	C534.311890,831.948181 567.299377,818.811279 599.954834,804.894043 
	C622.909241,795.111145 645.964294,785.582336 668.991211,775.978943 
	C693.958740,765.566162 718.848633,754.972656 743.919983,744.802673 
	C750.695129,742.054443 757.916931,739.927795 764.026855,735.537354 
	C765.946777,734.157654 768.345398,735.323242 770.500000,735.000000 
"/>
<path fill="none" opacity="1.000000" stroke="#000000" stroke-linecap="round" stroke-linejoin="round" stroke-width="4.000000"
	d="
M50.000000,735.000000 
	C53.511745,730.760742 58.932915,730.084473 63.548061,728.112488 
	C89.448303,717.045654 115.475739,706.274658 141.506134,695.514832 
	C174.314087,681.953430 207.299332,668.811279 239.954834,654.893982 
	C262.909210,645.111206 285.964264,635.582275 308.991211,625.978943 
	C333.958710,615.566101 358.816528,604.897095 383.947693,594.868958 
	C391.837494,591.720642 399.565277,588.095032 407.500000,585.000000 
	C415.000000,588.333374 422.429291,591.838013 430.013123,594.968262 
	C453.643982,604.721619 477.378143,614.225403 500.987762,624.029480 
	C525.971008,634.403931 550.955688,644.777161 575.933105,655.160828 
	C598.967834,664.736816 621.964294,674.417725 644.991211,684.021057 
	C669.958740,694.433838 694.896851,704.912415 719.932861,715.164001 
	C733.672119,720.789917 747.374329,726.570374 761.011536,732.473389 
	C762.315369,733.037781 763.528015,733.533020 764.000000,735.000000 
"/>
<path fill="none" opacity="1.000000" stroke="#000000" stroke-linecap="round" stroke-linejoin="round" stroke-width="4.000000"
	d="
M43.500000,192.000000 
	C50.359215,191.007843 55.268288,195.782669 60.968979,198.077072 
	C88.704277,209.239883 116.476952,220.331421 143.955612,232.103607 
	C166.892563,241.930069 189.964279,251.417725 212.991196,261.021118 
	C237.958710,271.433868 262.955658,281.777130 287.933167,292.160797 
	C310.967804,301.736755 333.951263,311.448669 356.993011,321.016815 
	C372.030029,327.260956 387.001282,333.663605 401.998230,340.004181 
	C403.712463,340.728943 405.402313,341.511444 406.800964,342.132751 
	C416.891205,337.911835 426.952454,333.722168 436.998474,329.496307 
	C454.004028,322.342896 470.965393,315.083130 488.008759,308.021149 
	C509.138733,299.265930 530.354309,290.717468 551.492798,281.982544 
	C566.196899,275.906403 580.799255,269.584106 595.508057,263.519592 
	C616.997009,254.659546 638.403687,245.602997 659.932495,236.834320 
	C674.170166,231.035370 688.309814,224.944916 702.495544,218.989380 
	C721.846680,210.865204 741.183777,202.706650 760.483337,194.460953 
	C763.727478,193.074860 766.756958,191.194595 770.500000,192.000000 
"/>
<path fill="none" opacity="1.000000" stroke="#000000" stroke-linecap="round" stroke-linejoin="round" stroke-width="4.000000"
	d="
M452.500000,214.000000 
	C450.812744,213.895493 449.978363,212.546051 449.018280,211.483490 
	C445.422089,207.503616 439.087982,205.723984 434.500000,207.499985 
	C429.545380,209.417923 426.000977,214.499741 426.027710,219.999863 
	C426.049683,224.528183 425.432251,229.031128 428.922852,233.066742 
	C435.555908,240.735474 444.918823,239.813721 451.000000,230.500000 
"/>
<path fill="none" opacity="1.000000" stroke="#000000" stroke-linecap="round" stroke-linejoin="round" stroke-width="5.000000"
	d="
M433.000000,164.000000 
	C437.000000,164.000000 441.002930,164.096878 444.999298,163.976654 
	C450.613220,163.807770 454.000000,160.538223 454.000000,155.500000 
	C454.000000,150.210312 450.893372,147.202408 444.999268,147.024384 
	C440.830139,146.898453 436.654144,147.000000 432.000000,147.000000 
	C432.000000,157.661209 432.000000,167.830597 432.000000,178.000000 
"/>
<path fill="none" opacity="1.000000" stroke="#000000" stroke-linecap="round" stroke-linejoin="round" stroke-width="5.000000"
	d="
M365.000000,764.000000 
	C369.000000,764.000000 373.002930,764.096863 376.999298,763.976624 
	C382.613220,763.807678 386.000000,760.538208 386.000000,755.500000 
	C386.000000,750.210327 382.893372,747.202393 376.999268,747.024353 
	C372.830139,746.898438 368.654144,747.000000 364.000000,747.000000 
	C364.000000,757.661194 364.000000,767.830627 364.000000,778.000000 
"/>
<path fill="none" opacity="1.000000" stroke="#000000" stroke-linecap="round" stroke-linejoin="round" stroke-width="5.000000"
	d="
M433.000000,704.000000 
	C437.000000,704.000000 441.002930,704.096863 444.999298,703.976624 
	C450.613220,703.807739 454.000000,700.538208 454.000000,695.500000 
	C454.000000,690.210327 450.893372,687.202393 444.999268,687.024353 
	C440.830139,686.898438 436.654144,687.000000 432.000000,687.000000 
	C432.000000,697.661194 432.000000,707.830627 432.000000,718.000000 
"/>
<path fill="none" opacity="1.000000" stroke="#000000" stroke-linecap="round" stroke-linejoin="round" stroke-width="4.000000"
	d="
M288.500000,478.500000 
	C288.562103,474.879822 287.437836,471.818634 284.510620,469.486664 
	C281.354340,466.972229 277.677216,466.912933 274.564758,468.618195 
	C269.040741,471.644592 269.705597,477.342926 270.069763,482.495056 
	C270.360168,486.603363 273.048920,488.917694 276.990540,490.033386 
	C281.381317,491.276215 286.715302,488.232880 287.989807,483.497253 
	C288.388733,482.014893 288.666687,480.500000 289.000031,479.000000 
"/>
<path fill="none" opacity="1.000000" stroke="#000000" stroke-linecap="round" stroke-linejoin="round" stroke-width="4.000000"
	d="
M305.000000,759.500000 
	C300.925079,755.223450 296.695557,754.342224 293.000000,757.000000 
	C289.459625,759.546021 289.600189,762.760864 293.525513,764.954346 
	C295.206482,765.893677 297.120667,766.551331 299.010559,766.949951 
	C301.986145,767.577515 305.188629,767.874695 305.924500,771.515259 
	C306.292206,773.334595 306.118866,775.091797 304.075165,776.601685 
	C300.554657,779.202698 297.051208,778.762756 293.538879,777.399780 
	C292.084473,776.835449 291.023834,775.190430 290.500000,773.500000 
"/>
<path fill="none" opacity="1.000000" stroke="#000000" stroke-linecap="round" stroke-linejoin="round" stroke-width="4.000000"
	d="
M325.000000,219.500000 
	C320.925079,215.223465 316.695587,214.342316 313.000000,217.000015 
	C309.459656,219.546066 309.600159,222.760941 313.525482,224.954407 
	C315.206451,225.893738 317.120697,226.551285 319.010559,226.949875 
	C321.986145,227.577469 325.188660,227.874695 325.924530,231.515259 
	C326.292267,233.334595 326.118866,235.091797 324.075165,236.601746 
	C320.554688,239.202774 317.051178,238.762741 313.538879,237.399826 
	C312.084442,236.835495 311.023834,235.190445 310.500000,233.500000 
"/>
<path fill="none" opacity="1.000000" stroke="#000000" stroke-linecap="round" stroke-linejoin="round" stroke-width="4.000000"
	d="
M353.000000,759.500000 
	C348.925079,755.223450 344.695557,754.342224 341.000000,757.000000 
	C337.459625,759.546021 337.600189,762.760864 341.525513,764.954346 
	C343.206482,765.893677 345.120697,766.551270 347.010559,766.949890 
	C349.986145,767.577515 353.188629,767.874695 353.924500,771.515259 
	C354.292236,773.334595 354.118835,775.091736 352.075104,776.601685 
	C348.554626,779.202698 345.051208,778.762756 341.538879,777.399780 
	C340.084473,776.835449 339.023834,775.190430 338.500000,773.500000 
"/>
<path fill="none" opacity="1.000000" stroke="#000000" stroke-linecap="round" stroke-linejoin="round" stroke-width="4.000000"
	d="
M409.500000,160.500000 
	C408.133606,156.752914 404.976959,155.205765 401.518951,155.648193 
	C397.721649,156.134033 394.592529,158.277222 393.470856,162.492249 
	C392.362000,166.659058 392.656738,170.899460 394.626373,174.429489 
	C398.155243,180.754089 406.288025,179.566681 410.000000,172.500000 
"/>
<path fill="none" opacity="1.000000" stroke="#000000" stroke-linecap="round" stroke-linejoin="round" stroke-width="4.000000"
	d="
M409.500000,700.500000 
	C408.133606,696.752930 404.976959,695.205750 401.518951,695.648132 
	C397.721649,696.134033 394.592468,698.277222 393.470795,702.492249 
	C392.361908,706.659058 392.656738,710.899414 394.626343,714.429504 
	C398.155212,720.754089 406.288025,719.566650 410.000000,712.500000 
"/>
<path fill="none" opacity="1.000000" stroke="#000000" stroke-linecap="round" stroke-linejoin="round" stroke-width="4.000000"
	d="
M417.000000,478.000000 
	C424.211609,479.360260 431.887909,478.720581 435.093872,476.433014 
	C433.633270,474.185760 434.010651,471.196533 431.063141,469.396606 
	C425.019989,465.706360 418.235687,468.436005 416.999969,475.500000 
	C415.463287,484.284332 417.157288,487.889526 424.006348,489.979218 
	C428.556671,491.367584 431.635376,489.152679 434.000000,485.500000 
"/>
<path fill="none" opacity="1.000000" stroke="#000000" stroke-linecap="round" stroke-linejoin="round" stroke-width="4.000000"
	d="
M367.000000,166.000000 
	C374.211609,167.360275 381.887909,166.720581 385.093872,164.433014 
	C383.633270,162.185760 384.010651,159.196533 381.063141,157.396622 
	C375.019989,153.706345 368.235687,156.435989 367.000000,163.500000 
	C365.463287,172.284348 367.157288,175.889511 374.006348,177.979218 
	C378.556671,179.367538 381.635376,177.152695 384.000000,173.500000 
"/>
<path fill="none" opacity="1.000000" stroke="#000000" stroke-linecap="round" stroke-linejoin="round" stroke-width="4.000000"
	d="
M367.000000,706.000000 
	C374.211578,707.360291 381.887909,706.720581 385.093872,704.433044 
	C383.633270,702.185730 384.010651,699.196533 381.063141,697.396606 
	C375.019989,693.706360 368.235687,696.435974 366.999969,703.500000 
	C365.463287,712.284363 367.157288,715.889526 374.006348,717.979187 
	C378.556671,719.367554 381.635376,717.152710 384.000000,713.500000 
"/>
<path fill="none" opacity="1.000000" stroke="#000000" stroke-linecap="round" stroke-linejoin="round" stroke-width="4.000000"
	d="
M484.000000,478.000000 
	C489.583344,479.023376 495.166656,478.236450 500.717896,478.578491 
	C501.076202,472.120789 497.557831,467.642822 492.500000,467.499969 
	C486.984253,467.344177 483.922821,471.252869 483.355469,477.737366 
	C483.069702,481.003082 483.052551,483.941254 485.036041,486.471771 
	C489.642120,492.348114 496.448364,491.656769 501.000000,485.000000 
"/>
<path fill="none" opacity="1.000000" stroke="#000000" stroke-linecap="round" stroke-linejoin="round" stroke-width="4.000000"
	d="
M330.000000,147.000000 
	C330.000000,154.333328 329.988892,161.666687 330.003601,169.000000 
	C330.014771,174.570511 331.094635,175.961929 337.001770,177.994888 
	C341.218628,179.446152 343.918091,176.744415 345.898743,173.928772 
	C348.722076,169.915176 347.670593,160.573212 344.110657,157.855057 
	C340.898224,155.402237 338.271423,155.168076 334.987274,156.976898 
	C333.686096,157.693558 332.753387,159.173447 331.000000,159.000000 
"/>
<path fill="none" opacity="1.000000" stroke="#000000" stroke-linecap="round" stroke-linejoin="round" stroke-width="4.000000"
	d="
M438.000000,766.000000 
	C443.583344,767.023376 449.166656,766.236450 454.717896,766.578491 
	C455.076202,760.120789 451.557831,755.642883 446.500000,755.500000 
	C440.984253,755.344177 437.922821,759.252869 437.355469,765.737366 
	C437.069702,769.003113 437.052551,771.941223 439.036041,774.471741 
	C443.642120,780.348083 450.448364,779.656738 455.000000,773.000000 
"/>
<path fill="none" opacity="1.000000" stroke="#000000" stroke-linecap="round" stroke-linejoin="round" stroke-width="4.000000"
	d="
M330.000000,687.000000 
	C330.000000,694.333313 329.988892,701.666687 330.003601,709.000000 
	C330.014771,714.570496 331.094666,715.961853 337.001770,717.994873 
	C341.218658,719.446106 343.918060,716.744385 345.898712,713.928772 
	C348.722046,709.915161 347.670563,700.573181 344.110687,697.855042 
	C340.898224,695.402283 338.271454,695.168213 334.987305,696.976929 
	C333.686127,697.693604 332.753387,699.173462 331.000000,699.000000 
"/>
<path fill="none" opacity="1.000000" stroke="#000000" stroke-linecap="round" stroke-linejoin="round" stroke-width="4.000000"
	d="
M533.000000,706.000000 
	C537.469666,706.986328 542.006226,706.520081 546.498352,706.423889 
	C549.691956,706.355591 551.119812,703.169617 549.500000,700.500000 
	C547.782410,697.669312 541.907471,694.512329 539.525818,695.558716 
	C534.621338,697.713562 531.771606,699.549133 532.469788,705.753418 
	C532.683044,707.648132 531.708923,709.389587 532.389160,711.535156 
	C534.730469,718.920166 542.304077,720.726562 548.000183,715.000183 
	C548.665100,714.331787 549.333313,713.666626 549.999939,712.999939 
"/>
<path fill="none" opacity="1.000000" stroke="#000000" stroke-linecap="round" stroke-linejoin="round" stroke-width="4.000000"
	d="
M533.000000,166.000000 
	C537.469666,166.986328 542.006226,166.520004 546.498352,166.423843 
	C549.691956,166.355469 551.119812,163.169617 549.500000,160.500000 
	C547.782471,157.669266 541.907471,154.512390 539.525818,155.558792 
	C534.621338,157.713638 531.771545,159.549149 532.469727,165.753403 
	C532.682983,167.648102 531.708984,169.389618 532.389160,171.535141 
	C534.730469,178.920151 542.304077,180.726547 548.000244,175.000229 
	C548.665100,174.331772 549.333313,173.666656 550.000000,173.000000 
"/>
<path fill="none" opacity="1.000000" stroke="#000000" stroke-linecap="round" stroke-linejoin="round" stroke-width="4.000000"
	d="
M523.500000,219.000000 
	C522.472168,218.555679 521.450623,218.225372 520.458435,217.562210 
	C514.853149,213.815918 508.347229,217.195755 508.035187,224.001617 
	C507.881500,227.354111 507.365997,230.937088 509.068420,233.961487 
	C511.881775,238.959564 516.155090,239.279373 523.500000,235.500000 
"/>
<path fill="none" opacity="1.000000" stroke="#000000" stroke-linecap="round" stroke-linejoin="round" stroke-width="5.000000"
	d="
M357.000000,696.000000 
	C357.000000,704.833313 356.883148,713.669006 357.058502,722.498840 
	C357.127045,725.950439 355.821930,727.934204 352.495270,728.470581 
	C350.549255,728.784424 351.911835,727.127441 351.500000,726.500000 
"/>
<path fill="none" opacity="1.000000" stroke="#000000" stroke-linecap="round" stroke-linejoin="round" stroke-width="5.000000"
	d="
M357.000000,156.000000 
	C357.000000,164.833328 356.883148,173.668991 357.058502,182.498840 
	C357.127045,185.950424 355.821930,187.934219 352.495270,188.470642 
	C350.549255,188.784409 351.911835,187.127411 351.500000,186.500000 
"/>
<path fill="none" opacity="1.000000" stroke="#000000" stroke-linecap="round" stroke-linejoin="round" stroke-width="4.000000"
	d="
M640.500000,153.500000 
	C646.153687,157.322830 653.215027,158.478577 659.156311,163.034454 
	C653.184875,167.283722 646.217041,168.067413 640.500000,171.500000 
"/>
<path fill="none" opacity="1.000000" stroke="#000000" stroke-linecap="round" stroke-linejoin="round" stroke-width="4.000000"
	d="
M612.500000,153.500000 
	C618.153687,157.322830 625.215027,158.478577 631.156311,163.034454 
	C625.184875,167.283722 618.217041,168.067413 612.500000,171.500000 
"/>
<path fill="none" opacity="1.000000" stroke="#000000" stroke-linecap="round" stroke-linejoin="round" stroke-width="4.000000"
	d="
M640.500000,693.500000 
	C646.153687,697.322815 653.215027,698.478577 659.156311,703.034424 
	C653.184875,707.283691 646.217041,708.067444 640.500000,711.500000 
"/>
<path fill="none" opacity="1.000000" stroke="#000000" stroke-linecap="round" stroke-linejoin="round" stroke-width="4.000000"
	d="
M612.500000,693.500000 
	C618.153687,697.322815 625.215027,698.478577 631.156311,703.034424 
	C625.184875,707.283691 618.217041,708.067444 612.500000,711.500000 
"/>
<path fill="none" opacity="1.000000" stroke="#000000" stroke-linecap="round" stroke-linejoin="round" stroke-width="4.000000"
	d="
M416.000000,220.000000 
	C412.175842,215.628876 409.704437,214.322968 404.491821,216.480209 
	C402.403137,217.344589 401.124359,219.004028 401.117981,221.000381 
	C401.112000,222.876450 402.167786,224.555115 404.489716,225.048431 
	C406.538849,225.483765 408.469421,226.453430 410.507111,226.972046 
	C413.618164,227.763840 416.889313,228.530869 416.926605,232.500687 
	C416.961121,236.174606 413.845856,237.090302 410.999908,237.999710 
	C406.272736,239.510223 403.081879,237.662201 401.500000,232.500000 
"/>
<path fill="none" opacity="1.000000" stroke="#000000" stroke-linecap="round" stroke-linejoin="round" stroke-width="4.000000"
	d="
M474.000000,472.000000 
	C470.175934,467.628967 467.704559,466.322968 462.491821,468.480225 
	C460.403168,469.344604 459.124359,471.004059 459.117981,473.000366 
	C459.112000,474.876465 460.167786,476.555084 462.489716,477.048401 
	C464.538849,477.483765 466.469421,478.453491 468.507111,478.972046 
	C471.618164,479.763855 474.889343,480.530853 474.926636,484.500702 
	C474.961151,488.174622 471.845856,489.090332 468.999908,489.999695 
	C464.272705,491.510223 461.081848,489.662201 459.500000,484.500000 
"/>
<path fill="none" opacity="1.000000" stroke="#000000" stroke-linecap="round" stroke-linejoin="round" stroke-width="4.000000"
	d="
M410.000000,766.000000 
	C406.833344,766.500000 403.673492,767.049561 400.498199,767.487000 
	C396.821808,767.993347 393.515686,770.996948 394.000000,773.500000 
	C394.549774,776.341248 399.921478,779.325562 403.000031,778.500061 
	C410.000244,776.622803 411.642700,774.198425 410.918854,766.507629 
	C410.881927,766.115051 410.788422,765.964111 410.927795,765.479248 
	C412.016785,761.690247 412.076172,758.292236 407.516205,756.459656 
	C403.162048,754.709900 399.322357,755.321533 396.059296,759.051880 
	C395.274567,759.948975 394.855469,760.870239 393.500000,760.500000 
"/>
<path fill="none" opacity="1.000000" stroke="#000000" stroke-linecap="round" stroke-linejoin="round" stroke-width="4.000000"
	d="
M390.000000,226.000000 
	C386.833344,226.500000 383.673492,227.049606 380.498199,227.487000 
	C376.821808,227.993408 373.515656,230.996948 374.000000,233.500000 
	C374.549744,236.341263 379.921478,239.325562 383.000000,238.500031 
	C390.000244,236.622833 391.642761,234.198425 390.918884,226.507629 
	C390.881958,226.115036 390.788452,225.964127 390.927826,225.479248 
	C392.016815,221.690262 392.076172,218.292206 387.516205,216.459702 
	C383.162018,214.709900 379.322357,215.321548 376.059326,219.051895 
	C375.274597,219.948975 374.855469,220.870224 373.500000,220.500000 
"/>
<path fill="none" opacity="1.000000" stroke="#000000" stroke-linecap="round" stroke-linejoin="round" stroke-width="5.000000"
	d="
M281.000000,778.000000 
	C281.000000,773.500000 281.016235,768.999939 280.996399,764.500000 
	C280.961731,756.629211 275.840973,753.676208 268.976105,757.456604 
	C267.889435,758.055054 267.013885,759.310181 265.500000,759.000000 
"/>
<path fill="none" opacity="1.000000" stroke="#000000" stroke-linecap="round" stroke-linejoin="round" stroke-width="5.000000"
	d="
M301.000000,238.000000 
	C301.000000,233.500000 301.016235,228.999924 300.996399,224.500015 
	C300.961700,216.629196 295.840973,213.676193 288.976105,217.456589 
	C287.889435,218.054993 287.013885,219.310165 285.500000,219.000000 
"/>
<path fill="none" opacity="1.000000" stroke="#000000" stroke-linecap="round" stroke-linejoin="round" stroke-width="5.000000"
	d="
M481.000000,778.000000 
	C481.000000,773.166687 481.015442,768.333252 480.996338,763.500000 
	C480.968994,756.582642 476.113861,753.735291 469.990662,756.982361 
	C468.676147,757.679382 467.753387,759.173462 466.000000,759.000000 
"/>
<path fill="none" opacity="1.000000" stroke="#000000" stroke-linecap="round" stroke-linejoin="round" stroke-width="5.000000"
	d="
M477.000000,238.000000 
	C477.000000,233.166672 477.015411,228.333267 476.996307,223.500015 
	C476.968964,216.582626 472.113892,213.735352 465.990631,216.982330 
	C464.676147,217.679352 463.753387,219.173447 462.000000,219.000000 
"/>
<path fill="none" opacity="1.000000" stroke="#000000" stroke-linecap="round" stroke-linejoin="round" stroke-width="5.000000"
	d="
M365.000000,238.000000 
	C365.000000,233.500000 364.886749,228.996201 365.037476,224.501251 
	C365.148651,221.185593 364.348328,218.187973 361.451752,216.587326 
	C358.362854,214.880432 355.187866,215.416595 352.467224,217.965012 
	C351.857025,218.536560 350.833344,218.666656 350.000000,218.999985 
"/>
<path fill="none" opacity="1.000000" stroke="#000000" stroke-linecap="round" stroke-linejoin="round" stroke-width="5.000000"
	d="
M383.000000,490.000000 
	C383.000000,485.166656 383.015411,480.333282 382.996307,475.500000 
	C382.968964,468.582642 378.113892,465.735382 371.990631,468.982330 
	C370.676147,469.679352 369.753387,471.173462 368.000000,471.000000 
"/>
<path fill="none" opacity="1.000000" stroke="#000000" stroke-linecap="round" stroke-linejoin="round" stroke-width="5.000000"
	d="
M332.000000,459.000000 
	C332.000000,469.333344 332.000000,479.666656 332.000000,490.000000 
"/>
<path fill="none" opacity="1.000000" stroke="#000000" stroke-linecap="round" stroke-linejoin="round" stroke-width="5.000000"
	d="
M269.000000,687.000000 
	C269.000000,697.333313 269.000000,707.666687 269.000000,718.000000 
"/>
<path fill="none" opacity="1.000000" stroke="#000000" stroke-linecap="round" stroke-linejoin="round" stroke-width="5.000000"
	d="
M498.000000,207.000000 
	C498.000000,217.333328 498.000000,227.666672 498.000000,238.000000 
"/>
<path fill="none" opacity="1.000000" stroke="#000000" stroke-linecap="round" stroke-linejoin="round" stroke-width="5.000000"
	d="
M269.000000,147.000000 
	C269.000000,157.333328 269.000000,167.666672 269.000000,178.000000 
"/>
<path fill="none" opacity="1.000000" stroke="#000000" stroke-linecap="round" stroke-linejoin="round" stroke-width="4.000000"
	d="
M424.000000,380.500000 
	C420.000000,372.666656 415.856628,364.901520 412.081482,356.961273 
	C410.840393,354.350891 409.736877,352.209930 406.502014,352.520844 
	C403.849396,352.775757 402.983612,354.778076 401.928802,356.965668 
	C398.109650,364.886200 394.000000,372.666687 390.000000,380.500000 
"/>
<path fill="none" opacity="1.000000" stroke="#000000" stroke-linecap="round" stroke-linejoin="round" stroke-width="4.000000"
	d="
M424.000000,547.000000 
	C418.167206,555.966980 415.640686,566.917725 408.280273,574.968140 
	C407.853516,574.821899 407.426758,574.675598 407.000000,574.529297 
	C407.000000,571.686218 407.000000,568.843079 407.000000,566.000000 
"/>
<path fill="none" opacity="1.000000" stroke="#000000" stroke-linecap="round" stroke-linejoin="round" stroke-width="4.000000"
	d="
M390.000000,547.000000 
	C393.666687,554.166687 397.300232,561.350525 401.018921,568.490173 
	C402.236115,570.827148 402.834808,573.800659 406.005249,574.475342 
	C407.787262,574.854553 406.913910,576.149292 406.956116,577.002197 
	C407.079498,579.496094 407.000000,582.000000 407.000000,584.500000 
"/>
<path fill="none" opacity="1.000000" stroke="#000000" stroke-linecap="round" stroke-linejoin="round" stroke-width="5.000000"
	d="
M420.000000,147.500000 
	C418.831085,149.360733 418.988586,151.437927 418.994690,153.500015 
	C419.010529,158.833298 419.000000,164.166672 419.000000,169.500000 
	C419.000000,176.662079 419.000000,176.662079 425.500000,179.000000 
"/>
<path fill="none" opacity="1.000000" stroke="#000000" stroke-linecap="round" stroke-linejoin="round" stroke-width="5.000000"
	d="
M420.000000,687.500000 
	C418.831085,689.360718 418.988586,691.437927 418.994690,693.500000 
	C419.010498,698.833252 419.000000,704.166687 419.000000,709.500000 
	C419.000000,716.662048 419.000000,716.662048 425.500000,719.000000 
"/>
<path fill="none" opacity="1.000000" stroke="#000000" stroke-linecap="round" stroke-linejoin="round" stroke-width="4.000000"
	d="
M493.000000,747.500000 
	C491.885315,756.482422 492.776825,765.501770 492.512604,774.500366 
	C492.411438,777.944763 495.315979,777.813354 497.500000,778.500000 
"/>
<path fill="none" opacity="1.000000" stroke="#000000" stroke-linecap="round" stroke-linejoin="round" stroke-width="4.000000"
	d="
M577.000000,687.500000 
	C575.841309,696.314636 576.719421,705.167725 576.559326,714.001099 
	C576.511597,716.636169 577.977844,718.379089 581.000000,718.000000 
"/>
<path fill="none" opacity="1.000000" stroke="#000000" stroke-linecap="round" stroke-linejoin="round" stroke-width="4.000000"
	d="
M577.000000,147.500000 
	C575.841309,156.314621 576.719421,165.167740 576.559326,174.001068 
	C576.511597,176.636200 577.977844,178.379105 581.000000,178.000000 
"/>
<path fill="none" opacity="1.000000" stroke="#000000" stroke-linecap="round" stroke-linejoin="round" stroke-width="4.000000"
	d="
M585.500000,695.000000 
	C588.395813,695.155090 588.200012,697.889343 588.903015,699.541260 
	C590.694519,703.750549 592.215942,708.109009 593.395996,712.527771 
	C593.882568,714.350037 594.885376,715.498779 596.000000,716.750000 
"/>
<path fill="none" opacity="1.000000" stroke="#000000" stroke-linecap="round" stroke-linejoin="round" stroke-width="4.000000"
	d="
M585.500000,155.000000 
	C588.395813,155.155106 588.199890,157.889374 588.902954,159.541306 
	C590.694458,163.750565 592.215942,168.108978 593.395996,172.527771 
	C593.882568,174.350021 594.885376,175.498795 596.000000,176.750000 
"/>
<path fill="none" opacity="1.000000" stroke="#000000" stroke-linecap="round" stroke-linejoin="round" stroke-width="4.000000"
	d="
M606.500000,695.000000 
	C605.888489,695.573547 604.831360,695.006775 604.414490,696.475708 
	C601.952026,705.153442 597.757690,713.218140 595.348267,721.958191 
	C594.592285,724.700623 593.170532,728.170837 589.000000,728.000000 
"/>
<path fill="none" opacity="1.000000" stroke="#000000" stroke-linecap="round" stroke-linejoin="round" stroke-width="4.000000"
	d="
M294.500000,467.500000 
	C297.244415,470.653534 297.276337,474.920227 298.196045,478.576447 
	C299.205109,482.587860 301.006012,486.164703 302.250000,490.000000 
"/>
<path fill="none" opacity="1.000000" stroke="#000000" stroke-linecap="round" stroke-linejoin="round" stroke-width="4.000000"
	d="
M606.500000,155.000000 
	C605.888489,155.573578 604.831360,155.006775 604.414429,156.475723 
	C601.951965,165.153427 597.757629,173.218094 595.348206,181.958145 
	C594.592163,184.700546 593.170532,188.170853 589.000000,188.000000 
"/>
<path fill="none" opacity="1.000000" stroke="#000000" stroke-linecap="round" stroke-linejoin="round" stroke-width="4.000000"
	d="
M487.500000,215.500000 
	C487.500000,223.166672 487.500000,230.833328 487.500000,238.500000 
"/>
<path fill="none" opacity="1.000000" stroke="#000000" stroke-linecap="round" stroke-linejoin="round" stroke-width="4.000000"
	d="
M262.500000,155.000000 
	C261.589172,155.422501 260.767395,155.413406 260.372864,156.967728 
	C259.039886,162.219101 257.034637,167.296692 255.584305,172.523392 
	C255.174789,173.999237 254.463425,175.002914 253.500000,176.000000 
"/>
<path fill="none" opacity="1.000000" stroke="#000000" stroke-linecap="round" stroke-linejoin="round" stroke-width="4.000000"
	d="
M262.500000,695.000000 
	C261.589172,695.422485 260.767365,695.413391 260.372833,696.967712 
	C259.039886,702.219116 257.034607,707.296692 255.584290,712.523376 
	C255.174789,713.999207 254.463425,715.002930 253.500000,716.000000 
"/>
<path fill="none" opacity="1.000000" stroke="#000000" stroke-linecap="round" stroke-linejoin="round" stroke-width="4.000000"
	d="
M507.000000,175.000000 
	C508.275696,174.948608 509.059753,175.811569 510.021881,176.467926 
	C514.704468,179.662567 520.163757,178.284042 522.412964,172.963211 
	C524.023865,169.152466 524.475281,165.003296 522.501648,160.999207 
	C519.739868,155.396179 515.170410,154.273880 510.017731,158.024353 
	C509.072754,158.712158 508.450317,159.900650 507.000000,159.500000 
"/>
<path fill="none" opacity="1.000000" stroke="#000000" stroke-linecap="round" stroke-linejoin="round" stroke-width="5.000000"
	d="
M329.000000,756.000000 
	C329.000000,763.333313 329.000000,770.666687 329.000000,778.000000 
"/>
<path fill="none" opacity="1.000000" stroke="#000000" stroke-linecap="round" stroke-linejoin="round" stroke-width="4.000000"
	d="
M507.000000,715.000000 
	C508.275696,714.948608 509.059723,715.811584 510.021851,716.467957 
	C514.704468,719.662659 520.163757,718.284058 522.412964,712.963196 
	C524.023865,709.152466 524.475220,705.003296 522.501587,700.999207 
	C519.739868,695.396240 515.170471,694.273987 510.017792,698.024414 
	C509.072815,698.712219 508.450317,699.900635 507.000000,699.500000 
"/>
<path fill="none" opacity="1.000000" stroke="#000000" stroke-linecap="round" stroke-linejoin="round" stroke-width="5.000000"
	d="
M356.000000,468.000000 
	C356.000000,475.333344 356.000000,482.666656 356.000000,490.000000 
"/>
<path fill="none" opacity="1.000000" stroke="#000000" stroke-linecap="round" stroke-linejoin="round" stroke-width="5.000000"
	d="
M549.500000,468.500000 
	C548.355896,475.643921 549.316589,482.836823 549.000000,490.000000 
"/>
<path fill="none" opacity="1.000000" stroke="#000000" stroke-linecap="round" stroke-linejoin="round" stroke-width="4.000000"
	d="
M391.500000,467.500000 
	C393.500000,472.833344 395.649902,478.117554 397.422028,483.525543 
	C398.078735,485.529572 398.750916,487.282776 400.500000,488.500000 
"/>
<path fill="none" opacity="1.000000" stroke="#000000" stroke-linecap="round" stroke-linejoin="round" stroke-width="5.000000"
	d="
M543.500000,756.500000 
	C542.355896,763.643921 543.316589,770.836792 543.000000,778.000000 
"/>
<path fill="none" opacity="1.000000" stroke="#000000" stroke-linecap="round" stroke-linejoin="round" stroke-width="4.000000"
	d="
M324.500000,467.500000 
	C321.917694,472.194794 321.410431,477.575500 319.671722,482.559906 
	C318.915619,484.727356 318.026215,486.453674 316.500000,488.000000 
"/>
<path fill="none" opacity="1.000000" stroke="#000000" stroke-linecap="round" stroke-linejoin="round" stroke-width="4.000000"
	d="
M409.500000,467.500000 
	C407.293854,471.057007 406.474762,475.160248 405.046631,479.017273 
	C403.653687,482.779358 402.533203,486.635559 400.250000,490.000000 
"/>
<path fill="none" opacity="1.000000" stroke="#000000" stroke-linecap="round" stroke-linejoin="round" stroke-width="4.000000"
	d="
M309.750000,468.000000 
	C312.426117,475.032898 313.267944,482.641663 316.500000,489.500000 
"/>
<path fill="none" opacity="1.000000" stroke="#000000" stroke-linecap="round" stroke-linejoin="round" stroke-width="4.000000"
	d="
M231.500000,155.500000 
	C233.166672,161.166672 234.941223,166.805603 236.410416,172.523026 
	C236.709991,173.688873 237.417526,174.216141 238.000000,175.000000 
"/>
<path fill="none" opacity="1.000000" stroke="#000000" stroke-linecap="round" stroke-linejoin="round" stroke-width="4.000000"
	d="
M198.000000,692.500000 
	C197.104630,695.490295 194.066299,695.381042 191.955887,696.409485 
	C187.802887,698.433228 183.360580,699.862366 179.261215,703.073059 
	C184.537384,707.425232 191.788300,707.923401 197.500000,711.500000 
"/>
<path fill="none" opacity="1.000000" stroke="#000000" stroke-linecap="round" stroke-linejoin="round" stroke-width="4.000000"
	d="
M170.000000,692.500000 
	C169.104630,695.490295 166.066360,695.381409 163.955826,696.409302 
	C159.802353,698.432251 155.361649,699.864563 151.260925,703.072815 
	C156.537384,707.425232 163.788300,707.923401 169.500000,711.500000 
"/>
<path fill="none" opacity="1.000000" stroke="#000000" stroke-linecap="round" stroke-linejoin="round" stroke-width="4.000000"
	d="
M231.500000,695.500000 
	C233.166656,701.166687 234.941223,706.805603 236.410416,712.523010 
	C236.709991,713.688843 237.417526,714.216125 238.000000,715.000000 
"/>
<path fill="none" opacity="1.000000" stroke="#000000" stroke-linecap="round" stroke-linejoin="round" stroke-width="4.000000"
	d="
M198.000000,152.500000 
	C197.104630,155.490280 194.066299,155.381012 191.955872,156.409439 
	C187.802872,158.433228 183.360580,159.862335 179.261215,163.073044 
	C184.537384,167.425217 191.788300,167.923401 197.500000,171.500000 
"/>
<path fill="none" opacity="1.000000" stroke="#000000" stroke-linecap="round" stroke-linejoin="round" stroke-width="4.000000"
	d="
M170.000000,152.500000 
	C169.104630,155.490280 166.066376,155.381409 163.955841,156.409348 
	C159.802383,158.432327 155.361649,159.864548 151.260925,163.072815 
	C156.537384,167.425217 163.788300,167.923401 169.500000,171.500000 
"/>
<path fill="none" opacity="1.000000" stroke="#000000" stroke-linecap="round" stroke-linejoin="round" stroke-width="4.000000"
	d="
M463.500000,695.500000 
	C464.492584,703.166687 462.971924,710.833313 463.500000,718.500000 
"/>
<path fill="none" opacity="1.000000" stroke="#000000" stroke-linecap="round" stroke-linejoin="round" stroke-width="5.000000"
	d="
M444.000000,468.000000 
	C444.000000,475.333344 444.000000,482.666656 444.000000,490.000000 
"/>
<path fill="none" opacity="1.000000" stroke="#000000" stroke-linecap="round" stroke-linejoin="round" stroke-width="4.000000"
	d="
M463.500000,155.500000 
	C464.492584,163.166672 462.971924,170.833328 463.500000,178.500000 
"/>
<path fill="none" opacity="1.000000" stroke="#000000" stroke-linecap="round" stroke-linejoin="round" stroke-width="5.000000"
	d="
M422.000000,756.000000 
	C422.000000,763.333313 422.000000,770.666687 422.000000,778.000000 
"/>
<path fill="none" opacity="1.000000" stroke="#000000" stroke-linecap="round" stroke-linejoin="round" stroke-width="5.000000"
	d="
M465.000000,756.000000 
	C465.000000,763.333313 465.000000,770.666687 465.000000,778.000000 
"/>
<path fill="none" opacity="1.000000" stroke="#000000" stroke-linecap="round" stroke-linejoin="round" stroke-width="5.000000"
	d="
M461.000000,207.000000 
	C461.000000,217.333328 461.000000,227.666672 461.000000,238.000000 
"/>
<path fill="none" opacity="1.000000" stroke="#000000" stroke-linecap="round" stroke-linejoin="round" stroke-width="4.000000"
	d="
M246.500000,156.500000 
	C242.889297,161.978546 243.126114,168.846466 240.000000,174.500000 
"/>
<path fill="none" opacity="1.000000" stroke="#000000" stroke-linecap="round" stroke-linejoin="round" stroke-width="5.000000"
	d="
M349.000000,207.000000 
	C349.000000,217.333328 349.000000,227.666672 349.000000,238.000000 
"/>
<path fill="none" opacity="1.000000" stroke="#000000" stroke-linecap="round" stroke-linejoin="round" stroke-width="5.000000"
	d="
M559.500000,695.500000 
	C560.657593,702.977966 559.688354,710.503235 560.000000,718.000000 
"/>
<path fill="none" opacity="1.000000" stroke="#000000" stroke-linecap="round" stroke-linejoin="round" stroke-width="5.000000"
	d="
M264.500000,755.500000 
	C265.657623,762.977966 264.688324,770.503235 265.000000,778.000000 
"/>
<path fill="none" opacity="1.000000" stroke="#000000" stroke-linecap="round" stroke-linejoin="round" stroke-width="4.000000"
	d="
M588.500000,465.500000 
	C592.666687,467.333344 596.870850,469.087280 600.984436,471.032898 
	C603.093018,472.030182 605.522400,472.676117 606.750000,475.000000 
"/>
<path fill="none" opacity="1.000000" stroke="#000000" stroke-linecap="round" stroke-linejoin="round" stroke-width="4.000000"
	d="
M560.500000,465.500031 
	C564.666687,467.333344 568.870850,469.087250 572.984436,471.032928 
	C575.093018,472.030212 577.522400,472.676117 578.750000,475.000000 
"/>
<path fill="none" opacity="1.000000" stroke="#000000" stroke-linecap="round" stroke-linejoin="round" stroke-width="4.000000"
	d="
M261.500000,465.500031 
	C257.333344,467.333344 253.129120,469.087280 249.015564,471.032928 
	C246.906952,472.030212 244.477600,472.676117 243.250000,475.000000 
"/>
<path fill="none" opacity="1.000000" stroke="#000000" stroke-linecap="round" stroke-linejoin="round" stroke-width="4.000000"
	d="
M233.500015,465.500031 
	C229.333344,467.333374 225.129135,469.087280 221.015579,471.032928 
	C218.906982,472.030273 216.477600,472.676117 215.250000,475.000000 
"/>
<path fill="none" opacity="1.000000" stroke="#000000" stroke-linecap="round" stroke-linejoin="round" stroke-width="5.000000"
	d="
M367.000000,468.000000 
	C367.000000,475.333344 367.000000,482.666656 367.000000,490.000000 
"/>
<path fill="none" opacity="1.000000" stroke="#000000" stroke-linecap="round" stroke-linejoin="round" stroke-width="5.000000"
	d="
M284.500000,215.500000 
	C285.657623,222.977982 284.688324,230.503220 285.000000,238.000000 
"/>
<path fill="none" opacity="1.000000" stroke="#000000" stroke-linecap="round" stroke-linejoin="round" stroke-width="4.000000"
	d="
M246.500000,696.500000 
	C242.889297,701.978516 243.126114,708.846497 240.000000,714.500000 
"/>
<path fill="none" opacity="1.000000" stroke="#000000" stroke-linecap="round" stroke-linejoin="round" stroke-width="5.000000"
	d="
M559.500000,155.500000 
	C560.657593,162.977982 559.688354,170.503220 560.000000,178.000000 
"/>
<path fill="none" opacity="1.000000" stroke="#000000" stroke-linecap="round" stroke-linejoin="round" stroke-width="4.000000"
	d="
M608.000000,475.000000 
	C601.980286,478.935242 594.998474,480.663177 588.500000,483.500000 
"/>
<path fill="none" opacity="1.000000" stroke="#000000" stroke-linecap="round" stroke-linejoin="round" stroke-width="4.000000"
	d="
M242.000000,475.000000 
	C247.977493,479.032013 255.050095,480.551758 261.500000,483.500000 
"/>
<path fill="none" opacity="1.000000" stroke="#000000" stroke-linecap="round" stroke-linejoin="round" stroke-width="4.000000"
	d="
M214.000000,475.000000 
	C219.977493,479.032013 227.050095,480.551758 233.500000,483.500000 
"/>
<path fill="none" opacity="1.000000" stroke="#000000" stroke-linecap="round" stroke-linejoin="round" stroke-width="4.000000"
	d="
M580.000000,475.000000 
	C573.980286,478.935242 566.998474,480.663177 560.500000,483.500000 
"/>
<path fill="none" opacity="1.000000" stroke="#000000" stroke-linecap="round" stroke-linejoin="round" stroke-width="4.000000"
	d="
M247.000000,699.000000 
	C248.895859,700.034729 248.119400,701.945007 248.563568,703.481628 
	C249.975113,708.364563 251.666656,713.166687 253.250000,718.000000 
"/>
<path fill="none" opacity="1.000000" stroke="#000000" stroke-linecap="round" stroke-linejoin="round" stroke-width="4.000000"
	d="
M247.000000,159.000000 
	C248.895859,160.034714 248.119385,161.944977 248.563583,163.481613 
	C249.975113,168.364609 251.666656,173.166672 253.250000,178.000000 
"/>
<path fill="none" opacity="1.000000" stroke="#000000" stroke-linecap="round" stroke-linejoin="round" stroke-width="4.000000"
	d="
M309.000000,471.000000 
	C306.028015,475.193512 305.776245,480.270660 304.591217,485.022736 
	C304.298828,486.195068 303.582458,486.716156 303.000000,487.500000 
"/>
<path fill="none" opacity="1.000000" stroke="#000000" stroke-linecap="round" stroke-linejoin="round" stroke-width="5.000000"
	d="
M525.000000,207.000000 
	C524.153748,216.482010 526.108093,226.056335 524.064514,235.513931 
	C523.907410,236.241287 524.666687,237.166656 525.000000,238.000000 
"/>
<path fill="none" opacity="1.000000" stroke="#000000" stroke-linecap="round" stroke-linejoin="round" stroke-width="4.000000"
	d="
M581.500000,155.500000 
	C576.833313,155.500000 572.162415,155.621414 567.501526,155.457169 
	C564.409485,155.348221 563.147949,158.462616 560.500000,159.000000 
"/>
<path fill="none" opacity="1.000000" stroke="#000000" stroke-linecap="round" stroke-linejoin="round" stroke-width="4.000000"
	d="
M581.500000,695.500000 
	C576.833313,695.500000 572.162415,695.621399 567.501526,695.457153 
	C564.409485,695.348206 563.147949,698.462646 560.500000,699.000000 
"/>
<path fill="none" opacity="1.000000" stroke="#000000" stroke-linecap="round" stroke-linejoin="round" stroke-width="5.000000"
	d="
M506.000000,156.000000 
	C506.000000,166.666672 506.000000,177.333328 506.000000,188.000000 
"/>
<path fill="none" opacity="1.000000" stroke="#000000" stroke-linecap="round" stroke-linejoin="round" stroke-width="5.000000"
	d="
M506.000000,696.000000 
	C506.000000,706.666687 506.000000,717.333313 506.000000,728.000000 
"/>
<path fill="none" opacity="1.000000" stroke="#000000" stroke-linecap="round" stroke-linejoin="round" stroke-width="5.000000"
	d="
M557.500000,458.500000 
	C549.000000,459.899719 549.000000,459.899719 549.000000,467.500000 
"/>
<path fill="none" opacity="1.000000" stroke="#000000" stroke-linecap="round" stroke-linejoin="round" stroke-width="5.000000"
	d="
M551.500000,746.500000 
	C543.000000,747.899719 543.000000,747.899719 543.000000,755.500000 
"/>
<path fill="none" opacity="1.000000" stroke="#000000" stroke-linecap="round" stroke-linejoin="round" stroke-width="3.000000"
	d="
M474.500000,155.500000 
	C470.738464,155.443207 467.413422,156.633606 464.500000,159.000000 
"/>
<path fill="none" opacity="1.000000" stroke="#000000" stroke-linecap="round" stroke-linejoin="round" stroke-width="3.000000"
	d="
M474.500000,695.500000 
	C470.738464,695.443237 467.413422,696.633606 464.500000,699.000000 
"/>
<path fill="none" opacity="1.000000" stroke="#000000" stroke-linecap="round" stroke-linejoin="round" stroke-width="5.000000"
	d="
M407.000000,343.000000 
	C407.000000,348.000000 407.000000,353.000000 407.000000,358.000000 
"/>
<path fill="none" opacity="1.000000" stroke="#000000" stroke-linecap="round" stroke-linejoin="round" stroke-width="4.000000"
	d="
M431.000000,756.000000 
	C427.417358,753.902161 426.048340,758.888062 423.000000,758.500000 
"/>
<path fill="none" opacity="1.000000" stroke="#000000" stroke-linecap="round" stroke-linejoin="round" stroke-width="4.000000"
	d="
M453.000000,468.000000 
	C449.417358,465.902191 448.048340,470.888031 445.000000,470.500000 
"/>
<path fill="none" opacity="1.000000" stroke="#000000" stroke-linecap="round" stroke-linejoin="round" stroke-width="4.000000"
	d="
M548.500000,755.500000 
	C545.500000,755.500000 542.500000,755.500000 539.500000,755.500000 
"/>
<path fill="none" opacity="1.000000" stroke="#000000" stroke-linecap="round" stroke-linejoin="round" stroke-width="4.000000"
	d="
M554.500000,467.500000 
	C551.500000,467.500000 548.500000,467.500000 545.500000,467.500000 
"/>
<path fill="none" opacity="1.000000" stroke="#000000" stroke-linecap="round" stroke-linejoin="round" stroke-width="4.000000"
	d="
M423.500000,695.500000 
	C420.833344,695.590149 418.166656,696.587463 415.500000,695.500000 
"/>
<path fill="none" opacity="1.000000" stroke="#000000" stroke-linecap="round" stroke-linejoin="round" stroke-width="4.000000"
	d="
M423.500000,155.500000 
	C420.833344,155.590164 418.166656,156.587463 415.500000,155.500000 
"/>
<path fill="none" opacity="1.000000" stroke="#000000" stroke-linecap="round" stroke-linejoin="round" stroke-width="4.000000"
	d="
M496.500000,755.500000 
	C493.833344,756.143677 491.166656,756.143677 488.500000,755.500000 
"/>
<path fill="none" opacity="1.000000" stroke="#000000" stroke-linecap="round" stroke-linejoin="round" stroke-width="4.000000"
	d="
M215.000000,155.500000 
	C206.109009,158.755814 202.660675,168.848846 208.559631,174.942276 
	C210.997208,177.460236 213.984116,179.475555 218.010010,178.027847 
	C222.103928,176.555664 224.545715,173.668335 224.934387,169.493896 
	C225.577835,162.583450 224.418411,157.144547 215.500000,155.500000 
"/>
<path fill="none" opacity="1.000000" stroke="#000000" stroke-linecap="round" stroke-linejoin="round" stroke-width="4.000000"
	d="
M487.000000,155.500000 
	C478.109009,158.755814 474.660706,168.848831 480.559631,174.942261 
	C482.997253,177.460220 485.984100,179.475586 490.010010,178.027863 
	C494.103943,176.555679 496.545715,173.668335 496.934418,169.493896 
	C497.577850,162.583450 496.418396,157.144547 487.500000,155.500000 
"/>
<path fill="none" opacity="1.000000" stroke="#000000" stroke-linecap="round" stroke-linejoin="round" stroke-width="4.000000"
	d="
M303.500000,147.000000 
	C295.565216,148.580460 292.706543,154.467331 292.118988,161.509933 
	C291.603790,167.685074 293.688751,173.199707 299.508026,176.485779 
	C308.559174,181.596878 319.952576,174.910263 319.992065,164.499969 
	C320.007019,160.556778 320.560730,156.487228 317.992737,153.005356 
	C314.511658,148.285492 309.788666,146.382034 304.000000,147.000000 
"/>
<path fill="none" opacity="1.000000" stroke="#000000" stroke-linecap="round" stroke-linejoin="round" stroke-width="5.000000"
	d="
M522.500000,459.000000 
	C516.517517,460.146149 512.136536,463.503052 511.132019,469.522034 
	C510.026428,476.146515 509.937683,482.854950 516.478943,487.529449 
	C524.461914,493.234222 536.138733,488.587738 538.068054,479.514465 
	C540.671509,467.270081 534.884094,459.123199 523.000000,459.000000 
"/>
<path fill="none" opacity="1.000000" stroke="#000000" stroke-linecap="round" stroke-linejoin="round" stroke-width="4.000000"
	d="
M303.500000,687.000000 
	C295.565216,688.580444 292.706543,694.467346 292.118988,701.509949 
	C291.603821,707.685120 293.688751,713.199768 299.508026,716.485840 
	C308.559174,721.596863 319.952606,714.910278 319.992096,704.500000 
	C320.007050,700.556824 320.560730,696.487183 317.992767,693.005371 
	C314.511658,688.285522 309.788666,686.382019 304.000000,687.000000 
"/>
<path fill="none" opacity="1.000000" stroke="#000000" stroke-linecap="round" stroke-linejoin="round" stroke-width="4.000000"
	d="
M215.000000,695.500000 
	C206.109009,698.755798 202.660721,708.848816 208.559616,714.942261 
	C210.997238,717.460266 213.984116,719.475586 218.009995,718.027771 
	C222.103928,716.555664 224.545685,713.668335 224.934372,709.493896 
	C225.577820,702.583435 224.418396,697.144531 215.500000,695.500000 
"/>
<path fill="none" opacity="1.000000" stroke="#000000" stroke-linecap="round" stroke-linejoin="round" stroke-width="4.000000"
	d="
M487.000000,695.500000 
	C478.109009,698.755798 474.660706,708.848816 480.559662,714.942261 
	C482.997284,717.460205 485.984100,719.475586 490.010010,718.027771 
	C494.103943,716.555664 496.545715,713.668335 496.934387,709.493896 
	C497.577850,702.583435 496.418396,697.144531 487.500000,695.500000 
"/>
<path fill="none" opacity="1.000000" stroke="#000000" stroke-linecap="round" stroke-linejoin="round" stroke-width="5.000000"
	d="
M516.500000,747.000000 
	C510.517517,748.146179 506.136566,751.503052 505.132019,757.522034 
	C504.026428,764.146484 503.937683,770.854919 510.478943,775.529419 
	C518.461975,781.234131 530.138733,776.587769 532.067993,767.514465 
	C534.671509,755.270020 528.884094,747.123169 517.000000,747.000000 
"/>
</svg>