<svg version="1.1" id="Layer_1" xmlns="http://www.w3.org/2000/svg" xmlns:xlink="http://www.w3.org/1999/xlink" x="0px" y="0px"
	 width="100%" viewBox="0 0 564 477" enable-background="new 0 0 564 477" xml:space="preserve">
<path fill="none" opacity="1.000000" stroke="#000000" stroke-linecap="round" stroke-linejoin="round" stroke-width="5.000000"
	d="
M220.500000,341.000000 
	C154.166245,341.000000 87.832497,341.000000 21.250000,341.000000 
	C21.250000,381.166656 21.250000,420.833344 21.250000,460.750000 
	C154.500000,460.750000 287.500000,460.750000 420.750000,460.750000 
	C420.750000,420.833344 420.750000,381.166656 420.750000,341.000000 
	C354.167511,341.000000 287.833740,341.000000 221.500000,341.000000 
"/>
<path fill="none" opacity="1.000000" stroke="#000000" stroke-linecap="round" stroke-linejoin="round" stroke-width="5.000000"
	d="
M182.000000,399.000000 
	C186.000000,399.000000 190.002533,399.089905 193.999359,398.977386 
	C199.078690,398.834412 202.500000,395.340363 202.500000,390.500000 
	C202.500000,385.145508 199.618057,382.188599 193.999298,382.024048 
	C189.829941,381.901886 185.654129,382.000000 181.000000,382.000000 
	C181.000000,392.661194 181.000000,402.830597 181.000000,413.000000 
"/>
<path fill="none" opacity="1.000000" stroke="#000000" stroke-linecap="round" stroke-linejoin="round" stroke-width="4.000000"
	d="
M296.500000,401.500000 
	C296.562103,397.879822 295.437805,394.818695 292.510590,392.486694 
	C289.354340,389.972229 285.677246,389.912933 282.564728,391.618134 
	C277.040710,394.644562 277.705597,400.342926 278.069763,405.495056 
	C278.360168,409.603363 281.048920,411.917725 284.990540,413.033386 
	C289.381317,414.276215 294.715271,411.232880 295.989746,406.497253 
	C296.388733,405.014893 296.666687,403.500000 297.000000,402.000000 
"/>
<path fill="none" opacity="1.000000" stroke="#000000" stroke-linecap="round" stroke-linejoin="round" stroke-width="4.000000"
	d="
M270.500000,395.500000 
	C269.872589,395.088165 269.017365,396.191162 268.337158,394.568237 
	C267.403046,392.339447 264.995026,390.894684 262.492065,390.559143 
	C258.988800,390.089478 254.323441,392.033600 254.053574,395.004852 
	C253.710999,398.776367 256.432861,400.128998 259.499786,401.000793 
	C262.395294,401.823914 265.393860,402.251648 268.022430,403.965607 
	C270.702454,405.713135 270.463745,407.854584 268.965240,409.975433 
	C265.227234,415.265900 258.755890,414.575867 254.000000,408.500000 
"/>
<path fill="none" opacity="1.000000" stroke="#000000" stroke-linecap="round" stroke-linejoin="round" stroke-width="4.000000"
	d="
M158.500000,395.500000 
	C157.872589,395.088165 157.017349,396.191162 156.337173,394.568237 
	C155.403046,392.339447 152.995026,390.894714 150.492065,390.559143 
	C146.988815,390.089478 142.323441,392.033630 142.053574,395.004852 
	C141.711014,398.776367 144.432861,400.128998 147.499786,401.000763 
	C150.395309,401.823853 153.393860,402.251648 156.022430,403.965607 
	C158.702454,405.713135 158.463715,407.854584 156.965225,409.975433 
	C153.227203,415.265900 146.755890,414.575867 142.000000,408.500000 
"/>
<path fill="none" opacity="1.000000" stroke="#000000" stroke-linecap="round" stroke-linejoin="round" stroke-width="4.000000"
	d="
M343.500000,37.500000 
	C340.636566,33.626446 337.842651,32.633533 333.993927,33.982666 
	C332.017151,34.675613 330.308563,35.210552 330.414825,38.003242 
	C330.514648,40.626896 332.087219,41.729996 334.022827,42.437572 
	C335.747528,43.068062 337.788757,42.873119 339.469910,43.572346 
	C341.703094,44.501183 345.077576,44.614189 344.493713,48.499054 
	C343.934265,52.221687 341.148926,53.254177 337.997284,53.458153 
	C334.472931,53.686256 331.426392,52.704929 330.000000,49.000000 
"/>
<path fill="none" opacity="1.000000" stroke="#000000" stroke-linecap="round" stroke-linejoin="round" stroke-width="4.000000"
	d="
M212.000000,401.000000 
	C217.583328,402.023376 223.166672,401.236450 228.717911,401.578491 
	C229.076202,395.120819 225.557816,390.642853 220.500000,390.500000 
	C214.984238,390.344208 211.922867,394.252869 211.355499,400.737366 
	C211.069763,404.003082 211.052567,406.941254 213.036057,409.471741 
	C217.642136,415.348114 224.448364,414.656769 229.000000,408.000000 
"/>
<path fill="none" opacity="1.000000" stroke="#000000" stroke-linecap="round" stroke-linejoin="round" stroke-width="4.000000"
	d="
M550.000000,36.500000 
	C543.055420,32.348305 540.517334,32.406364 537.016663,37.012684 
	C534.510254,40.310791 534.476562,49.668282 539.914429,52.655781 
	C543.975525,54.886906 551.559631,51.239635 551.503357,46.999954 
	C551.458679,43.636284 551.765137,40.240150 550.500000,37.000000 
"/>
<path fill="none" opacity="1.000000" stroke="#000000" stroke-linecap="round" stroke-linejoin="round" stroke-width="4.000000"
	d="
M488.000000,42.000000 
	C492.916656,43.080856 497.833344,42.173660 502.744995,42.624657 
	C502.797729,36.027737 500.767548,33.647514 495.500000,33.500004 
	C490.507446,33.360195 487.572815,36.316673 486.942444,41.492989 
	C486.432434,45.680996 486.241394,49.419048 490.474854,52.040604 
	C494.496399,54.530933 499.767242,53.907326 502.539154,50.027981 
	C502.922180,49.491955 503.833313,49.333313 504.500000,48.999981 
"/>
<path fill="none" opacity="1.000000" stroke="#000000" stroke-linecap="round" stroke-linejoin="round" stroke-width="4.000000"
	d="
M428.500000,37.500000 
	C427.144531,37.870220 426.714813,36.966915 425.938629,36.052055 
	C423.552246,33.239307 420.369568,32.727489 417.016144,34.041191 
	C415.279205,34.721634 413.283264,35.343792 413.464264,38.002434 
	C413.624390,40.354034 414.863525,41.468533 416.994720,42.020336 
	C418.521820,42.415726 419.975403,43.097889 421.504456,43.482254 
	C426.781677,44.808807 428.496338,46.487919 427.500000,49.500004 
	C426.557007,52.351006 421.146301,54.837673 418.047241,53.398289 
	C416.316681,52.594509 413.815216,51.941589 413.569763,49.493008 
	C413.375580,47.555782 412.127411,48.911839 411.500000,48.500000 
"/>
<path fill="none" opacity="1.000000" stroke="#000000" stroke-linecap="round" stroke-linejoin="round" stroke-width="4.000000"
	d="
M321.500000,413.500000 
	C321.500000,408.333344 321.662354,403.160278 321.459442,398.001587 
	C321.197754,391.347687 316.353607,388.984283 310.452209,391.903412 
	C306.366821,393.924133 305.469391,397.045135 305.494141,401.000031 
	C305.520233,405.166534 305.500000,409.333344 305.500000,413.500000 
"/>
<path fill="none" opacity="1.000000" stroke="#000000" stroke-linecap="round" stroke-linejoin="round" stroke-width="4.000000"
	d="
M403.500000,41.500000 
	C400.166656,42.166664 396.858521,43.046352 393.493378,43.443886 
	C389.639496,43.899155 388.838348,46.284683 389.010376,49.499447 
	C389.199463,53.033630 391.914398,53.254639 394.501312,53.485138 
	C398.049591,53.801300 400.555511,51.309376 403.500000,50.000000 
"/>
<path fill="none" opacity="1.000000" stroke="#000000" stroke-linecap="round" stroke-linejoin="round" stroke-width="5.000000"
	d="
M132.000000,413.000000 
	C132.000000,408.166656 132.015442,403.333282 131.996323,398.500000 
	C131.968979,391.582642 127.113876,388.735382 120.990639,391.982330 
	C119.676132,392.679352 118.753387,394.173462 117.000000,394.000000 
"/>
<path fill="none" opacity="1.000000" stroke="#000000" stroke-linecap="round" stroke-linejoin="round" stroke-width="5.000000"
	d="
M454.500000,24.500000 
	C450.333344,24.500000 446.161896,24.623493 442.001434,24.462883 
	C438.342468,24.321638 436.797119,25.593554 436.924377,29.502462 
	C437.179108,37.327503 437.000000,45.166668 437.000000,53.000000 
"/>
<path fill="none" opacity="1.000000" stroke="#000000" stroke-linecap="round" stroke-linejoin="round" stroke-width="5.000000"
	d="
M527.000000,53.000000 
	C526.670715,48.506023 527.453735,44.004517 526.553711,39.489292 
	C525.486328,34.134514 520.964294,31.715384 516.520264,34.531994 
	C515.190857,35.374561 514.440491,37.138165 512.500000,37.000000 
"/>
<path fill="none" opacity="1.000000" stroke="#000000" stroke-linecap="round" stroke-linejoin="round" stroke-width="4.000000"
	d="
M321.500000,53.500000 
	C321.500000,49.666668 321.336334,45.824276 321.547791,42.002644 
	C321.744568,38.446701 320.808258,35.682564 317.500671,33.998680 
	C314.444183,32.442600 312.018890,34.266872 309.510254,35.520531 
	C308.776886,35.887016 308.166656,36.500000 307.500000,37.000000 
"/>
<path fill="none" opacity="1.000000" stroke="#000000" stroke-linecap="round" stroke-linejoin="round" stroke-width="5.000000"
	d="
M380.000000,53.000000 
	C380.000000,49.000000 379.891235,44.996078 380.035187,41.001266 
	C380.145691,37.934528 379.444336,35.428040 376.496918,34.006386 
	C373.797363,32.704281 371.344788,33.582874 369.007355,35.012024 
	C368.177582,35.519360 367.824829,36.819176 366.500000,36.500000 
"/>
<path fill="none" opacity="1.000000" stroke="#000000" stroke-linecap="round" stroke-linejoin="round" stroke-width="3.000000"
	d="
M199.500000,296.500000 
	C206.035446,303.313171 211.730255,311.009460 219.999161,316.001373 
	C221.649017,316.997406 220.960678,318.632263 220.972641,320.000244 
	C221.032440,326.833069 221.000000,333.666656 221.000000,340.500000 
"/>
<path fill="none" opacity="1.000000" stroke="#000000" stroke-linecap="round" stroke-linejoin="round" stroke-width="8.000000"
	d="
M242.500000,296.500000 
	C235.960846,303.650543 229.667679,311.059387 221.215240,316.900085 
	C221.047684,313.514709 220.898849,310.507355 220.750000,307.500000 
"/>
<path fill="none" opacity="1.000000" stroke="#000000" stroke-linecap="round" stroke-linejoin="round" stroke-width="4.000000"
	d="
M405.500000,53.500000 
	C402.001404,49.874825 404.553314,45.371319 404.396484,41.484001 
	C404.232391,37.417187 403.768799,34.838783 399.987213,33.537132 
	C396.144165,32.214314 391.807770,34.388725 389.500000,38.500000 
"/>
<path fill="none" opacity="1.000000" stroke="#000000" stroke-linecap="round" stroke-linejoin="round" stroke-width="5.000000"
	d="
M478.000000,34.000000 
	C478.000000,40.333332 478.000000,46.666668 478.000000,53.000000 
"/>
<path fill="none" opacity="1.000000" stroke="#000000" stroke-linecap="round" stroke-linejoin="round" stroke-width="5.000000"
	d="
M239.000000,391.000000 
	C239.000000,398.333344 239.000000,405.666656 239.000000,413.000000 
"/>
<path fill="none" opacity="1.000000" stroke="#000000" stroke-linecap="round" stroke-linejoin="round" stroke-width="5.000000"
	d="
M116.000000,391.000000 
	C116.000000,398.333344 116.000000,405.666656 116.000000,413.000000 
"/>
<path fill="none" opacity="1.000000" stroke="#000000" stroke-linecap="round" stroke-linejoin="round" stroke-width="4.000000"
	d="
M365.500000,24.500000 
	C365.500000,34.166668 365.500000,43.833332 365.500000,53.500000 
"/>
<path fill="none" opacity="1.000000" stroke="#000000" stroke-linecap="round" stroke-linejoin="round" stroke-width="5.000000"
	d="
M462.500000,33.500000 
	C463.619324,39.975574 462.705597,46.503277 463.000000,53.000000 
"/>
<path fill="none" opacity="1.000000" stroke="#000000" stroke-linecap="round" stroke-linejoin="round" stroke-width="4.000000"
	d="
M306.500000,33.500000 
	C306.500000,40.166668 306.500000,46.833332 306.500000,53.500000 
"/>
<path fill="none" opacity="1.000000" stroke="#000000" stroke-linecap="round" stroke-linejoin="round" stroke-width="5.000000"
	d="
M511.500000,33.500000 
	C512.418030,39.980736 511.830383,46.500076 512.000000,53.000000 
"/>
<path fill="none" opacity="1.000000" stroke="#000000" stroke-linecap="round" stroke-linejoin="round" stroke-width="4.000000"
	d="
M452.500000,38.500000 
	C447.668640,38.723495 442.804138,37.986855 438.000000,39.000000 
"/>
<path fill="none" opacity="1.000000" stroke="#000000" stroke-linecap="round" stroke-linejoin="round" stroke-width="4.000000"
	d="
M551.500000,24.500000 
	C551.125793,28.496595 552.421265,32.632328 550.500000,36.500000 
"/>
<path fill="none" opacity="1.000000" stroke="#000000" stroke-linecap="round" stroke-linejoin="round" stroke-width="3.000000"
	d="
M472.500000,34.000000 
	C468.927460,32.090195 466.534943,35.490574 463.500000,36.000000 
"/>
<path fill="none" opacity="1.000000" stroke="#000000" stroke-linecap="round" stroke-linejoin="round" stroke-width="3.000000"
	d="
M248.000000,391.000000 
	C246.337570,389.704834 244.871094,390.706848 243.522110,391.535980 
	C242.371201,392.243378 241.803482,393.947754 240.000000,393.500000 
"/>
</svg>