<?xml version="1.0" standalone="no"?>
<!DOCTYPE svg PUBLIC "-//W3C//DTD SVG 20010904//EN"
 "http://www.w3.org/TR/2001/REC-SVG-20010904/DTD/svg10.dtd">
<svg version="1.0" xmlns="http://www.w3.org/2000/svg"
 width="623.000000pt" height="324.000000pt" viewBox="0 0 623.000000 324.000000"
 preserveAspectRatio="xMidYMid meet">

<g transform="translate(0.000000,324.000000) scale(0.100000,-0.100000)"
fill="#000000" stroke="none">
<path d="M400 2190 c0 -643 0 -650 20 -650 16 0 20 7 20 30 l0 30 2720 0 2720
0 0 620 0 620 -2740 0 -2740 0 0 -650z m5440 30 l0 -580 -2700 0 -2700 0 0
580 0 580 2700 0 2700 0 0 -580z"/>
<path d="M5840 1480 c0 -53 2 -60 20 -60 18 0 20 7 20 60 0 53 -2 60 -20 60
-18 0 -20 -7 -20 -60z"/>
<path d="M400 1360 c0 -53 2 -60 20 -60 18 0 20 7 20 60 0 53 -2 60 -20 60
-18 0 -20 -7 -20 -60z"/>
<path d="M5840 1240 c0 -53 2 -60 20 -60 18 0 20 7 20 60 0 53 -2 60 -20 60
-18 0 -20 -7 -20 -60z"/>
<path d="M2490 1055 c0 -149 2 -175 15 -175 12 0 15 14 15 68 0 95 14 138 48
149 65 22 82 -6 82 -133 0 -77 2 -84 20 -84 18 0 20 7 20 83 0 105 -13 150
-46 165 -34 16 -66 15 -90 -3 -31 -23 -34 -19 -34 45 0 47 -3 60 -15 60 -13 0
-15 -26 -15 -175z"/>
<path d="M3270 1055 l0 -175 125 0 c118 0 125 1 125 20 0 19 -7 20 -105 20
l-105 0 0 60 0 60 95 0 c88 0 95 1 95 20 0 19 -7 20 -95 20 l-95 0 0 55 0 55
100 0 c93 0 100 1 100 20 0 19 -7 20 -120 20 l-120 0 0 -175z"/>
<path d="M4250 1205 c0 -16 6 -25 15 -25 9 0 15 9 15 25 0 16 -6 25 -15 25 -9
0 -15 -9 -15 -25z"/>
<path d="M4350 1055 c0 -168 1 -175 20 -175 19 0 20 7 20 175 0 168 -1 175
-20 175 -19 0 -20 -7 -20 -175z"/>
<path d="M400 1120 c0 -53 2 -60 20 -60 18 0 20 7 20 60 0 53 -2 60 -20 60
-18 0 -20 -7 -20 -60z"/>
<path d="M1850 1010 c0 -109 2 -130 15 -130 12 0 15 14 15 68 0 123 33 176 94
153 29 -12 36 -36 36 -138 0 -67 3 -83 15 -83 12 0 15 19 15 108 0 59 -4 112
-8 118 -22 33 -86 44 -118 19 -25 -19 -34 -19 -34 0 0 8 -7 15 -15 15 -13 0
-15 -21 -15 -130z"/>
<path d="M2143 1128 c-12 -6 -27 -23 -34 -39 -17 -44 5 -69 82 -94 50 -16 64
-24 64 -40 0 -48 -100 -52 -112 -5 -6 24 -31 26 -40 4 -3 -10 4 -26 21 -42 54
-55 176 -23 176 45 0 34 -31 59 -94 77 -78 23 -88 55 -24 71 21 5 33 1 53 -19
27 -27 40 -32 49 -17 10 16 -5 41 -35 56 -32 17 -74 18 -106 3z"/>
<path d="M2794 1126 c-31 -14 -49 -40 -38 -57 9 -15 25 -10 43 13 33 40 116
21 109 -26 -2 -17 -14 -23 -66 -32 -34 -6 -71 -19 -82 -29 -29 -26 -26 -69 6
-94 32 -25 62 -26 111 -6 19 8 37 15 39 15 2 0 4 -7 4 -15 0 -8 8 -15 18 -15
16 0 17 10 14 108 -3 86 -7 111 -22 126 -23 24 -96 31 -136 12z m116 -149 c0
-43 -59 -74 -106 -57 -26 10 -33 43 -12 56 13 8 69 21 101 23 12 1 17 -6 17
-22z"/>
<path d="M3050 1127 c-13 -7 -29 -24 -34 -39 -15 -43 12 -72 84 -92 65 -18 83
-38 57 -63 -27 -27 -77 -21 -103 13 -17 21 -26 26 -35 17 -17 -17 -1 -52 33
-69 44 -23 106 -13 135 21 44 51 25 87 -62 114 -33 10 -64 26 -69 35 -26 40
63 56 96 17 25 -31 52 -22 37 13 -20 43 -88 59 -139 33z"/>
<path d="M3580 1010 c0 -123 1 -130 20 -130 19 0 20 7 20 89 0 71 4 93 18 111
21 25 69 30 83 9 5 -8 9 -58 9 -111 0 -91 1 -98 20 -98 19 0 20 7 20 93 0 50
4 97 8 103 12 19 50 34 67 28 27 -11 35 -40 35 -133 0 -74 3 -91 15 -91 12 0
15 19 15 114 0 107 -1 116 -22 130 -30 21 -71 20 -99 -3 -23 -19 -24 -19 -48
0 -28 23 -56 24 -93 5 -24 -13 -28 -13 -28 0 0 8 -9 14 -20 14 -19 0 -20 -7
-20 -130z"/>
<path d="M4024 1126 c-35 -15 -50 -44 -34 -60 8 -8 16 -4 29 12 33 45 126 27
119 -22 -2 -17 -14 -23 -66 -32 -72 -13 -102 -35 -102 -75 0 -67 67 -84 168
-43 6 3 12 -1 12 -10 0 -10 9 -16 21 -16 15 0 19 4 15 16 -3 9 -6 55 -6 104 0
69 -4 92 -18 110 -22 28 -94 36 -138 16z m116 -149 c0 -43 -59 -74 -106 -57
-26 10 -33 43 -12 56 13 8 69 21 101 23 12 1 17 -6 17 -22z"/>
<path d="M4250 1010 c0 -109 2 -130 15 -130 13 0 15 21 15 130 0 109 -2 130
-15 130 -13 0 -15 -21 -15 -130z"/>
<path d="M2370 1105 c0 -18 5 -25 20 -25 15 0 20 7 20 25 0 18 -5 25 -20 25
-15 0 -20 -7 -20 -25z"/>
<path d="M5840 1000 c0 -53 2 -60 20 -60 18 0 20 7 20 60 0 53 -2 60 -20 60
-18 0 -20 -7 -20 -60z"/>
<path d="M400 880 c0 -53 2 -60 20 -60 18 0 20 7 20 60 0 53 -2 60 -20 60 -18
0 -20 -7 -20 -60z"/>
<path d="M2370 905 c0 -18 5 -25 20 -25 15 0 20 7 20 25 0 18 -5 25 -20 25
-15 0 -20 -7 -20 -25z"/>
<path d="M5840 760 c0 -53 2 -60 20 -60 18 0 20 7 20 60 0 53 -2 60 -20 60
-18 0 -20 -7 -20 -60z"/>
<path d="M400 640 c0 -53 2 -60 20 -60 18 0 20 7 20 60 0 53 -2 60 -20 60 -18
0 -20 -7 -20 -60z"/>
<path d="M5840 520 c0 -53 2 -60 20 -60 18 0 20 7 20 60 0 53 -2 60 -20 60
-18 0 -20 -7 -20 -60z"/>
<path d="M400 430 c0 -29 1 -30 50 -30 43 0 50 3 50 20 0 16 -7 20 -30 20 -16
0 -30 5 -30 10 0 6 -9 10 -20 10 -16 0 -20 -7 -20 -30z"/>
<path d="M620 420 c0 -18 7 -20 60 -20 53 0 60 2 60 20 0 18 -7 20 -60 20 -53
0 -60 -2 -60 -20z"/>
<path d="M860 420 c0 -18 7 -20 60 -20 53 0 60 2 60 20 0 18 -7 20 -60 20 -53
0 -60 -2 -60 -20z"/>
<path d="M1100 420 c0 -18 7 -20 60 -20 53 0 60 2 60 20 0 18 -7 20 -60 20
-53 0 -60 -2 -60 -20z"/>
<path d="M1340 420 c0 -18 7 -20 60 -20 53 0 60 2 60 20 0 18 -7 20 -60 20
-53 0 -60 -2 -60 -20z"/>
<path d="M1580 420 c0 -18 7 -20 60 -20 53 0 60 2 60 20 0 18 -7 20 -60 20
-53 0 -60 -2 -60 -20z"/>
<path d="M1820 420 c0 -18 7 -20 60 -20 53 0 60 2 60 20 0 18 -7 20 -60 20
-53 0 -60 -2 -60 -20z"/>
<path d="M2060 420 c0 -18 7 -20 60 -20 53 0 60 2 60 20 0 18 -7 20 -60 20
-53 0 -60 -2 -60 -20z"/>
<path d="M2300 420 c0 -18 7 -20 60 -20 53 0 60 2 60 20 0 18 -7 20 -60 20
-53 0 -60 -2 -60 -20z"/>
<path d="M2540 420 c0 -18 7 -20 60 -20 53 0 60 2 60 20 0 18 -7 20 -60 20
-53 0 -60 -2 -60 -20z"/>
<path d="M2780 420 c0 -18 7 -20 60 -20 53 0 60 2 60 20 0 18 -7 20 -60 20
-53 0 -60 -2 -60 -20z"/>
<path d="M3020 420 c0 -18 7 -20 60 -20 53 0 60 2 60 20 0 18 -7 20 -60 20
-53 0 -60 -2 -60 -20z"/>
<path d="M3260 420 c0 -18 7 -20 60 -20 53 0 60 2 60 20 0 18 -7 20 -60 20
-53 0 -60 -2 -60 -20z"/>
<path d="M3500 420 c0 -18 7 -20 60 -20 53 0 60 2 60 20 0 18 -7 20 -60 20
-53 0 -60 -2 -60 -20z"/>
<path d="M3740 420 c0 -18 7 -20 60 -20 53 0 60 2 60 20 0 18 -7 20 -60 20
-53 0 -60 -2 -60 -20z"/>
<path d="M3980 420 c0 -18 7 -20 60 -20 53 0 60 2 60 20 0 18 -7 20 -60 20
-53 0 -60 -2 -60 -20z"/>
<path d="M4220 420 c0 -18 7 -20 60 -20 53 0 60 2 60 20 0 18 -7 20 -60 20
-53 0 -60 -2 -60 -20z"/>
<path d="M4460 420 c0 -18 7 -20 60 -20 53 0 60 2 60 20 0 18 -7 20 -60 20
-53 0 -60 -2 -60 -20z"/>
<path d="M4700 420 c0 -18 7 -20 60 -20 53 0 60 2 60 20 0 18 -7 20 -60 20
-53 0 -60 -2 -60 -20z"/>
<path d="M4940 420 c0 -18 7 -20 60 -20 53 0 60 2 60 20 0 18 -7 20 -60 20
-53 0 -60 -2 -60 -20z"/>
<path d="M5180 420 c0 -18 7 -20 60 -20 53 0 60 2 60 20 0 18 -7 20 -60 20
-53 0 -60 -2 -60 -20z"/>
<path d="M5420 420 c0 -18 7 -20 60 -20 53 0 60 2 60 20 0 18 -7 20 -60 20
-53 0 -60 -2 -60 -20z"/>
<path d="M5660 420 c0 -18 7 -20 60 -20 53 0 60 2 60 20 0 18 -7 20 -60 20
-53 0 -60 -2 -60 -20z"/>
</g>
</svg>
