<?xml version="1.0" standalone="no"?>
<!DOCTYPE svg PUBLIC "-//W3C//DTD SVG 20010904//EN"
 "http://www.w3.org/TR/2001/REC-SVG-20010904/DTD/svg10.dtd">
<svg version="1.0" xmlns="http://www.w3.org/2000/svg"
 width="1571.000000pt" height="203.000000pt" viewBox="0 0 1571.000000 203.000000"
 preserveAspectRatio="xMidYMid meet">

<g transform="translate(0.000000,203.000000) scale(0.100000,-0.100000)"
fill="#000000" stroke="none">
<path d="M400 1010 l0 -620 2020 0 2020 0 0 300 0 300 50 0 c43 0 50 3 50 20
0 17 -7 20 -50 20 l-50 0 0 300 0 300 -2020 0 -2020 0 0 -620z m4000 0 l0
-580 -1980 0 -1980 0 0 580 0 580 1980 0 1980 0 0 -580z"/>
<path d="M2000 1045 c0 -168 1 -175 20 -175 18 0 20 7 20 69 l0 69 79 3 c67 4
83 8 105 28 34 32 42 80 21 124 -21 45 -54 57 -161 57 l-84 0 0 -175z m194
119 c21 -20 20 -73 -1 -96 -13 -14 -31 -18 -85 -18 l-68 0 0 65 0 65 69 0 c50
0 74 -4 85 -16z"/>
<path d="M1350 1000 c0 -123 1 -130 20 -130 18 0 20 7 20 79 0 44 4 91 10 106
13 35 55 50 86 30 23 -15 24 -21 24 -115 0 -93 1 -100 20 -100 19 0 20 7 20
105 0 99 -2 107 -25 130 -28 29 -63 32 -105 10 -27 -14 -30 -14 -30 0 0 8 -9
15 -20 15 -19 0 -20 -7 -20 -130z"/>
<path d="M1650 1117 c-13 -7 -29 -24 -34 -39 -15 -43 12 -72 84 -92 65 -18 83
-38 57 -63 -27 -27 -77 -21 -103 13 -17 21 -26 26 -35 17 -17 -17 -1 -52 33
-69 44 -23 106 -13 135 21 44 51 25 87 -62 114 -33 10 -64 26 -69 35 -26 40
63 56 96 17 25 -31 52 -22 37 13 -20 43 -88 59 -139 33z"/>
<path d="M2354 1111 c-34 -21 -54 -65 -54 -118 0 -94 89 -150 170 -108 32 16
55 50 45 65 -10 16 -33 11 -40 -8 -8 -28 -49 -43 -83 -31 -26 9 -52 44 -52 69
0 6 40 10 90 10 l90 0 0 35 c0 79 -97 130 -166 86z m118 -44 c4 -7 8 -20 8
-29 0 -15 -10 -18 -64 -18 -36 0 -67 4 -70 9 -20 32 49 76 93 59 14 -5 29 -15
33 -21z"/>
<path d="M2580 1000 c0 -121 1 -130 19 -130 17 0 19 9 23 100 3 107 11 124 56
125 17 0 27 5 27 15 0 22 -43 25 -66 4 -17 -16 -19 -16 -19 -1 0 10 -8 17 -20
17 -19 0 -20 -7 -20 -130z"/>
<path d="M2770 1117 c-13 -7 -29 -24 -34 -39 -15 -43 12 -72 84 -92 65 -18 83
-38 57 -63 -27 -27 -77 -21 -103 13 -17 21 -26 26 -35 17 -17 -17 -1 -52 33
-69 44 -23 106 -13 135 21 44 51 25 87 -62 114 -33 10 -64 26 -69 35 -26 40
63 56 96 17 25 -31 52 -22 37 13 -20 43 -88 59 -139 33z"/>
<path d="M3034 1121 c-42 -18 -64 -59 -64 -122 0 -51 4 -63 29 -91 26 -29 35
-33 80 -33 41 0 55 5 76 26 50 49 51 148 2 196 -26 27 -88 39 -123 24z m100
-52 c29 -27 28 -112 -2 -141 -29 -29 -79 -28 -104 1 -20 26 -25 100 -7 132 21
41 75 45 113 8z"/>
<path d="M3250 1000 c0 -109 2 -130 15 -130 12 0 15 14 15 68 0 123 33 176 94
153 29 -12 36 -36 36 -138 0 -67 3 -83 15 -83 12 0 15 19 15 108 0 59 -4 112
-8 118 -22 33 -86 44 -118 19 -25 -19 -34 -19 -34 0 0 8 -7 15 -15 15 -13 0
-15 -21 -15 -130z"/>
<path d="M1870 1095 c0 -20 5 -25 25 -25 20 0 25 5 25 25 0 20 -5 25 -25 25
-20 0 -25 -5 -25 -25z"/>
<path d="M1870 895 c0 -20 5 -25 25 -25 20 0 25 5 25 25 0 20 -5 25 -25 25
-20 0 -25 -5 -25 -25z"/>
<path d="M11360 1325 l0 -305 -210 105 c-115 58 -210 103 -210 100 0 -3 24
-52 52 -110 l53 -105 -53 -105 c-28 -58 -52 -107 -52 -110 0 -3 95 42 210 100
l210 105 0 -305 0 -305 2020 0 2020 0 0 620 0 620 -2020 0 -2020 0 0 -305z
m4000 -315 l0 -580 -1980 0 -1980 0 0 580 0 580 1980 0 1980 0 0 -580z"/>
<path d="M13040 1045 c0 -168 1 -175 20 -175 18 0 20 7 20 80 l0 80 85 0 c78
0 85 2 85 20 0 18 -7 20 -85 20 l-85 0 0 55 0 55 95 0 c88 0 95 1 95 20 0 19
-7 20 -115 20 l-115 0 0 -175z"/>
<path d="M13490 1195 c0 -18 5 -25 20 -25 15 0 20 7 20 25 0 18 -5 25 -20 25
-15 0 -20 -7 -20 -25z"/>
<path d="M14290 1160 c0 -64 -3 -68 -34 -45 -27 20 -55 19 -93 -5 -73 -44 -65
-193 13 -228 34 -16 65 -15 92 4 20 14 22 14 22 0 0 -9 7 -16 15 -16 13 0 15
26 15 175 0 149 -2 175 -15 175 -12 0 -15 -13 -15 -60z m-46 -71 c33 -15 50
-60 43 -111 -7 -49 -26 -70 -62 -70 -36 0 -64 30 -72 75 -9 56 16 100 64 116
1 1 13 -4 27 -10z"/>
<path d="M12390 1000 c0 -123 1 -130 20 -130 18 0 20 7 20 79 0 44 4 91 10
106 13 35 55 50 86 30 23 -15 24 -21 24 -115 0 -93 1 -100 20 -100 19 0 20 7
20 105 0 99 -2 107 -25 130 -27 28 -71 33 -101 10 -25 -19 -34 -19 -34 0 0 8
-9 15 -20 15 -19 0 -20 -7 -20 -130z"/>
<path d="M12688 1114 c-15 -8 -31 -26 -34 -39 -10 -42 17 -70 86 -89 65 -18
83 -38 57 -63 -27 -27 -77 -21 -103 13 -17 21 -26 26 -35 17 -17 -17 -1 -52
33 -69 44 -23 106 -13 135 21 44 51 25 87 -62 114 -33 10 -64 26 -69 35 -26
40 63 56 96 17 22 -28 49 -22 41 9 -12 44 -92 63 -145 34z"/>
<path d="M13330 1000 c0 -123 1 -130 20 -130 19 0 20 7 20 99 0 90 2 101 21
114 11 8 28 13 38 10 11 -3 21 2 24 11 9 24 -37 32 -68 12 -22 -14 -25 -15
-25 -1 0 8 -7 15 -15 15 -13 0 -15 -21 -15 -130z"/>
<path d="M13490 1000 c0 -123 1 -130 20 -130 19 0 20 7 20 130 0 123 -1 130
-20 130 -19 0 -20 -7 -20 -130z"/>
<path d="M13634 1111 c-34 -21 -54 -64 -54 -118 0 -94 89 -150 170 -108 32 16
55 50 45 65 -10 16 -33 11 -40 -8 -14 -47 -87 -47 -119 0 -31 43 -23 48 80 48
l96 0 -6 28 c-24 102 -95 140 -172 93z m118 -44 c4 -7 8 -20 8 -29 0 -15 -10
-18 -63 -18 -35 0 -66 3 -70 6 -11 12 16 53 42 62 28 10 70 -1 83 -21z"/>
<path d="M13860 1000 c0 -123 1 -130 20 -130 18 0 20 7 20 86 0 47 5 94 11
105 16 31 57 43 85 24 23 -15 24 -21 24 -115 0 -93 1 -100 20 -100 19 0 20 7
20 105 0 99 -2 107 -25 130 -28 29 -63 32 -105 10 -27 -14 -30 -14 -30 0 0 8
-9 15 -20 15 -19 0 -20 -7 -20 -130z"/>
<path d="M12910 1095 c0 -20 5 -25 25 -25 20 0 25 5 25 25 0 20 -5 25 -25 25
-20 0 -25 -5 -25 -25z"/>
<path d="M12910 895 c0 -20 5 -25 25 -25 20 0 25 5 25 25 0 20 -5 25 -25 25
-20 0 -25 -5 -25 -25z"/>
<path d="M6690 950 c0 -153 1 -160 20 -160 17 0 20 7 20 49 0 79 20 82 64 11
25 -40 44 -60 57 -60 10 0 19 2 19 5 0 3 -20 36 -45 73 l-45 66 42 43 c34 35
38 43 23 43 -11 0 -41 -21 -67 -47 l-48 -47 0 92 c0 85 -1 92 -20 92 -19 0
-20 -7 -20 -160z"/>
<path d="M7998 957 c-32 -84 -58 -156 -58 -160 0 -4 8 -7 18 -7 13 0 23 15 36
50 l18 50 65 0 65 0 21 -50 c14 -34 27 -50 39 -50 10 0 18 3 18 8 0 4 -28 76
-61 160 -83 204 -85 204 -161 -1z m107 40 c14 -37 25 -70 25 -72 0 -3 -24 -5
-54 -5 l-54 0 26 74 c15 41 28 73 29 72 1 -1 14 -32 28 -69z"/>
<path d="M4660 1010 c0 -18 7 -20 60 -20 53 0 60 2 60 20 0 18 -7 20 -60 20
-53 0 -60 -2 -60 -20z"/>
<path d="M4900 1010 c0 -18 7 -20 60 -20 53 0 60 2 60 20 0 18 -7 20 -60 20
-53 0 -60 -2 -60 -20z"/>
<path d="M5140 1010 c0 -18 7 -20 60 -20 53 0 60 2 60 20 0 18 -7 20 -60 20
-53 0 -60 -2 -60 -20z"/>
<path d="M5380 1010 c0 -18 7 -20 60 -20 53 0 60 2 60 20 0 18 -7 20 -60 20
-53 0 -60 -2 -60 -20z"/>
<path d="M5620 1010 c0 -18 7 -20 60 -20 53 0 60 2 60 20 0 18 -7 20 -60 20
-53 0 -60 -2 -60 -20z"/>
<path d="M5860 1010 c0 -18 7 -20 60 -20 53 0 60 2 60 20 0 18 -7 20 -60 20
-53 0 -60 -2 -60 -20z"/>
<path d="M8500 1010 c0 -18 7 -20 60 -20 53 0 60 2 60 20 0 18 -7 20 -60 20
-53 0 -60 -2 -60 -20z"/>
<path d="M8740 1010 c0 -18 7 -20 60 -20 53 0 60 2 60 20 0 18 -7 20 -60 20
-53 0 -60 -2 -60 -20z"/>
<path d="M8980 1010 c0 -18 7 -20 60 -20 53 0 60 2 60 20 0 18 -7 20 -60 20
-53 0 -60 -2 -60 -20z"/>
<path d="M9220 1010 c0 -18 7 -20 60 -20 53 0 60 2 60 20 0 18 -7 20 -60 20
-53 0 -60 -2 -60 -20z"/>
<path d="M9460 1010 c0 -18 7 -20 60 -20 53 0 60 2 60 20 0 18 -7 20 -60 20
-53 0 -60 -2 -60 -20z"/>
<path d="M9700 1010 c0 -18 7 -20 60 -20 53 0 60 2 60 20 0 18 -7 20 -60 20
-53 0 -60 -2 -60 -20z"/>
<path d="M9940 1010 c0 -18 7 -20 60 -20 53 0 60 2 60 20 0 18 -7 20 -60 20
-53 0 -60 -2 -60 -20z"/>
<path d="M10180 1010 c0 -18 7 -20 60 -20 53 0 60 2 60 20 0 18 -7 20 -60 20
-53 0 -60 -2 -60 -20z"/>
<path d="M10420 1010 c0 -18 7 -20 60 -20 53 0 60 2 60 20 0 18 -7 20 -60 20
-53 0 -60 -2 -60 -20z"/>
<path d="M10660 1010 c0 -18 7 -20 60 -20 53 0 60 2 60 20 0 18 -7 20 -60 20
-53 0 -60 -2 -60 -20z"/>
<path d="M10900 1010 c0 -18 7 -20 60 -20 53 0 60 2 60 20 0 18 -7 20 -60 20
-53 0 -60 -2 -60 -20z"/>
<path d="M6110 905 c0 -96 3 -115 15 -115 12 0 15 16 15 80 0 88 17 120 63
120 39 0 47 -18 47 -112 0 -81 2 -88 20 -88 19 0 20 7 20 90 0 83 -2 93 -25
115 -28 29 -70 32 -103 9 -20 -14 -22 -14 -22 0 0 9 -7 16 -15 16 -12 0 -15
-19 -15 -115z"/>
<path d="M6366 999 c-52 -41 -27 -88 57 -110 52 -13 67 -30 47 -54 -20 -24
-66 -18 -89 11 -20 26 -41 25 -41 -1 0 -7 12 -23 26 -34 67 -52 178 3 147 72
-8 18 -27 28 -72 41 -66 18 -79 29 -61 51 18 22 66 18 90 -7 16 -18 23 -19 33
-9 10 10 6 17 -16 37 -35 30 -85 31 -121 3z"/>
<path d="M6580 1000 c0 -13 7 -20 20 -20 13 0 20 7 20 20 0 13 -7 20 -20 20
-13 0 -20 -7 -20 -20z"/>
<path d="M6910 905 c0 -108 1 -115 20 -115 18 0 20 7 20 83 0 90 13 117 58
117 41 0 52 -25 52 -116 0 -68 3 -84 15 -84 12 0 15 17 15 91 0 50 -5 99 -10
109 -15 27 -74 36 -105 16 -30 -20 -35 -20 -35 -1 0 8 -7 15 -15 15 -12 0 -15
-19 -15 -115z"/>
<path d="M7205 1011 c-41 -17 -60 -50 -60 -106 0 -63 28 -101 82 -111 69 -13
123 35 123 110 0 87 -69 137 -145 107z m81 -36 c41 -28 36 -122 -6 -145 -52
-28 -100 8 -100 75 0 71 55 107 106 70z"/>
<path d="M7396 943 c13 -43 29 -95 35 -115 7 -26 15 -38 28 -38 14 0 23 18 41
86 14 50 26 80 30 72 4 -7 15 -46 25 -85 14 -58 21 -73 36 -73 15 0 25 22 53
112 20 62 33 114 31 116 -14 15 -34 -16 -54 -88 -27 -91 -30 -90 -56 18 -13
56 -21 72 -35 72 -14 0 -23 -18 -41 -85 -12 -47 -25 -85 -29 -85 -4 0 -10 14
-14 30 -17 88 -38 140 -56 140 -17 0 -16 -5 6 -77z"/>
<path d="M7720 905 c0 -108 1 -115 20 -115 18 0 20 7 20 83 0 90 13 117 58
117 36 0 52 -37 52 -122 0 -63 3 -78 15 -78 22 0 22 182 -1 204 -25 26 -63 30
-100 13 -29 -15 -34 -15 -34 -2 0 8 -7 15 -15 15 -12 0 -15 -19 -15 -115z"/>
<path d="M8280 1007 c-27 -14 -35 -36 -26 -73 5 -19 18 -27 67 -41 64 -18 80
-33 59 -58 -23 -28 -100 -12 -100 20 0 15 -21 20 -33 9 -11 -11 15 -52 40 -63
77 -35 168 25 128 85 -9 14 -36 29 -69 38 -61 18 -74 30 -56 51 19 22 66 19
84 -6 20 -29 52 -19 36 11 -20 38 -83 51 -130 27z"/>
<path d="M6580 810 c0 -13 7 -20 20 -20 13 0 20 7 20 20 0 13 -7 20 -20 20
-13 0 -20 -7 -20 -20z"/>
</g>
</svg>
