<svg version="1.1" id="Layer_1" xmlns="http://www.w3.org/2000/svg" xmlns:xlink="http://www.w3.org/1999/xlink" x="0px" y="0px"
	 width="100%" viewBox="0 0 800 324" enable-background="new 0 0 800 324" xml:space="preserve">
<path fill="#FEFEFE" opacity="1.000000" stroke="none" 
	d="
M630.000000,325.000000 
	C420.000000,325.000000 210.500000,325.000000 1.000000,325.000000 
	C1.000000,217.000000 1.000000,109.000000 1.000000,1.000000 
	C267.666656,1.000000 534.333313,1.000000 801.000000,1.000000 
	C801.000000,109.000000 801.000000,217.000000 801.000000,325.000000 
	C744.166687,325.000000 687.333313,325.000000 630.000000,325.000000 
M266.500000,42.000973 
	C191.406219,42.000973 116.312439,42.000973 41.292362,42.000973 
	C41.292362,83.647377 41.292362,124.718597 41.292362,165.711777 
	C281.319519,165.711777 521.055176,165.711777 760.716919,165.711777 
	C760.716919,124.353233 760.716919,83.282616 760.716919,42.000973 
	C596.116272,42.000973 431.808136,42.000973 266.500000,42.000973 
M319.643280,217.248169 
	C318.198029,209.509552 309.996185,209.262695 304.535370,214.661072 
	C299.657471,209.915009 297.046387,209.740463 291.044434,213.403793 
	C289.650238,212.384079 288.407623,211.475204 286.239075,209.889130 
	C286.239075,219.108948 286.140625,226.905457 286.362122,234.692871 
	C286.390228,235.681000 288.093781,236.621475 289.865204,238.460175 
	C290.215332,230.912430 290.287689,225.115234 290.827026,219.361801 
	C291.136627,216.058899 293.642029,214.532883 296.852020,214.659393 
	C300.394470,214.799026 301.027710,217.413651 301.052917,220.289505 
	C301.093781,224.946838 300.906769,229.615494 301.204163,234.254486 
	C301.276031,235.375519 302.866516,236.399200 303.758636,237.467636 
	C304.221924,237.148926 304.685242,236.830215 305.148529,236.511490 
	C305.148529,231.217484 305.003632,225.918137 305.198364,220.631302 
	C305.332855,216.981125 307.431213,214.662643 311.204285,214.662567 
	C315.317932,214.662476 315.816010,217.649658 315.791351,220.919098 
	C315.751556,226.194229 315.780670,231.469849 315.780670,236.745270 
	C316.280975,237.010345 316.781311,237.275421 317.281616,237.540512 
	C318.109741,236.388062 319.596527,235.266678 319.652588,234.077835 
	C319.902924,228.767197 319.745056,223.437302 319.643280,217.248169 
M637.058838,231.367691 
	C637.058838,221.752090 637.058838,212.136505 637.058838,201.911285 
	C634.815125,202.251129 632.856445,203.082916 631.159790,202.712891 
	C623.483032,201.038651 621.248535,202.532074 620.589417,210.180298 
	C619.375732,210.918854 618.255188,211.600769 617.134583,212.282700 
	C618.073364,213.127441 619.263855,213.822678 619.879639,214.859299 
	C620.486694,215.881271 620.737610,217.245865 620.754333,218.465469 
	C620.837524,224.563629 620.792358,230.663528 620.792358,236.762817 
	C621.313599,237.016251 621.834839,237.269699 622.356079,237.523132 
	C623.160278,236.358734 624.615723,235.218384 624.659790,234.025894 
	C624.892151,227.734283 624.768738,221.429520 624.768738,215.795868 
	C626.877930,214.562180 628.463196,213.634949 630.048401,212.707733 
	C629.831726,212.256531 629.615051,211.805344 629.398376,211.354141 
	C627.867798,211.072693 626.337158,210.791245 624.929260,210.532349 
	C623.771790,203.518265 631.494690,207.594711 633.048950,203.759155 
	C633.048950,214.688385 633.048950,225.617630 633.048950,236.517365 
	C636.955872,236.816879 636.955872,236.816879 637.058838,231.367691 
M346.968506,218.715591 
	C343.273468,210.385544 338.161163,208.878159 331.050568,213.441177 
	C329.640411,212.386215 328.415680,211.469955 326.432373,209.986176 
	C326.432373,223.092804 326.432373,234.865158 326.432373,246.839539 
	C327.728851,246.839539 328.833679,246.839539 330.370422,246.839539 
	C330.370422,242.768295 330.370422,238.851852 330.370422,234.757462 
	C336.965515,237.688507 341.138519,237.419235 344.343811,233.632523 
	C347.828796,229.515488 348.348938,224.635147 346.968506,218.715591 
M583.314270,212.557236 
	C577.816956,216.630386 577.462708,222.284683 578.693726,228.274490 
	C579.607971,232.723282 582.398987,236.080200 586.878174,236.665833 
	C590.881287,237.189209 595.054810,236.409531 599.229492,236.201004 
	C599.229492,225.007645 599.229492,213.705276 599.229492,202.192734 
	C598.012451,202.192734 596.907227,202.192734 595.396973,202.192734 
	C595.396973,206.097885 595.396973,209.860962 595.396973,212.147385 
	C591.279175,212.147385 587.622681,212.147385 583.314270,212.557236 
M689.818420,215.965958 
	C687.597595,210.684784 682.976624,210.671112 678.457825,211.161972 
	C674.423096,211.600266 670.767578,213.061340 669.700623,219.283340 
	C671.783264,218.338638 673.367859,218.114746 674.082458,217.206406 
	C676.610962,213.992371 679.885925,214.032715 683.069214,215.201904 
	C684.383179,215.684509 685.560364,217.678879 685.888062,219.184097 
	C686.032654,219.848236 684.042725,221.474274 682.782227,221.842194 
	C680.255920,222.579544 677.493958,222.501480 674.958313,223.216995 
	C671.334229,224.239624 668.636841,226.426315 668.955261,230.659851 
	C669.278381,234.956360 672.394897,236.861526 676.096252,236.838730 
	C679.424438,236.818253 682.744995,235.554291 685.893616,234.876556 
	C687.234924,235.654099 688.762390,236.539505 689.975647,237.242798 
	C689.975647,229.950089 689.975647,223.354782 689.818420,215.965958 
M406.415588,214.600418 
	C408.078522,216.101013 409.741486,217.601624 411.404419,219.102234 
	C409.650818,220.140900 407.992554,221.430817 406.115143,222.143188 
	C404.443573,222.777451 402.487518,222.614822 400.730804,223.081558 
	C396.863800,224.108994 393.896973,226.252838 394.260590,230.695648 
	C394.629395,235.201935 398.025909,237.038300 401.962250,236.891296 
	C405.156158,236.772049 408.304535,235.432480 411.197266,234.703644 
	C412.539246,235.588455 414.027557,236.569748 415.584229,237.596100 
	C415.584229,231.082855 415.676056,225.466293 415.559235,219.854065 
	C415.434296,213.852295 413.353271,211.626007 407.666412,211.011429 
	C400.959930,210.286652 396.835907,212.683868 395.313812,218.909302 
	C396.877869,218.428757 398.118896,218.180969 399.242706,217.673599 
	C401.376648,216.710159 403.443481,215.598099 406.415588,214.600418 
M183.374847,229.666443 
	C184.777161,237.673309 190.563446,239.192902 199.797791,234.473434 
	C201.703445,235.565765 203.295654,236.478409 204.747726,237.310730 
	C204.747726,231.068039 204.791214,225.790604 204.736526,220.514206 
	C204.670380,214.132904 202.982468,211.982727 197.509186,211.090942 
	C191.100540,210.046768 186.316971,212.563248 184.057205,219.600204 
	C186.399216,218.329437 187.912430,217.936707 188.769043,216.965088 
	C191.598755,213.755524 195.004593,214.075119 198.283157,215.477783 
	C199.423553,215.965668 200.347763,218.038559 200.443726,219.450546 
	C200.494720,220.200897 198.677750,221.482315 197.500534,221.824844 
	C195.291458,222.467606 192.922562,222.537842 190.642090,222.963791 
	C187.171051,223.612076 184.350418,225.113037 183.374847,229.666443 
M258.281067,226.113297 
	C259.835052,233.391052 263.108704,236.655380 269.209473,237.010666 
	C274.743317,237.332932 278.327881,234.782028 280.733948,227.623169 
	C278.486877,228.640259 276.655609,228.874680 275.984406,229.882050 
	C273.783722,233.184952 270.918396,234.167923 267.388519,232.918610 
	C263.875916,231.675430 262.413361,228.969040 262.838074,224.787445 
	C268.956573,224.787445 274.880127,224.787445 280.867371,224.787445 
	C280.917908,218.794342 279.479370,214.111877 273.787048,211.841003 
	C265.322754,208.464371 258.514130,214.368668 258.281067,226.113297 
M158.085571,228.436569 
	C158.086319,230.431915 157.756958,232.506607 158.210495,234.393097 
	C158.486603,235.541611 159.969864,236.399918 160.910904,237.388565 
	C161.356171,237.047806 161.801453,236.707062 162.246719,236.366302 
	C162.246719,231.065857 161.997467,225.749741 162.329391,220.470169 
	C162.573685,216.584656 165.262711,214.536636 169.117233,214.645447 
	C172.895523,214.752090 174.140366,217.265060 174.096848,220.739029 
	C174.042694,225.061554 174.244141,229.392975 174.035660,233.706070 
	C173.868286,237.168839 175.271942,237.645493 178.053482,236.634750 
	C178.053482,230.593170 178.300980,224.767899 177.987671,218.972946 
	C177.635910,212.466705 172.546555,209.428619 166.374634,211.685089 
	C165.042816,212.171997 163.758148,212.787842 161.937592,213.563293 
	C161.937592,209.452560 161.937592,205.868774 161.937592,202.284973 
	C161.437668,202.031281 160.937744,201.777573 160.437820,201.523880 
	C159.653961,202.683456 158.224152,203.825134 158.191406,205.005539 
	C157.984039,212.482285 158.085815,219.967575 158.085571,228.436569 
M359.456360,211.608810 
	C353.040405,214.443390 350.496246,219.433563 351.605988,227.006699 
	C352.442719,232.717056 356.179047,236.369736 361.796478,236.969009 
	C367.435150,237.570526 371.298523,235.008118 373.986267,227.720901 
	C371.688751,228.676254 369.825867,228.850113 369.190002,229.824615 
	C367.023193,233.145325 364.198029,234.164368 360.637054,232.942047 
	C357.067810,231.716934 355.572479,229.017746 355.971588,224.833984 
	C362.047852,224.833984 367.979614,224.833984 373.893433,224.833984 
	C373.915955,214.760452 369.378021,210.413071 359.456360,211.608810 
M482.797394,230.575699 
	C482.164490,228.933945 481.531616,227.292191 480.601410,224.879120 
	C487.397247,224.879120 493.432434,224.879120 499.451202,224.879120 
	C499.245239,216.021271 495.630127,211.409180 489.012878,210.987625 
	C482.746948,210.588440 477.752167,215.132507 477.038879,221.881210 
	C476.160858,230.188217 479.745514,235.777542 486.672974,236.903107 
	C492.745056,237.889694 497.393738,234.818497 499.004883,227.838440 
	C497.165863,228.597092 495.549683,228.776764 494.740906,229.679672 
	C490.688049,234.204086 488.432983,234.593582 482.797394,230.575699 
M455.658661,234.090759 
	C455.658661,226.477371 455.658661,218.863983 455.658661,210.915680 
	C453.965302,211.064102 452.761993,211.169571 451.099030,211.315323 
	C451.099030,217.143982 451.344818,222.624557 451.015076,228.070297 
	C450.784210,231.882965 447.908325,233.429428 444.351379,233.280518 
	C440.771271,233.130630 439.665253,230.660599 439.667755,227.450150 
	C439.671265,222.963440 439.543457,218.472641 439.698059,213.991394 
	C439.812256,210.681076 438.259613,210.422272 435.633820,211.343613 
	C435.633820,217.492203 435.354126,223.630249 435.716980,229.730072 
	C436.042480,235.201279 441.218048,238.319244 446.514069,236.662964 
	C447.921600,236.222763 449.231689,235.471039 450.550568,234.878464 
	C452.272095,235.719254 453.871979,239.891907 455.658661,234.090759 
M122.617577,212.822128 
	C118.041290,218.198090 119.191185,222.589096 125.794189,224.822769 
	C127.203331,225.299454 128.838135,225.330124 130.066345,226.069199 
	C131.940384,227.196884 135.172424,229.061157 134.983200,230.088959 
	C134.286713,233.872116 130.767059,233.824860 127.814346,233.064346 
	C126.253960,232.662445 125.062943,230.974701 123.581856,230.069183 
	C122.425323,229.362091 121.078667,228.965988 118.711327,227.963898 
	C122.089417,236.744873 129.831268,239.525940 135.833969,235.159988 
	C137.677490,233.819138 139.414627,230.745514 139.222137,228.646805 
	C139.036865,226.626770 136.559616,224.467667 134.592621,223.067581 
	C132.930923,221.884842 130.401260,221.992004 128.545044,220.991516 
	C126.801102,220.051575 125.435921,218.408875 123.904091,217.075378 
	C126.047180,216.286911 128.157043,215.048447 130.346436,214.886719 
	C131.567383,214.796539 132.854263,216.622391 134.234558,217.351883 
	C135.399445,217.967529 136.741852,218.247299 138.928802,218.988663 
	C135.825333,211.055466 131.303940,209.539352 122.617577,212.822128 
M223.992294,222.483658 
	C222.074310,221.945374 220.016724,221.677979 218.282059,220.783997 
	C216.866714,220.054626 215.837250,218.576431 214.636688,217.430252 
	C216.039719,216.486816 217.483643,214.723450 218.836288,214.790863 
	C220.897690,214.893646 222.907562,216.236420 224.916656,217.105087 
	C226.154266,217.640213 227.349701,218.272858 229.583527,219.356064 
	C227.173477,211.798233 221.107483,209.065689 215.252960,212.083481 
	C213.253296,213.114212 211.059387,215.908295 211.000519,217.955536 
	C210.942917,219.959122 213.077530,222.681000 215.001724,223.920715 
	C217.416260,225.476334 220.675049,225.657532 223.407974,226.813675 
	C224.544617,227.294510 226.027939,228.805542 225.972382,229.768402 
	C225.908539,230.874710 224.503265,232.457779 223.349457,232.843872 
	C219.784958,234.036621 216.539536,233.664429 214.255661,229.954941 
	C213.674942,229.011795 211.935791,228.781876 209.781891,227.786667 
	C212.363205,235.891174 217.665970,238.484909 224.266022,236.374619 
	C227.783600,235.249939 230.136337,233.151810 230.295883,229.326019 
	C230.454010,225.533844 228.177734,223.583420 223.992294,222.483658 
M573.875122,226.556030 
	C570.141785,224.686829 566.342163,222.935638 562.706726,220.892273 
	C561.181519,220.035004 560.004150,218.558914 558.668701,217.364166 
	C560.420715,216.424103 562.148254,214.806885 563.931946,214.742432 
	C565.577515,214.682922 567.270264,216.316544 568.967224,217.153702 
	C570.180176,217.752060 571.434448,218.266586 573.659485,219.260315 
	C570.829041,210.996735 562.124939,208.623444 556.963074,213.203079 
	C553.505005,216.271103 553.965820,221.560715 558.097168,223.667496 
	C560.284790,224.783081 562.804749,225.238342 565.158691,226.038773 
	C567.387268,226.796570 571.096252,226.887589 569.813843,230.256989 
	C569.199768,231.870438 565.651611,232.962692 563.348938,233.127838 
	C561.822144,233.237350 560.170227,231.245956 558.531311,230.267014 
	C557.321716,229.544479 556.042725,228.938095 554.794678,228.279968 
	C556.298828,235.388382 560.491089,237.918427 566.465759,236.889526 
	C572.041748,235.929291 574.312622,233.057648 573.875122,226.556030 
M657.516174,211.673523 
	C649.789307,209.917252 644.239685,213.019867 642.638794,219.990753 
	C640.711731,228.382141 644.422119,235.410553 651.535400,236.843033 
	C656.928894,237.929169 662.537415,234.875839 664.411926,229.832855 
	C667.139954,222.494049 664.799072,215.651611 657.516174,211.673523 
M533.784607,236.656860 
	C535.877625,233.508316 537.970642,230.359772 539.980591,227.336166 
	C544.568848,229.744431 543.684998,238.002380 551.655457,236.802948 
	C548.623962,232.221817 543.906494,228.176514 543.728088,223.940094 
	C543.556091,219.854950 548.070251,215.572479 550.616760,211.220871 
	C543.703308,209.657867 544.156006,217.176788 540.317261,219.260437 
	C532.870483,211.067322 532.870483,211.067322 530.007324,211.735107 
	C532.632996,215.640015 535.217651,219.483841 537.887329,223.454239 
	C534.982361,227.829193 532.106384,232.160431 528.930481,236.943420 
	C530.796326,236.943420 531.943726,236.943420 533.784607,236.656860 
M114.054214,226.507324 
	C114.052444,224.011566 114.163574,221.509583 114.026581,219.021271 
	C113.690407,212.914948 108.649910,209.484848 102.862724,211.450897 
	C101.320633,211.974792 99.926208,212.933365 98.962692,213.433487 
	C97.566277,212.497025 96.220993,211.594864 94.078346,210.157959 
	C94.078346,219.172485 94.145622,226.651611 94.048508,234.128601 
	C94.003418,237.599716 95.599518,237.444550 98.286194,236.339386 
	C98.286194,230.897720 98.036407,225.567551 98.368324,220.273819 
	C98.616341,216.318161 101.395432,214.436752 105.253761,214.652969 
	C109.079353,214.867340 110.118530,217.518036 110.084557,220.914444 
	C110.041306,225.240005 110.185455,229.569962 110.041512,233.891129 
	C109.938324,236.988983 111.207191,237.547180 114.054222,236.594666 
	C114.054222,233.430893 114.054222,230.456726 114.054214,226.507324 
M253.356934,201.988663 
	C246.921066,201.988663 240.485199,201.988663 233.920807,201.988663 
	C233.920807,203.504807 233.920807,204.587830 233.920807,206.161804 
	C237.675613,206.161804 241.242218,206.161804 245.006760,206.161804 
	C245.006760,215.605118 245.102905,224.560791 244.954987,233.512421 
	C244.902695,236.676575 245.900787,237.690338 249.288055,236.497253 
	C249.288055,226.436310 249.288055,216.376038 249.288055,206.001373 
	C253.130508,206.001373 256.566803,206.001373 260.395844,206.001373 
	C260.309204,204.469971 260.242371,203.288895 260.168793,201.988663 
	C257.957794,201.988663 256.133545,201.988663 253.356934,201.988663 
M419.971283,212.472534 
	C424.204926,215.507156 422.940369,220.016586 423.078857,224.138092 
	C423.140198,225.963730 423.071838,227.793335 423.092865,229.620804 
	C423.169250,236.257355 425.041656,237.742126 432.796967,236.215164 
	C423.595032,230.769958 428.157562,222.463547 427.040924,215.943344 
	C428.722198,214.619781 429.963440,213.642654 431.204681,212.665527 
	C429.937317,211.804977 428.669922,210.944427 427.146271,209.909851 
	C427.067078,208.205185 426.969177,206.098038 426.871277,203.990891 
	C426.455811,203.796158 426.040314,203.601440 425.624847,203.406723 
	C424.780090,204.833008 424.001373,206.304153 423.071991,207.672989 
	C422.142639,209.041794 421.062622,210.308304 419.971283,212.472534 
M706.133728,234.063049 
	C702.524658,233.203720 701.474792,230.984650 701.842163,227.333618 
	C702.238647,223.392502 701.931824,219.380630 701.931824,215.949677 
	C703.565491,214.629547 704.801025,213.631119 706.036560,212.632675 
	C704.745178,211.739288 703.453796,210.845917 702.023071,209.856155 
	C701.930847,208.094040 701.822754,206.027725 701.714600,203.961426 
	C701.307373,203.782974 700.900085,203.604538 700.492859,203.426086 
	C699.652588,204.725021 697.892334,206.246979 698.143188,207.281433 
	C698.923584,210.500656 695.200500,210.651382 695.087891,212.153091 
	C694.967224,213.763260 697.063965,215.461319 697.901855,217.256912 
	C698.284180,218.076385 697.961548,219.222092 697.968933,220.219757 
	C697.999573,224.375732 697.532654,228.627884 698.302734,232.642471 
	C698.632019,234.359055 701.431458,235.774628 703.363647,236.881439 
	C703.810242,237.137268 705.302429,235.567703 706.133728,234.063049 
M387.493286,211.110901 
	C385.000458,211.324890 382.507660,211.538879 379.815369,211.769989 
	C379.815369,219.743362 379.815369,228.170471 379.815369,236.956558 
	C381.083099,236.861008 382.253693,236.772781 383.801971,236.656097 
	C383.801971,230.961151 383.625580,225.657013 383.864990,220.371719 
	C384.020325,216.941605 385.299774,214.222870 389.704041,214.710175 
	C390.650604,214.814880 391.732971,213.692337 392.752777,213.135132 
	C392.659729,212.747177 392.566681,212.359222 392.473602,211.971283 
	C391.087646,211.642273 389.701660,211.313278 387.493286,211.110901 
M462.228027,232.248550 
	C462.444122,234.573196 461.090088,238.201691 466.267670,236.636871 
	C466.267670,231.754807 466.036560,226.797134 466.341797,221.872696 
	C466.580048,218.029724 467.039581,213.902740 472.870422,214.819489 
	C473.620636,214.937439 474.592987,213.642487 475.462433,213.002060 
	C475.258850,212.381454 475.055298,211.760849 474.851715,211.140228 
	C472.049103,211.522171 469.246460,211.904099 466.445343,212.285828 
	C465.471405,211.881149 464.138062,211.327118 462.228058,210.533478 
	C462.228058,218.072510 462.228058,224.687012 462.228027,232.248550 
M461.463623,282.000946 
	C459.372498,282.000946 457.281403,282.000946 455.234924,282.000946 
	C455.234924,283.567841 455.234924,284.633301 455.234924,285.816498 
	C459.183289,285.816498 462.902863,285.816498 466.969055,285.816498 
	C466.871918,284.445282 466.789764,283.285553 466.698761,282.000946 
	C465.022369,282.000946 463.718414,282.000946 461.463623,282.000946 
M417.225311,285.996094 
	C417.945526,284.893799 418.665771,283.791504 419.667847,282.257904 
	C414.612305,282.257904 410.889496,282.257904 407.247009,282.257904 
	C407.247009,283.584381 407.247009,284.650696 407.247009,285.998810 
	C410.419525,285.998810 413.356110,285.998810 417.225311,285.996094 
M442.170837,285.953613 
	C442.477356,284.747314 442.783905,283.541016 443.113586,282.243713 
	C438.648895,282.243713 434.927643,282.243713 431.226929,282.243713 
	C431.226929,283.554718 431.226929,284.620239 431.226929,285.996094 
	C434.700562,285.996094 437.963470,285.996094 442.170837,285.953613 
M224.293427,282.001190 
	C221.356171,282.001190 218.418900,282.001190 215.289459,282.001190 
	C215.289459,283.454254 215.289459,284.615936 215.289459,285.771423 
	C219.298691,285.771423 223.020538,285.771423 228.096802,285.771423 
	C226.768982,284.028625 225.997711,283.016296 224.293427,282.001190 
M394.181061,282.046570 
	C390.589630,282.046570 386.998199,282.046570 383.032318,282.046570 
	C383.122528,283.525421 383.193420,284.687378 383.273407,285.998901 
	C386.427643,285.998901 389.235168,285.777618 391.991394,286.058899 
	C394.968689,286.362732 395.289307,284.884888 394.181061,282.046570 
M369.225067,285.996063 
	C369.945221,284.893707 370.665375,283.791351 371.667145,282.257904 
	C366.610443,282.257904 362.887787,282.257904 359.246399,282.257904 
	C359.246399,283.584534 359.246399,284.651001 359.246399,285.998810 
	C362.416199,285.998810 365.354340,285.998810 369.225067,285.996063 
M340.537323,285.999054 
	C342.628479,285.999054 344.719666,285.999054 346.767487,285.999054 
	C346.767487,284.425323 346.767487,283.365417 346.767487,282.183258 
	C342.819702,282.183258 339.099976,282.183258 335.032379,282.183258 
	C335.129089,283.551575 335.211151,284.712616 335.302063,285.999023 
	C336.978485,285.999023 338.282471,285.999023 340.537323,285.999054 
M320.298065,285.998810 
	C324.070160,286.309418 323.048920,284.150085 322.628113,282.139862 
	C311.070099,281.711060 311.070099,281.711060 311.554077,285.999054 
	C314.127960,285.999054 316.738159,285.999054 320.298065,285.998810 
M298.994354,284.465179 
	C298.176208,283.644073 297.417908,282.200348 296.529053,282.114868 
	C293.470795,281.820892 290.366852,282.001892 286.956787,282.001892 
	C287.126923,283.630310 287.248657,284.795654 287.405029,286.292542 
	C291.505188,285.976471 295.218292,285.690247 298.994354,284.465179 
M264.775909,282.004395 
	C264.055939,283.106567 263.335999,284.208710 262.334412,285.742004 
	C267.390198,285.742004 271.113129,285.742004 274.754578,285.742004 
	C274.754578,284.415131 274.754578,283.348511 274.754578,282.001465 
	C271.581848,282.001465 268.645111,282.001465 264.775909,282.004395 
M242.652863,282.001068 
	C239.659195,281.787842 237.638657,282.301636 239.719986,285.858032 
	C243.332138,285.858032 246.920883,285.858032 250.715302,285.858032 
	C250.715302,284.552429 250.715302,283.390900 250.715302,282.000977 
	C248.154633,282.000977 245.870605,282.000977 242.652863,282.001068 
M485.467712,285.999054 
	C487.233917,285.999054 489.000122,285.999054 491.099152,285.999054 
	C490.890991,284.330750 490.745544,283.165009 490.621338,282.169617 
	C486.591553,282.169617 483.001526,282.169617 479.039948,282.169617 
	C479.120544,283.521729 479.189758,284.682800 479.268219,285.999054 
	C481.268585,285.999054 482.900940,285.999054 485.467712,285.999054 
M507.587006,285.998993 
	C510.006134,285.998993 512.425232,285.998993 514.751587,285.998993 
	C514.751587,284.408752 514.751587,283.342316 514.751587,282.198120 
	C510.784454,282.198120 507.063263,282.198120 503.381592,282.198120 
	C502.013306,285.831360 503.960602,286.257141 507.587006,285.998993 
M537.229797,282.003845 
	C533.967712,282.003845 530.705566,282.003845 527.036560,282.003845 
	C527.112183,283.499420 527.170898,284.660339 527.226379,285.757874 
	C531.339172,285.757874 535.059021,285.757874 539.346680,285.757874 
	C538.875366,284.269257 538.523254,283.157135 537.229797,282.003845 
M556.538025,285.999054 
	C558.628967,285.999054 560.719910,285.999054 562.768677,285.999054 
	C562.768677,284.425842 562.768677,283.366028 562.768677,282.183258 
	C558.821655,282.183258 555.102234,282.183258 551.034058,282.183258 
	C551.130554,283.551117 551.212463,284.711731 551.303284,285.999023 
	C552.979614,285.999023 554.283447,285.999023 556.538025,285.999054 
M576.778870,282.005219 
	C576.059326,283.106720 575.339844,284.208191 574.338257,285.741577 
	C579.394165,285.741577 583.116333,285.741577 586.755859,285.741577 
	C586.755859,284.414398 586.755859,283.347931 586.755859,282.001801 
	C583.585876,282.001801 580.648438,282.001801 576.778870,282.005219 
M609.226074,285.996124 
	C609.946655,284.894196 610.667175,283.792236 611.670471,282.257904 
	C606.614746,282.257904 602.892517,282.257904 599.249268,282.257904 
	C599.249268,283.583923 599.249268,284.649780 599.249268,285.998840 
	C602.418396,285.998840 605.355896,285.998840 609.226074,285.996124 
M627.587830,285.999023 
	C630.006714,285.999023 632.425598,285.999023 634.752808,285.999023 
	C634.752808,284.409241 634.752808,283.342896 634.752808,282.198120 
	C630.786255,282.198120 627.065369,282.198120 623.383179,282.198120 
	C622.015442,285.830200 623.961792,286.256714 627.587830,285.999023 
M751.350830,282.000946 
	C748.607666,282.000946 745.864441,282.000946 741.822937,282.000946 
	C745.686096,288.573242 750.841675,284.597992 754.545166,286.201721 
	C754.886353,285.674438 755.227539,285.147156 755.568726,284.619873 
	C754.478577,283.746979 753.388428,282.874084 751.350830,282.000946 
M654.422363,285.999054 
	C655.860291,285.999054 657.298279,285.999054 659.063293,285.999054 
	C658.883301,284.359161 658.755432,283.194153 658.641418,282.155609 
	C654.637207,282.155609 651.051514,282.155609 647.052490,282.155609 
	C647.113159,283.487091 647.166016,284.646149 647.227722,285.999054 
	C649.559937,285.999054 651.515320,285.999054 654.422363,285.999054 
M674.659729,285.998901 
	C677.403137,285.998901 680.146606,285.998901 684.169983,285.998901 
	C680.346497,279.395264 675.174683,283.423615 671.482422,281.796295 
	C671.152161,282.331940 670.821960,282.867584 670.491699,283.403229 
	C671.565674,284.268311 672.639648,285.133392 674.659729,285.998901 
M705.230591,285.996094 
	C705.952515,284.895355 706.674438,283.794647 707.682678,282.257385 
	C702.622070,282.257385 698.899780,282.257385 695.252991,282.257385 
	C695.252991,283.582428 695.252991,284.647797 695.252991,285.998810 
	C698.424866,285.998810 701.361084,285.998810 705.230591,285.996094 
M729.234985,282.003937 
	C725.974182,282.003937 722.713379,282.003937 719.045654,282.003937 
	C719.123840,283.502197 719.184326,284.661652 719.241455,285.756836 
	C723.352783,285.756836 727.071411,285.756836 731.357727,285.756836 
	C730.883972,284.267639 730.530457,283.156403 729.234985,282.003937 
M42.534744,168.006058 
	C41.818279,171.843430 41.101810,175.680801 40.282406,180.069519 
	C42.594658,179.865616 43.759182,179.762924 44.999027,179.653595 
	C44.999027,177.468384 45.197285,175.636337 44.946297,173.868057 
	C44.664680,171.883987 43.976944,169.957596 42.534744,168.006058 
M761.012024,196.579865 
	C761.012024,195.141769 761.012024,193.703674 761.012024,191.934662 
	C759.367432,192.120605 758.201294,192.252441 757.166382,192.369446 
	C757.166382,196.374313 757.166382,199.959946 757.166382,203.946793 
	C758.502075,203.887863 759.663147,203.836639 761.012024,203.777130 
	C761.012024,201.444641 761.012024,199.488510 761.012024,196.579865 
M41.046722,192.819519 
	C41.046722,196.411163 41.046722,200.002808 41.046722,203.968689 
	C42.525074,203.878754 43.687424,203.808044 44.998856,203.728256 
	C44.998856,200.572968 44.777565,197.765793 45.058788,195.009918 
	C45.362545,192.033218 43.885590,191.711227 41.046722,192.819519 
M44.403931,227.930054 
	C44.672810,224.084351 44.941685,220.238663 45.238110,215.998993 
	C43.436157,216.132751 42.274857,216.218948 41.001915,216.313446 
	C41.001915,219.637222 40.813618,222.608475 41.115017,225.529190 
	C41.207157,226.422089 42.644253,227.176208 44.403931,227.930054 
M757.009277,225.294769 
	C756.709656,229.047272 758.854309,228.059723 760.740967,227.655151 
	C760.740967,223.568146 760.740967,219.846954 760.740967,216.125763 
	C760.293152,215.886841 759.845276,215.647919 759.397461,215.408981 
	C758.601379,216.579498 757.405640,217.657349 757.107483,218.943329 
	C756.709595,220.659561 757.009033,222.537415 757.009277,225.294769 
M757.008911,172.587067 
	C757.008911,175.005127 757.008911,177.423203 757.008911,179.749939 
	C758.606323,179.749939 759.672607,179.749939 760.814575,179.749939 
	C760.814575,175.780396 760.814575,172.059082 760.814575,168.375320 
	C757.186035,167.018158 756.748901,168.956253 757.008911,172.587067 
M191.006073,283.534821 
	C191.824295,284.355896 192.582642,285.799652 193.471573,285.885071 
	C196.529953,286.179077 199.633972,285.998077 203.044006,285.998077 
	C202.873901,284.369690 202.752136,283.204132 202.595764,281.707336 
	C198.493835,282.023590 194.781357,282.309814 191.006073,283.534821 
M44.999004,243.652390 
	C45.213154,240.657547 44.698101,238.638519 41.141838,240.718689 
	C41.141838,244.331039 41.141838,247.919968 41.141838,251.715057 
	C42.447300,251.715057 43.608833,251.715057 44.999023,251.715057 
	C44.999023,249.156998 44.999023,246.871597 44.999004,243.652390 
M757.008972,248.345459 
	C756.790771,251.349182 757.326904,253.343170 760.871704,251.282593 
	C760.871704,247.669968 760.871704,244.081436 760.871704,240.284851 
	C759.562500,240.284851 758.403198,240.284851 757.008911,240.284851 
	C757.008911,242.846191 757.008911,245.129333 757.008972,248.345459 
M42.534725,264.006073 
	C41.818272,267.843445 41.101818,271.680817 40.282429,276.069519 
	C42.594677,275.865601 43.759201,275.762909 44.999027,275.653564 
	C44.999027,273.467712 45.197289,271.635986 44.946308,269.868011 
	C44.664654,267.883972 43.976940,265.957581 42.534725,264.006073 
M761.008667,274.231018 
	C761.008667,270.968872 761.008667,267.706726 761.008667,264.032379 
	C759.516602,264.108978 758.354248,264.168671 757.251831,264.225250 
	C757.251831,268.334381 757.251831,272.052612 757.251831,276.344757 
	C758.742920,275.874146 759.854553,275.523285 761.008667,274.231018 
M58.170212,285.953461 
	C58.476700,284.747131 58.783184,283.540802 59.112747,282.243652 
	C54.647499,282.243652 50.925964,282.243652 47.225555,282.243652 
	C47.225555,283.554871 47.225555,284.620728 47.225555,285.996033 
	C50.699368,285.996033 53.962551,285.996033 58.170212,285.953461 
M81.224838,285.996033 
	C81.944878,284.893585 82.664909,283.791138 83.666298,282.257904 
	C78.610756,282.257904 74.887642,282.257904 71.245743,282.257904 
	C71.245743,283.593201 71.245743,284.652557 71.245743,285.998810 
	C74.418510,285.998810 77.355377,285.998810 81.224838,285.996033 
M97.706573,285.998810 
	C100.643837,285.998810 103.581093,285.998810 106.710556,285.998810 
	C106.710556,284.545746 106.710556,283.384033 106.710556,282.228546 
	C102.701324,282.228546 98.979462,282.228546 93.903236,282.228546 
	C95.254791,284.002533 96.014168,284.999268 97.706573,285.998810 
M121.706558,285.998810 
	C124.643814,285.998810 127.581078,285.998810 130.710556,285.998810 
	C130.710556,284.545776 130.710556,283.384064 130.710556,282.228546 
	C126.701103,282.228546 122.979027,282.228546 117.903259,282.228546 
	C119.254807,284.002533 120.014183,284.999268 121.706558,285.998810 
M152.297836,285.998810 
	C156.070038,286.308960 155.048523,284.149780 154.627411,282.139618 
	C143.069183,281.711548 143.069183,281.711548 143.553436,285.999054 
	C146.130188,285.999054 148.739136,285.999054 152.297836,285.998810 
M167.069962,285.403931 
	C170.915649,285.672821 174.761337,285.941711 179.001007,286.238129 
	C178.867447,284.439117 178.781097,283.275970 178.686523,282.001892 
	C175.362122,282.001892 172.391174,281.813599 169.470795,282.114990 
	C168.577881,282.207153 167.823776,283.644257 167.069962,285.403931 
M612.096558,233.737000 
	C610.788269,232.991348 609.479919,232.245697 607.621948,231.186768 
	C607.621948,233.921982 607.621948,235.320587 607.621948,236.719177 
	C608.004150,237.054321 608.386292,237.389465 608.768494,237.724609 
	C609.879150,236.649963 610.989868,235.575317 612.096558,233.737000 
M149.350113,237.043732 
	C149.859161,235.496140 150.368210,233.948547 151.042374,231.898941 
	C148.671402,232.022217 147.426208,232.086960 146.181015,232.151703 
	C145.806778,232.551865 145.432556,232.952026 145.058319,233.352173 
	C146.223022,234.590042 147.387741,235.827896 149.350113,237.043732 
M607.401306,215.307968 
	C608.745422,216.028351 610.089539,216.748749 611.908569,217.723663 
	C611.908569,215.073273 611.908569,213.657013 611.908569,212.240738 
	C611.559692,211.896988 611.210754,211.553253 610.861877,211.209503 
	C609.705688,212.306274 608.549438,213.403046 607.401306,215.307968 
M146.986862,211.996475 
	C146.516464,213.511047 146.046051,215.025635 145.409821,217.074173 
	C147.619522,216.959167 148.987503,216.887985 150.463181,216.811188 
	C150.433075,214.405029 151.874939,211.596817 146.986862,211.996475 
M506.223022,233.639877 
	C505.711121,237.734894 508.087585,237.261810 510.940826,236.705292 
	C510.861786,235.036072 510.795258,233.630386 510.700745,231.634338 
	C508.953979,232.092163 507.629120,232.439423 506.223022,233.639877 
M508.575012,211.934906 
	C507.561920,213.239151 506.548828,214.543381 504.839172,216.744385 
	C507.972687,216.744385 509.338440,216.744385 511.799255,216.744385 
	C510.796783,214.705292 510.119019,213.326721 508.575012,211.934906 
z"/>
<path fill="#000000" opacity="1.000000" stroke="none" 
	d="
M267.000000,42.000973 
	C431.808136,42.000973 596.116272,42.000973 760.716919,42.000973 
	C760.716919,83.282616 760.716919,124.353233 760.716919,165.711777 
	C521.055176,165.711777 281.319519,165.711777 41.292362,165.711777 
	C41.292362,124.718597 41.292362,83.647377 41.292362,42.000973 
	C116.312439,42.000973 191.406219,42.000973 267.000000,42.000973 
M456.500000,161.999832 
	C556.595337,161.999832 656.690613,161.999832 756.721497,161.999832 
	C756.721497,123.026894 756.721497,84.622658 756.721497,46.284077 
	C519.363586,46.284077 282.294617,46.284077 45.287758,46.284077 
	C45.287758,84.973495 45.287758,123.378334 45.287758,161.999832 
	C182.216812,161.999832 318.858398,161.999832 456.500000,161.999832 
z"/>
<path fill="#1B1B1B" opacity="1.000000" stroke="none" 
	d="
M319.688965,217.681274 
	C319.745056,223.437302 319.902924,228.767197 319.652588,234.077835 
	C319.596527,235.266678 318.109741,236.388062 317.281616,237.540512 
	C316.781311,237.275421 316.280975,237.010345 315.780670,236.745270 
	C315.780670,231.469849 315.751556,226.194229 315.791351,220.919098 
	C315.816010,217.649658 315.317932,214.662476 311.204285,214.662567 
	C307.431213,214.662643 305.332855,216.981125 305.198364,220.631302 
	C305.003632,225.918137 305.148529,231.217484 305.148529,236.511490 
	C304.685242,236.830215 304.221924,237.148926 303.758636,237.467636 
	C302.866516,236.399200 301.276031,235.375519 301.204163,234.254486 
	C300.906769,229.615494 301.093781,224.946838 301.052917,220.289505 
	C301.027710,217.413651 300.394470,214.799026 296.852020,214.659393 
	C293.642029,214.532883 291.136627,216.058899 290.827026,219.361801 
	C290.287689,225.115234 290.215332,230.912430 289.865204,238.460175 
	C288.093781,236.621475 286.390228,235.681000 286.362122,234.692871 
	C286.140625,226.905457 286.239075,219.108948 286.239075,209.889130 
	C288.407623,211.475204 289.650238,212.384079 291.044434,213.403793 
	C297.046387,209.740463 299.657471,209.915009 304.535370,214.661072 
	C309.996185,209.262695 318.198029,209.509552 319.688965,217.681274 
z"/>
<path fill="#181818" opacity="1.000000" stroke="none" 
	d="
M637.058838,231.851044 
	C636.955872,236.816879 636.955872,236.816879 633.048950,236.517365 
	C633.048950,225.617630 633.048950,214.688385 633.048950,203.759155 
	C631.494690,207.594711 623.771790,203.518265 624.929260,210.532349 
	C626.337158,210.791245 627.867798,211.072693 629.398376,211.354141 
	C629.615051,211.805344 629.831726,212.256531 630.048401,212.707733 
	C628.463196,213.634949 626.877930,214.562180 624.768738,215.795868 
	C624.768738,221.429520 624.892151,227.734283 624.659790,234.025894 
	C624.615723,235.218384 623.160278,236.358734 622.356079,237.523132 
	C621.834839,237.269699 621.313599,237.016251 620.792358,236.762817 
	C620.792358,230.663528 620.837524,224.563629 620.754333,218.465469 
	C620.737610,217.245865 620.486694,215.881271 619.879639,214.859299 
	C619.263855,213.822678 618.073364,213.127441 617.134583,212.282684 
	C618.255188,211.600769 619.375732,210.918854 620.589417,210.180298 
	C621.248535,202.532074 623.483032,201.038651 631.159790,202.712891 
	C632.856445,203.082916 634.815125,202.251129 637.058838,201.911285 
	C637.058838,212.136505 637.058838,221.752090 637.058838,231.851044 
z"/>
<path fill="#1B1B1B" opacity="1.000000" stroke="none" 
	d="
M347.058289,219.107117 
	C348.348938,224.635147 347.828796,229.515488 344.343811,233.632523 
	C341.138519,237.419235 336.965515,237.688507 330.370422,234.757462 
	C330.370422,238.851852 330.370422,242.768295 330.370422,246.839539 
	C328.833679,246.839539 327.728851,246.839539 326.432373,246.839539 
	C326.432373,234.865158 326.432373,223.092804 326.432373,209.986176 
	C328.415680,211.469955 329.640411,212.386215 331.050568,213.441177 
	C338.161163,208.878159 343.273468,210.385544 347.058289,219.107117 
M338.979004,215.005096 
	C334.287354,213.701035 331.723724,216.106018 330.375000,220.186569 
	C328.721283,225.189713 330.341736,230.951614 333.676056,232.691101 
	C336.904541,234.375381 340.748383,233.060226 342.491180,229.675049 
	C344.885986,225.023453 343.747223,219.045425 338.979004,215.005096 
z"/>
<path fill="#101010" opacity="1.000000" stroke="none" 
	d="
M583.640259,212.352310 
	C587.622681,212.147385 591.279175,212.147385 595.396973,212.147385 
	C595.396973,209.860962 595.396973,206.097885 595.396973,202.192734 
	C596.907227,202.192734 598.012451,202.192734 599.229492,202.192734 
	C599.229492,213.705276 599.229492,225.007645 599.229492,236.201004 
	C595.054810,236.409531 590.881287,237.189209 586.878174,236.665833 
	C582.398987,236.080200 579.607971,232.723282 578.693726,228.274490 
	C577.462708,222.284683 577.816956,216.630386 583.640259,212.352310 
M587.765137,214.680725 
	C581.740479,217.418106 579.985718,227.493530 584.872559,231.736465 
	C587.635193,234.135010 591.538696,234.580643 593.158447,231.584534 
	C594.948059,228.274277 595.331482,223.858368 595.204529,219.960617 
	C595.091614,216.497086 592.204102,214.629807 587.765137,214.680725 
z"/>
<path fill="#141414" opacity="1.000000" stroke="none" 
	d="
M689.897034,216.362732 
	C689.975647,223.354782 689.975647,229.950089 689.975647,237.242798 
	C688.762390,236.539505 687.234924,235.654099 685.893616,234.876556 
	C682.744995,235.554291 679.424438,236.818253 676.096252,236.838730 
	C672.394897,236.861526 669.278381,234.956360 668.955261,230.659851 
	C668.636841,226.426315 671.334229,224.239624 674.958313,223.216995 
	C677.493958,222.501480 680.255920,222.579544 682.782227,221.842194 
	C684.042725,221.474274 686.032654,219.848236 685.888062,219.184097 
	C685.560364,217.678879 684.383179,215.684509 683.069214,215.201904 
	C679.885925,214.032715 676.610962,213.992371 674.082458,217.206406 
	C673.367859,218.114746 671.783264,218.338638 669.700623,219.283340 
	C670.767578,213.061340 674.423096,211.600266 678.457825,211.161972 
	C682.976624,210.671112 687.597595,210.684784 689.897034,216.362732 
M686.054810,225.530762 
	C682.702332,225.856476 679.285461,225.903809 676.031738,226.656403 
	C674.866333,226.925949 673.295410,228.951355 673.369751,230.079132 
	C673.443237,231.193985 675.191589,232.732437 676.498779,233.137283 
	C681.508850,234.688934 685.310303,231.883804 686.054810,225.530762 
z"/>
<path fill="#181818" opacity="1.000000" stroke="none" 
	d="
M405.976868,214.574097 
	C403.443481,215.598099 401.376648,216.710159 399.242706,217.673599 
	C398.118896,218.180969 396.877869,218.428757 395.313812,218.909302 
	C396.835907,212.683868 400.959930,210.286652 407.666412,211.011429 
	C413.353271,211.626007 415.434296,213.852295 415.559235,219.854065 
	C415.676056,225.466293 415.584229,231.082855 415.584229,237.596100 
	C414.027557,236.569748 412.539246,235.588455 411.197266,234.703644 
	C408.304535,235.432480 405.156158,236.772049 401.962250,236.891296 
	C398.025909,237.038300 394.629395,235.201935 394.260590,230.695648 
	C393.896973,226.252838 396.863800,224.108994 400.730804,223.081558 
	C402.487518,222.614822 404.443573,222.777451 406.115143,222.143188 
	C407.992554,221.430817 409.650818,220.140900 411.404419,219.102234 
	C409.741486,217.601624 408.078522,216.101013 405.976868,214.574097 
M403.676453,226.044006 
	C401.949890,227.254272 400.135193,228.370316 398.610596,229.796509 
	C398.424347,229.970749 399.780273,232.709198 400.446533,232.720047 
	C403.274506,232.766113 406.479736,232.922623 408.821594,231.675888 
	C410.489624,230.787872 411.000580,227.726395 412.560699,224.550217 
	C408.688538,225.251740 406.610321,225.628265 403.676453,226.044006 
z"/>
<path fill="#161616" opacity="1.000000" stroke="none" 
	d="
M183.440674,229.301163 
	C184.350418,225.113037 187.171051,223.612076 190.642090,222.963791 
	C192.922562,222.537842 195.291458,222.467606 197.500534,221.824844 
	C198.677750,221.482315 200.494720,220.200897 200.443726,219.450546 
	C200.347763,218.038559 199.423553,215.965668 198.283157,215.477783 
	C195.004593,214.075119 191.598755,213.755524 188.769043,216.965088 
	C187.912430,217.936707 186.399216,218.329437 184.057205,219.600204 
	C186.316971,212.563248 191.100540,210.046768 197.509186,211.090942 
	C202.982468,211.982727 204.670380,214.132904 204.736526,220.514206 
	C204.791214,225.790604 204.747726,231.068039 204.747726,237.310730 
	C203.295654,236.478409 201.703445,235.565765 199.797791,234.473434 
	C190.563446,239.192902 184.777161,237.673309 183.440674,229.301163 
M196.998581,232.622147 
	C198.489044,230.434250 199.979492,228.246353 201.469940,226.058456 
	C201.052353,225.677933 200.634766,225.297409 200.217178,224.916885 
	C197.981796,225.279617 195.754028,225.701782 193.509048,225.989670 
	C190.840714,226.331848 187.554810,226.439957 187.822647,230.019302 
	C188.110947,233.871979 191.484299,233.544632 194.348419,233.301331 
	C195.003967,233.245636 195.646973,233.042389 196.998581,232.622147 
z"/>
<path fill="#131313" opacity="1.000000" stroke="none" 
	d="
M258.275391,225.693695 
	C258.514130,214.368668 265.322754,208.464371 273.787048,211.841003 
	C279.479370,214.111877 280.917908,218.794342 280.867371,224.787445 
	C274.880127,224.787445 268.956573,224.787445 262.838074,224.787445 
	C262.413361,228.969040 263.875916,231.675430 267.388519,232.918610 
	C270.918396,234.167923 273.783722,233.184952 275.984406,229.882050 
	C276.655609,228.874680 278.486877,228.640259 280.733948,227.623169 
	C278.327881,234.782028 274.743317,237.332932 269.209473,237.010666 
	C263.108704,236.655380 259.835052,233.391052 258.275391,225.693695 
M263.268768,218.289673 
	C263.656006,219.387390 263.986176,221.410172 264.439362,221.438110 
	C268.471832,221.686798 272.526031,221.582840 276.792358,221.582840 
	C274.607697,213.621048 269.258392,212.337570 263.268768,218.289673 
z"/>
<path fill="#181818" opacity="1.000000" stroke="none" 
	d="
M158.085571,227.943314 
	C158.085815,219.967575 157.984039,212.482285 158.191406,205.005539 
	C158.224152,203.825134 159.653961,202.683456 160.437820,201.523880 
	C160.937744,201.777573 161.437668,202.031281 161.937592,202.284973 
	C161.937592,205.868774 161.937592,209.452560 161.937592,213.563293 
	C163.758148,212.787842 165.042816,212.171997 166.374634,211.685089 
	C172.546555,209.428619 177.635910,212.466705 177.987671,218.972946 
	C178.300980,224.767899 178.053482,230.593170 178.053482,236.634750 
	C175.271942,237.645493 173.868286,237.168839 174.035660,233.706070 
	C174.244141,229.392975 174.042694,225.061554 174.096848,220.739029 
	C174.140366,217.265060 172.895523,214.752090 169.117233,214.645447 
	C165.262711,214.536636 162.573685,216.584656 162.329391,220.470169 
	C161.997467,225.749741 162.246719,231.065857 162.246719,236.366302 
	C161.801453,236.707062 161.356171,237.047806 160.910904,237.388565 
	C159.969864,236.399918 158.486603,235.541611 158.210495,234.393097 
	C157.756958,232.506607 158.086319,230.431915 158.085571,227.943314 
z"/>
<path fill="#101010" opacity="1.000000" stroke="none" 
	d="
M359.824402,211.451813 
	C369.378021,210.413071 373.915955,214.760452 373.893433,224.833984 
	C367.979614,224.833984 362.047852,224.833984 355.971588,224.833984 
	C355.572479,229.017746 357.067810,231.716934 360.637054,232.942047 
	C364.198029,234.164368 367.023193,233.145325 369.190002,229.824615 
	C369.825867,228.850113 371.688751,228.676254 373.986267,227.720901 
	C371.298523,235.008118 367.435150,237.570526 361.796478,236.969009 
	C356.179047,236.369736 352.442719,232.717056 351.605988,227.006699 
	C350.496246,219.433563 353.040405,214.443390 359.824402,211.451813 
M369.295654,221.319519 
	C370.241882,216.367371 366.954407,214.920670 363.162048,214.491379 
	C359.070618,214.028229 356.506104,216.805511 356.287994,221.571121 
	C360.374786,221.571121 364.451630,221.571121 369.295654,221.319519 
z"/>
<path fill="#131313" opacity="1.000000" stroke="none" 
	d="
M483.058533,230.886993 
	C488.432983,234.593582 490.688049,234.204086 494.740906,229.679672 
	C495.549683,228.776764 497.165863,228.597092 499.004883,227.838440 
	C497.393738,234.818497 492.745056,237.889694 486.672974,236.903107 
	C479.745514,235.777542 476.160858,230.188217 477.038879,221.881210 
	C477.752167,215.132507 482.746948,210.588440 489.012878,210.987625 
	C495.630127,211.409180 499.245239,216.021271 499.451202,224.879120 
	C493.432434,224.879120 487.397247,224.879120 480.601410,224.879120 
	C481.531616,227.292191 482.164490,228.933945 483.058533,230.886993 
M483.158295,216.630173 
	C482.451935,218.008652 481.745575,219.387146 480.826050,221.181595 
	C486.127747,221.181595 490.624451,221.181595 495.208557,221.181595 
	C493.707520,214.452896 490.113281,212.994736 483.158295,216.630173 
z"/>
<path fill="#2B2B2B" opacity="1.000000" stroke="none" 
	d="
M455.655212,234.548141 
	C453.871979,239.891907 452.272095,235.719254 450.550568,234.878464 
	C449.231689,235.471039 447.921600,236.222763 446.514069,236.662964 
	C441.218048,238.319244 436.042480,235.201279 435.716980,229.730072 
	C435.354126,223.630249 435.633820,217.492203 435.633820,211.343613 
	C438.259613,210.422272 439.812256,210.681076 439.698059,213.991394 
	C439.543457,218.472641 439.671265,222.963440 439.667755,227.450150 
	C439.665253,230.660599 440.771271,233.130630 444.351379,233.280518 
	C447.908325,233.429428 450.784210,231.882965 451.015076,228.070297 
	C451.344818,222.624557 451.099030,217.143982 451.099030,211.315323 
	C452.761993,211.169571 453.965302,211.064102 455.658661,210.915680 
	C455.658661,218.863983 455.658661,226.477371 455.655212,234.548141 
z"/>
<path fill="#161616" opacity="1.000000" stroke="none" 
	d="
M122.922104,212.593872 
	C131.303940,209.539352 135.825333,211.055466 138.928802,218.988663 
	C136.741852,218.247299 135.399445,217.967529 134.234558,217.351883 
	C132.854263,216.622391 131.567383,214.796539 130.346436,214.886719 
	C128.157043,215.048447 126.047180,216.286911 123.904091,217.075378 
	C125.435921,218.408875 126.801102,220.051575 128.545044,220.991516 
	C130.401260,221.992004 132.930923,221.884842 134.592621,223.067581 
	C136.559616,224.467667 139.036865,226.626770 139.222137,228.646805 
	C139.414627,230.745514 137.677490,233.819138 135.833969,235.159988 
	C129.831268,239.525940 122.089417,236.744873 118.711327,227.963898 
	C121.078667,228.965988 122.425323,229.362091 123.581856,230.069183 
	C125.062943,230.974701 126.253960,232.662445 127.814346,233.064346 
	C130.767059,233.824860 134.286713,233.872116 134.983200,230.088959 
	C135.172424,229.061157 131.940384,227.196884 130.066345,226.069199 
	C128.838135,225.330124 127.203331,225.299454 125.794189,224.822769 
	C119.191185,222.589096 118.041290,218.198090 122.922104,212.593872 
z"/>
<path fill="#151515" opacity="1.000000" stroke="none" 
	d="
M224.346832,222.628052 
	C228.177734,223.583420 230.454010,225.533844 230.295883,229.326019 
	C230.136337,233.151810 227.783600,235.249939 224.266022,236.374619 
	C217.665970,238.484909 212.363205,235.891174 209.781891,227.786667 
	C211.935791,228.781876 213.674942,229.011795 214.255661,229.954941 
	C216.539536,233.664429 219.784958,234.036621 223.349457,232.843872 
	C224.503265,232.457779 225.908539,230.874710 225.972382,229.768402 
	C226.027939,228.805542 224.544617,227.294510 223.407974,226.813675 
	C220.675049,225.657532 217.416260,225.476334 215.001724,223.920715 
	C213.077530,222.681000 210.942917,219.959122 211.000519,217.955536 
	C211.059387,215.908295 213.253296,213.114212 215.252960,212.083481 
	C221.107483,209.065689 227.173477,211.798233 229.583527,219.356064 
	C227.349701,218.272858 226.154266,217.640213 224.916656,217.105087 
	C222.907562,216.236420 220.897690,214.893646 218.836288,214.790863 
	C217.483643,214.723450 216.039719,216.486816 214.636688,217.430267 
	C215.837250,218.576431 216.866714,220.054626 218.282059,220.783997 
	C220.016724,221.677979 222.074310,221.945374 224.346832,222.628052 
z"/>
<path fill="#151515" opacity="1.000000" stroke="none" 
	d="
M573.987061,226.896454 
	C574.312622,233.057648 572.041748,235.929291 566.465759,236.889526 
	C560.491089,237.918427 556.298828,235.388382 554.794678,228.279968 
	C556.042725,228.938095 557.321716,229.544479 558.531311,230.267014 
	C560.170227,231.245956 561.822144,233.237350 563.348938,233.127838 
	C565.651611,232.962692 569.199768,231.870438 569.813843,230.256989 
	C571.096252,226.887589 567.387268,226.796570 565.158691,226.038773 
	C562.804749,225.238342 560.284790,224.783081 558.097168,223.667496 
	C553.965820,221.560715 553.505005,216.271103 556.963074,213.203079 
	C562.124939,208.623444 570.829041,210.996735 573.659485,219.260315 
	C571.434448,218.266586 570.180176,217.752060 568.967224,217.153702 
	C567.270264,216.316544 565.577515,214.682922 563.931946,214.742432 
	C562.148254,214.806885 560.420715,216.424103 558.668701,217.364166 
	C560.004150,218.558914 561.181519,220.035004 562.706726,220.892273 
	C566.342163,222.935638 570.141785,224.686829 573.987061,226.896454 
z"/>
<path fill="#161616" opacity="1.000000" stroke="none" 
	d="
M657.896912,211.787689 
	C664.799072,215.651611 667.139954,222.494049 664.411926,229.832855 
	C662.537415,234.875839 656.928894,237.929169 651.535400,236.843033 
	C644.422119,235.410553 640.711731,228.382141 642.638794,219.990753 
	C644.239685,213.019867 649.789307,209.917252 657.896912,211.787689 
M661.077209,226.120026 
	C660.986877,224.130630 661.189575,222.073242 660.746826,220.165619 
	C659.743835,215.842987 655.630188,213.577011 651.528320,214.968964 
	C646.541626,216.661209 646.172791,220.890839 646.373901,225.184692 
	C646.569885,229.366669 648.213867,232.791748 652.888672,233.308807 
	C657.455688,233.813965 660.042419,231.339996 661.077209,226.120026 
z"/>
<path fill="#141414" opacity="1.000000" stroke="none" 
	d="
M533.437866,236.800140 
	C531.943726,236.943420 530.796326,236.943420 528.930481,236.943420 
	C532.106384,232.160431 534.982361,227.829193 537.887329,223.454239 
	C535.217651,219.483841 532.632996,215.640015 530.007324,211.735107 
	C532.870483,211.067322 532.870483,211.067322 540.317261,219.260437 
	C544.156006,217.176788 543.703308,209.657867 550.616760,211.220871 
	C548.070251,215.572479 543.556091,219.854950 543.728088,223.940094 
	C543.906494,228.176514 548.623962,232.221817 551.655457,236.802948 
	C543.684998,238.002380 544.568848,229.744431 539.980591,227.336166 
	C537.970642,230.359772 535.877625,233.508316 533.437866,236.800140 
z"/>
<path fill="#1B1B1B" opacity="1.000000" stroke="none" 
	d="
M114.054214,226.994934 
	C114.054222,230.456726 114.054222,233.430893 114.054222,236.594666 
	C111.207191,237.547180 109.938324,236.988983 110.041512,233.891129 
	C110.185455,229.569962 110.041306,225.240005 110.084557,220.914444 
	C110.118530,217.518036 109.079353,214.867340 105.253761,214.652969 
	C101.395432,214.436752 98.616341,216.318161 98.368324,220.273819 
	C98.036407,225.567551 98.286194,230.897720 98.286194,236.339386 
	C95.599518,237.444550 94.003418,237.599716 94.048508,234.128601 
	C94.145622,226.651611 94.078346,219.172485 94.078346,210.157959 
	C96.220993,211.594864 97.566277,212.497025 98.962692,213.433487 
	C99.926208,212.933365 101.320633,211.974792 102.862724,211.450897 
	C108.649910,209.484848 113.690407,212.914948 114.026581,219.021271 
	C114.163574,221.509583 114.052444,224.011566 114.054214,226.994934 
z"/>
<path fill="#060606" opacity="1.000000" stroke="none" 
	d="
M253.833099,201.988663 
	C256.133545,201.988663 257.957794,201.988663 260.168793,201.988663 
	C260.242371,203.288895 260.309204,204.469971 260.395844,206.001373 
	C256.566803,206.001373 253.130508,206.001373 249.288055,206.001373 
	C249.288055,216.376038 249.288055,226.436310 249.288055,236.497253 
	C245.900787,237.690338 244.902695,236.676575 244.954987,233.512421 
	C245.102905,224.560791 245.006760,215.605118 245.006760,206.161804 
	C241.242218,206.161804 237.675613,206.161804 233.920807,206.161804 
	C233.920807,204.587830 233.920807,203.504807 233.920807,201.988663 
	C240.485199,201.988663 246.921066,201.988663 253.833099,201.988663 
z"/>
<path fill="#181818" opacity="1.000000" stroke="none" 
	d="
M420.009949,212.046097 
	C421.062622,210.308304 422.142639,209.041794 423.071991,207.672989 
	C424.001373,206.304153 424.780090,204.833008 425.624847,203.406723 
	C426.040314,203.601440 426.455811,203.796158 426.871277,203.990891 
	C426.969177,206.098038 427.067078,208.205185 427.146271,209.909851 
	C428.669922,210.944427 429.937317,211.804977 431.204681,212.665527 
	C429.963440,213.642654 428.722198,214.619781 427.040924,215.943344 
	C428.157562,222.463547 423.595032,230.769958 432.796967,236.215164 
	C425.041656,237.742126 423.169250,236.257355 423.092865,229.620804 
	C423.071838,227.793335 423.140198,225.963730 423.078857,224.138092 
	C422.940369,220.016586 424.204926,215.507156 420.009949,212.046097 
z"/>
<path fill="#181818" opacity="1.000000" stroke="none" 
	d="
M706.223633,234.450592 
	C705.302429,235.567703 703.810242,237.137268 703.363647,236.881439 
	C701.431458,235.774628 698.632019,234.359055 698.302734,232.642471 
	C697.532654,228.627884 697.999573,224.375732 697.968933,220.219757 
	C697.961548,219.222092 698.284180,218.076385 697.901855,217.256912 
	C697.063965,215.461319 694.967224,213.763260 695.087891,212.153091 
	C695.200500,210.651382 698.923584,210.500656 698.143188,207.281433 
	C697.892334,206.246979 699.652588,204.725021 700.492859,203.426086 
	C700.900085,203.604538 701.307373,203.782974 701.714600,203.961426 
	C701.822754,206.027725 701.930847,208.094040 702.023071,209.856155 
	C703.453796,210.845917 704.745178,211.739288 706.036560,212.632675 
	C704.801025,213.631119 703.565491,214.629547 701.931824,215.949677 
	C701.931824,219.380630 702.238647,223.392502 701.842163,227.333618 
	C701.474792,230.984650 702.524658,233.203720 706.223633,234.450592 
z"/>
<path fill="#181818" opacity="1.000000" stroke="none" 
	d="
M387.904480,211.047592 
	C389.701660,211.313278 391.087646,211.642273 392.473602,211.971283 
	C392.566681,212.359222 392.659729,212.747177 392.752777,213.135132 
	C391.732971,213.692337 390.650604,214.814880 389.704041,214.710175 
	C385.299774,214.222870 384.020325,216.941605 383.864990,220.371719 
	C383.625580,225.657013 383.801971,230.961151 383.801971,236.656097 
	C382.253693,236.772781 381.083099,236.861008 379.815369,236.956558 
	C379.815369,228.170471 379.815369,219.743362 379.815369,211.769989 
	C382.507660,211.538879 385.000458,211.324890 387.904480,211.047592 
z"/>
<path fill="#1F1F1F" opacity="1.000000" stroke="none" 
	d="
M462.228027,231.775024 
	C462.228058,224.687012 462.228058,218.072510 462.228058,210.533478 
	C464.138062,211.327118 465.471405,211.881149 466.445343,212.285828 
	C469.246460,211.904099 472.049103,211.522171 474.851715,211.140228 
	C475.055298,211.760849 475.258850,212.381454 475.462433,213.002060 
	C474.592987,213.642487 473.620636,214.937439 472.870422,214.819489 
	C467.039581,213.902740 466.580048,218.029724 466.341797,221.872696 
	C466.036560,226.797134 466.267670,231.754807 466.267670,236.636871 
	C461.090088,238.201691 462.444122,234.573196 462.228027,231.775024 
z"/>
<path fill="#000000" opacity="1.000000" stroke="none" 
	d="
M461.939056,282.000946 
	C463.718414,282.000946 465.022369,282.000946 466.698761,282.000946 
	C466.789764,283.285553 466.871918,284.445282 466.969055,285.816498 
	C462.902863,285.816498 459.183289,285.816498 455.234924,285.816498 
	C455.234924,284.633301 455.234924,283.567841 455.234924,282.000946 
	C457.281403,282.000946 459.372498,282.000946 461.939056,282.000946 
z"/>
<path fill="#000000" opacity="1.000000" stroke="none" 
	d="
M416.759033,285.997437 
	C413.356110,285.998810 410.419525,285.998810 407.247009,285.998810 
	C407.247009,284.650696 407.247009,283.584381 407.247009,282.257904 
	C410.889496,282.257904 414.612305,282.257904 419.667847,282.257904 
	C418.665771,283.791504 417.945526,284.893799 416.759033,285.997437 
z"/>
<path fill="#000000" opacity="1.000000" stroke="none" 
	d="
M441.698608,285.974854 
	C437.963470,285.996094 434.700562,285.996094 431.226929,285.996094 
	C431.226929,284.620239 431.226929,283.554718 431.226929,282.243713 
	C434.927643,282.243713 438.648895,282.243713 443.113586,282.243713 
	C442.783905,283.541016 442.477356,284.747314 441.698608,285.974854 
z"/>
<path fill="#000000" opacity="1.000000" stroke="none" 
	d="
M224.759933,282.002594 
	C225.997711,283.016296 226.768982,284.028625 228.096802,285.771423 
	C223.020538,285.771423 219.298691,285.771423 215.289459,285.771423 
	C215.289459,284.615936 215.289459,283.454254 215.289459,282.001190 
	C218.418900,282.001190 221.356171,282.001190 224.759933,282.002594 
z"/>
<path fill="#000000" opacity="1.000000" stroke="none" 
	d="
M394.556427,282.322754 
	C395.289307,284.884888 394.968689,286.362732 391.991394,286.058899 
	C389.235168,285.777618 386.427643,285.998901 383.273407,285.998901 
	C383.193420,284.687378 383.122528,283.525421 383.032318,282.046570 
	C386.998199,282.046570 390.589630,282.046570 394.556427,282.322754 
z"/>
<path fill="#000000" opacity="1.000000" stroke="none" 
	d="
M368.758789,285.997437 
	C365.354340,285.998810 362.416199,285.998810 359.246399,285.998810 
	C359.246399,284.651001 359.246399,283.584534 359.246399,282.257904 
	C362.887787,282.257904 366.610443,282.257904 371.667145,282.257904 
	C370.665375,283.791351 369.945221,284.893707 368.758789,285.997437 
z"/>
<path fill="#000000" opacity="1.000000" stroke="none" 
	d="
M340.061890,285.999023 
	C338.282471,285.999023 336.978485,285.999023 335.302063,285.999023 
	C335.211151,284.712616 335.129089,283.551575 335.032379,282.183258 
	C339.099976,282.183258 342.819702,282.183258 346.767487,282.183258 
	C346.767487,283.365417 346.767487,284.425323 346.767487,285.999054 
	C344.719666,285.999054 342.628479,285.999054 340.061890,285.999023 
z"/>
<path fill="#000000" opacity="1.000000" stroke="none" 
	d="
M319.823212,285.998932 
	C316.738159,285.999054 314.127960,285.999054 311.554077,285.999054 
	C311.070099,281.711060 311.070099,281.711060 322.628113,282.139862 
	C323.048920,284.150085 324.070160,286.309418 319.823212,285.998932 
z"/>
<path fill="#000000" opacity="1.000000" stroke="none" 
	d="
M298.962891,284.934601 
	C295.218292,285.690247 291.505188,285.976471 287.405029,286.292542 
	C287.248657,284.795654 287.126923,283.630310 286.956787,282.001892 
	C290.366852,282.001892 293.470795,281.820892 296.529053,282.114868 
	C297.417908,282.200348 298.176208,283.644073 298.962891,284.934601 
z"/>
<path fill="#000000" opacity="1.000000" stroke="none" 
	d="
M265.242126,282.002930 
	C268.645111,282.001465 271.581848,282.001465 274.754578,282.001465 
	C274.754578,283.348511 274.754578,284.415131 274.754578,285.742004 
	C271.113129,285.742004 267.390198,285.742004 262.334412,285.742004 
	C263.335999,284.208710 264.055939,283.106567 265.242126,282.002930 
z"/>
<path fill="#000000" opacity="1.000000" stroke="none" 
	d="
M243.119720,282.001038 
	C245.870605,282.000977 248.154633,282.000977 250.715302,282.000977 
	C250.715302,283.390900 250.715302,284.552429 250.715302,285.858032 
	C246.920883,285.858032 243.332138,285.858032 239.719986,285.858032 
	C237.638657,282.301636 239.659195,281.787842 243.119720,282.001038 
z"/>
<path fill="#000000" opacity="1.000000" stroke="none" 
	d="
M485.000488,285.999054 
	C482.900940,285.999054 481.268585,285.999054 479.268219,285.999054 
	C479.189758,284.682800 479.120544,283.521729 479.039948,282.169617 
	C483.001526,282.169617 486.591553,282.169617 490.621338,282.169617 
	C490.745544,283.165009 490.890991,284.330750 491.099152,285.999054 
	C489.000122,285.999054 487.233917,285.999054 485.000488,285.999054 
z"/>
<path fill="#000000" opacity="1.000000" stroke="none" 
	d="
M507.120117,285.998901 
	C503.960602,286.257141 502.013306,285.831360 503.381592,282.198120 
	C507.063263,282.198120 510.784454,282.198120 514.751587,282.198120 
	C514.751587,283.342316 514.751587,284.408752 514.751587,285.998993 
	C512.425232,285.998993 510.006134,285.998993 507.120117,285.998901 
z"/>
<path fill="#000000" opacity="1.000000" stroke="none" 
	d="
M537.700439,282.024445 
	C538.523254,283.157135 538.875366,284.269257 539.346680,285.757874 
	C535.059021,285.757874 531.339172,285.757874 527.226379,285.757874 
	C527.170898,284.660339 527.112183,283.499420 527.036560,282.003845 
	C530.705566,282.003845 533.967712,282.003845 537.700439,282.024445 
z"/>
<path fill="#000000" opacity="1.000000" stroke="none" 
	d="
M556.062622,285.999023 
	C554.283447,285.999023 552.979614,285.999023 551.303284,285.999023 
	C551.212463,284.711731 551.130554,283.551117 551.034058,282.183258 
	C555.102234,282.183258 558.821655,282.183258 562.768677,282.183258 
	C562.768677,283.366028 562.768677,284.425842 562.768677,285.999054 
	C560.719910,285.999054 558.628967,285.999054 556.062622,285.999023 
z"/>
<path fill="#000000" opacity="1.000000" stroke="none" 
	d="
M577.244873,282.003510 
	C580.648438,282.001801 583.585876,282.001801 586.755859,282.001801 
	C586.755859,283.347931 586.755859,284.414398 586.755859,285.741577 
	C583.116333,285.741577 579.394165,285.741577 574.338257,285.741577 
	C575.339844,284.208191 576.059326,283.106720 577.244873,282.003510 
z"/>
<path fill="#000000" opacity="1.000000" stroke="none" 
	d="
M608.759766,285.997498 
	C605.355896,285.998840 602.418396,285.998840 599.249268,285.998840 
	C599.249268,284.649780 599.249268,283.583923 599.249268,282.257904 
	C602.892517,282.257904 606.614746,282.257904 611.670471,282.257904 
	C610.667175,283.792236 609.946655,284.894196 608.759766,285.997498 
z"/>
<path fill="#000000" opacity="1.000000" stroke="none" 
	d="
M627.120972,285.998932 
	C623.961792,286.256714 622.015442,285.830200 623.383179,282.198120 
	C627.065369,282.198120 630.786255,282.198120 634.752808,282.198120 
	C634.752808,283.342896 634.752808,284.409241 634.752808,285.999023 
	C632.425598,285.999023 630.006714,285.999023 627.120972,285.998932 
z"/>
<path fill="#000000" opacity="1.000000" stroke="none" 
	d="
M751.824585,282.001068 
	C753.388428,282.874084 754.478577,283.746979 755.568726,284.619873 
	C755.227539,285.147156 754.886353,285.674438 754.545166,286.201721 
	C750.841675,284.597992 745.686096,288.573242 741.822937,282.000946 
	C745.864441,282.000946 748.607666,282.000946 751.824585,282.001068 
z"/>
<path fill="#000000" opacity="1.000000" stroke="none" 
	d="
M653.946533,285.999054 
	C651.515320,285.999054 649.559937,285.999054 647.227722,285.999054 
	C647.166016,284.646149 647.113159,283.487091 647.052490,282.155609 
	C651.051514,282.155609 654.637207,282.155609 658.641418,282.155609 
	C658.755432,283.194153 658.883301,284.359161 659.063293,285.999054 
	C657.298279,285.999054 655.860291,285.999054 653.946533,285.999054 
z"/>
<path fill="#000000" opacity="1.000000" stroke="none" 
	d="
M674.186646,285.998688 
	C672.639648,285.133392 671.565674,284.268311 670.491699,283.403229 
	C670.821960,282.867584 671.152161,282.331940 671.482422,281.796295 
	C675.174683,283.423615 680.346497,279.395264 684.169983,285.998901 
	C680.146606,285.998901 677.403137,285.998901 674.186646,285.998688 
z"/>
<path fill="#000000" opacity="1.000000" stroke="none" 
	d="
M704.763977,285.997437 
	C701.361084,285.998810 698.424866,285.998810 695.252991,285.998810 
	C695.252991,284.647797 695.252991,283.582428 695.252991,282.257385 
	C698.899780,282.257385 702.622070,282.257385 707.682678,282.257385 
	C706.674438,283.794647 705.952515,284.895355 704.763977,285.997437 
z"/>
<path fill="#000000" opacity="1.000000" stroke="none" 
	d="
M729.705933,282.024536 
	C730.530457,283.156403 730.883972,284.267639 731.357727,285.756836 
	C727.071411,285.756836 723.352783,285.756836 719.241455,285.756836 
	C719.184326,284.661652 719.123840,283.502197 719.045654,282.003937 
	C722.713379,282.003937 725.974182,282.003937 729.705933,282.024536 
z"/>
<path fill="#000000" opacity="1.000000" stroke="none" 
	d="
M43.000324,168.006073 
	C43.976944,169.957596 44.664680,171.883987 44.946297,173.868057 
	C45.197285,175.636337 44.999027,177.468384 44.999027,179.653595 
	C43.759182,179.762924 42.594658,179.865616 40.282406,180.069519 
	C41.101810,175.680801 41.818279,171.843430 43.000324,168.006073 
z"/>
<path fill="#010101" opacity="1.000000" stroke="none" 
	d="
M761.012024,197.056122 
	C761.012024,199.488510 761.012024,201.444641 761.012024,203.777130 
	C759.663147,203.836639 758.502075,203.887863 757.166382,203.946793 
	C757.166382,199.959946 757.166382,196.374313 757.166382,192.369446 
	C758.201294,192.252441 759.367432,192.120605 761.012024,191.934662 
	C761.012024,193.703674 761.012024,195.141769 761.012024,197.056122 
z"/>
<path fill="#000000" opacity="1.000000" stroke="none" 
	d="
M41.322887,192.444153 
	C43.885590,191.711227 45.362545,192.033218 45.058788,195.009918 
	C44.777565,197.765793 44.998856,200.572968 44.998856,203.728256 
	C43.687424,203.808044 42.525074,203.878754 41.046722,203.968689 
	C41.046722,200.002808 41.046722,196.411163 41.322887,192.444153 
z"/>
<path fill="#000000" opacity="1.000000" stroke="none" 
	d="
M43.934673,227.961975 
	C42.644253,227.176208 41.207157,226.422089 41.115017,225.529190 
	C40.813618,222.608475 41.001915,219.637222 41.001915,216.313446 
	C42.274857,216.218948 43.436157,216.132751 45.238110,215.998993 
	C44.941685,220.238663 44.672810,224.084351 43.934673,227.961975 
z"/>
<path fill="#010101" opacity="1.000000" stroke="none" 
	d="
M757.009155,224.820312 
	C757.009033,222.537415 756.709595,220.659561 757.107483,218.943329 
	C757.405640,217.657349 758.601379,216.579498 759.397461,215.408981 
	C759.845276,215.647919 760.293152,215.886841 760.740967,216.125763 
	C760.740967,219.846954 760.740967,223.568146 760.740967,227.655151 
	C758.854309,228.059723 756.709656,229.047272 757.009155,224.820312 
z"/>
<path fill="#010101" opacity="1.000000" stroke="none" 
	d="
M757.008911,172.120453 
	C756.748901,168.956253 757.186035,167.018158 760.814575,168.375320 
	C760.814575,172.059082 760.814575,175.780396 760.814575,179.749939 
	C759.672607,179.749939 758.606323,179.749939 757.008911,179.749939 
	C757.008911,177.423203 757.008911,175.005127 757.008911,172.120453 
z"/>
<path fill="#000000" opacity="1.000000" stroke="none" 
	d="
M191.037476,283.065430 
	C194.781357,282.309814 198.493835,282.023590 202.595764,281.707336 
	C202.752136,283.204132 202.873901,284.369690 203.044006,285.998077 
	C199.633972,285.998077 196.529953,286.179077 193.471573,285.885071 
	C192.582642,285.799652 191.824295,284.355896 191.037476,283.065430 
z"/>
<path fill="#000000" opacity="1.000000" stroke="none" 
	d="
M44.999016,244.119293 
	C44.999023,246.871597 44.999023,249.156998 44.999023,251.715057 
	C43.608833,251.715057 42.447300,251.715057 41.141838,251.715057 
	C41.141838,247.919968 41.141838,244.331039 41.141838,240.718689 
	C44.698101,238.638519 45.213154,240.657547 44.999016,244.119293 
z"/>
<path fill="#010101" opacity="1.000000" stroke="none" 
	d="
M757.008911,247.878967 
	C757.008911,245.129333 757.008911,242.846191 757.008911,240.284851 
	C758.403198,240.284851 759.562500,240.284851 760.871704,240.284851 
	C760.871704,244.081436 760.871704,247.669968 760.871704,251.282593 
	C757.326904,253.343170 756.790771,251.349182 757.008911,247.878967 
z"/>
<path fill="#000000" opacity="1.000000" stroke="none" 
	d="
M43.000309,264.006104 
	C43.976940,265.957581 44.664654,267.883972 44.946308,269.868011 
	C45.197289,271.635986 44.999027,273.467712 44.999027,275.653564 
	C43.759201,275.762909 42.594677,275.865601 40.282429,276.069519 
	C41.101818,271.680817 41.818272,267.843445 43.000309,264.006104 
z"/>
<path fill="#010101" opacity="1.000000" stroke="none" 
	d="
M760.987427,274.701721 
	C759.854553,275.523285 758.742920,275.874146 757.251831,276.344757 
	C757.251831,272.052612 757.251831,268.334381 757.251831,264.225250 
	C758.354248,264.168671 759.516602,264.108978 761.008667,264.032379 
	C761.008667,267.706726 761.008667,270.968872 760.987427,274.701721 
z"/>
<path fill="#000000" opacity="1.000000" stroke="none" 
	d="
M57.697975,285.974731 
	C53.962551,285.996033 50.699368,285.996033 47.225555,285.996033 
	C47.225555,284.620728 47.225555,283.554871 47.225555,282.243652 
	C50.925964,282.243652 54.647499,282.243652 59.112747,282.243652 
	C58.783184,283.540802 58.476700,284.747131 57.697975,285.974731 
z"/>
<path fill="#000000" opacity="1.000000" stroke="none" 
	d="
M80.758545,285.997437 
	C77.355377,285.998810 74.418510,285.998810 71.245743,285.998810 
	C71.245743,284.652557 71.245743,283.593201 71.245743,282.257904 
	C74.887642,282.257904 78.610756,282.257904 83.666298,282.257904 
	C82.664909,283.791138 81.944878,284.893585 80.758545,285.997437 
z"/>
<path fill="#000000" opacity="1.000000" stroke="none" 
	d="
M97.240067,285.997406 
	C96.014168,284.999268 95.254791,284.002533 93.903236,282.228546 
	C98.979462,282.228546 102.701324,282.228546 106.710556,282.228546 
	C106.710556,283.384033 106.710556,284.545746 106.710556,285.998810 
	C103.581093,285.998810 100.643837,285.998810 97.240067,285.997406 
z"/>
<path fill="#000000" opacity="1.000000" stroke="none" 
	d="
M121.240067,285.997406 
	C120.014183,284.999268 119.254807,284.002533 117.903259,282.228546 
	C122.979027,282.228546 126.701103,282.228546 130.710556,282.228546 
	C130.710556,283.384064 130.710556,284.545776 130.710556,285.998810 
	C127.581078,285.998810 124.643814,285.998810 121.240067,285.997406 
z"/>
<path fill="#000000" opacity="1.000000" stroke="none" 
	d="
M151.822968,285.998932 
	C148.739136,285.999054 146.130188,285.999054 143.553436,285.999054 
	C143.069183,281.711548 143.069183,281.711548 154.627411,282.139618 
	C155.048523,284.149780 156.070038,286.308960 151.822968,285.998932 
z"/>
<path fill="#000000" opacity="1.000000" stroke="none" 
	d="
M167.038025,284.934692 
	C167.823776,283.644257 168.577881,282.207153 169.470795,282.114990 
	C172.391174,281.813599 175.362122,282.001892 178.686523,282.001892 
	C178.781097,283.275970 178.867447,284.439117 179.001007,286.238129 
	C174.761337,285.941711 170.915649,285.672821 167.038025,284.934692 
z"/>
<path fill="#232323" opacity="1.000000" stroke="none" 
	d="
M612.098572,234.118835 
	C610.989868,235.575317 609.879150,236.649963 608.768494,237.724609 
	C608.386292,237.389465 608.004150,237.054321 607.621948,236.719177 
	C607.621948,235.320587 607.621948,233.921982 607.621948,231.186768 
	C609.479919,232.245697 610.788269,232.991348 612.098572,234.118835 
z"/>
<path fill="#232323" opacity="1.000000" stroke="none" 
	d="
M148.951279,237.054749 
	C147.387741,235.827896 146.223022,234.590042 145.058319,233.352173 
	C145.432556,232.952026 145.806778,232.551865 146.181015,232.151703 
	C147.426208,232.086960 148.671402,232.022217 151.042374,231.898941 
	C150.368210,233.948547 149.859161,235.496140 148.951279,237.054749 
z"/>
<path fill="#232323" opacity="1.000000" stroke="none" 
	d="
M607.397278,214.903900 
	C608.549438,213.403046 609.705688,212.306274 610.861877,211.209503 
	C611.210754,211.553253 611.559692,211.896988 611.908569,212.240738 
	C611.908569,213.657013 611.908569,215.073273 611.908569,217.723663 
	C610.089539,216.748749 608.745422,216.028351 607.397278,214.903900 
z"/>
<path fill="#232323" opacity="1.000000" stroke="none" 
	d="
M147.379303,211.966553 
	C151.874939,211.596817 150.433075,214.405029 150.463181,216.811188 
	C148.987503,216.887985 147.619522,216.959167 145.409821,217.074173 
	C146.046051,215.025635 146.516464,213.511047 147.379303,211.966553 
z"/>
<path fill="#232323" opacity="1.000000" stroke="none" 
	d="
M506.263641,233.213272 
	C507.629120,232.439423 508.953979,232.092163 510.700745,231.634338 
	C510.795258,233.630386 510.861786,235.036072 510.940826,236.705292 
	C508.087585,237.261810 505.711121,237.734894 506.263641,233.213272 
z"/>
<path fill="#232323" opacity="1.000000" stroke="none" 
	d="
M509.008148,211.941528 
	C510.119019,213.326721 510.796783,214.705292 511.799255,216.744385 
	C509.338440,216.744385 507.972687,216.744385 504.839172,216.744385 
	C506.548828,214.543381 507.561920,213.239151 509.008148,211.941528 
z"/>
<path fill="#FFFFFF" opacity="1.000000" stroke="none" 
	d="
M456.000000,161.999832 
	C318.858398,161.999832 182.216812,161.999832 45.287758,161.999832 
	C45.287758,123.378334 45.287758,84.973495 45.287758,46.284077 
	C282.294617,46.284077 519.363586,46.284077 756.721497,46.284077 
	C756.721497,84.622658 756.721497,123.026894 756.721497,161.999832 
	C656.690613,161.999832 556.595337,161.999832 456.000000,161.999832 
z"/>
<path fill="#F4F4F4" opacity="1.000000" stroke="none" 
	d="
M339.363220,215.138214 
	C343.747223,219.045425 344.885986,225.023453 342.491180,229.675049 
	C340.748383,233.060226 336.904541,234.375381 333.676056,232.691101 
	C330.341736,230.951614 328.721283,225.189713 330.375000,220.186569 
	C331.723724,216.106018 334.287354,213.701035 339.363220,215.138214 
z"/>
<path fill="#F2F2F2" opacity="1.000000" stroke="none" 
	d="
M588.172852,214.593719 
	C592.204102,214.629807 595.091614,216.497086 595.204529,219.960617 
	C595.331482,223.858368 594.948059,228.274277 593.158447,231.584534 
	C591.538696,234.580643 587.635193,234.135010 584.872559,231.736465 
	C579.985718,227.493530 581.740479,217.418106 588.172852,214.593719 
z"/>
<path fill="#EEEEEE" opacity="1.000000" stroke="none" 
	d="
M686.099731,225.953690 
	C685.310303,231.883804 681.508850,234.688934 676.498779,233.137283 
	C675.191589,232.732437 673.443237,231.193985 673.369751,230.079132 
	C673.295410,228.951355 674.866333,226.925949 676.031738,226.656403 
	C679.285461,225.903809 682.702332,225.856476 686.099731,225.953690 
z"/>
<path fill="#EEEEEE" opacity="1.000000" stroke="none" 
	d="
M404.104279,226.024384 
	C406.610321,225.628265 408.688538,225.251740 412.560699,224.550217 
	C411.000580,227.726395 410.489624,230.787872 408.821594,231.675888 
	C406.479736,232.922623 403.274506,232.766113 400.446533,232.720047 
	C399.780273,232.709198 398.424347,229.970749 398.610596,229.796509 
	C400.135193,228.370316 401.949890,227.254272 404.104279,226.024384 
z"/>
<path fill="#EEEEEE" opacity="1.000000" stroke="none" 
	d="
M196.647171,232.764603 
	C195.646973,233.042389 195.003967,233.245636 194.348419,233.301331 
	C191.484299,233.544632 188.110947,233.871979 187.822647,230.019302 
	C187.554810,226.439957 190.840714,226.331848 193.509048,225.989670 
	C195.754028,225.701782 197.981796,225.279617 200.217178,224.916885 
	C200.634766,225.297409 201.052353,225.677933 201.469940,226.058456 
	C199.979492,228.246353 198.489044,230.434250 196.647171,232.764603 
z"/>
<path fill="#E2E2E2" opacity="1.000000" stroke="none" 
	d="
M263.491760,217.955185 
	C269.258392,212.337570 274.607697,213.621048 276.792358,221.582840 
	C272.526031,221.582840 268.471832,221.686798 264.439362,221.438110 
	C263.986176,221.410172 263.656006,219.387390 263.491760,217.955185 
z"/>
<path fill="#E2E2E2" opacity="1.000000" stroke="none" 
	d="
M368.912079,221.445312 
	C364.451630,221.571121 360.374786,221.571121 356.287994,221.571121 
	C356.506104,216.805511 359.070618,214.028229 363.162048,214.491379 
	C366.954407,214.920670 370.241882,216.367371 368.912079,221.445312 
z"/>
<path fill="#E2E2E2" opacity="1.000000" stroke="none" 
	d="
M483.425476,216.376678 
	C490.113281,212.994736 493.707520,214.452896 495.208557,221.181595 
	C490.624451,221.181595 486.127747,221.181595 480.826050,221.181595 
	C481.745575,219.387146 482.451935,218.008652 483.425476,216.376678 
z"/>
<path fill="#F4F4F4" opacity="1.000000" stroke="none" 
	d="
M661.017090,226.542542 
	C660.042419,231.339996 657.455688,233.813965 652.888672,233.308807 
	C648.213867,232.791748 646.569885,229.366669 646.373901,225.184692 
	C646.172791,220.890839 646.541626,216.661209 651.528320,214.968964 
	C655.630188,213.577011 659.743835,215.842987 660.746826,220.165619 
	C661.189575,222.073242 660.986877,224.130630 661.017090,226.542542 
z"/>
</svg>