<svg version="1.1" id="Layer_1" xmlns="http://www.w3.org/2000/svg" xmlns:xlink="http://www.w3.org/1999/xlink" x="0px" y="0px"
	 width="100%" viewBox="0 0 1580 204" enable-background="new 0 0 1580 204" xml:space="preserve">
<path fill="#FFFFFF" opacity="1.000000" stroke="none" 
	d="
M1190.000000,205.000000 
	C793.333374,205.000000 397.166718,205.000000 1.000053,205.000000 
	C1.000036,137.000031 1.000036,69.000053 1.000018,1.000062 
	C527.666626,1.000041 1054.333252,1.000041 1581.000000,1.000021 
	C1581.000000,68.999939 1581.000000,136.999878 1581.000000,204.999908 
	C1450.833374,205.000000 1320.666626,205.000000 1190.000000,205.000000 
M978.500000,105.002274 
	C1020.226440,105.002274 1061.952881,105.002274 1104.186279,105.002274 
	C1100.830811,111.882347 1097.791382,118.114487 1094.236450,125.403793 
	C1109.171509,117.930176 1122.804565,111.108070 1137.094482,103.957298 
	C1137.094482,124.671272 1137.094482,144.709961 1137.094482,164.733093 
	C1271.988647,164.733093 1406.398560,164.733093 1540.785400,164.733093 
	C1540.785400,123.394447 1540.785400,82.325562 1540.785400,41.274143 
	C1406.103149,41.274143 1271.697144,41.274143 1136.971802,41.274143 
	C1136.971802,61.466846 1136.971802,81.385925 1136.971802,101.924477 
	C1122.777344,94.846024 1109.081177,88.016037 1094.188599,80.589401 
	C1097.854614,88.077408 1100.934570,94.368279 1104.180298,100.997726 
	C1101.672241,100.997726 1099.841187,100.997726 1098.010132,100.997726 
	C1018.344055,100.997726 938.677917,100.997719 859.011841,100.997734 
	C858.011841,100.997734 856.999878,101.097878 856.013977,100.979889 
	C852.575867,100.568405 852.719116,102.413788 853.350830,105.002274 
	C894.875366,105.002274 936.187683,105.002274 978.500000,105.002274 
M184.500000,165.001083 
	C271.256958,165.001083 358.013916,165.001083 445.075623,165.001083 
	C445.075623,148.674698 445.075623,132.907211 445.075623,116.866951 
	C451.934174,115.660561 455.393188,111.046555 457.310974,104.790375 
	C521.325439,104.790375 585.099670,104.790375 648.741394,104.790375 
	C650.063354,99.986961 646.792114,101.014786 644.516541,101.014069 
	C583.854736,100.995003 523.192932,100.998894 462.531158,100.998894 
	C460.737488,100.998894 458.943848,100.998894 456.964478,100.998894 
	C455.592041,94.152573 451.096008,90.576195 444.763916,88.705376 
	C444.763916,72.707619 444.763916,56.949165 444.763916,41.287643 
	C310.010437,41.287643 175.612656,41.287643 41.287926,41.287643 
	C41.287926,82.646957 41.287926,123.716888 41.287926,165.001083 
	C88.884422,165.001083 136.192215,165.001083 184.500000,165.001083 
M737.985107,115.337555 
	C740.440063,109.251953 740.809326,103.204811 736.207458,98.033943 
	C732.256042,93.593887 727.422363,94.427475 722.297058,97.638092 
	C722.297058,93.468338 722.297058,89.876228 722.297058,86.284126 
	C721.861755,85.992302 721.426453,85.700485 720.991150,85.408661 
	C720.077881,86.383049 718.388184,87.343697 718.370667,88.333923 
	C718.180115,99.108269 718.251465,109.887238 718.251465,121.852821 
	C720.442566,120.480919 721.804810,119.627975 723.151489,118.784782 
	C729.482727,122.409889 732.624451,121.822739 737.985107,115.337555 
M831.778015,114.385826 
	C831.833435,111.232307 831.794006,108.073547 831.967590,104.926544 
	C832.200195,100.708969 834.660889,98.532059 838.770447,98.647514 
	C842.901489,98.763588 843.829834,101.699463 843.808655,105.229042 
	C843.777893,110.365829 843.800781,115.502937 843.800781,120.991760 
	C845.240234,120.873817 846.426025,120.776657 847.777954,120.665894 
	C847.777954,115.608116 847.778259,110.968964 847.777771,106.329811 
	C847.777710,105.333290 847.823364,104.333969 847.765686,103.340714 
	C847.378174,96.669159 842.163513,93.284149 835.942627,95.696213 
	C834.618774,96.209511 833.376160,96.932388 832.937439,97.147041 
	C831.038879,96.091202 829.758301,95.379013 827.953308,94.375221 
	C827.953308,103.766998 827.953308,112.196068 827.953308,120.961693 
	C829.218872,120.871750 830.406555,120.787338 831.777893,120.689873 
	C831.777893,118.627319 831.777893,116.977005 831.778015,114.385826 
M792.678223,101.614563 
	C795.303101,100.756325 798.119812,98.932091 800.481262,99.400864 
	C801.905823,99.683662 803.301147,103.466759 803.517761,105.788208 
	C803.977539,110.716194 803.658081,115.716873 803.658081,120.687752 
	C804.130554,120.964539 804.603027,121.241325 805.075439,121.518120 
	C805.922607,120.393715 807.443542,119.302467 807.500793,118.139214 
	C807.754211,112.988655 807.817810,107.803673 807.511353,102.657280 
	C807.162048,96.792244 802.103638,93.581589 796.496582,95.410667 
	C794.963623,95.910736 793.551758,96.781708 792.993286,97.048409 
	C790.942871,96.084694 789.560181,95.434799 787.764587,94.590843 
	C787.764587,103.924072 787.764587,112.241295 787.764587,120.927834 
	C789.073486,120.852242 790.248230,120.784401 791.264343,120.725723 
	C791.618896,114.330696 791.949646,108.365974 792.678223,101.614563 
M684.072083,119.799904 
	C687.783020,119.838181 691.779236,120.725189 695.101807,119.608253 
	C697.221008,118.895836 699.481812,115.249443 699.553040,112.855263 
	C699.610657,110.919968 696.778564,108.476562 694.693848,107.027512 
	C692.888184,105.772385 690.197327,105.868752 688.150879,104.856194 
	C686.612183,104.094917 685.474548,102.523132 684.158386,101.312157 
	C685.755554,100.394928 687.367676,98.724892 688.945984,98.756210 
	C690.805359,98.793114 692.633057,100.309074 694.479126,101.173607 
	C695.706299,101.748276 696.941772,102.305244 699.147766,103.316902 
	C696.372192,94.889122 687.289062,92.520493 682.242798,97.427895 
	C678.896118,100.682487 679.551025,105.771667 683.827087,107.806396 
	C686.189575,108.930580 689.002930,109.113884 691.352173,110.257225 
	C693.020996,111.069466 694.254211,112.777039 695.681885,114.084976 
	C693.846130,115.204674 691.979370,117.259460 690.182739,117.199890 
	C688.086304,117.130371 686.066528,115.184052 683.983521,114.110130 
	C682.756470,113.477478 681.471252,112.957458 680.212219,112.386772 
	C679.899048,112.946396 679.585876,113.506020 679.272705,114.065643 
	C680.661438,115.834404 682.050171,117.603165 684.072083,119.799904 
M743.669250,108.410477 
	C743.697205,113.603531 745.304443,117.890442 750.477966,120.057114 
	C755.310059,122.080803 760.936462,120.747093 764.050842,116.895607 
	C767.186646,113.017609 767.597107,104.871681 764.885559,100.330956 
	C762.411438,96.187828 757.134277,94.067421 752.364380,95.299828 
	C746.650024,96.776260 744.165955,100.288658 743.669250,108.410477 
M674.235962,107.684380 
	C674.235962,106.522018 674.260254,105.359062 674.232056,104.197388 
	C674.036194,96.131592 668.251221,92.705681 660.968872,96.337502 
	C660.111572,96.765068 659.261230,97.206566 659.383545,97.144211 
	C657.436279,96.091263 656.199402,95.422462 654.467529,94.486000 
	C654.467529,103.887489 654.467529,112.305145 654.467529,120.838890 
	C655.801697,120.838890 656.916016,120.838890 658.506653,120.838890 
	C658.506653,115.170166 658.276306,109.688911 658.583008,104.237877 
	C658.808655,100.228043 661.667175,98.445786 665.468933,98.654274 
	C669.289856,98.863815 670.279114,101.581604 670.251831,104.947006 
	C670.216797,109.264061 670.367798,113.586136 670.208130,117.897507 
	C670.091125,121.055031 671.369629,121.684250 674.235901,120.559303 
	C674.235901,116.588188 674.235901,112.608582 674.235962,107.684380 
M819.451477,86.215492 
	C818.244751,86.215492 817.038025,86.215492 815.815491,86.215492 
	C815.815491,98.032433 815.815491,109.340553 815.815491,120.734314 
	C817.182922,120.734314 818.408997,120.734314 819.874939,120.734314 
	C819.874939,109.300056 819.874939,98.160263 819.451477,86.215492 
M774.533630,95.017372 
	C773.573975,95.707939 771.797852,96.377907 771.779846,97.092201 
	C771.580688,104.983742 771.654541,112.882172 771.654541,120.778732 
	C772.202148,121.026680 772.749756,121.274635 773.297302,121.522583 
	C774.068176,120.341370 775.416260,119.202019 775.505493,117.971375 
	C775.816589,113.681625 775.512512,109.348801 775.787537,105.054466 
	C776.024475,101.355545 776.940430,98.023125 782.035645,98.768791 
	C782.830444,98.885109 783.845520,97.495895 784.758789,96.802856 
	C784.539612,96.281593 784.320496,95.760323 784.101379,95.239059 
	C781.990845,95.487541 779.884827,95.796097 777.767517,95.954697 
	C776.930969,96.017357 776.069336,95.746170 774.533630,95.017372 
M710.307434,96.120583 
	C705.807495,95.117348 705.707886,97.479279 706.623413,100.747955 
	C710.616760,101.974228 711.393616,100.039345 710.307434,96.120583 
M706.891418,116.142670 
	C706.648315,117.640564 706.405212,119.138458 706.128174,120.845596 
	C708.019836,120.845596 709.276001,120.845596 710.891357,120.845596 
	C710.773071,118.363663 712.167175,115.410835 706.891418,116.142670 
z"/>
<path fill="#010101" opacity="1.000000" stroke="none" 
	d="
M978.000000,105.002274 
	C936.187683,105.002274 894.875366,105.002274 853.350830,105.002274 
	C852.719116,102.413788 852.575867,100.568405 856.013977,100.979889 
	C856.999878,101.097878 858.011841,100.997734 859.011841,100.997734 
	C938.677917,100.997719 1018.344055,100.997726 1098.010132,100.997726 
	C1099.841187,100.997726 1101.672241,100.997726 1104.180298,100.997726 
	C1100.934570,94.368279 1097.854614,88.077408 1094.188599,80.589401 
	C1109.081177,88.016037 1122.777344,94.846024 1136.971802,101.924477 
	C1136.971802,81.385925 1136.971802,61.466846 1136.971802,41.274143 
	C1271.697144,41.274143 1406.103149,41.274143 1540.785400,41.274143 
	C1540.785400,82.325562 1540.785400,123.394447 1540.785400,164.733093 
	C1406.398560,164.733093 1271.988647,164.733093 1137.094482,164.733093 
	C1137.094482,144.709961 1137.094482,124.671272 1137.094482,103.957298 
	C1122.804565,111.108070 1109.171509,117.930176 1094.236450,125.403793 
	C1097.791382,118.114487 1100.830811,111.882347 1104.186279,105.002274 
	C1061.952881,105.002274 1020.226440,105.002274 978.000000,105.002274 
M1169.500000,45.000713 
	C1160.071899,45.000713 1150.643799,45.000713 1141.347168,45.000713 
	C1141.347168,84.022110 1141.347168,122.422821 1141.347168,160.694031 
	C1273.404297,160.694031 1405.143555,160.694031 1536.743042,160.694031 
	C1536.743042,121.987373 1536.743042,83.586685 1536.743042,45.000713 
	C1414.452026,45.000713 1292.475952,45.000713 1169.500000,45.000713 
z"/>
<path fill="#010101" opacity="1.000000" stroke="none" 
	d="
M184.000000,165.001083 
	C136.192215,165.001083 88.884422,165.001083 41.287926,165.001083 
	C41.287926,123.716888 41.287926,82.646957 41.287926,41.287643 
	C175.612656,41.287643 310.010437,41.287643 444.763916,41.287643 
	C444.763916,56.949165 444.763916,72.707619 444.763916,88.705376 
	C451.096008,90.576195 455.592041,94.152573 456.964478,100.998894 
	C458.943848,100.998894 460.737488,100.998894 462.531158,100.998894 
	C523.192932,100.998894 583.854736,100.995003 644.516541,101.014069 
	C646.792114,101.014786 650.063354,99.986961 648.741394,104.790375 
	C585.099670,104.790375 521.325439,104.790375 457.310974,104.790375 
	C455.393188,111.046555 451.934174,115.660561 445.075623,116.866951 
	C445.075623,132.907211 445.075623,148.674698 445.075623,165.001083 
	C358.013916,165.001083 271.256958,165.001083 184.000000,165.001083 
M332.500000,45.001438 
	C236.745056,45.001438 140.990112,45.001438 45.282330,45.001438 
	C45.282330,83.963394 45.282330,122.365822 45.282330,160.726318 
	C177.292496,160.726318 309.021576,160.726318 440.819336,160.726318 
	C440.819336,146.020721 440.819336,131.588028 440.819336,116.986488 
	C433.907776,115.173950 429.455658,110.987541 429.091461,103.764664 
	C428.676941,95.542976 433.657043,91.046692 440.711487,88.831581 
	C440.711487,74.063469 440.711487,59.638229 440.711487,45.001438 
	C404.782379,45.001438 369.141174,45.001438 332.500000,45.001438 
M452.041199,98.798462 
	C450.071869,96.814949 448.102509,94.831436 445.174866,91.882729 
	C445.174866,99.884796 445.174866,106.108803 445.174866,112.382835 
	C451.789490,110.421509 453.878235,106.598389 452.041199,98.798462 
M434.697296,108.536270 
	C436.519836,110.018150 438.342377,111.500031 440.814789,113.510307 
	C440.814789,106.100761 440.814789,99.878769 440.814789,93.594910 
	C433.611908,95.845627 431.523590,100.523720 434.697296,108.536270 
z"/>
<path fill="#1B1B1B" opacity="1.000000" stroke="none" 
	d="
M737.791748,115.661469 
	C732.624451,121.822739 729.482727,122.409889 723.151489,118.784782 
	C721.804810,119.627975 720.442566,120.480919 718.251465,121.852821 
	C718.251465,109.887238 718.180115,99.108269 718.370667,88.333923 
	C718.388184,87.343697 720.077881,86.383049 720.991150,85.408661 
	C721.426453,85.700485 721.861755,85.992302 722.297058,86.284126 
	C722.297058,89.876228 722.297058,93.468338 722.297058,97.638092 
	C727.422363,94.427475 732.256042,93.593887 736.207458,98.033943 
	C740.809326,103.204811 740.440063,109.251953 737.791748,115.661469 
M724.836365,100.097961 
	C721.101868,103.758606 721.398865,108.257149 722.570312,112.701126 
	C723.601440,116.613121 727.210449,118.301750 730.771851,117.011414 
	C734.870361,115.526489 736.833313,109.183189 734.954956,103.493408 
	C733.507385,99.108452 730.697571,97.946442 724.836365,100.097961 
z"/>
<path fill="#181818" opacity="1.000000" stroke="none" 
	d="
M831.777954,114.856262 
	C831.777893,116.977005 831.777893,118.627319 831.777893,120.689873 
	C830.406555,120.787338 829.218872,120.871750 827.953308,120.961693 
	C827.953308,112.196068 827.953308,103.766998 827.953308,94.375221 
	C829.758301,95.379013 831.038879,96.091202 832.937439,97.147041 
	C833.376160,96.932388 834.618774,96.209511 835.942627,95.696213 
	C842.163513,93.284149 847.378174,96.669159 847.765686,103.340714 
	C847.823364,104.333969 847.777710,105.333290 847.777771,106.329811 
	C847.778259,110.968964 847.777954,115.608116 847.777954,120.665894 
	C846.426025,120.776657 845.240234,120.873817 843.800781,120.991760 
	C843.800781,115.502937 843.777893,110.365829 843.808655,105.229042 
	C843.829834,101.699463 842.901489,98.763588 838.770447,98.647514 
	C834.660889,98.532059 832.200195,100.708969 831.967590,104.926544 
	C831.794006,108.073547 831.833435,111.232307 831.777954,114.856262 
z"/>
<path fill="#1A1A1A" opacity="1.000000" stroke="none" 
	d="
M792.479248,102.007904 
	C791.949646,108.365974 791.618896,114.330696 791.264343,120.725723 
	C790.248230,120.784401 789.073486,120.852242 787.764587,120.927834 
	C787.764587,112.241295 787.764587,103.924072 787.764587,94.590843 
	C789.560181,95.434799 790.942871,96.084694 792.993286,97.048409 
	C793.551758,96.781708 794.963623,95.910736 796.496582,95.410667 
	C802.103638,93.581589 807.162048,96.792244 807.511353,102.657280 
	C807.817810,107.803673 807.754211,112.988655 807.500793,118.139214 
	C807.443542,119.302467 805.922607,120.393715 805.075439,121.518120 
	C804.603027,121.241325 804.130554,120.964539 803.658081,120.687752 
	C803.658081,115.716873 803.977539,110.716194 803.517761,105.788208 
	C803.301147,103.466759 801.905823,99.683662 800.481262,99.400864 
	C798.119812,98.932091 795.303101,100.756325 792.479248,102.007904 
z"/>
<path fill="#161616" opacity="1.000000" stroke="none" 
	d="
M683.755493,119.585915 
	C682.050171,117.603165 680.661438,115.834404 679.272705,114.065643 
	C679.585876,113.506020 679.899048,112.946396 680.212219,112.386772 
	C681.471252,112.957458 682.756470,113.477478 683.983521,114.110130 
	C686.066528,115.184052 688.086304,117.130371 690.182739,117.199890 
	C691.979370,117.259460 693.846130,115.204674 695.681885,114.084991 
	C694.254211,112.777039 693.020996,111.069466 691.352173,110.257225 
	C689.002930,109.113884 686.189575,108.930580 683.827087,107.806396 
	C679.551025,105.771667 678.896118,100.682487 682.242798,97.427895 
	C687.289062,92.520493 696.372192,94.889122 699.147766,103.316902 
	C696.941772,102.305244 695.706299,101.748276 694.479126,101.173607 
	C692.633057,100.309074 690.805359,98.793114 688.945984,98.756210 
	C687.367676,98.724892 685.755554,100.394928 684.158386,101.312149 
	C685.474548,102.523132 686.612183,104.094917 688.150879,104.856194 
	C690.197327,105.868752 692.888184,105.772385 694.693848,107.027512 
	C696.778564,108.476562 699.610657,110.919968 699.553040,112.855263 
	C699.481812,115.249443 697.221008,118.895836 695.101807,119.608253 
	C691.779236,120.725189 687.783020,119.838181 683.755493,119.585915 
z"/>
<path fill="#151515" opacity="1.000000" stroke="none" 
	d="
M743.669312,108.002434 
	C744.165955,100.288658 746.650024,96.776260 752.364380,95.299828 
	C757.134277,94.067421 762.411438,96.187828 764.885559,100.330956 
	C767.597107,104.871681 767.186646,113.017609 764.050842,116.895607 
	C760.936462,120.747093 755.310059,122.080803 750.477966,120.057114 
	C745.304443,117.890442 743.697205,113.603531 743.669312,108.002434 
M760.604370,114.947578 
	C761.081726,111.261452 762.344788,107.464752 761.845276,103.916107 
	C761.161804,99.060028 755.344482,97.072769 751.246094,99.633232 
	C747.644897,101.883080 746.389954,109.379471 748.878479,113.775986 
	C751.112854,117.723541 755.077820,118.358292 760.604370,114.947578 
z"/>
<path fill="#1B1B1B" opacity="1.000000" stroke="none" 
	d="
M674.235962,108.156677 
	C674.235901,112.608582 674.235901,116.588188 674.235901,120.559303 
	C671.369629,121.684250 670.091125,121.055031 670.208130,117.897507 
	C670.367798,113.586136 670.216797,109.264061 670.251831,104.947006 
	C670.279114,101.581604 669.289856,98.863815 665.468933,98.654274 
	C661.667175,98.445786 658.808655,100.228043 658.583008,104.237877 
	C658.276306,109.688911 658.506653,115.170166 658.506653,120.838890 
	C656.916016,120.838890 655.801697,120.838890 654.467529,120.838890 
	C654.467529,112.305145 654.467529,103.887489 654.467529,94.486000 
	C656.199402,95.422462 657.436279,96.091263 659.383545,97.144211 
	C659.261230,97.206566 660.111572,96.765068 660.968872,96.337502 
	C668.251221,92.705681 674.036194,96.131592 674.232056,104.197388 
	C674.260254,105.359062 674.235962,106.522018 674.235962,108.156677 
z"/>
<path fill="#151515" opacity="1.000000" stroke="none" 
	d="
M819.663208,86.617981 
	C819.874939,98.160263 819.874939,109.300056 819.874939,120.734314 
	C818.408997,120.734314 817.182922,120.734314 815.815491,120.734314 
	C815.815491,109.340553 815.815491,98.032433 815.815491,86.215492 
	C817.038025,86.215492 818.244751,86.215492 819.663208,86.617981 
z"/>
<path fill="#1A1A1A" opacity="1.000000" stroke="none" 
	d="
M774.876343,95.322182 
	C776.069336,95.746170 776.930969,96.017357 777.767517,95.954697 
	C779.884827,95.796097 781.990845,95.487541 784.101379,95.239059 
	C784.320496,95.760323 784.539612,96.281593 784.758789,96.802856 
	C783.845520,97.495895 782.830444,98.885109 782.035645,98.768791 
	C776.940430,98.023125 776.024475,101.355545 775.787537,105.054466 
	C775.512512,109.348801 775.816589,113.681625 775.505493,117.971375 
	C775.416260,119.202019 774.068176,120.341370 773.297302,121.522583 
	C772.749756,121.274635 772.202148,121.026680 771.654541,120.778732 
	C771.654541,112.882172 771.580688,104.983742 771.779846,97.092201 
	C771.797852,96.377907 773.573975,95.707939 774.876343,95.322182 
z"/>
<path fill="#242424" opacity="1.000000" stroke="none" 
	d="
M710.596436,96.446602 
	C711.393616,100.039345 710.616760,101.974228 706.623413,100.747955 
	C705.707886,97.479279 705.807495,95.117348 710.596436,96.446602 
z"/>
<path fill="#242424" opacity="1.000000" stroke="none" 
	d="
M707.310913,116.045723 
	C712.167175,115.410835 710.773071,118.363663 710.891357,120.845596 
	C709.276001,120.845596 708.019836,120.845596 706.128174,120.845596 
	C706.405212,119.138458 706.648315,117.640564 707.310913,116.045723 
z"/>
<path fill="#FEFEFE" opacity="1.000000" stroke="none" 
	d="
M1170.000000,45.000713 
	C1292.475952,45.000713 1414.452026,45.000713 1536.743042,45.000713 
	C1536.743042,83.586685 1536.743042,121.987373 1536.743042,160.694031 
	C1405.143555,160.694031 1273.404297,160.694031 1141.347168,160.694031 
	C1141.347168,122.422821 1141.347168,84.022110 1141.347168,45.000713 
	C1150.643799,45.000713 1160.071899,45.000713 1170.000000,45.000713 
M1431.166992,94.345604 
	C1433.435303,100.594017 1435.723755,106.835167 1437.966187,113.092842 
	C1440.286987,119.569489 1438.752563,122.230629 1431.021606,123.615807 
	C1432.359741,125.024208 1433.790527,127.022148 1434.162354,126.841454 
	C1436.524658,125.693306 1439.806885,124.549408 1440.664307,122.511528 
	C1444.948730,112.328217 1448.576660,101.868698 1452.615356,91.023659 
	C1445.851807,90.796738 1447.302490,96.376106 1445.768188,99.318810 
	C1443.997192,102.715607 1443.083374,106.559341 1441.345703,111.490875 
	C1439.002808,104.699287 1437.016113,99.279404 1435.289917,93.777794 
	C1434.551880,91.425087 1433.479614,90.335335 1430.109497,91.476883 
	C1425.577271,91.476883 1421.045044,91.476883 1416.278320,91.476883 
	C1416.278320,92.587135 1416.278442,93.570427 1416.278442,94.553711 
	C1416.278564,101.018463 1416.371338,107.485107 1416.239136,113.947151 
	C1416.174072,117.119682 1417.504028,117.624367 1420.315674,116.583267 
	C1420.315674,112.914352 1420.312012,109.275093 1420.316406,105.635849 
	C1420.328247,95.731964 1420.750244,95.261375 1431.166992,94.345604 
M1316.214355,109.896019 
	C1316.642578,108.721504 1317.070679,107.546997 1317.550171,106.231819 
	C1316.030518,105.848579 1314.918701,105.568161 1313.842896,105.296860 
	C1309.917480,112.323860 1306.456299,114.251740 1300.356812,112.894737 
	C1295.328979,111.776184 1292.453369,107.531639 1292.078735,100.676155 
	C1291.684570,93.461685 1294.208740,88.340240 1299.065430,86.500046 
	C1304.720825,84.357246 1308.703857,86.058472 1313.587769,92.820068 
	C1314.674316,92.377663 1315.804443,91.917458 1316.945557,91.452820 
	C1313.622559,84.173820 1308.276978,81.042503 1301.392822,82.106361 
	C1293.603882,83.310028 1288.672119,88.492943 1287.738647,96.456146 
	C1286.694580,105.362228 1290.423462,113.302444 1296.836304,115.828560 
	C1304.059204,118.673759 1311.020386,116.729362 1316.214355,109.896019 
M1351.820557,114.723015 
	C1356.457031,118.496162 1361.003906,117.199944 1364.311523,114.911530 
	C1366.440674,115.922112 1367.747925,116.542580 1369.694336,117.466385 
	C1369.694336,108.825638 1369.609375,101.364296 1369.732422,93.906387 
	C1369.788818,90.481224 1368.149048,90.536621 1365.226440,91.547066 
	C1365.226440,96.977463 1365.442627,102.448326 1365.152466,107.892189 
	C1364.950928,111.670959 1362.222778,113.393044 1358.643677,113.320755 
	C1354.815308,113.243439 1353.667358,110.666756 1353.691040,107.234169 
	C1353.727539,101.945114 1353.700562,96.655624 1353.700562,90.109497 
	C1351.787476,91.238190 1349.619507,91.964966 1349.650024,92.583466 
	C1350.004639,99.783752 1350.690552,106.967720 1351.820557,114.723015 
M1376.296143,93.027084 
	C1376.294434,100.003677 1376.376953,106.981758 1376.253174,113.956184 
	C1376.196899,117.130363 1377.513672,117.627937 1380.521606,116.478058 
	C1380.521606,111.196907 1380.338623,105.883011 1380.581787,100.588669 
	C1380.763184,96.641251 1383.304321,94.590858 1387.195801,94.660408 
	C1391.355957,94.734749 1392.324951,97.587250 1392.295288,101.142937 
	C1392.259399,105.461464 1392.400757,109.784279 1392.255981,114.098206 
	C1392.140869,117.529663 1393.829834,117.348808 1396.283569,116.611908 
	C1396.283569,110.553596 1396.454590,104.738663 1396.236572,98.938347 
	C1396.008545,92.867203 1390.828125,89.478386 1385.063232,91.444031 
	C1383.531738,91.966255 1382.124878,92.853844 1380.660767,93.573669 
	C1380.627563,93.092125 1380.594238,92.610588 1380.561035,92.129044 
	C1379.154297,92.129044 1377.747681,92.129044 1376.296143,93.027084 
M1228.277954,114.905296 
	C1228.391235,109.930313 1228.296143,104.938980 1228.685181,99.985672 
	C1228.983032,96.194031 1231.721802,94.561958 1235.293335,94.660995 
	C1239.110352,94.766846 1240.286987,97.332832 1240.274170,100.753586 
	C1240.257324,105.237816 1240.098755,109.734222 1240.401001,114.198341 
	C1240.479858,115.363846 1242.040894,116.428993 1242.921265,117.540230 
	C1243.368164,117.257919 1243.815063,116.975609 1244.261963,116.693298 
	C1244.261963,110.740341 1244.442993,104.780334 1244.211426,98.836395 
	C1243.976562,92.802498 1238.705322,89.450974 1232.958252,91.485306 
	C1231.426147,92.027626 1230.030884,92.956940 1229.200317,93.385132 
	C1227.679443,92.330414 1226.418579,91.456024 1224.463623,90.100220 
	C1224.463623,99.770370 1224.463623,108.194763 1224.463623,117.506836 
	C1226.045288,116.789398 1227.150757,116.287987 1228.277954,114.905296 
M1344.633301,106.085510 
	C1345.024780,100.086594 1344.053955,94.684921 1337.803955,91.965897 
	C1331.621094,89.276146 1324.869019,92.076416 1322.577515,98.120903 
	C1319.518066,106.191200 1322.880859,114.558990 1329.998657,116.587234 
	C1336.828247,118.533379 1342.590820,114.692802 1344.633301,106.085510 
M1261.118042,91.059471 
	C1259.954834,91.061264 1258.761475,90.894501 1257.633789,91.095436 
	C1253.754883,91.786537 1250.474854,93.458199 1250.220947,97.894203 
	C1249.973389,102.221649 1253.168457,103.878578 1256.702515,104.964516 
	C1258.922485,105.646683 1261.257690,106.038216 1263.367188,106.958885 
	C1264.374023,107.398300 1265.608032,108.777702 1265.591064,109.710526 
	C1265.572510,110.737007 1264.438232,112.274719 1263.435303,112.655731 
	C1259.952271,113.978867 1256.660278,113.883911 1254.079712,110.444962 
	C1253.301270,109.407562 1251.730713,108.964607 1250.522949,108.249336 
	C1252.226929,117.174568 1262.137817,119.804924 1267.742188,114.206589 
	C1271.406982,110.545799 1270.473755,105.181404 1265.689331,103.198997 
	C1263.400024,102.250397 1260.798096,102.005692 1258.591675,100.924263 
	C1256.928955,100.109352 1255.669922,98.470711 1254.231201,97.198746 
	C1256.196777,96.335709 1258.132324,94.907127 1260.138184,94.800285 
	C1261.573975,94.723801 1263.060059,96.504562 1264.606567,97.294456 
	C1265.801025,97.904541 1267.124023,98.262794 1268.926880,98.932518 
	C1268.166138,93.564079 1265.321899,92.082237 1261.118042,91.059471 
M1407.942627,84.861710 
	C1407.638794,84.562202 1407.335083,84.262688 1407.031372,83.963127 
	C1404.971069,86.972687 1402.885376,89.965813 1400.912109,93.031303 
	C1400.789795,93.221260 1401.606812,93.950897 1401.891724,94.480644 
	C1402.623535,95.841370 1403.792480,97.191925 1403.905518,98.616524 
	C1404.193970,102.248405 1403.976196,105.918694 1404.007324,109.573212 
	C1404.064575,116.279816 1405.854126,117.713943 1413.658936,116.243294 
	C1404.573853,110.751450 1409.073975,102.491249 1407.977295,95.982620 
	C1409.650024,94.622559 1410.878540,93.623642 1412.107056,92.624718 
	C1410.822266,91.749313 1409.537354,90.873909 1407.976685,89.810555 
	C1407.976685,88.701149 1407.976685,87.213867 1407.942627,84.861710 
M1280.988403,93.629211 
	C1279.613159,92.959518 1278.238037,92.289833 1276.862793,91.620148 
	C1276.458740,92.135239 1276.054688,92.650337 1275.650635,93.165428 
	C1276.432861,94.459755 1277.214966,95.754089 1277.997192,97.048454 
	C1278.996948,96.198975 1279.996582,95.349495 1280.988403,93.629211 
M1280.988403,113.629166 
	C1279.613159,112.959480 1278.238037,112.289787 1276.862793,111.620102 
	C1276.458740,112.135223 1276.054565,112.650337 1275.650513,113.165459 
	C1276.432739,114.459793 1277.214966,115.754135 1277.997192,117.048424 
	C1278.996948,116.198944 1279.996582,115.349464 1280.988403,113.629166 
z"/>
<path fill="#FFFFFF" opacity="1.000000" stroke="none" 
	d="
M333.000000,45.001438 
	C369.141174,45.001438 404.782379,45.001438 440.711487,45.001438 
	C440.711487,59.638229 440.711487,74.063469 440.711487,88.831581 
	C433.657043,91.046692 428.676941,95.542976 429.091461,103.764664 
	C429.455658,110.987541 433.907776,115.173950 440.819336,116.986488 
	C440.819336,131.588028 440.819336,146.020721 440.819336,160.726318 
	C309.021576,160.726318 177.292496,160.726318 45.282330,160.726318 
	C45.282330,122.365822 45.282330,83.963394 45.282330,45.001438 
	C140.990112,45.001438 236.745056,45.001438 333.000000,45.001438 
z"/>
<path fill="#F7F7F7" opacity="1.000000" stroke="none" 
	d="
M452.192047,99.159317 
	C453.878235,106.598389 451.789490,110.421509 445.174866,112.382835 
	C445.174866,106.108803 445.174866,99.884796 445.174866,91.882729 
	C448.102509,94.831436 450.071869,96.814949 452.192047,99.159317 
z"/>
<path fill="#F7F7F7" opacity="1.000000" stroke="none" 
	d="
M434.473907,108.224197 
	C431.523590,100.523720 433.611908,95.845627 440.814789,93.594910 
	C440.814789,99.878769 440.814789,106.100761 440.814789,113.510307 
	C438.342377,111.500031 436.519836,110.018150 434.473907,108.224197 
z"/>
<path fill="#F4F4F4" opacity="1.000000" stroke="none" 
	d="
M725.150024,99.833038 
	C730.697571,97.946442 733.507385,99.108452 734.954956,103.493408 
	C736.833313,109.183189 734.870361,115.526489 730.771851,117.011414 
	C727.210449,118.301750 723.601440,116.613121 722.570312,112.701126 
	C721.398865,108.257149 721.101868,103.758606 725.150024,99.833038 
z"/>
<path fill="#F4F4F4" opacity="1.000000" stroke="none" 
	d="
M760.313721,115.253860 
	C755.077820,118.358292 751.112854,117.723541 748.878479,113.775986 
	C746.389954,109.379471 747.644897,101.883080 751.246094,99.633232 
	C755.344482,97.072769 761.161804,99.060028 761.845276,103.916107 
	C762.344788,107.464752 761.081726,111.261452 760.313721,115.253860 
z"/>
<path fill="#161616" opacity="1.000000" stroke="none" 
	d="
M1316.052246,110.201256 
	C1311.020386,116.729362 1304.059204,118.673759 1296.836304,115.828560 
	C1290.423462,113.302444 1286.694580,105.362228 1287.738647,96.456146 
	C1288.672119,88.492943 1293.603882,83.310028 1301.392822,82.106361 
	C1308.276978,81.042503 1313.622559,84.173820 1316.945557,91.452820 
	C1315.804443,91.917458 1314.674316,92.377663 1313.587769,92.820068 
	C1308.703857,86.058472 1304.720825,84.357246 1299.065430,86.500046 
	C1294.208740,88.340240 1291.684570,93.461685 1292.078735,100.676155 
	C1292.453369,107.531639 1295.328979,111.776184 1300.356812,112.894737 
	C1306.456299,114.251740 1309.917480,112.323860 1313.842896,105.296860 
	C1314.918701,105.568161 1316.030518,105.848579 1317.550171,106.231819 
	C1317.070679,107.546997 1316.642578,108.721504 1316.052246,110.201256 
z"/>
<path fill="#202020" opacity="1.000000" stroke="none" 
	d="
M1351.554688,114.439514 
	C1350.690552,106.967720 1350.004639,99.783752 1349.650024,92.583466 
	C1349.619507,91.964966 1351.787476,91.238190 1353.700562,90.109497 
	C1353.700562,96.655624 1353.727539,101.945114 1353.691040,107.234169 
	C1353.667358,110.666756 1354.815308,113.243439 1358.643677,113.320755 
	C1362.222778,113.393044 1364.950928,111.670959 1365.152466,107.892189 
	C1365.442627,102.448326 1365.226440,96.977463 1365.226440,91.547066 
	C1368.149048,90.536621 1369.788818,90.481224 1369.732422,93.906387 
	C1369.609375,101.364296 1369.694336,108.825638 1369.694336,117.466385 
	C1367.747925,116.542580 1366.440674,115.922112 1364.311523,114.911530 
	C1361.003906,117.199944 1356.457031,118.496162 1351.554688,114.439514 
z"/>
<path fill="#1F1F1F" opacity="1.000000" stroke="none" 
	d="
M1376.318604,92.578064 
	C1377.747681,92.129044 1379.154297,92.129044 1380.561035,92.129044 
	C1380.594238,92.610588 1380.627563,93.092125 1380.660767,93.573669 
	C1382.124878,92.853844 1383.531738,91.966255 1385.063232,91.444031 
	C1390.828125,89.478386 1396.008545,92.867203 1396.236572,98.938347 
	C1396.454590,104.738663 1396.283569,110.553596 1396.283569,116.611908 
	C1393.829834,117.348808 1392.140869,117.529663 1392.255981,114.098206 
	C1392.400757,109.784279 1392.259399,105.461464 1392.295288,101.142937 
	C1392.324951,97.587250 1391.355957,94.734749 1387.195801,94.660408 
	C1383.304321,94.590858 1380.763184,96.641251 1380.581787,100.588669 
	C1380.338623,105.883011 1380.521606,111.196907 1380.521606,116.478058 
	C1377.513672,117.627937 1376.196899,117.130363 1376.253174,113.956184 
	C1376.376953,106.981758 1376.294434,100.003677 1376.318604,92.578064 
z"/>
<path fill="#1F1F1F" opacity="1.000000" stroke="none" 
	d="
M1228.267090,115.345932 
	C1227.150757,116.287987 1226.045288,116.789398 1224.463623,117.506836 
	C1224.463623,108.194763 1224.463623,99.770370 1224.463623,90.100220 
	C1226.418579,91.456024 1227.679443,92.330414 1229.200317,93.385132 
	C1230.030884,92.956940 1231.426147,92.027626 1232.958252,91.485306 
	C1238.705322,89.450974 1243.976562,92.802498 1244.211426,98.836395 
	C1244.442993,104.780334 1244.261963,110.740341 1244.261963,116.693298 
	C1243.815063,116.975609 1243.368164,117.257919 1242.921265,117.540230 
	C1242.040894,116.428993 1240.479858,115.363846 1240.401001,114.198341 
	C1240.098755,109.734222 1240.257324,105.237816 1240.274170,100.753586 
	C1240.286987,97.332832 1239.110352,94.766846 1235.293335,94.660995 
	C1231.721802,94.561958 1228.983032,96.194031 1228.685181,99.985672 
	C1228.296143,104.938980 1228.391235,109.930313 1228.267090,115.345932 
z"/>
<path fill="#181818" opacity="1.000000" stroke="none" 
	d="
M1344.580811,106.494568 
	C1342.590820,114.692802 1336.828247,118.533379 1329.998657,116.587234 
	C1322.880859,114.558990 1319.518066,106.191200 1322.577515,98.120903 
	C1324.869019,92.076416 1331.621094,89.276146 1337.803955,91.965897 
	C1344.053955,94.684921 1345.024780,100.086594 1344.580811,106.494568 
M1331.024048,113.067856 
	C1335.202637,114.082222 1338.257568,112.679787 1339.868652,108.677467 
	C1341.617798,104.331879 1340.471802,98.382370 1337.630371,96.125237 
	C1334.155029,93.364525 1329.068726,94.371826 1326.895874,98.251205 
	C1324.258057,102.960861 1325.722778,109.398224 1331.024048,113.067856 
z"/>
<path fill="#181818" opacity="1.000000" stroke="none" 
	d="
M1261.520264,91.128891 
	C1265.321899,92.082237 1268.166138,93.564079 1268.926880,98.932518 
	C1267.124023,98.262794 1265.801025,97.904541 1264.606567,97.294456 
	C1263.060059,96.504562 1261.573975,94.723801 1260.138184,94.800285 
	C1258.132324,94.907127 1256.196777,96.335709 1254.231201,97.198753 
	C1255.669922,98.470711 1256.928955,100.109352 1258.591675,100.924263 
	C1260.798096,102.005692 1263.400024,102.250397 1265.689331,103.198997 
	C1270.473755,105.181404 1271.406982,110.545799 1267.742188,114.206589 
	C1262.137817,119.804924 1252.226929,117.174568 1250.522949,108.249336 
	C1251.730713,108.964607 1253.301270,109.407562 1254.079712,110.444962 
	C1256.660278,113.883911 1259.952271,113.978867 1263.435303,112.655731 
	C1264.438232,112.274719 1265.572510,110.737007 1265.591064,109.710526 
	C1265.608032,108.777702 1264.374023,107.398300 1263.367188,106.958885 
	C1261.257690,106.038216 1258.922485,105.646683 1256.702515,104.964516 
	C1253.168457,103.878578 1249.973389,102.221649 1250.220947,97.894203 
	C1250.474854,93.458199 1253.754883,91.786537 1257.633789,91.095436 
	C1258.761475,90.894501 1259.954834,91.061264 1261.520264,91.128891 
z"/>
<path fill="#1B1B1B" opacity="1.000000" stroke="none" 
	d="
M1431.009521,91.204369 
	C1433.479614,90.335335 1434.551880,91.425087 1435.289917,93.777794 
	C1437.016113,99.279404 1439.002808,104.699287 1441.345703,111.490875 
	C1443.083374,106.559341 1443.997192,102.715607 1445.768188,99.318810 
	C1447.302490,96.376106 1445.851807,90.796738 1452.615356,91.023659 
	C1448.576660,101.868698 1444.948730,112.328217 1440.664307,122.511528 
	C1439.806885,124.549408 1436.524658,125.693306 1434.162354,126.841454 
	C1433.790527,127.022148 1432.359741,125.024208 1431.021606,123.615807 
	C1438.752563,122.230629 1440.286987,119.569489 1437.966187,113.092842 
	C1435.723755,106.835167 1433.435303,100.594017 1431.128662,93.655403 
	C1431.063354,92.378258 1431.036377,91.791313 1431.009521,91.204369 
z"/>
<path fill="#1A1A1A" opacity="1.000000" stroke="none" 
	d="
M1407.959717,85.294144 
	C1407.976685,87.213867 1407.976685,88.701149 1407.976685,89.810555 
	C1409.537354,90.873909 1410.822266,91.749313 1412.107056,92.624725 
	C1410.878540,93.623642 1409.650024,94.622559 1407.977295,95.982620 
	C1409.073975,102.491249 1404.573853,110.751450 1413.658936,116.243294 
	C1405.854126,117.713943 1404.064575,116.279816 1404.007324,109.573212 
	C1403.976196,105.918694 1404.193970,102.248405 1403.905518,98.616524 
	C1403.792480,97.191925 1402.623535,95.841370 1401.891724,94.480644 
	C1401.606812,93.950897 1400.789795,93.221260 1400.912109,93.031303 
	C1402.885376,89.965813 1404.971069,86.972687 1407.031372,83.963150 
	C1407.335083,84.262688 1407.638794,84.562202 1407.959717,85.294144 
z"/>
<path fill="#242424" opacity="1.000000" stroke="none" 
	d="
M1430.559448,91.340622 
	C1431.036377,91.791313 1431.063354,92.378258 1431.104370,93.258652 
	C1420.750244,95.261375 1420.328247,95.731964 1420.316406,105.635849 
	C1420.312012,109.275093 1420.315674,112.914352 1420.315674,116.583267 
	C1417.504028,117.624367 1416.174072,117.119682 1416.239136,113.947151 
	C1416.371338,107.485107 1416.278564,101.018463 1416.278442,94.553711 
	C1416.278442,93.570427 1416.278320,92.587135 1416.278320,91.476883 
	C1421.045044,91.476883 1425.577271,91.476883 1430.559448,91.340622 
z"/>
<path fill="#242424" opacity="1.000000" stroke="none" 
	d="
M1280.992432,94.064613 
	C1279.996582,95.349495 1278.996948,96.198975 1277.997192,97.048431 
	C1277.214966,95.754089 1276.432861,94.459755 1275.650635,93.165428 
	C1276.054688,92.650337 1276.458740,92.135239 1276.862793,91.620148 
	C1278.238037,92.289833 1279.613159,92.959518 1280.992432,94.064613 
z"/>
<path fill="#242424" opacity="1.000000" stroke="none" 
	d="
M1280.992432,114.064575 
	C1279.996582,115.349464 1278.996948,116.198944 1277.997192,117.048447 
	C1277.214966,115.754135 1276.432739,114.459793 1275.650513,113.165459 
	C1276.054565,112.650337 1276.458740,112.135223 1276.862793,111.620102 
	C1278.238037,112.289787 1279.613159,112.959480 1280.992432,114.064575 
z"/>
<path fill="#F4F4F4" opacity="1.000000" stroke="none" 
	d="
M1330.620850,112.958336 
	C1325.722778,109.398224 1324.258057,102.960861 1326.895874,98.251205 
	C1329.068726,94.371826 1334.155029,93.364525 1337.630371,96.125237 
	C1340.471802,98.382370 1341.617798,104.331879 1339.868652,108.677467 
	C1338.257568,112.679787 1335.202637,114.082222 1330.620850,112.958336 
z"/>
</svg>