<svg version="1.1" id="Layer_1" xmlns="http://www.w3.org/2000/svg" xmlns:xlink="http://www.w3.org/1999/xlink" x="0px" y="0px"
	 width="100%" viewBox="0 0 807 924" enable-background="new 0 0 807 924" xml:space="preserve">
<path fill="none" opacity="1.000000" stroke="#000000" stroke-linecap="round" stroke-linejoin="round" stroke-width="4.000000"
	d="
M763.000000,195.000000 
	C759.488281,190.760742 754.067078,190.084488 749.451904,188.112488 
	C723.551697,177.045700 697.524231,166.274673 671.493896,155.514847 
	C638.685913,141.953445 605.700684,128.811264 573.045166,114.893974 
	C550.090759,105.111130 527.035706,95.582306 504.008789,85.978897 
	C479.041290,75.566147 454.180878,64.903023 429.059723,54.850731 
	C422.159668,52.089657 415.227966,49.240486 408.498138,46.003845 
	C407.010773,45.288517 405.949158,44.984745 403.932709,45.841614 
	C373.196136,58.902679 342.356110,71.721756 311.493774,84.484955 
	C278.688080,98.051826 245.700684,111.188751 213.045197,125.106033 
	C190.090775,134.888885 167.035706,144.417709 144.008804,154.021118 
	C119.041275,164.433838 94.208206,175.163483 69.047661,185.120438 
	C63.167023,187.447647 57.423595,190.206589 51.520668,192.552017 
	C50.486145,192.963058 49.188686,193.522018 49.000000,195.000000 
"/>
<path fill="none" opacity="1.000000" stroke="#000000" stroke-linecap="round" stroke-linejoin="round" stroke-width="4.000000"
	d="
M42.500000,734.000000 
	C49.359215,733.007874 54.268250,737.782776 59.968941,740.077148 
	C87.704247,751.239929 115.476944,762.331482 142.955612,774.103638 
	C165.892548,783.930054 188.964249,793.417786 211.991196,803.021118 
	C236.958694,813.433899 261.858551,824.000061 286.961792,834.095032 
	C310.307465,843.483154 333.304626,853.735107 356.509979,863.476196 
	C372.291077,870.100708 388.197662,876.426941 403.954559,883.107178 
	C405.625336,883.815491 406.372955,883.807678 408.043549,883.103333 
	C438.817383,870.128845 469.643829,857.278137 500.506195,844.515015 
	C533.311951,830.948242 566.299377,817.811340 598.954834,803.894043 
	C621.909241,794.111145 644.964233,784.582214 667.991211,774.978882 
	C692.958679,764.566101 717.848633,753.972656 742.919983,743.802795 
	C749.695129,741.054504 756.916870,738.927734 763.026733,734.537231 
	C764.946716,733.157593 767.345398,734.323242 769.500000,734.000000 
"/>
<path fill="none" opacity="1.000000" stroke="#000000" stroke-linecap="round" stroke-linejoin="round" stroke-width="4.000000"
	d="
M42.500000,195.000000 
	C49.359215,194.007843 54.268276,198.782700 59.968975,201.077087 
	C87.704277,212.239883 115.476952,223.331421 142.955612,235.103607 
	C165.892563,244.930084 188.964279,254.417740 211.991180,264.021149 
	C236.958710,274.433899 261.955688,284.777100 286.933167,295.160767 
	C309.967804,304.736755 332.951294,314.448639 355.993011,324.016785 
	C371.030060,330.260956 386.001282,336.663635 400.998230,343.004150 
	C402.712494,343.728943 404.402313,344.511414 405.801117,345.132812 
	C415.891235,340.911896 425.952454,336.722229 435.998474,332.496368 
	C453.004059,325.342957 469.965393,318.083160 487.008789,311.021210 
	C508.138763,302.265961 529.354309,293.717438 550.492798,284.982544 
	C565.196899,278.906464 579.799255,272.584076 594.508057,266.519562 
	C615.997009,257.659546 637.403687,248.602997 658.932495,239.834335 
	C673.170166,234.035370 687.309875,227.944962 701.495544,221.989395 
	C720.846680,213.865219 740.183777,205.706635 759.483337,197.460953 
	C762.727478,196.074860 765.756958,194.194595 769.500000,195.000000 
"/>
<path fill="none" opacity="1.000000" stroke="#000000" stroke-linecap="round" stroke-linejoin="round" stroke-width="4.000000"
	d="
M763.000000,734.000000 
	C759.488281,729.760742 754.067139,729.084412 749.451965,727.112427 
	C723.551758,716.045532 697.524231,705.274658 671.493896,694.514771 
	C638.685913,680.953491 605.700623,667.811279 573.045166,653.893982 
	C550.090759,644.111206 527.035706,634.582336 504.008820,624.978882 
	C479.041290,614.566162 454.183472,603.897095 429.052307,593.868958 
	C421.162506,590.720642 413.434723,587.095032 405.500000,584.000000 
	C398.000000,587.333313 390.570709,590.838013 382.986877,593.968201 
	C359.356049,603.721680 335.621826,613.225342 312.012207,623.029419 
	C287.028992,633.403870 262.044342,643.777161 237.066818,654.160706 
	C214.032166,663.736755 191.035721,673.417725 168.008789,683.021057 
	C143.041275,693.433838 118.103149,703.912415 93.067162,714.164001 
	C79.327881,719.789917 65.625687,725.570435 51.988506,731.473450 
	C50.684662,732.037842 49.471966,732.533020 49.000000,734.000000 
"/>
<path fill="none" opacity="1.000000" stroke="#000000" stroke-linecap="round" stroke-linejoin="round" stroke-width="4.000000"
	d="
M431.500000,752.500000 
	C428.626404,747.226135 423.547241,744.780518 418.000000,746.000000 
	C414.188019,746.837891 410.978088,750.008850 411.009125,752.999878 
	C411.056732,757.584412 414.594299,758.830750 418.013367,759.959534 
	C421.116882,760.984192 424.363525,761.568237 427.491547,762.527588 
	C430.635925,763.492004 432.802582,765.921204 432.828278,769.001404 
	C432.850281,771.640625 431.067078,773.986450 428.517456,775.528870 
	C422.001678,779.470581 412.819122,776.289673 410.000000,769.000000 
"/>
<path fill="none" opacity="1.000000" stroke="#000000" stroke-linecap="round" stroke-linejoin="round" stroke-width="4.000000"
	d="
M446.500000,216.500000 
	C443.894135,210.878403 439.121552,209.246506 433.511017,210.074661 
	C427.898956,210.903030 424.508759,214.089752 422.866486,219.962662 
	C419.612671,231.598450 425.996582,242.100555 437.006500,241.069504 
	C440.645599,240.728699 443.375244,239.297928 445.485413,236.489044 
	C446.586029,235.023972 447.383179,233.271271 449.500000,233.000000 
"/>
<path fill="none" opacity="1.000000" stroke="#000000" stroke-linecap="round" stroke-linejoin="round" stroke-width="5.000000"
	d="
M432.000000,703.000000 
	C436.000000,703.000000 440.002930,703.096863 443.999298,702.976624 
	C449.613251,702.807678 453.000000,699.538208 453.000000,694.500000 
	C453.000000,689.210327 449.893372,686.202454 443.999268,686.024414 
	C439.830139,685.898438 435.654144,686.000000 431.000000,686.000000 
	C431.000000,696.661194 431.000000,706.830627 431.000000,717.000000 
"/>
<path fill="none" opacity="1.000000" stroke="#000000" stroke-linecap="round" stroke-linejoin="round" stroke-width="5.000000"
	d="
M432.000000,167.000000 
	C436.000000,167.000000 440.002930,167.096909 443.999298,166.976685 
	C449.613220,166.807800 453.000000,163.538223 453.000000,158.500000 
	C453.000000,153.210327 449.893372,150.202423 443.999268,150.024384 
	C439.830139,149.898453 435.654144,150.000000 431.000000,150.000000 
	C431.000000,160.661209 431.000000,170.830597 431.000000,181.000000 
"/>
<path fill="none" opacity="1.000000" stroke="#000000" stroke-linecap="round" stroke-linejoin="round" stroke-width="4.000000"
	d="
M604.750000,489.000000 
	C600.658081,480.958496 599.940857,471.890991 596.994385,463.501984 
	C596.339600,461.637695 596.665527,459.167358 593.554749,458.388550 
	C588.953979,467.606903 588.655762,478.432831 583.410767,487.713135 
	C579.128967,478.109741 577.643555,467.888031 575.000000,458.000000 
"/>
<path fill="none" opacity="1.000000" stroke="#000000" stroke-linecap="round" stroke-linejoin="round" stroke-width="4.000000"
	d="
M323.500000,223.500000 
	C322.872589,223.088165 322.017365,224.191177 321.337189,222.568237 
	C320.403046,220.339432 317.995026,218.894730 315.492065,218.559158 
	C311.988831,218.089508 307.323425,220.033600 307.053558,223.004868 
	C306.710999,226.776367 309.432861,228.128983 312.499786,229.000778 
	C315.395294,229.823868 318.393860,230.251617 321.022430,231.965591 
	C323.702484,233.713104 323.463745,235.854599 321.965271,237.975449 
	C318.227234,243.265915 311.755890,242.575851 307.000000,236.500000 
"/>
<path fill="none" opacity="1.000000" stroke="#000000" stroke-linecap="round" stroke-linejoin="round" stroke-width="4.000000"
	d="
M309.000000,758.500000 
	C306.523865,755.313293 303.935425,753.611938 299.426666,755.304688 
	C296.760681,756.305664 295.079132,756.938599 294.962189,759.998535 
	C294.823090,763.637756 297.579742,764.133850 300.008270,764.976196 
	C301.799530,765.597412 303.696503,765.911865 305.493134,766.520203 
	C308.338531,767.483582 311.088165,768.960022 310.410492,772.482788 
	C309.679077,776.284851 306.121918,777.407593 303.003784,777.335693 
	C299.481720,777.254456 295.484955,776.689880 294.500000,772.000000 
"/>
<path fill="none" opacity="1.000000" stroke="#000000" stroke-linecap="round" stroke-linejoin="round" stroke-width="4.000000"
	d="
M478.000000,470.500000 
	C473.925079,466.223450 469.695618,465.342377 466.000031,468.000031 
	C462.459686,470.546082 462.600159,473.760925 466.525482,475.954407 
	C468.206451,476.893707 470.120697,477.551361 472.010559,477.949951 
	C474.986145,478.577515 478.188599,478.874725 478.924469,482.515259 
	C479.292206,484.334595 479.118835,486.091766 477.075134,487.601685 
	C473.554657,490.202728 470.051208,489.762726 466.538879,488.399811 
	C465.084473,487.835449 464.023834,486.190460 463.500000,484.500000 
"/>
<path fill="none" opacity="1.000000" stroke="#000000" stroke-linecap="round" stroke-linejoin="round" stroke-width="4.000000"
	d="
M412.000000,222.500000 
	C407.925079,218.223465 403.695587,217.342331 400.000000,220.000015 
	C396.459656,222.546082 396.600189,225.760941 400.525482,227.954391 
	C402.206451,228.893723 404.120697,229.551270 406.010559,229.949875 
	C408.986145,230.577484 412.188629,230.874695 412.924469,234.515259 
	C413.292206,236.334610 413.118835,238.091782 411.075165,239.601730 
	C407.554657,242.202759 404.051208,241.762711 400.538879,240.399811 
	C399.084473,239.835464 398.023834,238.190445 397.500000,236.500000 
"/>
<path fill="none" opacity="1.000000" stroke="#000000" stroke-linecap="round" stroke-linejoin="round" stroke-width="4.000000"
	d="
M400.000000,758.500000 
	C395.925079,754.223450 391.695557,753.342224 387.999969,755.999939 
	C384.459625,758.546021 384.600189,761.760864 388.525513,763.954346 
	C390.206482,764.893677 392.120728,765.551147 394.010590,765.949768 
	C396.986176,766.577393 400.188629,766.874695 400.924500,770.515259 
	C401.292206,772.334595 401.118835,774.091736 399.075104,775.601685 
	C395.554657,778.202698 392.051208,777.762756 388.538849,776.399841 
	C387.084473,775.835449 386.023834,774.190430 385.500000,772.500000 
"/>
<path fill="none" opacity="1.000000" stroke="#000000" stroke-linecap="round" stroke-linejoin="round" stroke-width="4.000000"
	d="
M408.500000,163.500000 
	C407.133606,159.752914 403.976959,158.205765 400.518951,158.648193 
	C396.721649,159.134033 393.592499,161.277222 392.470825,165.492233 
	C391.361969,169.659058 391.656677,173.899490 393.626312,177.429520 
	C397.155182,183.754105 405.288025,182.566681 409.000000,175.500000 
"/>
<path fill="none" opacity="1.000000" stroke="#000000" stroke-linecap="round" stroke-linejoin="round" stroke-width="4.000000"
	d="
M408.500000,699.500000 
	C407.133606,695.752930 403.976959,694.205811 400.518951,694.648193 
	C396.721649,695.134033 393.592499,697.277222 392.470795,701.492249 
	C391.361938,705.659058 391.656708,709.899475 393.626343,713.429504 
	C397.155182,719.754089 405.288025,718.566650 409.000000,711.500000 
"/>
<path fill="none" opacity="1.000000" stroke="#000000" stroke-linecap="round" stroke-linejoin="round" stroke-width="4.000000"
	d="
M366.000000,705.000000 
	C373.211609,706.360291 380.887909,705.720581 384.093872,703.433044 
	C382.633270,701.185730 383.010590,698.196594 380.063110,696.396667 
	C374.019989,692.706421 367.235687,695.435974 365.999969,702.500000 
	C364.463318,711.284363 366.157257,714.889526 373.006348,716.979187 
	C377.556671,718.367554 380.635376,716.152710 383.000000,712.500000 
"/>
<path fill="none" opacity="1.000000" stroke="#000000" stroke-linecap="round" stroke-linejoin="round" stroke-width="4.000000"
	d="
M366.000000,169.000000 
	C373.211609,170.360275 380.887909,169.720581 384.093872,167.433014 
	C382.633270,165.185760 383.010651,162.196518 380.063141,160.396606 
	C374.019989,156.706345 367.235718,159.435989 365.999969,166.500000 
	C364.463318,175.284348 366.157288,178.889511 373.006348,180.979218 
	C377.556671,182.367538 380.635376,180.152695 383.000000,176.500000 
"/>
<path fill="none" opacity="1.000000" stroke="#000000" stroke-linecap="round" stroke-linejoin="round" stroke-width="4.000000"
	d="
M314.000000,486.500000 
	C314.683167,486.600677 315.298553,486.509521 316.030975,486.948273 
	C322.732697,490.963013 328.344574,488.531006 330.000000,481.000000 
	C331.294922,475.109222 328.205719,469.697418 323.594574,467.316833 
	C320.862823,465.906494 319.345245,467.028839 317.532867,468.057892 
	C316.108612,468.866638 315.355377,470.696045 313.500000,471.000000 
"/>
<path fill="none" opacity="1.000000" stroke="#000000" stroke-linecap="round" stroke-linejoin="round" stroke-width="4.000000"
	d="
M339.000000,477.000000 
	C344.583344,478.023376 350.166656,477.236450 355.717896,477.578491 
	C356.076202,471.120789 352.557831,466.642853 347.500000,466.500000 
	C341.984253,466.344208 338.922821,470.252869 338.355469,476.737366 
	C338.069733,480.003082 338.052551,482.941254 340.036041,485.471741 
	C344.642120,491.348114 351.448364,490.656769 356.000000,484.000000 
"/>
<path fill="none" opacity="1.000000" stroke="#000000" stroke-linecap="round" stroke-linejoin="round" stroke-width="4.000000"
	d="
M329.000000,686.000000 
	C329.000000,693.333313 328.988892,700.666687 329.003601,708.000000 
	C329.014771,713.570496 330.094666,714.961853 336.001770,716.994873 
	C340.218628,718.446167 342.918030,715.744385 344.898682,712.928711 
	C347.722015,708.915100 346.670593,699.573181 343.110626,696.855103 
	C339.898254,694.402222 337.271423,694.168152 333.987274,695.976929 
	C332.686096,696.693542 331.753387,698.173462 330.000000,698.000000 
"/>
<path fill="none" opacity="1.000000" stroke="#000000" stroke-linecap="round" stroke-linejoin="round" stroke-width="4.000000"
	d="
M329.000000,150.000000 
	C329.000000,157.333328 328.988892,164.666687 329.003601,172.000000 
	C329.014771,177.570511 330.094635,178.961914 336.001770,180.994888 
	C340.218628,182.446167 342.918091,179.744400 344.898743,176.928757 
	C347.722076,172.915146 346.670563,163.573227 343.110657,160.855072 
	C339.898224,158.402237 337.271423,158.168106 333.987305,159.976929 
	C332.686096,160.693588 331.753387,162.173447 330.000000,162.000000 
"/>
<path fill="none" opacity="1.000000" stroke="#000000" stroke-linecap="round" stroke-linejoin="round" stroke-width="4.000000"
	d="
M497.000031,773.999939 
	C497.833344,774.333313 498.757965,774.531128 499.485687,775.021240 
	C505.764160,779.249756 511.554016,776.544250 513.100281,769.020630 
	C513.791870,765.655701 513.578857,762.283936 512.326660,759.580261 
	C509.879730,754.296875 504.574402,753.566772 499.485565,756.978455 
	C498.756439,757.467285 497.833344,757.666687 497.000000,758.000000 
"/>
<path fill="none" opacity="1.000000" stroke="#000000" stroke-linecap="round" stroke-linejoin="round" stroke-width="4.000000"
	d="
M532.000000,169.000000 
	C536.469666,169.986328 541.006226,169.520020 545.498352,169.423843 
	C548.691956,169.355484 550.119812,166.169632 548.500000,163.500015 
	C546.782410,160.669296 540.907471,157.512360 538.525818,158.558762 
	C533.621338,160.713593 530.771545,162.549118 531.469727,168.753403 
	C531.682983,170.648102 530.708923,172.389618 531.389160,174.535141 
	C533.730469,181.920135 541.304077,183.726547 547.000244,178.000214 
	C547.665161,177.331787 548.333313,176.666672 549.000000,176.000000 
"/>
<path fill="none" opacity="1.000000" stroke="#000000" stroke-linecap="round" stroke-linejoin="round" stroke-width="4.000000"
	d="
M523.000000,765.000000 
	C527.463135,766.161194 532.007019,765.429871 536.499634,765.412415 
	C539.703125,765.400024 540.728271,763.325562 539.500000,760.500000 
	C537.992371,757.031921 533.116516,753.952454 530.000000,754.500000 
	C525.205933,755.342285 522.317078,758.984680 521.945740,763.995972 
	C521.660339,767.847473 521.383118,771.526367 524.494873,774.505371 
	C528.934814,778.755920 533.257629,777.860046 536.986816,774.982971 
	C538.491028,773.822510 539.416321,771.916199 541.500000,771.500000 
"/>
<path fill="none" opacity="1.000000" stroke="#000000" stroke-linecap="round" stroke-linejoin="round" stroke-width="4.000000"
	d="
M532.000000,705.000000 
	C536.469666,705.986328 541.006226,705.520020 545.498352,705.423889 
	C548.691956,705.355591 550.119812,702.169617 548.500000,699.500000 
	C546.782471,696.669312 540.907532,693.512390 538.525818,694.558777 
	C533.621338,696.713562 530.771667,698.549072 531.469849,704.753418 
	C531.683044,706.648132 530.708923,708.389587 531.389160,710.535156 
	C533.730469,717.920166 541.304077,719.726562 547.000244,714.000244 
	C547.665100,713.331787 548.333313,712.666626 549.000000,712.000000 
"/>
<path fill="none" opacity="1.000000" stroke="#000000" stroke-linecap="round" stroke-linejoin="round" stroke-width="5.000000"
	d="
M356.000000,159.000000 
	C356.000000,167.833328 355.883118,176.668991 356.058472,185.498840 
	C356.127014,188.950424 354.821930,190.934204 351.495270,191.470627 
	C349.549255,191.784424 350.911835,190.127411 350.500000,189.500000 
"/>
<path fill="none" opacity="1.000000" stroke="#000000" stroke-linecap="round" stroke-linejoin="round" stroke-width="5.000000"
	d="
M356.000000,695.000000 
	C356.000000,703.833313 355.883118,712.669006 356.058472,721.498840 
	C356.127014,724.950439 354.821960,726.934265 351.495270,727.470642 
	C349.549255,727.784424 350.911835,726.127441 350.500000,725.500000 
"/>
<path fill="none" opacity="1.000000" stroke="#000000" stroke-linecap="round" stroke-linejoin="round" stroke-width="4.000000"
	d="
M611.500000,156.500000 
	C617.153687,160.322830 624.215027,161.478577 630.156311,166.034454 
	C624.184875,170.283722 617.217041,171.067413 611.500000,174.500000 
"/>
<path fill="none" opacity="1.000000" stroke="#000000" stroke-linecap="round" stroke-linejoin="round" stroke-width="4.000000"
	d="
M639.500000,156.500000 
	C645.153687,160.322830 652.215027,161.478577 658.156311,166.034454 
	C652.184875,170.283722 645.217041,171.067413 639.500000,174.500000 
"/>
<path fill="none" opacity="1.000000" stroke="#000000" stroke-linecap="round" stroke-linejoin="round" stroke-width="4.000000"
	d="
M611.500000,692.500000 
	C617.153687,696.322815 624.215027,697.478577 630.156311,702.034424 
	C624.184875,706.283691 617.217041,707.067444 611.500000,710.500000 
"/>
<path fill="none" opacity="1.000000" stroke="#000000" stroke-linecap="round" stroke-linejoin="round" stroke-width="4.000000"
	d="
M639.500000,692.500000 
	C645.153687,696.322815 652.215027,697.478577 658.156311,702.034424 
	C652.184875,706.283691 645.217041,707.067444 639.500000,710.500000 
"/>
<path fill="none" opacity="1.000000" stroke="#000000" stroke-linecap="round" stroke-linejoin="round" stroke-width="4.000000"
	d="
M386.500000,229.000000 
	C383.333344,229.500000 380.175201,230.064850 376.997864,230.483688 
	C372.964081,231.015442 370.326263,233.814743 371.000031,237.000000 
	C371.580994,239.746475 376.048492,242.464783 378.973724,241.426041 
	C381.762238,240.435852 384.333344,238.833328 387.000000,237.500000 
"/>
<path fill="none" opacity="1.000000" stroke="#000000" stroke-linecap="round" stroke-linejoin="round" stroke-width="4.000000"
	d="
M483.500000,765.000000 
	C480.333344,765.500000 477.175201,766.064941 473.997864,766.483704 
	C469.964081,767.015503 467.326202,769.814758 467.999969,773.000000 
	C468.580933,775.746460 473.086792,778.535339 475.959930,777.398743 
	C478.351868,776.452454 480.895508,775.793762 483.096436,774.127319 
	C484.355469,773.174072 485.038300,772.527222 485.016724,770.999756 
	C484.964966,767.333801 485.220032,763.650024 484.944031,760.004211 
	C484.602417,755.491943 477.319122,752.871399 472.533478,755.559570 
	C471.148529,756.337585 470.166687,757.833374 469.000031,759.000000 
"/>
<path fill="none" opacity="1.000000" stroke="#000000" stroke-linecap="round" stroke-linejoin="round" stroke-width="4.000000"
	d="
M488.500000,466.500000 
	C488.500000,475.333344 488.441193,484.167236 488.528503,492.999725 
	C488.564209,496.610168 487.441406,499.083130 483.500000,499.500000 
"/>
<path fill="none" opacity="1.000000" stroke="#000000" stroke-linecap="round" stroke-linejoin="round" stroke-width="4.000000"
	d="
M552.500000,489.500000 
	C552.500000,484.333344 552.662415,479.160278 552.459473,474.001587 
	C552.197754,467.347687 547.353638,464.984283 541.452209,467.903351 
	C537.366821,469.924133 536.469360,473.045135 536.494141,477.000031 
	C536.520203,481.166534 536.500000,485.333344 536.500000,489.500000 
"/>
<path fill="none" opacity="1.000000" stroke="#000000" stroke-linecap="round" stroke-linejoin="round" stroke-width="5.000000"
	d="
M297.000000,241.000000 
	C297.000000,236.166672 297.015411,231.333267 296.996307,226.500015 
	C296.968964,219.582626 292.113861,216.735336 285.990601,219.982300 
	C284.676147,220.679337 283.753387,222.173447 282.000000,222.000000 
"/>
<path fill="none" opacity="1.000000" stroke="#000000" stroke-linecap="round" stroke-linejoin="round" stroke-width="5.000000"
	d="
M285.000000,777.000000 
	C285.000000,772.166687 285.015411,767.333252 284.996307,762.500000 
	C284.968964,755.582642 280.113892,752.735352 273.990631,755.982300 
	C272.676178,756.679382 271.753387,758.173462 270.000000,758.000000 
"/>
<path fill="none" opacity="1.000000" stroke="#000000" stroke-linecap="round" stroke-linejoin="round" stroke-width="5.000000"
	d="
M349.000000,777.000000 
	C349.000000,772.166687 349.003479,767.333313 348.999176,762.500000 
	C348.993011,755.563416 344.147827,752.716919 337.990631,755.982300 
	C336.676208,756.679443 335.753387,758.173462 334.000000,758.000000 
"/>
<path fill="none" opacity="1.000000" stroke="#000000" stroke-linecap="round" stroke-linejoin="round" stroke-width="5.000000"
	d="
M662.000000,489.000000 
	C662.000000,484.166656 662.015442,479.333282 661.996338,474.500000 
	C661.968994,467.582642 657.113892,464.735352 650.990601,467.982300 
	C649.676147,468.679321 648.753418,470.173462 647.000000,470.000000 
"/>
<path fill="none" opacity="1.000000" stroke="#000000" stroke-linecap="round" stroke-linejoin="round" stroke-width="5.000000"
	d="
M361.000000,241.000000 
	C361.000000,236.166672 361.003448,231.333328 360.999176,226.500000 
	C360.993042,219.563416 356.147827,216.716949 349.990631,219.982361 
	C348.676208,220.679443 347.753387,222.173447 346.000000,222.000000 
"/>
<path fill="none" opacity="1.000000" stroke="#000000" stroke-linecap="round" stroke-linejoin="round" stroke-width="5.000000"
	d="
M459.000000,777.000000 
	C458.747345,771.836121 459.215881,766.678894 458.587738,761.489380 
	C457.848633,755.383301 452.658783,752.924988 447.498169,755.996887 
	C446.343719,756.684082 445.166656,757.333313 444.000000,758.000000 
"/>
<path fill="none" opacity="1.000000" stroke="#000000" stroke-linecap="round" stroke-linejoin="round" stroke-width="4.000000"
	d="
M615.500000,457.000000 
	C613.701660,457.195801 613.335999,458.358154 612.934692,459.983887 
	C610.910217,468.185638 608.606262,476.318268 606.558594,484.514648 
	C606.212158,485.901215 605.967041,487.033569 604.500000,487.500000 
"/>
<path fill="none" opacity="1.000000" stroke="#000000" stroke-linecap="round" stroke-linejoin="round" stroke-width="5.000000"
	d="
M219.000000,458.000000 
	C219.000000,468.333344 219.000000,478.666656 219.000000,489.000000 
"/>
<path fill="none" opacity="1.000000" stroke="#000000" stroke-linecap="round" stroke-linejoin="round" stroke-width="5.000000"
	d="
M268.000000,686.000000 
	C268.000000,696.333313 268.000000,706.666687 268.000000,717.000000 
"/>
<path fill="none" opacity="1.000000" stroke="#000000" stroke-linecap="round" stroke-linejoin="round" stroke-width="5.000000"
	d="
M484.000000,210.000000 
	C484.000000,220.333328 484.000000,230.666672 484.000000,241.000000 
"/>
<path fill="none" opacity="1.000000" stroke="#000000" stroke-linecap="round" stroke-linejoin="round" stroke-width="5.000000"
	d="
M268.000000,150.000000 
	C268.000000,160.333328 268.000000,170.666672 268.000000,181.000000 
"/>
<path fill="none" opacity="1.000000" stroke="#000000" stroke-linecap="round" stroke-linejoin="round" stroke-width="4.000000"
	d="
M423.000031,383.500000 
	C419.000031,375.666656 414.854095,367.902527 411.086792,359.958862 
	C409.920105,357.498779 408.621094,355.156342 406.000000,355.156342 
	C403.378906,355.156342 402.079895,357.498779 400.913239,359.958862 
	C397.145996,367.902557 393.000031,375.666687 389.000031,383.500031 
"/>
<path fill="none" opacity="1.000000" stroke="#000000" stroke-linecap="round" stroke-linejoin="round" stroke-width="4.000000"
	d="
M389.000000,546.000000 
	C392.666656,553.166687 396.300201,560.350586 400.018890,567.490173 
	C401.236115,569.827148 401.834808,572.800659 405.005249,573.475281 
	C406.787262,573.854492 405.913940,575.149292 405.956116,576.002197 
	C406.079498,578.496094 406.000000,581.000000 406.000000,583.500000 
"/>
<path fill="none" opacity="1.000000" stroke="#000000" stroke-linecap="round" stroke-linejoin="round" stroke-width="4.000000"
	d="
M423.000000,546.000000 
	C417.167206,554.966980 414.640686,565.917725 407.280273,573.968140 
	C406.853516,573.821899 406.426758,573.675598 406.000000,573.529297 
	C406.000000,570.686218 406.000000,567.843079 406.000000,565.000000 
"/>
<path fill="none" opacity="1.000000" stroke="#000000" stroke-linecap="round" stroke-linejoin="round" stroke-width="4.000000"
	d="
M376.500000,777.500000 
	C373.985168,773.161621 376.169098,768.478943 375.818054,763.975220 
	C375.543274,760.449463 375.597748,757.438416 372.467957,755.553223 
	C369.089844,753.518494 363.952179,754.476990 360.952515,756.942261 
	C359.866699,757.834656 359.907135,760.403320 357.500000,759.500000 
"/>
<path fill="none" opacity="1.000000" stroke="#000000" stroke-linecap="round" stroke-linejoin="round" stroke-width="5.000000"
	d="
M565.000000,458.500000 
	C563.831055,460.360748 563.988586,462.437927 563.994690,464.500031 
	C564.010559,469.833313 564.000000,475.166656 564.000000,480.500000 
	C564.000000,487.662079 564.000000,487.662079 570.500000,490.000000 
"/>
<path fill="none" opacity="1.000000" stroke="#000000" stroke-linecap="round" stroke-linejoin="round" stroke-width="5.000000"
	d="
M419.000000,686.500000 
	C417.831085,688.360718 417.988586,690.437927 417.994690,692.500000 
	C418.010498,697.833252 418.000000,703.166687 418.000000,708.500000 
	C418.000000,715.662048 418.000000,715.662048 424.500000,718.000000 
"/>
<path fill="none" opacity="1.000000" stroke="#000000" stroke-linecap="round" stroke-linejoin="round" stroke-width="5.000000"
	d="
M419.000000,150.500000 
	C417.831085,152.360733 417.988586,154.437927 417.994690,156.500015 
	C418.010498,161.833298 418.000000,167.166672 418.000000,172.500000 
	C418.000000,179.662079 418.000000,179.662079 424.500000,182.000000 
"/>
<path fill="none" opacity="1.000000" stroke="#000000" stroke-linecap="round" stroke-linejoin="round" stroke-width="4.000000"
	d="
M634.000000,458.500000 
	C632.885315,467.482452 633.776855,476.501770 633.512634,485.500366 
	C633.411438,488.944763 636.315979,488.813385 638.500000,489.500000 
"/>
<path fill="none" opacity="1.000000" stroke="#000000" stroke-linecap="round" stroke-linejoin="round" stroke-width="4.000000"
	d="
M576.000000,150.500000 
	C574.841309,159.314621 575.719482,168.167740 575.559387,177.001083 
	C575.511658,179.636200 576.977844,181.379105 580.000000,181.000000 
"/>
<path fill="none" opacity="1.000000" stroke="#000000" stroke-linecap="round" stroke-linejoin="round" stroke-width="4.000000"
	d="
M576.000000,686.500000 
	C574.841309,695.314636 575.719482,704.167725 575.559387,713.001099 
	C575.511658,715.636169 576.977844,717.379089 580.000000,717.000000 
"/>
<path fill="none" opacity="1.000000" stroke="#000000" stroke-linecap="round" stroke-linejoin="round" stroke-width="4.000000"
	d="
M584.500000,694.000000 
	C587.395813,694.155090 587.199951,696.889404 587.902954,698.541321 
	C589.694458,702.750549 591.215942,707.109009 592.395996,711.527771 
	C592.882629,713.350037 593.885376,714.498779 595.000000,715.750000 
"/>
<path fill="none" opacity="1.000000" stroke="#000000" stroke-linecap="round" stroke-linejoin="round" stroke-width="4.000000"
	d="
M390.500000,242.000000 
	C387.528473,242.145309 387.635925,238.658066 387.739502,238.040146 
	C388.312317,234.622971 387.211700,231.257050 387.644104,228.019241 
	C388.188660,223.941147 388.172913,220.961502 383.520599,219.437134 
	C378.312256,217.730576 375.189056,218.491241 372.000000,223.000000 
"/>
<path fill="none" opacity="1.000000" stroke="#000000" stroke-linecap="round" stroke-linejoin="round" stroke-width="5.000000"
	d="
M384.000000,458.500000 
	C382.831085,460.360748 382.990265,462.437958 382.994659,464.500000 
	C383.008911,471.166626 383.068909,477.834381 382.968079,484.499512 
	C382.924286,487.395782 383.729675,489.221771 387.000000,489.000000 
"/>
<path fill="none" opacity="1.000000" stroke="#000000" stroke-linecap="round" stroke-linejoin="round" stroke-width="4.000000"
	d="
M584.500000,158.000000 
	C587.395813,158.155106 587.199890,160.889374 587.903015,162.541275 
	C589.694519,166.750549 591.216003,171.108978 592.395996,175.527771 
	C592.882690,177.349991 593.885376,178.498795 595.000000,179.750000 
"/>
<path fill="none" opacity="1.000000" stroke="#000000" stroke-linecap="round" stroke-linejoin="round" stroke-width="4.000000"
	d="
M412.500000,466.000000 
	C411.888519,466.573578 410.715698,465.934509 410.426605,467.486328 
	C409.428711,472.842743 406.501953,477.589508 405.301056,482.955475 
	C404.981110,484.384918 404.739441,487.223267 402.000000,487.500000 
"/>
<path fill="none" opacity="1.000000" stroke="#000000" stroke-linecap="round" stroke-linejoin="round" stroke-width="4.000000"
	d="
M181.500000,466.500000 
	C184.244431,469.653534 184.276337,473.920227 185.196060,477.576447 
	C186.205093,481.587860 188.006012,485.164703 189.250000,489.000000 
"/>
<path fill="none" opacity="1.000000" stroke="#000000" stroke-linecap="round" stroke-linejoin="round" stroke-width="4.000000"
	d="
M605.500000,694.000000 
	C604.888489,694.573547 603.831299,694.006775 603.414490,695.475708 
	C600.951965,704.153381 596.757690,712.218140 594.348206,720.958130 
	C593.592224,723.700562 592.170532,727.170837 588.000000,727.000000 
"/>
<path fill="none" opacity="1.000000" stroke="#000000" stroke-linecap="round" stroke-linejoin="round" stroke-width="4.000000"
	d="
M605.500000,158.000000 
	C604.888489,158.573578 603.831299,158.006775 603.414490,159.475739 
	C600.951965,168.153427 596.757690,176.218094 594.348267,184.958176 
	C593.592224,187.700562 592.170532,191.170853 588.000000,191.000000 
"/>
<path fill="none" opacity="1.000000" stroke="#000000" stroke-linecap="round" stroke-linejoin="round" stroke-width="4.000000"
	d="
M261.500000,694.000000 
	C260.589172,694.422485 259.767334,694.413391 259.372803,695.967712 
	C258.039856,701.219116 256.034637,706.296692 254.584320,711.523376 
	C254.174805,712.999207 253.463425,714.002930 252.500000,715.000000 
"/>
<path fill="none" opacity="1.000000" stroke="#000000" stroke-linecap="round" stroke-linejoin="round" stroke-width="4.000000"
	d="
M261.500000,158.000000 
	C260.589172,158.422501 259.767365,158.413391 259.372833,159.967712 
	C258.039856,165.219086 256.034637,170.296692 254.584305,175.523392 
	C254.174789,176.999237 253.463425,178.002914 252.500000,179.000000 
"/>
<path fill="none" opacity="1.000000" stroke="#000000" stroke-linecap="round" stroke-linejoin="round" stroke-width="4.000000"
	d="
M244.000000,470.500000 
	C245.027496,470.652069 245.714188,470.189117 246.536423,469.546600 
	C249.002426,467.619324 251.234421,465.365326 255.049561,467.407410 
	C259.493713,469.786224 260.775391,473.830841 260.764893,477.999420 
	C260.758911,480.343445 260.496460,483.295166 258.535950,485.531525 
	C254.633102,489.983673 251.575546,490.433960 246.485565,487.021515 
	C245.756470,486.532715 244.833328,486.333344 244.000000,486.000000 
"/>
<path fill="none" opacity="1.000000" stroke="#000000" stroke-linecap="round" stroke-linejoin="round" stroke-width="5.000000"
	d="
M454.000000,467.000000 
	C454.000000,474.333344 454.000000,481.666656 454.000000,489.000000 
"/>
<path fill="none" opacity="1.000000" stroke="#000000" stroke-linecap="round" stroke-linejoin="round" stroke-width="5.000000"
	d="
M526.000000,467.000000 
	C526.000000,474.333344 526.000000,481.666656 526.000000,489.000000 
"/>
<path fill="none" opacity="1.000000" stroke="#000000" stroke-linecap="round" stroke-linejoin="round" stroke-width="5.000000"
	d="
M622.000000,467.000000 
	C622.000000,474.333344 622.000000,481.666656 622.000000,489.000000 
"/>
<path fill="none" opacity="1.000000" stroke="#000000" stroke-linecap="round" stroke-linejoin="round" stroke-width="4.000000"
	d="
M506.000000,178.000000 
	C507.275696,177.948608 508.059753,178.811554 509.021881,179.467926 
	C513.704529,182.662552 519.163757,181.284027 521.412964,175.963196 
	C523.023804,172.152451 523.475220,168.003311 521.501587,163.999207 
	C518.739868,158.396194 514.170349,157.273895 509.017731,161.024384 
	C508.072784,161.712173 507.450317,162.900650 506.000000,162.500000 
"/>
<path fill="none" opacity="1.000000" stroke="#000000" stroke-linecap="round" stroke-linejoin="round" stroke-width="4.000000"
	d="
M506.000000,714.000000 
	C507.275696,713.948608 508.059784,714.811523 509.021881,715.467957 
	C513.704468,718.662598 519.163818,717.284058 521.413025,711.963196 
	C523.023865,708.152466 523.475281,704.003296 521.501587,699.999207 
	C518.739868,694.396240 514.170532,693.274048 509.017792,697.024414 
	C508.072815,697.712219 507.450317,698.900635 506.000000,698.500000 
"/>
<path fill="none" opacity="1.000000" stroke="#000000" stroke-linecap="round" stroke-linejoin="round" stroke-width="4.000000"
	d="
M393.500000,466.500000 
	C396.326324,473.439178 398.135986,480.741882 401.423065,487.537201 
	C403.834198,492.521759 399.802490,498.514252 394.500000,498.500000 
"/>
<path fill="none" opacity="1.000000" stroke="#000000" stroke-linecap="round" stroke-linejoin="round" stroke-width="4.000000"
	d="
M211.500000,466.500000 
	C208.917694,471.194794 208.410400,476.575500 206.671692,481.559906 
	C205.915619,483.727356 205.026215,485.453674 203.500000,487.000000 
"/>
<path fill="none" opacity="1.000000" stroke="#000000" stroke-linecap="round" stroke-linejoin="round" stroke-width="4.000000"
	d="
M196.750000,467.000000 
	C199.426117,474.032898 200.267960,481.641663 203.500000,488.500000 
"/>
<path fill="none" opacity="1.000000" stroke="#000000" stroke-linecap="round" stroke-linejoin="round" stroke-width="4.000000"
	d="
M169.000000,155.500000 
	C168.104630,158.490280 165.066345,158.381287 162.955856,159.409378 
	C158.802505,161.432556 154.361526,162.864273 150.260986,166.072861 
	C155.537384,170.425217 162.788300,170.923401 168.500000,174.500000 
"/>
<path fill="none" opacity="1.000000" stroke="#000000" stroke-linecap="round" stroke-linejoin="round" stroke-width="4.000000"
	d="
M169.000000,691.500000 
	C168.104630,694.490295 165.066330,694.381348 162.955826,695.409302 
	C158.802353,697.432251 154.361649,698.864563 150.260925,702.072815 
	C155.537384,706.425232 162.788300,706.923401 168.500000,710.500000 
"/>
<path fill="none" opacity="1.000000" stroke="#000000" stroke-linecap="round" stroke-linejoin="round" stroke-width="4.000000"
	d="
M197.000000,691.500000 
	C196.104630,694.490295 193.066330,694.381348 190.955826,695.409302 
	C186.802353,697.432251 182.361649,698.864563 178.260925,702.072815 
	C183.537384,706.425232 190.788300,706.923401 196.500000,710.500000 
"/>
<path fill="none" opacity="1.000000" stroke="#000000" stroke-linecap="round" stroke-linejoin="round" stroke-width="4.000000"
	d="
M197.000000,155.500000 
	C196.104630,158.490280 193.066376,158.381409 190.955856,159.409363 
	C186.802383,161.432343 182.361649,162.864548 178.260925,166.072815 
	C183.537384,170.425217 190.788300,170.923401 196.500000,174.500000 
"/>
<path fill="none" opacity="1.000000" stroke="#000000" stroke-linecap="round" stroke-linejoin="round" stroke-width="4.000000"
	d="
M230.500000,694.500000 
	C232.166656,700.166687 233.941223,705.805603 235.410416,711.523010 
	C235.709991,712.688843 236.417526,713.216125 237.000000,714.000000 
"/>
<path fill="none" opacity="1.000000" stroke="#000000" stroke-linecap="round" stroke-linejoin="round" stroke-width="4.000000"
	d="
M230.500000,158.500000 
	C232.166672,164.166672 233.941238,169.805603 235.410400,175.523026 
	C235.709976,176.688873 236.417526,177.216141 237.000000,178.000000 
"/>
<path fill="none" opacity="1.000000" stroke="#000000" stroke-linecap="round" stroke-linejoin="round" stroke-width="5.000000"
	d="
M366.000000,467.000000 
	C366.000000,474.333344 366.000000,481.666656 366.000000,489.000000 
"/>
<path fill="none" opacity="1.000000" stroke="#000000" stroke-linecap="round" stroke-linejoin="round" stroke-width="4.000000"
	d="
M442.500000,745.500000 
	C442.500000,756.166687 442.500000,766.833313 442.500000,777.500000 
"/>
<path fill="none" opacity="1.000000" stroke="#000000" stroke-linecap="round" stroke-linejoin="round" stroke-width="4.000000"
	d="
M462.500000,694.500000 
	C463.492584,702.166687 461.971924,709.833313 462.500000,717.500000 
"/>
<path fill="none" opacity="1.000000" stroke="#000000" stroke-linecap="round" stroke-linejoin="round" stroke-width="5.000000"
	d="
M521.000000,219.000000 
	C521.000000,226.333328 521.000000,233.666672 521.000000,241.000000 
"/>
<path fill="none" opacity="1.000000" stroke="#000000" stroke-linecap="round" stroke-linejoin="round" stroke-width="4.000000"
	d="
M462.500000,158.500000 
	C463.492584,166.166672 461.971924,173.833328 462.500000,181.500000 
"/>
<path fill="none" opacity="1.000000" stroke="#000000" stroke-linecap="round" stroke-linejoin="round" stroke-width="5.000000"
	d="
M333.000000,746.000000 
	C333.000000,756.333313 333.000000,766.666687 333.000000,777.000000 
"/>
<path fill="none" opacity="1.000000" stroke="#000000" stroke-linecap="round" stroke-linejoin="round" stroke-width="5.000000"
	d="
M269.000000,755.000000 
	C269.000000,762.333313 269.000000,769.666687 269.000000,777.000000 
"/>
<path fill="none" opacity="1.000000" stroke="#000000" stroke-linecap="round" stroke-linejoin="round" stroke-width="4.000000"
	d="
M120.499992,464.499969 
	C116.333328,466.333313 112.129120,468.087280 108.015587,470.032928 
	C105.906967,471.030243 103.477592,471.676117 102.250000,474.000000 
"/>
<path fill="none" opacity="1.000000" stroke="#000000" stroke-linecap="round" stroke-linejoin="round" stroke-width="4.000000"
	d="
M148.500000,464.500000 
	C144.333328,466.333344 140.129135,468.087280 136.015564,470.032898 
	C133.906967,471.030243 131.477600,471.676117 130.250000,474.000000 
"/>
<path fill="none" opacity="1.000000" stroke="#000000" stroke-linecap="round" stroke-linejoin="round" stroke-width="4.000000"
	d="
M671.500000,464.499969 
	C675.666687,466.333313 679.870850,468.087250 683.984436,470.032867 
	C686.093018,471.030212 688.522400,471.676117 689.750000,474.000000 
"/>
<path fill="none" opacity="1.000000" stroke="#000000" stroke-linecap="round" stroke-linejoin="round" stroke-width="4.000000"
	d="
M699.500000,464.500000 
	C703.666687,466.333313 707.870850,468.087250 711.984436,470.032898 
	C714.093018,471.030212 716.522400,471.676117 717.750000,474.000000 
"/>
<path fill="none" opacity="1.000000" stroke="#000000" stroke-linecap="round" stroke-linejoin="round" stroke-width="5.000000"
	d="
M646.000000,458.000000 
	C646.000000,468.333344 646.000000,478.666656 646.000000,489.000000 
"/>
<path fill="none" opacity="1.000000" stroke="#000000" stroke-linecap="round" stroke-linejoin="round" stroke-width="5.000000"
	d="
M280.500000,466.500000 
	C279.000000,467.782776 277.451538,466.156036 276.009735,466.536896 
	C272.641907,467.426422 270.010376,471.249023 270.002380,475.000000 
	C269.992462,479.666626 270.000000,484.333344 270.000000,489.000000 
"/>
<path fill="none" opacity="1.000000" stroke="#000000" stroke-linecap="round" stroke-linejoin="round" stroke-width="5.000000"
	d="
M558.500000,158.500000 
	C559.657593,165.977982 558.688354,173.503220 559.000000,181.000000 
"/>
<path fill="none" opacity="1.000000" stroke="#000000" stroke-linecap="round" stroke-linejoin="round" stroke-width="5.000000"
	d="
M558.500000,694.500000 
	C559.657593,701.977966 558.688354,709.503235 559.000000,717.000000 
"/>
<path fill="none" opacity="1.000000" stroke="#000000" stroke-linecap="round" stroke-linejoin="round" stroke-width="5.000000"
	d="
M345.000000,210.000000 
	C345.000000,220.333328 345.000000,230.666672 345.000000,241.000000 
"/>
<path fill="none" opacity="1.000000" stroke="#000000" stroke-linecap="round" stroke-linejoin="round" stroke-width="4.000000"
	d="
M245.500000,695.500000 
	C241.889297,700.978516 242.126114,707.846497 239.000000,713.500000 
"/>
<path fill="none" opacity="1.000000" stroke="#000000" stroke-linecap="round" stroke-linejoin="round" stroke-width="5.000000"
	d="
M281.000000,219.000000 
	C281.000000,226.333328 281.000000,233.666672 281.000000,241.000000 
"/>
<path fill="none" opacity="1.000000" stroke="#000000" stroke-linecap="round" stroke-linejoin="round" stroke-width="4.000000"
	d="
M245.500000,159.500000 
	C241.889297,164.978546 242.126114,171.846466 239.000000,177.500000 
"/>
<path fill="none" opacity="1.000000" stroke="#000000" stroke-linecap="round" stroke-linejoin="round" stroke-width="4.000000"
	d="
M101.000000,474.000000 
	C106.977501,478.032013 114.050087,479.551758 120.500000,482.500000 
"/>
<path fill="none" opacity="1.000000" stroke="#000000" stroke-linecap="round" stroke-linejoin="round" stroke-width="4.000000"
	d="
M129.000000,474.000000 
	C134.977493,478.032013 142.050095,479.551758 148.500000,482.500000 
"/>
<path fill="none" opacity="1.000000" stroke="#000000" stroke-linecap="round" stroke-linejoin="round" stroke-width="4.000000"
	d="
M691.000000,474.000000 
	C684.980286,477.935242 677.998474,479.663177 671.500000,482.500000 
"/>
<path fill="none" opacity="1.000000" stroke="#000000" stroke-linecap="round" stroke-linejoin="round" stroke-width="4.000000"
	d="
M719.000000,474.000000 
	C712.980286,477.935242 705.998474,479.663177 699.500000,482.500000 
"/>
<path fill="none" opacity="1.000000" stroke="#000000" stroke-linecap="round" stroke-linejoin="round" stroke-width="4.000000"
	d="
M374.500000,764.999939 
	C371.333313,765.499939 368.178925,766.106567 364.996918,766.473083 
	C360.987061,766.934875 358.468658,769.567932 359.000000,773.000000 
	C359.411194,775.656006 364.066010,778.434448 366.979828,777.440857 
	C369.575806,776.555664 372.000000,775.166687 374.500000,774.000000 
"/>
<path fill="none" opacity="1.000000" stroke="#000000" stroke-linecap="round" stroke-linejoin="round" stroke-width="4.000000"
	d="
M246.000000,162.000000 
	C247.895859,163.034714 247.119385,164.944977 247.563568,166.481628 
	C248.975128,171.364609 250.666672,176.166656 252.250015,181.000000 
"/>
<path fill="none" opacity="1.000000" stroke="#000000" stroke-linecap="round" stroke-linejoin="round" stroke-width="4.000000"
	d="
M246.000000,698.000000 
	C247.895859,699.034729 247.119400,700.945007 247.563599,702.481628 
	C248.975113,707.364563 250.666672,712.166687 252.250000,717.000000 
"/>
<path fill="none" opacity="1.000000" stroke="#000000" stroke-linecap="round" stroke-linejoin="round" stroke-width="4.000000"
	d="
M196.000000,470.000000 
	C193.028000,474.193512 192.776276,479.270660 191.591217,484.022736 
	C191.298874,485.195068 190.582474,485.716156 190.000000,486.500000 
"/>
<path fill="none" opacity="1.000000" stroke="#000000" stroke-linecap="round" stroke-linejoin="round" stroke-width="5.000000"
	d="
M496.000000,755.000000 
	C496.625702,761.655212 495.957275,768.329651 496.267700,775.010803 
	C496.449005,778.912903 496.295074,783.005371 496.000000,787.000000 
"/>
<path fill="none" opacity="1.000000" stroke="#000000" stroke-linecap="round" stroke-linejoin="round" stroke-width="4.000000"
	d="
M580.500000,158.500000 
	C575.833313,158.500000 571.162415,158.621414 566.501526,158.457169 
	C563.409485,158.348221 562.147949,161.462616 559.500000,162.000000 
"/>
<path fill="none" opacity="1.000000" stroke="#000000" stroke-linecap="round" stroke-linejoin="round" stroke-width="4.000000"
	d="
M580.500000,694.500000 
	C575.833313,694.500000 571.162415,694.621399 566.501526,694.457153 
	C563.409485,694.348206 562.147949,697.462646 559.500000,698.000000 
"/>
<path fill="none" opacity="1.000000" stroke="#000000" stroke-linecap="round" stroke-linejoin="round" stroke-width="5.000000"
	d="
M505.000000,159.000000 
	C505.000000,169.666672 505.000000,180.333328 505.000000,191.000000 
"/>
<path fill="none" opacity="1.000000" stroke="#000000" stroke-linecap="round" stroke-linejoin="round" stroke-width="4.000000"
	d="
M312.500000,466.500000 
	C312.500000,477.500000 312.500000,488.500000 312.500000,499.500000 
"/>
<path fill="none" opacity="1.000000" stroke="#000000" stroke-linecap="round" stroke-linejoin="round" stroke-width="5.000000"
	d="
M243.000000,467.000000 
	C243.000000,477.666656 243.000000,488.333344 243.000000,499.000000 
"/>
<path fill="none" opacity="1.000000" stroke="#000000" stroke-linecap="round" stroke-linejoin="round" stroke-width="5.000000"
	d="
M505.000000,695.000000 
	C505.000000,705.666687 505.000000,716.333313 505.000000,727.000000 
"/>
<path fill="none" opacity="1.000000" stroke="#000000" stroke-linecap="round" stroke-linejoin="round" stroke-width="3.000000"
	d="
M473.500000,694.500000 
	C469.738464,694.443237 466.413422,695.633606 463.500000,698.000000 
"/>
<path fill="none" opacity="1.000000" stroke="#000000" stroke-linecap="round" stroke-linejoin="round" stroke-width="3.000000"
	d="
M473.500000,158.500000 
	C469.738464,158.443207 466.413422,159.633606 463.500000,162.000000 
"/>
<path fill="none" opacity="1.000000" stroke="#000000" stroke-linecap="round" stroke-linejoin="round" stroke-width="3.000000"
	d="
M406.000000,346.000000 
	C406.000000,348.833344 406.000000,351.666656 406.000000,354.500000 
"/>
<path fill="none" opacity="1.000000" stroke="#000000" stroke-linecap="round" stroke-linejoin="round" stroke-width="4.000000"
	d="
M530.000000,219.000000 
	C526.417358,216.902176 525.048340,221.888031 522.000000,221.500000 
"/>
<path fill="none" opacity="1.000000" stroke="#000000" stroke-linecap="round" stroke-linejoin="round" stroke-width="3.000000"
	d="
M375.000000,467.000000 
	C373.337585,465.704834 371.871063,466.706818 370.522095,467.535950 
	C369.371185,468.243378 368.803497,469.947754 367.000000,469.500000 
"/>
<path fill="none" opacity="1.000000" stroke="#000000" stroke-linecap="round" stroke-linejoin="round" stroke-width="4.000000"
	d="
M387.500000,466.500000 
	C384.833344,466.590179 382.166656,467.587463 379.500000,466.500000 
"/>
<path fill="none" opacity="1.000000" stroke="#000000" stroke-linecap="round" stroke-linejoin="round" stroke-width="4.000000"
	d="
M568.500000,466.500000 
	C565.833313,466.590179 563.166687,467.587463 560.500000,466.500000 
"/>
<path fill="none" opacity="1.000000" stroke="#000000" stroke-linecap="round" stroke-linejoin="round" stroke-width="4.000000"
	d="
M422.500000,158.500000 
	C419.833344,158.590164 417.166656,159.587463 414.500000,158.500000 
"/>
<path fill="none" opacity="1.000000" stroke="#000000" stroke-linecap="round" stroke-linejoin="round" stroke-width="4.000000"
	d="
M422.500000,694.500000 
	C419.833344,694.590149 417.166656,695.587463 414.500000,694.500000 
"/>
<path fill="none" opacity="1.000000" stroke="#000000" stroke-linecap="round" stroke-linejoin="round" stroke-width="4.000000"
	d="
M637.500000,466.500000 
	C634.833313,467.143677 632.166687,467.143677 629.500000,466.500000 
"/>
<path fill="none" opacity="1.000000" stroke="#000000" stroke-linecap="round" stroke-linejoin="round" stroke-width="4.000000"
	d="
M486.000000,158.500000 
	C477.109009,161.755814 473.660706,171.848846 479.559662,177.942245 
	C481.997253,180.460220 484.984100,182.475586 489.010010,181.027863 
	C493.103943,179.555679 495.545715,176.668335 495.934387,172.493896 
	C496.577820,165.583389 495.418365,160.144531 486.500000,158.500000 
"/>
<path fill="none" opacity="1.000000" stroke="#000000" stroke-linecap="round" stroke-linejoin="round" stroke-width="4.000000"
	d="
M214.000000,158.500000 
	C205.109009,161.755814 201.660690,171.848831 207.559631,177.942276 
	C209.997223,180.460220 212.984116,182.475571 217.010010,181.027847 
	C221.103928,179.555664 223.545731,176.668335 223.934418,172.493896 
	C224.577850,165.583450 223.418411,160.144547 214.500000,158.500000 
"/>
<path fill="none" opacity="1.000000" stroke="#000000" stroke-linecap="round" stroke-linejoin="round" stroke-width="4.000000"
	d="
M302.500000,150.000000 
	C294.565216,151.580460 291.706512,157.467316 291.118958,164.509918 
	C290.603760,170.685074 292.688751,176.199722 298.508026,179.485794 
	C307.559174,184.596909 318.952606,177.910263 318.992065,167.499969 
	C319.007019,163.556778 319.560730,159.487213 316.992737,156.005356 
	C313.511658,151.285477 308.788666,149.382034 303.000000,150.000000 
"/>
<path fill="none" opacity="1.000000" stroke="#000000" stroke-linecap="round" stroke-linejoin="round" stroke-width="4.000000"
	d="
M464.000000,218.500000 
	C458.122711,220.359589 455.372589,224.155304 455.928528,230.506256 
	C456.280945,234.532410 456.631439,237.942642 460.936188,240.125793 
	C464.862335,242.116959 467.831055,241.497986 471.015686,239.020142 
	C474.706238,236.148682 475.513885,232.083786 474.881134,228.018494 
	C474.006622,222.399673 470.489594,218.915024 464.500000,218.500000 
"/>
<path fill="none" opacity="1.000000" stroke="#000000" stroke-linecap="round" stroke-linejoin="round" stroke-width="4.000000"
	d="
M502.000000,218.500000 
	C492.712067,222.497055 489.763641,233.130493 496.540680,238.952652 
	C502.798920,244.329086 510.513550,240.074890 511.965668,233.991806 
	C513.924866,225.784546 510.511444,220.360107 502.500000,218.500000 
"/>
<path fill="none" opacity="1.000000" stroke="#000000" stroke-linecap="round" stroke-linejoin="round" stroke-width="5.000000"
	d="
M422.000000,458.000000 
	C420.844940,458.178253 420.028625,458.844269 420.023560,460.000092 
	C419.981750,469.502838 420.000000,479.005859 420.000000,489.000000 
	C424.988007,489.000000 429.558929,489.480133 433.983978,488.881531 
	C439.843231,488.088928 443.654297,482.334534 443.965607,474.498627 
	C444.368378,464.360535 439.196014,456.625824 428.495605,457.964813 
	C426.526428,458.211212 424.500000,458.000000 422.500000,458.000000 
"/>
<path fill="none" opacity="1.000000" stroke="#000000" stroke-linecap="round" stroke-linejoin="round" stroke-width="4.000000"
	d="
M165.000000,466.500000 
	C155.712082,470.497040 152.763641,481.130524 159.540695,486.952637 
	C165.798904,492.329102 173.513519,488.074890 174.965637,481.991791 
	C176.924835,473.784515 173.511459,468.360107 165.500000,466.500000 
"/>
<path fill="none" opacity="1.000000" stroke="#000000" stroke-linecap="round" stroke-linejoin="round" stroke-width="4.000000"
	d="
M293.000000,466.500000 
	C283.712067,470.497070 280.763672,481.130493 287.540710,486.952606 
	C293.798920,492.329071 301.513519,488.074890 302.965668,481.991791 
	C304.924835,473.784515 301.511444,468.360107 293.500000,466.500000 
"/>
<path fill="none" opacity="1.000000" stroke="#000000" stroke-linecap="round" stroke-linejoin="round" stroke-width="4.000000"
	d="
M506.000000,466.500000 
	C500.122711,468.359589 497.372620,472.155334 497.928528,478.506256 
	C498.280945,482.532410 498.631439,485.942657 502.936188,488.125793 
	C506.862335,490.116913 509.830994,489.497955 513.015686,487.020142 
	C516.706238,484.148651 517.513916,480.083801 516.881165,476.018494 
	C516.006653,470.399689 512.489563,466.915009 506.500000,466.500000 
"/>
<path fill="none" opacity="1.000000" stroke="#000000" stroke-linecap="round" stroke-linejoin="round" stroke-width="4.000000"
	d="
M302.500000,686.000000 
	C294.565216,687.580444 291.706543,693.467346 291.118988,700.509949 
	C290.603790,706.685120 292.688751,712.199768 298.508026,715.485840 
	C307.559174,720.596863 318.952576,713.910278 318.992065,703.500000 
	C319.007019,699.556824 319.560730,695.487183 316.992767,692.005371 
	C313.511658,687.285522 308.788666,685.382019 303.000000,686.000000 
"/>
<path fill="none" opacity="1.000000" stroke="#000000" stroke-linecap="round" stroke-linejoin="round" stroke-width="4.000000"
	d="
M214.000000,694.500000 
	C205.109009,697.755798 201.660721,707.848816 207.559677,713.942200 
	C209.997269,716.460205 212.984100,718.475525 217.010010,717.027832 
	C221.103928,715.555664 223.545746,712.668335 223.934433,708.493896 
	C224.577866,701.583435 223.418396,696.144531 214.500000,694.500000 
"/>
<path fill="none" opacity="1.000000" stroke="#000000" stroke-linecap="round" stroke-linejoin="round" stroke-width="4.000000"
	d="
M486.000000,694.500000 
	C477.109009,697.755798 473.660706,707.848816 479.559631,713.942261 
	C481.997284,716.460205 484.984070,718.475525 489.010010,717.027771 
	C493.103912,715.555603 495.545746,712.668335 495.934418,708.493896 
	C496.577881,701.583435 495.418427,696.144531 486.500000,694.500000 
"/>
</svg>