<svg version="1.1" id="Layer_1" xmlns="http://www.w3.org/2000/svg" xmlns:xlink="http://www.w3.org/1999/xlink" x="0px" y="0px"
	 width="100%" viewBox="0 0 1644 204" enable-background="new 0 0 1644 204" xml:space="preserve">
<path fill="none" opacity="1.000000" stroke="#000000" stroke-linecap="round" stroke-linejoin="round" stroke-width="5.000000"
	d="
M1203.000000,103.500000 
	C1203.000000,123.168076 1203.000000,142.836151 1203.000000,162.750000 
	C1336.500000,162.750000 1469.500000,162.750000 1602.750000,162.750000 
	C1602.750000,122.833336 1602.750000,83.166664 1602.750000,43.250000 
	C1469.500000,43.250000 1336.500000,43.250000 1203.000000,43.250000 
	C1203.000000,45.165318 1203.000000,46.832661 1203.000000,48.500000 
	C1203.000000,65.000000 1203.022949,81.500084 1202.964478,97.999878 
	C1202.958618,99.657127 1203.558716,101.422539 1202.500000,103.000000 
"/>
<path fill="none" opacity="1.000000" stroke="#000000" stroke-linecap="round" stroke-linejoin="round" stroke-width="5.000000"
	d="
M443.500000,102.750000 
	C443.333344,101.000000 443.025879,99.250320 443.021912,97.499947 
	C442.984924,81.166695 443.020660,64.833267 442.968536,48.500099 
	C442.963226,46.840012 443.654297,45.067905 442.001892,43.250000 
	C309.500000,43.250000 176.500000,43.250000 43.250000,43.250000 
	C43.250000,83.166664 43.250000,122.833336 43.250000,162.750000 
	C176.500000,162.750000 309.500000,162.750000 443.000000,162.750000 
	C443.000000,160.834686 443.000000,159.167343 443.000000,157.500000 
	C443.000000,141.166672 442.995911,124.833336 443.005676,108.500000 
	C443.006805,106.638405 442.691132,104.723030 443.750000,103.000000 
"/>
<path fill="none" opacity="1.000000" stroke="#000000" stroke-linecap="round" stroke-linejoin="round" stroke-width="5.000000"
	d="
M1202.000000,103.000000 
	C1142.333374,103.000000 1082.666626,103.000000 1023.000000,103.000000 
"/>
<path fill="none" opacity="1.000000" stroke="#000000" stroke-linecap="round" stroke-linejoin="round" stroke-width="5.000000"
	d="
M535.000000,103.000000 
	C504.666656,103.000000 474.333344,103.000000 444.000000,103.000000 
"/>
<path fill="none" opacity="1.000000" stroke="#000000" stroke-linecap="round" stroke-linejoin="round" stroke-width="5.000000"
	d="
M708.500000,95.000000 
	C706.450195,95.030304 705.736816,93.316437 705.051636,91.973648 
	C702.785828,87.533005 693.294128,86.399544 688.555176,90.071190 
	C686.672363,91.529930 685.140137,93.803726 686.043274,96.485428 
	C687.135193,99.727776 689.925293,101.133324 693.002747,101.990067 
	C696.156982,102.868179 699.370667,103.548332 702.489441,104.533363 
	C705.593079,105.513603 708.031372,107.695267 707.854675,110.992210 
	C707.696289,113.946548 705.731750,116.474808 702.991333,117.984230 
	C696.715454,121.440849 687.666504,117.895012 685.000000,111.000000 
"/>
<path fill="none" opacity="1.000000" stroke="#000000" stroke-linecap="round" stroke-linejoin="round" stroke-width="4.000000"
	d="
M1378.500000,91.000000 
	C1377.700684,90.290848 1376.458618,90.723274 1375.873657,89.043991 
	C1374.324097,84.594894 1366.491211,82.260895 1360.522827,85.048904 
	C1357.732178,86.352539 1355.554810,88.589836 1356.058350,91.991364 
	C1356.621704,95.797012 1359.859619,97.004951 1363.008545,97.972137 
	C1366.136108,98.932747 1369.370728,99.548317 1372.489502,100.533333 
	C1375.593140,101.513588 1377.990479,103.684402 1377.877197,106.995796 
	C1377.757690,110.490601 1375.429810,112.736229 1372.018677,114.048454 
	C1364.925415,116.777077 1358.446777,114.299522 1355.000000,107.250000 
"/>
<path fill="none" opacity="1.000000" stroke="#000000" stroke-linecap="round" stroke-linejoin="round" stroke-width="5.000000"
	d="
M225.500000,90.500000 
	C222.528778,87.776230 220.281036,84.256874 215.504684,83.931244 
	C202.883865,83.070831 198.816910,93.296539 200.204117,102.469131 
	C201.592102,111.646935 206.525589,115.102615 214.500244,115.025948 
	C218.599716,114.986534 221.629166,113.261742 224.037079,110.027603 
	C224.939331,108.815727 225.473099,106.996391 227.500000,107.000000 
"/>
<path fill="none" opacity="1.000000" stroke="#000000" stroke-linecap="round" stroke-linejoin="round" stroke-width="4.000000"
	d="
M320.500000,97.500000 
	C319.872589,97.088165 319.017395,98.191170 318.337189,96.568237 
	C317.403046,94.339439 314.995026,92.894730 312.492065,92.559166 
	C308.988800,92.089500 304.323456,94.033607 304.053589,97.004868 
	C303.711029,100.776375 306.432861,102.128975 309.499786,103.000786 
	C312.395294,103.823868 315.393860,104.251625 318.022430,105.965599 
	C320.702484,107.713127 320.463776,109.854614 318.965240,111.975449 
	C315.227234,117.265907 308.755890,116.575851 304.000000,110.500000 
"/>
<path fill="none" opacity="1.000000" stroke="#000000" stroke-linecap="round" stroke-linejoin="round" stroke-width="4.000000"
	d="
M675.000000,100.500000 
	C672.356995,96.500618 668.875366,95.726891 664.478638,97.445290 
	C662.451965,98.237389 661.073730,99.140274 660.976013,101.499008 
	C660.880432,103.807236 661.450745,105.348259 663.979248,106.072403 
	C665.992493,106.648933 667.813782,107.702942 669.985718,108.081810 
	C674.632141,108.892334 676.365479,111.218552 676.063965,114.505867 
	C675.755127,117.872292 669.921936,120.266457 667.024231,119.417351 
	C664.361023,118.636955 661.291809,117.953957 660.500000,114.500000 
"/>
<path fill="none" opacity="1.000000" stroke="#000000" stroke-linecap="round" stroke-linejoin="round" stroke-width="4.000000"
	d="
M177.000000,96.500000 
	C172.925079,92.223457 168.695572,91.342308 165.000000,94.000000 
	C161.459656,96.546051 161.600174,99.760918 165.525482,101.954384 
	C167.206451,102.893715 169.120712,103.551270 171.010574,103.949875 
	C173.986176,104.577477 177.188629,104.874710 177.924500,108.515259 
	C178.292221,110.334602 178.118866,112.091789 176.075165,113.601730 
	C172.554672,116.202774 169.051193,115.762726 165.538864,114.399826 
	C164.084457,113.835464 163.023849,112.190453 162.500000,110.500000 
"/>
<path fill="none" opacity="1.000000" stroke="#000000" stroke-linecap="round" stroke-linejoin="round" stroke-width="4.000000"
	d="
M869.500000,87.500000 
	C866.113647,87.089218 864.357788,88.074799 864.429688,92.001289 
	C864.631226,102.997597 864.647278,114.003014 864.422119,124.998405 
	C864.340393,128.988647 866.108215,129.916809 869.500000,129.500000 
"/>
<path fill="none" opacity="1.000000" stroke="#000000" stroke-linecap="round" stroke-linejoin="round" stroke-width="5.000000"
	d="
M1008.500000,129.500000 
	C1012.679810,130.013153 1014.196045,128.303528 1014.085571,123.997803 
	C1013.820740,113.671265 1013.820740,103.328735 1014.085571,93.002197 
	C1014.196045,88.696457 1012.679810,86.986847 1008.500000,87.500000 
"/>
<path fill="none" opacity="1.000000" stroke="#000000" stroke-linecap="round" stroke-linejoin="round" stroke-width="4.000000"
	d="
M329.000000,103.000000 
	C333.469635,103.986336 338.006256,103.519989 342.498383,103.423843 
	C345.691956,103.355476 347.119843,100.169640 345.500000,97.500000 
	C343.782440,94.669312 337.907532,91.512352 335.525818,92.558777 
	C330.621338,94.713615 327.771515,96.549126 328.469727,102.753403 
	C328.682953,104.648102 327.708923,106.389626 328.389130,108.535149 
	C330.730408,115.920151 338.304108,117.726578 344.000275,112.000259 
	C344.665161,111.331841 345.333344,110.666679 346.000000,110.000015 
"/>
<path fill="none" opacity="1.000000" stroke="#000000" stroke-linecap="round" stroke-linejoin="round" stroke-width="4.000000"
	d="
M772.000000,100.000000 
	C768.440002,98.746498 765.688354,94.446617 760.928589,97.901604 
	C757.746887,100.211174 755.084229,105.451942 756.000000,110.000000 
	C756.944458,114.690247 760.890259,119.100357 764.500000,119.500000 
	C767.543335,119.836937 772.312134,116.550789 772.979309,113.495483 
	C773.930420,109.140083 773.859741,104.787445 772.500000,100.500000 
"/>
<path fill="none" opacity="1.000000" stroke="#000000" stroke-linecap="round" stroke-linejoin="round" stroke-width="4.000000"
	d="
M1443.500000,115.500000 
	C1442.260498,110.833336 1443.891235,106.174583 1443.530396,101.497658 
	C1443.204834,97.278168 1439.791138,93.300941 1435.500000,92.500023 
	C1432.599609,91.958664 1428.461304,95.325699 1426.953735,98.980911 
	C1425.301758,102.986015 1425.718994,106.970184 1427.605225,110.442856 
	C1430.737793,116.209862 1435.541870,116.509430 1442.500000,112.000000 
"/>
<path fill="none" opacity="1.000000" stroke="#000000" stroke-linecap="round" stroke-linejoin="round" stroke-width="4.000000"
	d="
M1332.000000,97.000000 
	C1328.175903,92.628983 1325.704468,91.322884 1320.491821,93.480164 
	C1318.403076,94.344589 1316.977905,96.061699 1317.173828,97.982277 
	C1317.332153,99.535080 1317.842163,101.745979 1320.490234,102.078140 
	C1322.707153,102.356216 1324.664673,103.696495 1326.984741,104.089928 
	C1331.199219,104.804604 1333.710938,107.794128 1333.000122,110.500046 
	C1332.270874,113.276268 1326.452271,116.539818 1323.528076,115.426178 
	C1320.838623,114.401901 1317.926636,113.298851 1317.000000,110.000000 
"/>
<path fill="none" opacity="1.000000" stroke="#000000" stroke-linecap="round" stroke-linejoin="round" stroke-width="4.000000"
	d="
M584.000000,100.500000 
	C581.523865,97.313278 578.935364,95.611862 574.426697,97.304733 
	C571.760681,98.305710 570.079163,98.938637 569.962280,101.998558 
	C569.823181,105.637733 572.571167,106.164307 575.011902,106.963730 
	C576.615662,107.489029 578.471863,107.369118 579.969116,108.066292 
	C582.532227,109.259758 586.086121,109.839546 585.482361,113.997437 
	C585.025208,117.145233 581.815918,119.731453 578.007996,119.406296 
	C574.589661,119.114410 570.889709,118.620827 569.500000,114.500000 
"/>
<path fill="none" opacity="1.000000" stroke="#000000" stroke-linecap="round" stroke-linejoin="round" stroke-width="5.000000"
	d="
M153.000000,115.000000 
	C153.000000,110.500000 153.016251,105.999931 152.996414,101.500015 
	C152.961731,93.629211 147.840988,90.676208 140.976089,94.456596 
	C139.889450,95.055000 139.013885,96.310165 137.500000,96.000000 
"/>
<path fill="none" opacity="1.000000" stroke="#000000" stroke-linecap="round" stroke-linejoin="round" stroke-width="5.000000"
	d="
M731.000000,97.000000 
	C731.000000,101.666664 731.245667,106.350464 730.921936,110.994553 
	C730.665100,114.677277 731.838440,117.391327 735.026794,118.944954 
	C738.037903,120.412193 740.707092,119.117760 742.992310,116.991707 
	C743.860352,116.184120 744.549683,115.099358 746.000000,115.500000 
"/>
<path fill="none" opacity="1.000000" stroke="#000000" stroke-linecap="round" stroke-linejoin="round" stroke-width="5.000000"
	d="
M1308.000000,115.000000 
	C1308.000000,110.833336 1307.980347,106.666542 1308.005859,102.500038 
	C1308.027954,98.884827 1307.691528,95.514938 1304.013428,93.475876 
	C1300.526855,91.543015 1297.799805,93.214027 1294.987061,94.979424 
	C1294.239136,95.448891 1293.333374,95.666656 1292.500000,95.999985 
"/>
<path fill="none" opacity="1.000000" stroke="#000000" stroke-linecap="round" stroke-linejoin="round" stroke-width="5.000000"
	d="
M1497.000000,115.000000 
	C1497.000000,110.166664 1497.015381,105.333275 1496.996338,100.500015 
	C1496.968994,93.582626 1492.113770,90.735329 1485.990601,93.982292 
	C1484.676147,94.679314 1483.753418,96.173447 1482.000000,96.000000 
"/>
<path fill="none" opacity="1.000000" stroke="#000000" stroke-linecap="round" stroke-linejoin="round" stroke-width="5.000000"
	d="
M827.000000,119.000000 
	C827.000000,114.166664 827.015442,109.333275 826.996338,104.500015 
	C826.968994,97.582619 822.113892,94.735329 815.990601,97.982323 
	C814.676147,98.679337 813.753418,100.173447 812.000000,100.000000 
"/>
<path fill="none" opacity="1.000000" stroke="#000000" stroke-linecap="round" stroke-linejoin="round" stroke-width="5.000000"
	d="
M262.000000,93.000000 
	C262.000000,97.666664 262.038879,102.333771 261.987152,106.999855 
	C261.948730,110.462761 262.983826,113.003548 266.462769,114.582031 
	C269.747650,116.072433 272.136414,114.987251 274.484650,112.982010 
	C275.418152,112.184845 276.199188,111.215454 277.500000,111.000000 
"/>
<path fill="none" opacity="1.000000" stroke="#000000" stroke-linecap="round" stroke-linejoin="round" stroke-width="5.000000"
	d="
M1401.000000,93.000000 
	C1401.000000,97.666664 1400.966309,102.333633 1401.007812,106.999931 
	C1401.073364,114.377586 1406.062012,117.185059 1412.500122,113.500160 
	C1413.666260,112.832687 1414.833374,112.166687 1416.000000,111.500015 
"/>
<path fill="none" opacity="1.000000" stroke="#000000" stroke-linecap="round" stroke-linejoin="round" stroke-width="5.000000"
	d="
M560.000000,119.000000 
	C560.000000,114.166664 560.015442,109.333275 559.996338,104.500015 
	C559.968994,97.582634 555.113892,94.735329 548.990601,97.982323 
	C547.676147,98.679337 546.753418,100.173447 545.000000,100.000000 
"/>
<path fill="none" opacity="1.000000" stroke="#000000" stroke-linecap="round" stroke-linejoin="round" stroke-width="5.000000"
	d="
M624.000000,119.000000 
	C624.000000,114.166664 624.015442,109.333275 623.996338,104.500015 
	C623.968994,97.582626 619.113892,94.735329 612.990601,97.982323 
	C611.676147,98.679337 610.753418,100.173447 609.000000,100.000000 
"/>
<path fill="none" opacity="1.000000" stroke="#000000" stroke-linecap="round" stroke-linejoin="round" stroke-width="4.000000"
	d="
M884.000000,103.500000 
	C884.573547,102.888512 883.863892,101.501663 885.499023,101.460678 
	C888.996643,101.372993 894.128235,104.525925 894.918701,108.018402 
	C895.753418,111.706688 894.208130,115.322044 891.411682,117.379997 
	C885.570801,121.678391 877.890076,118.610619 877.500000,112.500000 
"/>
<path fill="none" opacity="1.000000" stroke="#000000" stroke-linecap="round" stroke-linejoin="round" stroke-width="4.000000"
	d="
M964.000000,103.500000 
	C964.573547,102.888512 963.863892,101.501656 965.499023,101.460670 
	C968.996643,101.372986 974.128296,104.525909 974.918701,108.018402 
	C975.753418,111.706688 974.208069,115.321976 971.411621,117.379875 
	C965.570740,121.678246 957.890137,118.610710 957.500000,112.500000 
"/>
<path fill="none" opacity="1.000000" stroke="#000000" stroke-linecap="round" stroke-linejoin="round" stroke-width="8.000000"
	d="
M1159.500000,81.500008 
	C1165.000000,87.166679 1170.513306,92.820557 1175.994507,98.505287 
	C1178.858398,101.475471 1178.858521,104.524559 1175.994629,107.494781 
	C1170.513306,113.179512 1165.000000,118.833328 1159.500000,124.499992 
"/>
<path fill="none" opacity="1.000000" stroke="#000000" stroke-linecap="round" stroke-linejoin="round" stroke-width="4.000000"
	d="
M1471.000000,102.500000 
	C1470.809692,96.259735 1467.613892,92.500000 1462.500000,92.500000 
	C1457.083618,92.500000 1453.987305,96.444572 1453.361206,102.736191 
	C1453.035645,106.007904 1453.052612,108.941216 1455.036133,111.471695 
	C1459.642212,117.348099 1466.448364,116.656754 1471.000000,110.000000 
"/>
<path fill="none" opacity="1.000000" stroke="#000000" stroke-linecap="round" stroke-linejoin="round" stroke-width="4.000000"
	d="
M801.000000,106.500000 
	C801.496399,99.483109 797.145752,96.969528 792.491821,96.603897 
	C786.898071,96.164444 783.986145,100.194489 783.360535,106.736664 
	C783.047791,110.006546 783.052612,112.941216 785.036072,115.471710 
	C789.642151,121.348083 796.448364,120.656754 801.000000,114.000000 
"/>
<path fill="none" opacity="1.000000" stroke="#000000" stroke-linecap="round" stroke-linejoin="round" stroke-width="4.000000"
	d="
M969.000000,101.750000 
	C968.756104,100.836807 969.543274,100.501343 970.005066,100.004730 
	C973.738220,95.989998 974.039734,93.018524 971.000000,90.000008 
	C967.509033,86.533371 963.273071,86.768166 959.469482,90.468636 
	C958.408325,91.501129 957.910889,92.687164 957.500000,94.000000 
"/>
<path fill="none" opacity="1.000000" stroke="#000000" stroke-linecap="round" stroke-linejoin="round" stroke-width="4.000000"
	d="
M889.000000,101.750000 
	C888.756104,100.836807 889.543274,100.501381 890.005066,100.004730 
	C893.738220,95.989998 894.039734,93.018570 891.000000,90.000008 
	C887.509033,86.533371 883.273071,86.768166 879.469543,90.468674 
	C878.408325,91.501129 877.910889,92.687164 877.500000,94.000000 
"/>
<path fill="none" opacity="1.000000" stroke="#000000" stroke-linecap="round" stroke-linejoin="round" stroke-width="4.000000"
	d="
M651.500000,119.500000 
	C649.049377,115.156837 651.156677,110.477501 650.816711,105.976074 
	C650.550049,102.445953 650.597839,99.438339 647.467957,97.553169 
	C644.089844,95.518478 638.952209,96.477043 635.952576,98.942276 
	C634.866760,99.834671 634.907104,102.403305 632.500000,101.500000 
"/>
<path fill="none" opacity="1.000000" stroke="#000000" stroke-linecap="round" stroke-linejoin="round" stroke-width="4.000000"
	d="
M719.000000,88.500000 
	C717.885315,97.482445 718.776855,106.501770 718.512634,115.500374 
	C718.411438,118.944748 721.315979,118.813370 723.500000,119.500000 
"/>
<path fill="none" opacity="1.000000" stroke="#000000" stroke-linecap="round" stroke-linejoin="round" stroke-width="5.000000"
	d="
M1509.500000,85.500000 
	C1508.224365,94.312408 1509.369019,103.170235 1509.006348,112.000259 
	C1508.888184,114.879250 1510.897705,115.025307 1513.000000,115.000000 
"/>
<path fill="none" opacity="1.000000" stroke="#000000" stroke-linecap="round" stroke-linejoin="round" stroke-width="4.000000"
	d="
M1389.000000,84.500000 
	C1387.885376,93.482445 1388.725220,102.500969 1388.545532,111.500908 
	C1388.489990,114.285912 1390.508301,115.108383 1393.000000,115.000000 
"/>
<path fill="none" opacity="1.000000" stroke="#000000" stroke-linecap="round" stroke-linejoin="round" stroke-width="4.000000"
	d="
M839.000000,88.500000 
	C837.885315,97.482445 838.730347,106.501007 838.541809,115.500877 
	C838.482788,118.320831 840.360596,119.298248 843.000000,119.000000 
"/>
<path fill="none" opacity="1.000000" stroke="#000000" stroke-linecap="round" stroke-linejoin="round" stroke-width="5.000000"
	d="
M289.000000,93.000000 
	C289.000000,100.333336 289.000000,107.666664 289.000000,115.000000 
"/>
<path fill="none" opacity="1.000000" stroke="#000000" stroke-linecap="round" stroke-linejoin="round" stroke-width="5.000000"
	d="
M1481.000000,93.000000 
	C1481.000000,100.333336 1481.000000,107.666664 1481.000000,115.000000 
"/>
<path fill="none" opacity="1.000000" stroke="#000000" stroke-linecap="round" stroke-linejoin="round" stroke-width="5.000000"
	d="
M1417.000000,93.000000 
	C1416.718872,98.830063 1417.591187,104.695099 1416.492676,110.498611 
	C1416.147949,112.319267 1418.114014,113.643867 1417.500000,115.500000 
"/>
<path fill="none" opacity="1.000000" stroke="#000000" stroke-linecap="round" stroke-linejoin="round" stroke-width="5.000000"
	d="
M747.000000,97.000000 
	C747.000000,104.333336 747.000000,111.666664 747.000000,119.000000 
"/>
<path fill="none" opacity="1.000000" stroke="#000000" stroke-linecap="round" stroke-linejoin="round" stroke-width="5.000000"
	d="
M1291.500000,92.500000 
	C1292.657593,99.977982 1291.688354,107.503220 1292.000000,115.000000 
"/>
<path fill="none" opacity="1.000000" stroke="#000000" stroke-linecap="round" stroke-linejoin="round" stroke-width="5.000000"
	d="
M811.000000,97.000000 
	C811.000000,104.333336 811.000000,111.666664 811.000000,119.000000 
"/>
<path fill="none" opacity="1.000000" stroke="#000000" stroke-linecap="round" stroke-linejoin="round" stroke-width="5.000000"
	d="
M608.000000,88.000000 
	C608.000000,98.333336 608.000000,108.666664 608.000000,119.000000 
"/>
<path fill="none" opacity="1.000000" stroke="#000000" stroke-linecap="round" stroke-linejoin="round" stroke-width="5.000000"
	d="
M544.000000,97.000000 
	C544.000000,104.333336 544.000000,111.666664 544.000000,119.000000 
"/>
<path fill="none" opacity="1.000000" stroke="#000000" stroke-linecap="round" stroke-linejoin="round" stroke-width="5.000000"
	d="
M136.500000,92.500000 
	C137.657608,99.977982 136.688339,107.503220 137.000000,115.000000 
"/>
<path fill="none" opacity="1.000000" stroke="#000000" stroke-linecap="round" stroke-linejoin="round" stroke-width="4.000000"
	d="
M649.500000,107.000015 
	C646.333313,107.500015 643.178955,108.106674 639.996887,108.473106 
	C635.987061,108.934868 633.468628,111.567947 634.000000,115.000000 
	C634.411194,117.655998 639.066040,120.434418 641.979858,119.440857 
	C644.575806,118.555687 647.000000,117.166664 649.500000,116.000000 
"/>
<path fill="none" opacity="1.000000" stroke="#000000" stroke-linecap="round" stroke-linejoin="round" stroke-width="5.000000"
	d="
M278.000000,93.000000 
	C278.090424,100.501694 277.690216,108.014290 278.500000,115.500000 
"/>
<path fill="none" opacity="1.000000" stroke="#000000" stroke-linecap="round" stroke-linejoin="round" stroke-width="4.000000"
	d="
M802.500000,107.500000 
	C796.342041,107.011497 790.138306,108.217140 784.000000,107.000000 
"/>
<path fill="none" opacity="1.000000" stroke="#000000" stroke-linecap="round" stroke-linejoin="round" stroke-width="4.000000"
	d="
M1472.500000,103.500000 
	C1466.342041,103.011497 1460.138306,104.217140 1454.000000,103.000000 
"/>
<path fill="none" opacity="1.000000" stroke="#000000" stroke-linecap="round" stroke-linejoin="round" stroke-width="4.000000"
	d="
M773.500000,87.500000 
	C773.010864,91.654198 774.564087,95.971794 772.500000,100.000000 
"/>
<path fill="none" opacity="1.000000" stroke="#000000" stroke-linecap="round" stroke-linejoin="round" stroke-width="4.000000"
	d="
M1443.500000,83.500000 
	C1443.010864,87.654198 1444.564087,91.971794 1442.500000,96.000000 
"/>
<path fill="none" opacity="1.000000" stroke="#000000" stroke-linecap="round" stroke-linejoin="round" stroke-width="3.000000"
	d="
M298.000000,93.000000 
	C296.337585,91.704849 294.871094,92.706818 293.522125,93.535980 
	C292.371216,94.243393 291.803497,95.947762 290.000000,95.500000 
"/>
<path fill="none" opacity="1.000000" stroke="#000000" stroke-linecap="round" stroke-linejoin="round" stroke-width="4.000000"
	d="
M843.500000,96.500000 
	C840.500000,96.413124 837.500000,97.615875 834.500000,96.500000 
"/>
<path fill="none" opacity="1.000000" stroke="#000000" stroke-linecap="round" stroke-linejoin="round" stroke-width="4.000000"
	d="
M1393.500000,92.500000 
	C1390.500000,92.413124 1387.500000,93.615875 1384.500000,92.500000 
"/>
<path fill="none" opacity="1.000000" stroke="#000000" stroke-linecap="round" stroke-linejoin="round" stroke-width="4.000000"
	d="
M723.500000,96.500000 
	C720.500000,96.413124 717.500000,97.615875 714.500000,96.500000 
"/>
<path fill="none" opacity="1.000000" stroke="#000000" stroke-linecap="round" stroke-linejoin="round" stroke-width="4.000000"
	d="
M1505.500000,92.500000 
	C1508.166626,93.642380 1510.833374,91.980927 1513.500000,92.500000 
"/>
<path fill="none" opacity="1.000000" stroke="#000000" stroke-linecap="round" stroke-linejoin="round" stroke-width="4.000000"
	d="
M911.000000,87.500000 
	C904.211914,91.473373 901.372070,99.428940 903.498840,108.500267 
	C904.006470,110.665154 903.990906,113.158539 905.118713,114.924164 
	C906.830688,117.604149 909.525452,120.089127 912.973267,119.371666 
	C916.742126,118.587433 919.765991,116.078613 920.444092,111.990730 
	C921.322510,106.695435 921.423523,101.331757 920.497375,96.000458 
	C919.617126,90.933456 916.707581,87.995880 911.500000,87.500000 
"/>
<path fill="none" opacity="1.000000" stroke="#000000" stroke-linecap="round" stroke-linejoin="round" stroke-width="4.000000"
	d="
M243.000000,92.500000 
	C234.109009,95.755814 230.660690,105.848831 236.559631,111.942268 
	C238.997223,114.460228 241.984131,116.475586 246.010025,115.027863 
	C250.103928,113.555679 252.545685,110.668327 252.934357,106.493889 
	C253.577805,99.583420 252.418396,94.144539 243.500000,92.500000 
"/>
<path fill="none" opacity="1.000000" stroke="#000000" stroke-linecap="round" stroke-linejoin="round" stroke-width="4.000000"
	d="
M992.000000,87.500000 
	C985.591125,89.005203 983.843994,93.654724 984.017334,99.499489 
	C984.145874,103.833511 983.358582,108.238251 984.538513,112.489319 
	C985.819031,117.102791 989.237610,119.773460 993.000000,119.500015 
	C996.780762,119.225235 1000.238586,115.381630 1001.035889,111.006538 
	C1001.952148,105.978394 1002.087036,100.996445 1000.995300,96.001022 
	C999.982117,91.364937 997.586670,88.080025 992.500000,87.500000 
"/>
</svg>