<svg version="1.1" id="Layer_1" xmlns="http://www.w3.org/2000/svg" xmlns:xlink="http://www.w3.org/1999/xlink" x="0px" y="0px"
	 width="100%" viewBox="0 0 1584 204" enable-background="new 0 0 1584 204" xml:space="preserve">
<path fill="#FFFFFF" opacity="1.000000" stroke="none" 
	d="
M1195.000000,205.000000 
	C796.666687,205.000000 398.833374,205.000000 1.000053,205.000000 
	C1.000036,137.000031 1.000036,69.000053 1.000018,1.000063 
	C528.999939,1.000042 1056.999878,1.000042 1585.000000,1.000021 
	C1585.000000,68.999939 1585.000000,136.999878 1585.000000,204.999908 
	C1455.166626,205.000000 1325.333374,205.000000 1195.000000,205.000000 
M987.500000,100.999283 
	C971.836487,100.999306 956.173035,100.985138 940.509521,101.010582 
	C937.132385,101.016068 937.132507,101.081833 937.565613,105.121353 
	C994.228882,105.121353 1050.934326,105.121353 1108.080200,105.121353 
	C1104.803101,111.872185 1101.756714,118.147820 1098.255737,125.359779 
	C1113.139893,117.921638 1126.863281,111.063560 1141.129517,103.934227 
	C1141.129517,124.716415 1141.129517,144.663254 1141.129517,164.647003 
	C1275.904541,164.647003 1410.409668,164.647003 1544.651123,164.647003 
	C1544.651123,123.225471 1544.651123,82.158081 1544.651123,41.325821 
	C1409.914185,41.325821 1275.526733,41.325821 1140.833862,41.325821 
	C1140.833862,61.555370 1140.833862,81.459801 1140.833862,101.888641 
	C1126.701416,94.836830 1113.020142,88.010162 1098.147339,80.588989 
	C1101.825684,88.092796 1104.907471,94.379456 1108.152466,100.999283 
	C1067.815186,100.999283 1028.157593,100.999283 987.500000,100.999283 
M444.999512,116.517128 
	C444.999512,112.745911 444.999512,108.974701 444.999512,104.999474 
	C447.372467,104.999474 449.182709,104.999474 450.992950,104.999474 
	C487.658417,104.999466 524.323914,105.003448 560.989380,104.993591 
	C564.871887,104.992546 564.871887,104.954872 564.428406,100.856934 
	C524.729980,100.856934 484.986176,100.856934 444.845520,100.856934 
	C444.845520,80.715233 444.845520,60.973713 444.845520,41.277985 
	C310.042786,41.277985 175.640778,41.277985 41.281387,41.277985 
	C41.281387,82.627052 41.281387,123.698044 41.281387,164.718445 
	C175.964432,164.718445 310.366425,164.718445 444.999512,164.718445 
	C444.999512,148.795975 444.999512,133.153473 444.999512,116.517128 
M764.845764,97.096313 
	C763.947083,96.234818 763.048401,95.373329 762.149780,94.511833 
	C761.792358,94.769180 761.434998,95.026520 761.077576,95.283859 
	C761.077576,102.090584 761.077576,108.897301 761.077576,115.704018 
	C761.077576,117.344292 761.077576,118.984573 761.077576,120.994133 
	C762.642029,120.859085 763.811829,120.758110 765.338440,120.626328 
	C765.338440,114.936668 765.114624,109.605141 765.416016,104.303467 
	C765.621643,100.686348 767.917664,98.464844 771.713928,98.663147 
	C775.584473,98.865341 775.890198,101.881332 775.920471,104.829842 
	C775.974609,110.112419 775.935730,115.395943 775.935730,120.679077 
	C776.425293,120.951859 776.914856,121.224632 777.404419,121.497406 
	C778.243591,120.383423 779.727539,119.313705 779.807617,118.147606 
	C780.114807,113.673836 779.855835,109.164581 780.032532,104.677406 
	C780.177795,100.989532 782.236267,98.705467 785.996033,98.660980 
	C790.130920,98.612061 790.640625,101.642548 790.639343,104.882309 
	C790.637207,110.165451 790.638672,115.448601 790.638672,122.443878 
	C792.635925,120.726334 794.421570,119.916130 794.448792,119.050606 
	C794.636841,113.070450 794.782471,107.052238 794.294983,101.099197 
	C793.906982,96.359901 789.231812,93.795013 784.670776,95.405891 
	C782.840515,96.052284 781.218445,97.288239 779.484985,98.265266 
	C773.608765,93.860512 771.914856,93.800224 764.845764,97.096313 
M658.553772,113.254166 
	C657.980225,112.360535 657.159607,111.538574 656.875916,110.560852 
	C655.669434,106.402481 654.484741,102.227898 653.562988,98.000160 
	C652.910156,95.006035 651.558350,94.225327 648.726318,95.545387 
	C651.194885,104.086189 653.596252,112.394630 655.960754,120.575439 
	C659.167053,121.757484 660.702820,120.950272 661.350769,117.598663 
	C662.301025,112.683304 663.773682,107.868950 665.023743,103.011559 
	C667.298523,108.256271 668.510681,113.420876 669.969849,118.514702 
	C670.251770,119.498779 671.434998,120.778214 672.320862,120.878853 
	C673.192810,120.977913 674.799133,119.942436 675.080688,119.078178 
	C677.637817,111.228699 679.975281,103.307640 682.377014,95.407539 
	C681.864014,95.168167 681.351013,94.928795 680.838074,94.689423 
	C674.369873,98.736900 677.482971,108.034630 672.146484,112.881714 
	C670.704224,107.022118 669.274963,101.215256 667.850281,95.427124 
	C665.104248,94.365799 663.487915,94.779510 662.814758,98.013138 
	C661.797852,102.898636 660.343506,107.693069 658.553772,113.254166 
M842.447388,86.715408 
	C840.230225,85.627045 838.054871,84.835548 836.853394,88.010048 
	C832.755920,98.836510 828.681030,109.671532 824.593323,120.514343 
	C827.927979,121.867378 829.373169,120.634972 830.263000,117.666801 
	C830.954285,115.361008 831.957275,111.625404 833.376892,111.345985 
	C837.687622,110.497505 842.368896,110.485069 846.686340,111.304115 
	C848.129944,111.577995 849.222351,115.242493 849.923828,117.526489 
	C850.965271,120.917107 852.725220,121.865685 856.062744,120.428040 
	C851.585144,109.267586 847.199585,98.336487 842.447388,86.715408 
M737.135742,102.678772 
	C739.288879,98.601662 742.832336,97.624847 746.786926,99.133820 
	C748.217712,99.679787 749.007812,101.904991 750.090271,103.363945 
	C748.921570,104.230034 747.868958,105.457733 746.557373,105.878540 
	C744.527466,106.529800 742.316284,106.603676 740.190063,106.969406 
	C735.313049,107.808266 732.514038,110.878685 732.931763,114.889526 
	C733.331848,118.730530 737.027893,121.509048 741.804749,120.927536 
	C744.655151,120.580551 747.392700,119.306938 749.107544,118.779823 
	C751.371216,119.849541 752.902893,120.573334 754.781860,121.461227 
	C754.539856,117.728210 754.298523,115.105171 754.218811,112.477226 
	C754.133057,109.652313 754.141846,106.821373 754.212219,103.995613 
	C754.318237,99.734612 753.057373,96.571251 748.425049,95.411736 
	C743.262756,94.119553 736.943359,95.763504 734.846375,99.186234 
	C733.644409,101.147957 733.432251,102.644341 737.135742,102.678772 
M818.765015,112.175209 
	C816.415039,115.505905 813.955627,118.681290 809.131653,117.011581 
	C805.536316,115.767166 804.052429,113.091446 804.091370,109.004272 
	C810.149963,109.004272 816.051086,109.004272 821.908936,109.004272 
	C822.479004,102.178543 820.428955,98.015739 815.701355,95.961845 
	C809.794067,93.395424 803.281738,96.016991 800.848083,101.941093 
	C797.759399,109.459579 800.534485,117.728638 806.960388,120.154480 
	C812.642822,122.299683 818.748779,120.193710 821.183167,115.438072 
	C822.265686,113.323410 821.801147,112.378883 818.765015,112.175209 
M873.508667,106.907722 
	C871.286133,106.256142 868.935791,105.866982 866.882812,104.867249 
	C865.332275,104.112198 864.161865,102.576523 862.822327,101.388283 
	C864.558105,100.442314 866.264587,98.824348 868.038269,98.747009 
	C869.679565,98.675415 871.390808,100.256866 873.075073,101.102646 
	C874.281677,101.708549 875.494690,102.301750 877.552917,103.320267 
	C876.854797,97.787979 874.188721,95.489326 870.769226,95.455902 
	C867.384094,95.422813 863.406555,96.105576 860.732483,97.970650 
	C857.173889,100.452667 858.375916,105.771355 862.438843,107.776573 
	C864.492920,108.790291 866.826782,109.225555 869.007751,109.996956 
	C871.317261,110.813843 875.350220,110.722626 873.872009,114.411980 
	C873.228821,116.017075 869.344421,116.802406 866.857178,116.995567 
	C865.535461,117.098228 864.107849,115.052139 862.626831,114.140282 
	C861.455627,113.419159 860.130188,112.948578 858.873230,112.366753 
	C860.763123,120.036865 866.245483,122.895851 872.501892,120.122383 
	C874.967529,119.029343 877.570374,116.139725 878.151184,113.617058 
	C878.560303,111.839798 875.664307,109.301659 873.508667,106.907722 
M721.726562,95.399033 
	C719.596619,95.395477 717.001038,94.623055 715.444214,95.565865 
	C713.018921,97.034630 710.262634,99.366905 709.532043,101.881142 
	C708.529541,105.331093 711.492737,107.543633 714.779419,108.592262 
	C716.668640,109.195023 718.776855,109.326370 720.477722,110.242966 
	C722.134094,111.135605 723.396912,112.758583 724.832520,114.060883 
	C723.003296,115.188019 721.147278,117.249893 719.351929,117.198433 
	C717.252747,117.138268 715.218384,115.211960 713.132629,114.140617 
	C711.905151,113.510147 710.632385,112.967850 708.226624,111.849907 
	C711.523132,120.710335 719.239929,123.522644 725.299255,119.174850 
	C727.148926,117.847687 728.899475,114.783638 728.719177,112.684753 
	C728.545715,110.664543 726.105896,108.439758 724.126221,107.090981 
	C722.302368,105.848320 719.617981,105.940338 717.591431,104.900917 
	C715.963867,104.066185 714.753479,102.418098 713.357971,101.130920 
	C715.169067,100.276794 716.981201,98.761230 718.791016,98.763824 
	C720.437439,98.766182 722.046570,100.489052 723.738342,101.318665 
	C724.935059,101.905525 726.242126,102.267418 727.499939,102.729729 
	C727.844116,102.039345 728.188293,101.348969 728.532532,100.658585 
	C726.511719,99.007645 724.490967,97.356697 721.726562,95.399033 
M638.543823,120.388573 
	C644.546997,117.857895 646.837830,114.384010 646.673401,107.648308 
	C646.548462,102.530930 644.920349,98.171249 639.784668,95.972824 
	C635.173401,93.998856 629.690186,95.133705 626.521851,98.661873 
	C623.301819,102.247612 622.582397,110.389717 625.059631,115.209785 
	C627.293274,119.555611 631.493835,121.360588 638.543823,120.388573 
M914.849365,97.597694 
	C919.233215,99.570938 923.617065,101.544174 929.121155,104.021660 
	C924.540222,105.828293 921.355530,107.097450 918.160950,108.341469 
	C911.594666,110.898468 911.592529,110.892921 911.802368,114.597687 
	C918.507568,111.988045 925.145325,109.529716 931.673035,106.807678 
	C934.630066,105.574623 934.813538,102.585304 931.990601,101.267372 
	C925.334412,98.159843 918.529846,95.369949 911.785339,92.451599 
	C911.419128,92.923363 911.052917,93.395119 910.686707,93.866882 
	C911.857483,94.992218 913.028198,96.117546 914.849365,97.597694 
M897.765137,109.103378 
	C899.783325,108.337128 901.876587,107.722458 903.801758,106.768486 
	C906.577637,105.393005 906.659058,102.497620 903.834473,101.190529 
	C897.242432,98.140137 890.527283,95.355850 883.305603,92.222359 
	C883.305603,93.628220 883.016235,94.944923 883.348816,95.127258 
	C888.763611,98.096001 894.257202,100.921143 900.554260,104.207268 
	C896.718811,105.723038 893.575500,106.979622 890.421570,108.208763 
	C883.379517,110.953133 883.377380,110.947578 884.073364,114.559143 
	C888.431213,112.813354 892.737061,111.088417 897.765137,109.103378 
M616.493286,97.015076 
	C617.390259,95.852600 618.287170,94.690125 619.184082,93.527649 
	C618.825256,93.178162 618.466431,92.828667 618.107605,92.479172 
	C611.471741,95.363075 604.802917,98.175682 598.237671,101.212303 
	C597.315491,101.638855 596.484070,103.124222 596.387146,104.190094 
	C596.314270,104.991974 597.299316,106.359032 598.130981,106.700005 
	C604.782654,109.427292 611.510132,111.970009 618.214355,114.569229 
	C618.492554,114.063469 618.770752,113.557709 619.048950,113.051956 
	C615.292480,107.105888 606.856934,108.344322 601.860291,103.581215 
	C606.779907,101.345833 611.291260,99.295990 616.493286,97.015076 
M580.481873,110.883049 
	C583.707764,112.092026 586.933655,113.300995 590.926025,114.797211 
	C590.780334,109.217049 586.363037,109.655304 583.710876,108.351791 
	C580.586243,106.816040 577.246582,105.717842 572.942139,104.010223 
	C577.400146,101.982193 580.548035,100.526581 583.715149,99.114174 
	C590.599670,96.043983 590.603699,96.053001 589.951355,92.531227 
	C583.364075,95.399269 576.795837,98.173737 570.329712,101.168564 
	C569.387085,101.605133 568.374451,103.112679 568.408020,104.089867 
	C568.441284,105.061066 569.560425,106.397003 570.540039,106.858749 
	C573.536072,108.270920 576.694092,109.339638 580.481873,110.883049 
M690.196045,94.602020 
	C690.196045,91.824883 690.196045,89.047752 690.196045,85.922470 
	C688.585938,86.109291 687.400940,86.246788 686.105103,86.397141 
	C686.105103,97.079178 686.198242,107.358688 686.051392,117.634781 
	C686.004028,120.945694 687.134888,121.723801 690.195984,120.545387 
	C690.195984,112.158897 690.195984,103.867401 690.196045,94.602020 
M702.884705,120.251640 
	C703.468994,116.709648 702.475830,114.942169 698.488342,116.351341 
	C697.650452,119.720985 698.045349,121.905121 702.884705,120.251640 
M698.193054,97.633789 
	C697.698120,101.445213 699.767822,101.542274 702.642212,100.695076 
	C702.642212,99.125938 702.642212,97.626236 702.642212,95.585922 
	C700.896362,96.061317 699.586670,96.417931 698.193054,97.633789 
z"/>
<path fill="#010101" opacity="1.000000" stroke="none" 
	d="
M988.000000,100.999283 
	C1028.157593,100.999283 1067.815186,100.999283 1108.152466,100.999283 
	C1104.907471,94.379456 1101.825684,88.092796 1098.147339,80.588989 
	C1113.020142,88.010162 1126.701416,94.836830 1140.833862,101.888641 
	C1140.833862,81.459801 1140.833862,61.555370 1140.833862,41.325821 
	C1275.526733,41.325821 1409.914185,41.325821 1544.651123,41.325821 
	C1544.651123,82.158081 1544.651123,123.225471 1544.651123,164.647003 
	C1410.409668,164.647003 1275.904541,164.647003 1141.129517,164.647003 
	C1141.129517,144.663254 1141.129517,124.716415 1141.129517,103.934227 
	C1126.863281,111.063560 1113.139893,117.921638 1098.255737,125.359779 
	C1101.756714,118.147820 1104.803101,111.872185 1108.080200,105.121353 
	C1050.934326,105.121353 994.228882,105.121353 937.565613,105.121353 
	C937.132507,101.081833 937.132385,101.016068 940.509521,101.010582 
	C956.173035,100.985138 971.836487,100.999306 988.000000,100.999283 
M1204.500000,161.000900 
	C1316.591675,161.000900 1428.683350,161.000900 1540.714966,161.000900 
	C1540.714966,122.028580 1540.714966,83.624245 1540.714966,45.282753 
	C1408.694458,45.282753 1276.959961,45.282753 1145.285034,45.282753 
	C1145.285034,83.971458 1145.285034,122.375801 1145.285034,161.000900 
	C1164.880005,161.000900 1184.189941,161.000900 1204.500000,161.000900 
z"/>
<path fill="#000000" opacity="1.000000" stroke="none" 
	d="
M444.999512,117.014053 
	C444.999512,133.153473 444.999512,148.795975 444.999512,164.718445 
	C310.366425,164.718445 175.964432,164.718445 41.281387,164.718445 
	C41.281387,123.698044 41.281387,82.627052 41.281387,41.277985 
	C175.640778,41.277985 310.042786,41.277985 444.845520,41.277985 
	C444.845520,60.973713 444.845520,80.715233 444.845520,100.856934 
	C484.986176,100.856934 524.729980,100.856934 564.428406,100.856934 
	C564.871887,104.954872 564.871887,104.992546 560.989380,104.993591 
	C524.323914,105.003448 487.658417,104.999466 450.992950,104.999474 
	C449.182709,104.999474 447.372467,104.999474 444.999512,104.999474 
	C444.999512,108.974701 444.999512,112.745911 444.999512,117.014053 
M408.500000,161.003357 
	C419.264801,161.003357 430.029633,161.003357 440.714233,161.003357 
	C440.714233,122.021713 440.714233,83.616417 440.714233,45.284500 
	C308.688263,45.284500 176.951599,45.284500 45.285786,45.284500 
	C45.285786,83.978348 45.285786,122.383644 45.285786,161.003357 
	C166.216537,161.003357 286.858276,161.003357 408.500000,161.003357 
z"/>
<path fill="#1B1B1B" opacity="1.000000" stroke="none" 
	d="
M765.044800,97.440643 
	C771.914856,93.800224 773.608765,93.860512 779.484985,98.265266 
	C781.218445,97.288239 782.840515,96.052284 784.670776,95.405891 
	C789.231812,93.795013 793.906982,96.359901 794.294983,101.099197 
	C794.782471,107.052238 794.636841,113.070450 794.448792,119.050606 
	C794.421570,119.916130 792.635925,120.726334 790.638672,122.443878 
	C790.638672,115.448601 790.637207,110.165451 790.639343,104.882309 
	C790.640625,101.642548 790.130920,98.612061 785.996033,98.660980 
	C782.236267,98.705467 780.177795,100.989532 780.032532,104.677406 
	C779.855835,109.164581 780.114807,113.673836 779.807617,118.147606 
	C779.727539,119.313705 778.243591,120.383423 777.404419,121.497406 
	C776.914856,121.224632 776.425293,120.951859 775.935730,120.679077 
	C775.935730,115.395943 775.974609,110.112419 775.920471,104.829842 
	C775.890198,101.881332 775.584473,98.865341 771.713928,98.663147 
	C767.917664,98.464844 765.621643,100.686348 765.416016,104.303467 
	C765.114624,109.605141 765.338440,114.936668 765.338440,120.626328 
	C763.811829,120.758110 762.642029,120.859085 761.077576,120.994133 
	C761.077576,118.984573 761.077576,117.344292 761.077576,115.704018 
	C761.077576,108.897301 761.077576,102.090584 761.077576,95.283859 
	C761.434998,95.026520 761.792358,94.769180 762.149780,94.511833 
	C763.048401,95.373329 763.947083,96.234818 765.044800,97.440643 
z"/>
<path fill="#181818" opacity="1.000000" stroke="none" 
	d="
M658.814392,112.890182 
	C660.343506,107.693069 661.797852,102.898636 662.814758,98.013138 
	C663.487915,94.779510 665.104248,94.365799 667.850281,95.427124 
	C669.274963,101.215256 670.704224,107.022118 672.146484,112.881714 
	C677.482971,108.034630 674.369873,98.736900 680.838074,94.689423 
	C681.351013,94.928795 681.864014,95.168167 682.377014,95.407539 
	C679.975281,103.307640 677.637817,111.228699 675.080688,119.078178 
	C674.799133,119.942436 673.192810,120.977913 672.320862,120.878853 
	C671.434998,120.778214 670.251770,119.498779 669.969849,118.514702 
	C668.510681,113.420876 667.298523,108.256271 665.023743,103.011559 
	C663.773682,107.868950 662.301025,112.683304 661.350769,117.598663 
	C660.702820,120.950272 659.167053,121.757484 655.960754,120.575439 
	C653.596252,112.394630 651.194885,104.086189 648.726318,95.545387 
	C651.558350,94.225327 652.910156,95.006035 653.562988,98.000160 
	C654.484741,102.227898 655.669434,106.402481 656.875916,110.560852 
	C657.159607,111.538574 657.980225,112.360535 658.814392,112.890182 
z"/>
<path fill="#151515" opacity="1.000000" stroke="none" 
	d="
M842.630737,87.060402 
	C847.199585,98.336487 851.585144,109.267586 856.062744,120.428040 
	C852.725220,121.865685 850.965271,120.917107 849.923828,117.526489 
	C849.222351,115.242493 848.129944,111.577995 846.686340,111.304115 
	C842.368896,110.485069 837.687622,110.497505 833.376892,111.345985 
	C831.957275,111.625404 830.954285,115.361008 830.263000,117.666801 
	C829.373169,120.634972 827.927979,121.867378 824.593323,120.514343 
	C828.681030,109.671532 832.755920,98.836510 836.853394,88.010048 
	C838.054871,84.835548 840.230225,85.627045 842.630737,87.060402 
M842.733276,97.870529 
	C841.834534,95.586647 840.935852,93.302765 839.759644,90.313614 
	C837.727844,96.430679 836.033508,101.531784 834.280518,106.809410 
	C838.363525,106.809410 841.806396,106.809410 845.867188,106.809410 
	C844.827942,103.850555 843.910339,101.238098 842.733276,97.870529 
z"/>
<path fill="#131313" opacity="1.000000" stroke="none" 
	d="
M736.756592,102.762848 
	C733.432251,102.644341 733.644409,101.147957 734.846375,99.186234 
	C736.943359,95.763504 743.262756,94.119553 748.425049,95.411736 
	C753.057373,96.571251 754.318237,99.734612 754.212219,103.995613 
	C754.141846,106.821373 754.133057,109.652313 754.218811,112.477226 
	C754.298523,115.105171 754.539856,117.728210 754.781860,121.461227 
	C752.902893,120.573334 751.371216,119.849541 749.107544,118.779823 
	C747.392700,119.306938 744.655151,120.580551 741.804749,120.927536 
	C737.027893,121.509048 733.331848,118.730530 732.931763,114.889526 
	C732.514038,110.878685 735.313049,107.808266 740.190063,106.969406 
	C742.316284,106.603676 744.527466,106.529800 746.557373,105.878540 
	C747.868958,105.457733 748.921570,104.230034 750.090271,103.363945 
	C749.007812,101.904991 748.217712,99.679787 746.786926,99.133820 
	C742.832336,97.624847 739.288879,98.601662 736.756592,102.762848 
M747.701782,109.082283 
	C745.107178,109.566139 742.394958,109.740768 739.967712,110.664314 
	C738.753235,111.126411 737.479614,112.889114 737.331909,114.188522 
	C737.232910,115.058815 739.119019,117.030830 740.024841,116.976479 
	C742.839172,116.807602 745.922974,116.468277 748.310791,115.135529 
	C750.797546,113.747627 750.546997,111.208725 747.701782,109.082283 
z"/>
<path fill="#121212" opacity="1.000000" stroke="none" 
	d="
M819.144104,112.164490 
	C821.801147,112.378883 822.265686,113.323410 821.183167,115.438072 
	C818.748779,120.193710 812.642822,122.299683 806.960388,120.154480 
	C800.534485,117.728638 797.759399,109.459579 800.848083,101.941093 
	C803.281738,96.016991 809.794067,93.395424 815.701355,95.961845 
	C820.428955,98.015739 822.479004,102.178543 821.908936,109.004272 
	C816.051086,109.004272 810.149963,109.004272 804.091370,109.004272 
	C804.052429,113.091446 805.536316,115.767166 809.131653,117.011581 
	C813.955627,118.681290 816.415039,115.505905 819.144104,112.164490 
M816.236206,100.391655 
	C813.334229,100.065300 810.276550,99.057068 807.589111,99.670563 
	C805.999390,100.033493 804.994873,102.959801 803.312134,105.314148 
	C809.073669,105.314148 813.438232,105.314148 818.509033,105.314148 
	C817.796387,103.533310 817.282043,102.248055 816.236206,100.391655 
z"/>
<path fill="#171717" opacity="1.000000" stroke="none" 
	d="
M873.876343,107.005478 
	C875.664307,109.301659 878.560303,111.839798 878.151184,113.617058 
	C877.570374,116.139725 874.967529,119.029343 872.501892,120.122383 
	C866.245483,122.895851 860.763123,120.036865 858.873230,112.366753 
	C860.130188,112.948578 861.455627,113.419159 862.626831,114.140282 
	C864.107849,115.052139 865.535461,117.098228 866.857178,116.995567 
	C869.344421,116.802406 873.228821,116.017075 873.872009,114.411980 
	C875.350220,110.722626 871.317261,110.813843 869.007751,109.996956 
	C866.826782,109.225555 864.492920,108.790291 862.438843,107.776573 
	C858.375916,105.771355 857.173889,100.452667 860.732483,97.970650 
	C863.406555,96.105576 867.384094,95.422813 870.769226,95.455902 
	C874.188721,95.489326 876.854797,97.787979 877.552917,103.320267 
	C875.494690,102.301750 874.281677,101.708549 873.075073,101.102646 
	C871.390808,100.256866 869.679565,98.675415 868.038269,98.747009 
	C866.264587,98.824348 864.558105,100.442314 862.822327,101.388283 
	C864.161865,102.576523 865.332275,104.112198 866.882812,104.867249 
	C868.935791,105.866982 871.286133,106.256142 873.876343,107.005478 
z"/>
<path fill="#171717" opacity="1.000000" stroke="none" 
	d="
M722.098389,95.552399 
	C724.490967,97.356697 726.511719,99.007645 728.532532,100.658585 
	C728.188293,101.348969 727.844116,102.039345 727.499939,102.729729 
	C726.242126,102.267418 724.935059,101.905525 723.738342,101.318665 
	C722.046570,100.489052 720.437439,98.766182 718.791016,98.763824 
	C716.981201,98.761230 715.169067,100.276794 713.357971,101.130920 
	C714.753479,102.418098 715.963867,104.066185 717.591431,104.900917 
	C719.617981,105.940338 722.302368,105.848320 724.126221,107.090981 
	C726.105896,108.439758 728.545715,110.664543 728.719177,112.684753 
	C728.899475,114.783638 727.148926,117.847687 725.299255,119.174850 
	C719.239929,123.522644 711.523132,120.710335 708.226624,111.849907 
	C710.632385,112.967850 711.905151,113.510147 713.132629,114.140617 
	C715.218384,115.211960 717.252747,117.138268 719.351929,117.198433 
	C721.147278,117.249893 723.003296,115.188019 724.832520,114.060898 
	C723.396912,112.758583 722.134094,111.135605 720.477722,110.242966 
	C718.776855,109.326370 716.668640,109.195023 714.779419,108.592262 
	C711.492737,107.543633 708.529541,105.331093 709.532043,101.881142 
	C710.262634,99.366905 713.018921,97.034630 715.444214,95.565865 
	C717.001038,94.623055 719.596619,95.395477 722.098389,95.552399 
z"/>
<path fill="#131313" opacity="1.000000" stroke="none" 
	d="
M638.170593,120.535782 
	C631.493835,121.360588 627.293274,119.555611 625.059631,115.209785 
	C622.582397,110.389717 623.301819,102.247612 626.521851,98.661873 
	C629.690186,95.133705 635.173401,93.998856 639.784668,95.972824 
	C644.920349,98.171249 646.548462,102.530930 646.673401,107.648308 
	C646.837830,114.384010 644.546997,117.857895 638.170593,120.535782 
M632.167175,116.873718 
	C636.362427,118.182724 639.729309,117.227997 641.659119,113.075661 
	C643.615173,108.866600 642.509705,102.467346 639.611389,100.141708 
	C635.991516,97.237076 630.746155,98.379074 628.655090,102.527039 
	C626.447205,106.906715 627.635864,112.880966 632.167175,116.873718 
z"/>
<path fill="#181818" opacity="1.000000" stroke="none" 
	d="
M914.524170,97.420288 
	C913.028198,96.117546 911.857483,94.992218 910.686707,93.866882 
	C911.052917,93.395119 911.419128,92.923363 911.785339,92.451599 
	C918.529846,95.369949 925.334412,98.159843 931.990601,101.267372 
	C934.813538,102.585304 934.630066,105.574623 931.673035,106.807678 
	C925.145325,109.529716 918.507568,111.988045 911.802368,114.597687 
	C911.592529,110.892921 911.594666,110.898468 918.160950,108.341469 
	C921.355530,107.097450 924.540222,105.828293 929.121155,104.021660 
	C923.617065,101.544174 919.233215,99.570938 914.524170,97.420288 
z"/>
<path fill="#181818" opacity="1.000000" stroke="none" 
	d="
M897.403992,109.233429 
	C892.737061,111.088417 888.431213,112.813354 884.073364,114.559143 
	C883.377380,110.947578 883.379517,110.953133 890.421570,108.208763 
	C893.575500,106.979622 896.718811,105.723038 900.554260,104.207268 
	C894.257202,100.921143 888.763611,98.096001 883.348816,95.127258 
	C883.016235,94.944923 883.305603,93.628220 883.305603,92.222359 
	C890.527283,95.355850 897.242432,98.140137 903.834473,101.190529 
	C906.659058,102.497620 906.577637,105.393005 903.801758,106.768486 
	C901.876587,107.722458 899.783325,108.337128 897.403992,109.233429 
z"/>
<path fill="#181818" opacity="1.000000" stroke="none" 
	d="
M616.147949,97.130615 
	C611.291260,99.295990 606.779907,101.345833 601.860291,103.581215 
	C606.856934,108.344322 615.292480,107.105888 619.048950,113.051956 
	C618.770752,113.557709 618.492554,114.063469 618.214355,114.569229 
	C611.510132,111.970009 604.782654,109.427292 598.130981,106.700005 
	C597.299316,106.359032 596.314270,104.991974 596.387146,104.190094 
	C596.484070,103.124222 597.315491,101.638855 598.237671,101.212303 
	C604.802917,98.175682 611.471741,95.363075 618.107605,92.479172 
	C618.466431,92.828667 618.825256,93.178162 619.184082,93.527649 
	C618.287170,94.690125 617.390259,95.852600 616.147949,97.130615 
z"/>
<path fill="#181818" opacity="1.000000" stroke="none" 
	d="
M580.135498,110.712502 
	C576.694092,109.339638 573.536072,108.270920 570.540039,106.858749 
	C569.560425,106.397003 568.441284,105.061066 568.408020,104.089867 
	C568.374451,103.112679 569.387085,101.605133 570.329712,101.168564 
	C576.795837,98.173737 583.364075,95.399269 589.951355,92.531227 
	C590.603699,96.053001 590.599670,96.043983 583.715149,99.114174 
	C580.548035,100.526581 577.400146,101.982193 572.942139,104.010223 
	C577.246582,105.717842 580.586243,106.816040 583.710876,108.351791 
	C586.363037,109.655304 590.780334,109.217049 590.926025,114.797211 
	C586.933655,113.300995 583.707764,112.092026 580.135498,110.712502 
z"/>
<path fill="#121212" opacity="1.000000" stroke="none" 
	d="
M690.196045,95.088966 
	C690.195984,103.867401 690.195984,112.158897 690.195984,120.545387 
	C687.134888,121.723801 686.004028,120.945694 686.051392,117.634781 
	C686.198242,107.358688 686.105103,97.079178 686.105103,86.397141 
	C687.400940,86.246788 688.585938,86.109291 690.196045,85.922470 
	C690.196045,89.047752 690.196045,91.824883 690.196045,95.088966 
z"/>
<path fill="#2A2A2A" opacity="1.000000" stroke="none" 
	d="
M702.587585,120.573204 
	C698.045349,121.905121 697.650452,119.720985 698.488342,116.351341 
	C702.475830,114.942169 703.468994,116.709648 702.587585,120.573204 
z"/>
<path fill="#2A2A2A" opacity="1.000000" stroke="none" 
	d="
M698.235046,97.204170 
	C699.586670,96.417931 700.896362,96.061317 702.642212,95.585922 
	C702.642212,97.626236 702.642212,99.125938 702.642212,100.695076 
	C699.767822,101.542274 697.698120,101.445213 698.235046,97.204170 
z"/>
<path fill="#FEFEFE" opacity="1.000000" stroke="none" 
	d="
M1204.000000,161.000900 
	C1184.189941,161.000900 1164.880005,161.000900 1145.285034,161.000900 
	C1145.285034,122.375801 1145.285034,83.971458 1145.285034,45.282753 
	C1276.959961,45.282753 1408.694458,45.282753 1540.714966,45.282753 
	C1540.714966,83.624245 1540.714966,122.028580 1540.714966,161.000900 
	C1428.683350,161.000900 1316.591675,161.000900 1204.000000,161.000900 
M1386.500000,121.002190 
	C1325.890381,121.002190 1265.280762,121.002190 1204.671143,121.002213 
	C1202.173462,121.002213 1199.668823,121.121590 1197.179932,120.973137 
	C1193.902344,120.777634 1193.766724,122.344971 1194.498047,124.719437 
	C1269.841431,124.719437 1344.868530,124.719437 1419.731812,124.719437 
	C1420.854858,121.204315 1419.049438,120.938057 1416.472412,120.963730 
	C1406.815796,121.059967 1397.157593,121.002213 1386.500000,121.002190 
M1368.983643,93.518158 
	C1368.983643,101.144424 1368.983643,108.770683 1368.983643,116.734703 
	C1370.435425,116.824783 1371.627319,116.898750 1373.227417,116.998039 
	C1373.227417,111.479927 1373.227417,106.384964 1373.227417,101.362968 
	C1382.249878,100.053596 1383.395630,100.557327 1387.869995,107.686256 
	C1389.106689,109.656715 1390.445679,111.587517 1391.445190,113.676521 
	C1392.879395,116.674377 1394.914185,117.863892 1398.796021,116.388412 
	C1395.082886,110.866310 1391.460571,105.479126 1387.892700,100.173119 
	C1394.129639,98.242073 1396.642456,95.115761 1395.970215,89.839752 
	C1395.345337,84.934731 1391.859863,82.212753 1385.484619,82.022026 
	C1380.066040,81.859909 1374.638672,81.988548 1368.983643,81.988548 
	C1368.983643,85.915779 1368.983643,89.220268 1368.983643,93.518158 
M1275.392090,106.864105 
	C1280.214478,105.890793 1282.751221,108.037971 1283.733643,112.697685 
	C1284.416138,115.935402 1285.915405,118.339684 1290.073242,116.470016 
	C1285.740356,105.677696 1281.460938,94.853058 1276.973755,84.115211 
	C1276.556274,83.116180 1274.857178,82.201897 1273.687988,82.114021 
	C1272.792358,82.046707 1271.279785,83.145058 1270.920044,84.067513 
	C1266.714966,94.853340 1262.676270,105.704056 1258.593750,116.537651 
	C1259.069946,116.951538 1259.546265,117.365433 1260.022461,117.779320 
	C1261.375732,116.508965 1263.601196,115.429756 1263.928955,113.934593 
	C1265.238159,107.960411 1268.527466,105.612717 1275.392090,106.864105 
M1448.757080,94.623993 
	C1449.908813,94.697533 1451.378906,94.351730 1452.144775,94.933403 
	C1453.665771,96.088440 1454.798706,97.754509 1456.092041,99.209412 
	C1454.807861,100.139282 1453.644897,101.429924 1452.210327,101.912109 
	C1450.194824,102.589500 1447.966675,102.610077 1445.848633,103.011772 
	C1441.307617,103.872978 1438.613159,106.919861 1438.926392,110.743484 
	C1439.234375,114.503990 1442.530396,117.302170 1447.168823,116.921181 
	C1450.190063,116.673019 1453.125244,115.375809 1455.649536,114.673599 
	C1457.254883,115.631271 1458.754395,116.525742 1460.197021,117.386368 
	C1460.197021,111.091896 1460.245972,105.652542 1460.183838,100.214455 
	C1460.114380,94.130447 1458.479370,92.069145 1453.184082,91.127075 
	C1446.895996,90.008385 1441.942871,92.509239 1439.674194,98.914566 
	C1441.563110,98.291748 1442.865845,98.039398 1443.989258,97.446785 
	C1445.382324,96.711800 1446.626831,95.694984 1448.757080,94.623993 
M1308.378174,115.375237 
	C1316.980225,118.782578 1322.586182,116.631325 1325.271606,107.517662 
	C1323.076538,108.624634 1321.330078,108.940918 1320.610229,109.973122 
	C1318.364136,113.194099 1315.497192,114.198219 1311.987427,112.899261 
	C1308.543701,111.624786 1307.096191,108.905518 1307.335083,104.820023 
	C1313.521606,104.820023 1319.432129,104.820023 1325.324585,104.820023 
	C1325.410889,97.539719 1323.437744,93.854568 1318.596313,91.888535 
	C1313.919312,89.989243 1309.736816,90.983452 1306.270386,94.453232 
	C1301.185669,99.542923 1301.970337,109.480385 1308.378174,115.375237 
M1217.586182,107.471718 
	C1217.579956,104.642395 1217.728027,101.802559 1217.536133,98.985878 
	C1217.099121,92.571495 1211.910400,89.342590 1205.859253,91.642036 
	C1204.520752,92.150642 1203.263794,92.873856 1202.840820,93.077881 
	C1200.883911,92.042213 1199.591187,91.357986 1197.791992,90.405792 
	C1197.791992,99.787971 1197.791992,108.228271 1197.791992,116.831795 
	C1199.043213,116.831795 1200.147095,116.831795 1201.746094,116.831795 
	C1201.746094,111.487816 1201.663696,106.345154 1201.771973,101.206505 
	C1201.859863,97.029015 1204.152588,94.632858 1208.329102,94.639893 
	C1212.794434,94.647415 1213.651489,97.821686 1213.643311,101.504082 
	C1213.631958,106.600082 1213.640381,111.696121 1213.640381,116.792152 
	C1214.161621,117.054573 1214.682739,117.316994 1215.203979,117.579422 
	C1215.997192,116.528244 1217.249023,115.568199 1217.480103,114.405334 
	C1217.861938,112.483772 1217.585083,110.431343 1217.586182,107.471718 
M1229.860474,100.564133 
	C1229.049316,99.343163 1228.238281,98.122200 1227.427124,96.901215 
	C1228.632935,96.160820 1229.936523,94.687660 1231.024170,94.832809 
	C1233.278687,95.133667 1235.437378,96.247406 1237.598267,97.119354 
	C1238.848999,97.624054 1240.027100,98.308601 1242.135498,99.359711 
	C1241.316528,93.889023 1238.771851,91.498512 1235.314209,91.470222 
	C1231.918945,91.442459 1227.943115,92.079582 1225.249756,93.925041 
	C1221.681763,96.369896 1222.825806,101.819466 1226.897949,103.750732 
	C1229.407837,104.941093 1232.364502,105.182991 1234.887817,106.352966 
	C1236.434937,107.070381 1237.541870,108.737259 1238.846436,109.977753 
	C1237.207764,111.118156 1235.506348,113.260811 1233.945312,113.162865 
	C1231.634155,113.017853 1229.415405,111.298279 1227.171875,110.218781 
	C1225.916504,109.614777 1224.690308,108.949829 1223.450928,108.312347 
	C1225.452393,116.801743 1233.630981,119.653625 1239.611938,114.957405 
	C1241.389038,113.562065 1242.854370,110.473427 1242.688965,108.295273 
	C1242.547241,106.427803 1240.166626,104.248299 1238.240601,103.125038 
	C1236.026489,101.833672 1233.223267,101.552368 1229.860474,100.564133 
M1473.077393,116.777222 
	C1475.680298,116.520607 1478.760864,117.036423 1480.758545,115.801147 
	C1482.982666,114.426056 1485.091675,111.656944 1485.671631,109.131973 
	C1486.422729,105.861786 1483.828247,103.751823 1480.585938,102.859360 
	C1478.513306,102.288864 1476.314331,101.913460 1474.451660,100.924026 
	C1472.816895,100.055710 1471.571411,98.454170 1470.154053,97.176498 
	C1471.949585,96.297859 1473.737793,94.755684 1475.542603,94.736046 
	C1477.190308,94.718124 1478.831787,96.397713 1480.521729,97.237419 
	C1481.721069,97.833351 1482.996216,98.276627 1485.213501,99.190033 
	C1482.239258,90.982780 1473.712524,88.646622 1468.516602,93.174088 
	C1464.830322,96.386093 1465.423950,101.735283 1469.920410,103.845070 
	C1472.287842,104.955902 1475.102783,105.128349 1477.441040,106.281174 
	C1479.088623,107.093468 1480.274170,108.842842 1481.665894,110.173874 
	C1479.972778,111.262489 1478.189941,113.346008 1476.607788,113.203430 
	C1474.311157,112.996437 1472.154541,111.191536 1469.947510,110.050163 
	C1468.775269,109.443893 1467.622803,108.799606 1465.555786,107.683533 
	C1466.323242,113.275208 1468.543335,115.586098 1473.077393,116.777222 
M1340.851562,108.167717 
	C1342.188232,110.277641 1343.270508,112.624290 1344.943481,114.421150 
	C1346.237305,115.810638 1348.270752,116.511543 1349.975342,117.518555 
	C1350.242188,117.075249 1350.509033,116.631935 1350.775757,116.188622 
	C1347.930786,111.923096 1345.085815,107.657562 1342.145386,103.248970 
	C1344.888550,99.284904 1347.572510,95.406433 1350.473022,91.214867 
	C1343.087891,89.827278 1343.612793,97.568245 1339.603882,99.320625 
	C1336.191162,96.885262 1336.518311,89.890938 1329.263428,91.275612 
	C1332.176025,95.677040 1334.732178,99.539642 1337.360474,103.511322 
	C1334.454712,107.865288 1331.610474,112.127182 1328.766113,116.389084 
	C1329.133057,116.840530 1329.500000,117.291977 1329.867065,117.743423 
	C1331.575439,116.544250 1333.493164,115.552971 1334.941040,114.095177 
	C1336.914185,112.108498 1338.529053,109.766045 1340.851562,108.167717 
M1423.044067,114.136024 
	C1423.043945,107.491417 1422.952515,100.845039 1423.081299,94.202927 
	C1423.149048,90.714447 1421.754517,90.323799 1418.845215,91.667000 
	C1418.845215,96.963104 1419.037720,102.117363 1418.785156,107.249710 
	C1418.579346,111.429977 1415.892456,113.560974 1411.801880,113.347000 
	C1407.984497,113.147316 1407.006348,110.398979 1407.037231,107.033844 
	C1407.076782,102.715225 1406.910767,98.390434 1407.087769,94.078751 
	C1407.220337,90.851944 1405.800171,90.519585 1403.108032,91.340828 
	C1403.108032,97.471771 1402.848633,103.436646 1403.180420,109.368454 
	C1403.516724,115.380577 1409.020142,118.563988 1414.651733,116.319237 
	C1416.120239,115.733826 1417.455078,114.812943 1418.859497,114.041649 
	C1420.586670,117.865891 1420.900879,117.931877 1423.044067,114.136024 
M1485.140381,124.998558 
	C1486.180420,124.103355 1487.220459,123.208153 1488.260498,122.312943 
	C1487.957642,121.953033 1487.654663,121.593117 1487.351807,121.233200 
	C1470.979858,121.233200 1454.607910,121.233200 1438.224854,121.233200 
	C1438.224854,122.539871 1438.224854,123.611671 1438.224854,124.999046 
	C1453.693848,124.999046 1468.946533,124.999046 1485.140381,124.998558 
M1430.478394,126.216568 
	C1431.484497,124.247116 1433.296509,122.303093 1433.359619,120.303871 
	C1433.663696,110.667526 1433.496582,101.016312 1433.496582,91.167305 
	C1432.145142,91.167305 1431.039673,91.167305 1429.641479,91.167305 
	C1429.641479,100.143768 1429.701782,108.957405 1429.603271,117.769279 
	C1429.575195,120.284058 1430.150024,123.404045 1425.900635,123.483513 
	C1425.359741,123.493622 1424.851929,125.262657 1423.839966,127.108452 
	C1426.600098,126.865334 1428.194092,126.724930 1430.478394,126.216568 
M1295.495850,81.905579 
	C1294.769409,82.721230 1293.421265,83.528687 1293.410400,84.353775 
	C1293.268555,95.108864 1293.316406,105.866455 1293.316406,116.807526 
	C1294.918091,116.807526 1296.130859,116.807526 1297.666870,116.807526 
	C1297.666870,105.599579 1297.687256,94.673759 1297.612427,83.748604 
	C1297.608276,83.140236 1296.816528,82.537254 1295.495850,81.905579 
M1249.454834,112.784187 
	C1248.834351,116.618134 1250.115601,118.073975 1253.877075,116.540764 
	C1254.622070,113.101028 1254.017700,111.039436 1249.454834,112.784187 
M1254.016602,92.742126 
	C1252.575684,92.470314 1251.134644,92.198494 1249.266968,91.846184 
	C1249.429688,94.063828 1249.533325,95.478439 1249.626221,96.744560 
	C1252.802856,97.598152 1254.638672,97.112778 1254.016602,92.742126 
z"/>
<path fill="#FDFDFD" opacity="1.000000" stroke="none" 
	d="
M408.000000,161.003357 
	C286.858276,161.003357 166.216537,161.003357 45.285786,161.003357 
	C45.285786,122.383644 45.285786,83.978348 45.285786,45.284500 
	C176.951599,45.284500 308.688263,45.284500 440.714233,45.284500 
	C440.714233,83.616417 440.714233,122.021713 440.714233,161.003357 
	C430.029633,161.003357 419.264801,161.003357 408.000000,161.003357 
M239.155746,157.604660 
	C243.965103,160.569809 247.924225,158.410019 248.087097,152.280273 
	C248.342499,142.667511 248.154846,133.042953 248.154846,123.413063 
	C245.338348,122.310715 244.144470,122.976242 244.195831,126.117447 
	C244.328751,134.247101 244.184875,142.380905 244.259506,150.512070 
	C244.293961,154.265320 243.034592,156.239777 238.980042,154.211548 
	C237.573929,153.808823 236.172287,153.076920 234.760941,153.057678 
	C226.605133,152.946396 218.447037,153.003357 210.289703,153.003357 
	C200.170212,153.003357 190.050720,153.003357 179.931229,153.003357 
	C179.678467,153.516083 179.425690,154.028793 179.172928,154.541519 
	C180.321823,155.359787 181.467438,156.885437 182.620102,156.890747 
	C201.424911,156.977844 220.230591,156.872650 239.155746,157.604660 
M118.513214,93.003365 
	C115.849350,93.003510 113.183487,92.939095 110.522156,93.021309 
	C107.655807,93.109848 107.657661,93.169792 108.315018,96.839775 
	C150.386429,96.839775 192.466644,96.839775 234.955688,96.839775 
	C234.877441,95.492477 234.809631,94.324905 234.732864,93.003365 
	C196.070969,93.003365 157.791458,93.003365 118.513214,93.003365 
M284.500000,93.003365 
	C275.010498,93.003433 265.518921,93.117241 256.032654,92.942146 
	C252.692459,92.880501 252.574875,94.282013 253.346832,96.754486 
	C293.742096,96.754486 333.969299,96.754486 374.085724,96.754486 
	C375.326294,92.757278 372.914398,92.977394 370.405914,92.980591 
	C342.104004,93.016594 313.801971,93.003380 284.500000,93.003365 
M211.062973,144.583466 
	C208.267548,140.434402 205.472122,136.285339 202.707062,132.181335 
	C208.986877,130.194717 211.563782,126.951088 210.820663,121.776085 
	C210.127060,116.945969 206.549515,114.194939 200.269943,114.015236 
	C194.849838,113.860138 189.421753,113.983047 184.062714,113.983047 
	C184.062714,125.955536 184.062714,137.350815 184.062714,148.698761 
	C187.054123,149.605560 188.208237,148.772705 188.064774,145.738220 
	C187.864700,141.506363 188.014359,137.257980 188.014359,133.385849 
	C195.699799,131.294846 200.244781,134.216003 203.187485,140.429688 
	C204.035965,142.221268 204.960281,144.100861 206.306427,145.501190 
	C207.962265,147.223724 210.096130,148.486740 212.023376,149.948380 
	C212.419373,149.504501 212.815369,149.060638 213.211365,148.616760 
	C212.625931,147.492142 212.040512,146.367508 211.062973,144.583466 
M200.013153,80.352722 
	C196.787277,72.352898 193.630737,64.323547 190.252396,56.388645 
	C189.803650,55.334660 188.302460,54.297466 187.150177,54.111763 
	C186.240295,53.965122 184.515091,54.904152 184.180862,55.761925 
	C179.937897,66.651009 175.881256,77.612694 171.777161,88.555885 
	C172.265305,88.972656 172.753448,89.389427 173.241577,89.806190 
	C174.575226,88.514847 176.183853,87.403694 177.176483,85.888885 
	C178.579208,83.748253 179.144012,79.692947 180.743713,79.314194 
	C184.829544,78.346825 189.427994,78.339897 193.531998,79.251549 
	C195.155380,79.612160 196.346268,83.312668 197.136536,85.690994 
	C198.213211,88.931351 199.989960,89.792503 203.256287,88.516197 
	C202.241013,85.998947 201.251358,83.545219 200.013153,80.352722 
M328.049896,77.476944 
	C328.049896,69.696220 328.049896,61.915504 328.049896,52.863667 
	C321.373779,56.367798 325.728119,61.979103 323.882812,65.186897 
	C321.232147,64.455849 318.591522,63.032295 316.029114,63.161407 
	C310.169586,63.456657 306.611633,68.964600 306.787445,76.455482 
	C306.948853,83.330528 310.950684,88.702927 316.606628,88.917458 
	C320.296844,89.057442 324.018799,88.361206 328.049896,88.011505 
	C328.049896,85.106461 328.049896,81.787163 328.049896,77.476944 
M258.575500,130.063766 
	C260.689575,125.769516 264.430786,126.015869 267.996460,127.216347 
	C269.288910,127.651489 270.446472,129.743179 270.753662,131.263321 
	C270.886322,131.919800 268.836334,133.459488 267.547852,133.862381 
	C265.353546,134.548553 262.965424,134.589005 260.680328,135.016342 
	C256.125092,135.868225 253.460342,138.908096 253.781113,142.768875 
	C254.094727,146.543777 257.391510,149.321533 262.052002,148.916840 
	C265.070770,148.654678 267.997864,147.336655 270.460602,146.635635 
	C272.088409,147.624908 273.596375,148.541336 275.681396,149.808487 
	C275.402100,145.958878 275.133484,143.356003 275.045563,140.747009 
	C274.950287,137.919235 274.970764,135.084564 275.035431,132.255081 
	C275.130890,128.076218 274.196503,124.739304 269.476929,123.497238 
	C264.317841,122.139511 258.004181,123.617554 255.814240,127.030891 
	C254.056137,129.771118 254.684174,131.045349 258.575500,130.063766 
M263.246216,88.979668 
	C265.849060,88.088890 268.451874,87.198112 270.002563,86.667412 
	C272.216125,87.799637 273.747498,88.582916 275.022919,89.235291 
	C275.022919,82.971107 275.073730,77.526711 275.009399,72.083679 
	C274.937134,65.969566 273.023773,63.764637 267.370453,63.049149 
	C260.875793,62.227180 256.536957,64.640991 254.687256,71.155724 
	C256.606567,70.312958 258.200806,70.113380 258.902863,69.215904 
	C261.589783,65.781082 265.048218,66.036690 268.347900,67.340927 
	C269.585815,67.830223 270.455811,70.058044 270.768707,71.636894 
	C270.876617,72.181358 268.886597,73.455261 267.674744,73.872162 
	C265.969818,74.458664 264.102783,74.597763 262.294861,74.856651 
	C256.564514,75.677246 253.795837,78.022522 253.759872,82.139267 
	C253.723999,86.245316 256.343994,88.328270 263.246216,88.979668 
M232.301193,88.145828 
	C234.565796,86.083755 236.830399,84.021690 239.095001,81.959618 
	C238.572067,81.280037 238.049118,80.600449 237.526184,79.920868 
	C236.275757,80.626106 234.606659,81.033997 233.854446,82.093086 
	C231.711868,85.109756 229.026123,86.081017 225.633087,85.004326 
	C221.969574,83.841797 220.581924,81.088326 220.641922,76.957329 
	C226.760635,76.957329 232.687790,76.957329 238.584488,76.957329 
	C238.917953,69.927841 236.836288,65.926346 232.040176,63.917564 
	C227.518616,62.023777 222.460510,63.142262 219.282867,66.738564 
	C215.780273,70.702629 215.170303,78.893608 218.018860,83.712563 
	C220.578857,88.043411 225.239059,89.656952 232.301193,88.145828 
M298.020782,64.195793 
	C293.726379,61.934528 289.752869,62.998356 287.019135,65.006424 
	C284.875000,64.043304 283.517609,63.433594 281.949585,62.729256 
	C281.949585,72.057243 281.949585,80.441032 281.949585,88.824821 
	C282.444611,89.054489 282.939667,89.284164 283.434692,89.513832 
	C284.150909,88.289680 285.394745,87.104279 285.488037,85.834373 
	C285.815887,81.371094 285.591553,76.868759 285.876984,72.400414 
	C286.134888,68.363228 288.797424,66.536095 292.618378,66.642128 
	C296.445770,66.748344 297.600189,69.428734 297.626831,72.777237 
	C297.668976,78.074188 297.638031,83.371719 297.638031,88.833725 
	C299.042206,88.833725 300.144867,88.833725 301.543945,88.833725 
	C301.543945,82.670456 301.788513,76.691551 301.411377,70.752121 
	C301.279266,68.671715 299.618073,66.688400 298.020782,64.195793 
M126.794876,85.080887 
	C126.764824,87.613480 126.431160,90.494041 130.729477,88.226814 
	C130.729477,82.520325 130.932159,76.709549 130.674179,70.919296 
	C130.399887,64.763588 125.265587,61.489807 119.434013,63.508423 
	C117.930267,64.028946 116.542519,64.884537 116.134895,65.083015 
	C114.005394,64.081741 112.649796,63.444347 111.077759,62.705189 
	C111.077759,72.036316 111.077759,80.425728 111.077759,88.815132 
	C111.557365,89.051659 112.036972,89.288193 112.516579,89.524719 
	C113.259270,88.309547 114.551361,87.134964 114.644691,85.871811 
	C114.962280,81.573502 114.753586,77.239403 114.942535,72.927597 
	C115.127502,68.706886 117.623505,66.524567 121.732025,66.634018 
	C125.847694,66.743683 126.829582,69.657104 126.800034,73.199974 
	C126.769554,76.854965 126.794357,80.510422 126.794876,85.080887 
M237.647675,139.437576 
	C237.647675,134.124405 237.647675,128.811218 237.647675,123.214325 
	C236.118393,123.214325 234.911407,123.214325 233.273636,123.214325 
	C233.273636,128.580017 233.385345,133.726639 233.238678,138.865906 
	C233.119110,143.055481 230.717010,145.391754 226.548798,145.297394 
	C222.318970,145.201660 221.603149,142.146057 221.638168,138.641891 
	C221.689423,133.511597 221.651352,128.380417 221.651352,122.906944 
	C219.946869,123.065308 218.743271,123.177132 217.625961,123.280937 
	C217.625961,129.691452 217.338379,135.690125 217.708420,141.647934 
	C218.064575,147.382141 223.511887,150.523285 228.936081,148.487061 
	C230.453308,147.917511 231.827652,146.967316 232.713348,146.490250 
	C234.181915,147.536789 235.460541,148.447998 237.647598,150.006577 
	C237.647598,145.722900 237.647598,143.067703 237.647675,139.437576 
M286.880524,127.015823 
	C290.091583,126.329620 293.068878,126.026604 295.230743,129.456558 
	C295.749664,130.279907 297.582916,130.274826 299.389404,130.827454 
	C297.212555,123.863586 291.694885,121.171509 285.762085,123.949753 
	C283.611023,124.957062 281.114746,127.824196 281.038574,129.924759 
	C280.964478,131.968231 283.390198,134.725266 285.440247,136.060547 
	C287.842499,137.625275 291.092255,137.829636 293.832672,138.965851 
	C294.827087,139.378143 296.041046,140.791580 296.018036,141.720016 
	C295.992249,142.760422 294.882324,144.325928 293.887756,144.690399 
	C290.419434,145.961395 287.109283,145.941437 284.548706,142.461899 
	C283.771362,141.405594 282.199188,140.934189 280.991058,140.194885 
	C282.606415,148.932678 291.759155,151.700760 297.718567,146.625305 
	C301.938171,143.031586 300.985352,137.067123 295.752075,135.076401 
	C293.126373,134.077591 290.304626,133.604965 287.641571,132.690445 
	C284.757843,131.700134 283.241119,130.097672 286.880524,127.015823 
M142.390564,63.517620 
	C138.793808,64.543427 136.546310,66.707214 136.728790,70.658180 
	C136.908081,74.540138 139.861221,75.851555 142.945267,76.897133 
	C144.356140,77.375465 145.995499,77.387627 147.234329,78.116119 
	C149.014069,79.162682 150.522552,80.670486 152.146835,81.981407 
	C150.013489,83.129906 147.938843,85.009537 145.727539,85.187073 
	C144.068298,85.320290 142.257614,83.222496 140.468124,82.198753 
	C139.262604,81.509079 137.976562,80.960205 136.726532,80.348343 
	C138.869278,88.694016 146.556046,91.526398 152.619308,87.177902 
	C154.465942,85.853516 156.073059,82.843956 156.026413,80.643570 
	C155.986603,78.765137 153.756012,76.396637 151.881149,75.234131 
	C149.708633,73.887077 146.760925,73.858749 144.353775,72.795876 
	C142.912888,72.159668 141.862610,70.638855 140.636765,69.515640 
	C142.174408,68.528831 143.703156,66.771378 145.251968,66.753532 
	C147.118179,66.732048 149.017899,68.152718 150.871506,69.016884 
	C152.102600,69.590843 153.278351,70.283562 155.501663,71.467995 
	C153.348160,64.070686 150.714371,62.622139 142.390564,63.517620 
M363.022217,88.864891 
	C369.993042,86.546516 372.272034,83.663414 372.600922,76.747002 
	C372.896912,70.522308 370.526764,65.950523 365.886383,64.010841 
	C361.130951,62.023106 356.583954,62.667194 353.008820,66.287209 
	C348.672180,70.678261 348.925049,76.265915 350.529419,81.696198 
	C351.987549,86.631653 355.728729,88.736710 363.022217,88.864891 
M294.455322,153.003357 
	C280.719391,153.003357 266.983459,153.003357 253.220795,153.003357 
	C253.220795,154.530609 253.220795,155.601364 253.220795,156.772888 
	C269.634369,156.772888 285.835236,156.772888 302.197144,156.772888 
	C302.658234,150.127396 297.607697,154.249420 294.455322,153.003357 
M248.215790,89.018333 
	C248.215790,80.422859 248.215790,71.827377 248.215790,63.375355 
	C244.583237,62.155067 244.168060,63.842152 244.203949,66.485222 
	C244.307846,74.138985 244.293961,81.795670 244.211151,89.449959 
	C244.182190,92.126717 244.952499,95.443253 240.408066,95.539696 
	C239.903809,95.550400 239.435394,97.250008 238.887360,98.285347 
	C246.021088,99.771111 247.874512,97.993996 248.215790,89.018333 
M206.644012,57.896488 
	C206.644012,68.162880 206.644012,78.429276 206.644012,89.035522 
	C208.199585,88.896767 209.393509,88.790268 210.593964,88.683189 
	C210.593964,77.005066 210.593964,65.753693 210.593964,54.523991 
	C207.252975,54.109226 207.252975,54.109226 206.644012,57.896488 
M339.412506,71.366463 
	C338.949127,65.101135 346.705688,68.738396 348.737427,62.928925 
	C344.816864,63.523609 341.996704,63.951382 339.328735,64.356064 
	C338.226471,63.931107 336.898865,63.419266 335.082764,62.719109 
	C335.082764,71.131615 335.156830,78.621796 335.049957,86.109390 
	C335.000244,89.594574 336.588928,89.433014 339.256012,88.359871 
	C339.256012,82.883774 339.256012,77.560593 339.412506,71.366463 
z"/>
<path fill="#EFEFEF" opacity="1.000000" stroke="none" 
	d="
M842.863037,98.248093 
	C843.910339,101.238098 844.827942,103.850555 845.867188,106.809410 
	C841.806396,106.809410 838.363525,106.809410 834.280518,106.809410 
	C836.033508,101.531784 837.727844,96.430679 839.759644,90.313614 
	C840.935852,93.302765 841.834534,95.586647 842.863037,98.248093 
z"/>
<path fill="#EFEFEF" opacity="1.000000" stroke="none" 
	d="
M748.128662,109.036270 
	C750.546997,111.208725 750.797546,113.747627 748.310791,115.135529 
	C745.922974,116.468277 742.839172,116.807602 740.024841,116.976479 
	C739.119019,117.030830 737.232910,115.058815 737.331909,114.188522 
	C737.479614,112.889114 738.753235,111.126411 739.967712,110.664314 
	C742.394958,109.740768 745.107178,109.566139 748.128662,109.036270 
z"/>
<path fill="#E2E2E2" opacity="1.000000" stroke="none" 
	d="
M816.501953,100.677231 
	C817.282043,102.248055 817.796387,103.533310 818.509033,105.314148 
	C813.438232,105.314148 809.073669,105.314148 803.312134,105.314148 
	C804.994873,102.959801 805.999390,100.033493 807.589111,99.670563 
	C810.276550,99.057068 813.334229,100.065300 816.501953,100.677231 
z"/>
<path fill="#F4F4F4" opacity="1.000000" stroke="none" 
	d="
M631.800049,116.681107 
	C627.635864,112.880966 626.447205,106.906715 628.655090,102.527039 
	C630.746155,98.379074 635.991516,97.237076 639.611389,100.141708 
	C642.509705,102.467346 643.615173,108.866600 641.659119,113.075661 
	C639.729309,117.227997 636.362427,118.182724 631.800049,116.681107 
z"/>
<path fill="#000000" opacity="1.000000" stroke="none" 
	d="
M1387.000000,121.002190 
	C1397.157593,121.002213 1406.815796,121.059967 1416.472412,120.963730 
	C1419.049438,120.938057 1420.854858,121.204315 1419.731812,124.719437 
	C1344.868530,124.719437 1269.841431,124.719437 1194.498047,124.719437 
	C1193.766724,122.344971 1193.902344,120.777634 1197.179932,120.973137 
	C1199.668823,121.121590 1202.173462,121.002213 1204.671143,121.002213 
	C1265.280762,121.002190 1325.890381,121.002190 1387.000000,121.002190 
z"/>
<path fill="#0F0F0F" opacity="1.000000" stroke="none" 
	d="
M1368.983643,93.021454 
	C1368.983643,89.220268 1368.983643,85.915779 1368.983643,81.988548 
	C1374.638672,81.988548 1380.066040,81.859909 1385.484619,82.022026 
	C1391.859863,82.212753 1395.345337,84.934731 1395.970215,89.839752 
	C1396.642456,95.115761 1394.129639,98.242073 1387.892700,100.173119 
	C1391.460571,105.479126 1395.082886,110.866310 1398.796021,116.388412 
	C1394.914185,117.863892 1392.879395,116.674377 1391.445190,113.676521 
	C1390.445679,111.587517 1389.106689,109.656715 1387.869995,107.686256 
	C1383.395630,100.557327 1382.249878,100.053596 1373.227417,101.362968 
	C1373.227417,106.384964 1373.227417,111.479927 1373.227417,116.998039 
	C1371.627319,116.898750 1370.435425,116.824783 1368.983643,116.734703 
	C1368.983643,108.770683 1368.983643,101.144424 1368.983643,93.021454 
M1390.934814,88.502289 
	C1385.666992,83.417053 1379.368408,86.864937 1373.413452,85.784019 
	C1373.413452,89.804863 1373.413452,93.204376 1373.413452,96.951561 
	C1377.604492,96.951561 1381.570068,97.131866 1385.512207,96.905052 
	C1390.239014,96.633087 1391.807617,94.358322 1390.934814,88.502289 
z"/>
<path fill="#151515" opacity="1.000000" stroke="none" 
	d="
M1274.928467,106.864105 
	C1268.527466,105.612717 1265.238159,107.960411 1263.928955,113.934593 
	C1263.601196,115.429756 1261.375732,116.508965 1260.022461,117.779320 
	C1259.546265,117.365433 1259.069946,116.951538 1258.593750,116.537651 
	C1262.676270,105.704056 1266.714966,94.853340 1270.920044,84.067513 
	C1271.279785,83.145058 1272.792358,82.046707 1273.687988,82.114021 
	C1274.857178,82.201897 1276.556274,83.116180 1276.973755,84.115211 
	C1281.460938,94.853058 1285.740356,105.677696 1290.073242,116.470016 
	C1285.915405,118.339684 1284.416138,115.935402 1283.733643,112.697685 
	C1282.751221,108.037971 1280.214478,105.890793 1274.928467,106.864105 
M1271.593506,93.081802 
	C1270.503662,96.259872 1269.413818,99.437935 1268.268921,102.776466 
	C1272.417358,102.776466 1275.848267,102.776466 1279.887451,102.776466 
	C1277.894043,97.214104 1276.040649,92.042343 1273.822021,85.851280 
	C1272.911377,88.852264 1272.383423,90.592003 1271.593506,93.081802 
z"/>
<path fill="#131313" opacity="1.000000" stroke="none" 
	d="
M1448.346191,94.711960 
	C1446.626831,95.694984 1445.382324,96.711800 1443.989258,97.446785 
	C1442.865845,98.039398 1441.563110,98.291748 1439.674194,98.914566 
	C1441.942871,92.509239 1446.895996,90.008385 1453.184082,91.127075 
	C1458.479370,92.069145 1460.114380,94.130447 1460.183838,100.214455 
	C1460.245972,105.652542 1460.197021,111.091896 1460.197021,117.386368 
	C1458.754395,116.525742 1457.254883,115.631271 1455.649536,114.673599 
	C1453.125244,115.375809 1450.190063,116.673019 1447.168823,116.921181 
	C1442.530396,117.302170 1439.234375,114.503990 1438.926392,110.743484 
	C1438.613159,106.919861 1441.307617,103.872978 1445.848633,103.011772 
	C1447.966675,102.610077 1450.194824,102.589500 1452.210327,101.912109 
	C1453.644897,101.429924 1454.807861,100.139282 1456.092041,99.209427 
	C1454.798706,97.754509 1453.665771,96.088440 1452.144775,94.933403 
	C1451.378906,94.351730 1449.908813,94.697533 1448.346191,94.711960 
M1456.058228,108.045113 
	C1455.639404,107.024734 1455.101440,105.087463 1454.820190,105.124046 
	C1451.560791,105.548058 1448.282837,106.081596 1445.145386,107.032944 
	C1444.248169,107.304993 1443.098389,109.174591 1443.294189,110.030067 
	C1443.562500,111.201134 1444.845703,112.719894 1445.972534,113.010933 
	C1450.177246,114.097038 1453.880005,113.305321 1456.058228,108.045113 
z"/>
<path fill="#121212" opacity="1.000000" stroke="none" 
	d="
M1308.047363,115.176514 
	C1301.970337,109.480385 1301.185669,99.542923 1306.270386,94.453232 
	C1309.736816,90.983452 1313.919312,89.989243 1318.596313,91.888535 
	C1323.437744,93.854568 1325.410889,97.539719 1325.324585,104.820023 
	C1319.432129,104.820023 1313.521606,104.820023 1307.335083,104.820023 
	C1307.096191,108.905518 1308.543701,111.624786 1311.987427,112.899261 
	C1315.497192,114.198219 1318.364136,113.194099 1320.610229,109.973122 
	C1321.330078,108.940918 1323.076538,108.624634 1325.271606,107.517662 
	C1322.586182,116.631325 1316.980225,118.782578 1308.047363,115.176514 
M1320.751221,98.257553 
	C1318.668335,94.705017 1315.414917,93.431450 1311.860229,95.100227 
	C1309.772583,96.080215 1308.383667,98.548370 1306.680542,100.347160 
	C1307.046997,100.768082 1307.413452,101.189011 1307.779907,101.609932 
	C1310.592407,101.609932 1313.405029,101.610291 1316.217529,101.609711 
	C1317.049072,101.609535 1318.074707,101.911911 1318.667725,101.534966 
	C1319.600708,100.941872 1320.242432,99.890709 1320.751221,98.257553 
z"/>
<path fill="#1B1B1B" opacity="1.000000" stroke="none" 
	d="
M1217.586060,107.952896 
	C1217.585083,110.431343 1217.861938,112.483772 1217.480103,114.405334 
	C1217.249023,115.568199 1215.997192,116.528244 1215.203979,117.579422 
	C1214.682739,117.316994 1214.161621,117.054573 1213.640381,116.792152 
	C1213.640381,111.696121 1213.631958,106.600082 1213.643311,101.504082 
	C1213.651489,97.821686 1212.794434,94.647415 1208.329102,94.639893 
	C1204.152588,94.632858 1201.859863,97.029015 1201.771973,101.206505 
	C1201.663696,106.345154 1201.746094,111.487816 1201.746094,116.831795 
	C1200.147095,116.831795 1199.043213,116.831795 1197.791992,116.831795 
	C1197.791992,108.228271 1197.791992,99.787971 1197.791992,90.405792 
	C1199.591187,91.357986 1200.883911,92.042213 1202.840820,93.077881 
	C1203.263794,92.873856 1204.520752,92.150642 1205.859253,91.642036 
	C1211.910400,89.342590 1217.099121,92.571495 1217.536133,98.985878 
	C1217.728027,101.802559 1217.579956,104.642395 1217.586060,107.952896 
z"/>
<path fill="#171717" opacity="1.000000" stroke="none" 
	d="
M1230.268188,100.698242 
	C1233.223267,101.552368 1236.026489,101.833672 1238.240601,103.125038 
	C1240.166626,104.248299 1242.547241,106.427803 1242.688965,108.295273 
	C1242.854370,110.473427 1241.389038,113.562065 1239.611938,114.957405 
	C1233.630981,119.653625 1225.452393,116.801743 1223.450928,108.312347 
	C1224.690308,108.949829 1225.916504,109.614777 1227.171875,110.218781 
	C1229.415405,111.298279 1231.634155,113.017853 1233.945312,113.162865 
	C1235.506348,113.260811 1237.207764,111.118156 1238.846436,109.977753 
	C1237.541870,108.737259 1236.434937,107.070381 1234.887817,106.352966 
	C1232.364502,105.182991 1229.407837,104.941093 1226.897949,103.750732 
	C1222.825806,101.819466 1221.681763,96.369896 1225.249756,93.925041 
	C1227.943115,92.079582 1231.918945,91.442459 1235.314209,91.470222 
	C1238.771851,91.498512 1241.316528,93.889023 1242.135498,99.359711 
	C1240.027100,98.308601 1238.848999,97.624054 1237.598267,97.119354 
	C1235.437378,96.247406 1233.278687,95.133667 1231.024170,94.832809 
	C1229.936523,94.687660 1228.632935,96.160820 1227.427124,96.901230 
	C1228.238281,98.122200 1229.049316,99.343163 1230.268188,100.698242 
z"/>
<path fill="#151515" opacity="1.000000" stroke="none" 
	d="
M1472.692627,116.647644 
	C1468.543335,115.586098 1466.323242,113.275208 1465.555786,107.683533 
	C1467.622803,108.799606 1468.775269,109.443893 1469.947510,110.050163 
	C1472.154541,111.191536 1474.311157,112.996437 1476.607788,113.203430 
	C1478.189941,113.346008 1479.972778,111.262489 1481.665894,110.173843 
	C1480.274170,108.842842 1479.088623,107.093468 1477.441040,106.281174 
	C1475.102783,105.128349 1472.287842,104.955902 1469.920410,103.845070 
	C1465.423950,101.735283 1464.830322,96.386093 1468.516602,93.174088 
	C1473.712524,88.646622 1482.239258,90.982780 1485.213501,99.190033 
	C1482.996216,98.276627 1481.721069,97.833351 1480.521729,97.237419 
	C1478.831787,96.397713 1477.190308,94.718124 1475.542603,94.736046 
	C1473.737793,94.755684 1471.949585,96.297859 1470.154053,97.176483 
	C1471.571411,98.454170 1472.816895,100.055710 1474.451660,100.924026 
	C1476.314331,101.913460 1478.513306,102.288864 1480.585938,102.859360 
	C1483.828247,103.751823 1486.422729,105.861786 1485.671631,109.131973 
	C1485.091675,111.656944 1482.982666,114.426056 1480.758545,115.801147 
	C1478.760864,117.036423 1475.680298,116.520607 1472.692627,116.647644 
z"/>
<path fill="#151515" opacity="1.000000" stroke="none" 
	d="
M1340.574463,107.871941 
	C1338.529053,109.766045 1336.914185,112.108498 1334.941040,114.095177 
	C1333.493164,115.552971 1331.575439,116.544250 1329.867065,117.743423 
	C1329.500000,117.291977 1329.133057,116.840530 1328.766113,116.389084 
	C1331.610474,112.127182 1334.454712,107.865288 1337.360474,103.511322 
	C1334.732178,99.539642 1332.176025,95.677040 1329.263428,91.275612 
	C1336.518311,89.890938 1336.191162,96.885262 1339.603882,99.320625 
	C1343.612793,97.568245 1343.087891,89.827278 1350.473022,91.214867 
	C1347.572510,95.406433 1344.888550,99.284904 1342.145386,103.248970 
	C1345.085815,107.657562 1347.930786,111.923096 1350.775757,116.188622 
	C1350.509033,116.631935 1350.242188,117.075249 1349.975342,117.518555 
	C1348.270752,116.511543 1346.237305,115.810638 1344.943481,114.421150 
	C1343.270508,112.624290 1342.188232,110.277641 1340.574463,107.871941 
z"/>
<path fill="#181818" opacity="1.000000" stroke="none" 
	d="
M1423.042480,114.589584 
	C1420.900879,117.931877 1420.586670,117.865891 1418.859497,114.041649 
	C1417.455078,114.812943 1416.120239,115.733826 1414.651733,116.319237 
	C1409.020142,118.563988 1403.516724,115.380577 1403.180420,109.368454 
	C1402.848633,103.436646 1403.108032,97.471771 1403.108032,91.340828 
	C1405.800171,90.519585 1407.220337,90.851944 1407.087769,94.078751 
	C1406.910767,98.390434 1407.076782,102.715225 1407.037231,107.033844 
	C1407.006348,110.398979 1407.984497,113.147316 1411.801880,113.347000 
	C1415.892456,113.560974 1418.579346,111.429977 1418.785156,107.249710 
	C1419.037720,102.117363 1418.845215,96.963104 1418.845215,91.667000 
	C1421.754517,90.323799 1423.149048,90.714447 1423.081299,94.202927 
	C1422.952515,100.845039 1423.043945,107.491417 1423.042480,114.589584 
z"/>
<path fill="#010101" opacity="1.000000" stroke="none" 
	d="
M1484.669800,124.998802 
	C1468.946533,124.999046 1453.693848,124.999046 1438.224854,124.999046 
	C1438.224854,123.611671 1438.224854,122.539871 1438.224854,121.233200 
	C1454.607910,121.233200 1470.979858,121.233200 1487.351807,121.233200 
	C1487.654663,121.593117 1487.957642,121.953033 1488.260498,122.312943 
	C1487.220459,123.208153 1486.180420,124.103355 1484.669800,124.998802 
z"/>
<path fill="#1B1B1B" opacity="1.000000" stroke="none" 
	d="
M1430.133301,126.400543 
	C1428.194092,126.724930 1426.600098,126.865334 1423.839966,127.108452 
	C1424.851929,125.262657 1425.359741,123.493622 1425.900635,123.483513 
	C1430.150024,123.404045 1429.575195,120.284058 1429.603271,117.769279 
	C1429.701782,108.957405 1429.641479,100.143768 1429.641479,91.167305 
	C1431.039673,91.167305 1432.145142,91.167305 1433.496582,91.167305 
	C1433.496582,101.016312 1433.663696,110.667526 1433.359619,120.303871 
	C1433.296509,122.303093 1431.484497,124.247116 1430.133301,126.400543 
z"/>
<path fill="#343434" opacity="1.000000" stroke="none" 
	d="
M1295.943604,81.918671 
	C1296.816528,82.537254 1297.608276,83.140236 1297.612427,83.748604 
	C1297.687256,94.673759 1297.666870,105.599579 1297.666870,116.807526 
	C1296.130859,116.807526 1294.918091,116.807526 1293.316406,116.807526 
	C1293.316406,105.866455 1293.268555,95.108864 1293.410400,84.353775 
	C1293.421265,83.528687 1294.769409,82.721230 1295.943604,81.918671 
z"/>
<path fill="#2A2A2A" opacity="1.000000" stroke="none" 
	d="
M1249.732422,112.456253 
	C1254.017700,111.039436 1254.622070,113.101028 1253.877075,116.540764 
	C1250.115601,118.073975 1248.834351,116.618134 1249.732422,112.456253 
z"/>
<path fill="#2A2A2A" opacity="1.000000" stroke="none" 
	d="
M1254.052490,93.181587 
	C1254.638672,97.112778 1252.802856,97.598152 1249.626221,96.744560 
	C1249.533325,95.478439 1249.429688,94.063828 1249.266968,91.846184 
	C1251.134644,92.198494 1252.575684,92.470314 1254.052490,93.181587 
z"/>
<path fill="#000000" opacity="1.000000" stroke="none" 
	d="
M119.012581,93.003365 
	C157.791458,93.003365 196.070969,93.003365 234.732864,93.003365 
	C234.809631,94.324905 234.877441,95.492477 234.955688,96.839775 
	C192.466644,96.839775 150.386429,96.839775 108.315018,96.839775 
	C107.657661,93.169792 107.655807,93.109848 110.522156,93.021309 
	C113.183487,92.939095 115.849350,93.003510 119.012581,93.003365 
z"/>
<path fill="#000000" opacity="1.000000" stroke="none" 
	d="
M285.000000,93.003365 
	C313.801971,93.003380 342.104004,93.016594 370.405914,92.980591 
	C372.914398,92.977394 375.326294,92.757278 374.085724,96.754486 
	C333.969299,96.754486 293.742096,96.754486 253.346832,96.754486 
	C252.574875,94.282013 252.692459,92.880501 256.032654,92.942146 
	C265.518921,93.117241 275.010498,93.003433 285.000000,93.003365 
z"/>
<path fill="#0F0F0F" opacity="1.000000" stroke="none" 
	d="
M211.259033,144.913177 
	C212.040512,146.367508 212.625931,147.492142 213.211365,148.616760 
	C212.815369,149.060638 212.419373,149.504501 212.023376,149.948380 
	C210.096130,148.486740 207.962265,147.223724 206.306427,145.501190 
	C204.960281,144.100861 204.035965,142.221268 203.187485,140.429688 
	C200.244781,134.216003 195.699799,131.294846 188.014359,133.385849 
	C188.014359,137.257980 187.864700,141.506363 188.064774,145.738220 
	C188.208237,148.772705 187.054123,149.605560 184.062714,148.698761 
	C184.062714,137.350815 184.062714,125.955536 184.062714,113.983047 
	C189.421753,113.983047 194.849838,113.860138 200.269943,114.015236 
	C206.549515,114.194939 210.127060,116.945969 210.820663,121.776085 
	C211.563782,126.951088 208.986877,130.194717 202.707062,132.181335 
	C205.472122,136.285339 208.267548,140.434402 211.259033,144.913177 
M204.177872,127.776154 
	C207.767807,123.220802 206.822037,118.722069 201.826385,118.137794 
	C197.329376,117.611839 192.722321,118.026886 188.332458,118.026886 
	C188.332458,121.992393 188.332458,125.380234 188.332458,129.365860 
	C193.606506,128.944061 198.508423,128.552017 204.177872,127.776154 
z"/>
<path fill="#151515" opacity="1.000000" stroke="none" 
	d="
M200.137421,80.722107 
	C201.251358,83.545219 202.241013,85.998947 203.256287,88.516197 
	C199.989960,89.792503 198.213211,88.931351 197.136536,85.690994 
	C196.346268,83.312668 195.155380,79.612160 193.531998,79.251549 
	C189.427994,78.339897 184.829544,78.346825 180.743713,79.314194 
	C179.144012,79.692947 178.579208,83.748253 177.176483,85.888885 
	C176.183853,87.403694 174.575226,88.514847 173.241577,89.806190 
	C172.753448,89.389427 172.265305,88.972656 171.777161,88.555885 
	C175.881256,77.612694 179.937897,66.651009 184.180862,55.761925 
	C184.515091,54.904152 186.240295,53.965122 187.150177,54.111763 
	C188.302460,54.297466 189.803650,55.334660 190.252396,56.388645 
	C193.630737,64.323547 196.787277,72.352898 200.137421,80.722107 
M186.081985,60.751030 
	C184.567429,65.374153 183.052872,69.997276 181.461609,74.854523 
	C185.636749,74.854523 189.114807,74.854523 193.018768,74.854523 
	C191.241669,69.762634 189.567673,64.913811 187.802094,60.098568 
	C187.731384,59.905743 186.792389,60.031292 186.081985,60.751030 
z"/>
<path fill="#1B1B1B" opacity="1.000000" stroke="none" 
	d="
M328.049896,77.972404 
	C328.049896,81.787163 328.049896,85.106461 328.049896,88.011505 
	C324.018799,88.361206 320.296844,89.057442 316.606628,88.917458 
	C310.950684,88.702927 306.948853,83.330528 306.787445,76.455482 
	C306.611633,68.964600 310.169586,63.456657 316.029114,63.161407 
	C318.591522,63.032295 321.232147,64.455849 323.882812,65.186897 
	C325.728119,61.979103 321.373779,56.367798 328.049896,52.863667 
	C328.049896,61.915504 328.049896,69.696220 328.049896,77.972404 
M318.328156,66.646751 
	C314.303741,66.385574 311.932190,68.516174 311.278839,72.219009 
	C310.520447,76.517021 310.087341,81.055389 314.158142,84.150841 
	C316.884827,86.224205 319.853973,85.896782 322.274872,83.421669 
	C326.501190,79.100731 324.675781,69.714706 318.328156,66.646751 
z"/>
<path fill="#121212" opacity="1.000000" stroke="none" 
	d="
M258.307556,130.344513 
	C254.684174,131.045349 254.056137,129.771118 255.814240,127.030891 
	C258.004181,123.617554 264.317841,122.139511 269.476929,123.497238 
	C274.196503,124.739304 275.130890,128.076218 275.035431,132.255081 
	C274.970764,135.084564 274.950287,137.919235 275.045563,140.747009 
	C275.133484,143.356003 275.402100,145.958878 275.681396,149.808487 
	C273.596375,148.541336 272.088409,147.624908 270.460602,146.635635 
	C267.997864,147.336655 265.070770,148.654678 262.052002,148.916840 
	C257.391510,149.321533 254.094727,146.543777 253.781113,142.768875 
	C253.460342,138.908096 256.125092,135.868225 260.680328,135.016342 
	C262.965424,134.589005 265.353546,134.548553 267.547852,133.862381 
	C268.836334,133.459488 270.886322,131.919800 270.753662,131.263321 
	C270.446472,129.743179 269.288910,127.651489 267.996460,127.216347 
	C264.430786,126.015869 260.689575,125.769516 258.307556,130.344513 
M257.960327,141.540207 
	C258.794342,146.450089 262.382782,145.724121 265.634308,145.057129 
	C269.903900,144.181290 271.477570,141.368408 270.609894,135.884872 
	C266.101746,137.649185 262.121063,139.207092 257.960327,141.540207 
z"/>
<path fill="#121212" opacity="1.000000" stroke="none" 
	d="
M262.834778,89.003265 
	C256.343994,88.328270 253.723999,86.245316 253.759872,82.139267 
	C253.795837,78.022522 256.564514,75.677246 262.294861,74.856651 
	C264.102783,74.597763 265.969818,74.458664 267.674744,73.872162 
	C268.886597,73.455261 270.876617,72.181358 270.768707,71.636894 
	C270.455811,70.058044 269.585815,67.830223 268.347900,67.340927 
	C265.048218,66.036690 261.589783,65.781082 258.902863,69.215904 
	C258.200806,70.113380 256.606567,70.312958 254.687256,71.155724 
	C256.536957,64.640991 260.875793,62.227180 267.370453,63.049149 
	C273.023773,63.764637 274.937134,65.969566 275.009399,72.083679 
	C275.073730,77.526711 275.022919,82.971107 275.022919,89.235291 
	C273.747498,88.582916 272.216125,87.799637 270.002563,86.667412 
	C268.451874,87.198112 265.849060,88.088890 262.834778,89.003265 
M271.005798,79.218269 
	C270.605164,78.476830 270.110962,77.057442 269.818268,77.097855 
	C266.556915,77.548157 263.272034,78.036476 260.121948,78.955063 
	C259.195129,79.225319 257.984406,81.005852 258.135925,81.880928 
	C258.339691,83.057861 259.529053,84.503761 260.661255,85.000710 
	C264.591766,86.725960 268.896912,84.502182 271.005798,79.218269 
z"/>
<path fill="#121212" opacity="1.000000" stroke="none" 
	d="
M231.920364,88.269897 
	C225.239059,89.656952 220.578857,88.043411 218.018860,83.712563 
	C215.170303,78.893608 215.780273,70.702629 219.282867,66.738564 
	C222.460510,63.142262 227.518616,62.023777 232.040176,63.917564 
	C236.836288,65.926346 238.917953,69.927841 238.584488,76.957329 
	C232.687790,76.957329 226.760635,76.957329 220.641922,76.957329 
	C220.581924,81.088326 221.969574,83.841797 225.633087,85.004326 
	C229.026123,86.081017 231.711868,85.109756 233.854446,82.093086 
	C234.606659,81.033997 236.275757,80.626106 237.526184,79.920868 
	C238.049118,80.600449 238.572067,81.280037 239.095001,81.959618 
	C236.830399,84.021690 234.565796,86.083755 231.920364,88.269897 
M223.933990,67.445816 
	C222.696121,69.147156 221.458237,70.848488 219.801865,73.125023 
	C225.631760,73.125023 230.128616,73.125023 234.745682,73.125023 
	C232.915009,67.025604 230.786911,65.844215 223.933990,67.445816 
z"/>
<path fill="#1B1B1B" opacity="1.000000" stroke="none" 
	d="
M298.337952,64.428268 
	C299.618073,66.688400 301.279266,68.671715 301.411377,70.752121 
	C301.788513,76.691551 301.543945,82.670456 301.543945,88.833725 
	C300.144867,88.833725 299.042206,88.833725 297.638031,88.833725 
	C297.638031,83.371719 297.668976,78.074188 297.626831,72.777237 
	C297.600189,69.428734 296.445770,66.748344 292.618378,66.642128 
	C288.797424,66.536095 286.134888,68.363228 285.876984,72.400414 
	C285.591553,76.868759 285.815887,81.371094 285.488037,85.834373 
	C285.394745,87.104279 284.150909,88.289680 283.434692,89.513832 
	C282.939667,89.284164 282.444611,89.054489 281.949585,88.824821 
	C281.949585,80.441032 281.949585,72.057243 281.949585,62.729256 
	C283.517609,63.433594 284.875000,64.043304 287.019135,65.006424 
	C289.752869,62.998356 293.726379,61.934528 298.337952,64.428268 
z"/>
<path fill="#171717" opacity="1.000000" stroke="none" 
	d="
M126.794922,84.623276 
	C126.794357,80.510422 126.769554,76.854965 126.800034,73.199974 
	C126.829582,69.657104 125.847694,66.743683 121.732025,66.634018 
	C117.623505,66.524567 115.127502,68.706886 114.942535,72.927597 
	C114.753586,77.239403 114.962280,81.573502 114.644691,85.871811 
	C114.551361,87.134964 113.259270,88.309547 112.516579,89.524719 
	C112.036972,89.288193 111.557365,89.051659 111.077759,88.815132 
	C111.077759,80.425728 111.077759,72.036316 111.077759,62.705189 
	C112.649796,63.444347 114.005394,64.081741 116.134895,65.083015 
	C116.542519,64.884537 117.930267,64.028946 119.434013,63.508423 
	C125.265587,61.489807 130.399887,64.763588 130.674179,70.919296 
	C130.932159,76.709549 130.729477,82.520325 130.729477,88.226814 
	C126.431160,90.494041 126.764824,87.613480 126.794922,84.623276 
z"/>
<path fill="#2A2A2A" opacity="1.000000" stroke="none" 
	d="
M237.647644,139.925049 
	C237.647598,143.067703 237.647598,145.722900 237.647598,150.006577 
	C235.460541,148.447998 234.181915,147.536789 232.713348,146.490250 
	C231.827652,146.967316 230.453308,147.917511 228.936081,148.487061 
	C223.511887,150.523285 218.064575,147.382141 217.708420,141.647934 
	C217.338379,135.690125 217.625961,129.691452 217.625961,123.280937 
	C218.743271,123.177132 219.946869,123.065308 221.651352,122.906944 
	C221.651352,128.380417 221.689423,133.511597 221.638168,138.641891 
	C221.603149,142.146057 222.318970,145.201660 226.548798,145.297394 
	C230.717010,145.391754 233.119110,143.055481 233.238678,138.865906 
	C233.385345,133.726639 233.273636,128.580017 233.273636,123.214325 
	C234.911407,123.214325 236.118393,123.214325 237.647675,123.214325 
	C237.647675,128.811218 237.647675,134.124405 237.647644,139.925049 
z"/>
<path fill="#151515" opacity="1.000000" stroke="none" 
	d="
M286.469513,127.170486 
	C283.241119,130.097672 284.757843,131.700134 287.641571,132.690445 
	C290.304626,133.604965 293.126373,134.077591 295.752075,135.076401 
	C300.985352,137.067123 301.938171,143.031586 297.718567,146.625305 
	C291.759155,151.700760 282.606415,148.932678 280.991058,140.194885 
	C282.199188,140.934189 283.771362,141.405594 284.548706,142.461899 
	C287.109283,145.941437 290.419434,145.961395 293.887756,144.690399 
	C294.882324,144.325928 295.992249,142.760422 296.018036,141.720016 
	C296.041046,140.791580 294.827087,139.378143 293.832672,138.965851 
	C291.092255,137.829636 287.842499,137.625275 285.440247,136.060547 
	C283.390198,134.725266 280.964478,131.968231 281.038574,129.924759 
	C281.114746,127.824196 283.611023,124.957062 285.762085,123.949753 
	C291.694885,121.171509 297.212555,123.863586 299.389404,130.827454 
	C297.582916,130.274826 295.749664,130.279907 295.230743,129.456558 
	C293.068878,126.026604 290.091583,126.329620 286.469513,127.170486 
z"/>
<path fill="#151515" opacity="1.000000" stroke="none" 
	d="
M142.770126,63.378494 
	C150.714371,62.622139 153.348160,64.070686 155.501663,71.467995 
	C153.278351,70.283562 152.102600,69.590843 150.871506,69.016884 
	C149.017899,68.152718 147.118179,66.732048 145.251968,66.753532 
	C143.703156,66.771378 142.174408,68.528831 140.636765,69.515640 
	C141.862610,70.638855 142.912888,72.159668 144.353775,72.795876 
	C146.760925,73.858749 149.708633,73.887077 151.881149,75.234131 
	C153.756012,76.396637 155.986603,78.765137 156.026413,80.643570 
	C156.073059,82.843956 154.465942,85.853516 152.619308,87.177902 
	C146.556046,91.526398 138.869278,88.694016 136.726532,80.348343 
	C137.976562,80.960205 139.262604,81.509079 140.468124,82.198753 
	C142.257614,83.222496 144.068298,85.320290 145.727539,85.187073 
	C147.938843,85.009537 150.013489,83.129906 152.146835,81.981407 
	C150.522552,80.670486 149.014069,79.162682 147.234329,78.116119 
	C145.995499,77.387627 144.356140,77.375465 142.945267,76.897133 
	C139.861221,75.851555 136.908081,74.540138 136.728790,70.658180 
	C136.546310,66.707214 138.793808,64.543427 142.770126,63.378494 
z"/>
<path fill="#131313" opacity="1.000000" stroke="none" 
	d="
M362.618958,88.917938 
	C355.728729,88.736710 351.987549,86.631653 350.529419,81.696198 
	C348.925049,76.265915 348.672180,70.678261 353.008820,66.287209 
	C356.583954,62.667194 361.130951,62.023106 365.886383,64.010841 
	C370.526764,65.950523 372.896912,70.522308 372.600922,76.747002 
	C372.272034,83.663414 369.993042,86.546516 362.618958,88.917938 
M354.050781,72.154869 
	C354.037292,74.617561 353.657501,77.146523 354.088531,79.528786 
	C354.920258,84.125641 359.141235,86.492188 363.406097,85.022911 
	C368.099213,83.406090 368.515717,79.439728 368.466949,75.324203 
	C368.420654,71.417755 367.333099,68.037033 363.058075,66.905502 
	C358.914490,65.808762 356.006195,67.482491 354.050781,72.154869 
z"/>
<path fill="#000000" opacity="1.000000" stroke="none" 
	d="
M239.036087,156.810791 
	C220.230591,156.872650 201.424911,156.977844 182.620102,156.890747 
	C181.467438,156.885437 180.321823,155.359787 179.172928,154.541519 
	C179.425690,154.028793 179.678467,153.516083 179.931229,153.003357 
	C190.050720,153.003357 200.170212,153.003357 210.289703,153.003357 
	C218.447037,153.003357 226.605133,152.946396 234.760941,153.057678 
	C236.172287,153.076920 237.573929,153.808823 238.914062,154.943573 
	C238.910751,156.054001 238.973419,156.432388 239.036087,156.810791 
z"/>
<path fill="#000000" opacity="1.000000" stroke="none" 
	d="
M294.950562,153.003357 
	C297.607697,154.249420 302.658234,150.127396 302.197144,156.772888 
	C285.835236,156.772888 269.634369,156.772888 253.220795,156.772888 
	C253.220795,155.601364 253.220795,154.530609 253.220795,153.003357 
	C266.983459,153.003357 280.719391,153.003357 294.950562,153.003357 
z"/>
<path fill="#1B1B1B" opacity="1.000000" stroke="none" 
	d="
M248.215744,89.462433 
	C247.874512,97.993996 246.021088,99.771111 238.887360,98.285347 
	C239.435394,97.250008 239.903809,95.550400 240.408066,95.539696 
	C244.952499,95.443253 244.182190,92.126717 244.211151,89.449959 
	C244.293961,81.795670 244.307846,74.138985 244.203949,66.485222 
	C244.168060,63.842152 244.583237,62.155067 248.215790,63.375355 
	C248.215790,71.827377 248.215790,80.422859 248.215744,89.462433 
z"/>
<path fill="#1B1B1B" opacity="1.000000" stroke="none" 
	d="
M239.095917,157.207733 
	C238.973419,156.432388 238.910751,156.054001 238.902069,155.391449 
	C243.034592,156.239777 244.293961,154.265320 244.259506,150.512070 
	C244.184875,142.380905 244.328751,134.247101 244.195831,126.117447 
	C244.144470,122.976242 245.338348,122.310715 248.154846,123.413063 
	C248.154846,133.042953 248.342499,142.667511 248.087097,152.280273 
	C247.924225,158.410019 243.965103,160.569809 239.095917,157.207733 
z"/>
<path fill="#1B1B1B" opacity="1.000000" stroke="none" 
	d="
M206.644135,57.443447 
	C207.252975,54.109226 207.252975,54.109226 210.593964,54.523991 
	C210.593964,65.753693 210.593964,77.005066 210.593964,88.683189 
	C209.393509,88.790268 208.199585,88.896767 206.644012,89.035522 
	C206.644012,78.429276 206.644012,68.162880 206.644135,57.443447 
z"/>
<path fill="#1B1B1B" opacity="1.000000" stroke="none" 
	d="
M339.334259,71.801933 
	C339.256012,77.560593 339.256012,82.883774 339.256012,88.359871 
	C336.588928,89.433014 335.000244,89.594574 335.049957,86.109390 
	C335.156830,78.621796 335.082764,71.131615 335.082764,62.719109 
	C336.898865,63.419266 338.226471,63.931107 339.328735,64.356064 
	C341.996704,63.951382 344.816864,63.523609 348.737427,62.928925 
	C346.705688,68.738396 338.949127,65.101135 339.334259,71.801933 
z"/>
<path fill="#F7F7F7" opacity="1.000000" stroke="none" 
	d="
M1391.098389,88.856697 
	C1391.807617,94.358322 1390.239014,96.633087 1385.512207,96.905052 
	C1381.570068,97.131866 1377.604492,96.951561 1373.413452,96.951561 
	C1373.413452,93.204376 1373.413452,89.804863 1373.413452,85.784019 
	C1379.368408,86.864937 1385.666992,83.417053 1391.098389,88.856697 
z"/>
<path fill="#EFEFEF" opacity="1.000000" stroke="none" 
	d="
M1271.724609,92.706772 
	C1272.383423,90.592003 1272.911377,88.852264 1273.822021,85.851280 
	C1276.040649,92.042343 1277.894043,97.214104 1279.887451,102.776466 
	C1275.848267,102.776466 1272.417358,102.776466 1268.268921,102.776466 
	C1269.413818,99.437935 1270.503662,96.259872 1271.724609,92.706772 
z"/>
<path fill="#EFEFEF" opacity="1.000000" stroke="none" 
	d="
M1455.979980,108.449890 
	C1453.880005,113.305321 1450.177246,114.097038 1445.972534,113.010933 
	C1444.845703,112.719894 1443.562500,111.201134 1443.294189,110.030067 
	C1443.098389,109.174591 1444.248169,107.304993 1445.145386,107.032944 
	C1448.282837,106.081596 1451.560791,105.548058 1454.820190,105.124046 
	C1455.101440,105.087463 1455.639404,107.024734 1455.979980,108.449890 
z"/>
<path fill="#E2E2E2" opacity="1.000000" stroke="none" 
	d="
M1320.879395,98.645538 
	C1320.242432,99.890709 1319.600708,100.941872 1318.667725,101.534966 
	C1318.074707,101.911911 1317.049072,101.609535 1316.217529,101.609711 
	C1313.405029,101.610291 1310.592407,101.609932 1307.779907,101.609932 
	C1307.413452,101.189011 1307.046997,100.768082 1306.680542,100.347160 
	C1308.383667,98.548370 1309.772583,96.080215 1311.860229,95.100227 
	C1315.414917,93.431450 1318.668335,94.705017 1320.879395,98.645538 
z"/>
<path fill="#F7F7F7" opacity="1.000000" stroke="none" 
	d="
M203.794098,127.968071 
	C198.508423,128.552017 193.606506,128.944061 188.332458,129.365860 
	C188.332458,125.380234 188.332458,121.992393 188.332458,118.026886 
	C192.722321,118.026886 197.329376,117.611839 201.826385,118.137794 
	C206.822037,118.722069 207.767807,123.220802 203.794098,127.968071 
z"/>
<path fill="#EFEFEF" opacity="1.000000" stroke="none" 
	d="
M186.169968,60.379768 
	C186.792389,60.031292 187.731384,59.905743 187.802094,60.098568 
	C189.567673,64.913811 191.241669,69.762634 193.018768,74.854523 
	C189.114807,74.854523 185.636749,74.854523 181.461609,74.854523 
	C183.052872,69.997276 184.567429,65.374153 186.169968,60.379768 
z"/>
<path fill="#F7F7F7" opacity="1.000000" stroke="none" 
	d="
M318.733948,66.748398 
	C324.675781,69.714706 326.501190,79.100731 322.274872,83.421669 
	C319.853973,85.896782 316.884827,86.224205 314.158142,84.150841 
	C310.087341,81.055389 310.520447,76.517021 311.278839,72.219009 
	C311.932190,68.516174 314.303741,66.385574 318.733948,66.748398 
z"/>
<path fill="#EFEFEF" opacity="1.000000" stroke="none" 
	d="
M258.050354,141.152603 
	C262.121063,139.207092 266.101746,137.649185 270.609894,135.884872 
	C271.477570,141.368408 269.903900,144.181290 265.634308,145.057129 
	C262.382782,145.724121 258.794342,146.450089 258.050354,141.152603 
z"/>
<path fill="#EFEFEF" opacity="1.000000" stroke="none" 
	d="
M270.956604,79.624893 
	C268.896912,84.502182 264.591766,86.725960 260.661255,85.000710 
	C259.529053,84.503761 258.339691,83.057861 258.135925,81.880928 
	C257.984406,81.005852 259.195129,79.225319 260.121948,78.955063 
	C263.272034,78.036476 266.556915,77.548157 269.818268,77.097855 
	C270.110962,77.057442 270.605164,78.476830 270.956604,79.624893 
z"/>
<path fill="#E2E2E2" opacity="1.000000" stroke="none" 
	d="
M224.271637,67.269775 
	C230.786911,65.844215 232.915009,67.025604 234.745682,73.125023 
	C230.128616,73.125023 225.631760,73.125023 219.801865,73.125023 
	C221.458237,70.848488 222.696121,69.147156 224.271637,67.269775 
z"/>
<path fill="#F4F4F4" opacity="1.000000" stroke="none" 
	d="
M354.164062,71.745010 
	C356.006195,67.482491 358.914490,65.808762 363.058075,66.905502 
	C367.333099,68.037033 368.420654,71.417755 368.466949,75.324203 
	C368.515717,79.439728 368.099213,83.406090 363.406097,85.022911 
	C359.141235,86.492188 354.920258,84.125641 354.088531,79.528786 
	C353.657501,77.146523 354.037292,74.617561 354.164062,71.745010 
z"/>
</svg>