<svg version="1.1" id="Layer_1" xmlns="http://www.w3.org/2000/svg" xmlns:xlink="http://www.w3.org/1999/xlink" x="0px" y="0px"
	 width="100%" viewBox="0 0 1100 144" enable-background="new 0 0 1100 144" xml:space="preserve">
<path fill="#FFFFFF" opacity="1.000000" stroke="none" 
	d="
M837.000000,145.000000 
	C558.000000,145.000000 279.500000,145.000000 1.000000,145.000000 
	C1.000000,97.000000 1.000000,49.000000 1.000000,1.000000 
	C367.666656,1.000000 734.333313,1.000000 1101.000000,1.000000 
	C1101.000000,49.000000 1101.000000,97.000000 1101.000000,145.000000 
	C1013.166687,145.000000 925.333313,145.000000 837.000000,145.000000 
M807.500000,135.001495 
	C902.585510,135.001495 997.671021,135.001495 1092.729858,135.001495 
	C1092.729858,93.384521 1092.729858,52.316307 1092.729858,11.253958 
	C958.065918,11.253958 823.673584,11.253958 688.978882,11.253958 
	C688.978882,31.433147 688.978882,51.359234 688.978882,71.941414 
	C675.355347,65.165833 662.229187,58.637592 648.386230,51.752880 
	C648.386230,58.664658 648.386230,64.714668 648.386230,70.709717 
	C569.682495,70.709717 491.449738,70.709717 412.819092,70.709717 
	C412.819092,50.683777 412.819092,30.943836 412.819092,11.272891 
	C278.027985,11.272891 143.635635,11.272891 9.270405,11.272891 
	C9.270405,52.616131 9.270405,93.684357 9.270405,134.745667 
	C143.934799,134.745667 278.327118,134.745667 413.117706,134.745667 
	C413.117706,114.753616 413.117706,95.013596 413.117706,75.229538 
	C491.774933,75.229538 570.033325,75.229538 648.741089,75.229538 
	C648.741089,81.517593 648.741089,87.581581 648.741089,94.093300 
	C662.330139,87.321877 675.375427,80.821419 689.090881,73.987022 
	C689.090881,94.725563 689.090881,114.762054 689.090881,135.001495 
	C728.553162,135.001495 767.526611,135.001495 807.500000,135.001495 
z"/>
<path fill="#010101" opacity="1.000000" stroke="none" 
	d="
M807.000000,135.001495 
	C767.526611,135.001495 728.553162,135.001495 689.090881,135.001495 
	C689.090881,114.762054 689.090881,94.725563 689.090881,73.987022 
	C675.375427,80.821419 662.330139,87.321877 648.741089,94.093300 
	C648.741089,87.581581 648.741089,81.517593 648.741089,75.229538 
	C570.033325,75.229538 491.774933,75.229538 413.117706,75.229538 
	C413.117706,95.013596 413.117706,114.753616 413.117706,134.745667 
	C278.327118,134.745667 143.934799,134.745667 9.270405,134.745667 
	C9.270405,93.684357 9.270405,52.616131 9.270405,11.272891 
	C143.635635,11.272891 278.027985,11.272891 412.819092,11.272891 
	C412.819092,30.943836 412.819092,50.683777 412.819092,70.709717 
	C491.449738,70.709717 569.682495,70.709717 648.386230,70.709717 
	C648.386230,64.714668 648.386230,58.664658 648.386230,51.752880 
	C662.229187,58.637592 675.355347,65.165833 688.978882,71.941414 
	C688.978882,51.359234 688.978882,31.433147 688.978882,11.253958 
	C823.673584,11.253958 958.065918,11.253958 1092.729858,11.253958 
	C1092.729858,52.316307 1092.729858,93.384521 1092.729858,135.001495 
	C997.671021,135.001495 902.585510,135.001495 807.000000,135.001495 
M731.500000,130.999725 
	C850.590576,130.999725 969.681091,130.999725 1088.714600,130.999725 
	C1088.714600,92.029999 1088.714600,53.626141 1088.714600,15.282848 
	C956.695618,15.282848 824.962219,15.282848 693.285461,15.282848 
	C693.285461,53.969948 693.285461,92.373817 693.285461,130.999725 
	C705.879639,130.999725 718.189819,130.999725 731.500000,130.999725 
M16.651901,14.999913 
	C12.687798,14.153088 12.971143,16.719280 12.973959,19.360609 
	C13.012513,55.526436 13.000014,91.692322 13.000073,127.858192 
	C13.000074,128.801529 13.000073,129.744873 13.000073,130.759491 
	C145.214554,130.759491 276.950897,130.759491 408.755798,130.759491 
	C408.755798,92.113884 408.755798,53.709358 408.755798,14.999896 
	C278.215424,14.999896 147.919083,14.999896 16.651901,14.999913 
M665.015320,81.537186 
	C670.412842,78.813667 675.810425,76.090149 682.011475,72.961174 
	C671.754211,67.856636 662.417480,63.210213 652.828003,58.438023 
	C652.828003,68.574417 652.828003,77.794258 652.828003,87.542046 
	C656.974487,85.506279 660.663513,83.695084 665.015320,81.537186 
z"/>
<path fill="#FEFEFE" opacity="1.000000" stroke="none" 
	d="
M731.000000,130.999725 
	C718.189819,130.999725 705.879639,130.999725 693.285461,130.999725 
	C693.285461,92.373817 693.285461,53.969948 693.285461,15.282848 
	C824.962219,15.282848 956.695618,15.282848 1088.714600,15.282848 
	C1088.714600,53.626141 1088.714600,92.029999 1088.714600,130.999725 
	C969.681091,130.999725 850.590576,130.999725 731.000000,130.999725 
M853.166382,84.347633 
	C853.166382,80.720688 853.166382,77.093735 853.166382,73.012665 
	C855.679199,73.012665 857.806274,73.091759 859.924866,72.991364 
	C862.240662,72.881622 864.603882,72.853882 866.848755,72.352760 
	C872.133911,71.173012 874.984924,67.247475 874.787781,61.865959 
	C874.598999,56.710625 871.673889,52.916687 866.310303,52.415825 
	C860.593811,51.882008 854.788757,52.295654 849.126587,52.295654 
	C849.126587,63.981064 849.126587,75.393631 849.126587,88.074135 
	C850.986755,86.795311 852.073669,86.048088 853.166382,84.347633 
M895.225220,86.076553 
	C897.384338,84.054375 899.543457,82.032188 901.702515,80.010010 
	C901.270996,79.365631 900.839417,78.721252 900.407898,78.076874 
	C899.128235,78.660873 897.342468,78.898354 896.661865,79.892479 
	C894.436829,83.142174 891.587585,84.201256 888.040283,82.918678 
	C884.555786,81.658806 883.106873,78.927391 883.334900,74.803940 
	C889.522278,74.803940 895.455750,74.803940 901.476929,74.803940 
	C901.575195,68.832901 900.177979,64.162048 894.483643,61.853107 
	C889.971924,60.023685 885.939636,61.016113 882.496216,64.219543 
	C878.511475,67.926590 877.663940,76.394142 880.567078,81.504646 
	C883.172607,86.091309 888.093628,87.785126 895.225220,86.076553 
M977.587463,75.615784 
	C977.597656,74.617325 977.559204,73.615593 977.626099,72.620941 
	C978.000244,67.053368 980.217468,64.357315 984.408752,64.610512 
	C989.608154,64.924622 989.646667,68.773125 989.642273,72.586914 
	C989.636780,77.336220 989.640930,82.085548 989.640930,86.834862 
	C990.102539,87.080246 990.564087,87.325638 991.025696,87.571022 
	C991.878113,86.661133 993.436523,85.774330 993.467102,84.837555 
	C993.651794,79.188416 993.788147,73.504356 993.350037,67.877968 
	C992.945068,62.678562 987.845581,59.743977 982.677551,61.336929 
	C981.118408,61.817539 979.692627,62.731068 978.658569,63.228477 
	C977.081543,62.297371 975.683228,61.471786 973.847107,60.387741 
	C973.847107,69.850151 973.847107,78.288231 973.847107,86.726311 
	C974.287659,86.990036 974.728210,87.253769 975.168762,87.517502 
	C975.974854,86.363777 977.290344,85.286987 977.478638,84.039955 
	C977.847290,81.598648 977.587280,79.062393 977.587463,75.615784 
M784.237244,70.560387 
	C784.237427,75.044975 784.339050,79.532631 784.203613,84.013123 
	C784.105652,87.254234 785.532654,87.600899 788.430542,86.465820 
	C788.430542,81.144867 788.234924,75.828056 788.495056,70.533623 
	C788.688538,66.594650 791.270569,64.545692 795.146606,64.634972 
	C799.265991,64.729858 800.287476,67.550690 800.245544,71.129028 
	C800.194946,75.446915 800.342834,79.769318 800.203735,84.083275 
	C800.095032,87.453362 801.682373,87.470711 804.216614,86.577354 
	C804.216614,80.738930 804.340515,75.092308 804.184937,69.453400 
	C803.995422,62.586876 798.373108,59.102654 792.073181,61.828491 
	C790.771606,62.391647 789.565735,63.176243 789.543640,63.188316 
	C787.432800,62.092392 786.173218,61.438465 784.237244,60.433334 
	C784.237244,64.288673 784.237244,66.936638 784.237244,70.560387 
M946.504761,79.819160 
	C949.923828,86.500984 956.341614,88.826057 962.595764,85.648758 
	C968.213257,82.794907 970.505676,73.764740 967.285889,67.173111 
	C964.577454,61.628273 957.789856,59.398605 951.935730,62.130600 
	C946.572266,64.633583 944.741150,70.070381 946.504761,79.819160 
M937.022888,68.398727 
	C938.271240,68.326561 939.519653,68.254395 941.041443,68.166428 
	C938.047058,61.120216 930.547302,58.881100 925.107971,62.710690 
	C920.918213,65.660515 921.129578,71.430923 925.694641,73.738029 
	C927.879272,74.842087 930.399780,75.272202 932.751587,76.057236 
	C934.993286,76.805489 938.649109,77.008896 937.343872,80.315025 
	C936.707825,81.925941 933.140320,82.964912 930.823486,83.119720 
	C929.295532,83.221825 927.653137,81.251495 926.021179,80.277596 
	C924.831177,79.567482 923.574585,78.969154 922.347656,78.320976 
	C924.288757,86.931419 932.998718,89.570869 938.999939,84.803131 
	C943.583313,81.161819 942.649597,75.126472 937.104370,73.013077 
	C934.945496,72.190292 932.528870,71.952896 930.493103,70.926346 
	C928.840393,70.092926 927.581482,68.478546 926.147949,67.210495 
	C928.101868,66.336662 930.054871,64.800781 932.010071,64.797829 
	C933.583130,64.795456 935.158936,66.647705 937.022888,68.398727 
M811.138489,83.177864 
	C815.516846,87.399475 821.574890,88.561592 825.989746,85.284866 
	C827.857727,83.898430 829.705505,80.963585 829.580322,78.849899 
	C829.460266,76.823685 827.097839,74.462952 825.122925,73.145561 
	C823.154724,71.832603 820.315491,71.903351 818.102417,70.852829 
	C816.561768,70.121506 815.433594,68.521248 814.121155,67.309166 
	C815.718445,66.387802 817.328613,64.713753 818.909607,64.740860 
	C820.770569,64.772781 822.606506,66.278755 824.452698,67.146805 
	C825.678528,67.723114 826.903320,68.301628 829.118286,69.345695 
	C826.364807,60.898777 817.298645,58.519741 812.239136,63.419975 
	C808.888733,66.664871 809.533630,71.765984 813.801514,73.800964 
	C816.161316,74.926140 818.973511,75.107231 821.323975,76.245972 
	C822.998596,77.057320 824.243652,78.755417 825.680420,80.057747 
	C823.852966,81.187927 822.055359,83.152748 820.190002,83.219337 
	C818.228027,83.289375 816.167908,81.605881 814.215759,80.566429 
	C813.120056,79.982994 812.156006,79.152344 811.132690,78.433067 
	C811.012634,79.788544 810.892639,81.144012 811.138489,83.177864 
M907.070862,78.440094 
	C907.071106,80.271812 907.166138,82.109543 907.050537,83.933922 
	C906.851013,87.083473 908.266479,87.551338 911.134460,86.545860 
	C911.134460,81.403831 910.919556,76.415306 911.204346,71.455482 
	C911.422058,67.663757 912.172729,63.914391 917.658203,64.813461 
	C918.428406,64.939705 919.426208,63.677467 920.528503,62.912254 
	C915.979431,58.638779 911.288086,64.866554 907.070862,59.958939 
	C907.070862,66.823006 907.070862,72.138451 907.070862,78.440094 
M840.291443,62.123287 
	C835.781311,61.106663 835.712952,63.491905 836.581604,66.672501 
	C840.705872,68.086487 841.359375,66.025734 840.291443,62.123287 
M840.865479,86.239494 
	C841.432190,82.532631 840.278992,80.934288 836.477539,82.447212 
	C835.611877,85.949196 836.346191,87.858910 840.865479,86.239494 
z"/>
<path fill="#FEFEFE" opacity="1.000000" stroke="none" 
	d="
M17.137331,14.999905 
	C147.919083,14.999896 278.215424,14.999896 408.755798,14.999896 
	C408.755798,53.709358 408.755798,92.113884 408.755798,130.759491 
	C276.950897,130.759491 145.214554,130.759491 13.000073,130.759491 
	C13.000073,129.744873 13.000074,128.801529 13.000073,127.858192 
	C13.000014,91.692322 13.012513,55.526436 12.973959,19.360609 
	C12.971143,16.719280 12.687798,14.153088 17.137331,14.999905 
M175.420700,82.963066 
	C170.590500,82.998924 166.591385,81.844574 164.821655,76.571465 
	C164.547623,75.754929 162.525848,75.524963 160.929123,74.865479 
	C161.713242,84.453880 170.065094,89.138893 179.562927,86.274597 
	C184.700912,84.725113 187.798767,81.256271 187.700409,76.847435 
	C187.585220,71.684486 184.234802,69.235519 179.731354,67.936104 
	C176.230911,66.926079 172.611435,66.246536 169.222153,64.954910 
	C165.362976,63.484222 165.004669,59.561356 168.265945,57.269470 
	C172.070450,54.595818 179.318344,56.078667 182.063736,59.809155 
	C182.895050,60.938763 184.606308,61.420784 186.843399,62.752281 
	C184.825027,54.045273 178.618637,50.554710 170.759766,52.275043 
	C165.290512,53.472282 162.094315,56.609970 161.992981,61.023994 
	C161.869125,66.418327 165.606766,68.503487 169.934738,69.879639 
	C173.245590,70.932396 176.778183,71.405083 179.934921,72.774757 
	C181.472153,73.441757 183.378616,75.618622 183.309555,77.023087 
	C183.225204,78.738609 181.449997,80.583191 180.000320,81.937828 
	C179.163635,82.719666 177.526825,82.645248 175.420700,82.963066 
M250.661835,86.992195 
	C251.548599,86.221687 253.195160,85.463142 253.207504,84.678871 
	C253.377365,73.893677 253.322144,63.104935 253.322144,52.208862 
	C252.018753,52.208862 250.232712,52.103069 250.217178,52.224216 
	C249.730377,56.022160 249.415939,59.842205 249.064590,63.777821 
	C242.270813,59.603909 235.919281,60.738998 233.695770,66.989777 
	C232.478485,70.411873 232.150269,74.563744 232.784912,78.144859 
	C234.100113,85.566483 240.465836,88.501083 247.498215,85.761536 
	C248.114975,85.521278 249.118683,86.274323 250.661835,86.992195 
M277.665924,63.708820 
	C271.936157,60.121380 267.230560,60.106167 263.044464,63.661564 
	C259.017700,67.081619 257.615906,74.684486 259.978363,80.290810 
	C261.880219,84.804085 266.538361,87.578636 271.656128,86.962128 
	C276.433472,86.386620 279.890991,84.086914 281.376312,77.752899 
	C279.199097,78.605820 277.389832,78.734924 276.799316,79.650284 
	C274.693451,82.914551 271.984802,84.141006 268.338745,83.014732 
	C264.667328,81.880615 263.339691,79.051361 263.146423,74.877945 
	C269.371948,74.877945 275.410767,74.877945 282.800964,74.877945 
	C281.002472,70.688751 279.613373,67.453041 277.665924,63.708820 
M101.586670,82.219696 
	C101.639130,78.558937 101.634918,74.896255 101.758995,71.237923 
	C101.900475,67.066574 104.116959,64.648003 108.302292,64.640450 
	C112.767387,64.632393 113.650009,67.789978 113.642471,71.481453 
	C113.632065,76.582237 113.639862,81.683060 113.639862,86.783859 
	C114.153694,87.049072 114.667534,87.314278 115.181366,87.579483 
	C115.982300,86.533707 117.425102,85.517555 117.474960,84.437111 
	C117.712662,79.287041 117.777199,74.108971 117.513641,68.960815 
	C117.185402,62.549347 111.880951,59.336445 105.830490,61.653160 
	C104.496521,62.163933 103.243996,62.887436 102.878960,63.064445 
	C100.853836,62.020531 99.557861,61.352474 97.810509,60.451748 
	C97.810509,69.807083 97.810509,78.247993 97.810509,86.640381 
	C101.734093,88.097862 101.727142,85.685646 101.586670,82.219696 
M139.888672,63.491924 
	C135.923126,60.537842 131.479523,59.915058 127.284431,62.302803 
	C125.446213,63.349072 123.576889,66.107811 123.567581,68.097580 
	C123.558487,70.043182 125.538361,72.477158 127.310547,73.816017 
	C129.049911,75.130081 131.639297,75.298111 133.832230,76.038490 
	C136.060654,76.790863 139.740875,76.933174 138.508194,80.247780 
	C137.910873,81.853951 134.352066,82.945366 132.045822,83.122757 
	C130.513916,83.240593 128.836502,81.309669 127.204071,80.329376 
	C126.010002,79.612328 124.783134,78.949913 123.570892,78.263138 
	C125.381523,87.010414 134.561157,89.678192 140.455002,84.562370 
	C144.511688,81.041191 143.763824,75.271332 138.841949,73.224007 
	C136.409714,72.212296 133.655807,71.944305 131.277756,70.842621 
	C129.736725,70.128700 128.612061,68.516045 127.300819,67.306091 
	C128.903397,66.390091 130.521179,64.721817 132.104568,64.753845 
	C133.966614,64.791512 135.796082,66.310219 137.644928,67.175385 
	C138.874252,67.750641 140.112793,68.306129 141.347214,68.870468 
	C141.570816,68.434433 141.794418,67.998390 142.018021,67.562347 
	C141.469589,66.399857 140.921158,65.237373 139.888672,63.491924 
M291.056122,79.523232 
	C291.121185,76.530037 291.014801,73.520752 291.293762,70.547630 
	C291.662109,66.621475 294.074982,64.543350 297.981537,64.642311 
	C302.116913,64.747078 303.135712,67.551048 303.087311,71.144234 
	C303.028992,75.470543 303.164368,79.800652 303.048370,84.124619 
	C302.954865,87.609413 304.601074,87.429451 307.056061,86.448051 
	C307.056061,81.230217 307.056183,76.244331 307.055878,71.258446 
	C307.055817,70.592735 307.082733,69.925484 307.047577,69.261566 
	C306.708221,62.853748 301.608368,59.371487 295.625061,61.550144 
	C294.094360,62.107502 292.698730,63.035919 292.180389,63.305428 
	C290.424927,62.231739 289.137085,61.444042 287.077759,60.184505 
	C287.077759,69.114189 286.972229,76.759163 287.202240,84.394028 
	C287.233337,85.426727 288.948792,86.408691 289.884308,87.414154 
	C290.274902,87.076912 290.665497,86.739677 291.056091,86.402443 
	C291.056091,84.426033 291.056091,82.449631 291.056122,79.523232 
M227.046539,81.330444 
	C227.046539,74.717636 227.046539,68.104836 227.046539,61.447617 
	C224.096649,60.427032 222.823669,60.947987 222.903931,64.104759 
	C223.021912,68.745079 223.055069,73.416580 222.644806,78.032166 
	C222.313782,81.756218 219.570404,83.474861 216.000793,83.360466 
	C212.203217,83.238770 211.026917,80.657227 211.043869,77.233833 
	C211.070007,71.956139 211.050751,66.678230 211.050751,61.400414 
	C210.642014,61.085178 210.233276,60.769947 209.824524,60.454712 
	C208.869049,61.375851 207.121063,62.269810 207.088394,63.222584 
	C206.895172,68.857498 206.801758,74.530403 207.259567,80.142830 
	C207.674789,85.233276 212.999512,88.266960 217.989685,86.597549 
	C219.676865,86.033112 221.184723,84.932655 222.229782,84.370300 
	C223.619278,85.479057 224.850708,86.461685 227.046539,88.213860 
	C227.046539,85.224350 227.046539,83.751984 227.046539,81.330444 
M314.716980,55.708614 
	C314.692963,56.040497 314.783447,56.443623 314.627899,56.693649 
	C312.015167,60.892735 313.259277,64.928696 314.461945,69.309807 
	C315.354370,72.560692 314.608673,76.253593 314.643982,79.749092 
	C314.708740,86.154587 316.080322,87.299934 324.298279,86.589691 
	C315.741852,80.629089 319.201813,72.598434 318.732330,66.001945 
	C320.392365,64.509697 321.562531,63.457802 322.732727,62.405907 
	C321.451965,61.678165 320.171234,60.950424 318.525757,60.015446 
	C318.525757,58.281521 318.525757,56.160126 318.525757,53.520153 
	C317.121368,54.175621 316.131714,54.637527 314.716980,55.708614 
M198.351608,54.880848 
	C197.917892,54.561909 197.484177,54.242966 197.050461,53.924023 
	C195.124268,56.929855 193.169083,59.918324 191.334641,62.979153 
	C191.207397,63.191479 192.037888,63.910442 192.319199,64.448112 
	C193.046432,65.838112 194.197693,67.220322 194.312912,68.674316 
	C194.600876,72.308105 194.370529,75.980469 194.416336,79.636497 
	C194.500046,86.316399 196.379150,87.787491 204.105072,86.184288 
	C194.954819,80.712189 199.397919,72.488487 198.409866,66.081184 
	C200.166565,64.555992 201.364548,63.515884 202.562546,62.475784 
	C201.213852,61.653576 199.865158,60.831364 198.362030,59.915009 
	C198.362030,58.612625 198.362030,57.118595 198.351608,54.880848 
M154.069046,65.373184 
	C154.569275,61.421108 152.387650,61.587940 149.652786,62.284870 
	C149.652786,63.946960 149.652786,65.348335 149.652786,67.355118 
	C151.345749,66.922661 152.673096,66.583603 154.069046,65.373184 
M149.474396,86.183556 
	C150.893921,86.489616 152.313431,86.795670 154.149643,87.191566 
	C154.006577,84.982445 153.915222,83.571785 153.830612,82.265320 
	C150.763535,81.455811 148.866959,81.823174 149.474396,86.183556 
z"/>
<path fill="#FBFBFB" opacity="1.000000" stroke="none" 
	d="
M664.683960,81.710533 
	C660.663513,83.695084 656.974487,85.506279 652.828003,87.542046 
	C652.828003,77.794258 652.828003,68.574417 652.828003,58.438023 
	C662.417480,63.210213 671.754211,67.856636 682.011475,72.961174 
	C675.810425,76.090149 670.412842,78.813667 664.683960,81.710533 
z"/>
<path fill="#070707" opacity="1.000000" stroke="none" 
	d="
M853.163452,84.824249 
	C852.073669,86.048088 850.986755,86.795311 849.126587,88.074135 
	C849.126587,75.393631 849.126587,63.981064 849.126587,52.295654 
	C854.788757,52.295654 860.593811,51.882008 866.310303,52.415825 
	C871.673889,52.916687 874.598999,56.710625 874.787781,61.865959 
	C874.984924,67.247475 872.133911,71.173012 866.848755,72.352760 
	C864.603882,72.853882 862.240662,72.881622 859.924866,72.991364 
	C857.806274,73.091759 855.679199,73.012665 853.166382,73.012665 
	C853.166382,77.093735 853.166382,80.720688 853.163452,84.824249 
M861.273804,68.998909 
	C862.760620,68.929756 864.316895,69.118179 865.720459,68.740021 
	C869.061584,67.839874 871.069824,65.289833 870.132080,62.072433 
	C869.471985,59.807762 867.369873,56.801365 865.388611,56.331543 
	C861.549561,55.421165 857.341858,56.065418 853.353394,56.065418 
	C853.353394,60.681694 853.353394,64.605873 853.353394,68.998947 
	C855.817749,68.998947 858.088684,68.998947 861.273804,68.998909 
z"/>
<path fill="#111111" opacity="1.000000" stroke="none" 
	d="
M894.841553,86.181198 
	C888.093628,87.785126 883.172607,86.091309 880.567078,81.504646 
	C877.663940,76.394142 878.511475,67.926590 882.496216,64.219543 
	C885.939636,61.016113 889.971924,60.023685 894.483643,61.853107 
	C900.177979,64.162048 901.575195,68.832901 901.476929,74.803940 
	C895.455750,74.803940 889.522278,74.803940 883.334900,74.803940 
	C883.106873,78.927391 884.555786,81.658806 888.040283,82.918678 
	C891.587585,84.201256 894.436829,83.142174 896.661865,79.892479 
	C897.342468,78.898354 899.128235,78.660873 900.407898,78.076874 
	C900.839417,78.721252 901.270996,79.365631 901.702515,80.010010 
	C899.543457,82.032188 897.384338,84.054375 894.841553,86.181198 
M883.595093,69.158722 
	C884.177490,69.977180 884.721802,71.468666 885.348511,71.504128 
	C889.219238,71.723061 893.108521,71.614098 896.991638,71.614098 
	C897.321350,71.078667 897.651123,70.543236 897.980835,70.007805 
	C896.196106,68.283295 894.695496,65.891388 892.563049,64.983818 
	C888.967773,63.453598 885.850220,64.985184 883.595093,69.158722 
z"/>
<path fill="#1B1B1B" opacity="1.000000" stroke="none" 
	d="
M977.587463,76.090607 
	C977.587280,79.062393 977.847290,81.598648 977.478638,84.039955 
	C977.290344,85.286987 975.974854,86.363777 975.168762,87.517502 
	C974.728210,87.253769 974.287659,86.990036 973.847107,86.726311 
	C973.847107,78.288231 973.847107,69.850151 973.847107,60.387741 
	C975.683228,61.471786 977.081543,62.297371 978.658569,63.228477 
	C979.692627,62.731068 981.118408,61.817539 982.677551,61.336929 
	C987.845581,59.743977 992.945068,62.678562 993.350037,67.877968 
	C993.788147,73.504356 993.651794,79.188416 993.467102,84.837555 
	C993.436523,85.774330 991.878113,86.661133 991.025696,87.571022 
	C990.564087,87.325638 990.102539,87.080246 989.640930,86.834862 
	C989.640930,82.085548 989.636780,77.336220 989.642273,72.586914 
	C989.646667,68.773125 989.608154,64.924622 984.408752,64.610512 
	C980.217468,64.357315 978.000244,67.053368 977.626099,72.620941 
	C977.559204,73.615593 977.597656,74.617325 977.587463,76.090607 
z"/>
<path fill="#1B1B1B" opacity="1.000000" stroke="none" 
	d="
M784.237244,70.072495 
	C784.237244,66.936638 784.237244,64.288673 784.237244,60.433334 
	C786.173218,61.438465 787.432800,62.092392 789.543640,63.188316 
	C789.565735,63.176243 790.771606,62.391647 792.073181,61.828491 
	C798.373108,59.102654 803.995422,62.586876 804.184937,69.453400 
	C804.340515,75.092308 804.216614,80.738930 804.216614,86.577354 
	C801.682373,87.470711 800.095032,87.453362 800.203735,84.083275 
	C800.342834,79.769318 800.194946,75.446915 800.245544,71.129028 
	C800.287476,67.550690 799.265991,64.729858 795.146606,64.634972 
	C791.270569,64.545692 788.688538,66.594650 788.495056,70.533623 
	C788.234924,75.828056 788.430542,81.144867 788.430542,86.465820 
	C785.532654,87.600899 784.105652,87.254234 784.203613,84.013123 
	C784.339050,79.532631 784.237427,75.044975 784.237244,70.072495 
z"/>
<path fill="#131313" opacity="1.000000" stroke="none" 
	d="
M946.363281,79.457550 
	C944.741150,70.070381 946.572266,64.633583 951.935730,62.130600 
	C957.789856,59.398605 964.577454,61.628273 967.285889,67.173111 
	C970.505676,73.764740 968.213257,82.794907 962.595764,85.648758 
	C956.341614,88.826057 949.923828,86.500984 946.363281,79.457550 
M964.080383,70.087311 
	C962.591980,65.564789 959.489319,63.745724 954.903564,64.967110 
	C950.732605,66.078003 948.947266,70.401161 949.825745,76.503357 
	C950.422241,80.647026 952.700073,83.262482 956.917542,83.411613 
	C960.620728,83.542564 963.299316,81.560081 964.010925,77.810455 
	C964.433899,75.581604 964.207581,73.229530 964.080383,70.087311 
z"/>
<path fill="#151515" opacity="1.000000" stroke="none" 
	d="
M936.878174,68.037888 
	C935.158936,66.647705 933.583130,64.795456 932.010071,64.797829 
	C930.054871,64.800781 928.101868,66.336662 926.147949,67.210510 
	C927.581482,68.478546 928.840393,70.092926 930.493103,70.926346 
	C932.528870,71.952896 934.945496,72.190292 937.104370,73.013077 
	C942.649597,75.126472 943.583313,81.161819 938.999939,84.803131 
	C932.998718,89.570869 924.288757,86.931419 922.347656,78.320976 
	C923.574585,78.969154 924.831177,79.567482 926.021179,80.277596 
	C927.653137,81.251495 929.295532,83.221825 930.823486,83.119720 
	C933.140320,82.964912 936.707825,81.925941 937.343872,80.315025 
	C938.649109,77.008896 934.993286,76.805489 932.751587,76.057236 
	C930.399780,75.272202 927.879272,74.842087 925.694641,73.738029 
	C921.129578,71.430923 920.918213,65.660515 925.107971,62.710690 
	C930.547302,58.881100 938.047058,61.120216 941.041443,68.166428 
	C939.519653,68.254395 938.271240,68.326561 936.878174,68.037888 
z"/>
<path fill="#151515" opacity="1.000000" stroke="none" 
	d="
M810.955566,82.838669 
	C810.892639,81.144012 811.012634,79.788544 811.132690,78.433075 
	C812.156006,79.152344 813.120056,79.982994 814.215759,80.566429 
	C816.167908,81.605881 818.228027,83.289375 820.190002,83.219337 
	C822.055359,83.152748 823.852966,81.187927 825.680420,80.057762 
	C824.243652,78.755417 822.998596,77.057320 821.323975,76.245972 
	C818.973511,75.107231 816.161316,74.926140 813.801514,73.800964 
	C809.533630,71.765984 808.888733,66.664871 812.239136,63.419975 
	C817.298645,58.519741 826.364807,60.898777 829.118286,69.345695 
	C826.903320,68.301628 825.678528,67.723114 824.452698,67.146805 
	C822.606506,66.278755 820.770569,64.772781 818.909607,64.740860 
	C817.328613,64.713753 815.718445,66.387802 814.121155,67.309158 
	C815.433594,68.521248 816.561768,70.121506 818.102417,70.852829 
	C820.315491,71.903351 823.154724,71.832603 825.122925,73.145561 
	C827.097839,74.462952 829.460266,76.823685 829.580322,78.849899 
	C829.705505,80.963585 827.857727,83.898430 825.989746,85.284866 
	C821.574890,88.561592 815.516846,87.399475 810.955566,82.838669 
z"/>
<path fill="#1D1D1D" opacity="1.000000" stroke="none" 
	d="
M907.070862,77.946991 
	C907.070862,72.138451 907.070862,66.823006 907.070862,59.958939 
	C911.288086,64.866554 915.979431,58.638779 920.528503,62.912254 
	C919.426208,63.677467 918.428406,64.939705 917.658203,64.813461 
	C912.172729,63.914391 911.422058,67.663757 911.204346,71.455482 
	C910.919556,76.415306 911.134460,81.403831 911.134460,86.545860 
	C908.266479,87.551338 906.851013,87.083473 907.050537,83.933922 
	C907.166138,82.109543 907.071106,80.271812 907.070862,77.946991 
z"/>
<path fill="#232323" opacity="1.000000" stroke="none" 
	d="
M840.579102,62.449516 
	C841.359375,66.025734 840.705872,68.086487 836.581604,66.672501 
	C835.712952,63.491905 835.781311,61.106663 840.579102,62.449516 
z"/>
<path fill="#232323" opacity="1.000000" stroke="none" 
	d="
M840.572021,86.560135 
	C836.346191,87.858910 835.611877,85.949196 836.477539,82.447212 
	C840.278992,80.934288 841.432190,82.532631 840.572021,86.560135 
z"/>
<path fill="#131313" opacity="1.000000" stroke="none" 
	d="
M175.835419,82.959641 
	C177.526825,82.645248 179.163635,82.719666 180.000320,81.937828 
	C181.449997,80.583191 183.225204,78.738609 183.309555,77.023087 
	C183.378616,75.618622 181.472153,73.441757 179.934921,72.774757 
	C176.778183,71.405083 173.245590,70.932396 169.934738,69.879639 
	C165.606766,68.503487 161.869125,66.418327 161.992981,61.023994 
	C162.094315,56.609970 165.290512,53.472282 170.759766,52.275043 
	C178.618637,50.554710 184.825027,54.045273 186.843399,62.752281 
	C184.606308,61.420784 182.895050,60.938763 182.063736,59.809155 
	C179.318344,56.078667 172.070450,54.595818 168.265945,57.269470 
	C165.004669,59.561356 165.362976,63.484222 169.222153,64.954910 
	C172.611435,66.246536 176.230911,66.926079 179.731354,67.936104 
	C184.234802,69.235519 187.585220,71.684486 187.700409,76.847435 
	C187.798767,81.256271 184.700912,84.725113 179.562927,86.274597 
	C170.065094,89.138893 161.713242,84.453880 160.929123,74.865479 
	C162.525848,75.524963 164.547623,75.754929 164.821655,76.571465 
	C166.591385,81.844574 170.590500,82.998924 175.835419,82.959641 
z"/>
<path fill="#0F0F0F" opacity="1.000000" stroke="none" 
	d="
M250.302246,86.779099 
	C249.118683,86.274323 248.114975,85.521278 247.498215,85.761536 
	C240.465836,88.501083 234.100113,85.566483 232.784912,78.144859 
	C232.150269,74.563744 232.478485,70.411873 233.695770,66.989777 
	C235.919281,60.738998 242.270813,59.603909 249.064590,63.777821 
	C249.415939,59.842205 249.730377,56.022160 250.217178,52.224216 
	C250.232712,52.103069 252.018753,52.208862 253.322144,52.208862 
	C253.322144,63.104935 253.377365,73.893677 253.207504,84.678871 
	C253.195160,85.463142 251.548599,86.221687 250.302246,86.779099 
M248.716095,80.036430 
	C249.062424,78.931648 249.637833,77.842445 249.714233,76.719299 
	C249.998444,72.541397 250.432663,67.950768 246.132553,65.616913 
	C244.367035,64.658691 240.933990,64.795372 239.314285,65.934196 
	C235.227661,68.807556 235.646790,73.495674 236.646255,77.764969 
	C238.067123,83.834282 243.288040,85.062172 248.716095,80.036430 
z"/>
<path fill="#111111" opacity="1.000000" stroke="none" 
	d="
M277.945068,63.963074 
	C279.613373,67.453041 281.002472,70.688751 282.800964,74.877945 
	C275.410767,74.877945 269.371948,74.877945 263.146423,74.877945 
	C263.339691,79.051361 264.667328,81.880615 268.338745,83.014732 
	C271.984802,84.141006 274.693451,82.914551 276.799316,79.650284 
	C277.389832,78.734924 279.199097,78.605820 281.376312,77.752899 
	C279.890991,84.086914 276.433472,86.386620 271.656128,86.962128 
	C266.538361,87.578636 261.880219,84.804085 259.978363,80.290810 
	C257.615906,74.684486 259.017700,67.081619 263.044464,63.661564 
	C267.230560,60.106167 271.936157,60.121380 277.945068,63.963074 
M266.292603,65.671913 
	C265.136444,67.275810 263.980316,68.879715 262.234924,71.301056 
	C268.013733,71.301056 272.478577,71.301056 276.981323,71.301056 
	C276.232483,65.204773 273.463806,63.622181 266.292603,65.671913 
z"/>
<path fill="#1B1B1B" opacity="1.000000" stroke="none" 
	d="
M101.586624,82.678680 
	C101.727142,85.685646 101.734093,88.097862 97.810509,86.640381 
	C97.810509,78.247993 97.810509,69.807083 97.810509,60.451748 
	C99.557861,61.352474 100.853836,62.020531 102.878960,63.064445 
	C103.243996,62.887436 104.496521,62.163933 105.830490,61.653160 
	C111.880951,59.336445 117.185402,62.549347 117.513641,68.960815 
	C117.777199,74.108971 117.712662,79.287041 117.474960,84.437111 
	C117.425102,85.517555 115.982300,86.533707 115.181366,87.579483 
	C114.667534,87.314278 114.153694,87.049072 113.639862,86.783859 
	C113.639862,81.683060 113.632065,76.582237 113.642471,71.481453 
	C113.650009,67.789978 112.767387,64.632393 108.302292,64.640450 
	C104.116959,64.648003 101.900475,67.066574 101.758995,71.237923 
	C101.634918,74.896255 101.639130,78.558937 101.586624,82.678680 
z"/>
<path fill="#171717" opacity="1.000000" stroke="none" 
	d="
M140.130707,63.783409 
	C140.921158,65.237373 141.469589,66.399857 142.018021,67.562347 
	C141.794418,67.998390 141.570816,68.434433 141.347214,68.870468 
	C140.112793,68.306129 138.874252,67.750641 137.644928,67.175385 
	C135.796082,66.310219 133.966614,64.791512 132.104568,64.753845 
	C130.521179,64.721817 128.903397,66.390091 127.300827,67.306091 
	C128.612061,68.516045 129.736725,70.128700 131.277756,70.842621 
	C133.655807,71.944305 136.409714,72.212296 138.841949,73.224007 
	C143.763824,75.271332 144.511688,81.041191 140.455002,84.562370 
	C134.561157,89.678192 125.381523,87.010414 123.570892,78.263138 
	C124.783134,78.949913 126.010002,79.612328 127.204071,80.329376 
	C128.836502,81.309669 130.513916,83.240593 132.045822,83.122757 
	C134.352066,82.945366 137.910873,81.853951 138.508194,80.247780 
	C139.740875,76.933174 136.060654,76.790863 133.832230,76.038490 
	C131.639297,75.298111 129.049911,75.130081 127.310547,73.816017 
	C125.538361,72.477158 123.558487,70.043182 123.567581,68.097580 
	C123.576889,66.107811 125.446213,63.349072 127.284431,62.302803 
	C131.479523,59.915058 135.923126,60.537842 140.130707,63.783409 
z"/>
<path fill="#1C1C1C" opacity="1.000000" stroke="none" 
	d="
M291.056091,79.998230 
	C291.056091,82.449631 291.056091,84.426033 291.056091,86.402443 
	C290.665497,86.739677 290.274902,87.076912 289.884308,87.414154 
	C288.948792,86.408691 287.233337,85.426727 287.202240,84.394028 
	C286.972229,76.759163 287.077759,69.114189 287.077759,60.184505 
	C289.137085,61.444042 290.424927,62.231739 292.180389,63.305428 
	C292.698730,63.035919 294.094360,62.107502 295.625061,61.550144 
	C301.608368,59.371487 306.708221,62.853748 307.047577,69.261566 
	C307.082733,69.925484 307.055817,70.592735 307.055878,71.258446 
	C307.056183,76.244331 307.056061,81.230217 307.056061,86.448051 
	C304.601074,87.429451 302.954865,87.609413 303.048370,84.124619 
	C303.164368,79.800652 303.028992,75.470543 303.087311,71.144234 
	C303.135712,67.551048 302.116913,64.747078 297.981537,64.642311 
	C294.074982,64.543350 291.662109,66.621475 291.293762,70.547630 
	C291.014801,73.520752 291.121185,76.530037 291.056091,79.998230 
z"/>
<path fill="#191919" opacity="1.000000" stroke="none" 
	d="
M227.046539,81.805031 
	C227.046539,83.751984 227.046539,85.224350 227.046539,88.213860 
	C224.850708,86.461685 223.619278,85.479057 222.229782,84.370300 
	C221.184723,84.932655 219.676865,86.033112 217.989685,86.597549 
	C212.999512,88.266960 207.674789,85.233276 207.259567,80.142830 
	C206.801758,74.530403 206.895172,68.857498 207.088394,63.222584 
	C207.121063,62.269810 208.869049,61.375851 209.824524,60.454712 
	C210.233276,60.769947 210.642014,61.085178 211.050751,61.400414 
	C211.050751,66.678230 211.070007,71.956139 211.043869,77.233833 
	C211.026917,80.657227 212.203217,83.238770 216.000793,83.360466 
	C219.570404,83.474861 222.313782,81.756218 222.644806,78.032166 
	C223.055069,73.416580 223.021912,68.745079 222.903931,64.104759 
	C222.823669,60.947987 224.096649,60.427032 227.046539,61.447617 
	C227.046539,68.104836 227.046539,74.717636 227.046539,81.805031 
z"/>
<path fill="#1C1C1C" opacity="1.000000" stroke="none" 
	d="
M314.929504,55.404022 
	C316.131714,54.637527 317.121368,54.175621 318.525757,53.520153 
	C318.525757,56.160126 318.525757,58.281521 318.525757,60.015446 
	C320.171234,60.950424 321.451965,61.678165 322.732727,62.405907 
	C321.562531,63.457802 320.392365,64.509697 318.732330,66.001945 
	C319.201813,72.598434 315.741852,80.629089 324.298279,86.589691 
	C316.080322,87.299934 314.708740,86.154587 314.643982,79.749092 
	C314.608673,76.253593 315.354370,72.560692 314.461945,69.309807 
	C313.259277,64.928696 312.015167,60.892735 314.627899,56.693649 
	C314.783447,56.443623 314.692963,56.040497 314.929504,55.404022 
z"/>
<path fill="#1C1C1C" opacity="1.000000" stroke="none" 
	d="
M198.356812,55.252708 
	C198.362030,57.118595 198.362030,58.612625 198.362030,59.915009 
	C199.865158,60.831364 201.213852,61.653576 202.562546,62.475780 
	C201.364548,63.515884 200.166565,64.555992 198.409866,66.081184 
	C199.397919,72.488487 194.954819,80.712189 204.105072,86.184288 
	C196.379150,87.787491 194.500046,86.316399 194.416336,79.636497 
	C194.370529,75.980469 194.600876,72.308105 194.312912,68.674316 
	C194.197693,67.220322 193.046432,65.838112 192.319199,64.448112 
	C192.037888,63.910442 191.207397,63.191479 191.334641,62.979153 
	C193.169083,59.918324 195.124268,56.929855 197.050461,53.924023 
	C197.484177,54.242966 197.917892,54.561909 198.356812,55.252708 
z"/>
<path fill="#232323" opacity="1.000000" stroke="none" 
	d="
M154.034760,65.808861 
	C152.673096,66.583603 151.345749,66.922661 149.652786,67.355118 
	C149.652786,65.348335 149.652786,63.946960 149.652786,62.284870 
	C152.387650,61.587940 154.569275,61.421108 154.034760,65.808861 
z"/>
<path fill="#232323" opacity="1.000000" stroke="none" 
	d="
M149.433014,85.762405 
	C148.866959,81.823174 150.763535,81.455811 153.830612,82.265320 
	C153.915222,83.571785 154.006577,84.982445 154.149643,87.191566 
	C152.313431,86.795670 150.893921,86.489616 149.433014,85.762405 
z"/>
<path fill="#F8F8F8" opacity="1.000000" stroke="none" 
	d="
M860.816650,68.998932 
	C858.088684,68.998947 855.817749,68.998947 853.353394,68.998947 
	C853.353394,64.605873 853.353394,60.681694 853.353394,56.065418 
	C857.341858,56.065418 861.549561,55.421165 865.388611,56.331543 
	C867.369873,56.801365 869.471985,59.807762 870.132080,62.072433 
	C871.069824,65.289833 869.061584,67.839874 865.720459,68.740021 
	C864.316895,69.118179 862.760620,68.929756 860.816650,68.998932 
z"/>
<path fill="#E0E0E0" opacity="1.000000" stroke="none" 
	d="
M883.732788,68.809952 
	C885.850220,64.985184 888.967773,63.453598 892.563049,64.983818 
	C894.695496,65.891388 896.196106,68.283295 897.980835,70.007805 
	C897.651123,70.543236 897.321350,71.078667 896.991638,71.614098 
	C893.108521,71.614098 889.219238,71.723061 885.348511,71.504128 
	C884.721802,71.468666 884.177490,69.977180 883.732788,68.809952 
z"/>
<path fill="#F4F4F4" opacity="1.000000" stroke="none" 
	d="
M964.176758,70.510078 
	C964.207581,73.229530 964.433899,75.581604 964.010925,77.810455 
	C963.299316,81.560081 960.620728,83.542564 956.917542,83.411613 
	C952.700073,83.262482 950.422241,80.647026 949.825745,76.503357 
	C948.947266,70.401161 950.732605,66.078003 954.903564,64.967110 
	C959.489319,63.745724 962.591980,65.564789 964.176758,70.510078 
z"/>
<path fill="#F3F3F3" opacity="1.000000" stroke="none" 
	d="
M248.490906,80.377953 
	C243.288040,85.062172 238.067123,83.834282 236.646255,77.764969 
	C235.646790,73.495674 235.227661,68.807556 239.314285,65.934196 
	C240.933990,64.795372 244.367035,64.658691 246.132553,65.616913 
	C250.432663,67.950768 249.998444,72.541397 249.714233,76.719299 
	C249.637833,77.842445 249.062424,78.931648 248.490906,80.377953 
z"/>
<path fill="#E0E0E0" opacity="1.000000" stroke="none" 
	d="
M266.597351,65.463547 
	C273.463806,63.622181 276.232483,65.204773 276.981323,71.301056 
	C272.478577,71.301056 268.013733,71.301056 262.234924,71.301056 
	C263.980316,68.879715 265.136444,67.275810 266.597351,65.463547 
z"/>
</svg>