<svg version="1.1" id="Layer_1" xmlns="http://www.w3.org/2000/svg" xmlns:xlink="http://www.w3.org/1999/xlink" x="0px" y="0px"
	 width="100%" viewBox="0 0 804 896" enable-background="new 0 0 804 896" xml:space="preserve">
<path fill="none" opacity="1.000000" stroke="#000000" stroke-linecap="round" stroke-linejoin="round" stroke-width="4.000000"
	d="
M760.000000,193.000000 
	C756.488281,188.760742 751.067078,188.084503 746.451904,186.112503 
	C720.551697,175.045685 694.524231,164.274658 668.493896,153.514816 
	C635.685913,139.953430 602.700684,126.811249 570.045166,112.893959 
	C547.090759,103.111122 524.035706,93.582306 501.008789,83.978897 
	C476.041290,73.566147 451.180878,62.903019 426.059723,52.850731 
	C419.159668,50.089657 412.227966,47.240475 405.498138,44.003845 
	C404.010773,43.288506 402.949158,42.984734 400.932678,43.841602 
	C370.196136,56.902668 339.356110,69.721748 308.493774,82.484962 
	C275.688080,96.051842 242.700699,109.188759 210.045197,123.106049 
	C187.090790,132.888885 164.035721,142.417725 141.008804,152.021118 
	C116.041283,162.433853 91.208206,173.163483 66.047661,183.120438 
	C60.167019,185.447632 54.423595,188.206589 48.520668,190.552017 
	C47.486149,190.963074 46.188686,191.522018 46.000000,193.000000 
"/>
<path fill="none" opacity="1.000000" stroke="#000000" stroke-linecap="round" stroke-linejoin="round" stroke-width="4.000000"
	d="
M39.500000,705.000000 
	C46.359215,704.007874 51.268272,708.782715 56.968983,711.077087 
	C84.704262,722.239929 112.476936,733.331482 139.955627,745.103577 
	C162.892548,754.930054 185.964279,764.417725 208.991211,774.021057 
	C233.958694,784.433899 258.858551,795.000122 283.961792,805.095032 
	C307.307495,814.483154 330.304596,824.735107 353.509979,834.476196 
	C369.291046,841.100708 385.197662,847.426941 400.954559,854.107178 
	C402.625366,854.815430 403.372955,854.807617 405.043549,854.103271 
	C435.817413,841.128906 466.643860,828.278198 497.506195,815.515015 
	C530.311890,801.948181 563.299377,788.811279 595.954834,774.893982 
	C618.909241,765.111206 641.964294,755.582336 664.991211,745.978943 
	C689.958740,735.566162 714.848633,724.972595 739.919983,714.802673 
	C746.695129,712.054443 753.916870,709.927734 760.026733,705.537231 
	C761.946777,704.157654 764.345398,705.323242 766.500000,705.000000 
"/>
<path fill="none" opacity="1.000000" stroke="#000000" stroke-linecap="round" stroke-linejoin="round" stroke-width="4.000000"
	d="
M760.000000,705.000000 
	C756.488281,700.760742 751.067078,700.084534 746.451904,698.112549 
	C720.551697,687.045654 694.524231,676.274658 668.493896,665.514832 
	C635.685913,651.953430 602.700684,638.811218 570.045166,624.893921 
	C547.090759,615.111206 524.035706,605.582275 501.008789,595.978943 
	C476.041290,585.566101 451.183472,574.897095 426.052307,564.868958 
	C418.162506,561.720642 410.434723,558.095032 402.500000,555.000000 
	C395.000000,558.333313 387.570709,561.837952 379.986877,564.968201 
	C356.356049,574.721680 332.621826,584.225342 309.012207,594.029419 
	C284.028992,604.403931 259.044342,614.777161 234.066818,625.160706 
	C211.032166,634.736755 188.035721,644.417725 165.008804,654.021118 
	C140.041306,664.433899 115.103149,674.912415 90.067162,685.164001 
	C76.327881,690.789917 62.625664,696.570374 48.988506,702.473450 
	C47.684639,703.037781 46.471966,703.533020 46.000000,705.000000 
"/>
<path fill="none" opacity="1.000000" stroke="#000000" stroke-linecap="round" stroke-linejoin="round" stroke-width="4.000000"
	d="
M39.500000,193.000000 
	C46.359215,192.007843 51.268284,196.782684 56.968979,199.077072 
	C84.704269,210.239883 112.476952,221.331436 139.955612,233.103607 
	C162.892563,242.930069 185.964279,252.417725 208.991196,262.021118 
	C233.958710,272.433868 258.955688,282.777100 283.933167,293.160767 
	C306.967804,302.736786 329.951263,312.448669 352.993011,322.016815 
	C368.030029,328.260986 383.001282,334.663635 397.998230,341.004181 
	C399.712463,341.728943 401.402313,342.511444 402.800995,343.132782 
	C412.891235,338.911835 422.952484,334.722198 432.998474,330.496338 
	C450.004059,323.342957 466.965393,316.083191 484.008759,309.021179 
	C505.138763,300.265961 526.354309,291.717529 547.492798,282.982544 
	C562.196899,276.906433 576.799255,270.584106 591.508057,264.519592 
	C612.997009,255.659561 634.403687,246.603012 655.932495,237.834335 
	C670.170166,232.035370 684.309875,225.944977 698.495544,219.989426 
	C717.846741,211.865280 737.183777,203.706650 756.483337,195.460968 
	C759.727478,194.074875 762.756958,192.194595 766.500000,193.000000 
"/>
<path fill="none" opacity="1.000000" stroke="#000000" stroke-linecap="round" stroke-linejoin="round" stroke-width="4.000000"
	d="
M448.500000,727.000000 
	C446.812744,726.895508 445.978363,725.546082 445.018250,724.483521 
	C441.422058,720.503662 435.087982,718.723999 430.500000,720.500000 
	C425.545380,722.417908 422.001007,727.499756 422.027710,732.999878 
	C422.049683,737.528198 421.432220,742.031128 424.922852,746.066711 
	C431.555908,753.735413 440.918823,752.813721 447.000000,743.500000 
"/>
<path fill="none" opacity="1.000000" stroke="#000000" stroke-linecap="round" stroke-linejoin="round" stroke-width="5.000000"
	d="
M429.000000,165.000000 
	C433.000000,165.000000 437.002930,165.096893 440.999298,164.976669 
	C446.613220,164.807770 450.000000,161.538223 450.000000,156.500000 
	C450.000000,151.210327 446.893372,148.202438 440.999268,148.024399 
	C436.830109,147.898468 432.654144,148.000000 428.000000,148.000000 
	C428.000000,158.661209 428.000000,168.830597 428.000000,179.000000 
"/>
<path fill="none" opacity="1.000000" stroke="#000000" stroke-linecap="round" stroke-linejoin="round" stroke-width="5.000000"
	d="
M383.000000,453.000000 
	C387.000000,453.000000 391.002930,453.096893 394.999298,452.976654 
	C400.613220,452.807770 404.000000,449.538208 404.000000,444.500000 
	C404.000000,439.210327 400.893372,436.202454 394.999268,436.024414 
	C390.830109,435.898499 386.654144,436.000000 382.000000,436.000000 
	C382.000000,446.661194 382.000000,456.830597 382.000000,467.000000 
"/>
<path fill="none" opacity="1.000000" stroke="#000000" stroke-linecap="round" stroke-linejoin="round" stroke-width="5.000000"
	d="
M429.000000,677.000000 
	C433.000000,677.000000 437.002930,677.096863 440.999298,676.976624 
	C446.613220,676.807678 450.000000,673.538208 450.000000,668.500000 
	C450.000000,663.210327 446.893372,660.202454 440.999268,660.024414 
	C436.830109,659.898499 432.654144,660.000000 428.000000,660.000000 
	C428.000000,670.661194 428.000000,680.830627 428.000000,691.000000 
"/>
<path fill="none" opacity="1.000000" stroke="#000000" stroke-linecap="round" stroke-linejoin="round" stroke-width="4.000000"
	d="
M371.500000,221.500000 
	C370.872589,221.088165 370.017365,222.191177 369.337189,220.568237 
	C368.403046,218.339432 365.995026,216.894745 363.492065,216.559158 
	C359.988861,216.089508 355.323456,218.033585 355.053558,221.004868 
	C354.710968,224.776367 357.432861,226.129013 360.499786,227.000793 
	C363.395294,227.823868 366.393860,228.251617 369.022430,229.965591 
	C371.702484,231.713120 371.463776,233.854614 369.965240,235.975449 
	C366.227203,241.265900 359.755890,240.575851 355.000000,234.500000 
"/>
<path fill="none" opacity="1.000000" stroke="#000000" stroke-linecap="round" stroke-linejoin="round" stroke-width="4.000000"
	d="
M280.000000,448.500000 
	C277.523865,445.313293 274.935425,443.611877 270.426697,445.304749 
	C267.760712,446.305725 266.079132,446.938629 265.962219,449.998566 
	C265.823120,453.637726 268.579742,454.133881 271.008240,454.976227 
	C272.799530,455.597473 274.696442,455.911987 276.493164,456.520233 
	C279.338531,457.483521 282.088135,458.959961 281.410461,462.482788 
	C280.679077,466.284851 277.121948,467.407593 274.003784,467.335632 
	C270.481720,467.254425 266.484955,466.689911 265.500000,462.000000 
"/>
<path fill="none" opacity="1.000000" stroke="#000000" stroke-linecap="round" stroke-linejoin="round" stroke-width="4.000000"
	d="
M321.000000,732.500000 
	C316.925079,728.223450 312.695557,727.342224 309.000000,730.000000 
	C305.459656,732.546082 305.600189,735.760864 309.525482,737.954407 
	C311.206482,738.893738 313.120667,739.551270 315.010559,739.949951 
	C317.986145,740.577576 321.188629,740.874695 321.924530,744.515259 
	C322.292236,746.334595 322.118835,748.091736 320.075165,749.601685 
	C316.554657,752.202698 313.051208,751.762695 309.538879,750.399780 
	C308.084473,749.835449 307.023834,748.190430 306.500000,746.500000 
"/>
<path fill="none" opacity="1.000000" stroke="#000000" stroke-linecap="round" stroke-linejoin="round" stroke-width="4.000000"
	d="
M405.500000,673.500000 
	C404.133606,669.752930 400.976959,668.205811 397.518951,668.648193 
	C393.721649,669.134033 390.592560,671.277283 389.470856,675.492249 
	C388.362000,679.659058 388.656738,683.899414 390.626343,687.429504 
	C394.155182,693.754150 402.288025,692.566650 406.000000,685.500000 
"/>
<path fill="none" opacity="1.000000" stroke="#000000" stroke-linecap="round" stroke-linejoin="round" stroke-width="4.000000"
	d="
M405.500000,161.500000 
	C404.133606,157.752914 400.976959,156.205765 397.518951,156.648193 
	C393.721649,157.134033 390.592499,159.277222 389.470825,163.492233 
	C388.361938,167.659042 388.656708,171.899460 390.626312,175.429520 
	C394.155212,181.754105 402.288025,180.566681 406.000000,173.500000 
"/>
<path fill="none" opacity="1.000000" stroke="#000000" stroke-linecap="round" stroke-linejoin="round" stroke-width="4.000000"
	d="
M363.000000,679.000000 
	C370.211609,680.360291 377.887909,679.720581 381.093872,677.433044 
	C379.633270,675.185730 380.010590,672.196594 377.063080,670.396729 
	C371.019958,666.706421 364.235718,669.435974 362.999969,676.500000 
	C361.463287,685.284363 363.157288,688.889526 370.006348,690.979187 
	C374.556671,692.367554 377.635376,690.152710 380.000000,686.500000 
"/>
<path fill="none" opacity="1.000000" stroke="#000000" stroke-linecap="round" stroke-linejoin="round" stroke-width="4.000000"
	d="
M363.000000,167.000000 
	C370.211609,168.360275 377.887909,167.720581 381.093872,165.433014 
	C379.633270,163.185760 380.010620,160.196548 377.063141,158.396622 
	C371.020020,154.706375 364.235687,157.436005 362.999969,164.500000 
	C361.463287,173.284348 363.157288,176.889526 370.006348,178.979218 
	C374.556671,180.367538 377.635376,178.152695 380.000000,174.500000 
"/>
<path fill="none" opacity="1.000000" stroke="#000000" stroke-linecap="round" stroke-linejoin="round" stroke-width="4.000000"
	d="
M355.000000,436.000000 
	C355.000000,444.000000 355.291748,452.014374 354.898834,459.995026 
	C354.630646,465.442505 359.271179,465.843811 362.126129,467.242554 
	C364.737244,468.521881 367.918732,466.279083 369.959686,463.964447 
	C372.572388,461.001434 372.742126,451.737335 370.500000,448.500000 
	C367.781372,444.574646 363.108978,443.723724 359.022125,446.532196 
	C358.061493,447.192291 357.275696,448.051392 356.000000,448.000000 
"/>
<path fill="none" opacity="1.000000" stroke="#000000" stroke-linecap="round" stroke-linejoin="round" stroke-width="4.000000"
	d="
M326.000000,148.000000 
	C326.000000,155.333328 325.988861,162.666687 326.003571,170.000000 
	C326.014740,175.570511 327.094635,176.961899 333.001770,178.994873 
	C337.218628,180.446152 339.918091,177.744415 341.898743,174.928772 
	C344.722076,170.915146 343.670532,161.573212 340.110657,158.855072 
	C336.898224,156.402237 334.271423,156.168091 330.987274,157.976913 
	C329.686096,158.693573 328.753387,160.173447 327.000000,160.000000 
"/>
<path fill="none" opacity="1.000000" stroke="#000000" stroke-linecap="round" stroke-linejoin="round" stroke-width="4.000000"
	d="
M326.000000,660.000000 
	C326.000000,667.333313 325.988892,674.666687 326.003601,682.000000 
	C326.014771,687.570496 327.094604,688.961914 333.001770,690.994873 
	C337.218628,692.446167 339.918060,689.744385 341.898651,686.928711 
	C344.722076,682.915039 343.670471,673.573181 340.110626,670.855103 
	C336.898224,668.402283 334.271423,668.168152 330.987244,669.976868 
	C329.686096,670.693542 328.753387,672.173462 327.000000,672.000000 
"/>
<path fill="none" opacity="1.000000" stroke="#000000" stroke-linecap="round" stroke-linejoin="round" stroke-width="4.000000"
	d="
M483.000000,455.000000 
	C487.469635,455.986328 492.006256,455.519989 496.498383,455.423889 
	C499.691956,455.355530 501.119843,452.169647 499.500000,449.500000 
	C497.782440,446.669312 491.907501,443.512299 489.525818,444.558716 
	C484.621338,446.713593 481.771545,448.549103 482.469788,454.753387 
	C482.682983,456.648102 481.708923,458.389648 482.389099,460.535156 
	C484.730408,467.920166 492.304108,469.726562 498.000214,464.000214 
	C498.665131,463.331787 499.333313,462.666656 500.000000,462.000000 
"/>
<path fill="none" opacity="1.000000" stroke="#000000" stroke-linecap="round" stroke-linejoin="round" stroke-width="4.000000"
	d="
M529.000000,167.000000 
	C533.469666,167.986328 538.006226,167.520004 542.498352,167.423843 
	C545.691956,167.355469 547.119812,164.169662 545.500000,161.500000 
	C543.782471,158.669312 537.907471,155.512360 535.525818,156.558762 
	C530.621399,158.713608 527.771606,160.549057 528.469788,166.753403 
	C528.682983,168.648102 527.708984,170.389618 528.389160,172.535141 
	C530.730408,179.920151 538.304077,181.726547 544.000244,176.000214 
	C544.665100,175.331787 545.333313,174.666672 546.000000,174.000000 
"/>
<path fill="none" opacity="1.000000" stroke="#000000" stroke-linecap="round" stroke-linejoin="round" stroke-width="4.000000"
	d="
M529.000000,679.000000 
	C533.469666,679.986328 538.006226,679.520020 542.498352,679.423889 
	C545.691956,679.355530 547.119812,676.169617 545.500000,673.500000 
	C543.782471,670.669312 537.907471,667.512390 535.525818,668.558777 
	C530.621399,670.713562 527.771606,672.549072 528.469788,678.753418 
	C528.682983,680.648132 527.708984,682.389587 528.389221,684.535156 
	C530.730469,691.920166 538.304016,693.726501 544.000183,688.000183 
	C544.665100,687.331787 545.333313,686.666626 546.000000,686.000000 
"/>
<path fill="none" opacity="1.000000" stroke="#000000" stroke-linecap="round" stroke-linejoin="round" stroke-width="4.000000"
	d="
M546.000000,243.500000 
	C548.690369,249.006409 550.926880,250.236481 556.000000,249.000031 
	C562.010559,247.535080 563.549744,245.819901 562.904419,239.509781 
	C562.401062,234.588058 564.085327,229.859268 563.499939,225.000000 
	C562.818542,219.342896 556.404358,215.417130 551.486755,217.468185 
	C546.625427,219.495789 545.964844,223.455826 545.964844,228.000000 
	C545.964844,232.544174 546.778442,236.232971 551.421570,238.650681 
	C554.024231,240.005905 555.961731,239.039536 557.957153,238.371902 
	C559.411682,237.885239 560.211060,235.775497 562.250000,236.000000 
"/>
<path fill="none" opacity="1.000000" stroke="#000000" stroke-linecap="round" stroke-linejoin="round" stroke-width="4.000000"
	d="
M241.000000,448.000000 
	C237.240967,445.572266 233.623886,442.824249 228.966995,446.457703 
	C226.180618,448.631744 224.486954,453.747162 225.500000,458.500000 
	C226.497864,463.181641 229.767654,466.974243 233.503967,467.470154 
	C236.790482,467.906342 238.819000,465.133911 241.500000,464.000000 
"/>
<path fill="none" opacity="1.000000" stroke="#000000" stroke-linecap="round" stroke-linejoin="round" stroke-width="4.000000"
	d="
M519.500000,732.000000 
	C518.472168,731.555664 517.450623,731.225403 516.458374,730.562256 
	C510.853088,726.815979 504.347229,730.195740 504.035156,737.001587 
	C503.881439,740.354065 503.366058,743.937073 505.068451,746.961487 
	C507.881836,751.959595 512.155090,752.279358 519.500000,748.500000 
"/>
<path fill="none" opacity="1.000000" stroke="#000000" stroke-linecap="round" stroke-linejoin="round" stroke-width="5.000000"
	d="
M353.000000,157.000000 
	C353.000000,165.833328 352.883148,174.668991 353.058472,183.498840 
	C353.127045,186.950424 351.821930,188.934189 348.495270,189.470627 
	C346.549255,189.784393 347.911835,188.127411 347.500000,187.500000 
"/>
<path fill="none" opacity="1.000000" stroke="#000000" stroke-linecap="round" stroke-linejoin="round" stroke-width="5.000000"
	d="
M353.000000,669.000000 
	C353.000000,677.833313 352.883148,686.669006 353.058472,695.498840 
	C353.127045,698.950439 351.821960,700.934265 348.495270,701.470703 
	C346.549286,701.784546 347.911835,700.127441 347.500000,699.500000 
"/>
<path fill="none" opacity="1.000000" stroke="#000000" stroke-linecap="round" stroke-linejoin="round" stroke-width="4.000000"
	d="
M608.500000,154.500000 
	C614.153687,158.322830 621.215027,159.478577 627.156311,164.034454 
	C621.184875,168.283722 614.217041,169.067413 608.500000,172.500000 
"/>
<path fill="none" opacity="1.000000" stroke="#000000" stroke-linecap="round" stroke-linejoin="round" stroke-width="4.000000"
	d="
M608.500000,666.500000 
	C614.153687,670.322815 621.215027,671.478577 627.156311,676.034424 
	C621.184875,680.283691 614.217041,681.067444 608.500000,684.500000 
"/>
<path fill="none" opacity="1.000000" stroke="#000000" stroke-linecap="round" stroke-linejoin="round" stroke-width="4.000000"
	d="
M636.500000,154.500000 
	C642.153687,158.322830 649.215027,159.478577 655.156311,164.034454 
	C649.184875,168.283722 642.217041,169.067413 636.500000,172.500000 
"/>
<path fill="none" opacity="1.000000" stroke="#000000" stroke-linecap="round" stroke-linejoin="round" stroke-width="4.000000"
	d="
M636.500000,666.500000 
	C642.153687,670.322815 649.215027,671.478577 655.156311,676.034424 
	C649.184875,680.283691 642.217041,681.067444 636.500000,684.500000 
"/>
<path fill="none" opacity="1.000000" stroke="#000000" stroke-linecap="round" stroke-linejoin="round" stroke-width="4.000000"
	d="
M279.000000,221.000000 
	C275.175934,216.628967 272.704498,215.322937 267.491821,217.480225 
	C265.403168,218.344604 264.124329,220.004028 264.117950,222.000381 
	C264.111969,223.876450 265.167786,225.555130 267.489716,226.048431 
	C269.538849,226.483780 271.469421,227.453415 273.507111,227.972015 
	C276.618164,228.763824 279.889313,229.530869 279.926605,233.500687 
	C279.961090,237.174606 276.845856,238.090302 273.999908,238.999695 
	C269.272736,240.510223 266.081879,238.662201 264.500000,233.500000 
"/>
<path fill="none" opacity="1.000000" stroke="#000000" stroke-linecap="round" stroke-linejoin="round" stroke-width="4.000000"
	d="
M457.000000,221.000000 
	C453.175812,216.628845 450.704407,215.322968 445.491791,217.480194 
	C443.403137,218.344574 442.124329,220.004028 442.117950,222.000381 
	C442.111969,223.876450 443.167786,225.555145 445.489716,226.048431 
	C447.538849,226.483780 449.469421,227.453445 451.507111,227.972046 
	C454.618164,228.763840 457.889313,229.530869 457.926605,233.500687 
	C457.961121,237.174606 454.845856,238.090317 451.999908,238.999710 
	C447.272705,240.510223 444.081848,238.662201 442.500000,233.500000 
"/>
<path fill="none" opacity="1.000000" stroke="#000000" stroke-linecap="round" stroke-linejoin="round" stroke-width="4.000000"
	d="
M412.000000,733.000000 
	C408.175842,728.628906 405.704437,727.322998 400.491821,729.480225 
	C398.403137,730.344604 397.124329,732.004028 397.117950,734.000366 
	C397.111969,735.876404 398.167786,737.555115 400.489716,738.048340 
	C402.538849,738.483704 404.469421,739.453430 406.507111,739.972107 
	C409.618134,740.763916 412.889282,741.530823 412.926605,745.500671 
	C412.961090,749.174561 409.845856,750.090332 406.999908,750.999695 
	C402.272736,752.510254 399.081879,750.662170 397.500000,745.500000 
"/>
<path fill="none" opacity="1.000000" stroke="#000000" stroke-linecap="round" stroke-linejoin="round" stroke-width="4.000000"
	d="
M318.000000,449.000000 
	C314.175964,444.628998 311.704559,443.322937 306.491821,445.480225 
	C304.403168,446.344604 303.124329,448.004059 303.117950,450.000366 
	C303.111969,451.876465 304.167786,453.555115 306.489716,454.048431 
	C308.538849,454.483765 310.469421,455.453430 312.507111,455.972046 
	C315.618164,456.763855 318.889313,457.530853 318.926605,461.500702 
	C318.961121,465.174622 315.845856,466.090302 312.999908,466.999695 
	C308.272736,468.510254 305.081848,466.662201 303.500000,461.500000 
"/>
<path fill="none" opacity="1.000000" stroke="#000000" stroke-linecap="round" stroke-linejoin="round" stroke-width="4.000000"
	d="
M386.000000,739.000000 
	C382.833344,739.500000 379.673492,740.049622 376.498199,740.487000 
	C372.821808,740.993408 369.515686,743.996948 370.000000,746.500000 
	C370.549774,749.341248 375.921478,752.325562 379.000031,751.500061 
	C386.000244,749.622803 387.642731,747.198425 386.918884,739.507629 
	C386.881958,739.115051 386.788452,738.964111 386.927826,738.479248 
	C388.016815,734.690247 388.076172,731.292236 383.516174,729.459717 
	C379.162048,727.709839 375.322388,728.321533 372.059296,732.051880 
	C371.274567,732.948975 370.855469,733.870239 369.500000,733.500000 
"/>
<path fill="none" opacity="1.000000" stroke="#000000" stroke-linecap="round" stroke-linejoin="round" stroke-width="4.000000"
	d="
M343.500000,227.000000 
	C340.333344,227.500000 337.175201,228.064850 333.997864,228.483704 
	C329.964081,229.015457 327.326233,231.814743 328.000000,235.000000 
	C328.580963,237.746475 333.086792,240.535355 335.959930,239.398727 
	C338.351868,238.452469 340.895508,237.793777 343.096405,236.127319 
	C344.355438,235.174026 345.038330,234.527222 345.016724,232.999771 
	C344.964966,229.333817 345.220062,225.650009 344.944061,222.004242 
	C344.602448,217.491989 337.319153,214.871460 332.533508,217.559647 
	C331.148499,218.337616 330.166656,219.833328 329.000000,221.000000 
"/>
<path fill="none" opacity="1.000000" stroke="#000000" stroke-linecap="round" stroke-linejoin="round" stroke-width="4.000000"
	d="
M254.500000,239.500000 
	C254.500000,234.333328 254.662354,229.160278 254.459442,224.001602 
	C254.197723,217.347702 249.353638,214.984314 243.452209,217.903381 
	C239.366837,219.924149 238.469421,223.045105 238.494171,227.000031 
	C238.520233,231.166550 238.500000,235.333328 238.500000,239.500000 
"/>
<path fill="none" opacity="1.000000" stroke="#000000" stroke-linecap="round" stroke-linejoin="round" stroke-width="4.000000"
	d="
M536.500000,239.500000 
	C536.500000,234.333328 536.662292,229.160294 536.459412,224.001602 
	C536.197693,217.347702 531.353577,214.984268 525.452209,217.903351 
	C521.366821,219.924133 520.469360,223.045105 520.494080,227.000031 
	C520.520142,231.166550 520.500000,235.333328 520.500000,239.500000 
"/>
<path fill="none" opacity="1.000000" stroke="#000000" stroke-linecap="round" stroke-linejoin="round" stroke-width="5.000000"
	d="
M297.000000,751.000000 
	C297.000000,746.500000 297.016266,741.999939 296.996429,737.500000 
	C296.961731,729.629211 291.840973,726.676208 284.976105,730.456604 
	C283.889435,731.055054 283.013885,732.310181 281.500000,732.000000 
"/>
<path fill="none" opacity="1.000000" stroke="#000000" stroke-linecap="round" stroke-linejoin="round" stroke-width="5.000000"
	d="
M361.000000,751.000000 
	C361.000000,746.500000 360.886780,741.996216 361.037506,737.501282 
	C361.148651,734.185608 360.348328,731.187988 357.451752,729.587280 
	C354.362854,727.880432 351.187897,728.416626 348.467255,730.965027 
	C347.857056,731.536560 346.833344,731.666687 346.000000,732.000000 
"/>
<path fill="none" opacity="1.000000" stroke="#000000" stroke-linecap="round" stroke-linejoin="round" stroke-width="5.000000"
	d="
M328.000000,445.000000 
	C328.000000,449.666656 328.038879,454.333771 327.987152,458.999847 
	C327.948761,462.462769 328.983826,465.003571 332.462769,466.582031 
	C335.747620,468.072479 338.136444,466.987274 340.484650,464.982025 
	C341.418182,464.184875 342.199188,463.215454 343.500000,463.000000 
"/>
<path fill="none" opacity="1.000000" stroke="#000000" stroke-linecap="round" stroke-linejoin="round" stroke-width="5.000000"
	d="
M473.000000,751.000000 
	C473.000000,746.166687 473.015442,741.333252 472.996338,736.500000 
	C472.968994,729.582642 468.113892,726.735352 461.990631,729.982300 
	C460.676147,730.679382 459.753387,732.173462 458.000000,732.000000 
"/>
<path fill="none" opacity="1.000000" stroke="#000000" stroke-linecap="round" stroke-linejoin="round" stroke-width="5.000000"
	d="
M319.000000,239.000000 
	C318.747345,233.836105 319.215851,228.678894 318.587708,223.489380 
	C317.848633,217.383301 312.658844,214.925003 307.498169,217.996948 
	C306.343750,218.684128 305.166656,219.333328 304.000000,220.000000 
"/>
<path fill="none" opacity="1.000000" stroke="#000000" stroke-linecap="round" stroke-linejoin="round" stroke-width="5.000000"
	d="
M265.000000,660.000000 
	C265.000000,670.333313 265.000000,680.666687 265.000000,691.000000 
"/>
<path fill="none" opacity="1.000000" stroke="#000000" stroke-linecap="round" stroke-linejoin="round" stroke-width="5.000000"
	d="
M265.000000,148.000000 
	C265.000000,158.333328 265.000000,168.666672 265.000000,179.000000 
"/>
<path fill="none" opacity="1.000000" stroke="#000000" stroke-linecap="round" stroke-linejoin="round" stroke-width="5.000000"
	d="
M494.000000,720.000000 
	C494.000000,730.333313 494.000000,740.666687 494.000000,751.000000 
"/>
<path fill="none" opacity="1.000000" stroke="#000000" stroke-linecap="round" stroke-linejoin="round" stroke-width="4.000000"
	d="
M419.999969,381.500000 
	C415.999969,373.666687 411.856628,365.901489 408.081512,357.961243 
	C406.840424,355.350861 405.736877,353.209930 402.502014,353.520844 
	C399.849396,353.775757 398.983612,355.778076 397.928772,357.965668 
	C394.109619,365.886200 390.000000,373.666656 386.000000,381.500000 
"/>
<path fill="none" opacity="1.000000" stroke="#000000" stroke-linecap="round" stroke-linejoin="round" stroke-width="5.000000"
	d="
M416.000000,148.500000 
	C414.831085,150.360733 414.988586,152.437927 414.994720,154.500015 
	C415.010529,159.833298 415.000000,165.166672 415.000000,170.500000 
	C415.000000,177.662079 415.000000,177.662079 421.500000,180.000000 
"/>
<path fill="none" opacity="1.000000" stroke="#000000" stroke-linecap="round" stroke-linejoin="round" stroke-width="5.000000"
	d="
M416.000000,660.500000 
	C414.831085,662.360718 414.988556,664.437927 414.994690,666.500000 
	C415.010498,671.833252 415.000000,677.166687 415.000000,682.500000 
	C415.000000,689.662048 415.000000,689.662048 421.500000,692.000000 
"/>
<path fill="none" opacity="1.000000" stroke="#000000" stroke-linecap="round" stroke-linejoin="round" stroke-width="4.000000"
	d="
M573.000000,660.500000 
	C571.841309,669.314636 572.719543,678.167725 572.559448,687.001099 
	C572.511658,689.636230 573.977844,691.379089 577.000000,691.000000 
"/>
<path fill="none" opacity="1.000000" stroke="#000000" stroke-linecap="round" stroke-linejoin="round" stroke-width="4.000000"
	d="
M527.000000,436.500000 
	C525.841309,445.314606 526.719482,454.167725 526.559387,463.001068 
	C526.511658,465.636200 527.977844,467.379120 531.000000,467.000000 
"/>
<path fill="none" opacity="1.000000" stroke="#000000" stroke-linecap="round" stroke-linejoin="round" stroke-width="4.000000"
	d="
M573.000000,148.500000 
	C571.841309,157.314621 572.719482,166.167740 572.559387,175.001083 
	C572.511658,177.636200 573.977844,179.379105 577.000000,179.000000 
"/>
<path fill="none" opacity="1.000000" stroke="#000000" stroke-linecap="round" stroke-linejoin="round" stroke-width="4.000000"
	d="
M535.500000,444.000000 
	C538.395813,444.155090 538.199890,446.889374 538.902954,448.541290 
	C540.694458,452.750580 542.215942,457.109009 543.395996,461.527771 
	C543.882629,463.349976 544.885376,464.498779 546.000000,465.750000 
"/>
<path fill="none" opacity="1.000000" stroke="#000000" stroke-linecap="round" stroke-linejoin="round" stroke-width="4.000000"
	d="
M581.500000,156.000000 
	C584.395813,156.155106 584.199951,158.889374 584.902954,160.541290 
	C586.694458,164.750580 588.215942,169.109009 589.395935,173.527786 
	C589.882629,175.350006 590.885376,176.498795 592.000000,177.750000 
"/>
<path fill="none" opacity="1.000000" stroke="#000000" stroke-linecap="round" stroke-linejoin="round" stroke-width="4.000000"
	d="
M581.500000,668.000000 
	C584.395813,668.155090 584.199951,670.889404 584.903015,672.541260 
	C586.694519,676.750549 588.215942,681.109009 589.395996,685.527771 
	C589.882629,687.350037 590.885376,688.498779 592.000000,689.750000 
"/>
<path fill="none" opacity="1.000000" stroke="#000000" stroke-linecap="round" stroke-linejoin="round" stroke-width="4.000000"
	d="
M556.500000,444.000000 
	C555.888489,444.573578 554.831238,444.006744 554.414368,445.475708 
	C551.951904,454.153412 547.757690,462.218109 545.348328,470.958191 
	C544.592285,473.700592 543.170532,477.170837 539.000000,477.000000 
"/>
<path fill="none" opacity="1.000000" stroke="#000000" stroke-linecap="round" stroke-linejoin="round" stroke-width="4.000000"
	d="
M483.500000,728.500000 
	C483.500000,736.166687 483.500000,743.833313 483.500000,751.500000 
"/>
<path fill="none" opacity="1.000000" stroke="#000000" stroke-linecap="round" stroke-linejoin="round" stroke-width="4.000000"
	d="
M602.500000,668.000000 
	C601.888489,668.573547 600.831299,668.006775 600.414490,669.475708 
	C597.951965,678.153381 593.757690,686.218140 591.348328,694.958191 
	C590.592285,697.700562 589.170532,701.170837 585.000000,701.000000 
"/>
<path fill="none" opacity="1.000000" stroke="#000000" stroke-linecap="round" stroke-linejoin="round" stroke-width="4.000000"
	d="
M602.500000,156.000000 
	C601.888489,156.573578 600.831299,156.006760 600.414490,157.475723 
	C597.951965,166.153427 593.757690,174.218109 591.348267,182.958160 
	C590.592285,185.700577 589.170532,189.170853 585.000000,189.000000 
"/>
<path fill="none" opacity="1.000000" stroke="#000000" stroke-linecap="round" stroke-linejoin="round" stroke-width="4.000000"
	d="
M258.500000,668.000000 
	C257.589172,668.422485 256.767365,668.413391 256.372833,669.967712 
	C255.039856,675.219116 253.034622,680.296692 251.584320,685.523376 
	C251.174789,686.999207 250.463425,688.002930 249.500000,689.000000 
"/>
<path fill="none" opacity="1.000000" stroke="#000000" stroke-linecap="round" stroke-linejoin="round" stroke-width="4.000000"
	d="
M258.500000,156.000000 
	C257.589172,156.422501 256.767365,156.413391 256.372833,157.967712 
	C255.039856,163.219086 253.034622,168.296692 251.584305,173.523392 
	C251.174774,174.999237 250.463425,176.002914 249.500000,177.000000 
"/>
<path fill="none" opacity="1.000000" stroke="#000000" stroke-linecap="round" stroke-linejoin="round" stroke-width="4.000000"
	d="
M503.000000,160.500000 
	C504.027496,160.652069 504.714233,160.189163 505.536407,159.546585 
	C508.002441,157.619324 510.234436,155.365295 514.049561,157.407410 
	C518.493713,159.786194 519.775452,163.830841 519.764893,167.999405 
	C519.758972,170.343414 519.496460,173.295212 517.536011,175.531555 
	C513.633118,179.983688 510.575531,180.433990 505.485565,177.021530 
	C504.756439,176.532730 503.833344,176.333328 503.000000,176.000000 
"/>
<path fill="none" opacity="1.000000" stroke="#000000" stroke-linecap="round" stroke-linejoin="round" stroke-width="4.000000"
	d="
M503.000000,688.000000 
	C504.275696,687.948608 505.059753,688.811523 506.021851,689.467957 
	C510.704529,692.662598 516.163696,691.284058 518.412964,685.963196 
	C520.023743,682.152466 520.475220,678.003296 518.501587,673.999207 
	C515.739868,668.396240 511.170410,667.273926 506.017731,671.024353 
	C505.072723,671.712158 504.450317,672.900635 503.000000,672.500000 
"/>
<path fill="none" opacity="1.000000" stroke="#000000" stroke-linecap="round" stroke-linejoin="round" stroke-width="4.000000"
	d="
M468.000000,220.500000 
	C469.027496,220.652069 469.714233,220.189148 470.536407,219.546600 
	C473.002441,217.619308 475.234467,215.365265 479.049591,217.407379 
	C483.493713,219.786179 484.775421,223.830841 484.764862,227.999405 
	C484.758942,230.343414 484.496399,233.295151 482.535950,235.531509 
	C478.633057,239.983658 475.575562,240.433975 470.485565,237.021530 
	C469.756439,236.532730 468.833344,236.333344 468.000000,236.000015 
"/>
<path fill="none" opacity="1.000000" stroke="#000000" stroke-linecap="round" stroke-linejoin="round" stroke-width="4.000000"
	d="
M457.000000,448.500000 
	C458.027496,448.652069 458.714233,448.189148 459.536407,447.546570 
	C462.002441,445.619324 464.234436,443.365265 468.049591,445.407349 
	C472.493713,447.786194 473.775421,451.830841 473.764893,455.999420 
	C473.758972,458.343445 473.496429,461.295135 471.535950,463.531525 
	C467.633087,467.983704 464.575531,468.433990 459.485565,465.021545 
	C458.756439,464.532715 457.833344,464.333344 457.000000,464.000000 
"/>
<path fill="none" opacity="1.000000" stroke="#000000" stroke-linecap="round" stroke-linejoin="round" stroke-width="5.000000"
	d="
M510.000000,217.000000 
	C510.000000,224.333328 510.000000,231.666672 510.000000,239.000000 
"/>
<path fill="none" opacity="1.000000" stroke="#000000" stroke-linecap="round" stroke-linejoin="round" stroke-width="4.000000"
	d="
M261.000000,436.000000 
	C255.165924,436.060486 254.533875,436.654755 254.509033,442.500031 
	C254.473602,450.833221 254.500000,459.166656 254.500000,467.500000 
"/>
<path fill="none" opacity="1.000000" stroke="#000000" stroke-linecap="round" stroke-linejoin="round" stroke-width="5.000000"
	d="
M601.500000,445.500000 
	C600.355896,452.643921 601.316589,459.836823 601.000000,467.000000 
"/>
<path fill="none" opacity="1.000000" stroke="#000000" stroke-linecap="round" stroke-linejoin="round" stroke-width="5.000000"
	d="
M418.500000,217.500000 
	C417.355927,224.643936 418.316620,231.836823 418.000000,239.000000 
"/>
<path fill="none" opacity="1.000000" stroke="#000000" stroke-linecap="round" stroke-linejoin="round" stroke-width="5.000000"
	d="
M437.000000,208.000000 
	C431.724640,208.444916 431.056671,209.032898 431.017853,214.000137 
	C430.952728,222.332962 431.000000,230.666672 431.000000,239.000000 
"/>
<path fill="none" opacity="1.000000" stroke="#000000" stroke-linecap="round" stroke-linejoin="round" stroke-width="4.000000"
	d="
M227.500000,668.500000 
	C229.166672,674.166687 230.941238,679.805603 232.410431,685.523010 
	C232.709991,686.688843 233.417526,687.216125 234.000000,688.000000 
"/>
<path fill="none" opacity="1.000000" stroke="#000000" stroke-linecap="round" stroke-linejoin="round" stroke-width="4.000000"
	d="
M166.000000,153.500000 
	C165.104630,156.490280 162.066299,156.381012 159.955856,157.409424 
	C155.802872,159.433212 151.360580,160.862335 147.261215,164.073044 
	C152.537384,168.425217 159.788300,168.923401 165.500000,172.500000 
"/>
<path fill="none" opacity="1.000000" stroke="#000000" stroke-linecap="round" stroke-linejoin="round" stroke-width="4.000000"
	d="
M166.000000,665.500000 
	C165.104630,668.490295 162.066360,668.381409 159.955826,669.409302 
	C155.802383,671.432312 151.361649,672.864563 147.260925,676.072815 
	C152.537384,680.425232 159.788300,680.923401 165.500000,684.500000 
"/>
<path fill="none" opacity="1.000000" stroke="#000000" stroke-linecap="round" stroke-linejoin="round" stroke-width="4.000000"
	d="
M227.500000,156.500000 
	C229.166672,162.166672 230.941238,167.805603 232.410416,173.523026 
	C232.710007,174.688858 233.417526,175.216141 234.000000,176.000000 
"/>
<path fill="none" opacity="1.000000" stroke="#000000" stroke-linecap="round" stroke-linejoin="round" stroke-width="4.000000"
	d="
M194.000000,153.500000 
	C193.104630,156.490280 190.066284,156.380997 187.955856,157.409424 
	C183.802856,159.433197 179.360580,160.862335 175.261215,164.073044 
	C180.537384,168.425217 187.788300,168.923401 193.500000,172.500000 
"/>
<path fill="none" opacity="1.000000" stroke="#000000" stroke-linecap="round" stroke-linejoin="round" stroke-width="4.000000"
	d="
M194.000000,665.500000 
	C193.104630,668.490295 190.066376,668.381409 187.955841,669.409363 
	C183.802399,671.432373 179.361649,672.864563 175.260925,676.072815 
	C180.537384,680.425232 187.788300,680.923401 193.500000,684.500000 
"/>
<path fill="none" opacity="1.000000" stroke="#000000" stroke-linecap="round" stroke-linejoin="round" stroke-width="4.000000"
	d="
M413.500000,444.500000 
	C414.492584,452.166656 412.971924,459.833344 413.500000,467.500000 
"/>
<path fill="none" opacity="1.000000" stroke="#000000" stroke-linecap="round" stroke-linejoin="round" stroke-width="4.000000"
	d="
M302.500000,207.500000 
	C302.500000,218.166672 302.500000,228.833328 302.500000,239.500000 
"/>
<path fill="none" opacity="1.000000" stroke="#000000" stroke-linecap="round" stroke-linejoin="round" stroke-width="4.000000"
	d="
M459.500000,156.500000 
	C460.492584,164.166672 458.971924,171.833328 459.500000,179.500000 
"/>
<path fill="none" opacity="1.000000" stroke="#000000" stroke-linecap="round" stroke-linejoin="round" stroke-width="4.000000"
	d="
M459.500000,668.500000 
	C460.492584,676.166687 458.971924,683.833313 459.500000,691.500000 
"/>
<path fill="none" opacity="1.000000" stroke="#000000" stroke-linecap="round" stroke-linejoin="round" stroke-width="5.000000"
	d="
M457.000000,720.000000 
	C457.000000,730.333313 457.000000,740.666687 457.000000,751.000000 
"/>
<path fill="none" opacity="1.000000" stroke="#000000" stroke-linecap="round" stroke-linejoin="round" stroke-width="4.000000"
	d="
M173.500000,442.500000 
	C169.333344,444.333344 165.129120,446.087280 161.015564,448.032898 
	C158.906967,449.030243 156.477600,449.676117 155.250000,452.000000 
"/>
<path fill="none" opacity="1.000000" stroke="#000000" stroke-linecap="round" stroke-linejoin="round" stroke-width="4.000000"
	d="
M201.500000,442.500000 
	C197.333328,444.333344 193.129135,446.087311 189.015579,448.032928 
	C186.906982,449.030273 184.477600,449.676117 183.250000,452.000000 
"/>
<path fill="none" opacity="1.000000" stroke="#000000" stroke-linecap="round" stroke-linejoin="round" stroke-width="4.000000"
	d="
M612.500000,442.500000 
	C616.666687,444.333344 620.870850,446.087280 624.984436,448.032898 
	C627.093018,449.030212 629.522400,449.676117 630.750000,452.000000 
"/>
<path fill="none" opacity="1.000000" stroke="#000000" stroke-linecap="round" stroke-linejoin="round" stroke-width="5.000000"
	d="
M555.500000,156.500000 
	C556.657593,163.977982 555.688354,171.503220 556.000000,179.000000 
"/>
<path fill="none" opacity="1.000000" stroke="#000000" stroke-linecap="round" stroke-linejoin="round" stroke-width="5.000000"
	d="
M509.500000,444.500000 
	C510.657623,451.977966 509.688324,459.503235 510.000000,467.000000 
"/>
<path fill="none" opacity="1.000000" stroke="#000000" stroke-linecap="round" stroke-linejoin="round" stroke-width="4.000000"
	d="
M640.500000,442.500000 
	C644.666687,444.333344 648.870850,446.087280 652.984436,448.032898 
	C655.093018,449.030212 657.522400,449.676117 658.750000,452.000000 
"/>
<path fill="none" opacity="1.000000" stroke="#000000" stroke-linecap="round" stroke-linejoin="round" stroke-width="4.000000"
	d="
M242.500000,157.500000 
	C238.889297,162.978546 239.126114,169.846466 236.000000,175.500000 
"/>
<path fill="none" opacity="1.000000" stroke="#000000" stroke-linecap="round" stroke-linejoin="round" stroke-width="4.000000"
	d="
M242.500000,669.500000 
	C238.889297,674.978516 239.126114,681.846497 236.000000,687.500000 
"/>
<path fill="none" opacity="1.000000" stroke="#000000" stroke-linecap="round" stroke-linejoin="round" stroke-width="5.000000"
	d="
M280.500000,728.500000 
	C281.657623,735.977966 280.688324,743.503235 281.000000,751.000000 
"/>
<path fill="none" opacity="1.000000" stroke="#000000" stroke-linecap="round" stroke-linejoin="round" stroke-width="5.000000"
	d="
M221.500000,444.500000 
	C220.000000,445.782776 218.451538,444.156036 217.009735,444.536896 
	C213.641922,445.426422 211.010376,449.249023 211.002380,453.000000 
	C210.992432,457.666626 211.000000,462.333344 211.000000,467.000000 
"/>
<path fill="none" opacity="1.000000" stroke="#000000" stroke-linecap="round" stroke-linejoin="round" stroke-width="5.000000"
	d="
M504.500000,216.500000 
	C503.000000,217.782776 501.451508,216.156006 500.009735,216.536819 
	C496.641937,217.426392 494.010406,221.249054 494.002411,225.000000 
	C493.992462,229.666656 494.000000,234.333328 494.000000,239.000000 
"/>
<path fill="none" opacity="1.000000" stroke="#000000" stroke-linecap="round" stroke-linejoin="round" stroke-width="5.000000"
	d="
M555.500000,668.500000 
	C556.657593,675.977966 555.688354,683.503235 556.000000,691.000000 
"/>
<path fill="none" opacity="1.000000" stroke="#000000" stroke-linecap="round" stroke-linejoin="round" stroke-width="5.000000"
	d="
M345.000000,720.000000 
	C345.000000,730.333313 345.000000,740.666687 345.000000,751.000000 
"/>
<path fill="none" opacity="1.000000" stroke="#000000" stroke-linecap="round" stroke-linejoin="round" stroke-width="4.000000"
	d="
M182.000000,452.000000 
	C187.977493,456.032013 195.050095,457.551758 201.500000,460.500000 
"/>
<path fill="none" opacity="1.000000" stroke="#000000" stroke-linecap="round" stroke-linejoin="round" stroke-width="4.000000"
	d="
M154.000000,452.000000 
	C159.977493,456.032013 167.050095,457.551758 173.500000,460.500000 
"/>
<path fill="none" opacity="1.000000" stroke="#000000" stroke-linecap="round" stroke-linejoin="round" stroke-width="4.000000"
	d="
M632.000000,452.000000 
	C625.980286,455.935242 618.998474,457.663177 612.500000,460.500000 
"/>
<path fill="none" opacity="1.000000" stroke="#000000" stroke-linecap="round" stroke-linejoin="round" stroke-width="4.000000"
	d="
M660.000000,452.000000 
	C653.980286,455.935242 646.998474,457.663177 640.500000,460.500000 
"/>
<path fill="none" opacity="1.000000" stroke="#000000" stroke-linecap="round" stroke-linejoin="round" stroke-width="5.000000"
	d="
M344.000000,445.000000 
	C344.090424,452.501709 343.690216,460.014282 344.500000,467.500000 
"/>
<path fill="none" opacity="1.000000" stroke="#000000" stroke-linecap="round" stroke-linejoin="round" stroke-width="4.000000"
	d="
M243.000000,160.000000 
	C244.895859,161.034714 244.119385,162.944977 244.563583,164.481613 
	C245.975098,169.364624 247.666656,174.166672 249.249985,179.000000 
"/>
<path fill="none" opacity="1.000000" stroke="#000000" stroke-linecap="round" stroke-linejoin="round" stroke-width="4.000000"
	d="
M243.000000,672.000000 
	C244.895859,673.034729 244.119400,674.945007 244.563583,676.481628 
	C245.975113,681.364563 247.666656,686.166687 249.249985,691.000000 
"/>
<path fill="none" opacity="1.000000" stroke="#000000" stroke-linecap="round" stroke-linejoin="round" stroke-width="5.000000"
	d="
M521.000000,720.000000 
	C520.153748,729.481995 522.108093,739.056335 520.064514,748.513916 
	C519.907349,749.241272 520.666687,750.166687 521.000000,751.000000 
"/>
<path fill="none" opacity="1.000000" stroke="#000000" stroke-linecap="round" stroke-linejoin="round" stroke-width="4.000000"
	d="
M531.500000,444.500000 
	C526.833313,444.500000 522.162415,444.621429 517.501526,444.457184 
	C514.409485,444.348206 513.147949,447.462616 510.500000,448.000000 
"/>
<path fill="none" opacity="1.000000" stroke="#000000" stroke-linecap="round" stroke-linejoin="round" stroke-width="4.000000"
	d="
M577.500000,668.500000 
	C572.833313,668.500000 568.162415,668.621460 563.501526,668.457214 
	C560.409485,668.348267 559.147949,671.462646 556.500000,672.000000 
"/>
<path fill="none" opacity="1.000000" stroke="#000000" stroke-linecap="round" stroke-linejoin="round" stroke-width="4.000000"
	d="
M577.500000,156.500000 
	C572.833313,156.500000 568.162415,156.621414 563.501526,156.457184 
	C560.409485,156.348221 559.147949,159.462616 556.500000,160.000000 
"/>
<path fill="none" opacity="1.000000" stroke="#000000" stroke-linecap="round" stroke-linejoin="round" stroke-width="5.000000"
	d="
M502.000000,157.000000 
	C502.000000,167.666672 502.000000,178.333328 502.000000,189.000000 
"/>
<path fill="none" opacity="1.000000" stroke="#000000" stroke-linecap="round" stroke-linejoin="round" stroke-width="4.000000"
	d="
M242.500000,435.500000 
	C242.500000,446.166656 242.500000,456.833344 242.500000,467.500000 
"/>
<path fill="none" opacity="1.000000" stroke="#000000" stroke-linecap="round" stroke-linejoin="round" stroke-width="5.000000"
	d="
M467.000000,217.000000 
	C467.000000,227.666672 467.000000,238.333328 467.000000,249.000000 
"/>
<path fill="none" opacity="1.000000" stroke="#000000" stroke-linecap="round" stroke-linejoin="round" stroke-width="5.000000"
	d="
M502.000000,669.000000 
	C502.000000,679.666687 502.000000,690.333313 502.000000,701.000000 
"/>
<path fill="none" opacity="1.000000" stroke="#000000" stroke-linecap="round" stroke-linejoin="round" stroke-width="5.000000"
	d="
M456.000000,445.000000 
	C456.000000,455.666656 456.000000,466.333344 456.000000,477.000000 
"/>
<path fill="none" opacity="1.000000" stroke="#000000" stroke-linecap="round" stroke-linejoin="round" stroke-width="5.000000"
	d="
M426.500000,207.500000 
	C418.000000,208.899734 418.000000,208.899734 418.000000,216.500000 
"/>
<path fill="none" opacity="1.000000" stroke="#000000" stroke-linecap="round" stroke-linejoin="round" stroke-width="5.000000"
	d="
M609.500000,435.500000 
	C601.000000,436.899719 601.000000,436.899719 601.000000,444.500000 
"/>
<path fill="none" opacity="1.000000" stroke="#000000" stroke-linecap="round" stroke-linejoin="round" stroke-width="4.000000"
	d="
M435.500000,216.500000 
	C428.500000,216.500000 421.500000,216.500000 414.500000,216.500000 
"/>
<path fill="none" opacity="1.000000" stroke="#000000" stroke-linecap="round" stroke-linejoin="round" stroke-width="3.000000"
	d="
M470.500000,668.500000 
	C466.738464,668.443237 463.413422,669.633606 460.500000,672.000000 
"/>
<path fill="none" opacity="1.000000" stroke="#000000" stroke-linecap="round" stroke-linejoin="round" stroke-width="3.000000"
	d="
M424.500000,444.500000 
	C420.738464,444.443207 417.413422,445.633606 414.500000,448.000000 
"/>
<path fill="none" opacity="1.000000" stroke="#000000" stroke-linecap="round" stroke-linejoin="round" stroke-width="3.000000"
	d="
M470.500000,156.500000 
	C466.738464,156.443207 463.413422,157.633606 460.500000,160.000000 
"/>
<path fill="none" opacity="1.000000" stroke="#000000" stroke-linecap="round" stroke-linejoin="round" stroke-width="5.000000"
	d="
M403.000000,545.000000 
	C403.000000,548.166687 403.000000,551.333313 403.000000,554.500000 
"/>
<path fill="none" opacity="1.000000" stroke="#000000" stroke-linecap="round" stroke-linejoin="round" stroke-width="5.000000"
	d="
M403.000000,344.000000 
	C403.000000,349.666656 403.000000,355.333344 403.000000,361.000000 
"/>
<path fill="none" opacity="1.000000" stroke="#000000" stroke-linecap="round" stroke-linejoin="round" stroke-width="4.000000"
	d="
M606.500000,444.500000 
	C603.500000,444.500000 600.500000,444.500000 597.500000,444.500000 
"/>
<path fill="none" opacity="1.000000" stroke="#000000" stroke-linecap="round" stroke-linejoin="round" stroke-width="4.000000"
	d="
M259.500000,444.500000 
	C256.500000,444.413116 253.500000,445.615875 250.500000,444.500000 
"/>
<path fill="none" opacity="1.000000" stroke="#000000" stroke-linecap="round" stroke-linejoin="round" stroke-width="4.000000"
	d="
M419.500000,156.500000 
	C416.833344,156.590164 414.166656,157.587463 411.500000,156.500000 
"/>
<path fill="none" opacity="1.000000" stroke="#000000" stroke-linecap="round" stroke-linejoin="round" stroke-width="4.000000"
	d="
M419.500000,668.500000 
	C416.833344,668.590149 414.166656,669.587463 411.500000,668.500000 
"/>
<path fill="none" opacity="1.000000" stroke="#000000" stroke-linecap="round" stroke-linejoin="round" stroke-width="4.000000"
	d="
M211.000000,156.500000 
	C202.109009,159.755814 198.660675,169.848846 204.559631,175.942276 
	C206.997208,178.460236 209.984116,180.475571 214.010010,179.027863 
	C218.103928,177.555679 220.545700,174.668335 220.934372,170.493896 
	C221.577805,163.583466 220.418442,158.144547 211.500000,156.500000 
"/>
<path fill="none" opacity="1.000000" stroke="#000000" stroke-linecap="round" stroke-linejoin="round" stroke-width="4.000000"
	d="
M299.500000,148.000000 
	C291.565216,149.580460 288.706543,155.467331 288.118988,162.509933 
	C287.603821,168.685074 289.688751,174.199707 295.508026,177.485779 
	C304.559174,182.596893 315.952606,175.910263 315.992096,165.499969 
	C316.007050,161.556778 316.560730,157.487213 313.992737,154.005356 
	C310.511658,149.285477 305.788666,147.382034 300.000000,148.000000 
"/>
<path fill="none" opacity="1.000000" stroke="#000000" stroke-linecap="round" stroke-linejoin="round" stroke-width="4.000000"
	d="
M483.000000,156.500000 
	C474.109009,159.755814 470.660706,169.848846 476.559631,175.942276 
	C478.997253,178.460220 481.984100,180.475555 486.010010,179.027847 
	C490.103943,177.555664 492.545746,174.668335 492.934448,170.493896 
	C493.577850,163.583420 492.418396,158.144547 483.500000,156.500000 
"/>
<path fill="none" opacity="1.000000" stroke="#000000" stroke-linecap="round" stroke-linejoin="round" stroke-width="5.000000"
	d="
M391.500000,208.000000 
	C385.517517,209.146149 381.136566,212.503052 380.132050,218.522034 
	C379.026428,225.146515 378.937683,231.854950 385.478943,236.529449 
	C393.461914,242.234177 405.138794,237.587799 407.067993,228.514450 
	C409.671509,216.270050 403.884125,208.123184 392.000000,208.000000 
"/>
<path fill="none" opacity="1.000000" stroke="#000000" stroke-linecap="round" stroke-linejoin="round" stroke-width="5.000000"
	d="
M574.500000,436.000000 
	C568.517517,437.146149 564.136597,440.503052 563.132080,446.522034 
	C562.026489,453.146515 561.937683,459.854950 568.479004,464.529419 
	C576.461975,470.234192 588.138794,465.587769 590.067993,456.514465 
	C592.671509,444.270081 586.884094,436.123199 575.000000,436.000000 
"/>
<path fill="none" opacity="1.000000" stroke="#000000" stroke-linecap="round" stroke-linejoin="round" stroke-width="4.000000"
	d="
M437.000000,444.500000 
	C428.109009,447.755798 424.660706,457.848846 430.559631,463.942261 
	C432.997223,466.460236 435.984100,468.475586 440.010040,467.027893 
	C444.103943,465.555725 446.545776,462.668335 446.934448,458.493896 
	C447.577850,451.583466 446.418427,446.144562 437.500000,444.500000 
"/>
<path fill="none" opacity="1.000000" stroke="#000000" stroke-linecap="round" stroke-linejoin="round" stroke-width="4.000000"
	d="
M299.500000,660.000000 
	C291.565216,661.580444 288.706512,667.467346 288.118958,674.509949 
	C287.603760,680.685120 289.688751,686.199768 295.508057,689.485779 
	C304.559174,694.596863 315.952606,687.910278 315.992096,677.500000 
	C316.007019,673.556824 316.560760,669.487183 313.992767,666.005371 
	C310.511688,661.285461 305.788666,659.382019 300.000000,660.000000 
"/>
<path fill="none" opacity="1.000000" stroke="#000000" stroke-linecap="round" stroke-linejoin="round" stroke-width="4.000000"
	d="
M211.000000,668.500000 
	C202.109009,671.755798 198.660721,681.848816 204.559662,687.942261 
	C206.997238,690.460266 209.984116,692.475586 214.009995,691.027771 
	C218.103912,689.555603 220.545731,686.668335 220.934402,682.493896 
	C221.577850,675.583435 220.418381,670.144531 211.500000,668.500000 
"/>
<path fill="none" opacity="1.000000" stroke="#000000" stroke-linecap="round" stroke-linejoin="round" stroke-width="4.000000"
	d="
M483.000000,668.500000 
	C474.109009,671.755798 470.660706,681.848816 476.559662,687.942261 
	C478.997284,690.460205 481.984100,692.475586 486.010010,691.027771 
	C490.103912,689.555603 492.545746,686.668335 492.934448,682.493896 
	C493.577850,675.583435 492.418427,670.144531 483.500000,668.500000 
"/>
</svg>