<svg version="1.1" id="Layer_1" xmlns="http://www.w3.org/2000/svg" xmlns:xlink="http://www.w3.org/1999/xlink" x="0px" y="0px"
	 width="100%" viewBox="0 0 1645 600" enable-background="new 0 0 1645 600" xml:space="preserve">
<path fill="none" opacity="1.000000" stroke="#000000" stroke-linecap="round" stroke-linejoin="round" stroke-width="5.000000"
	d="
M963.000000,103.000000 
	C963.000000,95.163124 963.000000,87.326241 963.000000,79.250000 
	C752.166687,79.250000 541.833313,79.250000 331.000000,79.250000 
	C331.000000,199.166199 331.000000,318.833099 331.000000,438.500000 
"/>
<path fill="none" opacity="1.000000" stroke="#000000" stroke-linecap="round" stroke-linejoin="round" stroke-width="5.000000"
	d="
M330.500000,439.000000 
	C234.833038,439.000000 139.166092,439.000000 43.250000,439.000000 
	C43.250000,479.166656 43.250000,518.833313 43.250000,558.750000 
	C203.166672,558.750000 362.833344,558.750000 523.125000,558.750000 
	C523.125000,518.833313 523.125000,479.166656 523.125000,439.000000 
	C458.834198,439.000000 395.167114,439.000000 331.500000,439.000000 
"/>
<path fill="none" opacity="1.000000" stroke="#000000" stroke-linecap="round" stroke-linejoin="round" stroke-width="5.000000"
	d="
M963.000000,167.000000 
	C963.000000,277.500244 963.000000,388.000488 963.000000,499.000000 
	C816.333740,499.000000 670.166870,499.000000 524.000000,499.000000 
"/>
<path fill="none" opacity="1.000000" stroke="#000000" stroke-linecap="round" stroke-linejoin="round" stroke-width="4.000000"
	d="
M829.500000,123.000000 
	C828.700684,122.290848 827.538452,122.640350 826.867310,121.056206 
	C824.545593,115.575493 816.708984,114.718193 811.526062,117.057701 
	C808.722534,118.323143 806.554871,120.589813 807.058411,123.991348 
	C807.621765,127.796989 810.843140,129.074677 814.012756,129.953964 
	C817.371216,130.885666 820.727295,131.742569 824.054810,132.832718 
	C827.447449,133.944214 828.822021,136.120590 828.874207,139.002274 
	C828.925537,141.833176 827.546692,144.145370 824.536438,145.576691 
	C817.270020,149.031723 809.577576,146.567062 806.000000,139.250000 
"/>
<path fill="none" opacity="1.000000" stroke="#000000" stroke-linecap="round" stroke-linejoin="round" stroke-width="4.000000"
	d="
M1030.500000,122.500000 
	C1027.626465,117.226128 1022.547241,114.780594 1017.000000,115.999977 
	C1013.187988,116.837936 1009.978088,120.008865 1010.009155,122.999908 
	C1010.056763,127.584465 1013.594360,128.830688 1017.013367,129.959518 
	C1020.116882,130.984146 1023.363525,131.568268 1026.491577,132.527618 
	C1029.635864,133.491974 1031.802612,135.921234 1031.828247,139.001434 
	C1031.850342,141.640656 1030.067017,143.986404 1027.517456,145.528824 
	C1021.001709,149.470612 1011.819092,146.289688 1009.000000,139.000000 
"/>
<path fill="none" opacity="1.000000" stroke="#000000" stroke-linecap="round" stroke-linejoin="round" stroke-width="4.000000"
	d="
M908.000000,128.500000 
	C905.523865,125.313278 902.935364,123.611847 898.426697,125.304718 
	C895.760681,126.305710 894.079163,126.938637 893.962219,129.998550 
	C893.823181,133.637741 896.579773,134.133865 899.008240,134.976166 
	C900.799500,135.597458 902.696472,135.911942 904.493164,136.520172 
	C907.338562,137.483505 910.088135,138.959991 909.410522,142.482788 
	C908.679138,146.284866 905.121948,147.407593 902.003784,147.335678 
	C898.481750,147.254425 894.484985,146.689911 893.500000,142.000000 
"/>
<path fill="none" opacity="1.000000" stroke="#000000" stroke-linecap="round" stroke-linejoin="round" stroke-width="4.000000"
	d="
M999.000000,128.500000 
	C994.925049,124.223457 990.695557,123.342285 987.000000,126.000015 
	C983.459656,128.546051 983.600159,131.760925 987.525513,133.954391 
	C989.206421,134.893723 991.120728,135.551285 993.010559,135.949890 
	C995.986206,136.577469 999.188599,136.874710 999.924500,140.515259 
	C1000.292236,142.334595 1000.118835,144.091797 998.075134,145.601715 
	C994.554688,148.202759 991.051208,147.762756 987.538879,146.399872 
	C986.084473,145.835510 985.023865,144.190445 984.500000,142.500000 
"/>
<path fill="none" opacity="1.000000" stroke="#000000" stroke-linecap="round" stroke-linejoin="round" stroke-width="4.000000"
	d="
M217.000000,492.500000 
	C212.925079,488.223450 208.695572,487.342316 205.000000,490.000000 
	C201.459656,492.546051 201.600159,495.760925 205.525482,497.954407 
	C207.206451,498.893707 209.120697,499.551300 211.010574,499.949890 
	C213.986176,500.577484 217.188629,500.874725 217.924469,504.515259 
	C218.292206,506.334595 218.118851,508.091766 216.075150,509.601715 
	C212.554642,512.202698 209.051208,511.762695 205.538864,510.399811 
	C204.084457,509.835449 203.023849,508.190460 202.500000,506.500000 
"/>
<path fill="none" opacity="1.000000" stroke="#000000" stroke-linecap="round" stroke-linejoin="round" stroke-width="4.000000"
	d="
M837.500000,115.000000 
	C845.948120,122.729034 847.725098,138.907578 842.936584,149.471237 
	C841.496948,152.647049 840.934387,156.478409 837.500000,158.500000 
"/>
<path fill="none" opacity="1.000000" stroke="#000000" stroke-linecap="round" stroke-linejoin="round" stroke-width="4.000000"
	d="
M1052.000000,116.000000 
	C1052.000000,123.333336 1051.989014,130.666687 1052.003784,138.000000 
	C1052.014893,143.570511 1053.094604,144.961945 1059.001709,146.994904 
	C1063.218628,148.446213 1065.917969,145.744385 1067.898682,142.928741 
	C1070.722046,138.915100 1069.670410,129.573227 1066.110596,126.855095 
	C1062.898193,124.402290 1060.271362,124.168106 1056.987305,125.976936 
	C1055.686157,126.693573 1054.753418,128.173447 1053.000000,128.000000 
"/>
<path fill="none" opacity="1.000000" stroke="#000000" stroke-linecap="round" stroke-linejoin="round" stroke-width="4.000000"
	d="
M1124.500000,151.500000 
	C1126.661743,151.338242 1126.459351,153.539062 1127.464233,154.536011 
	C1130.581177,157.628174 1133.979980,158.176819 1138.014771,156.536240 
	C1141.732544,155.024551 1143.538086,152.161728 1142.886475,148.520309 
	C1141.947876,143.274185 1144.417603,138.227478 1143.080444,132.979507 
	C1142.118408,129.204498 1138.595825,125.024513 1135.000000,124.500008 
	C1132.067749,124.072311 1128.014282,126.813187 1126.530884,130.512405 
	C1125.083496,134.121964 1125.034058,137.900848 1126.536377,141.484756 
	C1129.045654,147.470871 1133.993774,148.745560 1139.492188,144.988510 
	C1140.344360,144.406174 1141.164673,143.869400 1142.250000,144.000000 
"/>
<path fill="none" opacity="1.000000" stroke="#000000" stroke-linecap="round" stroke-linejoin="round" stroke-width="4.000000"
	d="
M798.000000,115.000000 
	C787.824097,127.438705 788.962708,147.109695 798.000000,158.000000 
"/>
<path fill="none" opacity="1.000000" stroke="#000000" stroke-linecap="round" stroke-linejoin="round" stroke-width="4.000000"
	d="
M356.500000,499.000000 
	C353.333344,499.500000 350.175201,500.064850 346.997864,500.483704 
	C342.964050,501.015442 340.326233,503.814758 341.000000,507.000000 
	C341.580963,509.746460 346.086792,512.535400 348.959930,511.398743 
	C351.351898,510.452484 353.895508,509.793793 356.096375,508.127289 
	C357.355408,507.174042 358.038300,506.527222 358.016724,504.999756 
	C357.964966,501.333832 358.220062,497.649994 357.944061,494.004242 
	C357.602448,489.491974 350.319153,486.871460 345.533508,489.559631 
	C344.148468,490.337616 343.166656,491.833313 342.000000,493.000000 
"/>
<path fill="none" opacity="1.000000" stroke="#000000" stroke-linecap="round" stroke-linejoin="round" stroke-width="5.000000"
	d="
M193.000000,511.000000 
	C193.000000,506.500000 193.016251,501.999939 192.996414,497.500031 
	C192.961731,489.629211 187.840973,486.676208 180.976105,490.456604 
	C179.889465,491.055023 179.013885,492.310150 177.500000,492.000000 
"/>
<path fill="none" opacity="1.000000" stroke="#000000" stroke-linecap="round" stroke-linejoin="round" stroke-width="4.000000"
	d="
M275.500000,488.500000 
	C275.500000,493.333344 275.505371,498.166656 275.498077,503.000000 
	C275.493195,506.219055 275.768402,508.924225 279.437653,510.633820 
	C283.050323,512.317139 285.397003,510.748688 287.992523,508.988983 
	C288.873077,508.391968 289.666687,507.666687 290.500000,507.000000 
"/>
<path fill="none" opacity="1.000000" stroke="#000000" stroke-linecap="round" stroke-linejoin="round" stroke-width="5.000000"
	d="
M884.000000,147.000000 
	C884.000000,142.166672 884.015442,137.333267 883.996338,132.500015 
	C883.968994,125.582634 879.113831,122.735313 872.990601,125.982269 
	C871.676147,126.679291 870.753418,128.173447 869.000000,128.000000 
"/>
<path fill="none" opacity="1.000000" stroke="#000000" stroke-linecap="round" stroke-linejoin="round" stroke-width="5.000000"
	d="
M948.000000,147.000000 
	C948.000000,142.166672 948.003479,137.333328 947.999146,132.500000 
	C947.992981,125.563416 943.147827,122.716957 936.990662,125.982361 
	C935.676208,126.679436 934.753418,128.173447 933.000000,128.000000 
"/>
<path fill="none" opacity="1.000000" stroke="#000000" stroke-linecap="round" stroke-linejoin="round" stroke-width="5.000000"
	d="
M385.000000,511.000000 
	C385.000000,506.166656 385.015411,501.333282 384.996338,496.500000 
	C384.968964,489.582642 380.113892,486.735352 373.990631,489.982330 
	C372.676147,490.679352 371.753387,492.173462 370.000000,492.000000 
"/>
<path fill="none" opacity="1.000000" stroke="#000000" stroke-linecap="round" stroke-linejoin="round" stroke-width="5.000000"
	d="
M1116.000000,147.000000 
	C1116.000000,142.166672 1116.015381,137.333267 1115.996338,132.500015 
	C1115.968994,125.582626 1111.113770,122.735329 1104.990601,125.982292 
	C1103.676147,126.679314 1102.753418,128.173447 1101.000000,128.000000 
"/>
<path fill="none" opacity="1.000000" stroke="#000000" stroke-linecap="round" stroke-linejoin="round" stroke-width="5.000000"
	d="
M332.000000,511.000000 
	C332.000000,506.333344 331.904755,501.664093 332.030487,497.000824 
	C332.129059,493.345367 331.197998,490.484375 327.508545,488.979065 
	C324.208252,487.632599 322.173737,489.675232 319.995697,491.494843 
	C319.357086,492.028412 318.666656,492.500000 318.000000,493.000000 
"/>
<path fill="none" opacity="1.000000" stroke="#000000" stroke-linecap="round" stroke-linejoin="round" stroke-width="5.000000"
	d="
M1079.000000,116.000000 
	C1079.000000,126.333336 1079.000000,136.666672 1079.000000,147.000000 
"/>
<path fill="none" opacity="1.000000" stroke="#000000" stroke-linecap="round" stroke-linejoin="round" stroke-width="5.000000"
	d="
M352.499969,394.499969 
	C346.833313,400.333313 341.207275,406.206909 335.483032,411.983185 
	C332.580109,414.912415 329.419891,414.912415 326.516998,411.983154 
	C320.792694,406.206940 315.166656,400.333344 309.500000,394.500000 
"/>
<path fill="none" opacity="1.000000" stroke="#000000" stroke-linecap="round" stroke-linejoin="round" stroke-width="4.000000"
	d="
M975.500000,147.500000 
	C972.985168,143.161591 975.169128,138.478973 974.818115,133.975204 
	C974.543335,130.449509 974.597778,127.438339 971.467957,125.553207 
	C968.089844,123.518509 962.952271,124.477058 959.952576,126.942299 
	C958.866760,127.834679 958.907104,130.403305 956.500000,129.500000 
"/>
<path fill="none" opacity="1.000000" stroke="#000000" stroke-linecap="round" stroke-linejoin="round" stroke-width="4.000000"
	d="
M1041.500000,124.500000 
	C1041.500000,132.166672 1041.500000,139.833328 1041.500000,147.500000 
"/>
<path fill="none" opacity="1.000000" stroke="#000000" stroke-linecap="round" stroke-linejoin="round" stroke-width="4.000000"
	d="
M1089.500000,124.500000 
	C1089.500000,132.166672 1089.500000,139.833328 1089.500000,147.500000 
"/>
<path fill="none" opacity="1.000000" stroke="#000000" stroke-linecap="round" stroke-linejoin="round" stroke-width="5.000000"
	d="
M262.500000,494.000000 
	C256.000000,494.000000 249.500000,494.000000 243.000000,494.000000 
"/>
<path fill="none" opacity="1.000000" stroke="#000000" stroke-linecap="round" stroke-linejoin="round" stroke-width="5.000000"
	d="
M369.000000,489.000000 
	C369.000000,496.333344 369.000000,503.666656 369.000000,511.000000 
"/>
<path fill="none" opacity="1.000000" stroke="#000000" stroke-linecap="round" stroke-linejoin="round" stroke-width="5.000000"
	d="
M302.000000,489.000000 
	C302.000000,496.333344 302.000000,503.666656 302.000000,511.000000 
"/>
<path fill="none" opacity="1.000000" stroke="#000000" stroke-linecap="round" stroke-linejoin="round" stroke-width="5.000000"
	d="
M176.500000,488.500000 
	C177.657608,495.977966 176.688339,503.503235 177.000000,511.000000 
"/>
<path fill="none" opacity="1.000000" stroke="#000000" stroke-linecap="round" stroke-linejoin="round" stroke-width="5.000000"
	d="
M868.000000,125.000000 
	C868.000000,132.333328 868.000000,139.666672 868.000000,147.000000 
"/>
<path fill="none" opacity="1.000000" stroke="#000000" stroke-linecap="round" stroke-linejoin="round" stroke-width="5.000000"
	d="
M932.000000,116.000000 
	C932.000000,126.333336 932.000000,136.666672 932.000000,147.000000 
"/>
<path fill="none" opacity="1.000000" stroke="#000000" stroke-linecap="round" stroke-linejoin="round" stroke-width="5.000000"
	d="
M1100.000000,125.000000 
	C1100.000000,132.333328 1100.000000,139.666672 1100.000000,147.000000 
"/>
<path fill="none" opacity="1.000000" stroke="#000000" stroke-linecap="round" stroke-linejoin="round" stroke-width="4.000000"
	d="
M291.500000,488.500000 
	C291.500000,496.166656 291.500000,503.833344 291.500000,511.500000 
"/>
<path fill="none" opacity="1.000000" stroke="#000000" stroke-linecap="round" stroke-linejoin="round" stroke-width="4.000000"
	d="
M973.500000,134.999985 
	C970.333313,135.499985 967.178955,136.106644 963.996887,136.473083 
	C959.987061,136.934860 957.468689,139.567932 958.000061,143.000000 
	C958.411316,145.655975 963.066040,148.434433 965.979858,147.440887 
	C968.575806,146.555710 971.000000,145.166687 973.500000,144.000015 
"/>
<path fill="none" opacity="1.000000" stroke="#000000" stroke-linecap="round" stroke-linejoin="round" stroke-width="5.000000"
	d="
M303.000000,492.000000 
	C305.310730,492.216949 306.443451,490.023773 308.460815,489.377655 
	C313.309296,487.824707 316.973053,489.980316 316.994812,495.000031 
	C317.017944,500.333252 317.000000,505.666656 317.000000,511.000000 
"/>
<path fill="none" opacity="1.000000" stroke="#000000" stroke-linecap="round" stroke-linejoin="round" stroke-width="5.000000"
	d="
M264.000000,480.000000 
	C264.000000,490.333344 264.000000,500.666656 264.000000,511.000000 
"/>
<path fill="none" opacity="1.000000" stroke="#000000" stroke-linecap="round" stroke-linejoin="round" stroke-width="5.000000"
	d="
M242.000000,480.000000 
	C242.000000,490.333344 242.000000,500.666656 242.000000,511.000000 
"/>
</svg>