<svg version="1.1" id="Layer_1" xmlns="http://www.w3.org/2000/svg" xmlns:xlink="http://www.w3.org/1999/xlink" x="0px" y="0px"
	 width="100%" viewBox="0 0 1645 560" enable-background="new 0 0 1645 560" xml:space="preserve">
<path fill="none" opacity="1.000000" stroke="#000000" stroke-linecap="round" stroke-linejoin="round" stroke-width="5.000000"
	d="
M963.000000,171.000000 
	C963.000000,140.499084 963.000000,109.998177 963.000000,79.250000 
	C736.166687,79.250000 509.833344,79.250000 283.000000,79.250000 
	C283.000000,185.832809 283.000000,292.166412 283.000000,398.500000 
"/>
<path fill="none" opacity="1.000000" stroke="#000000" stroke-linecap="round" stroke-linejoin="round" stroke-width="5.000000"
	d="
M282.500000,399.000000 
	C202.832977,399.000000 123.165970,399.000000 43.250000,399.000000 
	C43.250000,439.166656 43.250000,478.833344 43.250000,518.750000 
	C203.166672,518.750000 362.833344,518.750000 523.125000,518.750000 
	C523.125000,478.833344 523.125000,439.166656 523.125000,399.000000 
	C442.834045,399.000000 363.167023,399.000000 283.500000,399.000000 
"/>
<path fill="none" opacity="1.000000" stroke="#000000" stroke-linecap="round" stroke-linejoin="round" stroke-width="5.000000"
	d="
M963.000000,235.000000 
	C963.000000,309.500366 963.000000,384.000732 963.000000,459.000000 
	C816.333740,459.000000 670.166870,459.000000 524.000000,459.000000 
"/>
<path fill="none" opacity="1.000000" stroke="#000000" stroke-linecap="round" stroke-linejoin="round" stroke-width="4.000000"
	d="
M358.500000,459.500000 
	C358.562103,455.879822 357.437836,452.818665 354.510620,450.486694 
	C351.354340,447.972229 347.677246,447.912933 344.564758,449.618225 
	C339.040710,452.644562 339.705597,458.342926 340.069794,463.495056 
	C340.360168,467.603363 343.048920,469.917755 346.990540,471.033447 
	C351.381317,472.276276 356.715271,469.232880 357.989777,464.497253 
	C358.388702,463.014893 358.666656,461.500000 359.000000,460.000000 
"/>
<path fill="none" opacity="1.000000" stroke="#000000" stroke-linecap="round" stroke-linejoin="round" stroke-width="4.000000"
	d="
M218.000000,452.500000 
	C215.523880,449.313293 212.935394,447.611847 208.426682,449.304718 
	C205.760696,450.305695 204.079132,450.938629 203.962189,453.998566 
	C203.823120,457.637726 206.579727,458.133881 209.008255,458.976196 
	C210.799515,459.597473 212.696472,459.911957 214.493164,460.520203 
	C217.338547,461.483521 220.088104,462.959961 219.410446,466.482758 
	C218.679047,470.284851 215.121948,471.407593 212.003784,471.335632 
	C208.481720,471.254425 204.484970,470.689911 203.500000,466.000000 
"/>
<path fill="none" opacity="1.000000" stroke="#000000" stroke-linecap="round" stroke-linejoin="round" stroke-width="4.000000"
	d="
M915.000000,196.500000 
	C910.925110,192.223465 906.695557,191.342300 903.000000,194.000031 
	C899.459656,196.546066 899.600159,199.760925 903.525452,201.954422 
	C905.206421,202.893723 907.120728,203.551300 909.010559,203.949890 
	C911.986206,204.577484 915.188538,204.874710 915.924377,208.515289 
	C916.292175,210.334610 916.118774,212.091751 914.075134,213.601685 
	C910.554688,216.202759 907.051208,215.762756 903.538879,214.399872 
	C902.084473,213.835510 901.023865,212.190445 900.500000,210.500000 
"/>
<path fill="none" opacity="1.000000" stroke="#000000" stroke-linecap="round" stroke-linejoin="round" stroke-width="5.000000"
	d="
M981.000000,199.000000 
	C985.998230,198.779663 991.070740,199.656281 995.987854,198.450409 
	C1001.008545,197.219147 1003.414856,194.245773 1003.000061,190.500000 
	C1002.565735,186.577194 999.087646,184.042770 993.999939,184.006683 
	C989.494202,183.974731 984.987976,184.000000 980.000000,184.000000 
	C980.000000,194.661209 980.000000,204.830597 980.000000,215.000000 
"/>
<path fill="none" opacity="1.000000" stroke="#000000" stroke-linecap="round" stroke-linejoin="round" stroke-width="5.000000"
	d="
M244.000000,455.000000 
	C248.998215,454.779663 254.072754,455.663116 258.987518,454.449493 
	C264.208435,453.160278 266.522888,450.291840 266.000000,446.500000 
	C265.444397,442.470978 262.113861,440.043121 256.999939,440.006714 
	C252.494186,439.974609 247.987991,440.000000 243.000000,440.000000 
	C243.000000,450.661194 243.000000,460.830597 243.000000,471.000000 
"/>
<path fill="none" opacity="1.000000" stroke="#000000" stroke-linecap="round" stroke-linejoin="round" stroke-width="4.000000"
	d="
M806.500000,182.500000 
	C813.666870,189.555481 815.778259,198.567978 814.791382,207.978119 
	C814.082214,214.740692 812.383606,221.734818 806.500000,226.500000 
"/>
<path fill="none" opacity="1.000000" stroke="#000000" stroke-linecap="round" stroke-linejoin="round" stroke-width="4.000000"
	d="
M318.500000,452.500000 
	C315.696320,450.724945 313.067108,447.963074 309.518768,448.603973 
	C304.785858,449.458771 302.000000,454.134979 302.000000,460.000000 
	C302.000000,465.865051 304.853149,470.189178 309.495117,471.517090 
	C311.386993,472.058289 312.846558,470.780365 314.467743,470.371918 
	C316.112396,469.957581 317.128662,467.811127 319.250000,468.000000 
"/>
<path fill="none" opacity="1.000000" stroke="#000000" stroke-linecap="round" stroke-linejoin="round" stroke-width="4.000000"
	d="
M1013.000000,203.000000 
	C1020.211609,204.360275 1027.887939,203.720581 1031.093872,201.433014 
	C1029.633301,199.185760 1030.010620,196.196548 1027.063110,194.396606 
	C1021.020020,190.706375 1014.235840,193.436020 1013.000122,200.500015 
	C1011.463440,209.284378 1013.157288,212.889542 1020.006348,214.979248 
	C1024.556641,216.367569 1027.635376,214.152695 1030.000000,210.500000 
"/>
<path fill="none" opacity="1.000000" stroke="#000000" stroke-linecap="round" stroke-linejoin="round" stroke-width="4.000000"
	d="
M952.000000,184.000000 
	C952.000000,191.333328 951.988953,198.666687 952.003662,206.000000 
	C952.014771,211.570511 953.094666,212.961899 959.001770,214.994904 
	C963.218567,216.446167 965.918152,213.744446 967.898743,210.928787 
	C970.722168,206.915054 969.670471,197.573166 966.110657,194.855103 
	C962.898193,192.402252 960.271484,192.168091 956.987305,193.976913 
	C955.686096,194.693542 954.753418,196.173447 953.000000,196.000000 
"/>
<path fill="none" opacity="1.000000" stroke="#000000" stroke-linecap="round" stroke-linejoin="round" stroke-width="4.000000"
	d="
M277.000000,459.000000 
	C281.463165,460.161224 286.007019,459.429871 290.499664,459.412415 
	C293.703094,459.399963 294.728333,457.325500 293.500031,454.500000 
	C291.992401,451.031952 287.116516,447.952454 284.000000,448.500000 
	C279.205933,449.342285 276.316986,452.984650 275.945679,457.995972 
	C275.660278,461.847473 275.383148,465.526367 278.494873,468.505371 
	C282.934753,472.755890 287.257629,471.860077 290.986877,468.983002 
	C292.491028,467.822510 293.416321,465.916199 295.500000,465.500000 
"/>
<path fill="none" opacity="1.000000" stroke="#000000" stroke-linecap="round" stroke-linejoin="round" stroke-width="4.000000"
	d="
M1039.000000,219.500000 
	C1041.690430,225.006409 1043.926880,226.236496 1049.000000,225.000031 
	C1055.010620,223.535080 1056.549683,221.819901 1055.904297,215.509781 
	C1055.401001,210.588058 1057.085205,205.859268 1056.499878,201.000015 
	C1055.818481,195.342896 1049.404297,191.417114 1044.486694,193.468201 
	C1039.625366,195.495804 1038.964966,199.455826 1038.964966,204.000000 
	C1038.964966,208.544174 1039.778442,212.232956 1044.421509,214.650681 
	C1047.024170,216.005875 1048.961792,215.039581 1050.957153,214.371933 
	C1052.411743,213.885239 1053.211060,211.775497 1055.250000,212.000000 
"/>
<path fill="none" opacity="1.000000" stroke="#000000" stroke-linecap="round" stroke-linejoin="round" stroke-width="4.000000"
	d="
M770.000000,183.000000 
	C759.824097,195.438705 760.962769,215.109695 770.000000,226.000000 
"/>
<path fill="none" opacity="1.000000" stroke="#000000" stroke-linecap="round" stroke-linejoin="round" stroke-width="4.000000"
	d="
M878.000000,197.000000 
	C874.175903,192.628922 871.704529,191.322952 866.491821,193.480209 
	C864.403137,194.344635 863.124329,196.004028 863.117981,198.000381 
	C863.112000,199.876450 864.167786,201.555130 866.489685,202.048416 
	C868.538879,202.483780 870.469421,203.453461 872.507080,203.972061 
	C875.618164,204.763855 878.889343,205.530869 878.926636,209.500687 
	C878.961182,213.174606 875.845825,214.090286 872.999878,214.999695 
	C868.272705,216.510208 865.081848,214.662201 863.500000,209.500000 
"/>
<path fill="none" opacity="1.000000" stroke="#000000" stroke-linecap="round" stroke-linejoin="round" stroke-width="4.000000"
	d="
M383.500000,471.500000 
	C383.500000,466.333344 383.662384,461.160278 383.459473,456.001587 
	C383.197754,449.347717 378.353607,446.984283 372.452209,449.903351 
	C368.366821,451.924133 367.469421,455.045135 367.494171,459.000031 
	C367.520233,463.166534 367.500000,467.333344 367.500000,471.500000 
"/>
<path fill="none" opacity="1.000000" stroke="#000000" stroke-linecap="round" stroke-linejoin="round" stroke-width="4.000000"
	d="
M853.500000,215.500000 
	C853.500000,210.333328 853.662354,205.160278 853.459473,200.001602 
	C853.197754,193.347687 848.353638,190.984314 842.452209,193.903381 
	C838.366821,195.924164 837.469421,199.045105 837.494141,203.000031 
	C837.520203,207.166550 837.500000,211.333328 837.500000,215.500000 
"/>
<path fill="none" opacity="1.000000" stroke="#000000" stroke-linecap="round" stroke-linejoin="round" stroke-width="4.000000"
	d="
M925.500000,192.500000 
	C925.500000,197.333328 925.505432,202.166687 925.498108,207.000000 
	C925.493225,210.219070 925.768372,212.924240 929.437622,214.633865 
	C933.050293,216.317108 935.397034,214.748672 937.992554,212.988968 
	C938.873108,212.391968 939.666687,211.666702 940.500000,211.000031 
"/>
<path fill="none" opacity="1.000000" stroke="#000000" stroke-linecap="round" stroke-linejoin="round" stroke-width="5.000000"
	d="
M1120.000000,215.000000 
	C1120.000000,210.166672 1120.015381,205.333267 1119.996338,200.500015 
	C1119.968994,193.582626 1115.113770,190.735336 1108.990601,193.982300 
	C1107.676147,194.679321 1106.753418,196.173447 1105.000000,196.000000 
"/>
<path fill="none" opacity="1.000000" stroke="#000000" stroke-linecap="round" stroke-linejoin="round" stroke-width="5.000000"
	d="
M194.000000,471.000000 
	C194.000000,466.166656 194.015427,461.333282 193.996323,456.500000 
	C193.968979,449.582642 189.113861,446.735352 182.990616,449.982300 
	C181.676117,450.679321 180.753387,452.173462 179.000000,452.000000 
"/>
<path fill="none" opacity="1.000000" stroke="#000000" stroke-linecap="round" stroke-linejoin="round" stroke-width="5.000000"
	d="
M788.000000,185.000000 
	C788.000000,195.000000 788.000000,205.000000 788.000000,215.000000 
"/>
<path fill="none" opacity="1.000000" stroke="#000000" stroke-linecap="round" stroke-linejoin="round" stroke-width="5.000000"
	d="
M304.500031,354.500031 
	C298.833344,360.333344 293.207336,366.206970 287.483063,371.983215 
	C284.580139,374.912415 281.419891,374.912415 278.516968,371.983185 
	C272.792694,366.206940 267.166656,360.333344 261.500000,354.500000 
"/>
<path fill="none" opacity="1.000000" stroke="#000000" stroke-linecap="round" stroke-linejoin="round" stroke-width="4.000000"
	d="
M320.000000,449.000000 
	C320.000000,455.833344 319.876740,462.669586 320.039307,469.499054 
	C320.167206,474.871765 318.253479,478.883484 314.507477,480.517120 
	C309.930267,482.513245 303.985413,481.352814 302.000000,475.500000 
"/>
<path fill="none" opacity="1.000000" stroke="#000000" stroke-linecap="round" stroke-linejoin="round" stroke-width="5.000000"
	d="
M1067.000000,193.000000 
	C1067.000000,200.333328 1067.000000,207.666672 1067.000000,215.000000 
"/>
<path fill="none" opacity="1.000000" stroke="#000000" stroke-linecap="round" stroke-linejoin="round" stroke-width="5.000000"
	d="
M330.000000,449.000000 
	C330.000000,456.333344 330.000000,463.666656 330.000000,471.000000 
"/>
<path fill="none" opacity="1.000000" stroke="#000000" stroke-linecap="round" stroke-linejoin="round" stroke-width="5.000000"
	d="
M1169.500000,193.500000 
	C1168.355957,200.643936 1169.316650,207.836823 1169.000000,215.000000 
"/>
<path fill="none" opacity="1.000000" stroke="#000000" stroke-linecap="round" stroke-linejoin="round" stroke-width="5.000000"
	d="
M178.000000,449.000000 
	C178.000000,456.333344 178.000000,463.666656 178.000000,471.000000 
"/>
<path fill="none" opacity="1.000000" stroke="#000000" stroke-linecap="round" stroke-linejoin="round" stroke-width="5.000000"
	d="
M1104.000000,193.000000 
	C1104.000000,200.333328 1104.000000,207.666672 1104.000000,215.000000 
"/>
<path fill="none" opacity="1.000000" stroke="#000000" stroke-linecap="round" stroke-linejoin="round" stroke-width="5.000000"
	d="
M256.500000,456.000000 
	C259.894714,460.060089 263.284637,464.092957 265.568878,468.967743 
	C266.450897,470.850159 268.337616,472.041473 270.500000,472.500000 
"/>
<path fill="none" opacity="1.000000" stroke="#000000" stroke-linecap="round" stroke-linejoin="round" stroke-width="4.000000"
	d="
M941.500000,192.500000 
	C941.500000,200.166672 941.500000,207.833328 941.500000,215.500000 
"/>
<path fill="none" opacity="1.000000" stroke="#000000" stroke-linecap="round" stroke-linejoin="round" stroke-width="5.000000"
	d="
M1177.500000,183.500000 
	C1169.000000,184.899734 1169.000000,184.899734 1169.000000,192.500000 
"/>
<path fill="none" opacity="1.000000" stroke="#000000" stroke-linecap="round" stroke-linejoin="round" stroke-width="5.000000"
	d="
M993.500000,200.000000 
	C996.684509,203.751266 999.804321,207.556061 1001.983887,212.007889 
	C1002.956726,213.995041 1004.355164,215.392120 1006.500000,216.000000 
"/>
<path fill="none" opacity="1.000000" stroke="#000000" stroke-linecap="round" stroke-linejoin="round" stroke-width="5.000000"
	d="
M800.000000,184.000000 
	C792.333313,184.000000 784.666687,184.000000 777.000000,184.000000 
"/>
<path fill="none" opacity="1.000000" stroke="#000000" stroke-linecap="round" stroke-linejoin="round" stroke-width="4.000000"
	d="
M1174.500000,192.500000 
	C1171.500000,192.500000 1168.500000,192.500000 1165.500000,192.500000 
"/>
<path fill="none" opacity="1.000000" stroke="#000000" stroke-linecap="round" stroke-linejoin="round" stroke-width="4.000000"
	d="
M1085.000000,192.500000 
	C1076.109009,195.755814 1072.660645,205.848892 1078.559570,211.942307 
	C1080.997192,214.460251 1083.984131,216.475586 1088.010010,215.027863 
	C1092.104004,213.555679 1094.545776,210.668335 1094.934570,206.493912 
	C1095.578003,199.583450 1094.418457,194.144547 1085.500000,192.500000 
"/>
<path fill="none" opacity="1.000000" stroke="#000000" stroke-linecap="round" stroke-linejoin="round" stroke-width="5.000000"
	d="
M1142.500000,184.000000 
	C1136.517456,185.146149 1132.136475,188.503052 1131.131958,194.522018 
	C1130.026367,201.146500 1129.937622,207.854980 1136.478882,212.529480 
	C1144.461914,218.234207 1156.138794,213.587784 1158.067993,204.514465 
	C1160.671509,192.270065 1154.884155,184.123184 1143.000000,184.000000 
"/>
</svg>