<svg version="1.1" id="Layer_1" xmlns="http://www.w3.org/2000/svg" xmlns:xlink="http://www.w3.org/1999/xlink" x="0px" y="0px"
	 width="100%" viewBox="0 0 1644 404" enable-background="new 0 0 1644 404" xml:space="preserve">
<path fill="none" opacity="1.000000" stroke="#000000" stroke-linecap="round" stroke-linejoin="round" stroke-width="5.000000"
	d="
M443.500031,202.750000 
	C443.333344,201.000000 443.025879,199.250320 443.021912,197.499954 
	C442.984894,181.166702 443.020630,164.833267 442.968506,148.500107 
	C442.963226,146.840012 443.654297,145.067902 442.001892,143.250000 
	C309.500000,143.250000 176.500000,143.250000 43.250000,143.250000 
	C43.250000,183.166672 43.250000,222.833328 43.250000,262.750000 
	C176.500000,262.750000 309.500000,262.750000 443.000000,262.750000 
	C443.000000,260.834686 443.000000,259.167328 443.000000,257.500000 
	C443.000000,241.166672 442.995911,224.833328 443.005676,208.500000 
	C443.006805,206.638412 442.691132,204.723038 443.750000,203.000000 
"/>
<path fill="none" opacity="1.000000" stroke="#000000" stroke-linecap="round" stroke-linejoin="round" stroke-width="5.000000"
	d="
M962.500000,302.000000 
	C963.641785,306.295837 962.920837,310.670471 962.956360,315.000366 
	C963.072510,329.166077 962.976318,343.333435 963.031616,357.499878 
	C963.038147,359.160126 962.345703,360.932098 963.998108,362.750000 
	C1096.500000,362.750000 1229.500000,362.750000 1362.750000,362.750000 
	C1362.750000,322.833344 1362.750000,283.166656 1362.750000,243.250000 
	C1229.500000,243.250000 1096.500000,243.250000 963.000000,243.250000 
	C963.000000,245.165314 963.000000,246.832657 963.000000,248.500000 
	C963.000000,264.500000 963.007935,280.500000 962.988281,296.500000 
	C962.986206,298.174469 963.301270,299.896790 962.500000,301.500000 
"/>
<path fill="none" opacity="1.000000" stroke="#000000" stroke-linecap="round" stroke-linejoin="round" stroke-width="5.000000"
	d="
M962.500000,105.000000 
	C963.610596,110.471397 962.900696,116.001762 962.960022,121.500435 
	C963.089355,133.499039 962.972290,145.500137 963.031921,157.499847 
	C963.040161,159.160339 962.345703,160.932098 963.998108,162.750000 
	C1096.500000,162.750000 1229.500000,162.750000 1362.750000,162.750000 
	C1362.750000,122.833336 1362.750000,83.166664 1362.750000,43.250000 
	C1229.500000,43.250000 1096.500000,43.250000 963.000000,43.250000 
	C963.000000,45.165318 963.000000,46.832661 963.000000,48.500000 
	C963.000000,65.500000 963.007507,82.500008 962.988281,99.499985 
	C962.986389,101.174454 963.301270,102.896797 962.500000,104.500000 
"/>
<path fill="none" opacity="1.000000" stroke="#000000" stroke-linecap="round" stroke-linejoin="round" stroke-width="5.000000"
	d="
M653.500000,203.000000 
	C583.666687,203.000000 513.833313,203.000000 444.000000,203.000000 
"/>
<path fill="none" opacity="1.000000" stroke="#000000" stroke-linecap="round" stroke-linejoin="round" stroke-width="5.000000"
	d="
M798.500000,160.500000 
	C793.665039,158.649460 790.390991,154.563416 786.117981,151.816483 
	C763.560181,137.315140 732.274597,141.458862 713.904846,159.402603 
	C705.004517,168.096542 698.604492,178.212677 696.224304,190.045120 
	C692.379150,209.160660 696.373047,226.981812 709.543884,241.961411 
	C717.972107,251.547165 728.150269,258.175079 740.956909,261.183441 
	C753.073669,264.029724 764.415527,263.049530 776.044495,259.132172 
	C784.564758,256.262054 791.843994,251.394897 797.807312,245.311142 
	C806.339172,236.606934 811.899658,225.900879 814.103516,213.518417 
	C816.275879,201.312469 814.442139,189.781067 809.951050,178.519516 
	C807.969360,173.550323 804.816833,169.187683 801.473267,165.021469 
	C800.424988,163.715332 799.023865,162.690445 798.500000,161.000000 
"/>
<path fill="none" opacity="1.000000" stroke="#000000" stroke-linecap="round" stroke-linejoin="round" stroke-width="5.000000"
	d="
M738.000000,176.000000 
	C738.000000,191.501785 738.000000,207.003586 738.000000,222.750000 
	C748.833313,222.750000 759.166687,222.750000 770.000000,222.750000 
	C770.000000,207.003586 770.000000,191.501785 770.000000,176.000000 
"/>
<path fill="none" opacity="1.000000" stroke="#000000" stroke-linecap="round" stroke-linejoin="round" stroke-width="4.000000"
	d="
M1244.500000,297.500000 
	C1243.144531,297.870209 1242.695068,297.004761 1241.944580,296.043243 
	C1239.201416,292.528412 1236.074707,292.060242 1231.969849,293.408264 
	C1229.474731,294.227600 1227.939819,295.527374 1228.082764,297.995209 
	C1228.212769,300.239288 1229.691040,301.881836 1232.001587,302.494171 
	C1233.994141,303.022247 1236.083984,303.290314 1237.980103,304.049652 
	C1240.753662,305.160400 1244.508423,305.708679 1243.937378,309.991638 
	C1243.506958,313.220062 1237.961304,316.368591 1234.511719,315.455688 
	C1231.738037,314.721680 1229.174683,313.456207 1228.000000,310.500000 
"/>
<path fill="none" opacity="1.000000" stroke="#000000" stroke-linecap="round" stroke-linejoin="round" stroke-width="4.000000"
	d="
M1072.500000,97.500000 
	C1071.872559,97.088165 1070.866455,98.330833 1070.377808,96.533234 
	C1069.652954,93.867271 1066.796387,93.053879 1064.478882,92.610390 
	C1061.025635,91.949562 1056.323364,94.033569 1056.053467,97.004852 
	C1055.710815,100.776360 1058.432861,102.129005 1061.499756,103.000793 
	C1064.395386,103.823891 1067.393799,104.251724 1070.022339,105.965668 
	C1072.702515,107.713196 1072.463623,109.854576 1070.965210,111.975395 
	C1067.227173,117.265869 1060.755859,116.575851 1056.000000,110.500000 
"/>
<path fill="none" opacity="1.000000" stroke="#000000" stroke-linecap="round" stroke-linejoin="round" stroke-width="4.000000"
	d="
M353.000000,196.500000 
	C350.523865,193.313278 347.935425,191.611877 343.426697,193.304733 
	C340.760712,194.305710 339.079193,194.938629 338.962219,197.998550 
	C338.823151,201.637741 341.579742,202.133881 344.008270,202.976181 
	C345.799530,203.597473 347.696472,203.911942 349.493164,204.520218 
	C352.338562,205.483505 355.088135,206.959976 354.410461,210.482773 
	C353.679047,214.284851 350.121918,215.407608 347.003784,215.335678 
	C343.481720,215.254440 339.484955,214.689911 338.500000,210.000000 
"/>
<path fill="none" opacity="1.000000" stroke="#000000" stroke-linecap="round" stroke-linejoin="round" stroke-width="4.000000"
	d="
M169.000000,196.500000 
	C164.925079,192.223465 160.695557,191.342300 157.000000,194.000000 
	C153.459656,196.546066 153.600174,199.760925 157.525482,201.954391 
	C159.206451,202.893707 161.120712,203.551270 163.010574,203.949875 
	C165.986176,204.577469 169.188629,204.874695 169.924469,208.515259 
	C170.292221,210.334610 170.118851,212.091797 168.075180,213.601746 
	C164.554672,216.202789 161.051193,215.762741 157.538864,214.399841 
	C156.084457,213.835480 155.023849,212.190445 154.500000,210.500000 
"/>
<path fill="none" opacity="1.000000" stroke="#000000" stroke-linecap="round" stroke-linejoin="round" stroke-width="5.000000"
	d="
M1160.000000,299.000000 
	C1159.752075,297.390289 1161.205811,296.878143 1162.021729,296.020630 
	C1166.267090,291.558716 1163.752197,285.092682 1157.480713,284.124786 
	C1153.242188,283.470642 1148.821045,284.000000 1144.375000,284.000000 
	C1144.375000,294.500000 1144.375000,304.500000 1144.375000,315.000000 
	C1149.155029,315.000000 1153.847046,315.263733 1158.493896,314.918579 
	C1162.378296,314.630066 1165.814209,310.237671 1165.500244,306.749969 
	C1165.163086,303.006470 1161.330811,299.167419 1157.498779,299.033081 
	C1153.337280,298.887207 1149.166626,299.000000 1145.000000,299.000000 
"/>
<path fill="none" opacity="1.000000" stroke="#000000" stroke-linecap="round" stroke-linejoin="round" stroke-width="4.000000"
	d="
M1217.000000,296.000000 
	C1215.724365,296.051392 1214.938599,295.192078 1213.977905,294.532196 
	C1209.861084,291.704285 1206.169312,292.246948 1203.000000,296.000000 
	C1198.170166,301.719360 1201.191284,312.748840 1207.973999,315.075958 
	C1211.834106,316.400391 1213.759521,312.467712 1217.000000,312.500000 
"/>
<path fill="none" opacity="1.000000" stroke="#000000" stroke-linecap="round" stroke-linejoin="round" stroke-width="4.000000"
	d="
M217.500000,215.500000 
	C214.020630,210.086395 212.152084,203.999603 209.888474,198.042374 
	C208.071259,193.259964 207.085236,188.008041 202.963257,182.627197 
	C198.726471,194.092041 194.863235,204.546021 191.000000,215.000000 
"/>
<path fill="none" opacity="1.000000" stroke="#000000" stroke-linecap="round" stroke-linejoin="round" stroke-width="5.000000"
	d="
M962.000000,301.500000 
	C955.825256,299.902740 950.059387,302.926941 944.019104,303.305176 
	C937.212830,303.731445 930.379333,305.360870 923.494324,305.931244 
	C921.562134,306.091278 920.243408,306.374084 920.000000,308.500000 
"/>
<path fill="none" opacity="1.000000" stroke="#000000" stroke-linecap="round" stroke-linejoin="round" stroke-width="5.000000"
	d="
M920.000000,97.500000 
	C920.138855,99.027779 920.975342,99.833611 922.499512,100.004539 
	C931.333862,100.995255 940.170105,101.971222 948.998535,103.012291 
	C953.330811,103.523163 957.446716,105.905991 962.000000,104.500000 
"/>
<path fill="none" opacity="1.000000" stroke="#000000" stroke-linecap="round" stroke-linejoin="round" stroke-width="4.000000"
	d="
M1120.000000,297.000000 
	C1116.175903,292.628937 1113.704468,291.322937 1108.491821,293.480194 
	C1106.403076,294.344574 1104.977905,296.061707 1105.173828,297.982269 
	C1105.332153,299.535065 1105.842163,301.746002 1108.490234,302.078156 
	C1110.707153,302.356262 1112.664673,303.696503 1114.984741,304.089905 
	C1119.199219,304.804626 1121.710815,307.794128 1121.000122,310.500031 
	C1120.270874,313.276245 1114.452271,316.539764 1111.528076,315.426178 
	C1108.838623,314.401886 1105.926636,313.298859 1105.000000,310.000000 
"/>
<path fill="none" opacity="1.000000" stroke="#000000" stroke-linecap="round" stroke-linejoin="round" stroke-width="4.000000"
	d="
M1292.000000,97.000000 
	C1288.176025,92.629074 1285.704590,91.322861 1280.491821,93.480202 
	C1278.403076,94.344597 1276.978027,96.061691 1277.173828,97.982277 
	C1277.332153,99.535080 1277.842163,101.745979 1280.490234,102.078140 
	C1282.707153,102.356216 1284.664673,103.696495 1286.984741,104.089928 
	C1291.199219,104.804604 1293.710938,107.794098 1293.000122,110.500023 
	C1292.270752,113.276215 1286.452271,116.539787 1283.528076,115.426178 
	C1280.838623,114.401901 1277.926636,113.298851 1277.000000,110.000000 
"/>
<path fill="none" opacity="1.000000" stroke="#000000" stroke-linecap="round" stroke-linejoin="round" stroke-width="4.000000"
	d="
M1148.500000,103.000000 
	C1145.500000,103.500000 1142.514404,104.127586 1139.496460,104.468971 
	C1135.356445,104.937286 1132.648438,107.334236 1133.000000,110.500000 
	C1133.348389,113.637276 1138.112061,116.620033 1141.474976,115.429253 
	C1144.264038,114.441635 1147.470459,113.400429 1149.311523,111.332199 
	C1150.978149,109.459732 1150.276245,106.166138 1149.495728,103.501236 
	C1149.444336,103.325233 1149.220337,103.121727 1149.266235,103.006447 
	C1151.050903,98.520302 1150.355591,94.812805 1145.479858,93.055763 
	C1140.775513,91.360390 1136.991699,93.246964 1134.000000,97.000000 
"/>
<path fill="none" opacity="1.000000" stroke="#000000" stroke-linecap="round" stroke-linejoin="round" stroke-width="4.000000"
	d="
M316.500000,203.000000 
	C313.333344,203.500000 310.175201,204.064835 306.997864,204.483688 
	C302.964081,205.015442 300.326233,207.814743 301.000000,211.000000 
	C301.580963,213.746475 306.086792,216.535370 308.959930,215.398727 
	C311.351868,214.452469 313.895477,213.793762 316.096405,212.127304 
	C317.355408,211.174011 318.038300,210.527222 318.016754,208.999771 
	C317.964966,205.333817 318.220093,201.650009 317.944061,198.004227 
	C317.602478,193.491989 310.319153,190.871506 305.533508,193.559677 
	C304.148529,194.337646 303.166656,195.833344 302.000000,197.000000 
"/>
<path fill="none" opacity="1.000000" stroke="#000000" stroke-linecap="round" stroke-linejoin="round" stroke-width="5.000000"
	d="
M145.000000,215.000000 
	C145.000000,210.166672 145.015427,205.333267 144.996323,200.500015 
	C144.968979,193.582626 140.113861,190.735352 133.990616,193.982315 
	C132.676132,194.679337 131.753387,196.173447 130.000000,196.000000 
"/>
<path fill="none" opacity="1.000000" stroke="#000000" stroke-linecap="round" stroke-linejoin="round" stroke-width="5.000000"
	d="
M1096.000000,315.000000 
	C1096.000000,310.500000 1096.186279,305.990570 1095.959351,301.502045 
	C1095.550537,293.415649 1090.361694,290.354950 1083.523560,294.538422 
	C1082.542603,295.138489 1081.775635,296.051392 1080.500000,296.000000 
"/>
<path fill="none" opacity="1.000000" stroke="#000000" stroke-linecap="round" stroke-linejoin="round" stroke-width="5.000000"
	d="
M241.000000,215.000000 
	C241.000000,210.166672 241.015411,205.333267 240.996307,200.500015 
	C240.968964,193.582626 236.113861,190.735352 229.990631,193.982330 
	C228.676147,194.679352 227.753387,196.173447 226.000000,196.000000 
"/>
<path fill="none" opacity="1.000000" stroke="#000000" stroke-linecap="round" stroke-linejoin="round" stroke-width="5.000000"
	d="
M1046.000000,115.000000 
	C1046.000000,110.166664 1046.015381,105.333275 1045.996338,100.500015 
	C1045.968994,93.582634 1041.113770,90.735329 1034.990601,93.982292 
	C1033.676147,94.679314 1032.753418,96.173447 1031.000000,96.000000 
"/>
<path fill="none" opacity="1.000000" stroke="#000000" stroke-linecap="round" stroke-linejoin="round" stroke-width="4.000000"
	d="
M688.000000,203.000000 
	C686.772095,200.144043 683.837708,199.660706 681.475769,198.551544 
	C672.972473,194.558380 665.031128,189.371338 656.000000,186.500000 
"/>
<path fill="none" opacity="1.000000" stroke="#000000" stroke-linecap="round" stroke-linejoin="round" stroke-width="5.000000"
	d="
M1231.000000,115.000000 
	C1231.000000,110.500000 1231.100952,105.997002 1230.967529,101.500961 
	C1230.863892,98.009552 1230.589844,94.474297 1226.501709,92.995438 
	C1222.964111,91.715752 1220.744507,93.855881 1218.489990,95.989433 
	C1218.059814,96.396492 1217.500000,96.666641 1217.000000,96.999977 
"/>
<path fill="none" opacity="1.000000" stroke="#000000" stroke-linecap="round" stroke-linejoin="round" stroke-width="5.000000"
	d="
M1191.000000,115.000000 
	C1191.000000,110.500000 1191.100952,105.997002 1190.967529,101.500961 
	C1190.863892,98.009552 1190.589844,94.474327 1186.501587,92.995468 
	C1182.964111,91.715752 1180.744629,93.855927 1178.489990,95.989441 
	C1178.059814,96.396545 1177.500000,96.666656 1177.000000,96.999992 
"/>
<path fill="none" opacity="1.000000" stroke="#000000" stroke-linecap="round" stroke-linejoin="round" stroke-width="5.000000"
	d="
M292.000000,215.000000 
	C292.000000,210.333328 291.904755,205.664108 292.030487,201.000824 
	C292.129059,197.345352 291.197998,194.484375 287.508514,192.979111 
	C284.208252,191.632599 282.173706,193.675217 279.995697,195.494843 
	C279.357056,196.028381 278.666687,196.500015 278.000000,197.000015 
"/>
<path fill="none" opacity="1.000000" stroke="#000000" stroke-linecap="round" stroke-linejoin="round" stroke-width="4.000000"
	d="
M694.000000,203.000000 
	C690.301392,202.315598 687.544800,204.261551 684.447937,205.901703 
	C675.427979,210.678772 666.200195,215.071457 656.957520,219.409454 
	C655.804504,219.950638 655.149048,220.602997 654.500000,221.500000 
"/>
<path fill="none" opacity="1.000000" stroke="#000000" stroke-linecap="round" stroke-linejoin="round" stroke-width="5.000000"
	d="
M329.000000,184.000000 
	C329.000000,194.333328 329.000000,204.666672 329.000000,215.000000 
"/>
<path fill="none" opacity="1.000000" stroke="#000000" stroke-linecap="round" stroke-linejoin="round" stroke-width="5.000000"
	d="
M1268.000000,84.000000 
	C1268.000000,94.333336 1268.000000,104.666664 1268.000000,115.000000 
"/>
<path fill="none" opacity="1.000000" stroke="#000000" stroke-linecap="round" stroke-linejoin="round" stroke-width="5.000000"
	d="
M1109.000000,113.500000 
	C1104.274292,106.897804 1103.514771,98.763824 1100.515381,91.493668 
	C1099.666260,89.435806 1099.342407,87.085136 1097.056274,85.870300 
	C1094.742798,87.254967 1094.999756,89.423851 1094.999878,91.500000 
	C1095.000244,99.333336 1095.000000,107.166664 1095.000000,115.000000 
"/>
<path fill="none" opacity="1.000000" stroke="#000000" stroke-linecap="round" stroke-linejoin="round" stroke-width="5.000000"
	d="
M1122.000000,85.000000 
	C1124.007812,94.944183 1122.555176,105.003716 1123.000000,115.000000 
"/>
<path fill="none" opacity="1.000000" stroke="#000000" stroke-linecap="round" stroke-linejoin="round" stroke-width="5.000000"
	d="
M957.000000,105.500000 
	C956.285950,107.662086 954.495544,108.964546 952.998535,110.498581 
	C946.001770,117.668388 939.000000,124.833336 932.000000,132.000000 
"/>
<path fill="none" opacity="1.000000" stroke="#000000" stroke-linecap="round" stroke-linejoin="round" stroke-width="5.000000"
	d="
M932.500000,274.500000 
	C939.833374,282.000000 947.184448,289.482788 954.478943,297.020386 
	C955.464966,298.039276 956.166626,299.333344 957.000000,300.500031 
"/>
<path fill="none" opacity="1.000000" stroke="#000000" stroke-linecap="round" stroke-linejoin="round" stroke-width="4.000000"
	d="
M1257.500000,115.500000 
	C1255.049316,111.156837 1257.212769,106.487671 1256.802124,101.972519 
	C1256.486206,98.500488 1256.935669,95.414001 1253.488525,93.520782 
	C1250.038574,91.625977 1244.949951,92.479248 1241.952515,94.942253 
	C1240.866699,95.834595 1240.907104,98.403305 1238.500000,97.500000 
"/>
<path fill="none" opacity="1.000000" stroke="#000000" stroke-linecap="round" stroke-linejoin="round" stroke-width="3.000000"
	d="
M1120.000000,87.500000 
	C1116.843872,92.014961 1116.131836,97.418861 1114.421509,102.473450 
	C1112.968262,106.768707 1110.833374,110.833328 1109.000000,114.999992 
"/>
<path fill="none" opacity="1.000000" stroke="#000000" stroke-linecap="round" stroke-linejoin="round" stroke-width="4.000000"
	d="
M251.500000,192.500000 
	C251.500000,200.166672 251.500000,207.833328 251.500000,215.500000 
"/>
<path fill="none" opacity="1.000000" stroke="#000000" stroke-linecap="round" stroke-linejoin="round" stroke-width="5.000000"
	d="
M1176.000000,293.000000 
	C1176.000000,300.333344 1176.000000,307.666656 1176.000000,315.000000 
"/>
<path fill="none" opacity="1.000000" stroke="#000000" stroke-linecap="round" stroke-linejoin="round" stroke-width="5.000000"
	d="
M1186.000000,293.000000 
	C1186.000000,300.333344 1186.000000,307.666656 1186.000000,315.000000 
"/>
<path fill="none" opacity="1.000000" stroke="#000000" stroke-linecap="round" stroke-linejoin="round" stroke-width="5.000000"
	d="
M1201.000000,93.000000 
	C1201.000000,100.333336 1201.000000,107.666664 1201.000000,115.000000 
"/>
<path fill="none" opacity="1.000000" stroke="#000000" stroke-linecap="round" stroke-linejoin="round" stroke-width="5.000000"
	d="
M1079.500000,292.500000 
	C1080.657593,299.977966 1079.688354,307.503235 1080.000000,315.000000 
"/>
<path fill="none" opacity="1.000000" stroke="#000000" stroke-linecap="round" stroke-linejoin="round" stroke-width="5.000000"
	d="
M262.000000,193.000000 
	C262.000000,200.333328 262.000000,207.666672 262.000000,215.000000 
"/>
<path fill="none" opacity="1.000000" stroke="#000000" stroke-linecap="round" stroke-linejoin="round" stroke-width="5.000000"
	d="
M1030.000000,93.000000 
	C1030.000000,100.333336 1030.000000,107.666664 1030.000000,115.000000 
"/>
<path fill="none" opacity="1.000000" stroke="#000000" stroke-linecap="round" stroke-linejoin="round" stroke-width="5.000000"
	d="
M1161.000000,93.000000 
	C1161.000000,100.333336 1161.000000,107.666664 1161.000000,115.000000 
"/>
<path fill="none" opacity="1.000000" stroke="#000000" stroke-linecap="round" stroke-linejoin="round" stroke-width="5.000000"
	d="
M129.000000,193.000000 
	C129.000000,200.333328 129.000000,207.666672 129.000000,215.000000 
"/>
<path fill="none" opacity="1.000000" stroke="#000000" stroke-linecap="round" stroke-linejoin="round" stroke-width="5.000000"
	d="
M225.000000,193.000000 
	C225.000000,200.333328 225.000000,207.666672 225.000000,215.000000 
"/>
<path fill="none" opacity="1.000000" stroke="#000000" stroke-linecap="round" stroke-linejoin="round" stroke-width="4.000000"
	d="
M1255.500000,103.000000 
	C1252.333374,103.500000 1249.179077,104.108887 1245.996948,104.472870 
	C1241.881714,104.943588 1239.232178,107.939308 1240.000000,111.499992 
	C1240.491455,113.778976 1245.341675,116.368073 1247.980225,115.443573 
	C1250.570923,114.535820 1253.000000,113.166649 1255.500000,111.999985 
"/>
<path fill="none" opacity="1.000000" stroke="#000000" stroke-linecap="round" stroke-linejoin="round" stroke-width="5.000000"
	d="
M263.000000,196.000000 
	C265.310730,196.216949 266.443481,194.023804 268.460815,193.377670 
	C273.309296,191.824783 276.973053,193.980316 276.994812,199.000015 
	C277.017944,204.333252 277.000000,209.666672 277.000000,215.000000 
"/>
<path fill="none" opacity="1.000000" stroke="#000000" stroke-linecap="round" stroke-linejoin="round" stroke-width="5.000000"
	d="
M1202.000000,96.000000 
	C1204.310791,96.216942 1205.443481,94.023743 1207.460815,93.377617 
	C1212.309326,91.824699 1215.973145,93.980309 1215.994873,99.000023 
	C1216.018066,104.333260 1216.000000,109.666664 1216.000000,115.000000 
"/>
<path fill="none" opacity="1.000000" stroke="#000000" stroke-linecap="round" stroke-linejoin="round" stroke-width="5.000000"
	d="
M1162.000000,96.000000 
	C1164.310791,96.216942 1165.443481,94.023743 1167.460815,93.377647 
	C1172.309326,91.824722 1175.973145,93.980309 1175.994873,99.000023 
	C1176.018066,104.333260 1176.000000,109.666664 1176.000000,115.000000 
"/>
<path fill="none" opacity="1.000000" stroke="#000000" stroke-linecap="round" stroke-linejoin="round" stroke-width="5.000000"
	d="
M654.500000,184.500000 
	C655.510437,190.141846 654.784485,195.834518 654.990173,201.500351 
	C655.208313,207.507599 654.131409,213.585297 656.000000,219.500000 
"/>
<path fill="none" opacity="1.000000" stroke="#000000" stroke-linecap="round" stroke-linejoin="round" stroke-width="5.000000"
	d="
M1218.000000,284.000000 
	C1217.203369,293.155212 1219.440552,302.353271 1217.579590,311.516174 
	C1217.332764,312.731628 1218.166748,314.166656 1218.500000,315.500000 
"/>
<path fill="none" opacity="1.000000" stroke="#000000" stroke-linecap="round" stroke-linejoin="round" stroke-width="5.000000"
	d="
M196.500000,204.500000 
	C201.333328,205.370148 206.166672,205.236206 211.000000,204.500000 
"/>
<path fill="none" opacity="1.000000" stroke="#000000" stroke-linecap="round" stroke-linejoin="round" stroke-width="4.000000"
	d="
M889.500000,275.500000 
	C889.177307,277.489349 890.494934,277.523102 891.951111,278.119354 
	C894.421204,279.130707 896.761414,280.227966 899.500000,280.000000 
"/>
<path fill="none" opacity="1.000000" stroke="#000000" stroke-linecap="round" stroke-linejoin="round" stroke-width="4.000000"
	d="
M875.500000,274.500000 
	C875.822693,272.510651 874.505066,272.476898 873.048889,271.880646 
	C870.578796,270.869263 868.238586,269.772034 865.500000,270.000000 
"/>
<path fill="none" opacity="1.000000" stroke="#000000" stroke-linecap="round" stroke-linejoin="round" stroke-width="4.000000"
	d="
M899.500000,126.000000 
	C895.996460,125.553314 893.148438,127.599304 890.002930,128.510071 
	C888.796448,128.859375 889.849854,129.879135 889.500000,130.500000 
"/>
<path fill="none" opacity="1.000000" stroke="#000000" stroke-linecap="round" stroke-linejoin="round" stroke-width="4.000000"
	d="
M875.500000,131.500000 
	C875.822693,133.489334 874.505066,133.523117 873.048889,134.119385 
	C870.578857,135.130753 868.238586,136.227966 865.500000,136.000000 
"/>
<path fill="none" opacity="1.000000" stroke="#000000" stroke-linecap="round" stroke-linejoin="round" stroke-width="4.000000"
	d="
M842.500000,262.500000 
	C846.329773,260.684540 849.095459,264.189362 852.500000,264.500000 
"/>
<path fill="none" opacity="1.000000" stroke="#000000" stroke-linecap="round" stroke-linejoin="round" stroke-width="4.000000"
	d="
M912.500000,120.500000 
	C915.904541,120.189377 918.670227,116.684532 922.500000,118.500000 
"/>
<path fill="none" opacity="1.000000" stroke="#000000" stroke-linecap="round" stroke-linejoin="round" stroke-width="4.000000"
	d="
M853.000000,139.500000 
	C851.517456,142.391327 846.386658,144.345917 842.500000,143.500000 
"/>
<path fill="none" opacity="1.000000" stroke="#000000" stroke-linecap="round" stroke-linejoin="round" stroke-width="4.000000"
	d="
M912.000000,283.500000 
	C913.482544,286.391327 918.613342,288.345917 922.500000,287.500000 
"/>
<path fill="none" opacity="1.000000" stroke="#000000" stroke-linecap="round" stroke-linejoin="round" stroke-width="4.000000"
	d="
M1195.000000,293.000000 
	C1191.186157,290.940796 1189.946533,295.746246 1187.000000,296.000000 
"/>
<path fill="none" opacity="1.000000" stroke="#000000" stroke-linecap="round" stroke-linejoin="round" stroke-width="4.000000"
	d="
M799.000000,245.500000 
	C801.269165,247.575302 804.613342,247.193314 807.000000,249.000000 
"/>
<path fill="none" opacity="1.000000" stroke="#000000" stroke-linecap="round" stroke-linejoin="round" stroke-width="4.000000"
	d="
M806.500000,157.500000 
	C804.075073,158.687637 801.135864,158.589691 799.000000,160.500000 
"/>
<path fill="none" opacity="1.000000" stroke="#000000" stroke-linecap="round" stroke-linejoin="round" stroke-width="4.000000"
	d="
M829.500000,149.500000 
	C827.083313,150.333328 824.666687,151.166672 822.250000,152.000000 
"/>
<path fill="none" opacity="1.000000" stroke="#000000" stroke-linecap="round" stroke-linejoin="round" stroke-width="4.000000"
	d="
M829.500000,256.500000 
	C827.083313,255.666656 824.666687,254.833328 822.250000,254.000000 
"/>
<path fill="none" opacity="1.000000" stroke="#000000" stroke-linecap="round" stroke-linejoin="round" stroke-width="4.000000"
	d="
M943.500000,110.500000 
	C940.532410,109.962952 938.218506,112.040764 935.500000,112.500000 
"/>
<path fill="none" opacity="1.000000" stroke="#000000" stroke-linecap="round" stroke-linejoin="round" stroke-width="4.000000"
	d="
M936.000000,294.000000 
	C938.669495,293.652618 940.756775,296.215973 943.500000,295.500000 
"/>
</svg>