<svg version="1.1" id="Layer_1" xmlns="http://www.w3.org/2000/svg" xmlns:xlink="http://www.w3.org/1999/xlink" x="0px" y="0px"
	 width="100%" viewBox="0 0 1636 196" enable-background="new 0 0 1636 196" xml:space="preserve">
<path fill="none" opacity="1.000000" stroke="#000000" stroke-linecap="round" stroke-linejoin="round" stroke-width="5.000000"
	d="
M1195.000000,103.500000 
	C1195.000000,123.168076 1195.000000,142.836151 1195.000000,162.750000 
	C1328.500000,162.750000 1461.500000,162.750000 1594.750000,162.750000 
	C1594.750000,122.833336 1594.750000,83.166664 1594.750000,43.250000 
	C1461.500000,43.250000 1328.500000,43.250000 1195.000000,43.250000 
	C1195.000000,45.165318 1195.000000,46.832661 1195.000000,48.500000 
	C1195.000000,65.000000 1195.022949,81.500084 1194.964478,97.999878 
	C1194.958618,99.657127 1195.558716,101.422539 1194.500000,103.000000 
"/>
<path fill="none" opacity="1.000000" stroke="#000000" stroke-linecap="round" stroke-linejoin="round" stroke-width="5.000000"
	d="
M435.500000,102.750000 
	C435.333344,101.000000 435.025879,99.250320 435.021912,97.499947 
	C434.984894,81.166695 435.020660,64.833267 434.968536,48.500099 
	C434.963226,46.840012 435.654297,45.067905 434.001892,43.250000 
	C301.500000,43.250000 168.500000,43.250000 35.250000,43.250000 
	C35.250000,83.166664 35.250000,122.833336 35.250000,162.750000 
	C168.500000,162.750000 301.500000,162.750000 435.000000,162.750000 
	C435.000000,160.834686 435.000000,159.167343 435.000000,157.500000 
	C435.000000,141.166672 434.995911,124.833336 435.005676,108.500000 
	C435.006805,106.638405 434.691132,104.723030 435.750000,103.000000 
"/>
<path fill="none" opacity="1.000000" stroke="#000000" stroke-linecap="round" stroke-linejoin="round" stroke-width="5.000000"
	d="
M1194.000000,103.000000 
	C1117.000000,103.000000 1040.000000,103.000000 963.000000,103.000000 
"/>
<path fill="none" opacity="1.000000" stroke="#000000" stroke-linecap="round" stroke-linejoin="round" stroke-width="5.000000"
	d="
M579.000000,103.000000 
	C531.333313,103.000000 483.666656,103.000000 436.000000,103.000000 
"/>
<path fill="none" opacity="1.000000" stroke="#000000" stroke-linecap="round" stroke-linejoin="round" stroke-width="4.000000"
	d="
M239.500000,90.500000 
	C236.894135,84.878403 232.121552,83.246490 226.511017,84.074638 
	C220.898941,84.903015 217.508759,88.089752 215.866470,93.962662 
	C212.612671,105.598427 218.996567,116.100533 230.006500,115.069466 
	C233.645599,114.728668 236.375229,113.297913 238.485397,110.489029 
	C239.586014,109.023964 240.383194,107.271263 242.500000,107.000000 
"/>
<path fill="none" opacity="1.000000" stroke="#000000" stroke-linecap="round" stroke-linejoin="round" stroke-width="5.000000"
	d="
M825.000000,105.000000 
	C828.833313,105.000000 832.674866,105.159065 836.498108,104.962891 
	C842.293518,104.665543 845.526428,101.322357 845.500000,96.000000 
	C845.476074,91.177979 841.790466,88.056335 835.999939,88.006287 
	C832.161011,87.973114 828.321533,88.000000 824.000000,88.000000 
	C824.000000,98.661201 824.000000,108.830605 824.000000,119.000000 
"/>
<path fill="none" opacity="1.000000" stroke="#000000" stroke-linecap="round" stroke-linejoin="round" stroke-width="4.000000"
	d="
M814.500000,101.500000 
	C813.872559,101.088165 812.866516,102.330833 812.377747,100.533241 
	C811.652893,97.867256 808.796326,97.053886 806.478882,96.610390 
	C803.025696,95.949562 798.323486,98.033607 798.053589,101.004868 
	C797.710999,104.776367 800.432861,106.128983 803.499756,107.000801 
	C806.395264,107.823875 809.393860,108.251602 812.022461,109.965576 
	C814.702454,111.713112 814.463745,113.854637 812.965271,115.975449 
	C809.227173,121.265900 802.755859,120.575851 798.000000,114.500000 
"/>
<path fill="none" opacity="1.000000" stroke="#000000" stroke-linecap="round" stroke-linejoin="round" stroke-width="4.000000"
	d="
M1329.000000,96.500000 
	C1325.070923,92.376457 1322.004150,91.506905 1318.008789,93.517372 
	C1316.215210,94.419884 1314.820801,95.569817 1314.940308,98.002930 
	C1315.048462,100.203026 1315.862549,101.275902 1317.964111,102.092392 
	C1320.273315,102.989517 1322.675049,103.389099 1324.953247,104.141472 
	C1327.683594,105.043182 1330.908447,106.316315 1330.010620,110.502289 
	C1329.187134,114.342941 1325.956543,115.397240 1323.004150,115.326691 
	C1319.497803,115.242912 1315.397949,114.824333 1314.500000,110.000000 
"/>
<path fill="none" opacity="1.000000" stroke="#000000" stroke-linecap="round" stroke-linejoin="round" stroke-width="4.000000"
	d="
M596.500000,86.500000 
	C589.305969,93.546425 587.305725,102.604858 588.218750,111.978691 
	C588.877136,118.738205 590.616394,125.734818 596.500000,130.500000 
"/>
<path fill="none" opacity="1.000000" stroke="#000000" stroke-linecap="round" stroke-linejoin="round" stroke-width="3.000000"
	d="
M650.500000,86.500000 
	C656.534058,90.778709 657.680725,97.614967 658.851868,104.027054 
	C660.439575,112.719360 657.203491,120.763191 653.455383,128.478333 
	C652.938599,129.541992 651.800781,130.284546 650.500000,130.500000 
"/>
<path fill="none" opacity="1.000000" stroke="#000000" stroke-linecap="round" stroke-linejoin="round" stroke-width="4.000000"
	d="
M898.000000,107.500000 
	C902.166687,107.500000 906.336060,107.595108 910.499268,107.474533 
	C915.104492,107.341171 915.961670,105.904228 914.000000,102.000008 
	C912.214600,98.446533 907.513428,95.724869 904.500000,96.500015 
	C899.518127,97.781502 896.723267,101.560646 896.981079,106.500992 
	C897.093811,108.661766 896.369934,111.085930 897.118225,112.952591 
	C899.362488,118.550667 906.362915,122.299217 912.544678,116.547997 
	C913.736267,115.439407 913.814758,112.697464 916.500000,113.500000 
"/>
<path fill="none" opacity="1.000000" stroke="#000000" stroke-linecap="round" stroke-linejoin="round" stroke-width="4.000000"
	d="
M313.000000,96.000000 
	C311.724304,96.051392 310.940704,95.187355 309.978210,94.532021 
	C305.089966,91.203827 299.634766,92.978775 297.499969,98.499985 
	C294.887421,105.256821 298.094513,113.005913 303.974121,115.073563 
	C307.827179,116.428535 309.759552,112.467712 313.000000,112.500000 
"/>
<path fill="none" opacity="1.000000" stroke="#000000" stroke-linecap="round" stroke-linejoin="round" stroke-width="4.000000"
	d="
M722.000000,101.000000 
	C718.175842,96.628868 715.704468,95.323029 710.491821,97.480240 
	C708.403137,98.344627 706.978027,100.061691 707.173889,101.982269 
	C707.332214,103.535072 707.842407,105.746605 710.489685,106.081345 
	C712.541199,106.340744 714.469421,107.453461 716.507141,107.972061 
	C719.618164,108.763847 722.889343,109.530853 722.926636,113.500687 
	C722.961182,117.174606 719.845825,118.090286 716.999878,118.999687 
	C712.272705,120.510216 709.081848,118.662193 707.500000,113.500000 
"/>
<path fill="none" opacity="1.000000" stroke="#000000" stroke-linecap="round" stroke-linejoin="round" stroke-width="4.000000"
	d="
M192.000000,97.000000 
	C188.175919,92.628952 185.704514,91.322945 180.491821,93.480225 
	C178.403152,94.344612 177.124313,96.004036 177.117966,98.000374 
	C177.111984,99.876457 178.167770,101.555115 180.489716,102.048424 
	C182.538864,102.483757 184.469437,103.453438 186.507111,103.972046 
	C189.618179,104.763832 192.889343,105.530853 192.926636,109.500687 
	C192.961151,113.174606 189.845825,114.090294 186.999893,114.999680 
	C182.272705,116.510208 179.081863,114.662201 177.500000,109.500000 
"/>
<path fill="none" opacity="1.000000" stroke="#000000" stroke-linecap="round" stroke-linejoin="round" stroke-width="4.000000"
	d="
M618.500000,107.000015 
	C615.333313,107.500015 612.175232,108.064857 608.997864,108.483704 
	C604.964050,109.015457 602.326233,111.814735 603.000000,114.999992 
	C603.580933,117.746460 608.086731,120.535339 610.959900,119.398705 
	C613.351868,118.452454 615.895508,117.793777 618.096436,116.127350 
	C619.355469,115.174026 620.038330,114.527229 620.016785,112.999763 
	C619.964966,109.333832 620.220093,105.650002 619.944031,102.004234 
	C619.602417,97.491982 612.319153,94.871483 607.533508,97.559647 
	C606.148499,98.337631 605.166626,99.833321 604.000000,100.999985 
"/>
<path fill="none" opacity="1.000000" stroke="#000000" stroke-linecap="round" stroke-linejoin="round" stroke-width="4.000000"
	d="
M869.500000,107.000000 
	C866.333313,107.500000 863.175232,108.064842 859.997864,108.483704 
	C855.964050,109.015457 853.326233,111.814735 854.000000,114.999992 
	C854.580933,117.746460 859.048462,120.464798 861.973755,119.426071 
	C864.762268,118.435844 867.333313,116.833313 870.000000,115.499977 
"/>
<path fill="none" opacity="1.000000" stroke="#000000" stroke-linecap="round" stroke-linejoin="round" stroke-width="4.000000"
	d="
M786.500000,107.000008 
	C783.333313,107.500008 780.174927,108.062248 776.997864,108.483986 
	C773.161560,108.993248 770.578613,111.556404 770.988159,114.501640 
	C771.464966,117.930077 775.527405,120.285286 779.469421,119.368462 
	C782.293457,118.711655 785.470398,117.400436 787.311401,115.332161 
	C788.978149,113.459747 788.276245,110.166122 787.495911,107.501205 
	C787.444336,107.325226 787.220459,107.121765 787.266296,107.006477 
	C789.050964,102.520348 788.355591,98.812828 783.479919,97.055756 
	C778.775574,95.360405 774.991699,97.246964 772.000000,101.000000 
"/>
<path fill="none" opacity="1.000000" stroke="#000000" stroke-linecap="round" stroke-linejoin="round" stroke-width="4.000000"
	d="
M1468.500000,103.000008 
	C1465.333374,103.500008 1462.174683,104.059967 1458.997925,104.484276 
	C1455.326782,104.974625 1452.589600,107.652908 1452.999878,110.500008 
	C1453.408325,113.334007 1458.516602,116.519531 1461.475464,115.433136 
	C1464.256714,114.411919 1467.470581,113.400497 1469.311523,111.332268 
	C1470.978271,109.459808 1470.269531,106.168076 1469.508789,103.497490 
	C1469.442993,103.266251 1469.466064,102.994583 1469.505005,102.750801 
	C1470.079468,99.153282 1471.473145,95.436600 1466.519531,93.451149 
	C1462.146729,91.698334 1458.506592,92.442307 1454.499878,96.499901 
	C1454.334229,96.667595 1454.166748,96.833374 1454.000000,97.000038 
"/>
<path fill="none" opacity="1.000000" stroke="#000000" stroke-linecap="round" stroke-linejoin="round" stroke-width="4.000000"
	d="
M167.500000,115.500000 
	C167.500000,110.333336 167.662384,105.160278 167.459473,100.001595 
	C167.197739,93.347702 162.353638,90.984306 156.452209,93.903374 
	C152.366837,95.924141 151.469421,99.045113 151.494171,103.000038 
	C151.520233,107.166534 151.500000,111.333336 151.500000,115.500000 
"/>
<path fill="none" opacity="1.000000" stroke="#000000" stroke-linecap="round" stroke-linejoin="round" stroke-width="5.000000"
	d="
M1497.000000,115.000000 
	C1497.000000,110.166664 1497.015381,105.333275 1496.996338,100.500015 
	C1496.968994,93.582626 1492.113770,90.735329 1485.990601,93.982292 
	C1484.676147,94.679314 1483.753418,96.173447 1482.000000,96.000000 
"/>
<path fill="none" opacity="1.000000" stroke="#000000" stroke-linecap="round" stroke-linejoin="round" stroke-width="5.000000"
	d="
M1388.000000,93.000000 
	C1388.000000,97.666664 1388.285645,102.356468 1387.910156,106.992722 
	C1387.606934,110.735405 1388.775635,113.406693 1392.023193,114.951126 
	C1395.050415,116.390671 1397.707031,115.117767 1399.992310,112.991707 
	C1400.860352,112.184120 1401.549683,111.099358 1403.000000,111.500000 
"/>
<path fill="none" opacity="1.000000" stroke="#000000" stroke-linecap="round" stroke-linejoin="round" stroke-width="5.000000"
	d="
M940.000000,119.000000 
	C940.000000,114.166664 940.015442,109.333275 939.996338,104.500015 
	C939.968994,97.582634 935.113892,94.735405 928.990662,97.982399 
	C927.676208,98.679413 926.753418,100.173447 925.000000,100.000000 
"/>
<path fill="none" opacity="1.000000" stroke="#000000" stroke-linecap="round" stroke-linejoin="round" stroke-width="5.000000"
	d="
M698.000000,119.000000 
	C698.000000,114.333336 698.164246,109.659554 697.962646,105.001617 
	C697.636475,97.466560 692.418518,94.731644 685.973328,98.453781 
	C684.905518,99.070442 684.013855,100.310165 682.500000,100.000000 
"/>
<path fill="none" opacity="1.000000" stroke="#000000" stroke-linecap="round" stroke-linejoin="round" stroke-width="5.000000"
	d="
M1305.000000,115.000000 
	C1305.000000,110.500000 1304.956299,105.999428 1305.014771,101.500191 
	C1305.056763,98.270653 1304.701172,95.131142 1301.474365,93.552368 
	C1298.288452,91.993530 1295.176880,92.404358 1292.477905,94.976875 
	C1291.791626,95.631119 1290.833374,95.999992 1290.000000,96.499992 
"/>
<path fill="none" opacity="1.000000" stroke="#000000" stroke-linecap="round" stroke-linejoin="round" stroke-width="5.000000"
	d="
M266.000000,115.000000 
	C266.000000,110.166664 266.003448,105.333336 265.999176,100.500000 
	C265.993011,93.563408 261.147827,90.716934 254.990631,93.982338 
	C253.676193,94.679443 252.753387,96.173447 251.000000,96.000000 
"/>
<path fill="none" opacity="1.000000" stroke="#000000" stroke-linecap="round" stroke-linejoin="round" stroke-width="5.000000"
	d="
M762.000000,119.000000 
	C762.000000,114.666664 762.034912,110.332993 761.992554,106.000076 
	C761.910400,97.597015 756.681702,94.440720 749.535095,98.560898 
	C748.685364,99.050797 748.027466,99.652069 747.000000,99.500000 
"/>
<path fill="none" opacity="1.000000" stroke="#000000" stroke-linecap="round" stroke-linejoin="round" stroke-width="5.000000"
	d="
M1444.000000,115.000000 
	C1444.000000,110.000000 1443.937378,104.998932 1444.022583,100.000381 
	C1444.077026,96.803185 1442.750488,94.473862 1439.989380,93.020279 
	C1437.316772,91.613480 1435.095703,93.314758 1433.033081,94.555069 
	C1429.946289,96.411331 1428.496704,99.112144 1428.907837,103.009720 
	C1429.325317,106.965683 1429.000000,111.000000 1429.000000,115.000000 
"/>
<path fill="none" opacity="1.000000" stroke="#000000" stroke-linecap="round" stroke-linejoin="round" stroke-width="4.000000"
	d="
M641.500000,87.500000 
	C641.500000,98.166664 641.500000,108.833336 641.500000,119.500000 
"/>
<path fill="none" opacity="1.000000" stroke="#000000" stroke-linecap="round" stroke-linejoin="round" stroke-width="4.000000"
	d="
M287.500000,83.500000 
	C287.500000,94.166664 287.500000,104.833336 287.500000,115.500000 
"/>
<path fill="none" opacity="1.000000" stroke="#000000" stroke-linecap="round" stroke-linejoin="round" stroke-width="5.000000"
	d="
M631.000000,88.000000 
	C631.000000,98.333336 631.000000,108.666664 631.000000,119.000000 
"/>
<path fill="none" opacity="1.000000" stroke="#000000" stroke-linecap="round" stroke-linejoin="round" stroke-width="8.000000"
	d="
M1151.500000,81.500023 
	C1157.000000,87.166687 1162.513306,92.820541 1167.994507,98.505264 
	C1170.858398,101.475479 1170.858521,104.524544 1167.994629,107.494774 
	C1162.513306,113.179489 1157.000000,118.833313 1151.500000,124.499985 
"/>
<path fill="none" opacity="1.000000" stroke="#000000" stroke-linecap="round" stroke-linejoin="round" stroke-width="5.000000"
	d="
M953.000000,88.500000 
	C951.831055,90.360733 951.990295,92.437950 951.994690,94.500008 
	C952.008972,101.166641 952.068909,107.834381 951.968079,114.499519 
	C951.924255,117.395782 952.729675,119.221779 956.000000,119.000000 
"/>
<path fill="none" opacity="1.000000" stroke="#000000" stroke-linecap="round" stroke-linejoin="round" stroke-width="4.000000"
	d="
M873.500000,120.000000 
	C870.528442,120.145317 870.635925,116.658073 870.739502,116.040146 
	C871.312317,112.622955 870.211792,109.257057 870.644104,106.019249 
	C871.188660,101.941154 871.172852,98.961494 866.520630,97.437126 
	C861.312256,95.730583 858.189087,96.491241 855.000000,101.000000 
"/>
<path fill="none" opacity="1.000000" stroke="#000000" stroke-linecap="round" stroke-linejoin="round" stroke-width="5.000000"
	d="
M277.000000,93.000000 
	C277.000000,100.333336 277.000000,107.666664 277.000000,115.000000 
"/>
<path fill="none" opacity="1.000000" stroke="#000000" stroke-linecap="round" stroke-linejoin="round" stroke-width="5.000000"
	d="
M1374.500000,98.000000 
	C1368.000000,98.000000 1361.500000,98.000000 1355.000000,98.000000 
"/>
<path fill="none" opacity="1.000000" stroke="#000000" stroke-linecap="round" stroke-linejoin="round" stroke-width="5.000000"
	d="
M746.000000,88.000000 
	C746.000000,98.333336 746.000000,108.666664 746.000000,119.000000 
"/>
<path fill="none" opacity="1.000000" stroke="#000000" stroke-linecap="round" stroke-linejoin="round" stroke-width="5.000000"
	d="
M1404.000000,93.000000 
	C1404.000000,100.333336 1404.000000,107.666664 1404.000000,115.000000 
"/>
<path fill="none" opacity="1.000000" stroke="#000000" stroke-linecap="round" stroke-linejoin="round" stroke-width="5.000000"
	d="
M924.000000,97.000000 
	C924.000000,104.333336 924.000000,111.666664 924.000000,119.000000 
"/>
<path fill="none" opacity="1.000000" stroke="#000000" stroke-linecap="round" stroke-linejoin="round" stroke-width="5.000000"
	d="
M892.500000,96.500000 
	C891.000000,97.782776 889.451538,96.156021 888.009705,96.536842 
	C884.641907,97.426407 882.010376,101.249039 882.002441,105.000008 
	C881.992493,109.666649 882.000000,114.333336 882.000000,119.000000 
"/>
<path fill="none" opacity="1.000000" stroke="#000000" stroke-linecap="round" stroke-linejoin="round" stroke-width="5.000000"
	d="
M681.500000,96.500000 
	C682.657593,103.977982 681.688354,111.503220 682.000000,119.000000 
"/>
<path fill="none" opacity="1.000000" stroke="#000000" stroke-linecap="round" stroke-linejoin="round" stroke-width="5.000000"
	d="
M1481.000000,93.000000 
	C1481.000000,100.333336 1481.000000,107.666664 1481.000000,115.000000 
"/>
<path fill="none" opacity="1.000000" stroke="#000000" stroke-linecap="round" stroke-linejoin="round" stroke-width="5.000000"
	d="
M1414.000000,93.000000 
	C1414.000000,100.333336 1414.000000,107.666664 1414.000000,115.000000 
"/>
<path fill="none" opacity="1.000000" stroke="#000000" stroke-linecap="round" stroke-linejoin="round" stroke-width="5.000000"
	d="
M250.000000,84.000000 
	C250.000000,94.333336 250.000000,104.666664 250.000000,115.000000 
"/>
<path fill="none" opacity="1.000000" stroke="#000000" stroke-linecap="round" stroke-linejoin="round" stroke-width="5.000000"
	d="
M1288.500000,92.500000 
	C1289.484131,99.981834 1288.784180,107.501091 1289.000000,115.000000 
"/>
<path fill="none" opacity="1.000000" stroke="#000000" stroke-linecap="round" stroke-linejoin="round" stroke-width="5.000000"
	d="
M1376.000000,84.000000 
	C1376.000000,94.333336 1376.000000,104.666664 1376.000000,115.000000 
"/>
<path fill="none" opacity="1.000000" stroke="#000000" stroke-linecap="round" stroke-linejoin="round" stroke-width="5.000000"
	d="
M1354.000000,84.000000 
	C1354.000000,94.333336 1354.000000,104.666664 1354.000000,115.000000 
"/>
<path fill="none" opacity="1.000000" stroke="#000000" stroke-linecap="round" stroke-linejoin="round" stroke-width="5.000000"
	d="
M314.000000,84.000000 
	C313.237640,93.155838 315.367401,102.352615 313.578613,111.515350 
	C313.340118,112.737053 314.166656,114.166672 314.500000,115.500000 
"/>
<path fill="none" opacity="1.000000" stroke="#000000" stroke-linecap="round" stroke-linejoin="round" stroke-width="4.000000"
	d="
M1429.500000,97.000000 
	C1424.890625,91.723602 1423.390137,91.485466 1417.490356,94.983643 
	C1416.727539,95.435959 1415.833374,95.666656 1415.000000,95.999992 
"/>
<path fill="none" opacity="1.000000" stroke="#000000" stroke-linecap="round" stroke-linejoin="round" stroke-width="4.000000"
	d="
M956.500000,96.500000 
	C953.833313,96.590164 951.166687,97.587456 948.500000,96.500000 
"/>
</svg>